<?xml version="1.0" encoding="UTF-8" standalone="no"?>
<svg
   xmlns:dc="http://purl.org/dc/elements/1.1/"
   xmlns:cc="http://creativecommons.org/ns#"
   xmlns:rdf="http://www.w3.org/1999/02/22-rdf-syntax-ns#"
   xmlns:svg="http://www.w3.org/2000/svg"
   xmlns="http://www.w3.org/2000/svg"
   viewBox="0 0 114.66667 113.33333"
   height="113.33333"
   width="114.66667"
   xml:space="preserve"
   id="svg2"
   version="1.1"><metadata
     id="metadata8"><rdf:RDF><cc:Work
         rdf:about=""><dc:format>image/svg+xml</dc:format><dc:type
           rdf:resource="http://purl.org/dc/dcmitype/StillImage" /></cc:Work></rdf:RDF></metadata><defs
     id="defs6"><clipPath
       id="clipPath30"
       clipPathUnits="userSpaceOnUse"><path
         id="path28"
         d="m 47.7773,306.352 c 17.5157,3.867 32.5196,6.222 44.8555,7.074 12.3362,0.879 22.2812,1.039 29.8282,0.461 7.551,-0.571 12.973,-1.383 16.269,-2.461 3.215,-1.028 4.743,-1.547 4.743,-1.547 0,0 1.828,-1.024 5.246,-3 3.586,-1.981 7.621,-4.766 12.347,-8.492 4.653,-3.676 9.504,-8.297 14.243,-13.805 4.734,-5.535 8.461,-11.777 11.175,-18.898 2.715,-7.036 4.012,-14.879 3.891,-23.52 -0.195,-8.531 -2.465,-17.918 -6.891,-28.101 12.985,-8.926 22.934,-18.239 29.934,-28.016 6.918,-9.746 11.809,-19.219 14.684,-28.391 2.867,-9.23 4.332,-17.914 4.593,-26.195 0.258,-8.254 0,-15.461 -0.996,-21.59 -0.91,-6.125 -1.765,-11.0663 -2.82,-14.7499 -1.047,-3.6641 -1.617,-5.5078 -1.617,-5.5078 -0.09,-0.1563 -0.528,-0.8906 -1.317,-2.2344 -1.035,-1.3281 -3.05,-2.832 -6.218,-4.5039 -3.247,-1.6641 -7.782,-2.957 -13.68,-3.7852 -5.899,-0.8281 -13.801,-0.8632 -24.031,-0.0078 -9.981,0.836 -22.59,3.1914 -37.657,7.0586 C 128.234,122.867 112.227,159.574 96.1523,196.23 80.0586,232.914 63.8984,269.625 47.7773,306.352 Z m 97.3277,-67.688 c 0,0 -0.281,1.063 -1.003,3.219 -0.727,2.16 -1.817,4.211 -3.489,6.211 -1.738,2.082 -4.004,3.48 -6.902,4.304 -2.816,0.821 -6.441,-0.132 -10.543,-2.785 3.328,-9.812 6.742,-19.656 10.238,-29.476 4.266,-1.199 7.215,-0.867 9,0.941 1.785,1.809 2.774,4.031 3.215,6.707 0.356,2.625 0.375,5.074 -0.016,7.383 -0.308,2.328 -0.5,3.496 -0.5,3.496 z m 36.856,-80.004 c -0.078,0.164 -0.496,1.215 -1.258,3.07 -0.789,1.93 -2.183,4.215 -3.863,6.79 -1.762,2.609 -3.871,4.746 -6.496,6.339 -2.375,1.606 -5.442,2.246 -8.957,1.993 -3.434,-0.313 -7.188,-2.418 -11.262,-6.313 4.387,-9.937 8.695,-19.816 13.16,-29.73 6.621,-1.332 11.274,-1.18 14.11,0.425 2.839,1.633 4.558,3.743 5.156,6.356 0.679,2.558 0.703,5.062 0.152,7.484 -0.469,2.391 -0.742,3.586 -0.742,3.586 z m 81.91,159.301 c 23.77,-36.941 46.805,-73.535 67.168,-110.621 20.027,-36.473 37.617,-73.461 54.238,-110.1252 -16.3,-9.8164 -31.867,-19.664 -46.945,-29.5078 -6.195,13.3555 -12.551,26.7422 -19.156,40.113 -11.477,0.215 -22.871,0.426 -34.266,0.614 0.641,-13.7934 1.438,-27.6215 2.32,-41.4496 -17.73,10.2578 -35.867,20.5586 -54.328,30.8476 1.719,36.809 4.18,73.641 9.305,110.246 5.141,36.754 12.953,73.32 21.664,109.883 z m 21.094,-165.785 c 6.582,1.476 13.16,2.922 19.902,4.414 -5.078,12.875 -10.234,25.781 -15.551,38.695 -1.668,-14.344 -3.089,-28.722 -4.351,-43.109 z M 374.16,294.82 c 14.082,-15.574 27.91,-30.98 40.953,-46.609 12.848,-15.398 25.082,-30.988 36.891,-46.469 0.809,15.293 1.824,30.555 2.59,45.848 0.769,15.297 1.699,30.586 2.59,45.875 21.043,-3.176 42.086,-6.383 63.046,-9.586 -5.558,-35.082 -11.113,-70.211 -16.261,-105.316 -5.149,-35.09 -10.137,-70.262 -14.879,-105.3482 -19.149,19.1016 -39.434,38.3322 -60.777,57.5232 0.269,-10.922 0.621,-21.929 0.89,-32.8474 0.274,-10.9218 0.543,-21.8984 0.899,-32.7968 -15.012,-0.5782 -29.86,-1.1094 -44.629,-1.668 -2.035,38.5512 -3.907,77.1252 -5.86,115.6762 -1.953,38.578 -3.742,77.179 -5.453,115.718 z m 158.672,-19.234 c 26.348,4.789 45.938,7.73 58.609,8.863 12.594,1.192 18.969,1.731 18.969,1.731 12.539,1.679 23.07,0.398 31.367,-3.746 8.293,-4.176 14.543,-10.426 18.676,-18.735 4.047,-8.277 5.91,-18.215 5.906,-29.801 -0.242,-11.597 -2.226,-23.89 -5.796,-36.957 -3.559,-13.031 -8.649,-26.394 -15.051,-40.093 -6.407,-13.692 -13.844,-26.84 -22.438,-39.43 -8.433,-12.605 -17.722,-24.1992 -27.699,-34.793 -9.816,-10.6602 -20.207,-19.4062 -31.164,-26.2461 0,0 -1.078,-0.4336 -3.066,-1.2695 -2.079,-0.8789 -5.364,-1.5508 -9.786,-2.0899 -4.582,-0.5351 -10.359,-0.4257 -17.496,0.3086 -7.054,0.7266 -15.773,2.6875 -26.222,5.9297 4.289,36.0235 8.629,72.0972 12.797,108.1292 4.171,36.051 8.257,72.144 12.394,108.199 z m 24.742,-156.481 c 7.008,1.969 13.172,5.235 18.336,9.786 5.242,4.547 9.52,9.402 12.746,14.492 3.395,5.082 6.055,10.222 8.223,15.332 2.09,5.055 3.625,9.062 4.254,11.914 0.683,3.125 1.109,4.828 1.191,5.043 0.102,0.289 0.25,2.117 0.711,5.355 0.383,3.274 0.383,7.149 0.246,11.653 -0.301,4.433 -1.277,8.246 -2.859,11.222 -1.746,3.09 -4.707,4.403 -8.789,4.114 -4.25,-0.332 -9.762,-3.598 -16.945,-9.762 -2.922,-13.184 -5.762,-26.399 -8.598,-39.586 -2.836,-13.188 -5.758,-26.371 -8.516,-39.563 z m 154.715,158.969 c 1.813,-13.136 3.738,-26.238 5.184,-39.359 1.437,-13.082 2.558,-26.211 3.632,-39.293 11.106,12.297 22.438,24.582 34.055,36.84 11.656,12.297 23.68,24.535 35.93,36.789 10.461,-16.446 20.359,-32.836 29.765,-49.238 -18.976,-17.329 -37.468,-34.54 -55.222,-51.946 -17.594,-17.254 -34.535,-34.695 -51.07,-52.07 -5.524,-13.156 -11.063,-26.3361 -16.575,-39.465 -5.535,-13.1797 -11.05,-26.3086 -16.492,-39.4687 -12.683,4.3633 -25.531,8.7305 -38.461,13.1015 4.719,13.4336 9.289,26.9454 13.922,40.3594 4.648,13.4568 9.363,26.9178 13.926,40.3868 -2.067,16.625 -4.383,33.324 -7.254,49.98 -2.887,16.719 -6.492,33.356 -10.184,50.051 19.02,14.473 38.528,28.895 58.844,43.332 z" /></clipPath><linearGradient
       id="linearGradient36"
       spreadMethod="pad"
       gradientTransform="matrix(0.422244,9.99108,-9.99108,0.422244,504.117,121.058)"
       gradientUnits="userSpaceOnUse"
       y2="0"
       x2="9.9357901"
       y1="0"
       x1="-9.9357901"><stop
         id="stop32"
         offset="0"
         style="stop-opacity:1;stop-color:#75a6d6" /><stop
         id="stop34"
         offset="1"
         style="stop-opacity:1;stop-color:#ffffff" /></linearGradient></defs><g
     transform="matrix(1.3333333,0,0,-1.3333333,0,113.33333)"
     id="g10"><g
       transform="scale(0.1)"
       id="g12"><path
         id="path14"
         style="fill:#fffdff;fill-opacity:1;fill-rule:nonzero;stroke:none"
         d="m 344.066,294.16 -3.714,83.559 c 24.027,-26.567 48.253,-53.063 72.082,-79.797 3.949,-4.43 7.785,-8.895 11.691,-13.352 0.73,-0.824 1.25,-1.371 2.125,-2.047 0.625,2.497 0.688,8.598 0.863,11.516 0.231,3.996 0.465,7.988 0.7,11.988 0.421,7.196 0.839,14.391 1.261,21.582 l 0.071,1.2 64.058,-9.707 58.961,-8.997 c 15.258,2.438 29.707,4.391 45.09,5.903 20.219,1.988 37.223,3.683 56.371,-5.199 8.922,-4.137 17.008,-10.157 23.406,-17.621 1.864,-2.176 1.321,-1.907 4.012,0.058 4.301,3.141 8.609,6.238 12.937,9.336 l 0.985,0.703 40.359,28.688 c 2.899,-21.075 5.785,-42.141 8.731,-63.207 7.226,7.5 -2.481,-2.496 3.355,3.523 l 4.012,4.113 c 5.016,5.129 -4.613,-4.738 4.418,4.438 9.117,9.254 -1.891,-1.836 4.609,4.726 7.364,7.438 -5.859,-5.941 4.574,4.543 l 4.825,4.836 0.004,0.063 26.461,26.476 24.578,-38.629 3.695,-5.875 7.582,-12.371 3.637,-6.023 c 0.906,-1.527 0.273,-0.496 3.761,-6.43 l 7.418,-12.75 11.973,-20.879 c -26.844,-24.523 -53.332,-48.734 -79.187,-74.339 -11.313,-11.2 -21.731,-21.844 -32.211,-32.735 -0.02,-0.027 -3.918,-4.09 -5.993,-6.305 -1.808,-1.929 -1.902,-2.82 -2.902,-5.2144 C 733.008,86.3711 727.328,72.7422 721.574,59.2305 720.258,56.1328 704.809,19.1484 698.492,3.88672 l -30.008,10.30468 -15.789,5.4024 0.004,0.0195 -48.051,16.3164 c 2.512,7.1445 5.051,14.293 7.536,21.4531 C 602.367,47.5273 591.211,38.2578 579.328,31 c -2.93,-1.793 -9.301,-4.1875 -12.894,-5.082 -8.938,-2.2227 -17.184,-2.961 -26.383,-2.5703 -8.774,0.3671 -17.426,1.707 -25.969,3.6757 l -0.957,0.2188 -2.344,-17.37111 C 494.582,26.0234 481.656,38.918 467.941,52.6055 c -1.023,1.0156 -1.128,1.082 -6.554,6.4101 l -0.934,0.9102 0.75,-23.125 C 426.484,35.4609 391.762,34.1602 357.047,32.8594 l -0.598,11.4023 -30.754,-20.0703 c -11.465,24.7031 -6.3,12.1602 -4.855,-10.6719 -17.606,10.1875 -46.238,26.6758 -54.492,31.461 0.355,-0.1953 -14.235,8.2304 -20.868,12.0234 0.036,-0.043 -2.734,4.918 -12.343,-0.3359 -24.981,-13.6485 -84.895,-6.3008 -107.582,5.0547 -7.586,3.8046 -28.4847,57.9843 -35.3284,73.6323 -23.1875,53.02 -48.1602,107.204 -70.4024,160.11 -4.539,10.801 -8.25,21.015 -12.00389,32.094 46.28519,14.285 121.78869,31.8 165.49269,-0.118 44.562,-32.546 45.285,-69.054 46.378,-70.097 0.215,-0.207 14.067,65.039 15.899,72.754 5.098,21.41 10.297,42.8 15.398,64.211 24.871,-38.649 50.266,-77.348 74.207,-116.555 6.989,-11.441 13.684,-22.899 20.504,-34.418 0.278,-0.473 0.563,-0.941 0.844,-1.406 -0.84,17.406 -1.688,34.816 -2.477,52.23" /><path
         id="path16"
         style="fill:#ffffff;fill-opacity:1;fill-rule:evenodd;stroke:none"
         d="m 660.98,307.004 c -0.996,-0.996 -2.082,-2.063 -3.257,-3.191 l 80.207,-18.129 -21.047,-66.696 -122.445,25.731 -9.731,-15.961 -18.559,4.012 c -19.175,4.222 6.579,-1.43 -13.863,3.109 -17.515,-6.848 -35.816,-12.188 -54.746,-15.859 -19.668,-3.809 -39.922,-5.809 -60.574,-5.809 -42.832,0 -83.742,8.543 -121.11,24.019 -38.843,16.09 -73.746,39.618 -102.906,68.774 -1.191,1.195 -2.937,2.996 -5.226,5.394 l -1.727,1.821 -8.875,0.441 c -14.875,0.735 -29.769,2.278 -44.195,5.223 -14.781,3.019 -28.977,7.476 -42.055,13.984 -14.1054,7.028 -26.8983,16.328 -37.7538,28.594 -10.8086,12.211 -19.5313,27.199 -25.5078,45.59 -8.336,25.652 -11.6055,49.656 -11.1211,71.359 0.5508,24.934 6.0469,46.805 14.5117,64.68 3.9609,8.363 8.5898,15.918 13.6914,22.582 5.3984,7.031 11.332,13.094 17.5977,18.09 6.7773,5.402 14.0703,9.625 21.6409,12.574 7.656,2.98 15.593,4.613 23.57,4.789 l 0.699,0.016 c 6.278,27.339 16.117,53.367 29,77.566 14.871,27.922 33.711,53.293 55.75,75.332 29.16,29.156 64.063,52.68 102.906,68.77 37.368,15.476 78.278,24.023 121.11,24.023 42.836,0 83.742,-8.547 121.113,-24.023 38.844,-16.09 73.742,-39.614 102.902,-68.77 5.543,-5.539 11.04,-11.492 16.489,-17.84 1.285,-1.496 2.554,-3.004 3.808,-4.519 l 12.586,22.152 11.164,-11.883 c 19.969,-21.258 36.207,-49.691 44.387,-79.929 6.301,-23.293 7.852,-47.786 2.734,-71.114 12.915,14.094 23.696,26.192 25.254,29.637 l 13.293,29.391 9.227,-30.903 c 4.539,-15.195 7.91,-36.133 9.621,-57.367 1.68,-20.914 1.77,-42.367 -0.219,-59.125 l -0.738,-6.211 -0.352,-0.191 -0.843,-8.942 c -1.141,-12.14 -5.407,-31.699 -11.965,-51.468 -5.313,-16.028 -12.153,-32.372 -20.106,-45.34 l -7.902,-12.891 -10.805,10.578 c -6.508,6.371 -15.468,14.938 -23.902,23.008 l -1.508,1.438 c -6.824,-17.067 -15.07,-33.387 -24.601,-48.813 -13.028,-21.082 -28.364,-40.445 -45.622,-57.703" /><path
         id="path18"
         style="fill:#75a6d6;fill-opacity:1;fill-rule:evenodd;stroke:none"
         d="m 436.965,236.297 c 162.773,0 294.726,131.949 294.726,294.726 0,162.77 -131.953,294.723 -294.726,294.723 -162.774,0 -294.727,-131.953 -294.727,-294.723 0,-162.777 131.953,-294.726 294.727,-294.726" /><path
         id="path20"
         style="fill:#293d63;fill-opacity:1;fill-rule:nonzero;stroke:none"
         d="m 436.965,246.316 c 78.621,0 149.797,31.868 201.32,83.387 51.52,51.524 83.387,122.699 83.387,201.32 0,78.618 -31.867,149.797 -83.387,201.317 -51.523,51.519 -122.699,83.387 -201.32,83.387 -78.621,0 -149.797,-31.868 -201.32,-83.387 -51.516,-51.52 -83.387,-122.699 -83.387,-201.317 0,-78.621 31.867,-149.796 83.387,-201.32 51.523,-51.519 122.699,-83.387 201.32,-83.387 z m 215.488,69.215 c -55.144,-55.144 -131.336,-89.258 -215.488,-89.258 -84.152,0 -160.34,34.114 -215.488,89.258 -55.149,55.149 -89.258,131.34 -89.258,215.492 0,84.153 34.113,160.336 89.258,215.485 55.148,55.148 131.336,89.262 215.488,89.262 84.152,0 160.344,-34.114 215.488,-89.262 55.149,-55.149 89.258,-131.332 89.258,-215.485 0,-84.152 -34.109,-160.339 -89.258,-215.492" /><path
         id="path22"
         style="fill:#293d63;fill-opacity:1;fill-rule:nonzero;stroke:none"
         d="m 44.8047,320.598 c 4.5351,1 8.8242,1.886 12.8555,2.656 3.8398,0.734 7.9101,1.441 12.2226,2.117 4.0938,0.645 7.9219,1.184 11.4688,1.602 3.7578,0.445 7.2109,0.781 10.3515,1 3.4414,0.238 6.4844,0.422 9.1099,0.543 2.613,0.117 5.406,0.203 8.375,0.254 2.5,0.039 5.015,0.027 7.542,-0.036 2.422,-0.062 4.688,-0.168 6.786,-0.328 2.293,-0.172 4.23,-0.343 5.812,-0.515 1.781,-0.192 3.434,-0.403 4.953,-0.633 1.797,-0.266 3.364,-0.555 4.696,-0.848 1.406,-0.308 2.765,-0.68 4.082,-1.101 2.839,-0.918 5,-1.657 5.168,-1.711 0.574,-0.176 1.211,-0.461 1.781,-0.68 l 0.976,-0.613 2.106,-1.215 c 2.207,-1.27 1.437,-0.852 2.551,-1.481 1.246,-0.703 2.379,-1.375 3.394,-2.007 1.211,-0.758 2.336,-1.489 3.36,-2.192 0.878,-0.601 2.039,-1.433 3.496,-2.515 1.277,-0.946 2.562,-1.934 3.859,-2.957 1.531,-1.208 2.977,-2.403 4.316,-3.571 1.457,-1.273 2.825,-2.523 4.079,-3.742 1.214,-1.18 2.539,-2.527 3.968,-4.051 1.328,-1.418 2.633,-2.867 3.895,-4.34 1.387,-1.617 2.75,-3.359 4.082,-5.222 1.305,-1.824 2.523,-3.696 3.66,-5.617 1.105,-1.868 2.152,-3.832 3.145,-5.891 0.957,-1.996 1.859,-4.094 2.699,-6.285 0.914,-2.383 1.672,-4.676 2.265,-6.879 0.61,-2.242 1.121,-4.613 1.536,-7.113 0.394,-2.387 0.679,-4.813 0.847,-7.274 0.164,-2.363 0.227,-4.875 0.176,-7.519 -0.051,-2.649 -0.262,-5.352 -0.637,-8.102 -0.379,-2.738 -0.91,-5.531 -1.609,-8.375 l 0.023,-0.004 c -0.375,-1.519 -0.863,-3.262 -1.465,-5.215 l -0.351,-1.125 c 1.187,-0.929 2.355,-1.867 3.5,-2.816 2.351,-1.945 4.492,-3.82 6.414,-5.617 2.855,-2.668 5.496,-5.371 7.926,-8.106 2.484,-2.801 4.715,-5.582 6.683,-8.34 l -0.015,-0.011 1.179,-1.68 c 0.637,5.414 1.395,11.234 2.266,17.473 1.309,9.347 2.785,18.668 4.402,27.964 1.602,9.223 3.36,18.516 5.239,27.872 2.058,10.226 4.023,19.476 5.918,27.984 1.941,8.738 4.078,17.91 6.332,27.375 l 7.648,32.102 17.844,-27.735 c 5.574,-8.656 11.344,-17.68 17.578,-27.543 5.824,-9.215 11.633,-18.523 17.437,-27.992 5.774,-9.422 11.348,-18.699 16.665,-27.789 5.265,-9.012 10.578,-18.359 15.945,-28.137 5.258,-9.578 10.199,-18.879 14.875,-27.945 2.668,-5.172 5.265,-10.293 7.801,-15.359 l -0.387,7.648 c -0.469,9.383 -0.949,18.914 -1.414,28.57 -0.426,8.785 -0.895,18.645 -1.399,29.356 -1.535,32.691 -1.293,27.152 -1.66,35.125 l -1.035,22.722 -1.73,38.993 26.203,-28.969 c 3.594,-3.977 7.148,-7.91 10.609,-11.766 3.559,-3.965 7.027,-7.855 10.363,-11.633 3.551,-4.019 7.024,-7.988 10.372,-11.867 3.5,-4.058 6.839,-7.984 9.98,-11.742 2.797,-3.355 5.98,-7.238 9.5,-11.578 l 4.742,-5.887 c 0.16,2.867 0.313,5.711 0.453,8.516 v 0.023 c 0.617,12.242 1.321,24.227 2.024,36.207 l 1.472,25.149 46.723,-7.078 45.508,-6.946 -0.84,-5.304 c 4.902,0.878 9.324,1.648 13.273,2.312 5.797,0.977 11.122,1.836 15.973,2.566 4.961,0.75 9.59,1.399 13.871,1.942 4.18,0.531 8.035,0.961 11.567,1.285 l 17.843,1.621 0.578,0.078 c 3.625,0.485 7.184,0.758 10.676,0.817 3.512,0.058 6.864,-0.102 10.047,-0.481 3.375,-0.406 6.641,-1.066 9.793,-1.98 3.188,-0.926 6.188,-2.094 8.984,-3.496 2.766,-1.387 5.356,-2.946 7.766,-4.676 2.418,-1.731 4.688,-3.664 6.805,-5.789 2.078,-2.082 4,-4.367 5.758,-6.844 1.707,-2.41 3.257,-5.012 4.625,-7.793 0.363,-0.73 0.703,-1.449 1.023,-2.16 4.172,3.074 9.102,6.676 14.848,10.832 5.508,3.988 10.613,7.656 15.289,10.977 l 18.832,13.39 3.152,-22.933 c 0.383,-2.727 0.754,-5.454 1.141,-8.176 1.551,-11.102 3.097,-22.184 4.133,-31.598 0.218,-1.992 0.496,-4.648 0.804,-7.828 l 4.41,4.727 c 3.719,3.976 6.493,6.929 8.286,8.82 1.726,1.828 4.683,4.902 8.718,9.094 3.946,4.086 6.985,7.218 9.192,9.476 2.789,2.852 5.785,5.895 8.965,9.102 2.894,2.926 6.027,6.074 9.336,9.379 l 12.347,12.359 9.395,-14.762 c 3.175,-4.992 5.851,-9.238 8.027,-12.742 2.555,-4.117 5.043,-8.176 7.461,-12.176 2.289,-3.793 4.738,-7.898 7.344,-12.328 2.48,-4.211 4.91,-8.398 7.297,-12.554 l 5.586,-9.743 -8.301,-7.586 c -4.719,-4.308 -9.414,-8.613 -14.071,-12.918 -4.648,-4.293 -9.277,-8.597 -13.886,-12.921 -4.446,-4.172 -8.949,-8.434 -13.516,-12.805 -4.441,-4.254 -8.906,-8.574 -13.402,-12.985 -4.84,-4.742 -9.086,-8.953 -12.832,-12.71 -3.301,-3.317 -7.653,-7.731 -12.871,-13.067 -5.243,-5.355 -9.313,-9.539 -12.418,-12.762 -3.551,-3.675 -7.133,-7.418 -10.743,-11.199 L 710.219,73.5938 C 703.563,57.7422 697.078,42.2969 694.496,36.0625 l -5.058,-12.2344 c -10.524,3.6172 -21.047,7.2305 -31.583,10.8242 l -32.726,11.1133 4.699,13.3633 c 0.59,1.6758 2.168,6.25 4.227,12.2188 4.675,13.5898 9.324,27.1875 14.031,40.7653 3.254,9.375 6.484,18.696 8.488,24.551 -0.324,2.582 -0.711,5.508 -1.152,8.863 -0.797,-1.613 -1.598,-3.195 -2.399,-4.738 -1.73,-3.332 -3.632,-6.828 -5.714,-10.476 -1.914,-3.364 -3.938,-6.75 -6.067,-10.168 -2.043,-3.282 -4.226,-6.637 -6.539,-10.063 -2.199,-3.246 -4.426,-6.41 -6.676,-9.473 -2.234,-3.0426 -4.609,-6.1402 -7.117,-9.2887 -2.488,-3.125 -4.992,-6.1523 -7.508,-9.0703 -2.675,-3.1172 -5.254,-6 -7.734,-8.6641 -2.664,-2.8593 -5.363,-5.6015 -8.09,-8.2148 -2.758,-2.6445 -5.523,-5.1367 -8.293,-7.4766 -2.711,-2.289 -5.597,-4.5625 -8.676,-6.8125 -3.066,-2.2461 -6.054,-4.2812 -8.957,-6.0898 l -0.613,-0.3828 -1.074,-0.4844 -0.121,-0.0625 -3.231,-1.3594 c -0.937,-0.3984 -1.972,-0.7617 -3.097,-1.0937 -0.934,-0.2774 -2.094,-0.5625 -3.477,-0.8555 -1.141,-0.2422 -2.262,-0.4531 -3.359,-0.6289 -1.227,-0.1992 -2.438,-0.3711 -3.629,-0.5117 -1.578,-0.1875 -3.129,-0.3164 -4.66,-0.375 -1.379,-0.0586 -3.067,-0.0703 -5.059,-0.0352 -1.699,0.0352 -3.457,0.1055 -5.273,0.2227 -1.973,0.125 -3.832,0.2812 -5.594,0.4609 -1.922,0.1953 -4.067,0.5 -6.422,0.9024 -2.234,0.3828 -4.586,0.8554 -7.051,1.4101 -2.512,0.5664 -5.023,1.1914 -7.527,1.8672 -2.645,0.7149 -5.293,1.4844 -7.945,2.3086 l -3.801,1.1836 -0.5,-3.6836 c -6.758,6.7422 -13.008,12.9805 -19.992,19.9453 -3.969,3.957 -8.786,8.6875 -14.465,14.207 -5.324,5.168 -10.352,9.9922 -15.082,14.4649 -2.024,1.918 -4.153,3.9258 -6.403,6.0234 l 0.418,-16.4687 c 0.133,-4.8086 0.285,-10.0078 0.477,-15.9688 l 0.453,-13.9648 -6,-0.2305 c -11.703,-0.4531 -23.41,-0.8906 -35.113,-1.3281 l -31.293,-1.1719 -1.207,23.1055 -2.168,-1.3555 c -3.305,-2.082 -7.137,-4.5234 -11.442,-7.2851 -4.23,-2.7149 -8,-5.1563 -11.402,-7.375 L 332.445,47.6211 C 328.633,55.832 324.82,64.043 321,72.25 c -1.035,2.2031 -2.578,5.4531 -4.758,10.0273 l -3.804,7.9571 -2.083,4.2539 -10.66,0.1953 0.309,-5.6484 0.586,-9.8594 c 0.769,-12.3086 1.558,-24.6133 2.344,-36.9219 L 280.25,55.375 c -3.031,1.7539 -7.492,4.3203 -13.473,7.75 -6.089,3.4883 -10.543,6.0352 -13.464,7.6914 l -15.899,8.9492 c -0.664,-0.9414 -1.476,-1.8789 -2.43,-2.8125 -0.949,-0.9336 -1.984,-1.8008 -3.105,-2.6054 l -1.703,-1.2227 -0.129,0.0039 -0.836,-0.5156 c -0.723,-0.4297 -1.727,-0.9805 -3,-1.6406 -1.383,-0.7188 -2.754,-1.3399 -4.109,-1.8594 l -0.008,0.0195 c -1.465,-0.5586 -2.965,-1.0547 -4.496,-1.4765 -1.422,-0.3946 -2.95,-0.754 -4.575,-1.0782 -1.527,-0.3164 -3.199,-0.5976 -5.011,-0.8515 -1.828,-0.2539 -3.774,-0.4532 -5.828,-0.5782 -2.008,-0.125 -4.172,-0.1914 -6.496,-0.1914 -2.11,-0.0039 -4.438,0.0508 -6.977,0.1641 -2.555,0.1172 -5.156,0.2891 -7.813,0.5078 -2.769,0.2305 -5.703,0.5664 -8.785,1 -3.211,0.4492 -6.41,0.9727 -9.593,1.5703 -3.082,0.5781 -6.543,1.2969 -10.375,2.1602 -3.879,0.8711 -7.629,1.7734 -11.254,2.707 l -6.582,1.6914 -15.723,35.8632 -11.422,26.098 -0.059,0.004 -16.3355,37.367 c -6.9492,15.91 -4.0625,9.363 -7.4336,17.051 -8.8711,20.222 -17.7656,40.464 -26.6601,60.703 l -28.582,65.066 16.7109,3.688" /><g
         id="g24"><g
           clip-path="url(#clipPath30)"
           id="g26"><path
             id="path38"
             style="fill:url(#linearGradient36);fill-opacity:1;fill-rule:nonzero;stroke:none"
             d="m 47.7773,306.352 c 17.5157,3.867 32.5196,6.222 44.8555,7.074 12.3362,0.879 22.2812,1.039 29.8282,0.461 7.551,-0.571 12.973,-1.383 16.269,-2.461 3.215,-1.028 4.743,-1.547 4.743,-1.547 0,0 1.828,-1.024 5.246,-3 3.586,-1.981 7.621,-4.766 12.347,-8.492 4.653,-3.676 9.504,-8.297 14.243,-13.805 4.734,-5.535 8.461,-11.777 11.175,-18.898 2.715,-7.036 4.012,-14.879 3.891,-23.52 -0.195,-8.531 -2.465,-17.918 -6.891,-28.101 12.985,-8.926 22.934,-18.239 29.934,-28.016 6.918,-9.746 11.809,-19.219 14.684,-28.391 2.867,-9.23 4.332,-17.914 4.593,-26.195 0.258,-8.254 0,-15.461 -0.996,-21.59 -0.91,-6.125 -1.765,-11.0663 -2.82,-14.7499 -1.047,-3.6641 -1.617,-5.5078 -1.617,-5.5078 -0.09,-0.1563 -0.528,-0.8906 -1.317,-2.2344 -1.035,-1.3281 -3.05,-2.832 -6.218,-4.5039 -3.247,-1.6641 -7.782,-2.957 -13.68,-3.7852 -5.899,-0.8281 -13.801,-0.8632 -24.031,-0.0078 -9.981,0.836 -22.59,3.1914 -37.657,7.0586 C 128.234,122.867 112.227,159.574 96.1523,196.23 80.0586,232.914 63.8984,269.625 47.7773,306.352 Z m 97.3277,-67.688 c 0,0 -0.281,1.063 -1.003,3.219 -0.727,2.16 -1.817,4.211 -3.489,6.211 -1.738,2.082 -4.004,3.48 -6.902,4.304 -2.816,0.821 -6.441,-0.132 -10.543,-2.785 3.328,-9.812 6.742,-19.656 10.238,-29.476 4.266,-1.199 7.215,-0.867 9,0.941 1.785,1.809 2.774,4.031 3.215,6.707 0.356,2.625 0.375,5.074 -0.016,7.383 -0.308,2.328 -0.5,3.496 -0.5,3.496 z m 36.856,-80.004 c -0.078,0.164 -0.496,1.215 -1.258,3.07 -0.789,1.93 -2.183,4.215 -3.863,6.79 -1.762,2.609 -3.871,4.746 -6.496,6.339 -2.375,1.606 -5.442,2.246 -8.957,1.993 -3.434,-0.313 -7.188,-2.418 -11.262,-6.313 4.387,-9.937 8.695,-19.816 13.16,-29.73 6.621,-1.332 11.274,-1.18 14.11,0.425 2.839,1.633 4.558,3.743 5.156,6.356 0.679,2.558 0.703,5.062 0.152,7.484 -0.469,2.391 -0.742,3.586 -0.742,3.586 z m 81.91,159.301 c 23.77,-36.941 46.805,-73.535 67.168,-110.621 20.027,-36.473 37.617,-73.461 54.238,-110.1252 -16.3,-9.8164 -31.867,-19.664 -46.945,-29.5078 -6.195,13.3555 -12.551,26.7422 -19.156,40.113 -11.477,0.215 -22.871,0.426 -34.266,0.614 0.641,-13.7934 1.438,-27.6215 2.32,-41.4496 -17.73,10.2578 -35.867,20.5586 -54.328,30.8476 1.719,36.809 4.18,73.641 9.305,110.246 5.141,36.754 12.953,73.32 21.664,109.883 z m 21.094,-165.785 c 6.582,1.476 13.16,2.922 19.902,4.414 -5.078,12.875 -10.234,25.781 -15.551,38.695 -1.668,-14.344 -3.089,-28.722 -4.351,-43.109 z M 374.16,294.82 c 14.082,-15.574 27.91,-30.98 40.953,-46.609 12.848,-15.398 25.082,-30.988 36.891,-46.469 0.809,15.293 1.824,30.555 2.59,45.848 0.769,15.297 1.699,30.586 2.59,45.875 21.043,-3.176 42.086,-6.383 63.046,-9.586 -5.558,-35.082 -11.113,-70.211 -16.261,-105.316 -5.149,-35.09 -10.137,-70.262 -14.879,-105.3482 -19.149,19.1016 -39.434,38.3322 -60.777,57.5232 0.269,-10.922 0.621,-21.929 0.89,-32.8474 0.274,-10.9218 0.543,-21.8984 0.899,-32.7968 -15.012,-0.5782 -29.86,-1.1094 -44.629,-1.668 -2.035,38.5512 -3.907,77.1252 -5.86,115.6762 -1.953,38.578 -3.742,77.179 -5.453,115.718 z m 158.672,-19.234 c 26.348,4.789 45.938,7.73 58.609,8.863 12.594,1.192 18.969,1.731 18.969,1.731 12.539,1.679 23.07,0.398 31.367,-3.746 8.293,-4.176 14.543,-10.426 18.676,-18.735 4.047,-8.277 5.91,-18.215 5.906,-29.801 -0.242,-11.597 -2.226,-23.89 -5.796,-36.957 -3.559,-13.031 -8.649,-26.394 -15.051,-40.093 -6.407,-13.692 -13.844,-26.84 -22.438,-39.43 -8.433,-12.605 -17.722,-24.1992 -27.699,-34.793 -9.816,-10.6602 -20.207,-19.4062 -31.164,-26.2461 0,0 -1.078,-0.4336 -3.066,-1.2695 -2.079,-0.8789 -5.364,-1.5508 -9.786,-2.0899 -4.582,-0.5351 -10.359,-0.4257 -17.496,0.3086 -7.054,0.7266 -15.773,2.6875 -26.222,5.9297 4.289,36.0235 8.629,72.0972 12.797,108.1292 4.171,36.051 8.257,72.144 12.394,108.199 z m 24.742,-156.481 c 7.008,1.969 13.172,5.235 18.336,9.786 5.242,4.547 9.52,9.402 12.746,14.492 3.395,5.082 6.055,10.222 8.223,15.332 2.09,5.055 3.625,9.062 4.254,11.914 0.683,3.125 1.109,4.828 1.191,5.043 0.102,0.289 0.25,2.117 0.711,5.355 0.383,3.274 0.383,7.149 0.246,11.653 -0.301,4.433 -1.277,8.246 -2.859,11.222 -1.746,3.09 -4.707,4.403 -8.789,4.114 -4.25,-0.332 -9.762,-3.598 -16.945,-9.762 -2.922,-13.184 -5.762,-26.399 -8.598,-39.586 -2.836,-13.188 -5.758,-26.371 -8.516,-39.563 z m 154.715,158.969 c 1.813,-13.136 3.738,-26.238 5.184,-39.359 1.437,-13.082 2.558,-26.211 3.632,-39.293 11.106,12.297 22.438,24.582 34.055,36.84 11.656,12.297 23.68,24.535 35.93,36.789 10.461,-16.446 20.359,-32.836 29.765,-49.238 -18.976,-17.329 -37.468,-34.54 -55.222,-51.946 -17.594,-17.254 -34.535,-34.695 -51.07,-52.07 -5.524,-13.156 -11.063,-26.3361 -16.575,-39.465 -5.535,-13.1797 -11.05,-26.3086 -16.492,-39.4687 -12.683,4.3633 -25.531,8.7305 -38.461,13.1015 4.719,13.4336 9.289,26.9454 13.922,40.3594 4.648,13.4568 9.363,26.9178 13.926,40.3868 -2.067,16.625 -4.383,33.324 -7.254,49.98 -2.887,16.719 -6.492,33.356 -10.184,50.051 19.02,14.473 38.528,28.895 58.844,43.332" /></g></g><path
         id="path40"
         style="fill:#fffdff;fill-opacity:1;fill-rule:evenodd;stroke:none"
         d="m 293.598,637.719 c -0.153,-12.149 5.66,-16.149 17.222,-18.305 56.426,-17.363 138.344,27.586 215.649,-45.922 23.941,-22.765 40.82,-54.531 41.617,-88.512 0.195,-8.281 -1.578,-23.484 -1.191,-29.804 l 17.199,20.554 c 15.34,26.833 26.765,55.891 37.156,85.704 13.563,38.914 24.836,99.336 3.328,135.589 -20.414,34.415 -63.805,51.188 -117.422,50.11 C 434.414,745.668 308.93,721.832 293.598,637.719" /><path
         id="path42"
         style="fill:#fffdff;fill-opacity:1;fill-rule:evenodd;stroke:none"
         d="m 297.715,552.703 c 25.433,-8.336 43.59,-25.844 67.078,-36.238 33.891,-15.004 82.258,-34.039 120.082,-34.328 36.262,-0.274 47.813,10.644 62.277,35.523 0.461,7.692 3.7,22.301 0.008,28.41 -1.34,2.223 -7.191,5.293 -8.594,6.528 -2.269,2.132 -2.566,2.957 -4.992,5.066 -1.746,1.52 -2.773,2.711 -4.445,4.387 -21.168,21.242 -59.363,36.59 -88.918,41.371 -37.887,6.129 -97.805,-6.102 -129.684,6.937 l -2.625,3.442 c -3.05,0.597 -7.031,2.004 -10.086,1.683 -20.761,-13.871 1.274,-13.32 -14.214,-35.367 -6.645,7.098 -14.028,14.86 -18.559,22.988 -5.293,-4.484 -8.801,-13.902 -9.504,-21.519 l -2.844,-17.77 c 7.825,-0.265 40.004,-9.468 45.02,-11.113" /><path
         id="path44"
         style="fill:#fdfdfd;fill-opacity:1;fill-rule:evenodd;stroke:none"
         d="m 395.734,369.176 c 48.454,-11.699 107.125,10.219 140.477,42.808 3.355,3.278 18.32,20.7 18.758,21.262 13.687,17.711 13.648,20.805 10.84,49.207 -1.016,10.277 -3.043,19.328 -5.786,28.82 -1.503,5.231 -7.668,21.403 -10.394,24.239 -1.297,-9.723 -0.883,-14.461 -4.293,-23.555 -22.781,-60.754 -126.508,-27.93 -165.895,-10.41 -21.683,9.644 -35.375,16.863 -55.343,29.793 -20.559,13.312 -32.711,20.254 -56.598,27.82 -9.648,3.059 -13.832,4.133 -20.809,-1.797 -2.777,-20.918 5.864,-59.468 13.485,-76.308 7.172,-59.528 80.773,-98.66 135.558,-111.879" /><path
         id="path46"
         style="fill:#75a6d6;fill-opacity:1;fill-rule:evenodd;stroke:none"
         d="m 548,536.141 c -1.922,-16.203 -10.719,-43.395 -61.707,-43.008 -37.824,0.285 -83.707,18.789 -117.602,33.789 -42.781,18.937 -64.796,39.433 -111.652,37.223 l 21.906,-3.747 c 13.489,-3.261 25.239,-8.902 37.035,-14.753 5.797,-2.875 11.184,-6.7 16.793,-9.711 14.45,-7.743 36.329,-19.395 52.266,-25.387 6.281,-2.359 12.895,-4.828 19.141,-7.422 l 19.355,-6.48 c 6.883,-2.094 13.383,-3.668 20.481,-5.391 12.668,-3.07 32.675,-6.625 45.781,-5.649 30.871,2.301 58.183,11.559 58.203,50.536" /><path
         id="path48"
         style="fill:#fdfdfd;fill-opacity:1;fill-rule:evenodd;stroke:none"
         d="m 692.668,632.633 c 1.961,-2.434 26.336,-1.856 31.789,-2.735 l -4.883,-30.722 -39.652,-6.586 33.613,-0.817 -3.676,-16.246 -28.132,-2.937 c -0.059,0.344 -1.473,2.394 -1.489,2.41 -1.203,1.258 -0.222,1.559 -1.289,0.438 l 2.246,-8.305 32.5,0.18 c 4.157,5.386 10.047,22.929 11.715,30.75 2.942,13.769 2.75,24.878 1.301,38.976 l -34.043,-4.406" /><path
         id="path50"
         style="fill:#fdfdfd;fill-opacity:1;fill-rule:evenodd;stroke:none"
         d="m 758.223,528.77 c 1.222,1.902 9.441,9.867 12.035,10.808 l -2.387,-15.508 c -3.336,-3.687 -31.285,-22.621 -27.75,-31.898 3.082,0.848 25.899,13.32 32.313,16.68 3.23,1.691 7.609,4.394 10.668,5.687 0.867,11.816 0.644,60.699 -3.364,69.047 l -64.597,-72.531 4.004,-5.387 c 1.148,1.059 3.183,2.52 4.523,3.602 l 24.57,19.683 c 2.547,2.082 8.278,-2.101 9.985,-0.183" /><path
         id="path52"
         style="fill:#75a6d6;fill-opacity:1;fill-rule:evenodd;stroke:none"
         d="m 542.102,548.559 c -3.789,10.093 -30.622,32.98 -41.692,39.918 -14.699,9.218 -33.984,16.617 -54.363,19.933 -39.692,6.465 -77.258,-4.414 -121.973,0.399 -5.937,0.636 -10.855,2.296 -16.347,3.132 59.324,-33.519 145.578,27.446 234.375,-63.382" /><path
         id="path54"
         style="fill:#75a6d6;fill-opacity:1;fill-rule:evenodd;stroke:none"
         d="m 442.211,461.473 c 32.871,-31.114 76.074,-36.246 98.551,13.332 -32.696,-22.18 -63.176,-24.617 -98.551,-13.332" /><path
         id="path56"
         style="fill:#75a6d6;fill-opacity:1;fill-rule:evenodd;stroke:none"
         d="m 524.453,396.148 -3.672,-2.652 c -6.222,-5.082 -18.574,-13.16 -25.504,-16.695 -11.269,-5.75 -21.406,-9.367 -34.754,-13.156 9.207,-0.582 24.235,0.847 32.907,2.703 l 28.41,7.742 c 0.566,0.48 1.758,1.383 2.164,1.711 l 4.129,0.847 c 0.867,0.899 0.246,0.325 1.703,0.977 0.269,0.121 1.746,0.641 2.414,0.934 2.273,0.996 2.527,1.707 4.715,2.554 l 2.918,6.262 c 0.918,2.313 2.047,4.363 2.832,6.848 0.586,0.789 1.066,1.394 1.504,2.406 0.531,1.223 0.09,0.418 0.527,1.437 0.606,1.399 0.055,0.485 0.746,1.36 l -1.332,4.144 c -1.941,-2.441 -17.66,-7.347 -19.707,-7.422" /><path
         id="path58"
         style="fill:#fafafa;fill-opacity:1;fill-rule:evenodd;stroke:none"
         d="m 550.715,387.207 c -0.059,-2.727 -3.692,-9.328 -5.035,-12.207 -1.282,-2.672 -1.637,-4.871 -3.528,-7.078 l -7.476,-16.906 c -0.883,-1.821 -6.516,-15.801 -8.598,-16.524 l -24.965,-1.699 -2.754,-6.918 20.571,-13.555 c -1.203,-2.277 -3.016,-5.015 -4.035,-7.867 l 49.101,-13.855 -7.801,6.238 c -13.371,5.394 -5.718,8.441 -27.242,17.461 l -19.933,13.406 c -0.094,0.078 -0.278,0.238 -0.407,0.363 l 21.254,-3.269 c 2.59,2.887 20.223,59.664 23.25,63.598 l -0.457,1.902 c -0.566,-1.535 -0.242,-0.883 -0.91,-1.93 -0.594,-0.922 -0.426,-0.59 -1.035,-1.16" /><path
         id="path60"
         style="fill:#75a6d6;fill-opacity:1;fill-rule:evenodd;stroke:none"
         d="m 581.813,496.227 c 6.96,12.953 22.378,53.75 22.992,67.523 -8.11,-15.59 -14.278,-25.016 -20.547,-31.887 l -16.445,6.516 c 6.671,-9.289 11.101,-22.324 14,-42.152" /><path
         id="path62"
         style="fill:#fdfdfd;fill-opacity:1;fill-rule:evenodd;stroke:none"
         d="m 663.734,637.102 c 0.891,0.617 41.797,50.304 43.762,55.3 -2.57,1.61 -11.332,16.516 -11.449,16.575 l -34.168,-58.145 c -2.371,-4.039 0.672,-9.191 1.855,-13.73" /><path
         id="path64"
         style="fill:#fafafa;fill-opacity:1;fill-rule:evenodd;stroke:none"
         d="m 563.023,408.16 -1.07,-79.566 -17.875,-3.961 36.402,-40.844 6.489,10.461 -17.098,115.727 -0.117,3.211 -0.863,1.507 -5.868,-6.535" /><path
         id="path66"
         style="fill:#fafafa;fill-opacity:1;fill-rule:evenodd;stroke:none"
         d="m 738,467.234 c -3.934,-4.14 -0.121,0.235 -5.863,-5.093 -3.907,2.754 -13.953,9.144 -16.91,10.386 l -1.907,-4.531 c 6.508,-4.687 43.125,-42.898 47.571,-45.683 2.242,6.292 6.949,14.207 8.629,21.347 -1.012,1.281 -0.29,0.477 -1.766,1.621 -0.524,0.41 -1.543,1.141 -2.359,1.723 -1.497,1.066 -25.547,19.398 -27.395,20.23" /><path
         id="path68"
         style="fill:#fdfdfd;fill-opacity:1;fill-rule:evenodd;stroke:none"
         d="m 732.418,469.805 c 2.426,-1.774 36.863,-20.328 39.168,-20.871 l 7.5,29.382 c -0.449,0.164 -0.715,0.493 -0.809,0.332 l -4.32,1.442 c -6.871,2.047 -32.328,9.265 -36.418,9.676 -0.242,-1.231 22.738,-12.02 27.238,-15.375 -0.933,-4.176 -1.839,-3.891 -3.976,-7.047 -7.899,0.988 -20.36,1.984 -28.383,2.461" /><path
         id="path70"
         style="fill:#fafafa;fill-opacity:1;fill-rule:evenodd;stroke:none"
         d="m 706.848,656.168 c -1.129,-0.211 -40.528,-19.07 -42.184,-21.391 l 0.637,-4.062 c 9.691,0.668 53.156,12.234 65.531,15.84 23.824,8.429 -22.988,9.261 -23.984,9.613" /><path
         id="path72"
         style="fill:#75a6d6;fill-opacity:1;fill-rule:evenodd;stroke:none"
         d="m 526.484,274.027 -0.906,-2.156 22.164,-4.723 11.117,19.582 -2.496,0.809 -0.953,-0.609 -0.515,-0.254 -7.579,-1.328 -20.832,-11.321" /><path
         id="path74"
         style="fill:#75a6d6;fill-opacity:1;fill-rule:evenodd;stroke:none"
         d="m 505.48,276.918 14.387,-3.453 11.461,20.793 -12.359,-0.301 -13.489,-17.039" /><path
         id="path76"
         style="fill:#75a6d6;fill-opacity:1;fill-rule:evenodd;stroke:none"
         d="m 555.184,269.227 -2.25,-3.266 17.785,-4.273 10.902,17.886 -1.574,1.336 -14.535,-4.305 -10.328,-7.378" /><path
         id="path78"
         style="fill:#fafafa;fill-opacity:1;fill-rule:evenodd;stroke:none"
         d="m 560.605,394.289 c -0.347,-0.898 -0.714,-2.211 -1.062,-3.355 -0.145,-0.489 -0.344,-1.161 -0.527,-1.618 -0.543,-1.355 -0.137,-0.679 -0.801,-1.507 l 0.207,-1.004 -1.067,-4.114 -9.73,-37.921 -0.789,-3.149 7.344,2.231 6.242,42.593 c 0.441,3.086 2.84,12.055 1.547,14.18 l -1.364,-6.336" /><path
         id="path80"
         style="fill:#fafafa;fill-opacity:1;fill-rule:evenodd;stroke:none"
         d="m 505.48,276.918 13.489,17.039 12.359,0.301 -19.949,5.379 -11.672,-21.422 5.773,-1.297" /><path
         id="path82"
         style="fill:#78a6d6;fill-opacity:1;fill-rule:evenodd;stroke:none"
         d="m 299.512,457.25 c 5.449,-26.625 8.066,-34.074 15.761,-50.25 0.274,-0.398 22.141,-12.488 25.004,-14.031 -16.468,30.828 -26.086,21.351 -40.765,64.281" /><path
         id="path84"
         style="fill:#75a6d1;fill-opacity:1;fill-rule:evenodd;stroke:none"
         d="m 399.484,723.441 c -8.769,-6.832 -23.398,-17.843 -28.269,-29.836 15.723,16.559 36.312,26.036 58.984,38.079 -2.586,-0.18 -27.191,-4.293 -30.715,-8.243" /><path
         id="path86"
         style="fill:#fafafa;fill-opacity:1;fill-rule:evenodd;stroke:none"
         d="m 526.484,274.027 20.832,11.321 7.579,1.328 0.515,0.254 0.953,0.609 -19.222,5.082 -10.657,-18.594" /><path
         id="path88"
         style="fill:#75a6d1;fill-opacity:1;fill-rule:evenodd;stroke:none"
         d="m 326.922,431.695 c 23.703,-34.164 69.183,-61.711 126.848,-51.488 33.703,5.977 82.289,40.121 94.261,72.801 -50.918,-49.805 -141.758,-71.621 -221.109,-21.313" /><path
         id="path90"
         style="fill:#fafafa;fill-opacity:1;fill-rule:evenodd;stroke:none"
         d="m 555.184,269.227 10.328,7.378 14.535,4.305 -15.676,4.18 -9.187,-15.863" /><path
         id="path92"
         style="fill:#fffdff;fill-opacity:1;fill-rule:evenodd;stroke:none"
         d="m 514.703,390.297 c 34.934,8.906 35.16,20.523 61.043,26.961 29.41,12.812 83.582,53.754 121.195,51.926 6.036,-0.496 10.688,0.863 13.016,5.367 2.098,4.07 2.887,5.926 4.77,10.371 2.511,5.949 4.281,21.199 -0.684,26.113 -1.531,1.516 -8.145,7.012 -15.914,15.793 -3.992,4.512 -10.84,11.902 -13.77,18.676 -20.597,38.086 -19.632,79.699 -42.015,120.949 -1.246,2.293 -2.957,4.426 -3.871,6.414 0.113,-11.769 2.515,-16.832 0.511,-45.199 -1.011,-14.238 -4.269,-30.133 -7.613,-43.57 -10.894,-43.825 -38.625,-102.598 -64.476,-137.469 -14.286,-19.27 -19.102,-21.602 -36.313,-37.996 -2.141,-2.039 -13.648,-16.024 -15.879,-18.336" /><path
         id="path94"
         style="fill:#75a6d1;fill-opacity:1;fill-rule:evenodd;stroke:none"
         d="m 527.004,625.152 c 29.043,0.305 79.914,36.461 35.812,58.633 -6.714,0.395 -9.203,-0.039 -11.312,-0.57 -8.098,-15.996 9.738,-33.735 -28.231,-55.43 0.692,-0.89 0.774,-2.508 3.731,-2.633" /><path
         id="path96"
         style="fill:#75a6d1;fill-opacity:1;fill-rule:evenodd;stroke:none"
         d="m 578.586,418.855 0.641,-1.75 c -0.309,-4.035 -1.403,-8.343 -0.028,-12.218 9.043,5.468 19,11.91 27.676,17.633 9.531,6.281 18.82,11.918 28.203,18.058 12.656,8.277 41.031,24.856 56.848,28.93 2.215,0.566 3.054,0.262 4.484,1.801 -44.562,-0.5 -80.176,-33.399 -117.824,-52.454" /><path
         id="path98"
         style="fill:#293d63;fill-opacity:1;fill-rule:evenodd;stroke:none"
         d="m 555.762,682.859 c 2.105,0.532 3.488,0.789 7.054,0.926 -2.836,1.5 -6.543,2.285 -10.101,2.363 -32.125,-0.316 -58.906,-23.668 -88.863,-22.562 -2.504,3.18 -6.473,6.57 -11.766,15.215 1.723,-5.91 5.301,-15.067 8.074,-20.543 l 10.485,-0.363 c 13.386,-37.926 52.835,-45.54 88.347,-33.493 -10.25,0.559 -22.488,0.61 -32.418,1.797 22.434,10.375 30.742,28.918 29.188,56.66" /><path
         id="path100"
         style="fill:#75a6d6;fill-opacity:1;fill-rule:evenodd;stroke:none"
         d="m 374.648,645.25 c 1.332,-7.535 10.75,-10.113 18.305,-4.719 8.379,5.977 8.785,19.778 -3.875,21.16 -7.965,-0.691 -15.922,-8.015 -14.43,-16.441" /><path
         id="path102"
         style="fill:#1c3359;fill-opacity:1;fill-rule:evenodd;stroke:none"
         d="m 375.969,653.355 c -2.141,-12.503 5.25,-8.984 11.613,-0.195 -0.082,-2.777 -2.023,-5.465 -3.547,-7.535 6.543,2.551 10.379,10.957 5.422,16.016 -0.129,0.019 -0.254,0.035 -0.379,0.05 -5.344,-0.461 -10.676,-3.906 -13.164,-8.664 l 0.055,0.328" /><path
         id="path104"
         style="fill:#1c3359;fill-opacity:1;fill-rule:evenodd;stroke:none"
         d="m 443.477,460.68 c 4.418,-1.41 7.218,-3.11 11.781,-4.485 33.363,-10.039 62.828,-4.332 85.504,18.61 -32.871,-19.821 -59.395,-22.364 -98.867,-13.133 l 1.582,-0.992" /><path
         id="path106"
         style="fill:#ed4a6e;fill-opacity:1;fill-rule:evenodd;stroke:none"
         d="m 546.207,680.836 c -10.297,-2.801 -17.543,-7.77 -26.34,-11.484 l 3.457,-1.086 4.168,1.047 c 3.531,-0.872 4.34,-4.852 0.867,-7.653 0.11,-17.484 -24.636,-10.68 -15.859,4.293 -3.871,-0.285 -18.145,-7.082 -32.906,-7.14 0.406,-8.485 10.422,-20.45 20.965,-24.532 35.105,-13.59 48.464,30.004 45.648,46.555" /><path
         id="path108"
         style="fill:#f8f8f8;fill-opacity:1;fill-rule:evenodd;stroke:none"
         d="m 523.324,668.266 c -1.722,-4.688 -0.39,-7.446 5.035,-6.606 3.473,2.801 2.664,6.781 -0.867,7.653 l -4.168,-1.047" /><path
         id="path110"
         style="fill:#ffffff;fill-opacity:1;fill-rule:evenodd;stroke:none"
         d="m 526.91,670.02 c 2.965,0 5.371,-2.282 5.371,-5.102 0,-2.813 -2.406,-5.094 -5.371,-5.094 -2.969,0 -5.375,2.281 -5.375,5.094 0,2.82 2.406,5.102 5.375,5.102" /><path
         id="path112"
         style="fill:#78a6d6;fill-opacity:1;fill-rule:evenodd;stroke:none"
         d="m 616.137,457.34 c 19.332,4.426 28.269,14.105 15.781,31.937 19.992,2.973 25.324,19.426 16.227,36.141 25.25,-0.188 24.785,25.387 9.726,38.48 1.09,-2.644 1.922,-2.515 4.516,-10.121 1.41,-4.144 0.215,-9.476 -1.504,-13.027 -3.789,-7.816 -9.621,-10.57 -20.695,-11.32 15.742,-17.496 3.578,-36.543 -15.293,-36.192 4.574,-5.465 7,-17.59 1.761,-24.566 -2.734,-3.637 -4.613,-7.692 -10.519,-11.332" /><path
         id="path114"
         style="fill:#78a6d6;fill-opacity:1;fill-rule:evenodd;stroke:none"
         d="m 650.793,465.746 c 6.434,-2.863 25.754,4.543 25.184,19.938 -0.211,5.742 -1.356,8.515 -3.954,12.535 4.454,0.644 7.719,1.629 10.938,4.09 1.988,1.527 5.484,5.722 5.789,8.472 23.57,-1.633 20.563,-40.445 -6.277,-35.558 5.062,-4.325 24.785,-0.594 27.433,13.527 1.477,16.289 -6.09,21.863 -20.664,22.926 3.266,13.765 -2.98,23.691 -11.941,30.164 1.754,-3.141 6.363,-9.992 7.375,-19.274 1.285,-11.785 -5.278,-20.921 -20.262,-20.832 0.094,-0.171 0.262,-0.218 0.32,-0.492 0.055,-0.273 0.246,-0.375 0.325,-0.48 2.316,-3.012 3.937,-3.848 5.484,-9.063 3.555,-11.969 -3.469,-24.769 -19.75,-25.953" /><path
         id="path116"
         style="fill:#1c3359;fill-opacity:1;fill-rule:evenodd;stroke:none"
         d="m 624.895,493.238 c 18.871,-0.351 31.035,18.696 15.293,36.192 28.488,-2.762 31.496,28.855 5.683,39.968 15.496,-19.207 10.68,-36.664 -15.566,-35.566 8.16,-7.887 21.054,-35.062 -15.598,-36.141 8.395,-7.171 22.254,-36.543 -15.289,-36.543 35.383,-9.164 41.047,17.93 25.477,32.09" /><path
         id="path118"
         style="fill:#1c3359;fill-opacity:1;fill-rule:evenodd;stroke:none"
         d="m 638.891,470.039 c 32.675,-14.598 41.968,18.797 25.523,31.695 14.984,-0.089 22.789,9.313 21.504,21.098 -1.242,11.352 -6.766,16.281 -15.641,19.281 7.262,-5.66 21.59,-33.058 -16.047,-35.742 4.973,-4.316 28.391,-37.219 -15.339,-36.332" /><path
         id="path120"
         style="fill:#1c3357;fill-opacity:1;fill-rule:evenodd;stroke:none"
         d="m 689.32,509.664 c 9.356,-3.258 10.711,-13.793 6.899,-21.305 -3.367,-6.644 -10.348,-10.285 -20.504,-9.472 32.105,-13.739 45.527,35.332 13.605,30.777" /><path
         id="path122"
         style="fill:#75a6d6;fill-opacity:1;fill-rule:evenodd;stroke:none"
         d="m 665.301,630.715 c 3.176,-8.297 6.371,-33.231 9.586,-38.688 l 28.629,-1.371 -27.707,-3.441 3.14,-11.777 2.778,-2.848 28.132,2.937 3.676,16.246 -33.613,0.817 39.652,6.586 4.883,30.722 -31.789,2.735 32.945,8.949 -0.355,6.66 -59.957,-17.527" /><path
         id="path124"
         style="fill:#75a6d6;fill-opacity:1;fill-rule:evenodd;stroke:none"
         d="m 663.734,637.102 0.93,-2.325 17.18,8.184 c 9.386,10.965 22.152,25.379 32.027,35.32 l -7.973,15.895 c -1.96,-4.996 -41.273,-56.457 -42.164,-57.074" /><path
         id="path126"
         style="fill:#75a6d6;fill-opacity:1;fill-rule:evenodd;stroke:none"
         d="m 757.512,536.75 -34.344,-33.836 c -2.316,-2.008 -3.391,-3.539 -2.813,-6.824 0.661,-9.758 -3.039,-15.727 -5.125,-23.563 l 34.551,-34.234 11.004,11.902 -22.785,17.039 26.078,-6.007 4.332,13.07 c -2.773,2.074 -26.816,14.527 -30.871,15.469 l 2.582,2.406 c 0.012,1.656 32.215,26.793 35.555,30.476 l -3.645,27.04 -14.519,-12.938" /><path
         id="path128"
         style="fill:#293d63;fill-opacity:1;fill-rule:evenodd;stroke:none"
         d="m 350.766,280.656 14.754,23.071 114.703,-23.879 c -0.254,-2.387 -2.633,-13.121 -3.696,-14.66 13.141,-3.118 89.227,-20.036 102.36,-22.86 l 9.699,15.914 120.086,-25.234 13.828,43.836 -129.539,29.281 -8.926,29.172 -1.847,52.66 c 15.796,6.832 65.695,51.438 105.558,66.75 13.606,5.234 16.059,2.637 30.52,-11.937 8.242,-8.317 32.211,-30.856 46.781,-45.118 16.773,27.368 28.449,71.121 30.375,91.625 l -17.516,5.211 19.449,10.465 c 3.809,32.125 -0.441,83.067 -8.976,111.637 -5.348,-11.82 -66.168,-72.422 -77.41,-89.266 -6.449,3.348 -15.598,18.34 -17.446,24.578 l 27.68,0.641 c 42.281,55.82 17.813,136.652 -24.941,182.164 l -37.965,-66.82 c -5.481,10.465 -10.207,17.402 -16.34,26.074 -3.289,4.652 -6.246,6.801 -9.922,11.152 -1.82,2.153 -2.695,4.133 -4.531,6.356 -1.227,1.484 -3.621,3.898 -4.195,5.64 -0.864,0.621 -0.477,0.34 -1.27,1.11 -18.937,18.472 -36.559,28.402 -64.723,32.785 -43.023,6.699 -82.609,4.926 -124.836,-3.691 -9.644,-1.965 -19.714,-4.59 -29.015,-7.75 -27.856,-9.454 -48.66,-19.129 -72.172,-36.051 -33.656,-24.219 -56.887,-48.953 -44.984,-82.254 -2.907,-6.371 -4.051,-9.563 -6.993,-15.727 l -10.851,13.848 c -1.082,1.543 -2.418,3.375 -3.57,4.445 -13.25,-14.918 -23.125,-29.875 -24.758,-49.867 l -7.117,-1.894 c -3.575,-39.461 -1.977,-77.633 29.074,-126.594 0.828,-1.301 18.535,-26.246 32.984,-38.797 -3.98,1.832 -7.816,4.09 -11.703,5.605 l -1.223,-5.75 -3.429,-17.043 -8.942,2.219 -7.492,-11.035 c -11.004,-10.445 -24.207,-27.785 -25.519,-50.027 1.179,-1.473 13.582,-3.621 14.89,-3.797 l 3.32,-23.02 z m -12.442,114.438 c -38.406,20.703 -60.222,46.332 -78.148,85.961 -7.621,16.84 -16.262,55.39 -13.485,76.308 6.977,5.93 11.161,4.856 20.809,1.797 23.887,-7.566 36.039,-14.508 56.598,-27.82 19.968,-12.93 33.66,-20.149 55.343,-29.793 39.387,-17.52 143.114,-50.344 165.895,10.41 3.41,9.094 2.996,13.832 4.293,23.555 2.457,-4.032 8.891,-19.008 10.394,-24.239 2.743,-9.492 4.77,-18.543 5.786,-28.82 3.418,-34.59 -13.797,-48.082 -36.071,-69.984 -37.461,-36.832 -82.722,-51.711 -135.957,-38.864 -8.492,2.051 -20.133,5.598 -27.66,9.137 -25.871,12.156 -57.32,47.367 -66.609,74.508 7.445,-27.668 23.894,-48.305 38.812,-62.156 z m 204.723,11.312 2.445,-6.98 c -2.125,-2.688 -6.461,-13.875 -8.527,-18.313 -16.789,-6.5 -24.531,-9.59 -43.535,-14.765 -8.672,-1.856 -23.7,-3.285 -32.907,-2.703 13.348,3.789 23.485,7.406 34.754,13.156 6.93,3.535 19.282,11.613 25.504,16.695 l 3.672,2.652 c 2.235,2.313 4.699,3.887 6.84,5.922 17.211,16.395 23.445,23.34 37.73,42.61 25.852,34.871 54.649,95.593 65.543,139.418 3.344,13.437 5.891,28.445 6.899,42.683 0.941,26.328 -0.664,33.961 -2.992,46.086 0.914,-1.988 2.625,-4.121 3.871,-6.414 23.898,-44.039 20.562,-105.871 52.953,-142.465 7.769,-8.777 16.367,-11.883 17.902,-13.394 4.965,-4.918 2.133,-18.571 -0.383,-24.52 -1.875,-4.445 -2.976,-6.523 -5.078,-10.59 -2.324,-4.507 -5.293,-4.671 -11.328,-4.175 -30.879,-8.657 -52.656,-23.325 -62.219,-29.582 -9.382,-6.137 -17.785,-12.926 -27.316,-19.207 -8.676,-5.723 -18.633,-12.165 -27.676,-17.633 0.516,16.648 -0.613,13.968 5.125,21.234 z M 312.18,667.461 c 18.105,19.723 47.187,39.43 72.48,49.383 11.586,4.558 33.156,13.594 44.074,14.351 -12.879,-2.793 -47.207,-24.199 -54.023,-34.093 9.773,7.152 20.359,15.152 31.773,21.07 7.789,4.043 19.297,8.422 28.536,10.98 22.25,6.164 44.062,10.032 68.945,10.536 53.613,1.074 95.41,-8.961 115.824,-43.372 21.508,-36.257 13.606,-93.304 0.039,-132.226 -10.39,-29.813 -21.992,-55.676 -37.332,-82.508 l -14.801,-23.926 c 5.743,41.418 -8.836,89.727 -39.277,118.668 -77.305,73.516 -160.816,28.653 -217.242,46.012 -24.61,4.59 -9.246,33.953 1.004,45.125 z M 567.938,410.84 c 0.316,-1.457 0.171,-1.629 0.113,-3.211 l 1.031,-82.016 12.406,-38.386 -0.718,-0.539 -1.016,0.066 -13.5,3.285 -3.188,0.789 -1.211,0.863 -46.96,12.758 4.035,7.871 -20.571,13.555 2.754,6.918 24.965,1.699 c 2.082,0.723 7.715,14.703 8.598,16.524 l 17.984,39.281 -4.543,-35.758 -0.945,-8.187 0.453,-1.582 c 5.445,21.222 10.594,40.804 16.285,61.574 0.153,1.738 3.055,8.949 4.028,4.496 z m -12.754,-141.613 9.187,15.863 15.676,-4.18 1.574,-1.336 -10.902,-17.886 -17.785,4.269 z m -28.7,4.8 10.657,18.594 19.222,-5.082 2.496,-0.809 -11.117,-19.582 -22.164,4.723 z m -21.004,2.891 -5.773,1.297 11.672,21.422 19.949,-5.379 -11.461,-20.793 z m -15.652,71.984 -8.109,-18.156 -74.594,17.055 7.148,8.406 c 13.813,-4.855 28.383,-7.348 46.141,-7.629 21.941,-0.344 39.324,3.086 58.406,9.117 l -4.011,-7.199 z m 247.711,140.864 c 20.227,-6.946 33.516,-8.469 41.547,-11.45 l -7.5,-29.382 c -2.305,0.543 -31.156,16.527 -33.586,18.3 l 31.52,-23.574 -8.629,-21.347 c -4.446,2.785 -41.063,40.996 -47.571,45.683 2.797,6.645 9.36,23.059 7.379,32.027 l 39.082,35.411 2.094,5.199 -38.207,-31.367 c -1.34,-1.078 -3.375,-2.539 -4.523,-3.598 l -4.004,5.387 64.597,72.531 c 3.133,-23.922 4.231,-57.231 3.364,-69.047 -13.938,-5.883 -41.442,-18.699 -45.563,-24.773 z M 324.074,608.809 c 44.715,-4.813 82.281,6.066 121.973,-0.399 20.379,-3.316 39.664,-10.715 54.363,-19.933 17.785,-11.153 36.77,-31.704 47.633,-49.707 0.117,-66.106 -83.18,-54.704 -124.508,-42.125 -13.14,4.398 -25.551,9.039 -38.496,13.902 -28.164,10.586 -99.762,59.398 -130.039,53.996 -0.105,10.695 1.613,27.891 10.133,35.105 l 18.914,-24.585 20.965,21.128 28.273,-35.808 20.543,26.004 36.914,-42.852 20.656,25.258 26.555,-36.465 0.985,1.281 14.98,19.993 27.645,-33.614 11.425,18.266 25.274,-30.414 -25.164,45.219 -13.223,-18.332 -26.262,32.73 -15.66,-20.473 -25.851,36.282 -21.129,-26.039 -37.45,42.23 -20.261,-23.715 -27.399,33.457 -13.55,-14.07 c 1.003,5.68 5.378,14.859 8.339,18.492 7.059,-1.801 16.403,-4.058 23.422,-4.812 z m 357.77,34.152 41.117,10.086 c 0.848,-3.863 2.375,-7.496 2.652,-11.465 l -32.945,-8.949 34.043,4.406 c 1.449,-14.098 1.641,-25.207 -1.301,-38.976 -1.668,-7.821 -7.558,-25.368 -11.715,-30.75 l -32.5,-0.18 -5.386,20.082 27.707,3.441 -28.629,1.371 c -1.215,8.942 -6.071,31.106 -11.766,54.016 l 33.192,57.613 c 5.644,-5.961 13.371,-21.113 15.253,-25.902 l -29.722,-34.793" /><path
         id="path130"
         style="fill:#75a6d6;fill-opacity:1;fill-rule:evenodd;stroke:none"
         d="m 703.164,247.391 3.93,13.156 -111.739,23.828 -5.078,-13.098 112.887,-23.886" /><path
         id="path132"
         style="fill:#73a3cc;fill-opacity:1;fill-rule:evenodd;stroke:none"
         d="m 708.23,263.594 0.793,1.488 -115.781,25.328 0.414,-2.211 114.574,-24.605" /><path
         id="path134"
         style="fill:#75a6d6;fill-opacity:1;fill-rule:evenodd;stroke:none"
         d="m 496.402,293.906 6.364,10.321 -160.578,36.906 1.425,-15.805 152.789,-31.422" /><path
         id="path136"
         style="fill:#75a6d6;fill-opacity:1;fill-rule:evenodd;stroke:none"
         d="m 351.723,347.02 -4.52,-4.543 158.942,-34.993 1.355,1.957 -155.777,37.579" /><path
         id="path138"
         style="fill:#75a6d6;fill-opacity:1;fill-rule:evenodd;stroke:none"
         d="m 357.293,352.391 25.223,-5.028 15.832,15.774 -22.641,6.785 -16.781,-8.102 3.457,-2.027 -5.09,-7.402" /><path
         id="path140"
         style="fill:#75a6d6;fill-opacity:1;fill-rule:evenodd;stroke:none"
         d="m 297.355,310.977 13.754,-3.11 -0.668,34.34 -14.238,-0.422 1.152,-30.808" /><path
         id="path142"
         style="fill:#75a6d6;fill-opacity:1;fill-rule:evenodd;stroke:none"
         d="m 323.211,304.75 11.496,-2.836 -2.605,35.524 -10.118,-2.711 1.227,-29.977" /><path
         id="path144"
         style="fill:#fffdff;fill-opacity:1;fill-rule:evenodd;stroke:none"
         d="m 323.211,304.75 -1.227,29.977 10.118,2.711 -16.18,4.867 0.726,-35.387 6.563,-2.168" /><path
         id="path146"
         style="fill:#fdfdfd;fill-opacity:1;fill-rule:evenodd;stroke:none"
         d="m 273.844,316.996 c 3.453,-0.613 0.699,-0.348 1.754,0.707 l -3.953,32.649 c 3.769,0.074 9.699,-0.789 12.421,0.718 l -14.652,3.723 c -3.867,0.727 -1.641,0.805 -2.957,-1 -1.711,-1.664 2.953,-30.965 3.594,-36.004 l 3.793,-0.793" /><path
         id="path148"
         style="fill:#fafafa;fill-opacity:1;fill-rule:evenodd;stroke:none"
         d="m 297.355,310.977 -1.152,30.808 14.238,0.422 -8.183,3.863 -10.461,2.532 0.687,-36.254 4.871,-1.371" /><path
         id="path150"
         style="fill:#75a6d6;fill-opacity:1;fill-rule:evenodd;stroke:none"
         d="m 274.426,359.156 13.738,-3.484 10.262,10.371 -10.028,2.992 -2.953,0.809 -4.824,-5.797 -6.195,-4.891" /><path
         id="path152"
         style="fill:#78a6d1;fill-opacity:1;fill-rule:evenodd;stroke:none"
         d="m 293.902,378.902 34.344,-8.773 -32.918,17.113 -1.426,-8.34" /><path
         id="path154"
         style="fill:#75a6d6;fill-opacity:1;fill-rule:evenodd;stroke:none"
         d="m 302.426,351.574 9.57,-2.648 10.859,10.902 -11.746,3 -4.449,-5.742 -4.234,-5.512" /><path
         id="path156"
         style="fill:#75a6d6;fill-opacity:1;fill-rule:evenodd;stroke:none"
         d="m 325.602,345.621 10.222,-2.887 4.375,5.329 4.024,5.902 -8.45,2.285 -4.707,-5.879 -5.464,-4.75" /><path
         id="path158"
         style="fill:#fafafa;fill-opacity:1;fill-rule:evenodd;stroke:none"
         d="m 271.82,359.996 2.606,-0.84 6.195,4.891 4.824,5.797 -8.257,2.207 -6.813,-10.613 1.445,-1.442" /><path
         id="path160"
         style="fill:#fafafa;fill-opacity:1;fill-rule:evenodd;stroke:none"
         d="m 325.602,345.621 5.464,4.75 4.707,5.879 -6.757,1.586 -10.411,-10.723 6.997,-1.492" /><path
         id="path162"
         style="fill:#fafafa;fill-opacity:1;fill-rule:evenodd;stroke:none"
         d="m 302.426,351.574 4.234,5.512 4.449,5.742 -9.371,-1.496 -7.437,-7.555 8.125,-2.203" /><path
         id="path164"
         style="fill:#75a6d6;fill-opacity:1;fill-rule:evenodd;stroke:none"
         d="m 345.012,305.012 6.426,8.203 -6.954,1.211 0.528,-9.414" /><path
         id="path166"
         style="fill:#75a6d6;fill-opacity:1;fill-rule:evenodd;stroke:none"
         d="m 260.082,371.055 c -31.215,8.398 -61.359,13.8 -81.586,21.379 -22.574,8.457 -40.777,24.527 -47.203,62.519 -3.078,18.231 -1.121,43.707 8.445,67.039 7.016,17.106 22.403,33.106 15.207,40.453 C 115.809,603.426 36.875,531.961 74.3242,416.738 93.1016,358.973 145.059,345.344 198.441,342.695 l 54.59,-2.707 -0.808,15.899 7.859,15.168" /><path
         id="path168"
         style="fill:none;stroke:#293d63;stroke-width:14.17319965;stroke-linecap:butt;stroke-linejoin:miter;stroke-miterlimit:22.92560005;stroke-dasharray:none;stroke-opacity:1"
         d="m 150.133,560.273 c -15.047,13.27 -38.406,9.7 -55.1486,5.129" /><path
         id="path170"
         style="fill:#fffdff;fill-opacity:1;fill-rule:evenodd;stroke:none"
         d="m 62.2578,483.766 63.0782,26.57 -58.793,10.523 -4.2852,-37.093" /><path
         id="path172"
         style="fill:#fffdff;fill-opacity:1;fill-rule:evenodd;stroke:none"
         d="m 62.293,474.84 58.316,2.93 3.868,28.054 -61.8989,-24.344 -0.2851,-6.64" /><path
         id="path174"
         style="fill:#fffdff;fill-opacity:1;fill-rule:evenodd;stroke:none"
         d="m 65.918,436.168 55.863,39.555 -59.6833,-2.414 3.8203,-37.141" /><path
         id="path176"
         style="fill:#fffdff;fill-opacity:1;fill-rule:evenodd;stroke:none"
         d="m 66.6797,431.641 58.0823,4.132 -2.848,35.356 -55.2343,-39.488" /><path
         id="path178"
         style="fill:#fffdff;fill-opacity:1;fill-rule:evenodd;stroke:none"
         d="M 81.0742,391.25 122.91,445.43 66.5469,425.645 81.0742,391.25" /><path
         id="path180"
         style="fill:#fffdff;fill-opacity:1;fill-rule:evenodd;stroke:none"
         d="m 83.1289,387.148 54.3241,20.957 -13.074,32.969 -41.2501,-53.926" /><path
         id="path182"
         style="fill:#fffdff;fill-opacity:1;fill-rule:evenodd;stroke:none"
         d="M 113.52,354.727 144.184,407.484 87.8242,387.703 113.52,354.727" /><path
         id="path184"
         style="fill:#fffdff;fill-opacity:1;fill-rule:evenodd;stroke:none"
         d="m 122.004,469.984 4.551,42.614 12.746,-6.703 -3.723,-37.059 13.117,-41.844 4.614,-14.539 -9.098,-7.273 -15.254,16.906 -6.051,23.344 -0.902,24.554" /><path
         id="path186"
         style="fill:#293d63;fill-opacity:1;fill-rule:evenodd;stroke:none"
         d="m 260.082,371.055 c -31.215,8.398 -61.359,13.8 -81.586,21.379 -9.254,3.464 -17.773,8.214 -25.047,15.226 l -5.777,-4.281 c 2.273,-2.16 4.723,-4.219 7.359,-6.156 1.242,-0.914 2.504,-1.789 3.778,-2.614 16.855,-10.953 35.933,-14.769 61.234,-19.832 11.07,-2.211 23.828,-4.699 37.758,-8.125 z m -109.453,39.508 c -8.07,8.875 -14.367,20.996 -18.082,37.914 l -7.121,-3.942 c 3.043,-14.18 9.164,-27.398 19.394,-38.281 z m -18.914,42.035 c -0.149,0.773 -0.289,1.562 -0.422,2.355 -1.125,6.649 -1.578,14.258 -1.234,22.379 l -6.805,-1.152 -0.059,-1.016 c -0.449,-8.93 -0.047,-17.859 1.434,-26.492 z m -1.418,28.843 c 0.594,8.032 1.953,16.465 4.191,24.895 l -5.722,2.961 c -2.524,-9.324 -4.368,-19.121 -5.215,-28.996 z m 5.308,28.832 c 1.176,3.938 2.551,7.856 4.133,11.719 6.145,14.981 18.707,29.113 16.903,37.328 -0.496,-0.07 -1,-0.125 -1.512,-0.179 -1.781,-0.196 -3.641,-0.395 -4.102,-1.024 -1.062,-1.449 -2.117,-2.969 -3.136,-4.547 -6.883,-10.59 -13.379,-24.691 -18.008,-40.332 z m -19.183,-147.41 25,41.141 c -0.582,0.629 -1.152,1.269 -1.711,1.91 l -51.0352,-17.91 c 7.6875,-10.617 17.1092,-18.816 27.7462,-25.141 z m 22.219,28.469 -8.715,-13.707 -8.711,-13.703 -1.774,-2.789 c 22.774,-12.535 50.684,-17.031 79,-18.438 l 54.59,-2.707 -0.808,15.899 3.636,7.019 c -13.48,3.305 -25.621,5.735 -36.597,7.93 -25.719,5.144 -45.114,9.023 -62.637,20.41 -1.383,0.902 -2.707,1.813 -3.965,2.738 -2.89,2.125 -5.566,4.383 -8.035,6.754 z m -52.3285,0.09 50.7035,17.797 c -6.821,8.836 -11.446,18.82 -14.301,29.41 l -36.422,-47.18 z m -2.2891,3.648 37.4886,48.551 c -0.086,0.41 -0.172,0.82 -0.258,1.227 L 71.1836,427.273 c 0.9414,-3.468 1.9844,-6.98 3.1406,-10.535 2.6133,-8.05 5.8828,-15.242 9.6992,-21.668 z m -13.8476,36.098 50.3512,17.676 c -1.07,6.558 -1.543,13.269 -1.511,20.019 L 69.5273,433.824 c 0.211,-0.883 0.4219,-1.769 0.6485,-2.656 z m -1.5977,6.883 50.5469,35.789 c 0.02,0.504 0.043,1.008 0.066,1.512 l 0.012,0.265 -54.6913,-2.211 c 0.1328,-11.097 1.4102,-22.914 4.0664,-35.355 z m -4.0625,39.367 54.9574,2.219 c 0.687,8.672 2.132,17.297 4.132,25.625 l -59.023,-24.86 c -0.0312,-0.988 -0.0507,-1.984 -0.0664,-2.984 z m 0.2735,7.414 60.0589,25.297 0.078,0.281 -53.4182,9.559 C 67.957,509.508 65.5781,497.734 64.7891,484.832 Z m 8.082,38.961 53.1489,-9.512 c 4.753,16.082 11.433,30.586 18.507,41.469 1.098,1.688 2.188,3.273 3.266,4.742 1.43,1.946 3.988,2.317 6.504,2.594 -24.602,24.719 -64.254,6.121 -81.4259,-39.293 z M 229.297,395.207 c 11.144,-2.625 22.933,-5.41 34.93,-8.633 l 19.277,-5.183 -14.09,-26.598 -0.594,-31.648 -71.129,3.531 c -28.668,1.422 -57.144,5.883 -81.445,17.984 -25.6679,12.781 -46.2812,33.551 -57.1913,67.117 -16.8555,51.864 -11.8672,96.133 2.832,127.176 7.293,15.41 17.0586,27.746 27.8946,36.383 11.7107,9.336 24.8787,14.484 37.9527,14.777 14.157,0.317 27.707,-4.961 38.832,-16.613 13.114,-13.602 5.215,-27.004 -4.152,-42.879 -2.859,-4.859 -5.957,-10.105 -7.851,-14.723 -3.977,-9.707 -6.458,-19.855 -7.68,-29.554 -1.332,-10.571 -1.145,-20.543 0.242,-28.75 2.703,-15.981 7.613,-27.028 14.031,-34.739 6.137,-7.378 14.059,-12.082 22.93,-15.406 11.375,-4.261 27.457,-8.054 45.211,-12.242" /><path
         id="path188"
         style="fill:#75a6d6;fill-opacity:1;fill-rule:evenodd;stroke:none"
         d="m 273.844,316.996 13.179,-3.234 -0.449,36.488 -2.508,0.82 -12.421,-0.718 2.199,-33.356" /><path
         id="path190"
         style="fill:#75a6d6;fill-opacity:1;fill-rule:evenodd;stroke:none"
         d="m 561.969,400.625 -1.547,-14.18 -6.242,-42.593 -7.344,-2.231 0.789,3.149 -0.453,1.582 0.945,8.187 4.094,30.035 0.906,3.821 -23.25,-63.598 -21.254,3.269 0.407,-0.363 19.933,-13.406 -6.043,-4.551 19.633,-9.301 10.105,-4.187 9.207,-4.567 1.211,-0.863 3.188,-0.789 13.5,-3.285 -7.992,18.383 -7.949,17.051 -19.735,2.445 17.875,3.961 1.957,77.75 -1.941,-5.719" /><path
         id="path192"
         style="fill:#ffffff;fill-opacity:1;fill-rule:evenodd;stroke:none"
         d="m 186.434,508.809 c 23.711,0 42.929,-19.223 42.929,-42.934 0,-23.707 -19.218,-42.926 -42.929,-42.926 -23.707,0 -42.93,19.219 -42.93,42.926 0,23.711 19.223,42.934 42.93,42.934" /><path
         id="path194"
         style="fill:#293d63;fill-opacity:1;fill-rule:evenodd;stroke:none"
         d="m 186.438,520.867 c 15.183,0 28.933,-6.156 38.882,-16.105 9.953,-9.953 16.11,-23.699 16.11,-38.887 0,-15.18 -6.157,-28.93 -16.11,-38.883 -9.949,-9.953 -23.699,-16.109 -38.882,-16.109 -15.188,0 -28.934,6.156 -38.887,16.109 -9.953,9.953 -16.11,23.703 -16.11,38.883 0,15.188 6.157,28.934 16.11,38.887 9.953,9.953 23.699,16.105 38.887,16.105 z m 0,-12.058 c 23.707,0 42.925,-19.219 42.925,-42.934 0,-23.707 -19.218,-42.926 -42.925,-42.926 -23.711,0 -42.934,19.219 -42.934,42.926 0,23.715 19.223,42.934 42.934,42.934" /><path
         id="path196"
         style="fill:#ed4a6e;fill-opacity:1;fill-rule:evenodd;stroke:none"
         d="m 180.941,513.063 c 23.707,0 42.93,-19.219 42.93,-42.93 0,-23.711 -19.223,-42.93 -42.93,-42.93 -23.714,0 -42.933,19.219 -42.933,42.93 0,23.711 19.219,42.93 42.933,42.93" /><path
         id="path198"
         style="fill:#ffffff;fill-opacity:1;fill-rule:evenodd;stroke:none"
         d="m 162.352,500.066 c 2.191,0.899 5.429,2.274 3.621,4.778 4.476,1.101 3.492,-3.813 -1.649,-4.965 -1.285,-0.289 -0.984,0.039 -1.972,0.187 z m -6.157,-0.351 -0.746,-0.547 -0.398,-0.352 c -1.035,-0.496 -1.297,-0.886 -2.336,-0.589 -0.281,1.109 -0.215,0.722 0.848,1.543 1.566,1.207 2.253,3.429 4.253,3.339 l 0.2,-0.355 c 0.121,-0.359 0.257,-0.66 -0.016,-1.156 -0.379,-0.696 -1.719,-1.106 -1.805,-1.883" /><path
         id="path200"
         style="fill:#ffffff;fill-opacity:1;fill-rule:evenodd;stroke:none"
         d="m 168.566,447.059 c 0.223,1.058 0.5,1.339 0.145,2.707 -1.199,4.601 -5.836,4.05 -6.305,4.222 4.918,4.848 11.852,-4.445 6.16,-6.929" /><path
         id="path202"
         style="fill:#ffffff;fill-opacity:1;fill-rule:evenodd;stroke:none"
         d="m 153.422,451.816 c -0.359,0.508 0.582,1.782 -0.738,4.235 -0.766,1.426 -1.938,2.308 -2.954,2.609 1.133,2.695 3.903,0.793 5.032,-1.035 1.332,-2.156 1.48,-5.828 -1.34,-5.809" /><path
         id="path204"
         style="fill:#ffffff;fill-opacity:1;fill-rule:evenodd;stroke:none"
         d="m 151.523,471.797 c 2.571,2.019 4.84,-0.035 5.457,-2.91 0.489,-2.274 -0.554,-5.309 -3.199,-5.469 0.75,1.406 1.414,2.594 0.957,4.789 -0.437,2.121 -1.902,3.363 -3.215,3.59" /><path
         id="path206"
         style="fill:#ffffff;fill-opacity:1;fill-rule:evenodd;stroke:none"
         d="m 167.441,438.078 c -0.546,0.774 -0.269,1.86 -2.476,3.34 -1.106,0.742 -2.219,0.723 -3.656,1.164 0.961,3.227 6.586,1.004 7.617,-1.769 0.562,-1.52 0.047,-2.352 -1.485,-2.735" /><path
         id="path208"
         style="fill:#ffffff;fill-opacity:1;fill-rule:evenodd;stroke:none"
         d="m 170.309,459.516 c 2.054,2.488 1.496,6.629 -1.805,8.289 -1.274,0.64 -1.918,0.242 -3.203,0.543 1.578,0.832 2.855,1.203 4.324,0.695 4.617,-1.605 4.754,-8.129 0.684,-9.527" /><path
         id="path210"
         style="fill:#ffffff;fill-opacity:1;fill-rule:evenodd;stroke:none"
         d="m 150.145,448.203 c -0.02,3.348 5.718,-0.492 5.738,-3.945 0.008,-0.961 -0.664,-1.344 -1.606,-1.141 -1.332,0.281 -0.75,1.727 -2.843,3.52 -0.563,0.476 -1.286,0.676 -1.289,1.566" /><path
         id="path212"
         style="fill:#ffffff;fill-opacity:1;fill-rule:evenodd;stroke:none"
         d="m 143.027,473.84 c 0.496,0.711 0.645,1.262 1.879,1.394 2.621,-2.445 1.149,-9.324 -1.457,-7.41 -0.269,1.785 1.086,2.367 -0.422,6.016" /><path
         id="path214"
         style="fill:#ffffff;fill-opacity:1;fill-rule:evenodd;stroke:none"
         d="m 185.512,444.109 c 1.218,2.766 -1.793,7 -7.504,4.672 2.383,3.446 8.863,2.723 9.125,-1.547 0.066,-1.109 -0.645,-2.707 -1.621,-3.125" /><path
         id="path216"
         style="fill:#ffffff;fill-opacity:1;fill-rule:evenodd;stroke:none"
         d="m 183.52,436.332 c -0.305,-0.398 -0.559,-0.727 -1.118,-1.019 -0.343,1.32 -0.984,2.183 -1.906,2.367 -1.703,0.66 -2.976,0.918 -5.238,0.07 0.055,3.977 10.547,2.398 8.262,-1.418" /><path
         id="path218"
         style="fill:#ffffff;fill-opacity:1;fill-rule:evenodd;stroke:none"
         d="m 155.723,485.664 c 5.859,2.488 6.097,-7.726 0.043,-8.453 0.527,0.762 0.879,0.781 1.453,1.758 0.879,1.496 1.34,3.324 0.48,5.047 -0.57,1.152 -1.23,1.254 -1.976,1.648" /><path
         id="path220"
         style="fill:#ffffff;fill-opacity:1;fill-rule:evenodd;stroke:none"
         d="m 142.266,462.09 c -0.012,4.832 3.199,1.258 3.379,-2.508 0.062,-1.324 -0.336,-3.391 -1.84,-1.953 -0.633,0.609 -1.535,3.598 -1.539,4.461" /><path
         id="path222"
         style="fill:#ffffff;fill-opacity:1;fill-rule:evenodd;stroke:none"
         d="m 188.871,456.273 c 0.121,0.961 0.695,1.551 0.621,3.004 -0.152,2.93 -2.976,5.532 -7.496,4.168 1.945,2.473 5.899,1.672 7.395,0.012 2.164,-2.394 1.492,-5.719 -0.52,-7.184" /><path
         id="path224"
         style="fill:#ffffff;fill-opacity:1;fill-rule:evenodd;stroke:none"
         d="m 172.879,474.578 c 0.922,1.008 1.238,1.11 1.73,2.352 0.93,2.351 0.282,4.672 -1.785,6.066 -1.047,0.703 -1.554,0.586 -2.965,0.809 2.774,1.269 5.727,-0.059 6.582,-2.84 0.825,-2.668 -0.726,-5.656 -3.562,-6.387" /><path
         id="path226"
         style="fill:#ffffff;fill-opacity:1;fill-rule:evenodd;stroke:none"
         d="m 146.309,485.668 c 0.91,0.637 1.179,0.996 2.254,0.664 1.566,-2.519 -0.946,-8.152 -3.493,-6.969 0.215,1.082 2.317,3 1.239,6.305" /><path
         id="path228"
         style="fill:#ffffff;fill-opacity:1;fill-rule:evenodd;stroke:none"
         d="m 168.5,433.121 c -1.473,-0.945 -2.754,-0.074 -3.91,0.527 -0.34,0.18 -0.492,0.293 -0.84,0.473 -0.211,0.106 -2.512,0.973 -1.832,2.219 0.387,0.711 1.211,0.101 1.738,-0.027 0.832,-0.208 1.336,0.042 2.172,-0.333 0.93,-0.414 2.766,-1.359 2.672,-2.859" /><path
         id="path230"
         style="fill:#ffffff;fill-opacity:1;fill-rule:evenodd;stroke:none"
         d="m 177.141,432.883 c 1.394,-0.344 1.668,0.183 3.035,-0.582 1.301,-0.731 1.363,-1.637 -0.449,-2.086 -1.149,-0.246 -2.032,0.527 -3.102,0.715 -1.242,0.215 -2.828,-0.465 -2.793,1.261 1.141,1.114 2.246,0.762 3.309,0.692" /><path
         id="path232"
         style="fill:#ffffff;fill-opacity:1;fill-rule:evenodd;stroke:none"
         d="m 160.863,496.809 c 4.657,2.164 4.918,-6.649 -2.047,-7.043 1.356,1.386 2.27,1.195 3.141,3.14 0.664,1.485 0.734,2.992 -1.094,3.903" /><path
         id="path234"
         style="fill:#ffffff;fill-opacity:1;fill-rule:evenodd;stroke:none"
         d="m 191.707,470.809 c 0.277,0.828 2.379,2.796 0.52,6.242 -0.567,1.054 -1.481,1.75 -2.293,2.156 -1.356,0.676 -1.899,0.352 -3.356,0.555 2.649,2.304 8.844,-1.18 7.32,-6.039 -0.523,-1.664 -0.718,-1.645 -2.191,-2.914" /><path
         id="path236"
         style="fill:#ffffff;fill-opacity:1;fill-rule:evenodd;stroke:none"
         d="m 152.895,495.941 c 1.468,-2.671 -3.067,-7.394 -4.555,-5.957 0.137,0.739 0.894,0.821 2.105,3.098 0.86,1.609 -0.191,2.789 2.45,2.859" /><path
         id="path238"
         style="fill:#ffffff;fill-opacity:1;fill-rule:evenodd;stroke:none"
         d="m 200.938,443.898 c 0.421,1.981 -0.844,3.153 -2.5,3.286 -2.567,0.199 -3.075,-1.223 -4.489,-1.661 0.039,0.032 2.02,3.668 5.496,3.25 2.969,-0.355 2.961,-3.558 1.493,-4.875" /><path
         id="path240"
         style="fill:#ffffff;fill-opacity:1;fill-rule:evenodd;stroke:none"
         d="m 174.574,496.23 c 2.02,0.844 5.11,-0.613 5.43,-3.058 0.305,-2.324 -1.68,-4.402 -4.524,-4.824 6.301,3.605 1.204,8.34 -0.906,7.882" /><path
         id="path242"
         style="fill:#ffffff;fill-opacity:1;fill-rule:evenodd;stroke:none"
         d="m 204.965,454.785 c 0.148,1.774 0.777,3.645 -1.34,5.082 -1.457,0.985 -3.469,0.403 -5.066,-0.734 3.425,5.262 10,1.406 6.406,-4.348" /><path
         id="path244"
         style="fill:#ffffff;fill-opacity:1;fill-rule:evenodd;stroke:none"
         d="m 143.387,454.93 c 0.871,0.156 0.851,0.054 1.441,-0.68 1.035,-1.293 2.379,-3.773 1.875,-5.23 -1.762,-0.059 -3.59,4.875 -3.316,5.91" /><path
         id="path246"
         style="fill:#ffffff;fill-opacity:1;fill-rule:evenodd;stroke:none"
         d="m 157.113,437.492 c -1.566,-0.336 -4.242,2.172 -5.082,3.938 1.965,-0.028 0.782,1.008 3.196,-0.93 0.773,-0.621 2.019,-1.941 1.886,-3.008" /><path
         id="path248"
         style="fill:#ffffff;fill-opacity:1;fill-rule:evenodd;stroke:none"
         d="m 178.957,504.867 c 3.398,0.324 5.676,-3.023 2.215,-4.769 -1.176,-0.586 -1.891,-0.559 -3.094,-0.711 4.117,1.722 4.629,3.871 0.879,5.48" /></g></g></svg>