<?xml version="1.0" encoding="UTF-8" standalone="no"?>
<svg
   xmlns:dc="http://purl.org/dc/elements/1.1/"
   xmlns:cc="http://creativecommons.org/ns#"
   xmlns:rdf="http://www.w3.org/1999/02/22-rdf-syntax-ns#"
   xmlns:svg="http://www.w3.org/2000/svg"
   xmlns="http://www.w3.org/2000/svg"
   viewBox="0 0 192 157.33333"
   height="157.33333"
   width="192"
   xml:space="preserve"
   id="svg2"
   version="1.1"><metadata
     id="metadata8"><rdf:RDF><cc:Work
         rdf:about=""><dc:format>image/svg+xml</dc:format><dc:type
           rdf:resource="http://purl.org/dc/dcmitype/StillImage" /></cc:Work></rdf:RDF></metadata><defs
     id="defs6" /><g
     transform="matrix(1.3333333,0,0,-1.3333333,0,157.33333)"
     id="g10"><g
       transform="scale(0.1)"
       id="g12"><path
         id="path14"
         style="fill:#212a36;fill-opacity:1;fill-rule:evenodd;stroke:none"
         d="m 720.441,1170.53 c -319.804,0 -579.058,-260.729 -579.058,-582.346 0,-321.621 259.254,-582.34806 579.058,-582.34806 319.809,0 579.069,260.72706 579.069,582.34806 0,321.617 -259.26,582.346 -579.069,582.346" /><path
         id="path16"
         style="fill:#f0dbb2;fill-opacity:1;fill-rule:evenodd;stroke:none"
         d="m 720.441,1126.48 c -295.613,0 -535.261,-241.003 -535.261,-538.296 0,-297.293 239.644,-538.3012 535.261,-538.3012 295.629,0 535.269,241.0082 535.269,538.3012 0,297.293 -239.64,538.296 -535.269,538.296" /><path
         id="path18"
         style="fill:#212a36;fill-opacity:1;fill-rule:evenodd;stroke:none"
         d="m 1087.5,588.184 c 0,-203.871 -164.336,-369.133 -367.059,-369.133 -202.714,0 -367.05,165.262 -367.05,369.133 0,203.867 164.336,369.136 367.05,369.136 202.723,0 367.059,-165.269 367.059,-369.136" /><path
         id="path20"
         style="fill:#ffa64a;fill-opacity:1;fill-rule:evenodd;stroke:none"
         d="m 1045.97,588.184 c 0,-180.801 -145.743,-327.375 -325.529,-327.375 -179.777,0 -325.523,146.574 -325.523,327.375 0.004,180.8 145.746,327.367 325.523,327.367 179.786,0.004 325.529,-146.567 325.529,-327.367" /><path
         id="path22"
         style="fill:#274166;fill-opacity:1;fill-rule:evenodd;stroke:none"
         d="m 372.176,574.293 h 696.539 v 27.7773 H 372.176 Z" /><path
         id="path24"
         style="fill:#274166;fill-opacity:1;fill-rule:evenodd;stroke:none"
         d="m 377.02,579.168 h 686.85 v 18.027 H 377.02 Z m 696.54,-9.75 H 367.324 v 37.527 h 706.236 v -37.527" /><path
         id="path26"
         style="fill:#212a36;fill-opacity:1;fill-rule:evenodd;stroke:none"
         d="m 502.922,313.34 -19.656,19.523 c 0.933,0.953 93.289,97.266 93.289,254.559 0.004,157.801 -94.731,255.008 -95.692,255.973 l 19.559,19.628 C 504.66,858.754 604.18,756.602 604.18,587.422 604.18,418.277 507.055,317.547 502.922,313.34" /><path
         id="path28"
         style="fill:#212a36;fill-opacity:1;fill-rule:evenodd;stroke:none"
         d="m 489.98,333.043 12.817,-12.727 c 17.598,19.446 96.539,115.153 96.539,267.106 0,151.965 -81.09,249.031 -99,268.621 l -12.734,-12.777 c 17.031,-19.02 93.796,-112.743 93.796,-255.844 0.008,-141.996 -74.761,-235.359 -91.418,-254.379 z m 12.977,-26.586 -26.527,26.34 3.375,3.473 c 0.918,0.949 91.906,96.507 91.906,251.152 0,155.387 -93.332,251.574 -94.273,252.523 l -3.411,3.457 26.399,26.508 3.426,-3.445 c 4.296,-4.32 105.171,-107.852 105.171,-279.043 0,-171.348 -98.472,-273.258 -102.664,-277.508 l -3.402,-3.457" /><path
         id="path30"
         style="fill:#212a36;fill-opacity:1;fill-rule:evenodd;stroke:none"
         d="m 937.977,313.34 c -4.145,4.207 -101.278,104.937 -101.278,274.082 0,169.18 99.531,271.332 103.785,275.598 l 19.543,-19.606 c -0.945,-0.973 -95.707,-98.723 -95.707,-255.992 0,-157.844 92.364,-253.598 93.289,-254.547 L 937.977,313.34" /><path
         id="path32"
         style="fill:#212a36;fill-opacity:1;fill-rule:evenodd;stroke:none"
         d="m 940.57,856.051 c -17.922,-19.535 -99.027,-116.383 -99.027,-268.629 0.004,-151.93 78.945,-247.641 96.555,-267.098 l 12.785,12.715 c -16.711,18.938 -91.41,111.621 -91.41,254.383 0,143.281 76.601,236.687 93.812,255.867 z m -2.629,-549.602 -3.406,3.465 c -4.195,4.25 -102.683,106.172 -102.683,277.508 0.003,171.508 100.914,274.738 105.211,279.047 l 3.421,3.437 26.371,-26.457 -3.371,-3.449 c -0.937,-0.969 -94.312,-98.543 -94.312,-252.578 0,-155.324 90.969,-250.176 91.894,-251.117 l 3.383,-3.469 -26.508,-26.387" /><path
         id="path34"
         style="fill:#212a36;fill-opacity:1;fill-rule:evenodd;stroke:none"
         d="m 706.051,240.848 h 28.7891 V 935.52 H 706.051 Z" /><path
         id="path36"
         style="fill:#212a36;fill-opacity:1;fill-rule:evenodd;stroke:none"
         d="m 710.898,245.723 h 19.098 v 684.922 h -19.098 z m 28.786,-9.754 h -38.481 v 704.426 h 38.481 V 235.969" /><path
         id="path38"
         style="fill:#ffa64a;fill-opacity:1;fill-rule:evenodd;stroke:none"
         d="m 333.809,360.762 13.554,26.039 -26.187,-13.051 -20.434,21.012 4.246,-29.082 -26.187,-13.047 28.816,-4.922 4.25,-29.078 13.559,26.035 28.812,-4.922 -20.429,21.016" /><path
         id="path40"
         style="fill:#ffa64a;fill-opacity:1;fill-rule:evenodd;stroke:none"
         d="m 1107.44,360.762 -13.56,26.039 26.19,-13.051 20.44,21.012 -4.25,-29.082 26.18,-13.047 -28.81,-4.922 -4.25,-29.078 -13.56,26.035 -28.82,-4.922 20.44,21.016" /><path
         id="path42"
         style="fill:#212a36;fill-opacity:1;fill-rule:evenodd;stroke:none"
         d="m 354.973,258.77 c 10.293,-11.586 23.668,-13.825 35.074,-7.133 l -1.59,8.07 c -11.309,-7.516 -21.172,-2.508 -27,4.047 -8.758,9.859 -5.324,23.941 5.953,33.957 11.41,10.137 25.246,11.887 34.035,1.992 5.793,-6.519 7.289,-15.098 3.219,-24.129 l 4.359,-4.91 15.317,13.609 -4.535,5.106 -5.75,-5.106 c 0.715,6.883 -1.313,14.645 -6.961,21.008 -12.664,14.254 -30.586,12.949 -46.078,-0.812 -15.446,-13.723 -18.356,-31.836 -6.043,-45.699 v 0" /><path
         id="path44"
         style="fill:#212a36;fill-opacity:1;fill-rule:evenodd;stroke:none"
         d="m 406.375,254.238 c -12.449,-14.992 -13.227,-34.343 1.723,-46.761 14.953,-12.418 33.949,-8.125 46.367,6.816 12.449,14.992 13.219,34.5 -1.735,46.918 -14.91,12.387 -33.828,8.105 -46.355,-6.973 z m 7.152,-5.941 c 9.637,11.605 23.957,15.277 34.141,6.82 10.266,-8.523 9.242,-23.242 -0.398,-34.847 -9.489,-11.422 -23.77,-15.133 -34.032,-6.606 -10.187,8.461 -9.203,23.207 0.289,34.633 v 0" /><path
         id="path46"
         style="fill:#212a36;fill-opacity:1;fill-rule:evenodd;stroke:none"
         d="m 443.309,181.516 20.011,-12.489 18.938,-11.82 14.98,24 -6.465,4.035 -11.027,-17.676 -18.273,11.403 27.937,44.765 6.91,-4.308 3.946,6.32 -21.125,13.184 -3.852,-6.176 7.039,-4.391 -14.047,-22.511 -13.984,-22.407 -7.039,4.391 -3.949,-6.32" /><path
         id="path48"
         style="fill:#212a36;fill-opacity:1;fill-rule:evenodd;stroke:none"
         d="m 492.441,151.68 21.34,-10.051 20.196,-9.512 12.058,25.598 -6.894,3.242 -8.875,-18.852 -19.485,9.176 22.481,47.746 7.367,-3.472 3.176,6.742 -22.528,10.609 -3.101,-6.582 7.512,-3.535 -11.309,-24.004 -11.25,-23.898 -7.512,3.535 -3.176,-6.742" /><path
         id="path50"
         style="fill:#212a36;fill-opacity:1;fill-rule:evenodd;stroke:none"
         d="m 545.039,127.523 24.883,-8.07 23.637,-7.664 5.937,18.313 -6.445,2.089 -3.637,-11.222 -26.234,8.508 7.226,22.281 17.938,-5.82 -1.453,-6.688 4.398,-1.426 6.504,20.047 -4.348,1.406 -2.715,-6.152 -18.089,5.867 6.714,20.715 26.235,-8.508 -3.512,-10.832 6.547,-2.125 5.813,17.922 -23.633,7.668 -24.887,8.07 -2.246,-6.922 7.797,-2.531 -8.184,-25.238 -8.152,-25.121 -7.793,2.523 -2.301,-7.09" /><path
         id="path52"
         style="fill:#212a36;fill-opacity:1;fill-rule:evenodd;stroke:none"
         d="m 650.199,170.348 c -22.629,3.84 -33.551,-13.715 -36.152,-29.051 -2.246,-13.254 -0.184,-35.633 25.66,-40.016 16.262,-2.7615 30.281,4.504 34.875,28.735 l -21.082,3.578 -1.242,-7.356 11.754,-1.992 c -2.856,-11.781 -9.227,-17.308 -22.895,-14.988 -14.66,2.484 -20.441,15.195 -17.859,30.414 2.594,15.281 12.308,25.125 26.082,22.785 8.551,-1.449 15.082,-7.203 17.613,-16.801 l 6.422,-1.09 3.426,20.2 -6.735,1.14 -1.285,-7.578 c -3.703,5.805 -10.187,10.598 -18.582,12.02 v 0" /><path
         id="path54"
         style="fill:#212a36;fill-opacity:1;fill-rule:evenodd;stroke:none"
         d="m 682.07,96.5469 26.153,-0.6406 24.836,-0.6094 0.476,19.2501 -6.777,0.164 -0.289,-11.797 -27.571,0.676 0.571,23.414 18.855,-0.461 0.516,-6.824 4.621,-0.114 0.516,21.067 -4.571,0.109 -0.847,-6.672 -19.008,0.465 0.531,21.77 27.574,-0.672 -0.281,-11.387 6.883,-0.164 0.461,18.836 -24.84,0.609 -26.152,0.641 -0.18,-7.281 8.191,-0.199 -0.648,-26.524 -0.649,-26.406 -8.191,0.203 -0.18,-7.4531" /><path
         id="path56"
         style="fill:#212a36;fill-opacity:1;fill-rule:evenodd;stroke:none"
         d="m 771.965,97.9102 23.316,3.5548 22.071,3.367 -4.266,27.969 -7.531,-1.149 3.14,-20.597 -21.289,-3.25 -7.953,52.168 8.051,1.226 -1.125,7.371 -24.617,-3.754 1.097,-7.191 8.207,1.25 4,-26.23 3.981,-26.114 -8.207,-1.25 1.125,-7.3708" /><path
         id="path58"
         style="fill:#212a36;fill-opacity:1;fill-rule:evenodd;stroke:none"
         d="m 829.172,107.207 25.156,7.18 23.895,6.816 -5.285,18.516 -6.516,-1.86 3.238,-11.347 -26.519,-7.567 -6.43,22.52 18.137,5.176 2.523,-6.36 4.445,1.27 -5.781,20.262 -4.394,-1.25 1.175,-6.625 -18.285,-5.219 -5.976,20.941 26.523,7.567 3.125,-10.95 6.613,1.891 -5.168,18.121 -23.894,-6.82 -25.156,-7.184 2,-6.996 7.875,2.246 7.285,-25.512 7.25,-25.402 -7.879,-2.246 2.043,-7.168" /><path
         id="path60"
         style="fill:#212a36;fill-opacity:1;fill-rule:evenodd;stroke:none"
         d="m 890.43,199.285 -13.446,-5.969 2.621,-5.898 4.852,2.023 c 1.883,-18.238 7.684,-55.285 7.684,-55.285 l -6.575,-3.047 2.973,-6.703 21.754,9.649 -3.004,6.758 -7.152,-3.172 -3.539,17.566 22.328,9.902 10.672,-14.336 -7.203,-3.195 3.023,-6.816 21.75,9.648 -2.973,6.707 -6.625,-2.808 c 0,0 -23.574,29.164 -35.879,42.781 l 4.805,2.258 -2.617,5.902 z m 5.207,-36.734 c 0,0 -4.727,28.402 -4.317,29.937 l 3.555,1.575 c 1.414,-0.723 19.246,-23.313 19.246,-23.313 l -18.484,-8.199" /><path
         id="path62"
         style="fill:#212a36;fill-opacity:1;fill-rule:evenodd;stroke:none"
         d="m 944.168,229.219 c -19.406,-12.27 -15.801,-32.625 -7.488,-45.774 7.179,-11.363 23.668,-26.636 45.824,-12.629 13.949,8.809 19.516,23.582 6.754,44.676 l -18.074,-11.422 3.98,-6.3 10.082,6.371 c 5.75,-10.668 4.699,-19.043 -7.023,-26.45 -12.563,-7.945 -25.36,-2.351 -33.61,10.7 -8.277,13.097 -7.625,26.914 4.188,34.379 7.324,4.632 16.035,4.714 24.324,-0.735 l 5.508,3.481 -10.945,17.316 -5.774,-3.648 4.113,-6.5 c -6.636,1.847 -14.668,1.078 -21.863,-3.469 l 0.004,0.004" /><path
         id="path64"
         style="fill:#212a36;fill-opacity:1;fill-rule:evenodd;stroke:none"
         d="m 982.996,245.637 c 0.117,-0.133 23.554,-27.438 24.734,-28.817 7.91,-9.152 18.41,-15.207 32.56,-2.984 8.95,7.723 12.29,19.211 1.24,32.008 -1.19,1.379 -24.86,28.633 -24.86,28.633 l 5.81,5.25 -4.76,5.507 -17.931,-15.48 4.841,-5.598 5.64,4.875 24.47,-28.347 c 6.95,-8.043 8.39,-14.707 0.28,-21.707 -6.68,-5.77 -13.98,-4.547 -20.69,3.23 l -24.857,28.789 5.648,4.875 -4.875,5.641 -17.969,-15.512 4.754,-5.512 5.965,5.149" /><path
         id="path66"
         style="fill:#212a36;fill-opacity:1;fill-rule:evenodd;stroke:none"
         d="m 1070.11,242.465 17.27,19.644 16.41,18.664 -14.46,12.715 -4.48,-5.09 8.86,-7.793 -18.2,-20.71 -17.6,15.464 12.45,14.164 5.57,-3.988 3.05,3.473 -15.82,13.918 -3.02,-3.438 4.57,-4.929 -12.55,-14.282 -16.36,14.379 18.21,20.715 8.55,-7.523 4.55,5.172 -14.16,12.441 -16.4,-18.664 -17.27,-19.649 5.47,-4.804 5.41,6.152 19.92,-17.516 19.84,-17.437 -5.41,-6.156 5.6,-4.922" /><path
         id="path68"
         style="fill:#212a36;fill-opacity:1;fill-rule:evenodd;stroke:none"
         d="m 376.242,808.016 c 11.606,17.738 9.969,36.07 -2.656,48.539 l -9.988,-5.059 c 13.664,-12.031 10.496,-26.789 3.922,-36.828 -9.875,-15.098 -29.415,-15.789 -46.336,-4.719 -17.118,11.203 -24.121,28.668 -14.211,43.821 6.535,9.98 17.215,15.097 30.382,13.093 l 4.922,7.516 -22.98,15.035 -5.117,-7.816 8.629,-5.645 c -9.231,-1.601 -18.664,-7.109 -25.039,-16.851 -14.282,-21.829 -6.461,-44.801 16.777,-60.008 23.18,-15.168 47.808,-12.305 61.695,8.922 v 0" /><path
         id="path70"
         style="fill:#212a36;fill-opacity:1;fill-rule:evenodd;stroke:none"
         d="m 399.371,845.305 22.625,22.39 -6.976,7.047 -7.305,-7.226 -22.809,23.035 28.141,27.859 22.754,-22.984 -7.305,-7.231 7.031,-7.101 22.571,22.344 -6.918,6.992 -7.098,-7.024 -25.023,25.274 -24.856,25.109 7.102,7.024 -7.035,7.101 -22.567,-22.344 6.973,-7.047 7.25,7.18 19.933,-20.133 -28.14,-27.855 -19.875,20.074 7.351,7.281 -7.027,7.102 -22.625,-22.395 6.863,-6.933 7.102,7.027 25.023,-25.273 24.907,-25.168 -7.094,-7.028 7.027,-7.097" /><path
         id="path72"
         style="fill:#212a36;fill-opacity:1;fill-rule:evenodd;stroke:none"
         d="m 444.906,1003.27 -16.875,-10.954 4.711,-7.257 6.113,3.781 c 6.215,-23.828 21.5,-71.785 21.5,-71.785 l -8.23,-5.532 5.355,-8.25 27.305,17.723 -5.398,8.317 -8.985,-5.833 -8.308,22.563 28.027,18.195 17.246,-16.668 -9.039,-5.867 5.442,-8.383 27.304,17.727 -5.359,8.25 -8.344,-5.231 c 0,0 -37.582,33.481 -56.879,48.814 l 6.004,4.09 -4.715,7.26 z m 14.414,-47.676 c 0,0 -12.093,36.707 -11.847,38.84 l 4.461,2.894 c 2.043,-0.644 30.593,-26.668 30.593,-26.668 L 459.32,955.594" /><path
         id="path74"
         style="fill:#212a36;fill-opacity:1;fill-rule:evenodd;stroke:none"
         d="m 535.898,964.23 -9.996,-3.628 3.407,-9.391 28.031,10.176 -3.383,9.316 -8.98,-3.262 -24.055,66.269 27.738,-33.03 27.793,-33.192 2.84,1.028 0.035,43.294 0.262,43.28 24.058,-66.266 -8.988,-3.258 3.41,-9.394 28.91,10.492 -3.355,9.246 -9.93,-3.605 -12.132,33.435 -12.059,33.21 9.934,3.6 -3.415,9.4 -26.339,-9.57 -0.387,-70.122 -22.395,26.952 -22.543,26.72 -26.004,-9.44 3.329,-9.17 10,3.63 12.129,-33.434 12.085,-33.286" /><path
         id="path76"
         style="fill:#212a36;fill-opacity:1;fill-rule:evenodd;stroke:none"
         d="m 631.66,985.664 33.535,4.551 -1.328,9.825 -11.25,-1.528 -3.445,25.418 10.394,1.41 c 19.442,2.63 32.727,9.99 29.735,32.06 -1.649,12.16 -9.16,26.39 -31.875,23.31 -2.207,-0.3 -37.953,-5.14 -37.953,-5.14 l 1.308,-9.67 10.754,1.46 4.778,-35.25 4.757,-35.087 -10.754,-1.457 z m 11.293,83.086 c 0,0 13.668,1.85 16.16,2.19 10.114,1.36 16.907,-3.83 18.418,-14.98 1.387,-10.21 -1.699,-18.49 -17.152,-20.58 l -12.672,-1.72 -4.754,35.09" /><path
         id="path78"
         style="fill:#212a36;fill-opacity:1;fill-rule:evenodd;stroke:none"
         d="m 702.875,993.574 30.754,0.492 -0.16,9.914 -9.485,-0.15 -0.566,35.48 -0.563,35.32 9.485,0.16 -0.16,9.99 -30.75,-0.49 0.156,-9.76 9.629,0.16 0.566,-35.56 0.567,-35.41 -9.629,-0.15 0.156,-9.996" /><path
         id="path80"
         style="fill:#212a36;fill-opacity:1;fill-rule:evenodd;stroke:none"
         d="m 745.742,1040.36 c -3.789,-25.84 9.153,-48.579 35.461,-52.43 26.301,-3.852 45.371,14.27 49.145,40.04 3.785,25.85 -9.274,48.76 -35.582,52.61 -26.235,3.84 -45.219,-14.22 -49.024,-40.22 z m 12.582,-1.84 c 2.93,20 16.989,34.17 34.903,31.55 18.058,-2.65 27.398,-20.23 24.464,-40.25 -2.882,-19.69 -16.871,-33.867 -34.929,-31.222 -17.918,2.622 -27.321,20.222 -24.438,39.922 v 0" /><path
         id="path82"
         style="fill:#212a36;fill-opacity:1;fill-rule:evenodd;stroke:none"
         d="m 826.277,982.656 31.754,-11.922 3.485,9.282 -11.368,4.269 23.981,63.865 11.809,-88.74 11.64,-4.371 14.414,38.379 14.246,37.942 11.637,-4.38 3.512,9.36 -31.754,11.92 -3.481,-9.28 11.098,-4.17 -22.184,-59.072 -11.199,82.202 -25.695,9.65 -3.43,-9.14 11.371,-4.27 -12.504,-33.29 -12.453,-33.148 -11.363,4.27 -3.516,-9.356" /><path
         id="path84"
         style="fill:#212a36;fill-opacity:1;fill-rule:evenodd;stroke:none"
         d="m 938.527,930.527 c 13.993,-8.531 29.442,-4.589 37.223,8.172 3.773,6.18 5.25,13.571 3.824,20.067 -4.094,18.812 -31.933,27.129 -22.304,42.914 3.898,6.38 11.445,8.14 20.585,2.56 6.872,-4.19 10.262,-9.947 10.723,-17.881 -0.488,-0.808 -3.644,-6.254 -3.644,-6.254 l 7.914,-4.828 13.402,21.965 -8.102,4.938 c 0,0 -2.785,-4.289 -2.808,-4.188 -2.488,6.408 -6.883,11.758 -12.832,15.388 -12.328,7.53 -26.528,6.32 -34.93,-7.45 -8.848,-14.504 -2.558,-25.164 7.008,-34.594 9.281,-9.348 16.781,-17.059 10.961,-26.598 -4.625,-7.59 -13.84,-10.269 -22.551,-4.953 -7.359,4.492 -10.504,12.031 -10.578,22.125 0.453,0.735 4.223,7.192 4.223,7.192 l -7.914,4.828 -15.45,-25.325 c 0,0 7.809,-4.859 7.977,-5.14 0.059,-0.039 3.398,5.301 3.461,5.262 2.203,-7.704 6.82,-13.93 13.812,-18.2 v 0" /><path
         id="path86"
         style="fill:#212a36;fill-opacity:1;fill-rule:evenodd;stroke:none"
         d="m 967.543,915.195 23.641,-21.316 6.636,7.363 -7.629,6.883 21.709,24.074 29.4,-26.515 -21.66,-24.016 -7.62,6.879 -6.7,-7.418 23.59,-21.274 6.59,7.305 -7.42,6.692 23.82,26.414 23.65,26.234 7.42,-6.691 6.7,7.425 -23.59,21.27 -6.64,-7.363 7.58,-6.832 -18.97,-21.039 -29.41,26.515 18.92,20.977 7.69,-6.93 6.69,7.422 -23.64,21.32 -6.53,-7.246 7.41,-6.691 -23.82,-26.41 -23.708,-26.297 -7.418,6.687 -6.691,-7.422" /><path
         id="path88"
         style="fill:#212a36;fill-opacity:1;fill-rule:evenodd;stroke:none"
         d="m 1032.2,853.508 19.39,-23.867 7.7,6.25 -5.99,7.359 27.55,22.375 27.43,22.273 5.97,-7.359 7.76,6.297 -19.39,23.871 -7.57,-6.152 6.07,-7.473 -27.61,-22.422 -27.48,-22.324 -6.07,7.473 -7.76,-6.301" /><path
         id="path90"
         style="fill:#212a36;fill-opacity:1;fill-rule:evenodd;stroke:none"
         d="m 1056.51,824.684 17.63,-28.891 8.47,5.164 -5.92,9.691 21.89,13.364 5.47,-8.953 c 10.22,-16.746 22.29,-25.961 41.3,-14.364 10.48,6.395 20.49,18.993 8.55,38.555 -1.16,1.902 -19.95,32.695 -19.95,32.695 l -8.33,-5.082 5.65,-9.265 -30.36,-18.524 -30.22,-18.449 -5.65,9.262 z m 80.62,23.019 c 0,0 7.18,-11.773 8.5,-13.922 5.31,-8.711 3.28,-17.019 -6.32,-22.883 -8.8,-5.367 -17.62,-5.867 -25.74,7.442 l -6.66,10.918 30.22,18.445" /><path
         id="path92"
         style="fill:#212a36;fill-opacity:1;fill-rule:evenodd;stroke:none"
         d="m 1432.72,800.695 c -3.9,2.43 -8.96,3.2 -13.66,2.086 -3.39,-0.801 -343.33,-75.828 -698.587,-76.453 -355.133,0.625 -695.2542,75.652 -698.6449,76.453 -4.6953,1.114 -9.75,0.34 -13.66013,-2.086 -3.90234,-2.425 -6.19531,-6.218 -6.19531,-10.25 V 385.922 c 0,-4.098 2.375,-7.949 6.39062,-10.367 2.69532,-1.625 5.91012,-2.469 9.16802,-2.469 1.5859,0 3.1835,0.195 4.746,0.613 3.7188,0.981 376.0037,93.75 698.1057,94.824 322.097,-1.074 694.507,-93.843 698.237,-94.824 4.74,-1.261 9.9,-0.558 13.91,1.856 4.02,2.418 6.39,6.269 6.39,10.367 v 404.523 c 0,4.032 -2.3,7.825 -6.2,10.25" /><path
         id="path94"
         style="fill:#ffa64a;fill-opacity:1;fill-rule:evenodd;stroke:none"
         d="m 720.371,494.59 c 305.469,-0.871 658.509,-75.535 661.829,-76.289 3.21,-0.742 6.94,-0.321 9.62,1.066 2.22,1.145 3.55,2.824 3.55,4.488 v 328.649 c 0,1.637 -1.28,3.289 -3.43,4.437 -2.6,1.391 -6.23,1.856 -9.44,1.196 -2.98,-0.61 -326.25,-60.84 -662.02,-61.344 -336.261,0.504 -659.1089,60.734 -662.0894,61.344 -3.2226,0.66 -6.8398,0.187 -9.4414,-1.196 -2.1406,-1.148 -3.4219,-2.8 -3.4219,-4.437 V 423.855 c 0,-1.66 1.3282,-3.343 3.543,-4.488 2.6719,-1.394 6.3828,-1.812 9.6211,-1.066 3.3125,0.754 356.3436,75.418 661.6796,76.289 z m 665.159,-85.664 c -1.92,0 -3.83,0.215 -5.66,0.637 -3.33,0.75 -357.7,75.164 -659.499,76.031 -301.715,-0.867 -656.0155,-75.281 -659.3554,-76.039 -5.6523,-1.282 -11.875,-0.551 -16.707,1.953 -5.3438,2.765 -8.5273,7.379 -8.5273,12.347 v 328.649 c 0,4.891 3.0937,9.457 8.2929,12.23 4.711,2.524 10.8125,3.344 16.4141,2.196 3.0117,-0.606 323.0857,-60.629 659.9917,-61.137 336.69,0.508 656.91,60.531 659.93,61.137 5.58,1.136 11.69,0.328 16.41,-2.196 5.19,-2.765 8.3,-7.339 8.3,-12.23 V 423.855 c 0,-4.968 -3.19,-9.582 -8.53,-12.347 -3.28,-1.688 -7.1,-2.582 -11.06,-2.582" /><path
         id="path96"
         style="fill:#f3deb2;fill-opacity:1;fill-rule:evenodd;stroke:none"
         d="m 155.305,565.633 c 0.129,8.242 -3.09,11.918 -9.93,11.844 -9.215,-0.102 -13.828,-0.153 -23.039,-0.254 -0.238,-23.176 -0.363,-42.059 -0.602,-70.02 9.067,0.742 13.614,1.113 22.711,1.86 6.496,0.531 10.078,5.097 10.215,14.562 0.262,17.121 0.383,26.535 0.645,42.008 z m 0.41,95.683 c -0.012,8.934 -3.32,13.75 -10.176,14.336 -9.238,0.793 -13.859,1.192 -23.094,1.989 0.028,-27.465 0.039,-45.946 0.067,-68.778 9.258,-0.113 13.879,-0.175 23.136,-0.289 6.602,-0.082 10.157,3.543 10.145,11.297 -0.031,15.254 -0.047,24.547 -0.078,41.445 z m 33.906,-51.675 c 0.027,-10.024 -6.808,-15.219 -15.961,-16.317 l -0.008,-0.371 c 9.118,-1.117 15.786,-6.394 15.532,-16.637 -0.512,-20.363 -0.766,-35.593 -1.27,-59.8 -0.648,-30.918 -13.793,-40.317 -37.133,-42.973 -23.836,-2.719 -35.679,-4.074 -59.1794,-6.73 -2.4493,-0.278 -3.918,0.656 -3.918,2.855 0,81.797 0,163.59 0,245.383 0,2.414 1.5195,3.109 4.0586,2.797 24.3128,-2.977 36.4768,-4.453 60.8238,-7.34 23.852,-2.832 36.836,-12.153 36.914,-42.383 0.055,-23.668 0.083,-38.535 0.141,-58.484" /><path
         id="path98"
         style="fill:#f3deb2;fill-opacity:1;fill-rule:evenodd;stroke:none"
         d="m 272.359,652.625 c -6.371,-41.562 -9.414,-48.469 -17.136,-90.02 13,0.356 19.504,0.532 32.523,0.879 -5.25,39.723 -8.738,46.774 -15.387,89.141 z m 30.45,-162.258 c -2.293,-0.242 -3.52,0.465 -3.946,2.141 -2.32,10.918 -3.484,19.492 -5.804,36.64 -18.106,-1.218 -27.149,-1.839 -45.184,-3.093 -3.242,-18.477 -4.855,-27.953 -8.078,-39.848 -0.586,-1.844 -1.891,-2.848 -4.16,-3.094 -10.797,-1.199 -16.184,-1.8 -26.93,-3.008 -2.762,-0.308 -3.977,0.59 -3.137,2.946 15.196,71.258 30.215,142.402 44.754,213.722 0.504,1.883 2.024,2.364 4.317,2.118 14.129,-1.532 21.199,-2.278 35.339,-3.743 2.286,-0.234 3.817,-1.031 4.336,-2.972 14.075,-65.145 26.563,-130.266 39.239,-195.555 0.418,-2.058 -0.66,-3.16 -3.719,-3.473 -10.828,-1.097 -16.231,-1.656 -27.027,-2.781" /><path
         id="path100"
         style="fill:#f3deb2;fill-opacity:1;fill-rule:evenodd;stroke:none"
         d="m 417.727,683.246 c 23.937,-1.957 36.711,-10.617 36.777,-32.953 0.027,-10.074 0.047,-15.504 0.074,-25.633 0.012,-2.39 -1.254,-3.769 -4.062,-3.711 -10.582,0.203 -15.875,0.317 -26.461,0.539 -2.547,0.051 -4.078,1.543 -4.082,4.028 -0.032,7.746 -0.039,11.816 -0.071,19.679 -0.015,6.551 -3.339,10.133 -10.211,10.551 -4.886,0.301 -7.332,0.461 -12.222,0.766 -6.364,0.402 -10.168,-2.856 -10.145,-9.66 0.059,-14.45 0.078,-22.356 0.129,-35.309 24.246,-7.621 36.375,-10.84 60.61,-16.348 4.332,-1.23 6.585,-2.953 6.468,-6.523 -0.578,-17.34 -0.867,-31.317 -1.445,-53.676 -0.582,-22.734 -13.773,-31.59 -37.93,-33.719 -11.519,-1.011 -17.269,-1.539 -28.769,-2.609 -23.856,-2.223 -36.461,4.211 -35.645,29.859 0.356,11.461 0.535,17.743 0.899,29.286 0.097,3.027 1.668,4.406 4.214,4.472 10.606,0.293 15.907,0.434 26.52,0.719 2.813,0.07 4.043,-1.184 3.953,-4.082 -0.246,-8.121 -0.371,-12.399 -0.613,-20.649 -0.219,-7.222 3.512,-10.273 9.91,-9.839 4.922,0.332 7.375,0.496 12.297,0.82 6.652,0.437 10.332,3.871 10.527,10.812 0.383,13.684 0.574,21.09 0.957,33.567 -23.945,6.976 -35.89,10.551 -59.742,16.433 -4.523,1.129 -6.723,3.063 -6.742,6.661 -0.09,17.855 -0.137,34.402 -0.234,59.566 -0.09,25.051 12.839,31.426 36.523,29.359 11.406,-0.992 17.105,-1.472 28.516,-2.406" /><path
         id="path102"
         style="fill:#f3deb2;fill-opacity:1;fill-rule:evenodd;stroke:none"
         d="m 561.641,511.898 c -3.094,-0.164 -4.883,0.575 -5.879,2.301 -12.61,20.477 -18.864,37.196 -31.242,62.055 -3.883,-5.988 -5.836,-9.203 -9.743,-15.77 -0.382,-20.164 -0.574,-31.949 -0.957,-47.984 -0.054,-2.355 -1.886,-3.633 -5.238,-3.867 -9.891,-0.668 -14.844,-1.024 -24.734,-1.758 -3.34,-0.25 -5.11,0.758 -5.039,3.137 1.339,55.043 1.976,109.976 1.828,165.027 -0.012,2.348 1.769,3.359 5.078,3.137 9.785,-0.653 14.676,-0.969 24.453,-1.571 3.316,-0.203 5.098,-1.453 5.109,-3.796 0.063,-22.289 0.09,-41.465 0.153,-66.59 15.609,25.48 23.422,43.73 39.07,65.304 1.266,1.711 3.051,2.461 5.855,2.325 10.7,-0.524 16.043,-0.762 26.743,-1.203 3.82,-0.153 5.347,-1.942 3.566,-4.411 -17.285,-24.679 -25.918,-44.8 -43.164,-70.328 18.48,-29.519 27.027,-51.765 45.313,-80.351 1.773,-2.289 0.21,-4.086 -3.903,-4.285 -10.902,-0.5 -16.355,-0.778 -27.269,-1.372" /><path
         id="path104"
         style="fill:#f3deb2;fill-opacity:1;fill-rule:evenodd;stroke:none"
         d="m 714.352,647.609 c 0,-1.918 -1.016,-3.254 -4.067,-3.23 -25.441,0.211 -38.156,0.402 -63.605,0.953 0.004,-15.891 0.004,-24.398 0.011,-39.727 19.434,0.063 29.153,0.106 48.586,0.215 2.543,0.016 4.071,-1.129 4.071,-3.218 0,-7.547 0,-11.192 -0.008,-18.727 0.004,-2.094 -1.527,-3.238 -4.067,-3.223 -19.441,0.11 -29.168,0.149 -48.625,0.2 -0.054,-15.493 -0.089,-24.137 -0.144,-40.227 25.559,0.633 38.32,0.855 63.773,1.074 3.063,0.031 4.075,-0.926 4.075,-3.035 0,-7.68 0,-11.512 0,-19.144 0,-1.903 -1.016,-3.055 -4.075,-3.063 -37.488,-0.152 -56.347,-0.598 -94.144,-2.035 -2.309,-0.086 -3.848,0.898 -3.832,2.707 0.367,50.566 0.543,101.129 0.5,151.699 0,1.801 1.519,2.797 3.82,2.719 37.477,-1.227 56.215,-1.598 93.664,-1.727 3.055,-0.015 4.067,-1.16 4.067,-3.066 0,-7.629 0,-11.465 0,-19.145" /><path
         id="path106"
         style="fill:#f3deb2;fill-opacity:1;fill-rule:evenodd;stroke:none"
         d="m 833.301,671.965 c 2.804,0.105 4.074,-0.887 4.066,-2.684 -0.015,-7.211 -0.023,-11.183 -0.043,-19.293 -0.008,-2.023 -1.281,-3.3 -4.082,-3.386 -11.824,-0.364 -17.742,-0.528 -29.562,-0.821 -0.051,-42.539 -0.063,-85.09 -0.047,-127.629 0.004,-2.004 -1.266,-2.843 -4.07,-2.769 -10.586,0.289 -15.883,0.406 -26.465,0.601 -2.547,0.051 -4.071,0.985 -4.071,3.024 -0.004,42.015 -0.004,84.035 0.016,126.051 -11.813,-0.2 -17.719,-0.282 -29.527,-0.399 -2.543,-0.031 -4.063,1.11 -4.063,3.035 0,7.7 0,11.535 0,19.118 0,1.898 1.524,3.035 4.063,3.054 37.468,0.25 56.234,0.707 93.785,2.098" /><path
         id="path108"
         style="fill:#f3deb2;fill-opacity:1;fill-rule:evenodd;stroke:none"
         d="m 926.48,572.477 c -0.003,5.617 -3.316,8.386 -10.183,8.406 -9.262,0.023 -13.891,0.035 -23.149,0.047 0.02,-16.008 0.02,-26.121 0.04,-43.516 9.265,-0.391 13.898,-0.598 23.16,-1.031 6.617,-0.309 10.175,2.379 10.164,8.539 -0.008,11.141 -0.02,17.019 -0.032,27.555 z m 0.25,68.816 c 0.036,5.91 -3.253,8.836 -10.14,8.52 -9.285,-0.426 -13.926,-0.629 -23.207,-1.02 -0.074,-17.352 -0.117,-27.402 -0.188,-43.418 9.266,0.02 13.895,0.031 23.157,0.051 6.617,0.019 10.199,2.808 10.226,8.187 0.063,10.586 0.09,16.489 0.152,27.68 z m 33.661,-34.449 c -0.059,-7.742 -6.973,-12.52 -16.133,-13.531 v -0.34 c 9.152,-1.012 16.031,-5.758 16.047,-13.504 0.023,-15.406 0.039,-25.391 0.062,-42.535 0.035,-21.895 -12.926,-28.711 -36.859,-27.211 -24.438,1.531 -36.66,2.211 -61.094,3.343 -2.547,0.114 -4.074,1.207 -4.074,2.997 -0.039,51.367 0.023,102.742 0.187,154.113 0.012,1.969 1.543,2.89 4.094,3.008 24.5,1.113 36.758,1.781 61.266,3.289 24,1.484 36.933,-5.438 36.789,-27.246 -0.113,-17.079 -0.172,-26.993 -0.285,-42.383" /><path
         id="path110"
         style="fill:#f3deb2;fill-opacity:1;fill-rule:evenodd;stroke:none"
         d="m 1043.69,645.852 c -6.84,-36.684 -10.28,-44.914 -16.73,-79.008 13.03,-0.262 19.54,-0.403 32.57,-0.692 -6.59,35.641 -9.64,43.688 -15.84,79.7 z m 33.54,-148.457 c -2.28,0.214 -3.57,1.156 -4.07,2.847 -2.89,10.942 -4.33,19.02 -7.21,34.77 -18.11,1.086 -27.17,1.613 -45.29,2.597 -2.72,-14.601 -4.09,-21.894 -6.81,-32.105 -0.5,-1.57 -1.78,-2.277 -4.06,-2.086 -10.895,0.898 -16.345,1.332 -27.239,2.176 -2.797,0.215 -4.074,1.281 -3.317,3.195 14.059,57.504 28.876,114.887 42.876,172.399 0.53,1.843 2.06,2.613 4.36,2.804 14.18,1.192 21.28,1.809 35.45,3.094 2.3,0.203 3.81,-0.301 4.3,-2.082 14.69,-62.406 27.83,-125.012 41.53,-187.547 0.52,-2.133 -0.49,-3.008 -3.55,-2.699 -10.78,1.074 -16.18,1.601 -26.97,2.637" /><path
         id="path112"
         style="fill:#f3deb2;fill-opacity:1;fill-rule:evenodd;stroke:none"
         d="m 1165.92,520.25 c 24.21,-1.91 36.31,-2.898 60.52,-4.91 2.8,-0.227 4.07,-2.235 4.07,-5.277 0.03,-12.157 0.03,-17.856 0.05,-25.958 0.01,-2.226 -1.26,-2.91 -4.06,-2.589 -36.39,4.195 -54.6,6.23 -91.02,10.039 -2.54,0.269 -4.07,1.226 -4.08,3.32 -0.15,65.352 0.07,130.68 0.76,196.023 0.03,1.911 1.57,3.067 4.12,3.329 10.58,1.07 15.87,1.613 26.45,2.722 2.8,0.293 4.05,-0.586 4.02,-2.535 -0.56,-58.062 -0.95,-116.105 -0.83,-174.164" /><path
         id="path114"
         style="fill:#f3deb2;fill-opacity:1;fill-rule:evenodd;stroke:none"
         d="m 1288.69,510.063 c 24.18,-2.079 36.28,-3.145 60.45,-5.27 2.8,-0.242 4.07,-2.523 4.07,-5.992 0,-13.856 0,-20.309 0,-29.133 0,-2.426 -1.27,-3.141 -4.07,-2.805 -36.33,4.45 -54.51,6.668 -90.89,10.953 -2.54,0.305 -4.07,1.317 -4.07,3.579 -0.12,74.168 0.08,148.332 0.57,222.496 0.03,2.062 1.55,3.281 4.09,3.566 10.52,1.195 15.78,1.793 26.29,2.996 2.78,0.32 4.03,-0.605 4.02,-2.703 -0.35,-65.898 -0.53,-131.789 -0.46,-197.687" /></g></g></svg>