<?xml version="1.0" encoding="UTF-8" standalone="no"?>
<svg
   xmlns:dc="http://purl.org/dc/elements/1.1/"
   xmlns:cc="http://creativecommons.org/ns#"
   xmlns:rdf="http://www.w3.org/1999/02/22-rdf-syntax-ns#"
   xmlns:svg="http://www.w3.org/2000/svg"
   xmlns="http://www.w3.org/2000/svg"
   viewBox="0 0 106.66667 106.66667"
   height="106.66667"
   width="106.66667"
   xml:space="preserve"
   id="svg2"
   version="1.1"><metadata
     id="metadata8"><rdf:RDF><cc:Work
         rdf:about=""><dc:format>image/svg+xml</dc:format><dc:type
           rdf:resource="http://purl.org/dc/dcmitype/StillImage" /></cc:Work></rdf:RDF></metadata><defs
     id="defs6" /><g
     transform="matrix(1.3333333,0,0,-1.3333333,0,106.66667)"
     id="g10"><g
       transform="scale(0.1)"
       id="g12"><path
         id="path14"
         style="fill:#fdfdfd;fill-opacity:1;fill-rule:evenodd;stroke:none"
         d="m 239.531,523.848 c 2.141,-1.758 3.547,-3.809 5.324,-5.879 2.043,-2.387 3.512,-3.399 5.899,-5.406 3.836,-3.235 8.344,-6.372 13.316,-8.668 3.453,-1.993 24.254,-23.735 30.18,-28.473 10.707,-8.547 31.25,-28.52 41.613,-33.77 -4.828,-11.589 -1.922,-12.211 6.707,-27.226 8.641,-15.031 21.211,-35.426 25.102,-52.578 2.32,-10.215 -6.274,-19.672 -10.203,-27.403 -10.867,-21.379 -40.09,-94.441 -39.364,-116.285 l 9.45,-0.012 c 2.925,9.098 4.504,20.79 7.183,30.457 6.692,24.145 20.95,60.442 31.66,81.411 11.016,21.574 18.457,22.14 3.411,55.14 -4.102,8.985 -8.434,16.305 -13.079,24.571 -2.414,4.3 -12.968,20.644 -13.054,24.386 8.269,-9.047 15.054,-26.347 25.637,-31.406 3.648,-1.746 1.648,0.125 3.57,-3.945 4.933,-10.446 23.144,-14.774 35.008,-10.832 -0.075,-1.008 -0.36,-3.285 -0.262,-4.168 0.402,-3.864 1.156,-1.258 1.594,-4.614 0.086,-0.64 -0.055,-2.062 -0.137,-2.75 -3.141,-26.843 -3.813,-3.843 -6.801,-31.882 l -15.09,-2.192 -10.418,-23.398 c 10.196,-7.031 38.051,-2.496 52.219,-0.934 2.977,0.328 5.766,0.617 8.777,0.988 6.672,0.821 5.692,1.239 7.536,-0.269 -11.012,-1.156 -22.805,-3.363 -34.118,-4.926 l -25.628,-3.715 c -9.68,-1.34 -6.497,-0.488 -7.336,-2.449 3.828,-2.285 17.843,-1.769 23.386,-2.113 10.063,-0.617 13.801,-0.582 23.453,1.226 7.098,1.325 13.766,2.579 20.793,4.157 5.2,1.164 5.649,1.902 8.723,-1.543 l 4.578,-8.051 -79.422,2.183 c -5.769,0.133 -18.836,0.981 -22.168,-5.23 24.864,0.543 31.653,-4.449 52.969,-9.617 15.098,-3.656 40.164,-2.375 52.949,5.097 -0.062,3.625 -0.972,3.833 -2.636,6.372 4.453,-1.559 4.113,-3.961 6.894,-6.321 9.387,-7.949 21.578,-30.398 26.02,-42.543 2.222,-6.086 -0.258,-6.336 -3.84,-9.336 -5.074,-4.254 -11.543,-10.789 -20.481,-12.035 -3.691,2.778 -8,10.176 -11.086,14.641 -2.246,3.258 -5.839,8.754 -9,10.652 l -2.957,1.113 c -0.035,0.133 -0.238,0.036 -0.367,0.098 l 15.082,32.164 c -4.777,0.098 -5.289,-1.656 -7.758,-4.789 -7.859,-9.969 -19.379,-39.793 -31.195,-55.484 -8.016,-10.641 -8.582,-8.106 -15.269,-6.602 -22.438,5.051 -44.524,6.613 -67.071,2.293 l 0.453,-7.156 c 4.582,-1.559 12.286,1.328 17.594,1.391 10.359,0.121 27.016,0.902 36.203,-1.727 18.676,-5.344 15.649,-0.82 21.571,0.988 2.277,0.696 6.05,0.301 7.808,1.301 2.461,1.395 12.559,19.484 14.434,23.176 2.039,4.008 5.027,8.363 6.504,12.531 l 22.793,-31.293 c 6.718,-0.172 17.98,7.984 22.992,12.457 l 4.972,4.109 c 1.395,1.02 -0.531,0.016 1.563,0.954 l 2.035,-3.02 c -0.148,-0.105 -0.379,-0.207 -0.48,-0.258 -9.875,-5.222 -16.575,-16.019 -27.989,-19.144 5.149,-0.231 9.821,-0.875 13.34,1.812 0.141,-0.125 0.281,-0.344 0.36,-0.422 0.082,-0.074 0.273,-0.304 0.371,-0.394 0.105,-0.082 0.281,-0.266 0.398,-0.348 l 9.531,-0.738 c 2.153,4.781 0.637,5.93 6.625,7.449 5.86,1.484 4.258,1.07 9.375,-1.633 9.735,-5.14 13.586,-4.91 20.836,-1.652 2.414,-5.234 2.942,-4.227 9.934,-4.172 4.519,0.035 9.055,0.008 13.574,0.008 22.977,0 17.18,-1.531 22.617,4.141 8.16,-3.383 8.828,-0.555 15.828,1.531 5.196,1.554 9.289,3.703 10.559,9.148 9.656,-2.246 13.074,3.68 19.941,12.469 3.043,3.898 2.668,3.055 2.668,9.391 9.106,0 9.579,4.496 13.258,10.113 7.735,11.801 3.852,7.445 5.879,12.215 2.399,5.64 7.078,-3.278 6.543,23.703 -0.152,7.48 -5.523,10.48 -12.109,12.015 2.328,2.024 5.343,2.352 6.961,7.395 1.175,3.676 -0.332,8.367 -1.239,12.648 -1.172,5.52 -1.836,6.786 -5.761,9.313 -5.196,3.344 -4.418,5.199 -9.762,5.316 0,7.184 0.508,17.34 -11.309,17.34 -0.097,4.594 -2.308,13.906 -7.64,16.481 -6.555,3.164 -12.887,1.613 -21.754,1.613 -0.668,2.5 -1.086,2.344 -3.02,3.961 -4.39,1.754 -18.148,3.328 -23.515,1.449 -5.391,-1.887 -8.215,-10.113 -10.332,-15.176 -4.93,3.516 -6.188,5.778 -14.329,2.739 l -3.214,-2.637 c -1.489,-1.027 -2.399,-1.766 -3.934,-2.852 -3.516,-2.496 -11.91,-7.617 -6.367,-16.004 0.594,-0.898 2.113,-2.336 3,-3.023 l 3.742,-3.137 c -3.082,-2.211 -3.406,-3.293 -5.566,-4.898 -2.012,2.086 -1.055,0.144 -2.286,3.16 -1.468,3.598 -3.14,9.086 -11.757,7.855 -10.575,-1.511 -11.723,0.039 -19.16,4.961 -5.411,3.575 -10.36,6.539 -15.559,10.075 -3.02,2.05 -4.609,3.308 -7.629,5.156 -3.945,2.418 -4.715,1.972 -5.383,7.805 9.856,6.187 16.93,26.355 9.875,41.906 -2.265,5 -17.59,15.953 -22.551,20.441 -3.867,3.5 -3.511,3.535 -4.597,10.274 4.136,-1.047 11.918,-4.223 15.558,-6.094 12.817,-6.586 18.039,-14.969 25.34,-18.375 7.149,-3.336 12.235,1.203 13.906,6.187 l 2.297,-2.871 c 2.332,-4.445 4.684,-17.324 12.84,-20.312 4.18,-1.531 2.867,0.031 6.774,-2.207 6.879,-3.938 15.546,-0.231 15.011,10.531 -1.07,21.605 -12.187,39.035 -19.058,55.98 4.082,-4.914 8.656,-11.488 12.968,-15.406 6.071,-5.523 16.309,-1.754 16.672,6.563 0.254,5.793 -5.742,16.07 -8.504,19.711 -5.714,7.539 -9.207,9.429 -13.695,14.992 -8.394,3.476 -14.957,15.238 -25.719,16.312 -4.109,0.41 -11.761,3.356 -16.726,4.524 -6.086,1.433 -1.813,1.597 -5.844,4.683 -1.637,1.258 -4.758,2.153 -7.008,2.774 l -21.625,3.992 c 1.082,1.953 2.547,3.379 3.907,5.805 3.988,7.113 5.933,13.765 7.304,21.867 0.918,10.59 -1.043,20.726 -4.547,29.539 -1.664,4.176 -3.215,8.176 -5.336,12.023 -2.492,4.532 -4.293,6.477 -6.562,9.661 -5.32,2.253 -4.918,2.121 -10.785,1.046 -2.867,3.954 -6.09,5.836 -10.34,9.075 -4.973,3.789 1.051,2.171 -7.668,11.187 -5.547,5.734 -6.988,4.168 -15.031,4.52 -6.618,0.289 -12.309,0.261 -18.922,-0.11 -8.074,-0.816 -16.582,-1.668 -22.539,-5.351 -6.907,0.785 -21.543,-11.852 -26.196,-16.547 -1.929,-1.949 -3.367,-3.328 -5.289,-5.266 -2.062,-2.082 -3.195,-3.859 -5.027,-6.281 -3.137,-4.145 -5.906,-9.203 -7.871,-13.988 -6.293,-15.317 -4.274,-38.118 2.93,-54.176 0.961,-2.129 2.261,-4.828 3.531,-7.027 2.144,-3.715 2.855,-3.266 1.742,-8.055 -11.352,0 -9.441,-0.324 -16.07,5.039 -10.184,8.238 -13.477,10.914 -20.149,22.062 -9.363,15.633 -16.183,23.407 -26.672,37.403 -3.226,4.308 -5.804,7.761 -9.046,12.058 -2.008,2.668 -8.024,10.528 -8.719,13.141 9.238,-4.891 13.172,2.406 17.168,6.953 5.574,6.332 6.894,10.375 0.5,19.758 -1.426,2.082 -2.512,3.156 -4.278,4.769 -2.144,1.957 -3.496,2.305 -5.101,4.704 12.308,2.867 32.719,21.757 37.414,33.441 3.914,9.742 -1.785,12.254 -5,17.062 2.488,3.715 4.914,5.153 3.621,12.661 -0.352,2.062 -1.406,4.109 -2.801,5.496 -0.73,0.726 -3.742,3.136 -4.59,3.703 0.891,3.82 2.973,4.137 0.317,11.621 -3.34,9.43 -12.528,21.133 -23.684,18.531 -1.644,7.047 -1.762,9.305 -6.449,13.903 -4.629,4.55 -9.191,3.578 -13.906,0.418 -2.524,3.777 -7.676,5.925 -12.227,7.371 -7.332,2.328 -9.101,2.55 -14.91,-1.34 -3.293,4.926 -8.098,5.32 -15.055,5.297 -3.257,-0.012 -7.324,0.386 -10.078,-0.516 -3.429,-1.121 -4.312,-2.023 -5.773,-4.781 -5.739,1.34 -10.203,3.336 -19.367,-0.981 -7.051,-3.324 -10.782,-6.508 -10.782,-13.34 -10.332,6.918 -12.515,1.508 -22.09,-6.558 -1.554,-1.313 -1.894,-1.149 -3.382,-2.649 -5.586,-5.621 2.047,-3.609 -6.055,-5.253 -7.063,-1.43 -8.582,-6.786 -14.047,-16.102 -7.746,-13.207 11.012,-17.715 9.774,-21.125 -0.911,-2.516 -10.422,4.859 -15.0903,-5.969 l -1.8438,-15.375 c 0.2071,-2.191 1.0704,-3.054 1.6329,-4.5 1.6601,-4.242 -3.4766,-16.109 4.3632,-18.203 0,-5.164 -0.285,-11.746 7.539,-13.566 0,-14.219 -9.6562,-21.071 19.699,-30.055 2.106,-0.645 4.61,-1.867 6.129,-2.16 8.973,-1.727 32.692,-2.301 40.035,1.777 4.762,2.641 3.395,4.172 11.024,4.805 l 10.574,-8.27 c 3.699,-2.8 1.992,-1.863 4.133,-5.664 1.734,-3.07 7.941,-6.746 10.254,-18.39 0.672,-3.375 0.308,-4.891 2.008,-7.793 2.234,-3.821 6.605,-21.063 13.492,-34.75 7.566,-15.035 4.008,-8.66 13.812,-24.75" /><path
         id="path16"
         style="fill:#2e2b2e;fill-opacity:1;fill-rule:evenodd;stroke:none"
         d="m 429.465,471.145 c 13.172,-1.754 38.476,-12.594 49.215,-20.864 4.093,-3.152 8.261,-8.254 13.195,-10.531 -1.023,9.844 -29.445,23.059 -35.113,30.898 20.695,0.278 43.14,-12.875 53.73,-28.523 2.047,-3.023 2.977,-5.617 4.336,-9.215 1.16,-3.07 2.453,-7.293 5.188,-9.484 -1.52,11.812 -9.637,17.75 -11.965,27.258 12.867,-6.778 13.601,-24.262 20.254,-29.84 0.722,14.578 -14.973,48.547 -21.352,58.472 -3.965,6.164 -7.738,11.532 -13.058,16.329 -1.918,1.73 -3.493,3.429 -5.27,5.289 -4.402,4.574 -18.254,11.964 -24.629,15.363 1.672,0.867 4.055,0.574 6.188,0.207 18.847,-3.262 41.91,-15.82 54.484,-29.281 3.461,-3.707 10.961,-15.164 14.094,-16.93 -3.414,14.23 -20.696,27.809 -30.574,35.117 -0.915,0.672 -4.024,3.274 -4.77,3.61 -4.383,1.976 -0.715,-1.028 -5.699,0.941 -4.164,1.644 -7.543,2.98 -12.387,4.23 l -20.488,4.43 c -2.246,0.516 -4.531,1.113 -6.207,2.606 l 11.929,0.531 -5.332,1.719 c -2.011,0.406 -3.738,0.726 -5.691,1.074 -8.719,1.539 -17.203,2.781 -26.027,1.933 -4.961,-0.48 -5.688,1.754 -10.68,2.629 -2.523,-5.843 -6.066,-12.125 -10.383,-15.254 -5.617,-4.07 -16.062,-0.949 -23.668,-1.957 -2.133,-2.847 -2.269,-2.746 -5.211,-4.523 l -0.758,-4.895 h -3.488 c 1.707,-2.843 3.582,-4.328 6.516,-6.324 5,-3.402 2.113,-3.187 4.121,-8.711 9.746,-2.254 18.699,-8.371 28.133,-11.82 2.988,-1.094 9.687,-3.305 11.367,-4.484" /><path
         id="path18"
         style="fill:#333333;fill-opacity:1;fill-rule:evenodd;stroke:none"
         d="m 359.387,635.305 c 5.957,3.683 14.465,4.535 22.539,5.351 l 27.215,83.813 c 1.078,-1.477 34.261,-102.528 35.531,-109.531 2.269,-3.184 4.07,-5.129 6.562,-9.661 2.121,-3.847 3.672,-7.847 5.336,-12.023 3.504,-8.813 5.465,-18.949 4.547,-29.539 l 10.414,-31.664 c 2.25,-0.621 5.371,-1.516 7.008,-2.774 4.031,-3.086 -0.242,-3.25 5.844,-4.683 4.965,-1.168 12.617,-4.114 16.726,-4.524 10.762,-1.074 17.325,-12.836 25.719,-16.312 l 186.137,0.371 -43.551,-32.391 c -14.891,-10.531 -28.863,-21.175 -43.766,-31.621 -7.57,-5.304 -14.343,-10.519 -21.882,-15.812 l -65.661,-48.328 c 8.141,3.039 9.399,0.777 14.329,-2.739 2.117,5.063 4.941,13.289 10.332,15.176 5.367,1.879 19.125,0.305 23.515,-1.449 l 189.211,137 H 495.074 l -10.461,33.262 c -1.84,5.531 -3.472,11.23 -5.269,16.589 -1.864,5.563 -3.762,10.793 -5.473,16.387 -1.734,5.656 -3.383,10.906 -5.277,16.582 -1.762,5.285 -3.399,11.012 -5.274,16.586 -14.691,43.676 -28.363,88.984 -42.968,132.668 -1.747,5.219 -10.153,30.301 -10.461,34.02 -2.828,-2.075 -5.711,-15.098 -6.871,-18.758 L 362.309,645.422 c -0.911,-2.723 -2.68,-6.863 -2.922,-10.117" /><path
         id="path20"
         style="fill:#2e2b2e;fill-opacity:1;fill-rule:evenodd;stroke:none"
         d="m 367.051,627.988 c 0.894,-0.742 -1.082,-1.215 6.734,-0.203 l 24.297,1.645 c -0.559,-6.524 -5.84,-13.352 -9.297,-15.524 -4.738,2.387 -8.812,4.34 -15.215,5.598 -2.925,0.57 -6.121,1.152 -9.007,1.621 -6.68,1.074 -4.844,1.484 -6.684,3.832 -20.238,-12.691 -37.965,-29.582 -36.231,-55.777 1.024,-15.426 3.676,-24.453 10.567,-35.457 4.894,-7.813 15.226,-20.637 22.652,-23.934 8.914,10.578 -2.23,27.504 -5.969,29.305 -12.781,6.144 -15.863,7.066 -16.328,26.617 l 6.414,1.988 -0.089,-11.515 c 1.796,2.043 2.511,5.199 3.355,8.382 l 4.285,-1.55 -0.125,7.953 c 6.508,-1.09 8.668,0.922 13.883,3.359 11.598,5.426 5.008,-0.168 12.437,0.965 5.704,0.871 7.938,3.598 15.18,2.77 4.789,-0.547 9.922,-3.774 14.172,-3.485 -9.215,9.121 -22.773,4.789 -26.531,9.074 1.359,1.414 1.551,1 2.547,2.231 2.695,3.332 -0.528,2.043 8.695,9.441 5.398,4.328 6.742,4.629 16.617,0.739 -0.406,3.539 -5.16,3.285 -9.168,4.964 0.778,1.786 2.367,3.379 3.492,5.102 -1.218,2.812 -3.625,4.965 -5.136,7.539 0.976,3.254 3.578,6.547 5.441,9.594 2.324,3.812 2.941,6.914 7.848,7.32 -9.539,0.723 -30.711,1.035 -38.836,-2.594" /><path
         id="path22"
         style="fill:#2e2b2e;fill-opacity:1;fill-rule:evenodd;stroke:none"
         d="m 541.047,218.164 c -6.992,-0.055 -7.52,-1.062 -9.934,4.172 -7.25,-3.258 -11.101,-3.488 -20.836,1.652 -5.117,2.703 -3.515,3.117 -9.375,1.633 -5.988,-1.519 -4.472,-2.668 -6.625,-7.449 l -9.531,0.738 c -0.117,0.082 -0.293,0.266 -0.398,0.348 -0.098,0.09 -0.289,0.32 -0.371,0.394 -0.079,0.078 -0.219,0.297 -0.36,0.422 -3.519,-2.687 -8.191,-2.043 -13.34,-1.812 11.414,3.125 18.114,13.922 27.989,19.144 0.101,0.051 0.332,0.153 0.48,0.258 l -2.035,3.02 c -2.094,-0.938 -0.168,0.066 -1.563,-0.954 l -4.972,-4.109 c -5.012,-4.473 -16.274,-12.629 -22.992,-12.457 l -22.793,31.293 c -1.477,-4.168 -4.465,-8.523 -6.504,-12.531 -1.875,-3.692 -11.973,-21.781 -14.434,-23.176 -1.758,-1 -5.531,-0.605 -7.808,-1.301 -5.922,-1.808 -2.895,-6.332 -21.571,-0.988 -9.187,2.629 -25.844,1.848 -36.203,1.727 -5.308,-0.063 -13.012,-2.95 -17.594,-1.391 l -0.453,7.156 c 22.547,4.32 44.633,2.758 67.071,-2.293 6.687,-1.504 7.253,-4.039 15.269,6.602 11.816,15.691 23.336,45.515 31.195,55.484 2.469,3.133 2.981,4.887 7.758,4.789 l -15.082,-32.164 c 0.129,-0.062 0.332,0.035 0.367,-0.098 l 2.957,-1.113 c 3.161,-1.898 6.754,-7.394 9,-10.652 3.086,-4.465 7.395,-11.863 11.086,-14.641 8.938,1.246 15.407,7.781 20.481,12.035 3.582,3 6.062,3.25 3.84,9.336 -4.442,12.145 -16.633,34.594 -26.02,42.543 -2.781,2.36 -2.441,4.762 -6.894,6.321 1.664,-2.539 2.574,-2.747 2.636,-6.372 -12.785,-7.472 -37.851,-8.753 -52.949,-5.097 -21.316,5.168 -28.105,10.16 -52.969,9.617 3.332,6.211 16.399,5.363 22.168,5.23 l 79.422,-2.183 -4.578,8.051 c -3.074,3.445 -3.523,2.707 -8.723,1.543 -7.027,-1.578 -13.695,-2.832 -20.793,-4.157 -9.652,-1.808 -13.39,-1.843 -23.453,-1.226 -5.543,0.344 -19.558,-0.172 -23.386,2.113 0.839,1.961 -2.344,1.109 7.336,2.449 l 25.628,3.715 c 11.313,1.563 23.106,3.77 34.118,4.926 -1.844,1.508 -0.864,1.09 -7.536,0.269 -3.011,-0.371 -5.8,-0.66 -8.777,-0.988 -14.168,-1.562 -42.023,-6.097 -52.219,0.934 l 10.418,23.398 15.09,2.192 c 2.988,28.039 3.66,5.039 6.801,31.882 0.082,0.688 0.223,2.114 0.137,2.75 -0.438,3.356 -1.192,0.75 -1.594,4.614 -0.098,0.883 0.187,3.16 0.262,4.168 -11.864,-3.942 -30.075,0.386 -35.008,10.832 -1.922,4.07 0.078,2.199 -3.57,3.945 -10.583,5.059 -17.368,22.359 -25.637,31.406 0.086,-3.742 10.64,-20.086 13.054,-24.386 4.645,-8.266 8.977,-15.586 13.079,-24.571 15.046,-33 7.605,-33.566 -3.411,-55.14 -10.71,-20.969 -24.968,-57.266 -31.66,-81.411 -2.679,-9.667 -4.258,-21.359 -7.183,-30.457 l -9.45,0.012 c -14.179,0.09 -28.156,2.102 -31.109,-11.859 -2.266,3.48 -1.851,4.929 -5.16,7.945 -2.488,2.266 -5.504,3.652 -9.852,3.902 -8.511,0.485 -18.488,0.028 -27.164,0.028 0.477,5.832 9.278,29.797 11.66,37.07 4.165,12.688 8.211,24.965 12.274,37.477 4.715,14.539 21.91,64.355 24.238,74.449 -3.258,3.258 -7.289,5.539 -11.113,8.426 l -82.27,59.457 c -3.296,2.363 -91.656,65.371 -94.082,69.082 l 158.543,-0.242 c -4.972,2.296 -9.48,5.433 -13.316,8.668 -2.387,2.007 -3.856,3.019 -5.899,5.406 -1.777,2.07 -3.183,4.121 -5.324,5.879 l -196.7419,0.117 c 8.5078,-7.406 56.832,-40.996 70.3089,-51.055 l 71.289,-51.582 c 2.394,-1.758 4.586,-3.328 7.051,-5.012 l 78.25,-56.683 c -2.141,-4.453 -4.157,-12.145 -5.762,-17.61 L 229.262,236.48 c -2.067,-6.207 -4.071,-11.414 -5.559,-17.808 61.61,-43.707 259.863,-15.383 317.344,-0.508" /><path
         id="path24"
         style="fill:#2e2b2e;fill-opacity:1;fill-rule:evenodd;stroke:none"
         d="m 429.418,470.332 c -2.461,0.086 -1.613,-0.48 -0.195,-3.199 2.097,-3.969 3.429,-13.301 1.273,-16.426 l -1.582,4.406 c -1.547,11.625 -7.762,20.434 -21.605,19.379 1.261,-5.894 16.578,-4.164 17.386,-18.437 0.403,-7.067 -1.215,-4.875 2.36,-10.664 5.125,-8.289 13.093,-31.215 0.175,-35.817 -2.597,2.223 -3.632,6.801 -5.929,9.656 l 1.406,-9.195 c -5.027,1.762 -11.434,13.172 -18.418,20.899 -19.031,21.058 -17.129,12.175 -35.48,42.91 -2.504,4.199 -4.789,8.219 -7.481,12.094 -2.176,3.125 -9.039,4.98 -13.043,6.085 l 6.617,-5.714 c 3.887,-3.442 3.383,-1.864 5.637,-7.926 7.078,-19.059 12.707,-26.305 27.922,-38.403 18.301,-14.542 15.238,-26.613 31.816,-34.554 8.164,-3.906 14.102,-0.867 17.168,5.062 4.219,8.137 3.524,13.867 2.301,23.016 3.262,-1.438 10.512,-7.152 13.508,-9.41 5.355,-4.031 10.012,-5.606 9.164,-13.801 -1.063,-10.266 -13.871,-22.203 -21.84,-24.684 -0.441,-5.086 -1.238,-10.41 -1.933,-15.504 -1.122,-8.203 -1.118,-7.058 2.316,-13.343 4.344,-7.949 8.453,-16.106 14.18,-20.496 5.757,-4.418 28.164,-12.879 36.964,-15.055 4.348,-1.074 10.336,-1.758 13.645,-3.789 -2.703,-3.008 -12.855,-11.484 -16.164,-13.289 l 5.805,-10.735 c -3.852,-7.753 -8.426,-13.875 -7.61,-24.765 3.063,-1.559 7.399,-4.235 10.797,-5.227 l -1.851,-12.375 c 10.054,-7.476 12.64,-6.011 11.812,-14.41 5.195,-2.441 8.059,-5.664 15.566,-6.422 -0.187,5.715 -0.714,16.586 1.875,20.86 3.809,-0.125 2.325,0.269 3.715,-6.055 1.442,-6.531 0.93,-2.582 5.235,-4.473 -1.18,-5.679 -0.961,-4.699 2.199,-9.203 1.586,-2.258 4.453,-6.976 6.187,-8.519 l 1.965,10.046 c 0.832,0.536 0.629,0.438 1.653,1 3.867,2.125 8.597,3 12.683,4.7 -0.121,5.859 -3.629,6.136 -4.91,10.269 2.313,1.821 2.785,2.164 5.473,3.219 0.953,-3.359 3.75,-9.723 5.496,-12.277 l 0.242,8.183 c 2.383,-1.859 2.43,-3.73 7.031,-2.418 2.973,0.848 3.746,2.481 7.305,3.461 2.129,-2.351 3.859,-6.859 4.906,-9.969 l -4.148,-1.964 1.972,-6.321 10.805,4.305 -1.508,7.207 c 2.602,1.563 6.414,4.309 8.227,6.633 l -8.906,8.246 c 1.164,2.406 9.152,10.258 11.218,11.859 1.11,-0.914 2.602,-2.195 3.77,-3.597 0.629,-0.75 1.086,-1.547 1.652,-2.129 1.758,-1.797 0.113,-0.688 2.481,-1.793 1.687,3.074 4.566,6.648 7.218,9.422 3.321,-1.184 6.489,-4.184 9.481,-5.907 1.527,1.789 6.476,9.567 7.187,11.731 l -6.855,4.492 -2.887,-3.121 c -1.316,-1.832 -1.547,-2.254 -3.152,-3.734 -3.27,1.328 -6.731,4.359 -9.797,5.921 1.16,3.141 1.957,2.254 3.102,5.489 -1.575,2.328 -3.633,3.871 -4.176,6.32 8.25,0.719 11.258,-0.273 18.847,-0.594 -1.808,1.93 -4.699,2.535 -7.371,3.133 -4.554,1.016 -15.136,1.035 -18.179,2.293 -1.414,0.586 -3.809,3.465 -5.832,4.613 1.058,3.813 3.398,5.344 4.582,9.11 l -9.098,6.554 c 7.465,-0.402 14.691,-4.484 20.816,-8.378 3.989,-2.532 2.641,-1.883 3.606,-6.915 l 5.558,-3.027 c 2.036,3.508 3.196,11.738 1.571,16.106 l -2.68,-3.375 c -3.656,1.496 -9.531,3.769 -12.156,6.57 l 4.094,10.875 c 9.664,-2.469 10.078,-6.66 21.828,-5.891 0.722,3.223 -0.731,6.75 -1.262,10.145 -5.477,0.488 -3.617,-0.809 -5.668,3.613 l -1.059,-4.969 c -6.171,0.547 -12.734,1.922 -18.921,2.016 -5.497,0.082 -1.141,-0.059 -5.141,-2.281 -4.477,2.98 -20.297,10.265 -22.57,12.957 7.722,-0.227 13.836,-5.207 19.55,-7.403 1.438,2.637 0.618,5.465 2.266,8.043 5.242,-1.113 3.023,-0.222 4.941,-4.82 l 10.411,-1.336 c 1.918,3.703 1.828,10.777 0.476,15.262 l -3.777,-0.086 -0.574,-4.262 c -11.59,1.094 -21.793,6.754 -33.368,6.629 l -5.144,0.707 c 8.793,2.512 23.101,0.926 32.18,0.195 0.3,6.094 -0.602,9.622 -2.157,14.817 -6.609,1.086 -10.496,0.805 -17.304,0.113 -6.192,-0.629 -9.735,-3.047 -15.457,-4.012 2.398,4.625 5.371,4.883 6.441,10.227 l -14.18,0.43 c -1.992,-4.657 -13.465,-24.059 -10.035,-27.801 1.289,-1.41 13.965,-3.203 17.473,-4.504 3.082,-1.145 2.531,-1.156 2.308,-3.473 6.7,-1.879 12.375,-5.086 17.422,-8.375 8.879,-5.789 6.117,-7.847 1.383,-16.105 -5.922,1.699 -8.109,8.652 -15.164,6.668 l -4.469,3.929 c 0.555,5.125 1.383,3.321 2.539,7.11 -3.152,1.66 -6.691,4.629 -11.851,5.523 -4.961,0.864 -3.117,-0.789 -7.633,1.426 -3.231,1.582 -2.996,1.027 -6.856,-0.101 -4.484,-1.317 -9.253,-2.149 -13.687,-3.676 -5.766,-1.985 -4.906,-6.184 -9.574,-8.407 0.636,-4.679 1.023,-3.523 0.437,-8.722 l -5.437,-0.246 c -1.86,4.613 0.176,8.629 -3.387,12.761 -4.09,4.754 -3.352,3.352 -6.141,8.977 -0.058,0.109 -0.168,0.344 -0.273,0.504 -4.449,-0.875 -6.863,-0.352 -10.379,-1.02 -4.996,-0.945 -20.805,10.856 -25.18,13.657 -5.441,3.488 -10.195,6.941 -15.796,10.562 -6.829,4.418 -8.004,9.36 -9.247,18.379 10.622,3.82 19.25,24.953 11.614,34.5 -1.266,1.578 -2.965,2.813 -4.391,3.906 l -18.328,15.582 c -2.746,2.481 -2.262,1.243 -3.137,5.938 -2.129,11.418 -4.906,15.226 -8.906,24.199" /><path
         id="path26"
         style="fill:#2e2b2e;fill-opacity:1;fill-rule:evenodd;stroke:none"
         d="m 186.391,760.66 c -0.188,-0.105 -0.473,-0.031 -0.578,-0.285 -0.098,-0.25 -0.43,-0.215 -0.575,-0.27 -0.164,-0.062 -0.941,-0.367 -1.179,-0.441 l -8.547,-2.019 c -0.86,-8.442 8.226,-14.082 7.922,-23.856 l -4.036,8.188 -16.671,-4.719 -2.497,10.375 -10.996,-5.629 0.758,-5.461 c -4.25,3.402 -6.027,10.402 -9.961,14.375 -3.984,-2.328 -7.801,-6.527 -11.015,-9.621 2.273,-2.543 2.648,-3.512 5.734,-5.945 l 8.043,3.968 c 2.246,-2.988 5.711,-6.98 7.168,-10.465 -1.992,-0.777 -3.641,-1.902 -5.41,-3.625 l 2.465,-9.371 -19.731,9.684 c 2.485,-4.207 9.524,-8.297 14.66,-11.207 9.446,-5.344 7.957,-1.973 12.793,-12.18 -5.285,-4.754 -5.539,-5.136 -11.691,-2.703 l -2.809,-2.887 c -1.222,1.641 -2.211,2.727 -3.578,4.196 -0.769,0.824 -1.101,1.082 -1.871,1.894 -0.109,0.117 -0.273,0.266 -0.383,0.391 l -1.453,1.832 2.324,4.484 -6.351,6.258 c -10.664,-15.164 -4.821,-12.535 -12.262,-21.441 l -10.695,2.55 -0.828,-9.945 c 2.214,-3.719 3.562,-1.562 2.636,-6.82 -0.578,-3.274 -1.269,-6.047 -1.609,-9.317 l 7.316,-3.582 -2.496,-8.113 5.282,-1.156 1.957,2.426 c 7.949,-5.485 23.929,-13.953 29.371,-21.078 -11.114,0.683 -18.926,8.527 -27.918,11.414 -1.387,-2.59 -3.121,-12.766 -2.5,-15.204 4.468,-9.3 45.023,-13.468 55.062,-5.66 4.332,3.371 13.688,5.614 18.551,2.309 l 12.566,-10.02 c 3.094,-2.39 3.75,-1.855 5.161,-6.109 1.242,-3.754 -0.364,-1.121 2.339,-3.738 5.168,-5.004 8.207,-12.114 9.489,-19.949 0.976,-5.965 1.882,-4.2 3.168,-8.118 0.996,-3.023 1.39,-6.261 2.5,-9.547 20.957,-62.039 39.691,-54.925 48.722,-66.613 3.325,-4.301 7.504,-8.121 11.582,-11.777 5.953,-5.344 11.797,-11.555 18.188,-16.488 10.961,-8.469 20.672,-17.977 31.742,-26.309 5.773,-4.348 9.504,-7.078 15.613,-1 13.551,13.496 -2.039,38.625 -11.961,46.879 -15.367,12.781 -23.804,9.754 -31.113,15.617 -32.715,26.262 -20.738,19.492 -42.918,49.801 -11.484,15.687 -23.68,29.902 -34.129,46.523 -1.387,2.199 -2.699,5.61 -4.269,7.457 l -6.785,-0.136 -1.04,2.539 c -0.652,1.558 0.079,0.601 -0.875,1.957 -11.175,1.129 -15.132,0.269 -20.07,7.277 2.824,2.492 7.141,3.922 12.035,3.477 2.188,-0.2 3.977,-0.75 5.379,-2.008 l 4.137,-4.75 c -0.418,6.566 -1.996,4.586 -5.008,8.558 l 3.18,3.879 6.051,-1.562 1.484,3.773 c 5.633,0.102 9.684,-3.777 12.687,-7.719 2.622,-3.441 6.176,-9.75 9.176,-11.343 2.137,1.672 4.883,4.824 6.309,7.695 -3.133,8.25 -14.57,14.535 -22.774,19.055 l -0.539,7.066 c 9.715,0.766 12.332,0.406 20.414,4.383 4.723,2.324 12.141,7.613 15.082,10.566 4.008,4.016 8.872,8.282 11.766,13.903 3.336,6.488 -5.156,10.168 -7.68,15.132 2.297,3.965 9.157,7.829 5.028,12.473 -1.621,1.824 -3.907,3.031 -5.797,4.836 -2.719,2.582 -1.817,3.332 -6.371,2.652 0.273,0.524 1.883,3.161 2.375,3.633 2.136,2.047 3.066,0.063 4.551,2.992 1.601,6.368 -6.879,14.282 -10.657,15.836 l -10.847,-20.48 c -5.762,2.582 -9.161,2.008 -16.547,2.293 l 2,12.863 9.597,-0.765 c 3.059,8.316 3.973,10.984 -0.171,22.117 -3.016,-1.211 -6.481,-7.489 -7.543,-10.473 -5.77,0.258 -11.696,1.481 -17.403,0.68 -0.629,-5.453 3.336,-12.735 3.817,-18.492 0.445,-5.387 -1.887,-15.844 1.504,-20.997 2.378,-3.617 1.703,-3.265 2.753,-8.41 0.809,-3.945 0.782,-5.871 0.243,-10.07 -0.422,-3.301 -0.993,-6.543 -1.645,-9.629 -0.309,-1.453 -0.555,-2.691 -0.988,-4.223 l -2.305,-4.3 c -0.238,4.312 -0.504,8.527 -0.754,12.824 -0.199,3.43 -1.554,10.109 -1.57,11.793 -0.031,3.996 2.535,2.109 0.711,10.105 -0.832,3.625 -1.063,8.504 -2.711,11.711 l -8.945,0.11 c -1.469,4.132 -2.977,10.824 -2.106,15.355 6.52,1.977 5.82,-0.922 7.094,6.5 0.816,4.75 1.09,6.887 -0.254,11.508 l -3.82,-9.106 -2.411,4.274 -12.687,-0.352 -0.789,12.844 6.894,-0.613 -0.433,7.465 c -4.031,0.496 -9.844,1.265 -13.692,0.379 l -0.132,-7.028" /><path
         id="path28"
         style="fill:#e82821;fill-opacity:1;fill-rule:evenodd;stroke:none"
         d="m 411.711,397.703 c -0.809,-3.933 -2.199,-9.176 -1.445,-12.82 0.73,-3.555 2.644,4.531 0.855,-11.59 -0.504,-4.543 -0.973,-9.031 -1.469,-13.66 -3.3,-2.613 -2.707,0.57 -3.312,-6.16 -0.27,-2.965 -0.656,-5.766 -0.805,-8.75 4.028,0.113 18.422,0.664 21.578,1.492 2.442,0.64 8.559,7.992 9.2,14.133 0.738,7.031 1.511,14.156 2.269,21.164 1.008,9.336 0.777,11.285 -4.566,17.476 l -22.305,-1.285" /><path
         id="path30"
         style="fill:#2e2b2e;fill-opacity:1;fill-rule:evenodd;stroke:none"
         d="m 399.777,608.828 8.61,11.801 c 9.426,-4.617 22.652,-16.688 23.801,-29.555 l -7.305,-0.094 c 2.707,-2.3 2.305,-4.816 3.32,-8.757 l 1.684,-7.285 c -0.035,-6.356 -4.922,-0.797 -8.473,-4.993 3.215,-1.992 6.941,0.914 10.484,-4.39 2.512,-3.75 1.465,-9.082 1.559,-13.66 1.977,2.222 0.582,1.621 2.891,2.89 -0.387,-2.32 -1.75,-5.535 -2.797,-7.734 -2.602,-5.43 -4.367,-0.84 -4.363,-7.442 8.222,2.313 14.562,16.274 16.613,24.633 1.148,4.699 0.265,8.649 1.394,12.918 7.067,-15.18 -5.984,-28.941 -6.207,-35.519 8.293,9.765 11.496,19.89 10.125,33.558 -1.187,11.789 -7.359,23.856 -12.519,31.555 -13.524,-3.121 -7.086,0.047 -16.914,7.402 -2.848,2.133 -5.075,3.68 -7.871,5.707 -6.555,4.758 0.652,3.5 -4.09,8.575 -2.02,-2.137 -9.742,-16.524 -9.942,-19.61" /><path
         id="path32"
         style="fill:#fdfdfd;fill-opacity:1;fill-rule:evenodd;stroke:none"
         d="m 339.063,235.934 0.308,-6.532 c 1.563,-0.398 32.242,0.715 42.621,-0.05 6.692,-0.497 13.164,-1.262 19.617,-2.356 13.696,-2.316 12.262,-8.398 33.473,29.043 2.691,4.75 13.856,25.016 14.613,29.492 l -6.062,-0.324 c -3.043,-3.457 -21.887,-45.262 -31.469,-50.707 -3.769,-2.137 -28.258,3.832 -34.894,4.348 -14.375,1.113 -24.762,-1.071 -38.207,-2.914" /><path
         id="path34"
         style="fill:#fdfdfd;fill-opacity:1;fill-rule:evenodd;stroke:none"
         d="m 196.359,689.754 -9.754,-4.969 17.622,-40.125 c 3.703,5.863 2.191,26.141 1.125,34.41 -0.457,3.524 -1.836,7.071 -2.149,10.715 -0.816,9.539 2.621,6.254 -1.973,22.75 -1.281,4.606 -4.078,16.117 -6.171,19.485 l -8.309,-2.653 c -1.027,0.594 -2.078,1.918 -2.91,2.781 -0.863,-9.968 1.785,-13.71 5.027,-22.148 2.36,-6.141 5.938,-14.125 7.492,-20.246" /><path
         id="path36"
         style="fill:#fdfdfd;fill-opacity:1;fill-rule:evenodd;stroke:none"
         d="m 538.684,325.766 0.265,-4.563 c 5.957,-1.621 15.012,-2.902 20.766,-0.301 0.25,-3.976 -1.242,-3.621 4.566,-8.91 8.582,-7.801 13.141,-13.703 20.282,-20.332 l -1.594,-4.683 c 4.113,-3.016 7.336,-8.09 10.293,-9.5 2.258,2.453 6.375,5.843 8.312,9.378 l -15.719,15.403 c 2.192,2.855 4.833,5.84 6.368,8.379 l -21.012,16.062 -4.277,-6.328 c -4.227,1.512 -8.278,3.988 -12.164,5.481 -4.2,1.609 -11.204,0.183 -16.086,-0.086" /><path
         id="path38"
         style="fill:#fdfdfd;fill-opacity:1;fill-rule:evenodd;stroke:none"
         d="m 158.172,720.152 c 1.586,-13.773 14.219,-26.422 14.887,-38.504 l -8.895,-2.265 6.617,-13.184 c 3.86,1.051 4.516,2.844 8.625,3.512 l 10.746,-12.438 c 0.145,3.567 1.536,3 0.411,6.133 -0.532,1.469 -2.172,4.532 -2.922,6.188 -3.711,8.199 -13.586,30.683 -14.383,37.543 1.426,1.687 1.855,1.761 3.008,3.019 l -6.055,14.16 -12.039,-4.164" /><path
         id="path40"
         style="fill:#fdfdfd;fill-opacity:1;fill-rule:evenodd;stroke:none"
         d="m 231.605,661.551 c 12.618,4.406 28.297,23.804 35.266,35.789 -1.195,2.89 -2.594,4.285 -3.668,6.84 l -8.922,-0.223 c 2.332,5.137 5.867,7.195 7.539,13.465 -2.953,-1.617 -8.14,-7.586 -10.914,-10.348 -2.16,-2.148 -3.347,-2.707 -4.601,-5.961 l -14.7,-39.562" /><path
         id="path42"
         style="fill:#fdfdfd;fill-opacity:1;fill-rule:evenodd;stroke:none"
         d="m 557.523,290.293 c -1.531,-4.75 -3.085,-2.578 0.7,-7.695 8.812,-11.907 2.84,-5.524 12.23,-7.246 l 3.309,-1.02 c 4.121,-0.437 2.047,-0.91 6.019,-0.602 -3.218,6.344 -7.285,7.379 -11.41,12.032 1.25,2.886 4.391,4.984 6.574,7.539 -2.343,4.691 -16.965,17.25 -21.828,22.566 l -9.64,-0.265 c -0.954,-6.028 11.168,-21.911 14.046,-25.309" /><path
         id="path44"
         style="fill:#e82821;fill-opacity:1;fill-rule:evenodd;stroke:none"
         d="m 390.375,546.578 c -0.137,-8.32 9.281,-19.066 16.184,-20.644 10.273,-2.352 17.839,8.464 18.718,17.629 -2.074,1.738 -4.64,2.695 -7.894,2.968 -7.418,0.625 -3.555,2.274 -8.324,2.895 -4.086,0.535 -15.102,-1.313 -18.684,-2.848" /><path
         id="path46"
         style="fill:#fdfdfd;fill-opacity:1;fill-rule:evenodd;stroke:none"
         d="m 502.09,266.313 4.488,-3.766 13.746,4.785 c 0.188,7.09 -2.359,31.363 -4.898,36.285 -6.008,-4.465 -13.903,-26.383 -13.336,-37.304" /><path
         id="path48"
         style="fill:#fdfdfd;fill-opacity:1;fill-rule:evenodd;stroke:none"
         d="m 144.594,673.371 c 3.156,-10.988 15.136,-20.215 17.32,-24.949 l -4.437,1.246 c 1.929,-4.828 15.664,-9.887 23.414,-10.691 -2.407,8.933 -18.75,9.336 -19.664,21.425 l 4.507,1.395 -9.738,16.933 -11.402,-5.359" /><path
         id="path50"
         style="fill:#fdfdfd;fill-opacity:1;fill-rule:evenodd;stroke:none"
         d="m 394.484,545.07 c 1.192,-9.304 11.356,-15.894 22.196,-13.394 2.972,3.98 3.925,5.687 3.785,11.476 -10.008,-0.304 -17.977,6.676 -25.981,1.918" /><path
         id="path52"
         style="fill:#e82821;fill-opacity:1;fill-rule:evenodd;stroke:none"
         d="m 318.105,218.16 c -0.726,21.844 28.497,94.906 39.364,116.285 3.929,7.731 12.523,17.188 10.203,27.403 -3.891,17.152 -16.461,37.547 -25.102,52.578 -8.629,15.015 -11.535,15.637 -6.707,27.226 -10.363,5.25 -30.906,25.223 -41.613,33.77 -5.926,4.738 -26.727,26.48 -30.18,28.473 l -158.543,0.242 c 2.426,-3.711 90.786,-66.719 94.082,-69.082 l 82.27,-59.457 c 3.824,-2.887 7.855,-5.168 11.113,-8.426 -2.328,-10.094 -19.523,-59.91 -24.238,-74.449 -4.063,-12.512 -8.109,-24.789 -12.274,-37.477 -2.382,-7.273 -11.183,-31.238 -11.66,-37.07 8.676,0 18.653,0.457 27.164,-0.028 4.348,-0.25 7.364,-1.636 9.852,-3.902 3.309,-3.016 2.894,-4.465 5.16,-7.945 2.953,13.961 16.93,11.949 31.109,11.859" /><path
         id="path54"
         style="fill:#e82821;fill-opacity:1;fill-rule:evenodd;stroke:none"
         d="m 538.105,375.977 65.661,48.328 c 7.539,5.293 14.312,10.508 21.882,15.812 14.903,10.446 28.875,21.09 43.766,31.621 l 43.551,32.391 -186.137,-0.371 c 4.488,-5.563 7.981,-7.453 13.695,-14.992 2.762,-3.641 8.758,-13.918 8.504,-19.711 -0.363,-8.317 -10.601,-12.086 -16.672,-6.563 -4.312,3.918 -8.886,10.492 -12.968,15.406 6.871,-16.945 17.988,-34.375 19.058,-55.98 0.535,-10.762 -8.132,-14.469 -15.011,-10.531 -3.907,2.238 -2.594,0.676 -6.774,2.207 -8.156,2.988 -10.508,15.867 -12.84,20.312 l -2.297,2.871 c -1.671,-4.984 -6.757,-9.523 -13.906,-6.187 -7.301,3.406 -12.523,11.789 -25.34,18.375 -3.64,1.871 -11.422,5.047 -15.558,6.094 1.086,-6.739 0.73,-6.774 4.597,-10.274 4.961,-4.488 20.286,-15.441 22.551,-20.441 7.055,-15.551 -0.019,-35.719 -9.875,-41.906 0.668,-5.833 1.438,-5.387 5.383,-7.805 3.02,-1.848 4.609,-3.106 7.629,-5.156 5.199,-3.536 10.148,-6.5 15.559,-10.075 7.437,-4.922 8.585,-6.472 19.16,-4.961 8.617,1.231 10.289,-4.257 11.757,-7.855 1.231,-3.016 0.274,-1.074 2.286,-3.16 2.16,1.605 2.484,2.687 5.566,4.898 l -3.742,3.137 c -0.887,0.687 -2.406,2.125 -3,3.023 -5.543,8.387 2.851,13.508 6.367,16.004 1.535,1.086 2.445,1.825 3.934,2.852 l 3.214,2.637" /><path
         id="path56"
         style="fill:#e82821;fill-opacity:1;fill-rule:evenodd;stroke:none"
         d="m 381.926,640.656 c 6.613,0.371 12.304,0.399 18.922,0.11 8.043,-0.352 9.484,1.214 15.031,-4.52 8.719,-9.016 2.695,-7.398 7.668,-11.187 4.25,-3.239 7.473,-5.121 10.34,-9.075 5.867,1.075 5.465,1.207 10.785,-1.046 -1.27,7.003 -34.453,108.054 -35.531,109.531 l -27.215,-83.813" /><path
         id="path58"
         style="fill:#e82821;fill-opacity:1;fill-rule:evenodd;stroke:none"
         d="m 471.531,532.051 -10.414,31.664 c -1.371,-8.102 -3.316,-14.754 -7.304,-21.867 -1.36,-2.426 -2.825,-3.852 -3.907,-5.805 l 21.625,-3.992" /><path
         id="path60"
         style="fill:#e82821;fill-opacity:1;fill-rule:evenodd;stroke:none"
         d="m 157.535,759.141 4.098,-10.321 12.683,4.442 -3.355,11.058 c -6.82,-0.285 -9.496,-2.168 -13.426,-5.179" /><path
         id="path62"
         style="fill:#2e2b2e;fill-opacity:1;fill-rule:evenodd;stroke:none"
         d="m 533.445,359.633 c 3.434,-3.051 10.278,-6.762 15.977,-7.348 0.605,9.113 -0.387,10.016 -5.352,14.836 -1.968,-0.394 -9.418,-5.453 -10.625,-7.488" /><path
         id="path64"
         style="fill:#fdfdfd;fill-opacity:1;fill-rule:evenodd;stroke:none"
         d="m 541.5,271.738 -0.316,4.844 c 4.414,1.285 7.179,2.008 8.218,6.59 l -6.863,-1.41 -5.082,9.894 -5.144,-0.246 c -0.438,-3.57 1.789,-8.144 2.898,-11.488 1.922,-5.797 2.664,-5.645 6.289,-8.184" /><path
         id="path66"
         style="fill:#e82821;fill-opacity:1;fill-rule:evenodd;stroke:none"
         d="m 110.453,722.301 c 1.371,-1.719 3.844,-3.758 5.586,-5.121 2.32,2.187 6.902,8.179 8.305,11.367 l -5.086,3.812 c -1.836,1.368 -0.008,0.364 -1.844,1.164 l -6.961,-11.222" /><path
         id="path68"
         style="fill:#e82821;fill-opacity:1;fill-rule:evenodd;stroke:none"
         d="m 632.133,290.746 9.457,-3.16 0.351,13.25 -5.043,2.613 -4.765,-12.703" /><path
         id="path70"
         style="fill:#333333;fill-opacity:1;fill-rule:evenodd;stroke:none"
         d="m 244.816,218.172 c 0.477,5.836 9.278,29.801 11.661,37.07 4.168,12.692 8.214,24.965 12.277,37.481 4.715,14.535 21.902,64.355 24.234,74.445 -3.258,3.262 -7.285,5.539 -11.113,8.426 l -82.266,59.457 c -3.3,2.367 -91.66,65.371 -94.086,69.082 l 158.543,-0.242 c -4.972,2.297 -9.48,5.437 -13.316,8.668 -2.387,2.011 -3.852,3.019 -5.902,5.406 -1.778,2.07 -3.18,4.121 -5.317,5.879 l -196.7458,0.121 c 8.5078,-7.41 56.8359,-41 70.3128,-51.055 l 71.289,-51.582 c 2.394,-1.762 4.582,-3.332 7.047,-5.012 l 78.246,-56.687 c -2.137,-4.453 -4.149,-12.141 -5.754,-17.606 L 229.262,236.477 c -2.071,-6.204 -4.074,-11.414 -5.559,-17.809 71.035,-50.395 481.922,-0.496 21.113,-0.496" /><path
         id="path72"
         style="fill:#2e2b2e;fill-opacity:1;fill-rule:evenodd;stroke:none"
         d="M 350.832,200.129 84.1836,187.02 54.0352,141.793 V 79.6055 l 308.1168,40.5155 215.653,-0.144 -22.489,83.062 -204.484,-2.91" /><path
         id="path74"
         style="fill:none;stroke:#231f20;stroke-width:5.66930008;stroke-linecap:butt;stroke-linejoin:miter;stroke-miterlimit:22.92560005;stroke-dasharray:none;stroke-opacity:1"
         d="M 350.832,200.129 84.1836,187.02 54.0352,141.793 V 79.6055 l 308.1168,40.5155 215.653,-0.144 -22.489,83.062 z" /><path
         id="path76"
         style="fill:#fdfdfd;fill-opacity:1;fill-rule:evenodd;stroke:none"
         d="m 440.23,243.508 c 1.219,-3.231 8.567,-11.688 11.196,-14.969 9.387,-11.719 6.504,-10.367 15.664,-10.367 -2.227,4.156 -8.043,10.832 -11.211,14.836 l -12.066,14.715 -3.583,-4.215" /><path
         id="path78"
         style="fill:#e82821;fill-opacity:1;fill-rule:evenodd;stroke:none"
         d="m 600.191,251.367 c 1.461,-1.859 1.821,-2.383 3.766,-4.457 3.309,-3.527 1.293,-2.734 4.453,-4.25 l 7.695,9.934 -6.191,7.527 c -4.105,-1.887 -6.359,-5.859 -9.723,-8.754" /><path
         id="path80"
         style="fill:#2e2b2e;fill-opacity:1;fill-rule:evenodd;stroke:none"
         d="m 157.543,158.633 10.937,0.644 0.149,12.25 -11.047,-0.472 -0.039,-12.422" /><path
         id="path82"
         style="fill:#ffffff;fill-opacity:1;fill-rule:nonzero;stroke:none"
         d="m 94.4961,155.828 c -6.7031,-0.683 -13.3359,-1.383 -19.9688,-2.148 0,6.398 0,12.797 0,19.191 -0.7968,1.582 -1.6015,3.164 -2.3281,4.774 -3.5742,-0.247 -7.1406,-0.489 -10.6406,-0.731 -0.8008,-1.758 -1.6055,-3.504 -2.4023,-5.262 0,-12.683 0,-25.351 0,-38.015 0,-12.668 0,-25.336 0,-38.0198 0.7968,-1.4492 1.6015,-2.8984 2.4023,-4.3477 3.5,0.8164 7.0664,1.6602 10.6406,2.4922 0.7266,1.7578 1.5313,3.5352 2.3281,5.3086 0,6.0897 0,12.1757 0,18.2697 6.6329,1.234 13.2657,2.375 19.9688,3.465 0,-10.614 0,-21.2308 0,-31.848 C 90.6289,80.2656 86.7695,71.4531 82.9102,62.5195 72.1992,59.293 61.4844,56.0547 50.7734,52.8125 c -3.8593,7.3594 -7.7226,14.8359 -11.582,22.4688 0,18.4492 0,36.8947 0,55.3397 0,18.449 0,36.899 0,55.359 3.8594,8.825 7.7227,17.551 11.582,26.168 10.711,0 21.4258,0 32.1368,0 3.8593,-7.964 7.7187,-15.781 11.5859,-23.515 0,-10.938 0,-21.879 0,-32.805 z m 44.0119,-48.601 c 0,7.472 0,14.945 0,22.453 -4.738,-0.637 -9.477,-1.289 -14.211,-2.004 0,-7.684 0,-15.336 0,-23.004 1.457,0.289 2.914,0.586 4.371,0.859 0,-10.3552 0,-20.7068 0,-31.0466 -9.621,-2.4922 -19.234,-4.9961 -28.7813,-7.4883 0,10.9062 0,21.8164 0,32.7422 1.4573,0.2927 2.9143,0.5707 4.3713,0.8787 0,13.156 0,26.344 0,39.5 0,13.172 0,26.34 0,39.512 -1.457,-0.082 -2.914,-0.16 -4.3713,-0.258 0,10.922 0,21.832 0,32.777 9.5473,0 19.1603,0 28.7813,0 0,-10.375 0,-20.726 0,-31.082 -1.457,-0.086 -2.914,-0.168 -4.371,-0.246 0,-6.351 0,-12.668 0,-19.004 4.734,0.446 9.473,0.817 14.211,1.192 0,6.187 0,12.355 0,18.543 -1.461,-0.063 -2.918,-0.145 -4.375,-0.211 0,10.258 0,20.515 0,30.808 9.543,0 19.16,0 28.781,0 0,-9.804 0,-19.589 0,-29.375 -1.457,-0.062 -2.914,-0.148 -4.375,-0.21 0,-12 0,-23.985 0,-35.965 0,-11.969 0,-23.969 0,-35.953 1.461,0.246 2.918,0.507 4.375,0.75 0,-9.786 0,-19.5708 0,-29.3403 -9.621,-2.1172 -19.238,-4.2461 -28.781,-6.3477 0,10.2539 0,20.5157 0,30.773 1.457,0.239 2.914,0.489 4.375,0.747 z m 53.769,8.582 c 4.227,0.582 8.457,1.171 12.754,1.769 0,1.613 0,3.227 0,4.856 5.461,0.714 10.93,1.453 16.465,2.07 0,-5.277 0,-10.551 0,-15.828 0,-5.274 0,-10.551 0,-15.8088 -17.922,-3.0781 -35.773,-6.3008 -53.625,-9.7227 0,9.6875 0,19.3945 0,29.0975 1.457,0.242 2.914,0.504 4.371,0.75 0,11.707 0,23.426 0,35.117 0,11.707 0,23.414 0,35.137 -1.457,-0.082 -2.914,-0.148 -4.371,-0.226 0,9.699 0,19.402 0,29.128 17.852,0 35.703,0 53.625,0 0,-5.281 0,-10.539 0,-15.781 0,-5.242 0,-10.5 0,-15.742 -5.535,-0.23 -11.004,-0.488 -16.465,-0.75 0,1.563 0,3.125 0,4.703 -4.297,-0.176 -8.527,-0.34 -12.754,-0.519 0,-6.676 0,-13.348 0,-20.012 0.95,0.066 1.895,0.133 2.918,0.195 0,1.598 0,3.176 0,4.758 5.461,0.355 10.93,0.699 16.391,1.039 0,-6.133 0,-12.242 0,-18.363 0,-6.121 0,-12.242 0,-18.367 -5.461,-0.633 -10.93,-1.27 -16.391,-1.922 0,1.633 0,3.273 0,4.902 -1.023,-0.113 -1.968,-0.211 -2.918,-0.309 0,-6.742 0,-13.449 0,-20.171 z m 58.512,7.129 c 4.227,0.457 8.453,0.929 12.75,1.351 0,1.496 0,2.996 0,4.512 5.465,0.39 10.934,0.797 16.469,1.203 0,-4.949 0,-9.899 0,-14.828 0,-4.953 0,-9.887 0,-14.821 -17.926,-1.8081 -35.778,-4.312 -53.629,-6.8042 0,8.9062 0,17.8282 0,26.7502 1.457,0.144 2.914,0.308 4.371,0.457 0,10.793 0,21.59 0,32.367 0,10.793 0,21.586 0,32.383 -1.457,-0.051 -2.914,-0.098 -4.371,-0.129 0,8.906 0,17.828 0,26.769 17.851,0 35.703,0 53.629,0 0,-4.937 0,-9.871 0,-14.785 0,-4.918 0,-9.836 0,-14.754 -5.535,-0.144 -11.004,-0.293 -16.469,-0.437 0,1.445 0,2.894 0,4.363 -4.297,-0.133 -8.523,-0.262 -12.75,-0.39 0,-6.188 0,-12.36 0,-18.532 0.949,0.051 1.969,0.102 2.988,0.164 0,1.469 0,2.934 0,4.395 5.391,0.262 10.856,0.504 16.321,0.699 0,-5.715 0,-11.426 0,-17.125 0,-5.715 0,-11.41 0,-17.129 -5.465,-0.359 -10.93,-0.797 -16.321,-1.285 0,1.516 0,3.027 0,4.543 -1.019,-0.098 -2.039,-0.18 -2.988,-0.262 0,-6.238 0,-12.457 0,-18.675 z m 58.512,4.851 c 1.453,0.066 2.91,0.133 4.371,0.199 0,-8.175 0,-16.347 0,-24.504 -9.621,-0.718 -19.238,-1.695 -28.781,-2.64 0,8.367 0,16.734 0,25.105 1.457,0.114 2.914,0.227 4.371,0.344 0,10.125 0,20.27 0,30.398 0,10.145 0,20.286 0,30.43 -1.457,-0.031 -2.914,-0.066 -4.371,-0.098 0,8.368 0,16.735 0,25.125 15.007,0 30.093,0 45.175,0 3.864,-5.75 7.723,-11.484 11.586,-17.179 0,-4.559 0,-9.102 0,-13.645 0,-4.558 0,-9.101 0,-13.644 -1.601,-2.391 -3.207,-4.789 -4.808,-7.18 1.601,-2.277 3.207,-4.543 4.808,-6.809 0,-8.136 0,-16.261 0,-24.386 1.457,0.066 2.918,0.129 4.371,0.211 0,-8.028 0,-16.051 0,-24.063 -8.16,-0.504 -16.32,-0.996 -24.41,-1.48 0,6.691 0,13.398 0,20.109 0,6.703 0,13.41 0,20.137 -0.8,1.14 -1.601,2.281 -2.332,3.418 -3.351,-0.129 -6.703,-0.242 -9.98,-0.36 0,-6.511 0,-13.007 0,-19.488 z m 0,44.074 c 3.277,0.067 6.629,0.149 9.98,0.211 0.731,1.172 1.532,2.364 2.332,3.535 0,2.883 0,5.746 0,8.614 -0.8,1.156 -1.601,2.312 -2.332,3.468 -3.351,-0.05 -6.703,-0.097 -9.98,-0.132 0,-5.243 0,-10.469 0,-15.696 z m 65.941,16.395 c 0,-9.684 0,-19.371 0,-29.047 0,-9.668 0,-19.34 0,-29.012 4.371,0.067 8.742,0.133 13.117,0.215 0,2.098 0,4.215 0,6.332 5.461,0.082 10.93,0.16 16.391,0.082 0,-5.031 0,-10.047 0,-15.078 0,-5.016 0,-10.031 0,-15.043 -17.992,-0.129 -35.992,-0.504 -53.918,-0.98 0,8 0,16.007 0,24 1.457,0.066 2.914,0.117 4.371,0.128 0,9.708 0,19.426 0,29.149 0,9.703 0,19.422 0,29.16 -1.457,-0.019 -2.914,-0.035 -4.371,-0.051 0,8.012 0,16.008 0,24.035 9.543,0 19.16,0 28.781,0 0,-7.964 0,-15.925 0,-23.871 -1.457,0 -2.91,-0.019 -4.371,-0.019 z m 57.711,-58.188 c 4.223,-0.05 8.449,-0.113 12.75,-0.226 0,1.398 0,2.801 0,4.215 5.465,-0.246 10.93,-0.473 16.465,-0.7 0,-4.754 0,-9.492 0,-14.23 0,-4.738 0,-9.477 0,-14.215 -17.922,1.043 -35.777,1.383 -53.625,1.727 0,7.929 0,15.859 0,23.785 1.457,-0.012 2.914,-0.047 4.371,-0.047 0,9.637 0,19.312 0,28.949 0,9.656 0,19.309 0,28.981 -1.457,0 -2.914,0.015 -4.371,0.015 0,7.93 0,15.875 0,23.824 17.848,0 35.703,0 53.625,0 0,-4.742 0,-9.464 0,-14.183 0,-4.723 0,-9.445 0,-14.168 -5.535,0.101 -11,0.183 -16.465,0.262 0,1.371 0,2.718 0,4.086 -4.301,0.035 -8.527,0.066 -12.75,0.066 0,-5.684 0,-11.363 0,-17.047 0.945,-0.016 1.891,-0.016 2.91,-0.016 0,1.352 0,2.719 0,4.071 5.469,-0.031 10.934,-0.117 16.399,-0.231 0,-5.402 0,-10.793 0,-16.199 0,-5.387 0,-10.793 0,-16.184 -5.465,0.211 -10.93,0.344 -16.399,0.407 0,1.402 0,2.801 0,4.203 -1.019,0.015 -1.965,0.015 -2.91,0.031 0,-5.73 0,-11.461 0,-17.176 z m 90.059,82.078 c 0,-8.457 0,-16.871 0,-25.304 -1.239,0.031 -2.481,0.062 -3.645,0.082 2.625,-10.309 5.324,-20.645 7.946,-31.051 2.625,-10.418 5.316,-20.902 8.011,-31.422 1.457,-0.144 2.918,-0.312 4.375,-0.453 0,-8.57 0,-17.133 0,-25.6797 -9.328,1.0586 -18.656,1.9727 -27.98,2.8677 0,8.332 0,16.671 0,25.023 0.801,-0.063 1.601,-0.113 2.402,-0.176 -0.363,1.672 -0.726,3.336 -1.09,5.012 -6.484,0.473 -12.898,0.926 -19.308,1.367 -0.438,-1.578 -0.805,-3.176 -1.164,-4.769 0.796,-0.051 1.601,-0.114 2.402,-0.18 0,-8.223 0,-16.445 0,-24.652 -9.328,0.75 -18.656,1.269 -27.91,1.828 0,8.074 0,16.164 0,24.242 1.457,-0.067 2.914,-0.133 4.375,-0.195 2.621,9.75 5.32,19.519 7.941,29.324 2.625,9.828 5.317,19.695 8.016,29.597 -1.094,0.016 -2.113,0.032 -3.133,0.032 0,8.156 0,16.332 0,24.507 12.895,0 25.793,0 38.762,0 z m -24.336,-59.007 c 3.058,-0.161 6.191,-0.328 9.324,-0.489 -1.602,5.911 -3.133,11.805 -4.66,17.7 -1.606,-5.766 -3.133,-11.497 -4.664,-17.211 z m 44.742,59.007 c 15.004,0 30.016,0 45.098,0 3.867,-6.515 7.726,-13.093 11.66,-19.738 0,-13.918 0,-27.824 0,-41.746 0,-13.902 0,-27.805 0,-41.726 -3.934,-5.911 -7.793,-11.7583 -11.66,-17.52 -15.082,2.3125 -30.094,4.3633 -45.098,6.3984 0,8.5936 0,17.1916 0,25.7886 1.453,-0.164 2.91,-0.308 4.367,-0.457 0,10.504 0,21.02 0,31.524 0,10.504 0,21.019 0,31.535 -1.457,0.035 -2.914,0.082 -4.367,0.133 0,8.594 0,17.191 0,25.808 z m 24.406,-91.117 c 3.281,-0.34 6.629,-0.715 9.981,-1.054 0.73,1.168 1.531,2.328 2.332,3.48 0,9.656 0,19.297 0,28.934 0,9.64 0,19.277 0,28.933 -0.801,1.321 -1.602,2.637 -2.332,3.957 -3.352,0.098 -6.7,0.196 -9.981,0.309 0,-10.777 0,-21.543 0,-32.289 0,-10.758 0,-21.524 0,-32.27 z m 66.453,-37.8513 c -9.617,1.9219 -19.234,3.5976 -28.785,5.2734 0,9.3008 0,18.5939 0,27.8909 1.461,-0.196 2.918,-0.391 4.375,-0.582 0,11.375 0,22.758 0,34.14 0,11.364 0,22.762 0,34.141 -1.457,0.066 -2.914,0.113 -4.375,0.18 0,9.297 0,18.593 0,27.925 9.551,0 19.168,0 28.785,0 0,-9.726 0,-19.429 0,-29.117 -1.457,0.067 -2.914,0.133 -4.371,0.215 0,-11.723 0,-23.43 0,-35.137 0,-11.691 0,-23.41 0,-35.117 1.457,-0.246 2.914,-0.488 4.371,-0.734 0,-9.688 0,-19.3908 0,-29.0783 z m 49.036,-10.8281 c -3.274,11.2031 -6.61,22.3007 -9.836,33.1794 -3.184,10.742 -6.559,21.383 -9.762,31.914 0,-10.027 0,-20.043 0,-30.039 1.457,-0.242 2.914,-0.492 4.371,-0.734 0,-10.2384 0,-20.4806 0,-30.7032 -9.617,2.0468 -19.234,4.1015 -28.781,6.1367 0,9.7695 0,19.5545 0,29.3245 1.457,-0.231 2.914,-0.473 4.371,-0.719 0,11.965 0,23.949 0,35.934 0,11.968 0,23.949 0,35.933 -1.457,0.067 -2.914,0.145 -4.371,0.211 0,9.77 0,19.555 0,29.359 7.867,0 15.738,0 23.683,0 3.274,-10.406 6.719,-20.882 9.981,-31.492 3.293,-10.703 6.703,-21.59 10.054,-32.593 0,10.839 0,21.687 0,32.546 -1.457,0.079 -2.914,0.161 -4.371,0.243 0,10.421 0,20.839 0,31.296 9.543,0 19.164,0 28.782,0 0,-10.996 0,-21.968 0,-32.921 -1.457,0.078 -2.914,0.16 -4.371,0.242 0,-13.239 0,-26.489 0,-39.711 0,-13.238 0,-26.477 0,-39.711 1.457,-0.2931 2.914,-0.5704 4.371,-0.8634 0,-10.957 0,-21.9336 0,-32.8867 -8.086,2.0351 -16.106,4.0547 -24.121,6.0547 z M 767.84,139.82 c 0,-10.757 0,-21.523 0,-32.265 0,-10.7464 0,-21.4925 0,-32.2386 -3.938,-7.6562 -7.797,-15.1914 -11.66,-22.5976 -10.711,3.0898 -21.422,6.1835 -32.133,9.2617 -3.863,9.0195 -7.723,17.7929 -11.586,26.4922 0,16.6683 0,33.3243 0,50.0003 0,16.672 0,33.343 0,50.015 3.863,7.782 7.723,15.66 11.586,23.66 10.711,0 21.422,0 32.133,0 3.863,-8.597 7.722,-17.293 11.66,-26.101 0,-12.102 0,-24.18 0,-36.262 -6.707,0.735 -13.406,1.485 -20.043,2.215 0,6.531 0,13.074 0,19.621 -0.797,1.742 -1.602,3.5 -2.328,5.227 -3.571,0.242 -7.141,0.468 -10.641,0.699 -0.801,-1.613 -1.601,-3.211 -2.402,-4.805 0,-12.34 0,-24.664 0,-36.992 0,-12.32 0,-24.648 0,-36.9727 0.801,-1.789 1.601,-3.5507 2.402,-5.3242 3.5,-0.7812 7.07,-1.5976 10.641,-2.3789 0.726,1.4688 1.531,2.9141 2.328,4.3828 0,4.898 0,9.801 0,14.703 -1.891,0.356 -3.715,0.695 -5.531,1.039 0,10.633 0,21.262 0,31.914 8.519,-1.109 17.047,-2.199 25.574,-3.293" /><path
         id="path84"
         style="fill:#333333;fill-opacity:1;fill-rule:evenodd;stroke:none"
         d="M 60.5703,25.0117 C 59.582,24.7148 58.5938,24.4727 57.6016,24.2813 44.1992,21.0625 30.4922,27.6563 24.4922,39.7656 19.7852,48.75 15.8125,56.3945 12.9531,62.0508 10.8125,66.3008 9.79688,70.8242 9.80078,75.2852 H 9.73438 V 185.98 c 0,5.024 1.25782,9.754 3.47262,13.891 3.2891,7.492 6.8633,15.555 10.7578,24.242 4.8672,10.91 15.586,17.391 26.8086,17.399 v 0.09 c 235.5076,0 470.8786,0 705.4066,0 12.84,0 23.758,-8.215 27.793,-19.676 l 10.675,-23.914 c 1.739,-3.891 2.559,-7.957 2.555,-11.965 h 0.094 v -36.262 c 0,-1.812 -0.168,-3.59 -0.481,-5.316 0.243,-1.52 0.372,-3.071 0.368,-4.649 h 0.113 V 75.3125 c 0,-5.6055 -1.567,-10.8437 -4.285,-15.2969 L 782.305,39.1406 C 775.355,25.7734 759.59,19.9766 745.84,25.1523 706.977,36.375 672.969,44.8594 633.207,53.3359 c -0.773,0.1641 -1.523,0.3555 -2.266,0.5743 -54.726,6.1992 -104.324,17.7421 -161.964,21.1679 l -3.653,0.2188 -1.98,0.1875 -1.176,-0.0274 c -1.277,0 -2.535,0.0782 -3.766,0.2383 -17.488,0.9649 -33.679,1.2852 -49.855,1.5977 v -0.1133 c -0.817,0 -1.629,0.0391 -2.43,0.1055 L 404.75,77.25 c -0.801,0 -1.602,0.0352 -2.387,0.0938 -7.828,-0.0586 -15.898,-0.1836 -24.136,-0.3399 -8.399,-0.1562 -17.391,-0.375 -26.704,-0.6133 l -0.73,-0.0078 c -1.551,-0.2539 -3.145,-0.3867 -4.77,-0.3867 -6.832,0.1211 -15.543,-0.9375 -22.683,-1.3672 -1.235,-0.0742 -2.457,-0.0664 -3.652,0.0117 -1.7,-0.3515 -3.446,-0.5586 -5.231,-0.6054 -9.941,-0.7539 -17.113,-1.4688 -24.219,-2.1719 l -2.472,-0.2461 -1.844,-0.1211 c -1.68,-0.3438 -3.41,-0.543 -5.188,-0.5859 -15.754,-1.6446 -32.488,-3.9805 -49.211,-6.3164 l -3.074,-0.3594 c -1.144,-0.2774 -2.316,-0.4883 -3.515,-0.625 C 211.719,61.3438 203.309,59.8789 199.836,59.25 152.531,50.7109 106.77,38.9844 60.5703,25.0117 Z M 94.4961,120.805 V 88.957 C 90.6289,80.2617 86.7695,71.4531 82.9102,62.5195 l -32.1368,-9.707 c -3.8593,7.3594 -7.7226,14.832 -11.582,22.4727 V 185.98 c 3.8594,8.825 7.7227,17.551 11.582,26.165 h 32.1368 c 3.8593,-7.961 7.7187,-15.778 11.5859,-23.512 V 155.824 C 87.793,155.145 81.1563,154.445 74.5273,153.68 v 19.195 c -0.7968,1.578 -1.6015,3.156 -2.3281,4.77 l -10.6406,-0.731 -2.4023,-5.262 V 95.6211 l 2.4023,-4.3516 10.6406,2.4922 c 0.7266,1.7578 1.5313,3.5352 2.3281,5.3047 V 117.34 c 6.629,1.234 13.2657,2.371 19.9688,3.465 z m 44.0079,-13.578 v 22.453 c -4.734,-0.633 -9.473,-1.289 -14.207,-2.004 v -23.004 l 4.371,0.859 V 74.4844 L 99.8867,66.9961 v 32.7422 l 4.3713,0.8787 v 79.012 l -4.3713,-0.254 v 32.77 h 28.7813 v -31.082 l -4.371,-0.243 v -19.004 c 4.734,0.446 9.473,0.817 14.207,1.188 v 18.547 l -4.371,-0.211 v 30.805 h 28.781 v -29.372 l -4.371,-0.21 v -71.918 l 4.371,0.746 V 82.0547 L 134.133,75.707 v 30.773 z m 53.773,8.582 12.754,1.773 v 4.856 c 5.461,0.71 10.93,1.449 16.469,2.066 V 92.8633 c -17.926,-3.0742 -35.777,-6.2969 -53.629,-9.7188 v 29.0935 l 4.367,0.754 v 70.254 l -4.367,-0.226 v 29.125 H 221.5 v -31.52 c -5.539,-0.23 -11.008,-0.488 -16.469,-0.75 v 4.703 l -12.754,-0.515 v -20.016 l 2.918,0.195 V 169 l 16.391,1.039 v -36.73 l -16.391,-1.922 v 4.902 l -2.918,-0.309 z m 58.512,7.129 c 4.227,0.457 8.453,0.925 12.75,1.351 v 4.512 l 16.469,1.203 V 100.355 C 262.082,98.5469 244.23,96.043 226.379,93.5508 v 26.7462 l 4.375,0.457 v 64.754 l -4.375,-0.129 v 26.766 h 53.629 v -29.536 l -16.469,-0.437 v 4.363 l -12.75,-0.39 v -18.532 l 2.988,0.164 v 4.399 c 5.391,0.262 10.856,0.5 16.321,0.699 v -34.258 c -5.465,-0.359 -10.93,-0.797 -16.321,-1.285 v 4.543 l -2.988,-0.262 z m 58.512,4.851 4.371,0.199 V 103.48 c -9.621,-0.714 -19.238,-1.691 -28.777,-2.636 v 25.105 l 4.367,0.34 v 60.832 l -4.367,-0.098 v 25.122 h 45.171 l 11.582,-17.18 V 167.68 l -4.804,-7.18 4.804,-6.805 v -24.39 l 4.375,0.211 v -24.063 l -24.41,-1.48 v 40.246 c -0.8,1.136 -1.605,2.281 -2.332,3.418 l -9.98,-0.36 z m 0,44.078 9.98,0.207 c 0.727,1.172 1.532,2.364 2.332,3.535 v 8.614 c -0.8,1.156 -1.605,2.312 -2.332,3.468 l -9.98,-0.132 z m 65.941,16.391 v -58.055 l 13.117,0.211 v 6.332 c 5.461,0.082 10.93,0.16 16.391,0.082 v -30.125 c -17.992,-0.125 -35.996,-0.5 -53.918,-0.973 v 23.997 c 1.457,0.066 2.918,0.113 4.371,0.128 v 58.309 l -4.371,-0.051 v 24.032 h 28.781 v -23.864 z m 33.301,-81.617 v 23.785 l 4.367,-0.043 v 57.926 l -4.367,0.015 v 23.821 h 53.625 v -28.348 l -16.465,0.266 v 4.082 l -12.754,0.066 v -17.047 l 2.914,-0.016 v 4.071 c 5.469,-0.031 10.93,-0.117 16.395,-0.231 v -32.383 c -5.465,0.211 -10.926,0.344 -16.395,0.407 v 4.203 l -2.914,0.031 v -17.172 c 4.227,-0.054 8.453,-0.121 12.754,-0.234 v 4.219 l 16.465,-0.7 v -28.445 c -17.918,1.043 -35.777,1.383 -53.625,1.727 z m 114.469,105.504 v -25.301 l -3.645,0.082 c 2.625,-10.309 5.321,-20.645 7.946,-31.047 2.621,-10.422 5.32,-20.906 8.015,-31.426 l 4.371,-0.457 V 98.3203 c -9.328,1.0586 -18.656,1.9727 -27.98,2.8677 v 25.023 l 2.402,-0.176 -1.09,5.008 -19.312,1.371 c -0.438,-1.578 -0.801,-3.172 -1.16,-4.769 l 2.402,-0.176 v -24.653 c -9.328,0.747 -18.656,1.266 -27.91,1.821 v 24.246 l 4.375,-0.199 c 2.621,9.754 5.32,19.523 7.937,29.328 2.629,9.828 5.325,19.695 8.02,29.593 l -3.133,0.032 v 24.508 z m -24.34,-59.004 9.328,-0.489 c -1.602,5.907 -3.133,11.801 -4.664,17.7 -1.598,-5.766 -3.133,-11.497 -4.664,-17.211 z m 44.746,59.004 h 45.098 l 11.66,-19.735 v -83.472 l -11.66,-17.52 c -15.082,2.3125 -30.094,4.3633 -45.098,6.3984 v 25.7886 l 4.367,-0.457 v 63.063 l -4.367,0.125 z m 24.406,-91.114 9.981,-1.054 c 0.73,1.168 1.531,2.328 2.332,3.484 v 57.863 c -0.801,1.317 -1.602,2.637 -2.332,3.957 l -9.981,0.309 z m 66.453,-37.8513 c -9.621,1.918 -19.238,3.5976 -28.785,5.2734 v 27.8909 l 4.375,-0.582 v 68.281 l -4.375,0.18 v 27.922 h 28.785 v -29.11 l -4.371,0.211 v -70.254 l 4.371,-0.734 z m 49.036,-10.8281 c -3.278,11.2031 -6.61,22.3007 -9.836,33.1794 -3.184,10.742 -6.559,21.383 -9.762,31.914 v -30.039 l 4.371,-0.734 V 75.9688 l -28.785,6.1367 V 111.43 l 4.379,-0.723 v 71.871 l -4.379,0.215 v 29.352 h 23.683 c 3.278,-10.403 6.723,-20.879 9.985,-31.489 3.293,-10.703 6.703,-21.59 10.051,-32.597 v 32.546 l -4.368,0.247 v 31.293 h 28.782 v -32.918 l -4.371,0.242 v -79.422 l 4.371,-0.8634 V 66.2969 Z m 40.73,-10.375 c -3.859,9.0195 -7.719,17.8007 -11.582,26.4961 V 188.488 c 3.863,7.782 7.723,15.664 11.582,23.657 h 32.137 l 11.656,-26.098 V 149.785 L 747.797,152 v 19.617 c -0.797,1.742 -1.602,3.508 -2.328,5.231 l -10.641,0.699 -2.402,-4.801 V 98.7734 l 2.402,-5.3203 10.641,-2.3789 c 0.726,1.4688 1.531,2.9141 2.328,4.3828 v 14.699 l -5.531,1.043 v 31.914 l 25.57,-3.293 V 75.3125 C 763.902,67.6602 760.043,60.125 756.18,52.7148 l -32.137,9.2618" /><path
         id="path86"
         style="fill:#e82821;fill-opacity:1;fill-rule:evenodd;stroke:none"
         d="m 268.41,51.2617 5.289,-16.2773 h 17.114 L 276.965,24.9219 282.25,8.64844 268.41,18.707 254.563,8.64844 259.852,24.9219 246.004,34.9844 h 17.121 l 5.285,16.2773" /><path
         id="path88"
         style="fill:#e82821;fill-opacity:1;fill-rule:evenodd;stroke:none"
         d="m 533.656,54.5586 5.285,-16.2773 h 17.114 L 542.211,28.2227 547.5,11.9453 533.656,22.0039 519.809,11.9453 525.098,28.2227 511.25,38.2813 h 17.113 l 5.293,16.2773" /><path
         id="path90"
         style="fill:#be994e;fill-opacity:1;fill-rule:nonzero;stroke:none"
         d="m 322.031,39.1953 h 10.817 v 4.4258 h -26.75 v -4.4258 h 10.816 V 6.32031 h 5.117 V 39.1953" /><path
         id="path92"
         style="fill:#be994e;fill-opacity:1;fill-rule:nonzero;stroke:none"
         d="m 359.434,39.1953 v 4.4258 H 338.332 V 6.32031 h 23.18 v 4.42189 h -18.063 v 13.3242 h 13.535 v 4.4219 h -13.535 v 10.707 h 15.985" /><path
         id="path94"
         style="fill:#be994e;fill-opacity:1;fill-rule:nonzero;stroke:none"
         d="m 373.875,16.4453 h 16.945 l 3.676,-10.12499 h 5.649 L 384.641,43.6211 h -4.582 L 364.551,6.32031 h 5.648 z m 14.918,4.4219 h -12.895 l 6.45,16.3047 6.445,-16.3047" /><path
         id="path96"
         style="fill:#be994e;fill-opacity:1;fill-rule:nonzero;stroke:none"
         d="m 420.18,13.3516 h 3.414 l 9.375,23.6601 V 6.32031 h 5.117 V 43.6211 h -7.035 l -9.113,-23.0742 -9.219,23.0742 h -7.082 V 6.32031 h 5.109 V 37.0117 l 9.434,-23.6601" /></g></g></svg>