<?xml version="1.0" encoding="UTF-8" standalone="no"?>
<svg
   xmlns:dc="http://purl.org/dc/elements/1.1/"
   xmlns:cc="http://creativecommons.org/ns#"
   xmlns:rdf="http://www.w3.org/1999/02/22-rdf-syntax-ns#"
   xmlns:svg="http://www.w3.org/2000/svg"
   xmlns="http://www.w3.org/2000/svg"
   viewBox="0 0 177.33333 169.33333"
   height="169.33333"
   width="177.33333"
   xml:space="preserve"
   id="svg2"
   version="1.1"><metadata
     id="metadata8"><rdf:RDF><cc:Work
         rdf:about=""><dc:format>image/svg+xml</dc:format><dc:type
           rdf:resource="http://purl.org/dc/dcmitype/StillImage" /></cc:Work></rdf:RDF></metadata><defs
     id="defs6" /><g
     transform="matrix(1.3333333,0,0,-1.3333333,0,169.33333)"
     id="g10"><g
       transform="scale(0.1)"
       id="g12"><path
         id="path14"
         style="fill:#fbc120;fill-opacity:1;fill-rule:nonzero;stroke:none"
         d="m 1201.63,1103.97 c 7.16,46.15 -223.189,160.59 -533.739,160.56 -308.981,0.03 -543.836,-105.5 -536.039,-159.57 h -0.227 c 7.957,-69.6 23.273,-165.815 25.992,-332.433 4.293,-166.578 -4.035,-329.05 -7.363,-381.742 C 134.652,233.852 550.117,34.5313 667.754,9.25781 805.195,39.0781 1196.67,236.688 1181.66,390.625 c -3.46,52.301 -12.07,212.836 -7.79,378.195 2.62,165.336 18.39,260.97 27.4,332.98 0.11,0.72 0.25,1.45 0.36,2.17" /><path
         id="path16"
         style="fill:#f4f4f4;fill-opacity:1;fill-rule:nonzero;stroke:none"
         d="M 667.824,63.4023 C 607.738,79.5 487.754,132.531 386.867,195.367 245.824,283.152 199.223,351.184 202.637,385.574 c 0,0 0.554,7.614 0.91,12.332 17.148,227.102 12.465,456.301 -13.535,663.184 0.492,1.66 0.636,3.41 0.386,5.16 l -4.492,32.25 c 46.25,33.5 213.074,113.39 481.805,113.39 255.141,0 439.679,-79.34 479.769,-115.41 l -0.44,-3.32 c -0.73,-5.33 -1.47,-10.8 -2.12,-16.43 -26.97,-223.703 -32.8,-465.582 -16.43,-681.062 l 0.77,-10.063 C 1132.61,351.223 1088.21,283.891 953.52,197.766 849.305,131.113 731.879,80.1523 667.824,63.4023" /><path
         id="path18"
         style="fill:#5d1018;fill-opacity:1;fill-rule:nonzero;stroke:none"
         d="m 667.711,1224.14 c -273.676,0 -449.137,-82.79 -494.934,-120.26 l 5.485,-39.32 h -1.039 c 43.449,-340.622 15.402,-643.779 13.328,-676.326 l -0.11,-1.445 C 185.547,337.5 256.551,262.043 380.387,184.965 485.234,119.672 607.523,66.1563 667.793,50.7383 732.055,66.8594 852.285,118.477 960.141,187.441 1078.46,263.105 1146.25,337.609 1141.49,386.707 l -0.14,1.238 c -2.13,32.039 -28.63,319.172 15.74,687.325 1.07,8.91 2.29,17.42 3.32,25.6 -29.87,33.29 -215.496,123.27 -492.699,123.27 z m 0,-24.51 c 256.773,0 425.049,-77.28 466.689,-108.38 -0.54,-4.26 -1.14,-8.62 -1.66,-13.04 -27.04,-224.491 -32.9,-467.214 -16.45,-683.464 0.28,-3.707 0.49,-6.527 0.63,-8.43 l 0.03,-0.574 0.13,-1.41 C 1120.16,352.734 1068.73,285.988 946.934,208.086 845.434,143.184 731.586,93.3906 667.863,76.0977 607.746,92.9023 491.559,144.598 393.348,205.773 265.672,285.25 211.695,352.734 214.832,384.371 l 0.051,0.527 0.133,1.782 c 0.132,2.187 0.398,5.648 0.75,10.297 17.156,227.152 12.543,456.398 -13.325,663.553 0.403,2.43 0.442,4.92 0.102,7.41 l -3.461,24.8 c 51.992,34.58 213.191,106.89 468.629,106.89" /><path
         id="path20"
         style="fill:#5d1018;fill-opacity:1;fill-rule:nonzero;stroke:none"
         d="m 1160.34,1101.36 c -1.07,-8.2 -2.29,-16.67 -3.36,-25.62 -8.58,-71.12 -14.49,-139.236 -18.46,-203.076 -20.86,13.387 -53.77,29.711 -97.41,45.5 -30.34,10.965 -65.856,21.711 -105.946,31.051 -34.875,8.129 -73.25,15.148 -114.769,20.297 -36.965,4.648 -76.446,7.773 -118.149,8.937 -11.402,0.305 -22.914,0.457 -34.637,0.457 -32.367,0 -63.359,-1.16 -92.902,-3.289 C 526.742,972.25 482.504,966.348 442.27,958.805 384.652,948.098 335.223,934.16 294.633,919.57 c -43.637,-15.605 -77.117,-31.898 -99.676,-45.582 -1.566,25.399 -3.441,51.293 -5.715,77.649 -3.222,37.109 -7.23,74.993 -12.105,113.403 h 1.047 l -5.508,39.35 c 20.648,16.85 67.508,42.91 137.855,66.45 40.141,13.49 88,26.14 142.934,35.79 41.008,7.16 85.953,12.67 134.625,15.61 25.496,1.56 52.019,2.42 79.519,2.42 15.145,0 29.993,-0.26 44.536,-0.75 42.609,-1.52 82.812,-5.11 120.332,-10.21 40.39,-5.45 77.699,-12.67 111.539,-20.85 41.211,-9.95 77.294,-21.41 107.754,-32.93 45.59,-17.31 78.41,-34.83 96.53,-48.15 5.25,-3.85 9.29,-7.38 12.04,-10.41" /><path
         id="path22"
         style="fill:#f4f4f4;fill-opacity:1;fill-rule:nonzero;stroke:none"
         d="m 665.43,1060.31 -52.45,-27.56 10.012,58.42 -42.445,41.37 58.644,8.53 26.239,53.15 26.234,-53.15 58.68,-8.53 -42.453,-41.37 10.004,-58.42 -52.465,27.56" /><path
         id="path24"
         style="fill:#f4f4f4;fill-opacity:1;fill-rule:nonzero;stroke:none"
         d="m 481.602,1043.56 -43.684,-22.95 8.344,48.62 -35.321,34.45 48.825,7.11 21.836,44.22 21.832,-44.22 48.832,-7.11 -35.332,-34.45 8.343,-48.62 -43.675,22.95" /><path
         id="path26"
         style="fill:#f4f4f4;fill-opacity:1;fill-rule:nonzero;stroke:none"
         d="m 282.191,1027.66 -33.558,32.73 46.387,6.73 20.753,42.04 20.735,-42.04 46.394,-6.73 -33.562,-32.73 7.922,-46.183 -41.489,21.803 -41.492,-21.803 7.91,46.183" /><path
         id="path28"
         style="fill:#f4f4f4;fill-opacity:1;fill-rule:nonzero;stroke:none"
         d="m 843.863,1043.56 -43.687,-22.95 8.332,48.62 -35.32,34.45 48.828,7.11 21.847,44.22 21.832,-44.22 48.821,-7.11 -35.332,-34.45 8.343,-48.62 -43.664,22.95" /><path
         id="path30"
         style="fill:#f4f4f4;fill-opacity:1;fill-rule:nonzero;stroke:none"
         d="m 1009.68,1003.28 -41.477,-21.803 7.926,46.183 -33.582,32.73 46.383,6.73 20.75,42.04 20.76,-42.04 46.38,-6.73 -33.58,-32.73 7.93,-46.183 -41.49,21.803" /><path
         id="path32"
         style="fill:#222443;fill-opacity:1;fill-rule:nonzero;stroke:none"
         d="m 665.43,1172.8 19.941,-40.39 44.574,-6.48 -32.246,-31.44 7.606,-44.42 -39.875,20.98 -39.864,-20.98 7.602,44.42 -32.262,31.44 44.594,6.48 19.93,40.39" /><path
         id="path34"
         style="fill:#222443;fill-opacity:1;fill-rule:nonzero;stroke:none"
         d="m 481.602,1133.61 15.546,-31.5 34.739,-5.05 -25.141,-24.51 5.934,-34.61 -31.078,16.33 -31.082,-16.33 5.921,34.61 -25.132,24.51 34.738,5.05 15.555,31.5" /><path
         id="path36"
         style="fill:#222443;fill-opacity:1;fill-rule:nonzero;stroke:none"
         d="m 315.773,1087.74 14.446,-29.28 32.308,-4.69 -23.379,-22.8 5.532,-32.169 -28.907,15.189 -28.91,-15.189 5.535,32.169 -23.39,22.8 32.312,4.69 14.453,29.28" /><path
         id="path38"
         style="fill:#222443;fill-opacity:1;fill-rule:nonzero;stroke:none"
         d="m 843.863,1133.61 -15.554,-31.5 -34.758,-5.05 25.14,-24.51 -5.925,-34.61 31.097,16.33 31.075,-16.33 -5.934,34.61 25.141,24.51 -34.747,5.05 -15.535,31.5" /><path
         id="path40"
         style="fill:#222443;fill-opacity:1;fill-rule:nonzero;stroke:none"
         d="m 1009.68,1087.74 -14.434,-29.28 -32.328,-4.69 23.398,-22.8 -5.531,-32.169 28.895,15.189 28.91,-15.189 -5.54,32.169 23.4,22.8 -32.33,4.69 -14.44,29.28" /><path
         id="path42"
         style="fill:#966e76;fill-opacity:1;fill-rule:nonzero;stroke:none"
         d="m 968.203,981.477 0.52,2.988 c 1.765,-0.328 2.695,-0.516 2.695,-0.516 0,0 0.082,-0.222 0.215,-0.664 l -3.43,-1.808" /><path
         id="path44"
         style="fill:#f4f4f4;fill-opacity:1;fill-rule:nonzero;stroke:none"
         d="m 722.777,913.465 c 5.899,-7.516 4.598,-18.371 -2.933,-24.277 -7.5,-5.868 -18.371,-4.543 -24.258,2.937 l -29.023,37.027 c -5.883,7.524 -4.563,18.375 2.96,24.274 7.5,5.89 18.372,4.562 24.243,-2.942 l 29.011,-37.019" /><path
         id="path46"
         style="fill:#222443;fill-opacity:1;fill-rule:nonzero;stroke:none"
         d="m 485.539,210.613 c -8.828,-1.48 -5.234,17.336 18.391,16.785 -8.422,-11.695 -13.746,-15.992 -18.391,-16.785 z m 75.246,96.391 c 1.832,3.887 3.856,8.676 7.055,9.23 3.683,0.625 3.781,-7.3 -4.156,-15.902 -2.129,-2.305 -5.227,-4.48 -8.914,-5.973 2.324,4.852 4.46,9.266 6.015,12.645 z m -41.547,-81.738 c 17.141,-5.395 27.207,-15.016 41.34,-12.618 17.625,3.012 20.52,22.684 20.52,22.684 -13.356,-9.742 -34.555,-1.727 -54.223,2.461 0.688,1.285 1.461,2.766 2.234,4.172 2.801,5.414 14.719,29.418 20.532,41.547 6.285,1.75 12.589,4.847 17.617,9.383 14.133,12.781 18.691,38.925 -0.766,35.601 -12.308,-2.098 -19.476,-17.156 -22.957,-24.441 0,0 -2.519,-5.278 -6.012,-12.446 -5.613,0.594 -15.66,4.68 -18.496,10.055 0,0 -8.273,-6.973 -2.707,-13.148 2.649,-2.957 10.946,-6.403 16.465,-6.805 -5.519,-11.309 -17.32,-35.004 -19.265,-38.629 -0.672,-1.383 -1.352,-2.644 -2.04,-3.824 -47.718,0.39 -50.835,-43.516 -27.589,-39.567 11.332,1.93 22.851,7.387 35.347,25.575" /><path
         id="path48"
         style="fill:#222443;fill-opacity:1;fill-rule:nonzero;stroke:none"
         d="M 683.699,231.59 C 591.145,212.691 492.32,192.43 492.32,192.43 c 0,0 51.266,-11.68 61.59,-17.129 11.887,10.679 66.25,27.058 124.52,42.273 -0.047,0.489 -0.09,0.977 -0.09,1.465 0,4.801 2.031,8.809 5.359,12.551" /><path
         id="path50"
         style="fill:#222443;fill-opacity:1;fill-rule:nonzero;stroke:none"
         d="m 856.098,321.961 c 4.539,0.766 -0.254,-10.469 -5.953,-16.234 -4.188,-4.192 -9.176,-8.426 -13.528,-5.778 0.258,0.492 0.528,0.879 0.692,1.367 5.793,10.684 14.156,19.86 18.789,20.645 z M 731.102,283.223 c -5.711,-10.571 -14.067,-19.828 -18.7,-20.629 -4.632,-0.793 -3.636,7.207 2.039,17.804 5.801,10.598 14.164,19.86 18.7,20.633 4.632,0.774 3.738,-7.203 -2.039,-17.808 z m -23.067,-49.762 c -4.633,-9.418 -7.113,-16.336 -10.769,-16.969 -1.864,-0.32 -3.469,0.289 -3.469,3.238 0,4.09 6.676,10.743 17.266,20.118 z m -36.41,39.644 c -5.707,-10.582 -14.078,-19.847 -18.703,-20.625 -4.547,-0.773 -3.645,7.215 2.035,17.793 5.797,10.602 14.168,19.852 18.797,20.649 4.523,0.769 3.652,-7.211 -2.129,-17.817 z M 602,261.246 c 5.777,10.707 14.145,19.859 18.781,20.668 4.543,0.758 -0.273,-10.48 -5.972,-16.25 -4.184,-4.187 -9.172,-8.418 -13.528,-5.781 0.266,0.496 0.528,0.898 0.719,1.363 z m 264.609,36.859 c -8.277,-8.707 -16.746,-15.582 -23.949,-16.804 -7.656,-1.301 -10.765,2.699 -9.265,10.082 1.246,-0.934 2.761,-1.66 4.714,-1.867 7.762,-1.082 16.571,4.597 24.227,15.445 12.738,18.082 4.719,29 -8.191,26.805 -3.196,-0.539 -7.114,-2.383 -11.313,-5.536 -0.184,0.067 -0.391,-0.023 -0.625,-0.312 l -0.348,-0.434 c -4.804,-3.804 -9.918,-9.351 -14.695,-16.691 -8.121,-9.109 -16.789,-18.73 -18.605,-20.574 -2.325,-2.356 -4.454,-4.676 -5.161,-3.992 -0.722,0.593 1.68,5.898 3.012,8.527 3.836,7.859 16.555,33.723 16.555,33.723 l -14.145,-2.512 c 0,0 -3.203,-6.496 -7.3,-14.945 -5.348,-10.172 -20.379,-28.567 -25.368,-29.426 -5.168,-0.871 -2.496,5.187 -1.156,7.812 3.824,7.867 16.559,33.711 16.559,33.711 l -14.153,-2.5 c 0,0 -2.918,-5.933 -6.629,-13.5 -9.867,-11.047 -21.925,-24.222 -32.46,-34.902 10.769,21.949 22.164,45.629 22.164,45.629 l -14.071,-2.414 -5.25,-11.039 c -0.984,5.179 -4.722,9.355 -9.883,8.464 -7.257,-1.23 -17.414,-8.343 -28.769,-25.929 -7.207,-8.063 -14.188,-15.797 -15.832,-17.449 -2.324,-2.356 -4.367,-4.664 -5.168,-4 -0.723,0.589 1.684,5.906 3.027,8.535 3.828,7.855 16.551,33.715 16.551,33.715 l -14.148,-2.5 c 0,0 -2.145,-4.473 -5.262,-10.778 -1.07,5.078 -4.805,9.141 -9.879,8.285 -3.359,-0.578 -7.391,-2.453 -11.879,-6.086 -0.293,0.524 -0.644,0.68 -1.027,0.063 -0.477,-0.723 -0.934,-1.438 -1.391,-2.16 -5.367,-4.926 -11.312,-12.301 -17.558,-22.875 -1.168,-1.965 -2.145,-3.813 -3.04,-5.637 -10.371,-12.434 -20.628,-21.281 -29.574,-22.785 -7.644,-1.305 -10.761,2.684 -9.254,10.07 1.25,-0.937 2.77,-1.648 4.723,-1.871 7.75,-1.082 16.562,4.617 24.219,15.438 12.726,18.101 4.711,29.031 -8.199,26.828 -7.825,-1.348 -20.032,-10.356 -29.989,-27.891 -12.199,-21.558 -7.75,-37.648 14.067,-33.926 9.945,1.688 20.004,9.051 29.234,18.758 -0.668,-8.586 3.535,-13.207 10.918,-11.945 6.145,1.058 12.457,6.512 17.711,12.637 -2.399,-6.981 0.262,-9.543 5.258,-8.707 3.738,0.628 8.629,3.597 16.293,12.203 2.023,2.257 5.84,6.683 10.312,11.894 -3.433,-12.383 0.871,-19.422 9.817,-17.914 6.504,1.121 13.074,6.957 18.504,13.485 l -4.793,-9.989 c -17.985,-13.75 -32.684,-20.242 -32.684,-30.39 0,-7.832 8.195,-10.356 13.715,-9.418 11.308,1.929 15.937,9.824 23.324,23.636 1.508,2.848 6.414,12.836 12.293,24.883 9.133,8.172 19.109,17.543 29.156,28.133 -2.719,-5.535 -5.023,-10.207 -6.105,-12.363 -5.063,-10.207 -3.192,-19.414 5.699,-17.907 5.785,0.993 16.84,12.305 26.355,24.426 -1.605,-3.207 -2.847,-5.652 -3.468,-7.008 -5.078,-10.113 -2.414,-13.929 3.468,-12.925 3.743,0.629 8.547,3.582 16.29,12.207 2.593,2.89 8.121,9.316 14.226,16.445 -3.457,-14.078 3.012,-22.949 19.789,-20.09 8.02,1.363 16.477,6.102 23.871,13.406 8.625,8.586 16.559,15.012 16.559,7.711 0,-6.586 -12.391,-23.289 -37.125,-27.5 -4.613,-0.789 -52.977,-10.601 -112.281,-22.703 -2.012,-4.07 -3.551,-7.14 -4.309,-8.543 -0.617,-1.16 -1.219,-2.32 -1.844,-3.441 61.559,15.117 116.403,26.957 117.801,27.18 31.777,5.421 41.93,26.644 41.93,39.292 0,8.813 -9.18,10.016 -16.196,2.75" /><path
         id="path52"
         style="fill:#a01a26;fill-opacity:1;fill-rule:nonzero;stroke:none"
         d="m 726.93,187.445 c -2.59,-5.004 -6.321,-9.461 -8.356,-9.988 -2.058,-0.547 -1.656,3.012 0.918,8.035 2.543,4.961 6.285,9.457 8.352,10.008 2.07,0.551 1.629,-3.07 -0.914,-8.055 z m -73.41,-20.996 c -2.54,-4.961 -6.29,-9.457 -8.352,-10.027 -2.031,-0.531 -1.621,3.07 0.918,8.035 2.586,5.004 6.32,9.5 8.391,10.031 2.023,0.547 1.636,-3.054 -0.957,-8.039 z m 77.316,34.34 c -2.719,-0.711 -5.5,-3.336 -7.816,-6.242 l 1.445,3.047 -6.274,-1.684 -4.535,-9.625 c -3.547,-4.312 -7.242,-8.785 -8.058,-9.664 -0.989,-1.137 -1.942,-2.277 -2.266,-1.992 -0.355,0.223 0.715,2.703 1.313,3.926 1.699,3.683 2.335,5.047 3.343,7.179 3.02,6.571 0.547,7.672 -2.508,6.86 -1.91,-0.531 -7.675,-3.766 -15.675,-16.34 1.09,2.34 1.636,3.562 2.461,5.312 3.183,6.364 0.609,7.672 -2.496,6.836 -1.875,-0.492 -7.629,-3.722 -15.622,-16.316 l 6.469,13.852 -6.265,-1.665 -2.918,-6.187 c -4.137,-5.082 -10.129,-12.348 -11.192,-13.504 -1.035,-1.16 -1.941,-2.281 -2.308,-2.016 -0.325,0.243 0.754,2.707 1.363,3.946 1.695,3.679 7.383,15.765 7.383,15.765 l -6.317,-1.73 c 0,0 -0.968,-2.074 -2.343,-5.024 -0.481,2.219 -2.161,3.864 -4.422,3.274 -1.508,-0.402 -3.325,-1.465 -5.344,-3.293 -0.109,0.246 -0.27,0.305 -0.481,0.043 -1.476,-1.934 -13.48,-16.602 -15.039,-18.274 -0.996,-1.136 -1.945,-2.277 -2.265,-1.992 -0.317,0.227 0.719,2.688 1.312,3.907 1.719,3.683 2.586,5.554 3.625,7.71 2.703,5.758 0.282,7.141 -2.797,6.329 -1.902,-0.512 -7.66,-3.747 -15.617,-16.297 l 13.356,28.5 -6.278,-1.668 -11.043,-23.516 c -0.339,0.223 -0.718,0.184 -1.07,-0.387 -3.027,-4.984 -10.855,-15.054 -18.301,-17.027 -6.715,-1.793 -6.59,5.555 -1.101,15.93 5.484,10.375 11.851,16.234 14.949,17.066 3.105,0.813 -0.203,-6.793 -5.488,-11.777 0,0 1.308,-2.828 4.527,-0.145 6.84,5.758 9.27,17.66 1.52,15.606 -4.543,-1.199 -14.04,-6.676 -22.188,-20.305 -10.613,-17.719 -3.863,-25.855 5.246,-23.414 5.692,1.488 11.543,6.652 16.09,12.062 l -4.18,-8.91 6.285,1.692 c 5.168,10.902 15.786,23.676 18.051,24.265 1.352,0.371 0.871,-1.504 -0.785,-5.023 -1.793,-3.805 -3,-6.445 -4.625,-9.848 -2.223,-4.718 -1.074,-6.343 1.563,-5.633 1.617,0.426 3.847,1.973 7.269,6.145 1.129,1.363 3.527,4.375 6.149,7.691 -2.372,-6.734 -0.543,-10.418 3.82,-9.257 2.738,0.711 5.562,3.418 7.914,6.406 -1.082,-3.235 0.113,-4.27 2.344,-3.68 1.664,0.445 3.859,1.973 7.285,6.16 1.508,1.813 5.23,6.532 8.863,11.129 l -6.976,-14.851 6.281,1.648 c 5.172,10.926 15.797,23.723 18.09,24.313 1.347,0.367 0.836,-1.489 -0.786,-4.985 -1.96,-4.211 -7.8,-16.785 -7.8,-16.785 l 6.293,1.668 c 0,0 0.355,0.777 0.898,1.953 5.41,10.418 14.914,21.75 17.063,22.32 1.355,0.344 0.886,-1.527 -0.793,-5.027 -1.782,-3.824 -2.993,-6.43 -4.614,-9.867 -2.261,-4.738 -1.066,-6.328 1.551,-5.633 1.637,0.426 3.856,1.992 7.285,6.164 1.051,1.262 3.168,3.926 5.555,6.934 l -12.102,-25.754 6.313,1.668 9.793,20.914 c 0.316,-2.055 1.746,-3.5 4.723,-2.727 3.542,0.938 9.71,5.375 13.882,12.918 7.188,13.02 4.41,18.348 -0.984,16.926" /><path
         id="path54"
         style="fill:#a01a26;fill-opacity:1;fill-rule:nonzero;stroke:none"
         d="m 750.254,209.578 c 2.434,0.633 5.301,3.36 6.367,6.063 1.078,2.707 0,4.414 -2.469,3.765 -2.414,-0.652 -5.234,-3.379 -6.359,-6.105 -1.07,-2.727 0.043,-4.375 2.461,-3.723" /><path
         id="path56"
         style="fill:#a01a26;fill-opacity:1;fill-rule:nonzero;stroke:none"
         d="m 868.195,240.887 c 2.422,0.652 5.27,3.379 6.348,6.082 1.078,2.707 0,4.414 -2.461,3.765 -2.422,-0.652 -5.25,-3.375 -6.367,-6.105 -1.082,-2.727 0.039,-4.371 2.48,-3.742" /><path
         id="path58"
         style="fill:#a01a26;fill-opacity:1;fill-rule:nonzero;stroke:none"
         d="m 884.043,229.211 c -2.586,-5.027 -6.305,-9.481 -8.34,-10.031 -2.098,-0.547 -1.668,3.031 0.895,8.039 2.543,4.98 6.308,9.476 8.359,10.027 2.074,0.547 1.629,-3.074 -0.914,-8.035 z M 808.246,197.09 c -0.996,-1.61 -2.988,-2.461 -2.715,-0.918 0.172,0.875 1.918,1.973 4.235,3.316 -0.532,-0.933 -1.039,-1.625 -1.52,-2.398 z m -49.922,-10.582 c -2.058,-0.57 -1.625,3.055 0.918,8.019 1.91,3.782 4.531,7.219 6.571,8.95 -0.77,-2.301 -0.809,-4.821 0.5,-6.555 -2.055,-4.391 -5.278,-9.703 -7.989,-10.414 z m 129.625,56.027 c -2.707,-0.734 -5.492,-3.336 -7.789,-6.246 l 1.422,3.031 -6.285,-1.668 -4.539,-9.64 c -3.539,-4.317 -7.242,-8.774 -8.012,-9.645 -1.043,-1.14 -1.996,-2.277 -2.312,-1.996 -0.317,0.227 0.761,2.688 1.347,3.926 1.715,3.687 7.41,15.766 7.41,15.766 l -6.324,-1.708 c 0,0 -0.691,-1.464 -1.707,-3.64 -3.637,-4.496 -12.219,-14.953 -13.527,-16.356 -0.992,-1.14 -1.942,-2.257 -2.266,-1.992 -0.312,0.242 0.727,2.703 1.324,3.926 1.707,3.684 2.579,5.551 3.614,7.668 2.695,5.801 0.281,7.16 -2.782,6.348 -1.906,-0.489 -7.687,-3.743 -15.628,-16.274 l 13.363,28.5 -6.289,-1.668 -11.188,-23.863 c -3.496,-4.25 -6.691,-7.223 -9.437,-9.156 0.238,0.937 0.48,1.933 0.648,2.992 0.59,3.152 1.586,8.379 1.586,8.379 0,0 7.313,8.199 0.356,5.879 -2.797,-0.953 -4.508,-2.805 -5.649,-5.082 -0.105,0.101 -0.226,0.121 -0.379,-0.082 -1.476,-1.93 -13.519,-16.602 -15.078,-18.27 -1,-1.137 -1.937,-2.277 -2.269,-1.996 -0.309,0.227 0.769,2.691 1.324,3.906 1.734,3.707 2.379,5.09 3.336,7.188 3.023,6.566 0.597,7.683 -2.512,6.851 -1.867,-0.488 -7.637,-3.742 -15.629,-16.273 l 6.481,13.812 -6.278,-1.687 -2.367,-5.047 c -2.348,-2.988 -6.918,-8.18 -9.793,-8.441 0.563,1.707 0.801,3.132 0.961,4.273 0.441,2.867 -0.09,6.082 -2.277,5.492 -1.024,-0.265 -2.094,-1.16 -3.016,-2.402 -0.07,0.937 -0.324,1.711 -1.027,1.527 -1.739,-0.469 -3.926,-1.687 -6.328,-3.988 -0.102,0.527 -0.286,0.816 -0.594,0.426 -1.461,-1.91 -13.512,-16.598 -15.024,-18.266 -1.035,-1.141 -2.003,-2.277 -2.304,-2.016 -0.324,0.247 0.754,2.707 1.351,3.95 1.703,3.679 7.391,15.781 7.391,15.781 l -6.32,-1.727 c 0,0 -9.27,-19.816 -10.891,-23.211 -2.273,-4.757 -1.07,-6.347 1.551,-5.656 1.664,0.449 3.804,1.973 7.277,6.145 1.445,1.765 4.902,6.14 8.375,10.519 -3.379,-8.363 -0.668,-12.679 4.219,-11.371 4.375,1.156 9.078,5.512 13.402,13.141 0.469,0.894 0.914,1.726 1.321,2.543 2.46,0.242 5.289,2.457 7.839,5.023 l -7.906,-16.824 6.285,1.687 c 5.168,10.907 15.782,23.68 18.094,24.29 1.355,0.367 0.836,-1.543 -0.797,-5.024 -1.824,-3.824 -2.984,-6.445 -4.613,-9.867 -2.254,-4.719 -1.07,-6.324 1.555,-5.633 1.628,0.426 3.816,1.973 7.269,6.16 2.613,3.176 11.754,14.793 15.641,19.758 -0.446,-2.117 -0.731,-4.293 -1.094,-6.348 -0.352,-1.953 -0.676,-3.48 -1.063,-4.785 -5.089,-2.703 -9.796,-4.879 -10.265,-7.726 -0.645,-3.664 2.851,-3.524 5.324,-2.852 4.051,1.082 8.117,3.461 10.813,11.149 2.265,1.691 5.035,4.195 7.73,6.96 l -7.066,-15.054 6.281,1.644 c 5.164,10.946 15.789,23.703 18.058,24.313 1.36,0.367 0.875,-1.524 -0.804,-5.043 -1.778,-3.805 -2.977,-6.43 -4.602,-9.848 -2.226,-4.719 -1.074,-6.328 1.551,-5.637 1.629,0.43 3.855,1.997 7.273,6.168 1.879,2.235 7.063,8.825 11.321,14.219 -2.207,-4.699 -4.336,-9.258 -5.043,-10.742 -2.266,-4.738 -1.078,-6.328 1.551,-5.637 1.656,0.45 3.82,1.973 7.273,6.164 1.035,1.262 3.152,3.907 5.531,6.899 l -12.097,-25.735 6.304,1.711 9.782,20.891 c 0.324,-2.059 1.769,-3.52 4.738,-2.727 3.539,0.938 9.726,5.352 13.894,12.918 7.203,13.02 4.395,18.371 -0.996,16.926" /><path
         id="path60"
         style="fill:#ffffff;fill-opacity:1;fill-rule:evenodd;stroke:none"
         d="M 767.445,1010.9 C 920.645,954.273 998.922,784.176 942.289,630.984 885.656,477.793 715.563,399.512 562.367,456.145 409.172,512.773 330.895,682.871 387.523,836.066 444.156,989.258 614.254,1067.54 767.445,1010.9" /><path
         id="path62"
         style="fill:#ffffff;fill-opacity:1;fill-rule:nonzero;stroke:none"
         d="M 569.879,476.461 C 428.129,528.859 355.441,686.809 407.844,828.555 460.242,970.301 618.191,1042.99 759.938,990.586 901.684,938.188 974.375,780.234 921.977,638.496 869.574,496.746 711.625,424.063 569.879,476.461" /><path
         id="path64"
         style="fill:#cccccc;fill-opacity:1;fill-rule:nonzero;stroke:none"
         d="M 832.547,963.719 C 843.898,912.117 841.109,856.723 821.426,803.473 766.961,656.148 603.543,580.313 457.133,634.438 c -25.168,9.304 -48.219,21.851 -68.863,37.003 20.074,-91.207 84.359,-170.55 177.863,-205.117 146.406,-54.125 309.824,21.711 364.293,169.047 45.105,122.02 1.562,255.375 -97.879,328.348" /><path
         id="path66"
         style="fill:#333333;fill-opacity:1;fill-rule:nonzero;stroke:none"
         d="M 759.938,990.586 C 618.191,1042.99 460.242,970.301 407.844,828.555 355.441,686.809 428.129,528.859 569.879,476.461 711.625,424.063 869.574,496.746 921.977,638.496 974.375,780.234 901.684,938.188 759.938,990.586 Z M 562.367,456.145 C 409.418,512.684 330.984,683.121 387.523,836.066 444.074,989.027 614.496,1067.44 767.449,1010.9 920.398,954.359 998.836,783.945 942.289,630.988 885.746,478.035 715.316,399.602 562.367,456.145" /><path
         id="path68"
         style="fill:#333333;fill-opacity:1;fill-rule:nonzero;stroke:none"
         d="m 893,870.047 c 0,0 6.594,-89.477 1.227,-108.809 0,0 42.16,-49.324 41.035,-73.179 0,0 6.429,5.461 13.078,16.004 5.797,55.335 -4.977,110.21 -29.356,158.308 -6.558,2.91 -15.019,5.582 -25.984,7.676" /><path
         id="path70"
         style="fill:#333333;fill-opacity:1;fill-rule:nonzero;stroke:none"
         d="M 467.324,570.172 C 434.457,635.93 427.668,713.793 427.395,717.07 l 13.281,1.11 c 0.066,-0.782 6.879,-78.645 38.574,-142.047 l -11.926,-5.961" /><path
         id="path72"
         style="fill:#333333;fill-opacity:1;fill-rule:nonzero;stroke:none"
         d="m 652.648,704.473 -45.519,29.14 -105.035,45.899 -11.426,4.664 5.039,12.34 11.578,-4.723 106.145,-46.387 46.406,-29.707 -7.188,-11.226" /><path
         id="path74"
         style="fill:#333333;fill-opacity:1;fill-rule:nonzero;stroke:none"
         d="m 566.898,532.848 -10.695,7.949 11.012,14.828 0.504,0.449 c 0.672,0.602 66.953,59.934 84.703,87.133 l 11.16,-7.281 C 645.52,608.242 583.848,552.637 577.109,546.59 l -10.211,-13.742" /><path
         id="path76"
         style="fill:#333333;fill-opacity:1;fill-rule:nonzero;stroke:none"
         d="m 804.672,528.496 c -8.457,21.34 -50.137,97.836 -50.555,98.609 l 11.699,6.379 c 1.731,-3.171 42.493,-77.984 51.254,-100.078 l -12.398,-4.91" /><path
         id="path78"
         style="fill:#333333;fill-opacity:1;fill-rule:nonzero;stroke:none"
         d="m 801.348,718.637 -4.864,12.41 c 10.325,4.051 101.27,39.656 113.422,41.555 l 2.078,-13.157 c -8.066,-1.269 -72.14,-25.707 -110.636,-40.808" /><path
         id="path80"
         style="fill:#333333;fill-opacity:1;fill-rule:nonzero;stroke:none"
         d="m 715.215,795.348 c 1.863,17.277 -6.035,86.718 -10.469,121.019 l 13.219,1.719 c 0.535,-4.109 13,-101.02 10.496,-124.172 l -13.246,1.434" /><path
         id="path82"
         style="fill:#333333;fill-opacity:1;fill-rule:nonzero;stroke:none"
         d="m 492.473,856.48 -12.5,4.622 8.828,23.882 0.637,0.817 c 1.511,1.953 38.042,48.172 113.945,80.484 60.39,25.723 89.449,7.551 90.652,6.738 l -7.277,-11.164 c -0.012,0 -6.141,3.707 -18.641,4.629 -11.738,0.883 -31.601,-0.586 -59.504,-12.441 -67.586,-28.781 -103.062,-69.649 -108.05,-75.676 l -8.09,-21.891" /><path
         id="path84"
         style="fill:#333333;fill-opacity:1;fill-rule:nonzero;stroke:none"
         d="m 610.277,739.508 34.188,-116.547 c 0,0 122.504,-9.762 123.66,-6.633 1.152,3.121 41.016,110.953 41.016,110.953 l -86.762,80.024 -112.102,-67.797" /><path
         id="path86"
         style="fill:#333333;fill-opacity:1;fill-rule:nonzero;stroke:none"
         d="m 617.051,459.906 c -26.055,39.246 -44.891,91.203 -44.891,91.203 -39.465,2.153 -106.914,39.524 -106.914,39.524 0,0 -7.539,-26.824 -13.23,-46.492 29.82,-33.575 68.011,-60.563 112.957,-77.395 27.031,-0.211 52.078,-6.84 52.078,-6.84" /><path
         id="path88"
         style="fill:#333333;fill-opacity:1;fill-rule:nonzero;stroke:none"
         d="m 434.406,707.422 c 4.699,9.516 70.36,78.203 70.36,78.203 -2.711,8.695 -0.844,109.836 -0.844,109.836 l -77.891,-6.594 c -11.293,-17.394 -20.855,-36.289 -28.347,-56.554 -7.176,-19.411 -12.079,-39.11 -14.891,-58.797 l 4.84,-2.032 c 1.805,-19.504 46.773,-64.062 46.773,-64.062" /><path
         id="path90"
         style="fill:#333333;fill-opacity:1;fill-rule:nonzero;stroke:none"
         d="m 605.992,960.152 c 0,0 77.074,-23.75 106.262,-50.504 0,0 63.91,36.743 84.836,37.293 0,0 -12.262,27.473 -35.274,54.489 -42.593,15.4 -86.48,20.04 -128.679,15.27 -7.746,-13.13 -20.313,-35.95 -27.145,-56.548" /><path
         id="path92"
         style="fill:#333333;fill-opacity:1;fill-rule:nonzero;stroke:none"
         d="m 895.422,565.996 c -2.352,6.762 -4.262,10.766 -4.262,10.766 -51.414,-41.383 -82.801,-36.59 -82.801,-36.59 -18.453,-29.891 -75.136,-73.477 -76.781,-75.531 -0.805,-1 11.32,1.984 21.527,-2.016 56.329,18.375 106.563,54.117 142.317,103.371" /><path
         id="path94"
         style="fill:#333333;fill-opacity:1;fill-rule:nonzero;stroke:none"
         d="m 906.637,810.691 -11.27,45.364 c -36.859,41.82 -64.25,63.386 -80.793,74.148 -18.082,11.762 -27.422,13.473 -27.504,13.504 l -28.859,5.285 2.414,13.117 28.641,-5.269 c 3.476,-0.578 43.316,-9.039 117.187,-93.203 l 1.067,-1.219 12.043,-48.523 -12.926,-3.204" /><path
         id="path96"
         style="fill:#3a1417;fill-opacity:1;fill-rule:nonzero;stroke:none"
         d="m 1125.5,528.309 h 204.36 V 721.664 L 1125.5,764.813 V 528.309" /><path
         id="path98"
         style="fill:#3a1417;fill-opacity:1;fill-rule:nonzero;stroke:none"
         d="M 206.996,528.309 H 2.64453 V 721.664 L 206.996,764.813 V 528.309" /><path
         id="path100"
         style="fill:#5d1018;fill-opacity:1;fill-rule:nonzero;stroke:none"
         d="m 1329.83,425.059 c -436.963,-101.215 -890.139,-101.215 -1327.12297,0 0,98.824 0,197.64 0,296.48 C 439.691,620.34 892.867,620.34 1329.83,721.539 c 0,-98.84 0,-197.656 0,-296.48" /><path
         id="path102"
         style="fill:#f4f4f4;fill-opacity:1;fill-rule:nonzero;stroke:none"
         d="m 442.684,475.637 c -1.629,0.148 -3.27,0.261 -4.899,0.398 0,20.938 0,41.883 0,62.84 1.629,-0.125 3.27,-0.254 4.899,-0.406 0,-20.93 0,-41.871 0,-62.832 z M 305.195,489.68 c -1.636,0.199 -3.257,0.414 -4.902,0.633 0,20.937 0,41.875 0,62.82 1.645,-0.211 3.266,-0.414 4.902,-0.633 0,-20.945 0,-41.879 0,-62.82 z m 871.455,33.07 c 0,17.52 0,35.043 0,52.586 3.27,0.562 6.56,1.172 9.83,1.769 0,23.083 0,46.188 0,69.254 -31.4,-5.734 -62.86,-10.98 -94.4,-15.671 0,-23.11 0,-46.192 0,-69.27 3.29,0.484 6.59,0.988 9.88,1.477 0,-17.532 0,-35.04 0,-52.575 -18.41,-2.832 -36.82,-5.445 -55.23,-7.902 0,17.527 0,35.051 0,52.578 3.27,0.453 6.56,0.895 9.86,1.332 0,23.094 0,46.184 0,69.27 -31.55,-4.317 -63.141,-8.098 -94.817,-11.36 0,-23.09 0,-46.164 0,-69.269 3.297,0.355 6.618,0.672 9.915,1.043 0,-20.957 0,-41.891 0,-62.836 -1.063,-0.11 -2.125,-0.215 -3.188,-0.328 -8.117,20.093 -16.207,40.203 -24.32,60.359 0.379,0.039 0.816,0.082 1.195,0.129 0,23.086 0,46.168 0,69.262 -39.199,-3.836 -78.449,-6.832 -117.719,-9.039 0,-23.086 0,-46.172 0,-69.262 h 0.02 c -6.738,-17.742 -13.492,-35.469 -20.242,-53.18 0,6.336 0,12.672 0,18.985 -1.571,1.558 -3.153,3.109 -4.739,4.66 1.586,1.699 3.168,3.402 4.739,5.101 0,18.735 0,37.485 0,56.231 -11.719,11.562 -23.43,23.191 -35.164,34.902 -34.04,-1.234 -68.114,-1.898 -102.2,-1.945 -7.183,-0.008 -14.343,0.012 -21.535,0.047 -49.449,0.312 -98.883,1.89 -148.258,4.738 0,-6.008 0,-12.023 0,-18.043 -5.812,6.344 -11.613,12.715 -17.414,19.098 -28.429,1.82 -56.843,4.054 -85.222,6.726 -8.739,-8.273 -17.477,-16.484 -26.215,-24.679 -8.731,9.976 -17.461,20.003 -26.188,30.058 -28.347,3.192 -56.66,6.781 -84.922,10.805 -4.453,-4.024 -8.906,-8 -13.359,-12 0,4.648 0,9.289 0,13.937 -50.207,7.383 -100.289,16.106 -150.1679,26.153 0,-23.086 0,-46.168 0,-69.266 3.2739,-0.668 6.5349,-1.316 9.8009,-1.969 0,-20.941 0,-41.871 0,-62.824 -3.266,0.652 -6.527,1.301 -9.8009,1.953 0,-23.082 0,-46.164 0,-69.254 34.3239,-6.922 68.7419,-13.211 103.2419,-18.855 0,19.789 0,39.586 0,59.375 8.211,-1.34 16.43,-2.649 24.633,-3.91 0,22.039 0,44.093 0,66.136 0.254,-0.031 0.504,-0.066 0.734,-0.113 0,-29.773 0,-59.543 0,-89.32 11.641,-13.879 23.297,-27.676 34.954,-41.418 28.234,-4.016 56.535,-7.602 84.851,-10.774 8.746,8.039 17.485,16.118 26.223,24.262 8.746,-9.922 17.492,-19.82 26.254,-29.68 28.351,-2.648 56.742,-4.875 85.156,-6.687 11.719,11.316 23.43,22.711 35.164,34.176 0,28.617 0,57.234 0,85.855 9.844,-0.527 19.691,-0.98 29.547,-1.387 0,-17.589 0,-35.183 0,-52.789 -3.375,0.145 -6.75,0.289 -10.137,0.442 0,-23.09 0,-46.172 0,-69.266 31.817,-1.43 63.633,-2.336 95.473,-2.703 0,23.086 0,46.184 0,69.277 -3.32,0.032 -6.633,0.078 -9.953,0.137 0,17.594 0,35.184 0,52.789 11.855,-0.187 23.707,-0.293 35.558,-0.312 0,-17.614 0,-35.196 0,-52.797 -3.308,0.015 -6.64,0.023 -9.953,0.043 0,-23.09 0,-46.172 0,-69.27 41.266,-0.25 82.512,0.379 123.731,1.895 5.422,5.769 10.843,11.574 16.242,17.39 0,-5.582 0,-11.164 0,-16.742 31.097,1.32 62.168,3.125 93.203,5.473 0,15.359 0,30.711 0,46.078 2.762,0.195 5.523,0.406 8.277,0.625 0,-15.352 0,-30.711 0,-46.09 23.957,1.883 47.871,4.047 71.785,6.512 7.165,0.734 14.301,1.496 21.434,2.281 36.363,4.031 72.643,8.754 108.873,14.156 7.05,1.055 14.11,2.121 21.16,3.243 43.31,6.796 86.51,14.593 129.6,23.355 0,26.5 0,53.02 0,79.512 -22.04,-4.481 -44.1,-8.723 -66.19,-12.68" /><path
         id="path104"
         style="fill:#222443;fill-opacity:1;fill-rule:nonzero;stroke:none"
         d="m 173.031,521.758 c -2.238,0.383 -4.465,0.785 -6.691,1.172 0,-9.215 0,-18.43 0,-27.649 6.297,-1.101 12.59,-2.195 18.898,-3.261 0,-12.84 0,-25.672 0,-38.504 -24.609,4.164 -49.187,8.644 -73.73,13.468 0,12.832 0,25.657 0,38.512 3.277,-0.644 6.547,-1.293 9.836,-1.914 0,31.191 0,62.395 0,93.586 -3.289,0.621 -6.559,1.27 -9.836,1.902 0,12.844 0,25.676 0,38.504 40.109,-7.851 80.32,-14.875 120.633,-21.019 0,-15.004 0,-30.024 0,-45.043 -12.364,1.89 -24.715,3.855 -37.047,5.902 0,2.172 0,4.359 0,6.555 -9.586,1.586 -19.188,3.215 -28.754,4.906 0,-9.152 0,-18.289 0,-27.441 2.226,-0.399 4.453,-0.782 6.691,-1.176 0,2.195 0,4.375 0,6.562 12.262,-2.14 24.539,-4.191 36.832,-6.152 0,-17.277 0,-34.547 0,-51.82 -12.293,1.976 -24.57,4.035 -36.832,6.152 0,2.258 0,4.5 0,6.758" /><path
         id="path106"
         style="fill:#222443;fill-opacity:1;fill-rule:nonzero;stroke:none"
         d="m 320.047,560.531 c -1.707,2.051 -3.426,4.102 -5.125,6.149 -8.067,0.992 -16.094,2.008 -24.129,3.07 -1.785,-1.605 -3.551,-3.207 -5.34,-4.812 0,-27.586 0,-55.165 0,-82.766 1.789,-2.012 3.555,-4.016 5.34,-6.012 8.035,-1.055 16.062,-2.086 24.129,-3.078 1.699,1.566 3.418,3.129 5.125,4.691 0,27.586 0,55.172 0,82.758 z M 240.23,587.93 c 8.735,7.84 17.493,15.718 26.247,23.613 24.171,-3.379 48.359,-6.461 72.578,-9.219 8.773,-10.144 17.562,-20.254 26.336,-30.308 0,-38.661 0,-77.317 0,-115.977 -8.774,-8.148 -17.563,-16.254 -26.336,-24.312 -24.219,2.761 -48.407,5.847 -72.578,9.222 -8.754,10.285 -17.512,20.637 -26.247,31.004 0,38.668 0,77.32 0,115.977" /><path
         id="path108"
         style="fill:#222443;fill-opacity:1;fill-rule:nonzero;stroke:none"
         d="m 457.602,547.219 c -1.719,1.957 -3.434,3.929 -5.168,5.902 -8.067,0.598 -16.125,1.227 -24.2,1.902 -1.789,-1.687 -3.566,-3.398 -5.351,-5.062 0,-27.59 0,-55.168 0,-82.758 1.785,-1.933 3.562,-3.855 5.351,-5.769 8.075,-0.672 16.133,-1.301 24.2,-1.903 1.734,1.637 3.449,3.289 5.168,4.934 0,27.586 0,55.172 0,82.754 z m -80.118,23.558 c 8.778,8.25 17.559,16.551 26.364,24.887 24.242,-2.226 48.535,-4.137 72.808,-5.742 8.801,-9.727 17.61,-19.395 26.41,-29.031 0,-38.664 0,-77.321 0,-115.985 -8.8,-8.57 -17.609,-17.086 -26.41,-25.582 -24.273,1.602 -48.566,3.52 -72.808,5.735 -8.805,9.867 -17.586,19.773 -26.364,29.734 0,38.652 0,77.32 0,115.984" /><path
         id="path110"
         style="fill:#222443;fill-opacity:1;fill-rule:nonzero;stroke:none"
         d="m 655.117,535.152 c -12.39,0.051 -24.781,0.161 -37.176,0.387 0,3.352 0,6.688 0,10.031 -3.308,0.047 -6.613,0.121 -9.925,0.172 0,-31.172 0,-62.383 0,-93.574 3.312,-0.074 6.617,-0.137 9.925,-0.188 0,-12.828 0,-25.675 0,-38.507 -21.875,0.371 -43.742,0.988 -65.589,1.851 0,12.84 0,25.672 0,38.512 3.363,-0.137 6.753,-0.262 10.132,-0.387 0,31.188 0,62.391 0,93.598 -3.379,0.109 -6.769,0.238 -10.132,0.379 0,-3.356 0,-6.696 0,-10.031 -12.391,0.476 -24.789,1.05 -37.157,1.714 0,16.168 0,32.348 0,48.524 46.606,-2.442 93.266,-3.762 139.922,-3.953 0,-16.164 0,-32.348 0,-48.528" /><path
         id="path112"
         style="fill:#222443;fill-opacity:1;fill-rule:nonzero;stroke:none"
         d="m 746.996,477.887 c -1.789,1.738 -3.59,3.449 -5.359,5.179 -7.563,-0.187 -15.121,-0.359 -22.68,-0.511 0,-10.153 0,-20.344 0,-30.504 7.559,0.133 15.117,0.308 22.68,0.5 1.769,1.824 3.57,3.644 5.359,5.48 0,6.617 0,13.239 0,19.856 z m 0,62.933 c -1.789,1.774 -3.59,3.559 -5.359,5.317 -7.563,-0.192 -15.121,-0.367 -22.68,-0.496 0,-8.184 0,-16.371 0,-24.586 7.559,0.152 15.117,0.328 22.68,0.527 1.769,1.879 3.57,3.734 5.359,5.629 0,4.531 0,9.062 0,13.609 z m 45.524,-47.765 c 0,-16.676 0,-33.325 0,-49.977 -8.825,-9.48 -17.633,-18.879 -26.442,-28.273 -34.195,-1.188 -68.402,-1.77 -102.594,-1.739 0,12.848 0,25.68 0,38.512 3.317,0 6.629,0 9.938,0.016 0,31.183 0,62.375 0,93.57 -3.309,0 -6.621,0 -9.938,0 0,12.832 0,25.66 0,38.5 34.192,-0.016 68.399,0.559 102.594,1.742 8.809,-8.832 17.617,-17.613 26.442,-26.351 0,-14.512 0,-29.012 0,-43.516 -3.653,-3.906 -7.305,-7.816 -10.926,-11.687 3.621,-3.606 7.273,-7.211 10.926,-10.797" /><path
         id="path114"
         style="fill:#222443;fill-opacity:1;fill-rule:nonzero;stroke:none"
         d="m 875.344,499.504 c 7.004,0.508 14.019,1.035 21.027,1.605 -3.496,8.746 -7.008,17.473 -10.519,26.219 -3.504,-9.289 -7.004,-18.558 -10.508,-27.824 z m 55.136,96.297 c 0,-12.848 0,-25.672 0,-38.508 -2.753,-0.246 -5.531,-0.496 -8.335,-0.75 12.093,-30.117 24.214,-60.168 36.277,-90.125 3.328,0.336 6.621,0.68 9.918,1.023 0,-12.832 0,-25.664 0,-38.5 -21.141,-2.222 -42.274,-4.218 -63.434,-5.972 0,12.824 0,25.676 0,38.496 1.789,0.152 3.571,0.301 5.348,0.449 -0.789,2.453 -1.59,4.914 -2.379,7.379 -14.613,-1.23 -29.219,-2.348 -43.859,-3.344 -0.868,-2.601 -1.719,-5.179 -2.571,-7.758 1.789,0.125 3.551,0.247 5.352,0.368 0,-12.836 0,-25.664 0,-38.5 -21.106,-1.477 -42.223,-2.715 -63.359,-3.723 0,12.836 0,25.664 0,38.488 3.312,0.168 6.625,0.344 9.945,0.504 12.105,31.817 24.226,63.699 36.344,95.668 -2.383,-0.152 -4.762,-0.285 -7.157,-0.437 0,12.832 0,25.668 0,38.507 29.321,1.789 58.653,4.039 87.91,6.735" /><path
         id="path116"
         style="fill:#222443;fill-opacity:1;fill-rule:nonzero;stroke:none"
         d="m 1031.86,568.445 c 0,-31.207 0,-62.39 0,-93.597 9.88,1.277 19.77,2.593 29.66,3.957 0,3.406 0,6.82 0,10.246 12.31,1.699 24.62,3.476 36.9,5.355 0,-16.258 0,-32.504 0,-48.765 -40.5,-6.129 -81.11,-11.403 -121.775,-15.809 0,12.84 0,25.672 0,38.508 3.324,0.351 6.621,0.723 9.914,1.09 0,31.191 0,62.39 0,93.59 -3.293,-0.372 -6.59,-0.747 -9.914,-1.098 0,12.836 0,25.668 0,38.5 21.734,2.359 43.415,4.957 65.095,7.789 0,-12.809 0,-25.652 0,-38.504 -3.29,-0.414 -6.59,-0.844 -9.88,-1.262" /><path
         id="path118"
         style="fill:#222443;fill-opacity:1;fill-rule:nonzero;stroke:none"
         d="m 1161.89,588.094 c 0,-31.211 0,-62.399 0,-93.586 9.8,1.707 19.64,3.465 29.47,5.297 0,3.406 0,6.816 0,10.238 12.25,2.27 24.48,4.621 36.71,7.039 0,-16.238 0,-32.492 0,-48.734 -40.25,-8 -80.67,-15.125 -121.18,-21.399 0,12.848 0,25.668 0,38.508 3.3,0.504 6.6,1.016 9.89,1.543 0,31.184 0,62.391 0,93.586 -3.29,-0.512 -6.59,-1.039 -9.89,-1.543 0,12.844 0,25.668 0,38.496 21.63,3.359 43.23,6.949 64.8,10.789 0,-12.84 0,-25.66 0,-38.512 -3.27,-0.582 -6.53,-1.156 -9.8,-1.722" /></g></g></svg>