<?xml version="1.0" encoding="UTF-8" standalone="no"?>
<svg
   xmlns:dc="http://purl.org/dc/elements/1.1/"
   xmlns:cc="http://creativecommons.org/ns#"
   xmlns:rdf="http://www.w3.org/1999/02/22-rdf-syntax-ns#"
   xmlns:svg="http://www.w3.org/2000/svg"
   xmlns="http://www.w3.org/2000/svg"
   viewBox="0 0 109.33333 106.66667"
   height="106.66667"
   width="109.33333"
   xml:space="preserve"
   id="svg2"
   version="1.1"><metadata
     id="metadata8"><rdf:RDF><cc:Work
         rdf:about=""><dc:format>image/svg+xml</dc:format><dc:type
           rdf:resource="http://purl.org/dc/dcmitype/StillImage" /></cc:Work></rdf:RDF></metadata><defs
     id="defs6" /><g
     transform="matrix(1.3333333,0,0,-1.3333333,0,106.66667)"
     id="g10"><g
       transform="scale(0.1)"
       id="g12"><path
         id="path14"
         style="fill:#ffffff;fill-opacity:1;fill-rule:evenodd;stroke:none"
         d="m 538.305,237.293 c 122.445,-48.09 213.875,22.684 219.769,73.344 0,0 7.356,-25.348 1.196,-53.496 -5.352,-24.446 -18.051,-36.215 -18.051,-36.215 0,0 30.101,10.894 68.195,59.07 C 799.648,152.355 677.504,138.445 643.98,135.43 L 538.305,237.293" /><g
         id="g16"><path
           id="path18"
           style="fill:none;stroke:#1f222c;stroke-width:7.86203003;stroke-linecap:square;stroke-linejoin:miter;stroke-miterlimit:10;stroke-dasharray:none;stroke-opacity:1"
           d="m 538.304,237.293 c 122.446,-48.09 213.875,22.684 219.77,73.344 0,0 7.355,-25.348 1.195,-53.496 -5.352,-24.446 -18.051,-36.215 -18.051,-36.215 0,0 30.102,10.894 68.195,59.07 C 799.648,152.356 677.503,138.445 643.98,135.43" /></g><path
         id="path20"
         style="fill:#ffffff;fill-opacity:1;fill-rule:evenodd;stroke:none"
         d="m 668.883,160.566 c 0,0 69.449,13.106 84.168,42.5 l -84.168,-42.5" /><path
         id="path22"
         style="fill:#1f222c;fill-opacity:1;fill-rule:evenodd;stroke:none"
         d="m 668.02,165.07 c 0,0 0.355,0.055 1.023,0.149 0.684,0.113 1.684,0.277 2.961,0.484 2.559,0.434 6.223,1.11 10.601,2.051 8.754,1.863 20.379,4.805 31.598,8.93 2.809,1.015 5.578,2.14 8.285,3.289 1.34,0.605 2.664,1.207 3.977,1.8 1.289,0.645 2.582,1.239 3.816,1.899 2.473,1.305 4.836,2.637 6.989,4.031 1.074,0.695 2.132,1.363 3.093,2.094 0.977,0.707 1.934,1.379 2.785,2.109 1.762,1.391 3.254,2.809 4.536,4.11 0.617,0.668 1.199,1.3 1.734,1.879 0.488,0.628 0.934,1.199 1.336,1.722 0.848,1.012 1.312,1.946 1.719,2.528 0.379,0.601 0.578,0.921 0.578,0.921 0,0 -0.168,-0.336 -0.488,-0.968 -0.348,-0.618 -0.727,-1.61 -1.481,-2.703 -0.359,-0.563 -0.758,-1.184 -1.187,-1.864 -0.489,-0.64 -1.012,-1.336 -1.575,-2.074 -1.172,-1.441 -2.558,-3.035 -4.218,-4.621 -0.805,-0.828 -1.707,-1.613 -2.641,-2.43 -0.914,-0.84 -1.93,-1.621 -2.961,-2.437 -2.07,-1.637 -4.348,-3.231 -6.758,-4.805 -1.195,-0.793 -2.461,-1.527 -3.719,-2.312 -1.285,-0.735 -2.582,-1.481 -3.89,-2.227 -2.653,-1.437 -5.375,-2.852 -8.145,-4.168 -11.062,-5.301 -22.629,-9.43 -31.406,-12.187 -4.383,-1.383 -8.078,-2.434 -10.684,-3.137 -1.316,-0.344 -2.343,-0.613 -3.046,-0.801 -0.719,-0.176 -1.106,-0.269 -1.106,-0.269 l -1.726,9.007" /><path
         id="path24"
         style="fill:#ffffff;fill-opacity:1;fill-rule:evenodd;stroke:none"
         d="m 678.09,182.66 c 0,0 25.941,3.008 50.469,21.278 L 678.09,182.66" /><path
         id="path26"
         style="fill:#1f222c;fill-opacity:1;fill-rule:evenodd;stroke:none"
         d="m 677.52,187.211 c 0,0 0.199,0.008 0.57,0.027 0.328,0.008 0.883,0.051 1.594,0.11 1.421,0.136 3.484,0.336 5.961,0.738 1.242,0.172 2.578,0.449 4.003,0.691 1.411,0.309 2.915,0.582 4.454,0.969 1.535,0.371 3.132,0.754 4.73,1.223 1.621,0.426 3.238,0.941 4.856,1.469 1.628,0.484 3.21,1.117 4.8,1.671 1.59,0.555 3.094,1.243 4.59,1.829 1.504,0.585 2.871,1.3 4.227,1.902 1.351,0.598 2.586,1.25 3.73,1.848 1.137,0.609 2.211,1.128 3.121,1.66 0.907,0.531 1.696,0.996 2.348,1.382 1.312,0.77 2.055,1.208 2.055,1.208 0,0 -0.664,-0.559 -1.825,-1.532 -0.582,-0.484 -1.293,-1.082 -2.105,-1.761 -0.816,-0.68 -1.793,-1.368 -2.828,-2.165 -1.047,-0.792 -2.176,-1.66 -3.43,-2.48 -1.25,-0.828 -2.531,-1.789 -3.945,-2.629 -1.406,-0.844 -2.824,-1.805 -4.344,-2.633 -1.516,-0.836 -3.031,-1.75 -4.613,-2.527 -1.567,-0.816 -3.145,-1.625 -4.735,-2.34 -1.574,-0.762 -3.152,-1.433 -4.687,-2.082 -1.531,-0.668 -3.047,-1.219 -4.477,-1.789 -1.445,-0.508 -2.8,-1.031 -4.09,-1.43 -2.546,-0.863 -4.734,-1.457 -6.289,-1.867 -0.781,-0.199 -1.394,-0.351 -1.871,-0.449 -0.429,-0.094 -0.664,-0.141 -0.664,-0.141 l -1.136,9.098" /><path
         id="path28"
         style="fill:#ffffff;fill-opacity:1;fill-rule:evenodd;stroke:none"
         d="m 647.734,206.305 c 0,0 33.957,0.386 56.243,14.191 l -56.243,-14.191" /><path
         id="path30"
         style="fill:#1f222c;fill-opacity:1;fill-rule:evenodd;stroke:none"
         d="m 647.648,210.891 c 0,0 0.223,-0.012 0.637,-0.036 0.391,-0.023 0.973,-0.05 1.754,-0.074 1.547,-0.058 3.781,-0.086 6.469,-0.054 2.683,0.046 5.836,0.144 9.195,0.406 1.692,0.086 3.422,0.301 5.192,0.453 1.761,0.203 3.55,0.43 5.339,0.68 1.774,0.308 3.575,0.539 5.313,0.906 1.734,0.379 3.476,0.656 5.109,1.113 1.637,0.438 3.258,0.774 4.735,1.274 1.476,0.484 2.918,0.859 4.187,1.355 1.277,0.488 2.449,0.934 3.485,1.328 1.035,0.41 1.894,0.863 2.628,1.188 1.454,0.679 2.286,1.066 2.286,1.066 0,0 -0.762,-0.512 -2.094,-1.41 -0.672,-0.434 -1.469,-1.027 -2.434,-1.598 -0.98,-0.562 -2.086,-1.195 -3.289,-1.883 -1.207,-0.703 -2.582,-1.304 -4.008,-2.031 -1.418,-0.746 -2.988,-1.34 -4.589,-2.047 -1.594,-0.726 -3.309,-1.285 -5.024,-1.953 -1.719,-0.652 -3.504,-1.176 -5.277,-1.781 -1.785,-0.539 -3.586,-1.063 -5.356,-1.555 -1.785,-0.437 -3.535,-0.941 -5.254,-1.308 -3.418,-0.809 -6.64,-1.422 -9.422,-1.907 -2.781,-0.476 -5.117,-0.812 -6.773,-1.011 -0.816,-0.102 -1.492,-0.176 -1.965,-0.223 -0.441,-0.043 -0.676,-0.07 -0.676,-0.07 l -0.168,9.172" /><path
         id="path32"
         style="fill:#ffffff;fill-opacity:1;fill-rule:evenodd;stroke:none"
         d="m 666.418,193.738 c 0,0 16.082,-1.578 38.918,12.059 l -38.918,-12.059" /><path
         id="path34"
         style="fill:#1f222c;fill-opacity:1;fill-rule:evenodd;stroke:none"
         d="m 666.719,198.316 c 0,0 0.16,-0.027 0.461,-0.074 0.343,-0.066 0.617,-0.086 1.086,-0.152 0.437,-0.063 0.98,-0.145 1.726,-0.156 0.723,-0.032 1.535,-0.067 2.43,-0.106 0.91,0.031 1.898,0.063 2.941,0.098 1.055,-0.008 2.16,0.129 3.313,0.269 1.16,0.137 2.359,0.278 3.578,0.414 1.207,0.25 2.434,0.5 3.664,0.75 1.23,0.282 2.5,0.45 3.687,0.821 1.2,0.359 2.379,0.715 3.524,1.058 1.152,0.344 2.262,0.68 3.316,0.996 1.039,0.375 1.993,0.789 2.891,1.141 3.602,1.449 6,2.422 6,2.422 0.008,0 -2.137,-1.481 -5.344,-3.695 -0.808,-0.551 -1.679,-1.18 -2.629,-1.786 -0.984,-0.554 -2.015,-1.14 -3.086,-1.742 -1.082,-0.609 -2.199,-1.238 -3.336,-1.879 -1.132,-0.652 -2.375,-1.113 -3.582,-1.687 -1.222,-0.551 -2.445,-1.102 -3.644,-1.641 -1.254,-0.441 -2.488,-0.871 -3.684,-1.293 -1.199,-0.429 -2.363,-0.84 -3.515,-1.101 -1.149,-0.297 -2.231,-0.578 -3.235,-0.84 -1.023,-0.207 -1.984,-0.363 -2.832,-0.516 -0.816,-0.164 -1.64,-0.246 -2.336,-0.301 -0.66,-0.058 -1.273,-0.117 -1.531,-0.125 -0.305,-0.019 -0.465,-0.027 -0.465,-0.027 l 0.602,9.152" /><path
         id="path36"
         style="fill:#1f222c;fill-opacity:1;fill-rule:evenodd;stroke:none"
         d="m 687.227,162.75 c 0,-7.863 0,-18.785 0,-18.785 l -29.481,-13.102 -1.641,16.598 31.122,15.289" /><path
         id="path38"
         style="fill:#ffffff;fill-opacity:1;fill-rule:evenodd;stroke:none"
         d="m 279.242,237.293 c -122.445,-48.09 -213.8787,22.684 -219.7693,73.344 0,0 -7.3594,-25.348 -1.1993,-53.496 5.3516,-24.446 18.0508,-36.215 18.0508,-36.215 0,0 -30.0976,10.894 -68.1992,59.07 C 17.8945,152.355 140.039,138.445 173.566,135.43 l 105.676,101.863" /><g
         id="g40"><path
           id="path42"
           style="fill:none;stroke:#212a36;stroke-width:7.86203003;stroke-linecap:square;stroke-linejoin:miter;stroke-miterlimit:10;stroke-dasharray:none;stroke-opacity:1"
           d="m 279.242,237.293 c -122.445,-48.09 -213.8788,22.684 -219.7694,73.344 0,0 -7.3594,-25.348 -1.1992,-53.496 5.3516,-24.446 18.0508,-36.215 18.0508,-36.215 0,0 -30.0977,10.894 -68.19921,59.07 C 17.8945,152.356 140.039,138.445 173.566,135.43" /></g><path
         id="path44"
         style="fill:#ffffff;fill-opacity:1;fill-rule:evenodd;stroke:none"
         d="m 148.664,160.566 c 0,0 -69.4531,13.106 -84.1718,42.5 l 84.1718,-42.5" /><path
         id="path46"
         style="fill:#1f222c;fill-opacity:1;fill-rule:evenodd;stroke:none"
         d="m 147.797,156.063 c 0,0 -0.383,0.093 -1.106,0.269 -0.703,0.188 -1.734,0.457 -3.043,0.801 -2.609,0.703 -6.3,1.754 -10.687,3.137 -8.777,2.757 -20.34,6.886 -31.406,12.187 -2.7659,1.316 -5.4925,2.731 -8.1448,4.168 -1.3086,0.746 -2.6094,1.492 -3.8946,2.227 -1.2539,0.785 -2.5156,1.519 -3.7148,2.312 -2.4063,1.574 -4.6914,3.168 -6.7578,4.805 -1.0313,0.816 -2.043,1.597 -2.9571,2.437 -0.9336,0.817 -1.8398,1.602 -2.6406,2.43 -1.664,1.586 -3.0469,3.18 -4.2187,4.621 -0.5625,0.742 -1.0899,1.434 -1.5743,2.074 -0.4335,0.68 -0.832,1.301 -1.1875,1.864 -0.7578,1.093 -1.1328,2.085 -1.4843,2.703 -0.3203,0.632 -0.4883,0.968 -0.4883,0.968 0,0 0.2031,-0.32 0.5781,-0.921 0.4063,-0.582 0.8672,-1.516 1.7188,-2.528 0.4062,-0.519 0.8515,-1.094 1.3398,-1.722 0.5352,-0.579 1.1133,-1.211 1.7344,-1.879 1.2773,-1.301 2.7734,-2.719 4.5351,-4.11 0.8477,-0.73 1.8008,-1.402 2.7813,-2.109 0.9648,-0.731 2.0195,-1.399 3.0976,-2.094 2.1485,-1.394 4.5118,-2.726 6.9883,-4.031 1.2305,-0.66 2.5274,-1.254 3.8125,-1.899 1.3086,-0.593 2.6407,-1.195 3.9805,-1.8 2.707,-1.149 5.4724,-2.274 8.2814,-3.289 11.223,-4.125 22.844,-7.067 31.598,-8.93 4.378,-0.941 8.042,-1.617 10.601,-2.051 1.277,-0.207 2.277,-0.371 2.961,-0.484 0.672,-0.094 1.023,-0.149 1.023,-0.149 l -1.726,-9.007" /><path
         id="path48"
         style="fill:#ffffff;fill-opacity:1;fill-rule:evenodd;stroke:none"
         d="m 139.457,182.66 c 0,0 -25.941,3.008 -50.4726,21.278 L 139.457,182.66" /><path
         id="path50"
         style="fill:#1f222c;fill-opacity:1;fill-rule:evenodd;stroke:none"
         d="m 138.883,178.113 c 0,0 -0.231,0.047 -0.656,0.141 -0.477,0.098 -1.094,0.25 -1.875,0.449 -1.551,0.41 -3.739,1.004 -6.289,1.867 -1.286,0.399 -2.641,0.922 -4.094,1.43 -1.426,0.57 -2.942,1.121 -4.473,1.789 -1.535,0.649 -3.117,1.32 -4.687,2.082 -1.59,0.715 -3.164,1.524 -4.735,2.34 -1.582,0.777 -3.097,1.691 -4.613,2.527 -1.52,0.828 -2.938,1.789 -4.344,2.633 -1.41,0.84 -2.691,1.801 -3.9451,2.629 -1.2539,0.82 -2.3828,1.688 -3.4258,2.48 -1.0391,0.797 -2.0117,1.485 -2.832,2.165 -0.8125,0.679 -1.5196,1.277 -2.1016,1.761 -1.1641,0.973 -1.8281,1.532 -1.8281,1.532 0,0 0.7461,-0.438 2.0547,-1.208 0.6484,-0.386 1.4453,-0.851 2.3515,-1.382 0.9024,-0.532 1.9805,-1.051 3.1172,-1.66 1.1445,-0.598 2.375,-1.254 3.7302,-1.848 1.352,-0.598 2.727,-1.317 4.231,-1.902 1.496,-0.586 2.996,-1.274 4.586,-1.829 1.59,-0.554 3.168,-1.187 4.804,-1.671 1.618,-0.528 3.235,-1.043 4.852,-1.469 1.602,-0.469 3.195,-0.852 4.734,-1.223 1.535,-0.387 3.043,-0.66 4.45,-0.969 1.425,-0.242 2.761,-0.519 4.003,-0.691 2.481,-0.402 4.54,-0.602 5.961,-0.738 0.711,-0.059 1.266,-0.102 1.594,-0.11 0.375,-0.019 0.57,-0.027 0.57,-0.027 l -1.14,-9.098" /><path
         id="path52"
         style="fill:#ffffff;fill-opacity:1;fill-rule:evenodd;stroke:none"
         d="m 169.813,206.305 c 0,0 -33.961,0.386 -56.247,14.191 l 56.247,-14.191" /><path
         id="path54"
         style="fill:#1f222c;fill-opacity:1;fill-rule:evenodd;stroke:none"
         d="m 169.73,201.723 c 0,0 -0.238,0.023 -0.683,0.066 -0.469,0.047 -1.145,0.121 -1.957,0.223 -1.66,0.199 -3.996,0.535 -6.777,1.011 -2.778,0.485 -6.004,1.098 -9.422,1.907 -1.715,0.367 -3.469,0.871 -5.25,1.308 -1.778,0.492 -3.571,1.016 -5.356,1.555 -1.777,0.605 -3.562,1.129 -5.281,1.781 -1.719,0.668 -3.426,1.227 -5.024,1.953 -1.601,0.707 -3.171,1.301 -4.589,2.047 -1.426,0.727 -2.805,1.328 -4.004,2.031 -1.207,0.688 -2.313,1.321 -3.289,1.883 -0.969,0.571 -1.762,1.164 -2.434,1.598 -1.336,0.898 -2.098,1.41 -2.098,1.41 0,0 0.832,-0.387 2.289,-1.066 0.731,-0.325 1.59,-0.778 2.625,-1.188 1.04,-0.394 2.208,-0.84 3.489,-1.328 1.265,-0.496 2.711,-0.871 4.187,-1.355 1.473,-0.5 3.094,-0.836 4.731,-1.274 1.629,-0.457 3.375,-0.734 5.109,-1.113 1.738,-0.367 3.539,-0.598 5.313,-0.906 1.789,-0.25 3.578,-0.477 5.339,-0.68 1.774,-0.152 3.5,-0.367 5.188,-0.453 3.363,-0.262 6.512,-0.36 9.199,-0.406 2.688,-0.032 4.926,-0.004 6.465,0.054 0.785,0.024 1.367,0.051 1.758,0.074 0.414,0.024 0.633,0.036 0.633,0.036 l -0.161,-9.168" /><path
         id="path56"
         style="fill:#ffffff;fill-opacity:1;fill-rule:evenodd;stroke:none"
         d="m 151.125,193.738 c 0,0 -16.078,-1.578 -38.922,12.059 l 38.922,-12.059" /><path
         id="path58"
         style="fill:#1f222c;fill-opacity:1;fill-rule:evenodd;stroke:none"
         d="m 151.43,189.164 c 0,0 -0.16,0.008 -0.469,0.027 -0.258,0.008 -0.871,0.067 -1.531,0.125 -0.692,0.055 -1.52,0.137 -2.336,0.301 -0.852,0.153 -1.809,0.309 -2.832,0.516 -1,0.262 -2.09,0.543 -3.235,0.84 -1.152,0.261 -2.316,0.672 -3.515,1.101 -1.196,0.422 -2.43,0.852 -3.68,1.293 -1.203,0.539 -2.426,1.09 -3.648,1.641 -1.207,0.574 -2.446,1.035 -3.582,1.687 -1.137,0.641 -2.254,1.27 -3.336,1.879 -1.067,0.602 -2.106,1.188 -3.086,1.742 -0.953,0.606 -1.817,1.235 -2.629,1.786 -3.207,2.214 -5.348,3.695 -5.348,3.695 0,0 2.406,-0.973 6.004,-2.422 0.902,-0.352 1.856,-0.766 2.887,-1.141 1.058,-0.316 2.172,-0.652 3.324,-0.996 1.141,-0.343 2.32,-0.699 3.52,-1.058 1.187,-0.371 2.46,-0.539 3.687,-0.821 1.23,-0.25 2.457,-0.5 3.668,-0.75 1.215,-0.136 2.414,-0.277 3.574,-0.414 1.153,-0.14 2.262,-0.277 3.317,-0.269 1.043,-0.035 2.027,-0.067 2.937,-0.098 0.891,0.039 1.707,0.074 2.43,0.106 0.75,0.011 1.289,0.093 1.73,0.156 0.465,0.07 0.742,0.082 1.082,0.152 0.301,0.047 0.461,0.074 0.461,0.074 l 0.606,-9.152" /><path
         id="path60"
         style="fill:#1f222c;fill-opacity:1;fill-rule:evenodd;stroke:none"
         d="m 130.316,162.75 c 0,-7.863 0,-18.785 0,-18.785 l 29.485,-13.102 1.637,16.598 -31.122,15.289" /><path
         id="path62"
         style="fill:#f0dbb2;fill-opacity:1;fill-rule:evenodd;stroke:none"
         d="m 160.852,133.043 0.554,10.984 c 0.032,0.602 2.883,61.407 -7.968,139 -9.891,70.723 -33.516,170.36 -89.8833,243.411 l -10.9727,14.21 142.906,97.383 -24.351,69.887 5.965,7.328 c 2.574,3.168 65.007,80.106 232.324,80.106 167.324,0 229.754,-76.938 232.328,-80.106 l 5.965,-7.328 -24.352,-69.887 142.903,-97.383 -10.969,-14.207 C 698.938,453.391 675.309,353.75 665.414,283.027 654.559,205.434 657.406,144.629 657.441,144.023 l 0.543,-10.98 -9.808,-4.965 L 409.406,7.25 160.852,133.043" /><g
         id="g64"><path
           id="path66"
           style="fill:none;stroke:#1f222c;stroke-width:3.93102002;stroke-linecap:square;stroke-linejoin:miter;stroke-miterlimit:10;stroke-dasharray:none;stroke-opacity:1"
           d="m 160.851,133.043 0.555,10.984 c 0.031,0.602 2.883,61.407 -7.969,139.001 -9.89,70.722 -33.515,170.359 -89.8824,243.41 l -10.9726,14.211 142.906,97.383 -24.351,69.887 5.964,7.328 c 2.575,3.168 65.008,80.105 232.324,80.105 167.325,0 229.754,-76.937 232.328,-80.105 l 5.965,-7.328 L 623.367,638.032 766.269,540.649 755.3,526.442 C 698.937,453.391 675.308,353.75 665.414,283.028 654.558,205.434 657.406,144.629 657.441,144.024 l 0.543,-10.981 -9.809,-4.965 L 409.406,7.25001 Z" /></g><path
         id="path68"
         style="fill:#ffffff;fill-opacity:1;fill-rule:evenodd;stroke:none"
         d="m 744.125,537.691 -139.715,95.204 25.684,73.703 c 0,0 -58.391,74.34 -220.668,74.34 -162.274,0 -220.664,-74.344 -220.664,-74.344 L 214.445,632.895 74.7305,537.691 C 189.254,389.277 176.762,141.465 176.762,141.465 L 409.41,23.7227 642.082,141.465 c 0,0 -12.48,247.812 102.043,396.226" /><path
         id="path70"
         style="fill:#ffffff;fill-opacity:1;fill-rule:evenodd;stroke:none"
         d="M 201.078,129.16 V 226.086 129.16" /><path
         id="path72"
         style="fill:#1f222c;fill-opacity:1;fill-rule:evenodd;stroke:none"
         d="m 197.641,130.895 3.437,95.191 3.563,-98.731 -7,3.54" /><path
         id="path74"
         style="fill:#ffffff;fill-opacity:1;fill-rule:evenodd;stroke:none"
         d="m 218.109,120.539 v 62.305 -62.305" /><path
         id="path76"
         style="fill:#1f222c;fill-opacity:1;fill-rule:evenodd;stroke:none"
         d="m 214.988,122.121 3.121,60.723 3.297,-63.973 -6.418,3.25" /><path
         id="path78"
         style="fill:#ffffff;fill-opacity:1;fill-rule:evenodd;stroke:none"
         d="M 236.457,111.25 V 198.566 111.25" /><path
         id="path80"
         style="fill:#1f222c;fill-opacity:1;fill-rule:evenodd;stroke:none"
         d="m 233.363,112.82 3.094,85.746 3.211,-88.937 -6.305,3.191" /><path
         id="path82"
         style="fill:#ffffff;fill-opacity:1;fill-rule:evenodd;stroke:none"
         d="m 253.488,102.633 v 52.691 -52.691" /><path
         id="path84"
         style="fill:#1f222c;fill-opacity:1;fill-rule:evenodd;stroke:none"
         d="m 250.848,103.969 2.64,51.355 2.789,-54.101 -5.429,2.746" /><path
         id="path86"
         style="fill:#ffffff;fill-opacity:1;fill-rule:evenodd;stroke:none"
         d="M 271.836,93.3477 V 171.047 93.3477" /><path
         id="path88"
         style="fill:#1f222c;fill-opacity:1;fill-rule:evenodd;stroke:none"
         d="m 269.082,94.7383 2.754,76.3087 2.855,-79.1447 -5.609,2.836" /><path
         id="path90"
         style="fill:#ffffff;fill-opacity:1;fill-rule:evenodd;stroke:none"
         d="M 288.871,84.7266 V 127.805 84.7266" /><path
         id="path92"
         style="fill:#1f222c;fill-opacity:1;fill-rule:evenodd;stroke:none"
         d="m 286.711,85.8203 2.16,41.9847 2.277,-44.2308 -4.437,2.2461" /><path
         id="path94"
         style="fill:#ffffff;fill-opacity:1;fill-rule:evenodd;stroke:none"
         d="M 307.219,75.4414 V 143.531 75.4414" /><path
         id="path96"
         style="fill:#1f222c;fill-opacity:1;fill-rule:evenodd;stroke:none"
         d="m 304.805,76.6641 2.414,66.8669 2.504,-69.3552 -4.918,2.4883" /><path
         id="path98"
         style="fill:#ffffff;fill-opacity:1;fill-rule:evenodd;stroke:none"
         d="M 324.25,66.8203 V 100.289 66.8203" /><path
         id="path100"
         style="fill:#1f222c;fill-opacity:1;fill-rule:evenodd;stroke:none"
         d="m 322.574,67.668 1.676,32.621 1.77,-34.3632 -3.446,1.7422" /><path
         id="path102"
         style="fill:#ffffff;fill-opacity:1;fill-rule:evenodd;stroke:none"
         d="M 342.598,57.5352 V 116.016 57.5352" /><path
         id="path104"
         style="fill:#1f222c;fill-opacity:1;fill-rule:evenodd;stroke:none"
         d="m 340.527,58.582 2.071,57.434 2.148,-59.5668 -4.219,2.1328" /><path
         id="path106"
         style="fill:#ffffff;fill-opacity:1;fill-rule:evenodd;stroke:none"
         d="M 359.633,48.9141 V 72.7734 48.9141" /><path
         id="path108"
         style="fill:#1f222c;fill-opacity:1;fill-rule:evenodd;stroke:none"
         d="m 358.438,49.5234 1.195,23.25 1.258,-24.4961 -2.453,1.2461" /><path
         id="path110"
         style="fill:#ffffff;fill-opacity:1;fill-rule:evenodd;stroke:none"
         d="M 377.977,39.6328 V 88.4961 39.6328" /><path
         id="path112"
         style="fill:#1f222c;fill-opacity:1;fill-rule:evenodd;stroke:none"
         d="m 376.25,40.5078 1.727,47.9883 1.796,-49.7734 -3.523,1.7851" /><path
         id="path114"
         style="fill:#ffffff;fill-opacity:1;fill-rule:evenodd;stroke:none"
         d="M 395.012,31.0078 V 45.2539 31.0078" /><path
         id="path116"
         style="fill:#1f222c;fill-opacity:1;fill-rule:evenodd;stroke:none"
         d="m 394.297,31.3711 0.715,13.8828 0.754,-14.625 -1.469,0.7422" /><path
         id="path118"
         style="fill:#ffffff;fill-opacity:1;fill-rule:evenodd;stroke:none"
         d="M 615.156,127.84 V 226.086 127.84" /><path
         id="path120"
         style="fill:#1f222c;fill-opacity:1;fill-rule:evenodd;stroke:none"
         d="m 611.547,126.012 3.609,100.074 3.481,-96.484 -7.09,-3.59" /><path
         id="path122"
         style="fill:#ffffff;fill-opacity:1;fill-rule:evenodd;stroke:none"
         d="m 598.121,119.219 v 63.625 -63.625" /><path
         id="path124"
         style="fill:#1f222c;fill-opacity:1;fill-rule:evenodd;stroke:none"
         d="m 594.758,117.516 3.363,65.328 3.192,-62.012 -6.555,-3.316" /><path
         id="path126"
         style="fill:#ffffff;fill-opacity:1;fill-rule:evenodd;stroke:none"
         d="m 579.777,109.938 v 88.628 -88.628" /><path
         id="path128"
         style="fill:#1f222c;fill-opacity:1;fill-rule:evenodd;stroke:none"
         d="m 576.52,108.285 3.257,90.281 3.137,-87.043 -6.394,-3.238" /><path
         id="path130"
         style="fill:#ffffff;fill-opacity:1;fill-rule:evenodd;stroke:none"
         d="m 562.742,101.316 v 54.008 -54.008" /><path
         id="path132"
         style="fill:#1f222c;fill-opacity:1;fill-rule:evenodd;stroke:none"
         d="m 559.887,99.8711 2.855,55.4529 2.711,-52.64 -5.566,-2.8129" /><path
         id="path134"
         style="fill:#ffffff;fill-opacity:1;fill-rule:evenodd;stroke:none"
         d="M 544.395,92.0313 V 171.047 92.0313" /><path
         id="path136"
         style="fill:#1f222c;fill-opacity:1;fill-rule:evenodd;stroke:none"
         d="m 541.492,90.5625 2.903,80.4845 2.8,-77.5978 -5.703,-2.8867" /><path
         id="path138"
         style="fill:#ffffff;fill-opacity:1;fill-rule:evenodd;stroke:none"
         d="M 527.363,83.4141 V 127.805 83.4141" /><path
         id="path140"
         style="fill:#1f222c;fill-opacity:1;fill-rule:evenodd;stroke:none"
         d="m 525.016,82.2266 2.347,45.5784 2.227,-43.2659 -4.574,-2.3125" /><path
         id="path142"
         style="fill:#ffffff;fill-opacity:1;fill-rule:evenodd;stroke:none"
         d="M 509.016,74.1289 V 143.531 74.1289" /><path
         id="path144"
         style="fill:#1f222c;fill-opacity:1;fill-rule:evenodd;stroke:none"
         d="m 506.465,72.8359 2.551,70.6951 2.461,-68.1599 -5.012,-2.5352" /><path
         id="path146"
         style="fill:#ffffff;fill-opacity:1;fill-rule:evenodd;stroke:none"
         d="M 491.98,65.5078 V 100.289 65.5078" /><path
         id="path148"
         style="fill:#1f222c;fill-opacity:1;fill-rule:evenodd;stroke:none"
         d="m 490.145,64.5781 1.835,35.7109 1.747,-33.8984 -3.582,-1.8125" /><path
         id="path150"
         style="fill:#ffffff;fill-opacity:1;fill-rule:evenodd;stroke:none"
         d="M 473.633,56.2266 V 116.016 56.2266" /><path
         id="path152"
         style="fill:#1f222c;fill-opacity:1;fill-rule:evenodd;stroke:none"
         d="m 471.438,55.1133 2.195,60.9027 2.121,-58.7191 -4.316,-2.1836" /><path
         id="path154"
         style="fill:#ffffff;fill-opacity:1;fill-rule:evenodd;stroke:none"
         d="M 456.602,47.6055 V 72.7734 47.6055" /><path
         id="path156"
         style="fill:#1f222c;fill-opacity:1;fill-rule:evenodd;stroke:none"
         d="m 455.273,46.9297 1.329,25.8437 1.261,-24.5312 -2.59,-1.3125" /><path
         id="path158"
         style="fill:#ffffff;fill-opacity:1;fill-rule:evenodd;stroke:none"
         d="M 438.254,38.3203 V 88.4961 38.3203" /><path
         id="path160"
         style="fill:#1f222c;fill-opacity:1;fill-rule:evenodd;stroke:none"
         d="m 436.41,37.3906 1.844,51.1055 1.777,-49.2773 -3.621,-1.8282" /><path
         id="path162"
         style="fill:#ffffff;fill-opacity:1;fill-rule:evenodd;stroke:none"
         d="M 421.223,29.7031 V 45.2539 29.7031" /><path
         id="path164"
         style="fill:#1f222c;fill-opacity:1;fill-rule:evenodd;stroke:none"
         d="m 420.402,29.2852 0.821,15.9687 0.781,-15.1562 -1.602,-0.8125" /><path
         id="path166"
         style="fill:#ffffff;fill-opacity:1;fill-rule:evenodd;stroke:none"
         d="M 660.84,344.02 H 609.914 660.84" /><path
         id="path168"
         style="fill:#1f222c;fill-opacity:1;fill-rule:evenodd;stroke:none"
         d="m 660.441,342.195 -50.527,1.825 51.328,1.851 c -0.273,-1.23 -0.535,-2.449 -0.801,-3.676" /><path
         id="path170"
         style="fill:#ffffff;fill-opacity:1;fill-rule:evenodd;stroke:none"
         d="m 664.785,361.055 h -11.629 11.629" /><path
         id="path172"
         style="fill:#1f222c;fill-opacity:1;fill-rule:evenodd;stroke:none"
         d="m 664.641,360.461 -11.485,0.594 11.774,0.605 c -0.098,-0.402 -0.192,-0.797 -0.289,-1.199" /><path
         id="path174"
         style="fill:#ffffff;fill-opacity:1;fill-rule:evenodd;stroke:none"
         d="m 669.539,379.398 h -32.105 32.105" /><path
         id="path176"
         style="fill:#1f222c;fill-opacity:1;fill-rule:evenodd;stroke:none"
         d="m 669.23,378.254 -31.796,1.144 32.429,1.168 c -0.215,-0.773 -0.418,-1.543 -0.633,-2.312" /><path
         id="path178"
         style="fill:#ffffff;fill-opacity:1;fill-rule:evenodd;stroke:none"
         d="m 680.426,414.781 h -15.477 15.477" /><path
         id="path180"
         style="fill:#1f222c;fill-opacity:1;fill-rule:evenodd;stroke:none"
         d="m 680.234,414.227 -15.285,0.554 15.672,0.563 c -0.129,-0.371 -0.262,-0.742 -0.387,-1.117" /><path
         id="path182"
         style="fill:#ffffff;fill-opacity:1;fill-rule:evenodd;stroke:none"
         d="M 686.566,431.813 H 657.09 686.566" /><path
         id="path184"
         style="fill:#1f222c;fill-opacity:1;fill-rule:evenodd;stroke:none"
         d="m 685.996,430.324 -28.906,1.489 30.074,1.546 c -0.387,-1.011 -0.785,-2.019 -1.168,-3.035" /><path
         id="path186"
         style="fill:#ffffff;fill-opacity:1;fill-rule:evenodd;stroke:none"
         d="m 693.941,450.16 h -52.578 52.578" /><path
         id="path188"
         style="fill:#1f222c;fill-opacity:1;fill-rule:evenodd;stroke:none"
         d="m 693.148,448.289 -51.785,1.871 53.395,1.926 c -0.543,-1.266 -1.078,-2.527 -1.61,-3.797" /><path
         id="path190"
         style="fill:#ffffff;fill-opacity:1;fill-rule:evenodd;stroke:none"
         d="M 701.57,467.195 H 684.605 701.57" /><path
         id="path192"
         style="fill:#1f222c;fill-opacity:1;fill-rule:evenodd;stroke:none"
         d="m 701.172,466.344 -16.567,0.851 17.387,0.891 c -0.273,-0.578 -0.547,-1.164 -0.82,-1.742" /><path
         id="path194"
         style="fill:#ffffff;fill-opacity:1;fill-rule:evenodd;stroke:none"
         d="m 710.746,485.539 h -41.863 41.863" /><path
         id="path196"
         style="fill:#1f222c;fill-opacity:1;fill-rule:evenodd;stroke:none"
         d="m 709.977,484.055 -41.094,1.484 42.695,1.543 c -0.539,-1.008 -1.07,-2.016 -1.601,-3.027" /><path
         id="path198"
         style="fill:#ffffff;fill-opacity:1;fill-rule:evenodd;stroke:none"
         d="m 720.344,502.574 h -8.219 8.219" /><path
         id="path200"
         style="fill:#1f222c;fill-opacity:1;fill-rule:evenodd;stroke:none"
         d="m 720.098,502.164 -7.973,0.41 8.484,0.438 c -0.171,-0.285 -0.347,-0.567 -0.511,-0.848" /><path
         id="path202"
         style="fill:#ffffff;fill-opacity:1;fill-rule:evenodd;stroke:none"
         d="m 732.023,520.918 h -35.621 35.621" /><path
         id="path204"
         style="fill:#1f222c;fill-opacity:1;fill-rule:evenodd;stroke:none"
         d="m 731.176,519.664 -34.774,1.254 36.508,1.316 c -0.586,-0.851 -1.156,-1.711 -1.734,-2.57" /><path
         id="path206"
         style="fill:#ffffff;fill-opacity:1;fill-rule:evenodd;stroke:none"
         d="m 743.734,537.953 h -4.089 4.089" /><path
         id="path208"
         style="fill:#1f222c;fill-opacity:1;fill-rule:evenodd;stroke:none"
         d="m 744.066,537.727 -4.421,0.226 3.804,0.195 0.617,-0.421" /><path
         id="path210"
         style="fill:#ffffff;fill-opacity:1;fill-rule:evenodd;stroke:none"
         d="m 650.508,286.363 h -35.352 35.352" /><path
         id="path212"
         style="fill:#1f222c;fill-opacity:1;fill-rule:evenodd;stroke:none"
         d="m 650.246,284.555 -35.09,1.808 35.614,1.832 c -0.172,-1.211 -0.356,-2.433 -0.524,-3.64" /><path
         id="path214"
         style="fill:#ffffff;fill-opacity:1;fill-rule:evenodd;stroke:none"
         d="M 653.32,304.707 H 599.434 653.32" /><path
         id="path216"
         style="fill:#1f222c;fill-opacity:1;fill-rule:evenodd;stroke:none"
         d="m 653.008,302.773 -53.574,1.934 54.203,1.957 c -0.219,-1.305 -0.422,-2.594 -0.629,-3.891" /><path
         id="path218"
         style="fill:#ffffff;fill-opacity:1;fill-rule:evenodd;stroke:none"
         d="m 656.316,321.742 h -13.64 13.64" /><path
         id="path220"
         style="fill:#1f222c;fill-opacity:1;fill-rule:evenodd;stroke:none"
         d="m 656.191,321.047 -13.515,0.695 13.769,0.707 c -0.09,-0.469 -0.172,-0.933 -0.254,-1.402" /><path
         id="path222"
         style="fill:#ffffff;fill-opacity:1;fill-rule:evenodd;stroke:none"
         d="m 158.012,344.02 h 50.926 -50.926" /><path
         id="path224"
         style="fill:#1f222c;fill-opacity:1;fill-rule:evenodd;stroke:none"
         d="m 157.609,345.871 51.329,-1.851 -50.528,-1.825 c -0.265,1.227 -0.527,2.446 -0.801,3.676" /><path
         id="path226"
         style="fill:#ffffff;fill-opacity:1;fill-rule:evenodd;stroke:none"
         d="m 154.066,361.055 h 11.629 -11.629" /><path
         id="path228"
         style="fill:#1f222c;fill-opacity:1;fill-rule:evenodd;stroke:none"
         d="m 153.922,361.66 11.773,-0.605 -11.484,-0.594 c -0.098,0.402 -0.191,0.797 -0.289,1.199" /><path
         id="path230"
         style="fill:#ffffff;fill-opacity:1;fill-rule:evenodd;stroke:none"
         d="m 149.313,379.398 h 32.105 -32.105" /><path
         id="path232"
         style="fill:#1f222c;fill-opacity:1;fill-rule:evenodd;stroke:none"
         d="m 148.988,380.566 32.43,-1.168 -31.797,-1.144 c -0.215,0.769 -0.418,1.539 -0.633,2.312" /><path
         id="path234"
         style="fill:#ffffff;fill-opacity:1;fill-rule:evenodd;stroke:none"
         d="m 138.426,414.781 h 15.48 -15.48" /><path
         id="path236"
         style="fill:#1f222c;fill-opacity:1;fill-rule:evenodd;stroke:none"
         d="m 138.23,415.344 15.676,-0.563 -15.289,-0.554 c -0.125,0.375 -0.258,0.746 -0.387,1.117" /><path
         id="path238"
         style="fill:#ffffff;fill-opacity:1;fill-rule:evenodd;stroke:none"
         d="m 132.285,431.813 h 29.477 -29.477" /><path
         id="path240"
         style="fill:#1f222c;fill-opacity:1;fill-rule:evenodd;stroke:none"
         d="m 131.691,433.359 30.071,-1.546 -28.907,-1.489 c -0.378,1.016 -0.773,2.024 -1.164,3.035" /><path
         id="path242"
         style="fill:#ffffff;fill-opacity:1;fill-rule:evenodd;stroke:none"
         d="m 124.914,450.16 h 52.578 -52.578" /><path
         id="path244"
         style="fill:#1f222c;fill-opacity:1;fill-rule:evenodd;stroke:none"
         d="m 124.094,452.086 53.398,-1.926 -51.789,-1.871 c -0.527,1.27 -1.062,2.531 -1.609,3.797" /><path
         id="path246"
         style="fill:#ffffff;fill-opacity:1;fill-rule:evenodd;stroke:none"
         d="M 117.285,467.195 H 134.25 117.285" /><path
         id="path248"
         style="fill:#1f222c;fill-opacity:1;fill-rule:evenodd;stroke:none"
         d="m 116.863,468.086 17.387,-0.891 -16.566,-0.851 c -0.278,0.578 -0.543,1.164 -0.821,1.742" /><path
         id="path250"
         style="fill:#ffffff;fill-opacity:1;fill-rule:evenodd;stroke:none"
         d="m 108.105,485.539 h 41.868 -41.868" /><path
         id="path252"
         style="fill:#1f222c;fill-opacity:1;fill-rule:evenodd;stroke:none"
         d="m 107.277,487.082 42.696,-1.543 -41.094,-1.484 c -0.535,1.011 -1.063,2.019 -1.602,3.027" /><path
         id="path254"
         style="fill:#ffffff;fill-opacity:1;fill-rule:evenodd;stroke:none"
         d="M 98.5078,502.574 H 106.73 98.5078" /><path
         id="path256"
         style="fill:#1f222c;fill-opacity:1;fill-rule:evenodd;stroke:none"
         d="m 98.2461,503.012 8.4839,-0.438 -7.9722,-0.41 c -0.168,0.281 -0.3398,0.563 -0.5117,0.848" /><path
         id="path258"
         style="fill:#ffffff;fill-opacity:1;fill-rule:evenodd;stroke:none"
         d="M 86.8359,520.918 H 122.453 86.8359" /><path
         id="path260"
         style="fill:#1f222c;fill-opacity:1;fill-rule:evenodd;stroke:none"
         d="m 85.9453,522.234 36.5077,-1.316 -34.7733,-1.254 c -0.5781,0.859 -1.1524,1.723 -1.7344,2.57" /><path
         id="path262"
         style="fill:#ffffff;fill-opacity:1;fill-rule:evenodd;stroke:none"
         d="m 75.1211,537.953 h 4.0898 -4.0898" /><path
         id="path264"
         style="fill:#1f222c;fill-opacity:1;fill-rule:evenodd;stroke:none"
         d="m 75.4063,538.148 3.8046,-0.195 -4.4257,-0.226 0.6211,0.421" /><path
         id="path266"
         style="fill:#ffffff;fill-opacity:1;fill-rule:evenodd;stroke:none"
         d="m 168.344,286.363 h 35.351 -35.351" /><path
         id="path268"
         style="fill:#1f222c;fill-opacity:1;fill-rule:evenodd;stroke:none"
         d="m 168.078,288.195 35.617,-1.832 -35.093,-1.808 c -0.168,1.207 -0.348,2.425 -0.524,3.64" /><path
         id="path270"
         style="fill:#ffffff;fill-opacity:1;fill-rule:evenodd;stroke:none"
         d="m 165.527,304.707 h 53.895 -53.895" /><path
         id="path272"
         style="fill:#1f222c;fill-opacity:1;fill-rule:evenodd;stroke:none"
         d="m 165.211,306.664 54.211,-1.957 -53.578,-1.934 c -0.211,1.297 -0.414,2.586 -0.633,3.891" /><path
         id="path274"
         style="fill:#ffffff;fill-opacity:1;fill-rule:evenodd;stroke:none"
         d="m 162.535,321.742 h 13.641 -13.641" /><path
         id="path276"
         style="fill:#1f222c;fill-opacity:1;fill-rule:evenodd;stroke:none"
         d="m 162.406,322.453 13.77,-0.711 -13.516,-0.695 c -0.086,0.469 -0.168,0.933 -0.254,1.406" /><path
         id="path278"
         style="fill:#009ebd;fill-opacity:1;fill-rule:evenodd;stroke:none"
         d="m 744.125,537.691 -139.715,95.204 25.684,73.703 c 0,0 -58.391,74.34 -220.668,74.34 -162.274,0 -220.664,-74.344 -220.664,-74.344 L 214.445,632.895 74.7305,537.691 C 189.254,389.277 176.762,141.465 176.762,141.465 L 409.41,23.7227 642.082,141.465 c 0,0 -12.48,247.812 102.043,396.226" /><g
         id="g280"><path
           id="path282"
           style="fill:none;stroke:#212a36;stroke-width:7.8653698;stroke-linecap:square;stroke-linejoin:miter;stroke-miterlimit:10;stroke-dasharray:none;stroke-opacity:1"
           d="m 744.124,537.692 -139.714,95.203 25.683,73.703 c 0,0 -58.39,74.34 -220.668,74.34 -162.273,0 -220.663,-74.344 -220.663,-74.344 L 214.445,632.895 74.7304,537.692 C 189.254,389.278 176.762,141.465 176.762,141.465 L 409.41,23.7227 642.082,141.465 c 0,0 -12.481,247.813 102.042,396.227 z" /></g><path
         id="path284"
         style="fill:#1f222c;fill-opacity:1;fill-rule:evenodd;stroke:none"
         d="m 351.77,451.469 h 115.313 v 22.2773 H 351.77 Z" /><path
         id="path286"
         style="fill:#ffffff;fill-opacity:1;fill-rule:evenodd;stroke:none"
         d="m 360.941,451.469 h 96.9688 v 22.2773 H 360.941 Z" /><path
         id="path288"
         style="fill:#1f222c;fill-opacity:1;fill-rule:evenodd;stroke:none"
         d="m 721.559,451.348 c 0,0 10.386,-4.157 13.316,-5.032 4.82,-1.437 9.531,0.082 12.902,6.055 3.286,5.832 1.95,10.32 0.477,14.375 -1.477,4.059 -18.426,4.942 -18.426,4.942 l -8.269,-20.34" /><path
         id="path290"
         style="fill:#ffffff;fill-opacity:1;fill-rule:evenodd;stroke:none"
         d="m 744.145,468.188 c 0,0 6.929,-6.372 1.644,-14.067 l -14.168,5.234 c 0,0 4.313,9.243 0.305,14.168 l 12.219,-5.335" /><path
         id="path292"
         style="fill:#ffffff;fill-opacity:1;fill-rule:evenodd;stroke:none"
         d="m 743.531,450.113 c 0,0 -3.082,-3.285 -7.187,-1.847 -4.106,1.437 -13.551,4.722 -13.551,4.722 l 4.719,3.289 16.019,-6.164" /><path
         id="path294"
         style="fill:#1f222c;fill-opacity:1;fill-rule:evenodd;stroke:none"
         d="m 90.5039,471.688 c 0,0 -15.8555,-1.106 -17.332,-5.161 -1.4727,-4.054 -2.8555,-9.359 1.1953,-14.89 4.0586,-5.532 6.4766,-6.422 11.5703,-5.219 4.1836,0.992 12.3828,4.621 12.3828,4.621 0,0 -7.1836,5.031 -9.6484,23.512 l 1.832,-2.863" /><path
         id="path296"
         style="fill:#ffffff;fill-opacity:1;fill-rule:evenodd;stroke:none"
         d="m 77.1719,468.188 c 0,0 -6.9258,-6.372 -1.6446,-14.067 l 14.1719,5.234 c 0,0 -4.3164,9.243 -0.3086,14.168 l -12.2187,-5.335" /><path
         id="path298"
         style="fill:#ffffff;fill-opacity:1;fill-rule:evenodd;stroke:none"
         d="m 77.7891,450.113 c 0,0 3.0781,-3.285 7.1836,-1.847 4.1093,1.437 13.5546,4.722 13.5546,4.722 l -4.7226,3.289 -16.0156,-6.164" /><path
         id="path300"
         style="fill:#212a36;fill-opacity:1;fill-rule:evenodd;stroke:none"
         d="m 520.773,391.773 c -39.82,33.922 -93.894,36.329 -110.609,36.329 -16.715,0.003 -70.789,-2.446 -110.609,-36.364 -39.821,-33.925 -39.328,-92.273 -19.668,-145.996 h 260.551 c 19.664,53.723 20.156,112.113 -19.665,146.031" /><path
         id="path302"
         style="fill:#ffffff;fill-opacity:1;fill-rule:evenodd;stroke:none"
         d="m 553.125,323.418 c -0.121,1.652 -0.27,3.297 -0.449,4.93 H 267.652 c -0.179,-1.633 -0.328,-3.278 -0.453,-4.93 h 285.926" /><path
         id="path304"
         style="fill:#ffffff;fill-opacity:1;fill-rule:evenodd;stroke:none"
         d="m 553.438,311.098 c 0.035,2.203 0.035,4.39 -0.032,6.574 H 266.922 c -0.067,-2.184 -0.067,-4.371 -0.035,-6.574 h 286.551" /><path
         id="path306"
         style="fill:#ffffff;fill-opacity:1;fill-rule:evenodd;stroke:none"
         d="m 335.266,246.539 -4.727,174.621 -23.992,-5.469 1.598,-169.152 h 27.121" /><path
         id="path308"
         style="fill:#1f222c;fill-opacity:1;fill-rule:evenodd;stroke:none"
         d="m 326.656,262.313 -4.312,-0.067 -2.598,163.59 4.313,0.066 2.597,-163.589" /><path
         id="path310"
         style="fill:#1f222c;fill-opacity:1;fill-rule:evenodd;stroke:none"
         d="m 319.258,263.77 -4.317,-0.067 -2.593,163.59 4.316,0.066 2.594,-163.589" /><path
         id="path312"
         style="fill:#ffffff;fill-opacity:1;fill-rule:evenodd;stroke:none"
         d="m 503.91,263.703 -4.316,0.067 2.371,149.414 c -1.102,0.078 -2.117,0.117 -3.055,0.125 l -2.398,-151.063 -4.313,0.067 2.391,150.753 c -5.895,-0.808 -6.406,-3.308 -6.406,-3.308 l -3.172,-142.61 -0.867,-0.441 -0.559,-20.965 h 27.125 l 1.539,163.746 c -0.922,0.891 -2.695,2.211 -5.977,2.918 L 503.91,263.703" /><path
         id="path314"
         style="fill:#1f222c;fill-opacity:1;fill-rule:evenodd;stroke:none"
         d="m 504.738,447.539 c -16.593,4.609 -20.465,13.824 -20.465,13.824 0,0 -35.832,-3.191 -74.847,-3.191 -39.016,0 -74.844,3.191 -74.844,3.191 0,0 -3.875,-9.215 -20.465,-13.824 -11.762,-3.266 -11.707,-9.496 -11.707,-20.555 0,-1.726 1.871,-10.945 3.215,-18.453 0,0 1.18,3.867 10.781,4.621 13.348,1.047 14.262,-3.394 14.262,-3.394 l 3.176,-142.61 75.582,-3.695 74.719,3.652 0.867,0.043 3.172,142.61 c 0,0 0.511,2.5 6.406,3.308 l -2.391,-150.753 4.313,-0.067 2.398,151.063 c 0.938,-0.008 1.953,-0.047 3.055,-0.125 l -2.371,-149.414 4.316,-0.067 2.363,148.902 c 3.282,-0.707 5.055,-1.828 5.977,-2.718 0.793,-0.766 0.98,-1.356 0.98,-1.356 1.34,7.508 3.211,16.727 3.211,18.453 0,11.059 0.055,17.289 -11.703,20.555" /><path
         id="path316"
         style="fill:#ffffff;fill-opacity:1;fill-rule:evenodd;stroke:none"
         d="m 472.324,249.359 c 0,-2.722 -2.203,-4.929 -4.926,-4.929 H 351.457 c -2.723,0 -4.93,2.207 -4.93,4.929 v 21.59 c 0,2.723 2.207,4.93 4.93,4.93 h 115.941 c 2.723,0 4.926,-2.207 4.926,-4.93 v -21.59" /><g
         id="g318"><path
           id="path320"
           style="fill:none;stroke:#1f222c;stroke-width:9.4109602;stroke-linecap:butt;stroke-linejoin:miter;stroke-miterlimit:10;stroke-dasharray:none;stroke-opacity:1"
           d="m 336.054,456.942 c -10.691,1.105 -26.707,13.308 -35.023,22.492 -10.695,11.797 -28.023,39.816 -61.574,39.449" /></g><path
         id="path322"
         style="fill:#1f222c;fill-opacity:1;fill-rule:evenodd;stroke:none"
         d="m 319.105,459.891 c -2.218,-2.211 -7.753,-12.661 -12.914,-6.145 -5.16,6.512 -18.066,17.942 -60.468,17.574 -42.399,-0.367 -80.743,-28.019 -88.485,6.637 l 3.688,0.738 c 1.84,-7.375 6.703,-11.242 14.008,-12.168 16.988,-2.148 47,10.032 72.265,11.059 36.133,1.477 57.516,-12.422 62.676,-19.539 0,-0.734 6.637,6.269 6.637,6.269 l 2.593,-4.425" /><g
         id="g324"><path
           id="path326"
           style="fill:none;stroke:#1f222c;stroke-width:9.4109602;stroke-linecap:butt;stroke-linejoin:miter;stroke-miterlimit:10;stroke-dasharray:none;stroke-opacity:1"
           d="m 308.402,432.239 c 0,0 -39.449,12.902 -55.672,29.125 -16.226,16.222 -27.281,39.453 -41.293,42.769" /></g><g
         id="g328"><path
           id="path330"
           style="fill:none;stroke:#1f222c;stroke-width:9.4109602;stroke-linecap:butt;stroke-linejoin:miter;stroke-miterlimit:10;stroke-dasharray:none;stroke-opacity:1"
           d="m 311.351,414.172 c -6.636,6.27 -32.812,23.231 -51.429,29.496 -18.621,6.266 -39.637,8.481 -58.074,8.481 -18.43,0 -16.961,-2.582 -19.907,12.168" /></g><path
         id="path332"
         style="fill:#1f222c;fill-opacity:1;fill-rule:evenodd;stroke:none"
         d="m 86.0781,472.43 c 0,0 -1.4765,-10.305 5.1602,-17.692 6.6367,-7.383 12.1677,-5.172 14.7497,-1.851 l 53.828,19.543 c 0,0 7.375,-9.59 18.805,-8.114 11.43,1.477 29.863,4.793 29.863,4.793 l 2.954,25.809 c 0,0 37.605,10.691 40.921,13.641 3.321,2.949 5.536,21.015 -1.843,25.074 -7.371,4.055 -12.903,-6.27 -12.903,-6.27 L 86.0781,472.43" /><path
         id="path334"
         style="fill:#1f222c;fill-opacity:1;fill-rule:evenodd;stroke:none"
         d="m 238.172,524.785 c 0,0 -1.297,17.328 -1.668,21.012 -0.367,3.687 -0.731,4.055 -9.215,8.109 -8.48,4.063 -10.324,3.047 -19.172,0.485 -8.847,-2.571 -13.027,-4.539 -18.679,-6.383 -5.653,-1.844 -4.594,-7.262 -4.18,-14.746 1.09,-19.614 -2.703,-23.473 10.324,-23.473 13.027,0 42.59,14.992 42.59,14.996" /><g
         id="g336"><path
           id="path338"
           style="fill:none;stroke:#1f222c;stroke-width:14.11639977;stroke-linecap:butt;stroke-linejoin:miter;stroke-miterlimit:10;stroke-dasharray:none;stroke-opacity:1"
           d="m 214.015,546.907 c 0,0 0.739,14.007 0,25.07 -0.492,7.367 1.598,20.152 -11.671,25.07 -13.278,4.914 -63.973,25.563 -63.973,25.563" /></g><path
         id="path340"
         style="fill:#1f222c;fill-opacity:1;fill-rule:evenodd;stroke:none"
         d="m 165.438,613.34 c 8.285,11.769 5.238,19.32 2.125,30.16 -3.114,10.844 -20.899,17.145 -34.036,19.773 -13.14,2.629 -47.3043,6.758 -58.1911,-7.136 -10.8867,-13.887 -9.3867,-44.672 1.125,-53.684 10.5157,-9.008 67.0981,-20.191 88.9771,10.887" /><path
         id="path342"
         style="fill:#1f222c;fill-opacity:1;fill-rule:evenodd;stroke:none"
         d="M 188.207,511.879 67.8438,472.059 c 0,0 -8.3125,-1.477 -12.7344,0 -4.4258,1.476 -10.3242,-3.942 -10.3242,-10.086 0,-6.137 11.4296,-10.336 16.957,-2.45 3.6094,5.137 130.9568,47.336 130.9568,47.336 0,0.004 1.778,5.02 -4.492,5.02" /><path
         id="path344"
         style="fill:#ffffff;fill-opacity:1;fill-rule:evenodd;stroke:none"
         d="m 145.07,608.477 c 0,0 -54.9372,-4.043 -64.152,23.226 0,0 -4.793,-43.133 64.152,-23.226" /><g
         id="g346"><path
           id="path348"
           style="fill:none;stroke:#1f222c;stroke-width:9.4109602;stroke-linecap:butt;stroke-linejoin:miter;stroke-miterlimit:10;stroke-dasharray:none;stroke-opacity:1"
           d="m 484.273,456.942 c 10.691,1.105 26.707,13.308 35.027,22.492 10.692,11.797 28.016,39.816 61.571,39.449" /></g><path
         id="path350"
         style="fill:#1f222c;fill-opacity:1;fill-rule:evenodd;stroke:none"
         d="m 501.223,459.891 c 2.222,-2.211 7.754,-12.661 12.918,-6.145 5.16,6.512 18.066,17.942 60.464,17.574 42.399,-0.367 80.747,-28.019 88.485,6.637 l -3.684,0.738 c -1.843,-7.375 -6.707,-11.242 -14.011,-12.168 -16.985,-2.148 -46.997,10.032 -72.266,11.059 -36.133,1.477 -57.516,-12.422 -62.68,-19.539 0,-0.734 -6.636,6.269 -6.636,6.269 l -2.59,-4.425" /><g
         id="g352"><path
           id="path354"
           style="fill:none;stroke:#1f222c;stroke-width:9.4109602;stroke-linecap:butt;stroke-linejoin:miter;stroke-miterlimit:10;stroke-dasharray:none;stroke-opacity:1"
           d="m 511.925,432.239 c 0,0 39.454,12.902 55.676,29.125 16.223,16.222 27.281,39.453 41.289,42.769" /></g><g
         id="g356"><path
           id="path358"
           style="fill:none;stroke:#1f222c;stroke-width:9.4109602;stroke-linecap:butt;stroke-linejoin:miter;stroke-miterlimit:10;stroke-dasharray:none;stroke-opacity:1"
           d="m 508.976,414.172 c 6.637,6.27 32.813,23.231 51.434,29.496 18.617,6.266 39.633,8.481 58.07,8.481 18.434,0 16.961,-2.582 19.91,12.168" /></g><path
         id="path360"
         style="fill:#1f222c;fill-opacity:1;fill-rule:evenodd;stroke:none"
         d="m 734.25,472.43 c 0,0 1.477,-10.305 -5.16,-17.692 -6.637,-7.383 -12.168,-5.172 -14.75,-1.851 l -53.828,19.543 c 0,0 -7.375,-9.59 -18.801,-8.114 -11.434,1.477 -29.867,4.793 -29.867,4.793 l -2.953,25.809 c 0,0 -37.606,10.691 -40.922,13.641 -3.321,2.949 -5.528,21.015 1.84,25.074 7.375,4.055 12.906,-6.27 12.906,-6.27 L 734.25,472.43" /><path
         id="path362"
         style="fill:#1f222c;fill-opacity:1;fill-rule:evenodd;stroke:none"
         d="m 582.156,524.785 c 0,0 1.301,17.328 1.664,21.012 0.371,3.687 0.735,4.055 9.219,8.109 8.481,4.063 10.324,3.047 19.172,0.485 8.852,-2.571 13.027,-4.539 18.68,-6.383 5.652,-1.844 4.597,-7.262 4.179,-14.746 -1.093,-19.614 2.707,-23.473 -10.324,-23.473 -13.027,0 -42.59,14.992 -42.59,14.996" /><g
         id="g364"><path
           id="path366"
           style="fill:none;stroke:#1f222c;stroke-width:14.11639977;stroke-linecap:butt;stroke-linejoin:miter;stroke-miterlimit:10;stroke-dasharray:none;stroke-opacity:1"
           d="m 606.312,546.907 c 0,0 -0.734,14.007 0,25.07 0.488,7.367 -1.598,20.152 11.676,25.07 13.273,4.914 63.968,25.563 63.968,25.563" /></g><path
         id="path368"
         style="fill:#1f222c;fill-opacity:1;fill-rule:evenodd;stroke:none"
         d="m 654.891,613.34 c -8.286,11.769 -5.239,19.32 -2.125,30.16 3.117,10.844 20.894,17.145 34.035,19.773 13.14,2.629 47.304,6.758 58.191,-7.136 10.887,-13.887 9.387,-44.672 -1.125,-53.684 -10.515,-9.008 -67.097,-20.191 -88.976,10.887" /><path
         id="path370"
         style="fill:#1f222c;fill-opacity:1;fill-rule:evenodd;stroke:none"
         d="m 632.121,511.879 120.367,-39.82 c 0,0 8.313,-1.477 12.735,0 4.422,1.476 10.324,-3.942 10.324,-10.086 0,-6.137 -11.434,-10.336 -16.961,-2.45 -3.606,5.137 -130.957,47.336 -130.957,47.336 0,0.004 -1.777,5.02 4.492,5.02" /><path
         id="path372"
         style="fill:#ffffff;fill-opacity:1;fill-rule:evenodd;stroke:none"
         d="m 675.258,608.477 c 0,0 54.937,-4.043 64.152,23.226 0.004,0 4.793,-43.133 -64.152,-23.226" /><path
         id="path374"
         style="fill:#ffffff;fill-opacity:1;fill-rule:evenodd;stroke:none"
         d="m 171.246,611.551 c 0,0 1.039,-0.301 2.828,-0.867 1.789,-0.586 4.364,-1.371 7.406,-2.442 3.043,-1.07 6.602,-2.297 10.372,-3.738 3.769,-1.438 7.761,-3.043 11.695,-4.856 0.98,-0.46 1.957,-0.937 2.918,-1.464 0.48,-0.258 0.957,-0.532 1.43,-0.84 0.468,-0.285 0.976,-0.707 1.343,-1.031 0.789,-0.692 1.617,-1.317 2.391,-2.125 0.762,-0.793 1.426,-1.7 1.902,-2.665 0.965,-1.921 1.344,-3.914 1.606,-5.761 0.269,-1.86 0.383,-3.614 0.472,-5.231 0.067,-1.617 0.106,-3.101 0.075,-4.414 -0.02,-1.312 -0.024,-2.457 -0.063,-3.398 -0.082,-1.879 -0.129,-2.953 -0.129,-2.953 0,0 -0.062,1.074 -0.179,2.949 -0.04,0.941 -0.129,2.078 -0.219,3.383 -0.082,1.304 -0.246,2.769 -0.375,4.367 -0.164,1.594 -0.367,3.32 -0.723,5.101 -0.34,1.782 -0.82,3.649 -1.699,5.321 -0.438,0.836 -1.016,1.578 -1.707,2.265 -0.684,0.676 -1.535,1.317 -2.34,2.012 -1.461,1.285 -3.465,2.141 -5.367,3.066 -3.86,1.813 -7.832,3.446 -11.539,4.997 -3.723,1.539 -7.196,2.968 -10.172,4.199 -2.977,1.23 -5.461,2.258 -7.199,2.972 -1.735,0.731 -2.727,1.153 -2.727,1.153" /><path
         id="path376"
         style="fill:#ffffff;fill-opacity:1;fill-rule:evenodd;stroke:none"
         d="m 218.07,551.242 c -4.605,0.621 -8.476,-1.883 -8.476,-1.883 l 0.918,-31.621 c 3.07,0.895 5.664,1.86 7.558,2.633 v 30.871" /><path
         id="path378"
         style="fill:#ffffff;fill-opacity:1;fill-rule:evenodd;stroke:none"
         d="m 219.918,550.813 v -29.661 c 0.941,0.418 1.473,0.68 1.473,0.68 v 28.391 c -0.493,0.246 -0.989,0.429 -1.473,0.59" /><path
         id="path380"
         style="fill:#ffffff;fill-opacity:1;fill-rule:evenodd;stroke:none"
         d="m 649.082,611.551 c 0,0 -0.988,-0.422 -2.723,-1.153 -1.742,-0.714 -4.222,-1.742 -7.199,-2.972 -2.976,-1.227 -6.453,-2.66 -10.172,-4.199 -3.711,-1.551 -7.683,-3.184 -11.543,-4.997 -1.902,-0.925 -3.902,-1.781 -5.367,-3.066 -0.801,-0.699 -1.656,-1.34 -2.34,-2.012 -0.687,-0.687 -1.265,-1.429 -1.707,-2.265 -0.879,-1.672 -1.359,-3.539 -1.699,-5.321 -0.355,-1.781 -0.555,-3.507 -0.727,-5.101 -0.125,-1.598 -0.289,-3.063 -0.371,-4.367 -0.089,-1.305 -0.179,-2.446 -0.214,-3.383 -0.114,-1.875 -0.184,-2.949 -0.184,-2.949 0.004,0 -0.047,1.074 -0.129,2.953 -0.039,0.941 -0.039,2.086 -0.059,3.398 -0.035,1.313 0.004,2.793 0.075,4.414 0.086,1.617 0.199,3.371 0.472,5.231 0.258,1.847 0.645,3.84 1.602,5.761 0.476,0.965 1.141,1.872 1.902,2.665 0.774,0.804 1.602,1.433 2.391,2.125 0.371,0.324 0.879,0.746 1.344,1.031 0.476,0.304 0.949,0.582 1.433,0.84 0.961,0.527 1.934,1 2.914,1.464 3.934,1.813 7.926,3.418 11.696,4.856 3.769,1.441 7.332,2.668 10.371,3.738 3.047,1.071 5.617,1.856 7.402,2.442 1.797,0.566 2.832,0.867 2.832,0.867" /><path
         id="path382"
         style="fill:#ffffff;fill-opacity:1;fill-rule:evenodd;stroke:none"
         d="m 602.258,551.242 c 4.609,0.621 8.48,-1.883 8.48,-1.883 l -0.922,-31.621 c -3.066,0.895 -5.664,1.86 -7.558,2.633 v 30.871" /><path
         id="path384"
         style="fill:#ffffff;fill-opacity:1;fill-rule:evenodd;stroke:none"
         d="m 600.414,550.813 v -29.661 c -0.945,0.418 -1.476,0.68 -1.476,0.68 v 28.391 c 0.492,0.246 0.988,0.429 1.476,0.59" /><path
         id="path386"
         style="fill:#1f222c;fill-opacity:1;fill-rule:evenodd;stroke:none"
         d="m 520.176,379.266 c 1.293,-5 1.875,-10.243 2.367,-15.739 0.004,-0.05 0.008,-0.105 0.012,-0.156 h 51.976 v 15.895 h -54.355" /><path
         id="path388"
         style="fill:#1f222c;fill-opacity:1;fill-rule:evenodd;stroke:none"
         d="m 570.547,370.113 c 0,-12.113 9.824,-21.937 21.937,-21.937 12.118,0 21.938,9.824 21.938,21.937 0,12.117 -9.82,21.938 -21.938,21.938 -12.113,0 -21.937,-9.824 -21.937,-21.938" /><path
         id="path390"
         style="fill:#ffffff;fill-opacity:1;fill-rule:evenodd;stroke:none"
         d="m 576.293,370.035 c 0,-9.105 7.379,-16.484 16.484,-16.484 9.106,0 16.485,7.379 16.485,16.484 0,9.106 -7.379,16.485 -16.485,16.485 -9.105,0 -16.484,-7.379 -16.484,-16.485" /><path
         id="path392"
         style="fill:#1f222c;fill-opacity:1;fill-rule:evenodd;stroke:none"
         d="m 588.613,370.668 c 0,-3.055 2.481,-5.531 5.532,-5.531 3.054,0 5.531,2.476 5.531,5.531 0,3.051 -2.477,5.531 -5.531,5.531 -3.051,0 -5.532,-2.48 -5.532,-5.531" /><path
         id="path394"
         style="fill:#1f222c;fill-opacity:1;fill-rule:evenodd;stroke:none"
         d="m 596.348,369.133 10.324,-12.32 -16.414,-6.055 v 16.847 l 6.09,1.528" /><path
         id="path396"
         style="fill:#1f222c;fill-opacity:1;fill-rule:evenodd;stroke:none"
         d="m 593.41,374.723 -0.633,14.379 -14.484,-6.27 13.273,-10.691 1.844,2.582" /><path
         id="path398"
         style="fill:#1f222c;fill-opacity:1;fill-rule:evenodd;stroke:none"
         d="m 305.012,378.863 h -60.684 v -15.492 h 58.844 c -0.617,5.274 -0.004,10.879 1.84,15.492" /><path
         id="path400"
         style="fill:#1f222c;fill-opacity:1;fill-rule:evenodd;stroke:none"
         d="m 250.516,370.113 c 0,-12.113 -9.821,-21.937 -21.938,-21.937 -12.113,0 -21.937,9.824 -21.937,21.937 0,12.117 9.824,21.938 21.937,21.938 12.117,0 21.938,-9.824 21.938,-21.938" /><path
         id="path402"
         style="fill:#ffffff;fill-opacity:1;fill-rule:evenodd;stroke:none"
         d="m 244.035,370.035 c 0,-9.105 -7.379,-16.484 -16.48,-16.484 -9.11,0 -16.489,7.379 -16.489,16.484 0,9.106 7.379,16.485 16.489,16.485 9.101,0 16.48,-7.379 16.48,-16.485" /><path
         id="path404"
         style="fill:#1f222c;fill-opacity:1;fill-rule:evenodd;stroke:none"
         d="m 231.715,370.668 c 0,-3.055 -2.477,-5.531 -5.531,-5.531 -3.055,0 -5.536,2.476 -5.536,5.531 0,3.051 2.481,5.531 5.536,5.531 3.054,0 5.531,-2.48 5.531,-5.531" /><path
         id="path406"
         style="fill:#1f222c;fill-opacity:1;fill-rule:evenodd;stroke:none"
         d="m 223.242,369.133 -10.691,-12.32 16.043,-6.055 v 16.847 l -5.352,1.528" /><path
         id="path408"
         style="fill:#1f222c;fill-opacity:1;fill-rule:evenodd;stroke:none"
         d="m 226.922,374.723 0.633,14.379 14.484,-6.27 -13.277,-10.691 -1.84,2.582" /><path
         id="path410"
         style="fill:#ffffff;fill-opacity:1;fill-rule:evenodd;stroke:none"
         d="m 57.7383,467.098 c 1.3515,-3.625 -0.0391,-8.383 -4.1641,-9.66 0.0235,0 0.0547,-0.012 0.086,-0.012 3.4023,0 6.1601,2.484 6.1601,5.547 0,1.644 -0.8164,3.109 -2.082,4.125" /><path
         id="path412"
         style="fill:#ffffff;fill-opacity:1;fill-rule:evenodd;stroke:none"
         d="m 65.2188,466.523 c 0,0 7.8398,2.774 19.5976,6.942 11.7695,4.133 27.4606,9.64 43.1526,15.148 7.844,2.766 15.676,5.567 23.047,8.094 3.707,1.203 7.269,2.438 10.687,3.488 3.41,1.063 6.637,2.071 9.61,3.004 2.976,0.938 5.73,1.707 8.16,2.442 2.425,0.722 4.55,1.339 6.308,1.816 3.504,0.992 5.524,1.508 5.524,1.508 l 0.082,-0.246 c 0,0 -1.922,-0.809 -5.313,-2.133 -1.687,-0.684 -3.754,-1.481 -6.125,-2.371 -2.371,-0.883 -5.035,-1.938 -7.972,-2.988 -2.934,-1.059 -6.114,-2.207 -9.473,-3.418 -3.356,-1.231 -6.938,-2.407 -10.617,-3.688 -7.403,-2.445 -15.332,-4.953 -23.25,-7.496 -15.824,-5.102 -31.6565,-10.203 -43.5315,-14.031 -11.8828,-3.789 -19.8008,-6.321 -19.8008,-6.321 l -0.0859,0.25" /><path
         id="path414"
         style="fill:#ffffff;fill-opacity:1;fill-rule:evenodd;stroke:none"
         d="m 763.582,467.098 c -1.352,-3.625 0.035,-8.383 4.168,-9.66 -0.031,0 -0.062,-0.012 -0.09,-0.012 -3.402,0 -6.16,2.484 -6.16,5.547 0,1.644 0.816,3.109 2.082,4.125" /><path
         id="path416"
         style="fill:#ffffff;fill-opacity:1;fill-rule:evenodd;stroke:none"
         d="m 756.016,466.273 c 0,0 -7.922,2.532 -19.805,6.321 -11.875,3.828 -27.699,8.929 -43.531,14.031 -7.914,2.543 -15.844,5.051 -23.246,7.496 -3.684,1.281 -7.266,2.457 -10.621,3.688 -3.36,1.211 -6.54,2.359 -9.469,3.418 -2.938,1.05 -5.598,2.105 -7.973,2.988 -2.375,0.89 -4.437,1.687 -6.129,2.371 -3.387,1.324 -5.316,2.133 -5.316,2.133 l 0.09,0.246 c 0,0 2.015,-0.516 5.523,-1.508 1.758,-0.477 3.879,-1.094 6.309,-1.816 2.429,-0.735 5.183,-1.504 8.156,-2.442 2.976,-0.933 6.203,-1.941 9.617,-3.004 3.414,-1.05 6.973,-2.285 10.684,-3.488 7.371,-2.527 15.203,-5.328 23.047,-8.094 15.691,-5.508 31.378,-11.015 43.152,-15.148 11.758,-4.168 19.598,-6.945 19.598,-6.945 l -0.086,-0.247" /><path
         id="path418"
         style="fill:#ffffff;fill-opacity:1;fill-rule:evenodd;stroke:none"
         d="m 504.297,444.879 c 5.082,-1.234 9.262,-2.664 9.387,-11.527 C 513.84,422.086 511.848,415 511.848,415 c 0,0 2.308,23.715 -7.551,29.879" /><path
         id="path420"
         style="fill:#ffffff;fill-opacity:1;fill-rule:evenodd;stroke:none"
         d="m 314.555,444.879 c -5.078,-1.234 -9.262,-2.664 -9.383,-11.527 -0.16,-11.266 1.836,-18.352 1.836,-18.352 0,0 -2.309,23.715 7.547,29.879" /><path
         id="path422"
         style="fill:#1f222c;fill-opacity:1;fill-rule:evenodd;stroke:none"
         d="m 494.852,366.426 c 0,-46.875 -37.997,-84.871 -84.872,-84.871 -46.871,0 -84.871,37.996 -84.871,84.871 0,46.875 37.996,84.871 84.871,84.871 46.875,0 84.872,-37.996 84.872,-84.871" /><path
         id="path424"
         style="fill:#ffffff;fill-opacity:1;fill-rule:evenodd;stroke:none"
         d="m 476.793,397.18 c -6.023,10.972 -13.059,16.66 -23.758,22.011 -10.699,5.352 -1.789,-4.921 -0.687,-5.031 -1.16,0.156 -2.309,0.34 -3.457,0.531 -0.727,-0.652 -1.489,-1.253 -2.317,-1.75 -2.863,-7.605 -5.359,-15.347 -9.363,-22.515 -1.164,-2.078 -2.625,-3.586 -4.25,-4.625 0.519,-4.719 1.195,-9.934 -0.434,-14.18 -2.316,-6.043 -6.968,-10.523 -13.824,-10.523 -4.687,0 -9.582,2.48 -12.058,6.562 -5.567,-1.918 -12.243,-0.57 -16.016,5.75 -3.383,5.656 -5.77,11.781 -8.188,17.895 -4.722,6.023 -9.265,12.254 -13.285,18.773 -0.258,-0.07 -0.519,-0.133 -0.777,-0.207 -1.895,-0.535 -3.805,-1.09 -5.645,-1.797 -0.386,-0.144 -0.679,-0.258 -0.906,-0.34 -0.223,-0.125 2.195,4.719 1.766,4.496 -7.086,-3.648 -25.614,-14.601 -27.446,-46.476 -1.933,-33.602 22.528,-62.031 53.325,-70.918 -3.09,2.894 -5.957,5.902 -8.524,8.949 -12.738,15.141 -21.582,32.285 -26.004,51.61 -1.468,6.445 1.899,13.117 8.481,14.929 6.969,1.918 12.418,-2.363 14.933,-8.476 5.954,-14.473 14.243,-28.008 24.395,-38.43 6.191,-6.348 10.566,-10.238 17.172,-14.313 2.785,-1.714 -6.055,-7.332 -3.149,-8.773 17.149,0.41 37.403,5.766 50,18.289 10.629,12.781 17.028,29.203 17.028,47.133 0,11.238 -2.516,21.891 -7.012,31.426" /><path
         id="path426"
         style="fill:#1f222c;fill-opacity:1;fill-rule:evenodd;stroke:none"
         d="m 480.402,366.383 c 0,-38.895 -31.531,-70.43 -70.425,-70.43 -38.899,0 -70.426,31.535 -70.426,70.43 0,38.894 31.527,70.43 70.426,70.43 38.894,0 70.425,-31.536 70.425,-70.43" /><path
         id="path428"
         style="fill:#1f222c;fill-opacity:1;fill-rule:evenodd;stroke:none"
         d="m 473.715,366.383 c 0,-35.195 -28.539,-63.735 -63.738,-63.735 -35.2,0 -63.735,28.536 -63.735,63.735 0,35.203 28.535,63.734 63.735,63.734 35.199,0 63.738,-28.531 63.738,-63.734" /><path
         id="path430"
         style="fill:#1f222c;fill-opacity:1;fill-rule:evenodd;stroke:none"
         d="m 473.715,366.383 c 0,-35.195 -28.539,-63.735 -63.738,-63.735 -35.2,0 -63.735,28.536 -63.735,63.735 0,35.203 28.535,63.734 63.735,63.734 35.199,0 63.738,-28.531 63.738,-63.734" /><path
         id="path432"
         style="fill:#ffffff;fill-opacity:1;fill-rule:evenodd;stroke:none"
         d="m 352.656,338.492 1.192,28.137 1.39,-32.906 c -0.925,1.547 -1.789,3.136 -2.582,4.769" /><path
         id="path434"
         style="fill:#ffffff;fill-opacity:1;fill-rule:evenodd;stroke:none"
         d="m 365.668,320.574 1.937,44.91 2.094,-48.492 c -1.394,1.137 -2.738,2.332 -4.031,3.582" /><path
         id="path436"
         style="fill:#ffffff;fill-opacity:1;fill-rule:evenodd;stroke:none"
         d="m 382.504,308.859 2.305,58.426 2.379,-60.437 c -1.59,0.609 -3.153,1.281 -4.684,2.011" /><path
         id="path438"
         style="fill:#ffffff;fill-opacity:1;fill-rule:evenodd;stroke:none"
         d="m 399.672,303.484 2.34,43.977 2.363,-44.566 c -1.582,0.14 -3.152,0.335 -4.703,0.589" /><path
         id="path440"
         style="fill:#ffffff;fill-opacity:1;fill-rule:evenodd;stroke:none"
         d="m 464.84,333.934 1.383,32.695 1.179,-27.922 c -0.785,-1.633 -1.644,-3.223 -2.562,-4.773" /><path
         id="path442"
         style="fill:#ffffff;fill-opacity:1;fill-rule:evenodd;stroke:none"
         d="m 450.375,317.09 2.086,48.394 1.934,-44.804 c -1.29,-1.25 -2.629,-2.45 -4.02,-3.59" /><path
         id="path444"
         style="fill:#ffffff;fill-opacity:1;fill-rule:evenodd;stroke:none"
         d="m 432.883,306.895 2.379,60.39 2.301,-58.375 c -1.528,-0.734 -3.09,-1.406 -4.68,-2.015" /><path
         id="path446"
         style="fill:#ffffff;fill-opacity:1;fill-rule:evenodd;stroke:none"
         d="m 415.691,302.906 2.372,44.555 2.332,-43.961 c -1.547,-0.254 -3.118,-0.453 -4.704,-0.594" /><path
         id="path448"
         style="fill:#ffffff;fill-opacity:1;fill-rule:evenodd;stroke:none"
         d="m 355.188,398.957 -1.34,-31.687 -1.149,27.093 c 0.77,1.571 1.602,3.098 2.489,4.594" /><path
         id="path450"
         style="fill:#ffffff;fill-opacity:1;fill-rule:evenodd;stroke:none"
         d="m 369.648,415.734 -2.043,-47.316 -1.89,43.824 c 1.262,1.215 2.57,2.383 3.933,3.492" /><path
         id="path452"
         style="fill:#ffffff;fill-opacity:1;fill-rule:evenodd;stroke:none"
         d="m 387.145,425.902 -2.336,-59.289 -2.258,57.317 c 1.496,0.715 3.031,1.371 4.594,1.972" /><path
         id="path454"
         style="fill:#ffffff;fill-opacity:1;fill-rule:evenodd;stroke:none"
         d="m 404.316,429.867 -2.304,-43.429 -2.282,42.855 c 1.512,0.246 3.043,0.437 4.586,0.574" /><path
         id="path456"
         style="fill:#ffffff;fill-opacity:1;fill-rule:evenodd;stroke:none"
         d="m 467.363,394.148 -1.14,-26.878 -1.332,31.476 c 0.882,-1.496 1.711,-3.027 2.472,-4.598" /><path
         id="path458"
         style="fill:#ffffff;fill-opacity:1;fill-rule:evenodd;stroke:none"
         d="m 454.348,412.133 -1.887,-43.715 -2.031,47.223 c 1.351,-1.118 2.66,-2.289 3.918,-3.508" /><path
         id="path460"
         style="fill:#ffffff;fill-opacity:1;fill-rule:evenodd;stroke:none"
         d="m 437.52,423.875 -2.258,-57.262 -2.332,59.246 c 1.558,-0.605 3.09,-1.265 4.59,-1.984" /><path
         id="path462"
         style="fill:#ffffff;fill-opacity:1;fill-rule:evenodd;stroke:none"
         d="m 420.336,429.277 -2.273,-42.839 -2.309,43.417 c 1.543,-0.14 3.074,-0.332 4.582,-0.578" /><path
         id="path464"
         style="fill:#1f222c;fill-opacity:1;fill-rule:evenodd;stroke:none"
         d="m 427.992,366.383 c 0,-9.945 -8.066,-18.012 -18.015,-18.012 -9.95,0 -18.016,8.067 -18.016,18.012 0,9.949 8.066,18.015 18.016,18.015 9.949,0 18.015,-8.066 18.015,-18.015" /><g
         id="g466"><path
           id="path468"
           style="fill:none;stroke:#ffffff;stroke-width:1.21945;stroke-linecap:butt;stroke-linejoin:miter;stroke-miterlimit:10;stroke-dasharray:none;stroke-opacity:1"
           d="m 427.992,366.383 c 0,-9.945 -8.067,-18.012 -18.016,-18.012 -9.949,0 -18.015,8.067 -18.015,18.012 0,9.949 8.066,18.016 18.015,18.016 9.949,0 18.016,-8.067 18.016,-18.016 z" /></g><path
         id="path470"
         style="fill:#ffffff;fill-opacity:1;fill-rule:evenodd;stroke:none"
         d="m 423.871,366.383 c 0,-7.676 -6.215,-13.899 -13.894,-13.899 -7.672,0 -13.899,6.223 -13.899,13.899 0,7.68 6.227,13.894 13.899,13.894 7.679,0 13.894,-6.214 13.894,-13.894" /><path
         id="path472"
         style="fill:#1f222c;fill-opacity:1;fill-rule:evenodd;stroke:none"
         d="m 420.289,366.383 c 0,-5.695 -4.613,-10.313 -10.312,-10.313 -5.696,0 -10.313,4.618 -10.313,10.313 0,5.699 4.617,10.312 10.313,10.312 5.699,0 10.312,-4.613 10.312,-10.312" /><path
         id="path474"
         style="fill:#ffffff;fill-opacity:1;fill-rule:evenodd;stroke:none"
         d="m 444.094,378.242 c 0,-4.508 -3.656,-8.16 -8.164,-8.16 -4.504,0 -8.157,3.652 -8.157,8.16 0,4.508 3.653,8.156 8.157,8.156 4.508,0 8.16,-3.652 8.164,-8.156" /><path
         id="path476"
         style="fill:#ffffff;fill-opacity:1;fill-rule:evenodd;stroke:none"
         d="m 446.738,395.438 c 0,-1.532 -1.246,-2.778 -2.781,-2.778 -1.535,0 -2.781,1.246 -2.781,2.778 0,1.539 1.246,2.781 2.781,2.781 1.535,0 2.781,-1.242 2.781,-2.781" /><path
         id="path478"
         style="fill:#ffffff;fill-opacity:1;fill-rule:evenodd;stroke:none"
         d="m 484.445,402.063 c 0,0 -0.418,0.558 -1.211,1.609 -0.793,1.039 -1.886,2.644 -3.468,4.48 -0.789,0.922 -1.586,1.989 -2.586,3.055 -0.989,1.066 -2.059,2.219 -3.196,3.457 -1.211,1.156 -2.5,2.387 -3.855,3.691 -1.441,1.204 -2.895,2.524 -4.481,3.821 -0.82,0.617 -1.648,1.246 -2.5,1.89 -0.839,0.653 -1.703,1.297 -2.64,1.887 -0.91,0.61 -1.836,1.235 -2.781,1.867 -0.938,0.637 -1.957,1.176 -2.95,1.782 -1.972,1.242 -4.148,2.257 -6.316,3.367 -1.078,0.554 -2.246,0.976 -3.371,1.496 -1.141,0.496 -2.277,1.023 -3.477,1.418 -4.699,1.871 -9.773,3.14 -14.941,4.203 -1.305,0.207 -2.617,0.418 -3.93,0.629 -1.312,0.23 -2.648,0.269 -3.972,0.433 -1.332,0.137 -2.661,0.282 -4.004,0.282 l -3.911,0.129 c -2.753,-0.129 -5.675,-0.071 -8.199,-0.418 -1.308,-0.161 -2.597,-0.203 -3.914,-0.434 -1.316,-0.207 -2.621,-0.418 -3.926,-0.629 -5.168,-1.066 -10.242,-2.324 -14.941,-4.203 -4.699,-1.824 -9.168,-3.879 -13.164,-6.281 -0.988,-0.606 -2.016,-1.141 -2.949,-1.781 -0.942,-0.629 -1.867,-1.258 -2.782,-1.872 -0.933,-0.582 -1.8,-1.23 -2.64,-1.882 -0.848,-0.641 -1.68,-1.27 -2.5,-1.891 -1.586,-1.293 -3.043,-2.613 -4.477,-3.82 -1.359,-1.301 -2.648,-2.532 -3.855,-3.692 -1.137,-1.23 -2.192,-2.398 -3.199,-3.453 -1,-1.066 -1.805,-2.14 -2.59,-3.066 -1.59,-1.844 -2.672,-3.422 -3.465,-4.465 -0.793,-1.051 -1.215,-1.609 -1.215,-1.609 0,0 0.309,0.628 0.891,1.804 0.621,1.153 1.383,2.949 2.718,5.02 0.653,1.043 1.309,2.25 2.161,3.476 0.843,1.227 1.8,2.528 2.8,3.938 1.098,1.336 2.266,2.762 3.496,4.265 1.325,1.418 2.731,2.911 4.247,4.422 3.117,2.922 6.609,6.035 10.742,8.735 2.004,1.453 4.219,2.695 6.449,4.027 1.113,0.672 2.316,1.207 3.5,1.809 1.191,0.589 2.383,1.207 3.641,1.695 1.25,0.519 2.515,1.043 3.785,1.566 1.304,0.442 2.617,0.879 3.937,1.325 0.664,0.214 1.321,0.457 2,0.644 l 2.039,0.535 c 1.375,0.324 2.735,0.739 4.141,0.989 1.398,0.257 2.805,0.511 4.219,0.769 1.398,0.281 2.894,0.356 4.343,0.535 1.469,0.156 2.938,0.321 4.301,0.332 l 4.18,0.156 4.449,-0.16 c 1.449,-0.015 2.887,-0.179 4.32,-0.336 1.434,-0.175 2.872,-0.25 4.282,-0.531 1.41,-0.258 2.816,-0.515 4.222,-0.769 1.403,-0.25 2.762,-0.664 4.133,-0.996 l 2.047,-0.532 c 0.672,-0.187 1.332,-0.429 1.992,-0.64 1.321,-0.45 2.637,-0.891 3.938,-1.328 1.273,-0.524 2.531,-1.047 3.781,-1.567 1.266,-0.484 2.457,-1.105 3.648,-1.695 1.18,-0.602 2.379,-1.137 3.497,-1.813 2.23,-1.332 4.449,-2.566 6.449,-4.019 4.136,-2.699 7.621,-5.817 10.742,-8.739 1.516,-1.507 2.926,-2.996 4.246,-4.421 1.23,-1.496 2.395,-2.922 3.492,-4.262 1.008,-1.41 1.961,-2.711 2.805,-3.938 0.851,-1.226 1.516,-2.441 2.168,-3.484 1.344,-2.078 2.094,-3.848 2.715,-5.008 0.582,-1.176 0.89,-1.804 0.89,-1.804" /><path
         id="path480"
         style="fill:#ffffff;fill-opacity:1;fill-rule:evenodd;stroke:none"
         d="m 484.445,327.066 c 0,0 -0.312,-0.628 -0.89,-1.804 -0.621,-1.16 -1.371,-2.93 -2.715,-5.008 -0.652,-1.043 -1.317,-2.262 -2.168,-3.484 -0.844,-1.227 -1.797,-2.532 -2.805,-3.938 -1.097,-1.34 -2.262,-2.766 -3.492,-4.266 -1.32,-1.421 -2.73,-2.91 -4.246,-4.421 -3.121,-2.918 -6.609,-6.04 -10.742,-8.735 -2,-1.453 -4.219,-2.691 -6.449,-4.023 -1.114,-0.672 -2.317,-1.211 -3.497,-1.813 -1.187,-0.59 -2.382,-1.207 -3.648,-1.695 -1.25,-0.52 -2.508,-1.043 -3.781,-1.57 -1.301,-0.434 -2.617,-0.879 -3.938,-1.321 -0.66,-0.215 -1.32,-0.457 -1.992,-0.644 l -2.047,-0.531 c -1.367,-0.333 -2.73,-0.747 -4.133,-0.993 -1.402,-0.261 -2.812,-0.515 -4.222,-0.773 -1.41,-0.281 -2.848,-0.352 -4.282,-0.527 -1.433,-0.161 -2.871,-0.321 -4.32,-0.34 l -4.449,-0.16 -4.18,0.156 c -1.363,0.015 -2.832,0.176 -4.301,0.336 -1.449,0.176 -2.945,0.25 -4.343,0.531 -1.414,0.258 -2.821,0.516 -4.219,0.77 -1.406,0.25 -2.766,0.667 -4.141,0.992 l -2.039,0.531 c -0.679,0.187 -1.336,0.434 -2,0.644 -1.32,0.446 -2.633,0.887 -3.937,1.325 -1.27,0.523 -2.535,1.047 -3.785,1.566 -1.258,0.488 -2.454,1.106 -3.641,1.695 -1.184,0.602 -2.387,1.137 -3.5,1.809 -2.23,1.336 -4.445,2.57 -6.449,4.027 -4.133,2.7 -7.625,5.813 -10.742,8.735 -1.516,1.511 -2.922,3.004 -4.247,4.422 -1.23,1.504 -2.398,2.929 -3.496,4.269 -1,1.41 -1.957,2.707 -2.8,3.934 -0.852,1.226 -1.508,2.437 -2.161,3.48 -1.335,2.067 -2.097,3.863 -2.718,5.02 -0.582,1.176 -0.891,1.804 -0.891,1.804 0,0 0.422,-0.562 1.215,-1.613 0.793,-1.043 1.875,-2.621 3.465,-4.465 0.785,-0.925 1.59,-1.996 2.59,-3.062 1.007,-1.059 2.058,-2.227 3.199,-3.457 1.207,-1.156 2.496,-2.391 3.855,-3.688 1.434,-1.211 2.895,-2.531 4.477,-3.824 0.82,-0.617 1.652,-1.25 2.5,-1.891 0.84,-0.652 1.707,-1.296 2.64,-1.882 0.915,-0.614 1.84,-1.239 2.782,-1.871 0.933,-0.637 1.961,-1.176 2.953,-1.782 3.992,-2.402 8.461,-4.457 13.16,-6.277 4.699,-1.879 9.773,-3.137 14.941,-4.207 1.305,-0.207 2.61,-0.418 3.926,-0.629 1.317,-0.23 2.606,-0.273 3.914,-0.43 2.524,-0.351 5.446,-0.293 8.196,-0.418 l 3.914,0.125 c 1.343,0 2.672,0.145 4.004,0.282 1.324,0.164 2.66,0.207 3.972,0.433 1.313,0.215 2.625,0.422 3.93,0.633 5.168,1.059 10.242,2.328 14.941,4.199 1.2,0.395 2.336,0.922 3.477,1.418 1.125,0.52 2.293,0.942 3.371,1.496 2.168,1.11 4.344,2.129 6.316,3.371 0.993,0.602 2.012,1.141 2.95,1.778 0.945,0.636 1.871,1.258 2.781,1.871 0.937,0.586 1.801,1.23 2.64,1.887 0.852,0.64 1.68,1.269 2.5,1.89 1.586,1.293 3.04,2.617 4.481,3.82 1.355,1.297 2.644,2.532 3.855,3.692 1.137,1.234 2.207,2.39 3.196,3.457 1,1.062 1.797,2.129 2.586,3.051 1.582,1.836 2.675,3.445 3.468,4.484 0.793,1.047 1.211,1.609 1.211,1.609" /><g
         id="g482"><path
           id="path484"
           style="fill:none;stroke:#1f222c;stroke-width:20.96590042;stroke-linecap:butt;stroke-linejoin:miter;stroke-miterlimit:10;stroke-dasharray:none;stroke-opacity:1"
           d="m 245.558,515.621 c 0,0 18.379,9.418 42.196,5.532 23.824,-3.887 36.66,-33.414 71.156,-33.414" /></g><g
         id="g486"><path
           id="path488"
           style="fill:none;stroke:#1f222c;stroke-width:20.96590042;stroke-linecap:butt;stroke-linejoin:miter;stroke-miterlimit:10;stroke-dasharray:none;stroke-opacity:1"
           d="m 576.992,515.621 c 0,0 -18.379,9.418 -42.196,5.532 -23.824,-3.887 -36.66,-33.414 -71.156,-33.414" /></g><path
         id="path490"
         style="fill:#1f222c;fill-opacity:1;fill-rule:evenodd;stroke:none"
         d="m 473.633,482.137 c 0,-6.805 -5.516,-12.321 -12.32,-12.321 H 357.539 c -6.805,0 -12.32,5.516 -12.32,12.317 v 6.808 c 0,6.809 5.515,12.325 12.32,12.325 h 103.774 c 6.804,0 12.32,-5.516 12.32,-12.325 v -6.804" /><path
         id="path492"
         style="fill:#1f222c;fill-opacity:1;fill-rule:evenodd;stroke:none"
         d="m 489.145,416.113 c 0,0 -0.485,0.59 -1.391,1.692 -0.899,1.093 -2.176,2.785 -3.953,4.707 -0.887,0.968 -1.785,2.082 -2.903,3.191 -1.128,1.106 -2.304,2.324 -3.574,3.606 -1.332,1.207 -2.754,2.492 -4.25,3.851 -1.578,1.254 -3.179,2.621 -4.922,3.961 -3.55,2.586 -7.406,5.328 -11.793,7.688 -2.132,1.269 -4.453,2.339 -6.777,3.484 -1.164,0.574 -2.41,1.012 -3.617,1.551 -1.215,0.511 -2.43,1.054 -3.719,1.461 -5.016,1.929 -10.418,3.222 -15.91,4.32 -5.527,0.984 -11.215,1.43 -16.91,1.508 L 405.082,457 c -0.734,-0.031 -1.543,-0.016 -2.219,-0.09 l -2.054,-0.211 c -1.375,-0.16 -2.715,-0.199 -4.118,-0.437 -1.394,-0.215 -2.785,-0.43 -4.171,-0.645 -5.485,-1.109 -10.895,-2.387 -15.907,-4.328 -1.289,-0.402 -2.504,-0.945 -3.718,-1.461 -1.207,-0.535 -2.45,-0.976 -3.614,-1.547 -2.328,-1.148 -4.644,-2.215 -6.777,-3.488 -4.387,-2.355 -8.246,-5.098 -11.793,-7.684 -1.738,-1.336 -3.344,-2.703 -4.922,-3.957 -1.496,-1.359 -2.918,-2.644 -4.254,-3.851 -1.269,-1.278 -2.441,-2.5 -3.574,-3.602 -1.117,-1.109 -2.023,-2.238 -2.918,-3.203 -1.781,-1.937 -3.031,-3.594 -3.938,-4.691 -0.91,-1.102 -1.398,-1.692 -1.398,-1.692 0,0 0.309,0.7 0.883,2.004 0.625,1.278 1.367,3.278 2.746,5.574 0.672,1.157 1.344,2.5 2.223,3.864 0.871,1.371 1.867,2.82 2.918,4.398 1.156,1.488 2.394,3.082 3.695,4.754 1.41,1.582 2.898,3.258 4.516,4.957 3.343,3.27 7.121,6.734 11.589,9.797 2.161,1.641 4.586,3.012 7.024,4.504 1.215,0.754 2.527,1.351 3.82,2.027 1.301,0.664 2.602,1.356 3.984,1.91 1.372,0.582 2.75,1.168 4.141,1.758 1.43,0.496 2.871,0.992 4.32,1.492 0.731,0.239 1.45,0.516 2.196,0.727 l 2.238,0.605 c 1.512,0.36 3.008,0.829 4.547,1.11 1.543,0.289 3.09,0.574 4.641,0.867 1.542,0.316 3.207,0.406 4.816,0.602 l 2.434,0.253 c 0.824,0.09 1.519,0.075 2.289,0.122 l 4.699,0.175 c 6.371,-0.136 12.746,-0.679 18.879,-2.027 1.539,-0.285 3.039,-0.742 4.547,-1.117 l 2.238,-0.606 c 0.742,-0.207 1.465,-0.484 2.195,-0.722 1.445,-0.5 2.891,-0.996 4.317,-1.489 1.39,-0.593 2.773,-1.179 4.144,-1.765 1.379,-0.551 2.684,-1.242 3.984,-1.903 1.29,-0.675 2.602,-1.285 3.817,-2.035 2.433,-1.492 4.863,-2.855 7.023,-4.504 4.469,-3.062 8.243,-6.527 11.582,-9.793 1.621,-1.699 3.114,-3.371 4.52,-4.953 1.301,-1.676 2.539,-3.261 3.699,-4.754 1.047,-1.574 2.043,-3.027 2.914,-4.394 0.883,-1.363 1.567,-2.723 2.242,-3.883 1.391,-2.309 2.11,-4.27 2.735,-5.547 0.578,-1.308 0.883,-2.008 0.883,-2.008" /><path
         id="path494"
         style="fill:#ffffff;fill-opacity:1;fill-rule:evenodd;stroke:none"
         d="m 409.426,457.426 c 0,0 -1.238,-0.125 -3.41,-0.356 -0.543,-0.047 -1.141,-0.105 -1.797,-0.168 -0.645,-0.089 -1.344,-0.191 -2.094,-0.297 -1.496,-0.21 -3.172,-0.417 -4.988,-0.785 -0.91,-0.168 -1.86,-0.343 -2.84,-0.523 -0.973,-0.223 -1.973,-0.453 -3.004,-0.692 -2.074,-0.417 -4.195,-1.121 -6.418,-1.707 -1.105,-0.32 -2.203,-0.726 -3.328,-1.093 -1.129,-0.36 -2.254,-0.77 -3.379,-1.219 -1.117,-0.445 -2.27,-0.84 -3.391,-1.332 -1.113,-0.5 -2.226,-1 -3.347,-1.5 -1.125,-0.481 -2.203,-1.074 -3.305,-1.606 l -1.633,-0.812 -1.578,-0.898 c -1.043,-0.61 -2.109,-1.157 -3.121,-1.778 -1.008,-0.625 -1.996,-1.238 -2.973,-1.851 -0.996,-0.586 -1.879,-1.293 -2.812,-1.899 -0.91,-0.629 -1.828,-1.211 -2.656,-1.875 -1.68,-1.285 -3.301,-2.461 -4.7,-3.672 -0.718,-0.59 -1.402,-1.156 -2.054,-1.691 -0.629,-0.567 -1.227,-1.102 -1.789,-1.606 -1.118,-1.007 -2.118,-1.875 -2.875,-2.656 -1.579,-1.508 -2.477,-2.367 -2.477,-2.367 0,0 0.762,0.992 2.09,2.723 0.66,0.879 1.527,1.882 2.555,3.011 0.507,0.567 1.05,1.172 1.621,1.809 0.609,0.605 1.25,1.238 1.918,1.898 1.316,1.352 2.859,2.688 4.5,4.09 0.804,0.727 1.703,1.379 2.593,2.082 0.907,0.684 1.809,1.422 2.793,2.067 0.981,0.66 1.973,1.332 2.981,2.011 1.008,0.684 2.09,1.274 3.156,1.907 l 1.617,0.937 1.668,0.86 c 1.125,0.558 2.223,1.187 3.379,1.695 1.156,0.5 2.313,1 3.465,1.5 1.156,0.488 2.348,0.887 3.504,1.328 0.586,0.211 1.164,0.422 1.738,0.637 0.594,0.175 1.18,0.347 1.762,0.523 1.168,0.332 2.312,0.703 3.457,0.992 2.297,0.543 4.508,1.102 6.652,1.403 1.067,0.172 2.098,0.367 3.102,0.504 1.015,0.097 1.988,0.195 2.926,0.285 1.867,0.234 3.601,0.254 5.129,0.293 0.761,0.023 1.472,0.043 2.136,0.062 0.656,-0.027 1.262,-0.047 1.805,-0.07 2.18,-0.102 3.422,-0.164 3.422,-0.164" /><path
         id="path496"
         style="fill:#ffffff;fill-opacity:1;fill-rule:evenodd;stroke:none"
         d="m 463.641,492.09 c 0,-0.996 -1.106,-1.309 -2.465,-1.309 H 357.68 c -1.36,0 -2.465,0.313 -2.465,1.309 v 0 c 0,1 1.101,1.312 2.465,1.312 h 103.496 c 1.359,0 2.465,-0.312 2.465,-1.312 v 0" /><path
         id="path498"
         style="fill:#ffffff;fill-opacity:1;fill-rule:evenodd;stroke:none"
         d="m 472.242,492.75 c 0,0 1.528,0.293 4.145,1.066 1.301,0.395 2.883,0.895 4.652,1.563 1.785,0.644 3.746,1.496 5.859,2.469 2.09,1.019 4.344,2.16 6.598,3.578 2.285,1.359 4.574,2.972 6.84,4.769 2.223,1.813 4.465,3.887 6.84,5.868 2.367,1.988 4.828,3.957 7.398,5.8 2.563,1.848 5.235,3.575 8.008,5.051 2.781,1.481 5.664,2.688 8.551,3.551 2.898,0.82 5.773,1.375 8.515,1.598 2.739,0.25 5.336,0.234 7.715,0.097 2.375,-0.121 4.532,-0.437 6.43,-0.726 1.898,-0.289 3.539,-0.629 4.879,-0.954 1.336,-0.308 2.383,-0.566 3.09,-0.777 0.711,-0.195 1.09,-0.305 1.09,-0.305 l -0.055,-0.253 c 0,0 -1.551,0.156 -4.274,0.437 -1.355,0.121 -3.007,0.258 -4.89,0.379 -1.883,0.117 -4.012,0.172 -6.317,0.129 -2.304,-0.035 -4.796,-0.184 -7.39,-0.527 -2.594,-0.368 -5.305,-0.872 -8.024,-1.704 -2.722,-0.796 -5.468,-1.879 -8.183,-3.175 -2.703,-1.309 -5.356,-2.875 -7.926,-4.579 -2.574,-1.707 -5.051,-3.582 -7.449,-5.472 -2.41,-1.883 -4.672,-3.856 -7.051,-5.668 -2.383,-1.762 -4.773,-3.348 -7.152,-4.645 -2.36,-1.34 -4.696,-2.39 -6.856,-3.336 -2.183,-0.89 -4.203,-1.66 -6.027,-2.23 -1.813,-0.598 -3.426,-1.031 -4.754,-1.371 -2.664,-0.66 -4.215,-0.891 -4.215,-0.891 l -0.047,0.258" /><path
         id="path500"
         style="fill:#ffffff;fill-opacity:1;fill-rule:evenodd;stroke:none"
         d="m 347.797,492.492 c 0,0 -1.555,0.231 -4.215,0.891 -1.328,0.34 -2.937,0.773 -4.75,1.371 -1.828,0.57 -3.848,1.34 -6.031,2.23 -2.16,0.946 -4.492,1.996 -6.852,3.336 -2.383,1.297 -4.773,2.883 -7.16,4.645 -2.375,1.812 -4.637,3.785 -7.043,5.668 -2.406,1.89 -4.879,3.765 -7.449,5.472 -2.574,1.704 -5.227,3.27 -7.93,4.579 -2.711,1.296 -5.457,2.379 -8.183,3.175 -2.723,0.832 -5.43,1.336 -8.024,1.704 -2.597,0.343 -5.082,0.492 -7.387,0.527 -2.308,0.043 -4.433,-0.012 -6.32,-0.129 -1.883,-0.121 -3.531,-0.258 -4.89,-0.379 -2.719,-0.281 -4.274,-0.437 -4.274,-0.437 l -0.051,0.253 c 0,0 0.379,0.11 1.086,0.305 0.707,0.211 1.754,0.469 3.094,0.777 1.336,0.325 2.977,0.661 4.875,0.954 1.898,0.289 4.055,0.601 6.434,0.726 2.375,0.137 4.972,0.153 7.714,-0.097 2.743,-0.223 5.614,-0.778 8.516,-1.598 2.883,-0.867 5.77,-2.07 8.543,-3.551 2.777,-1.476 5.449,-3.203 8.016,-5.051 2.566,-1.843 5.027,-3.812 7.394,-5.8 2.375,-1.981 4.621,-4.055 6.84,-5.868 2.266,-1.797 4.555,-3.41 6.84,-4.769 2.258,-1.418 4.508,-2.559 6.598,-3.578 2.113,-0.973 4.078,-1.825 5.859,-2.469 1.773,-0.668 3.348,-1.168 4.652,-1.563 2.617,-0.773 4.145,-1.066 4.145,-1.066 l -0.047,-0.258" /><path
         id="path502"
         style="fill:#f0dbb2;fill-opacity:1;fill-rule:evenodd;stroke:none"
         d="m 257.422,689.961 -32.758,-17.039 24.899,-14.41 -6.555,-36.692 c 0,0 34.07,19.657 74.691,28.828 l -14.414,35.379 -45.863,3.934" /><g
         id="g504"><path
           id="path506"
           style="fill:none;stroke:#1f222c;stroke-width:7.86203003;stroke-linecap:square;stroke-linejoin:miter;stroke-miterlimit:10;stroke-dasharray:none;stroke-opacity:1"
           d="m 257.422,689.961 -32.758,-17.039 24.898,-14.41 -6.554,-36.691 c 0,0 34.07,19.656 74.691,28.828 l -14.414,35.379 z" /></g><path
         id="path508"
         style="fill:#ffffff;fill-opacity:1;fill-rule:evenodd;stroke:none"
         d="m 315.078,651.305 -44.527,0.675 44.527,-0.675" /><g
         id="g510"><path
           id="path512"
           style="fill:none;stroke:#1f222c;stroke-width:7.86203003;stroke-linecap:round;stroke-linejoin:miter;stroke-miterlimit:10;stroke-dasharray:none;stroke-opacity:1"
           d="m 315.078,651.305 -44.527,0.676" /></g><path
         id="path514"
         style="fill:#f0dbb2;fill-opacity:1;fill-rule:evenodd;stroke:none"
         d="m 560.777,689.961 32.758,-17.039 -24.898,-14.41 6.551,-36.692 c 0,0 -34.071,19.657 -74.688,28.828 l 14.414,35.379 45.863,3.934" /><g
         id="g516"><path
           id="path518"
           style="fill:none;stroke:#212a36;stroke-width:7.86203003;stroke-linecap:square;stroke-linejoin:miter;stroke-miterlimit:10;stroke-dasharray:none;stroke-opacity:1"
           d="m 560.777,689.961 32.758,-17.039 -24.899,-14.41 6.551,-36.691 c 0,0 -34.07,19.656 -74.687,28.828 l 14.414,35.379 z" /></g><path
         id="path520"
         style="fill:#ffffff;fill-opacity:1;fill-rule:evenodd;stroke:none"
         d="m 503.121,651.305 44.527,0.675 -44.527,-0.675" /><g
         id="g522"><path
           id="path524"
           style="fill:none;stroke:#1f222c;stroke-width:7.86203003;stroke-linecap:round;stroke-linejoin:miter;stroke-miterlimit:10;stroke-dasharray:none;stroke-opacity:1"
           d="m 503.121,651.305 44.527,0.676" /></g><path
         id="path526"
         style="fill:#f0dbb2;fill-opacity:1;fill-rule:evenodd;stroke:none"
         d="m 549.012,654.598 c -91.367,40.465 -187.75,40.465 -279.117,0 -9.532,20.082 -19.063,40.156 -28.59,60.23 109.347,48.996 226.949,48.988 336.297,0 -9.528,-20.074 -19.059,-40.152 -28.59,-60.23" /><g
         id="g528"><path
           id="path530"
           style="fill:none;stroke:#212a36;stroke-width:7.86203003;stroke-linecap:square;stroke-linejoin:miter;stroke-miterlimit:10;stroke-dasharray:none;stroke-opacity:1"
           d="m 549.011,654.598 c -91.367,40.465 -187.75,40.465 -279.117,0 -9.531,20.082 -19.062,40.156 -28.589,60.231 109.347,48.996 226.949,48.988 336.296,0 -9.527,-20.075 -19.058,-40.153 -28.59,-60.231 z" /></g><path
         id="path532"
         style="fill:#1f222c;fill-opacity:1;fill-rule:evenodd;stroke:none"
         d="m 483.66,563.77 -17.41,-20.676 c -9.16,3.664 -9.16,16.496 -9.16,16.496 16.5,17.41 -3.652,32.074 -3.652,32.074 -23.829,-20.16 -6.395,-32.074 -6.395,-32.074 -4.582,-23.828 -28.363,-18.332 -28.363,-18.332 l 11.828,17.414 c -22.91,16.496 2.176,33.906 2.176,33.906 -21.079,10.082 -23.258,34.371 -23.258,34.371 0,0 -2.176,-24.289 -23.254,-34.371 0,0 25.086,-17.41 2.176,-33.906 l 11.828,-17.414 c 0,0 -23.785,-5.496 -28.367,18.332 0,0 17.433,11.914 -6.395,32.074 0,0 -20.148,-14.664 -3.652,-32.074 0,0 0.004,-12.832 -9.16,-16.496 l -17.407,20.676 c 0,0 -5.496,-31.055 19.246,-44.161 h 109.973 c 24.746,13.106 19.246,44.161 19.246,44.161" /><path
         id="path534"
         style="fill:#1f222c;fill-opacity:1;fill-rule:evenodd;stroke:none"
         d="m 409.426,662.066 3.711,-11.418 h 12.004 l -9.711,-7.058 3.711,-11.418 -9.715,7.058 -9.711,-7.058 3.711,11.418 -9.715,7.058 h 12.004 l 3.711,11.418" /><path
         id="path536"
         style="fill:#1f222c;fill-opacity:1;fill-rule:evenodd;stroke:none"
         d="m 354.004,651.445 7.719,-9.191 11.129,4.504 -6.356,-10.188 7.723,-9.187 -11.653,2.894 -6.355,-10.183 -0.844,11.976 -11.652,2.899 11.133,4.504 -0.844,11.972" /><path
         id="path538"
         style="fill:#1f222c;fill-opacity:1;fill-rule:evenodd;stroke:none"
         d="m 306.605,620.82 10.606,-5.629 8.629,8.348 -2.07,-11.824 10.601,-5.625 -11.887,-1.684 -2.074,-11.824 -5.269,10.785 -11.887,-1.679 8.625,8.347 -5.274,10.785" /><path
         id="path540"
         style="fill:#1f222c;fill-opacity:1;fill-rule:evenodd;stroke:none"
         d="m 274.16,574.648 11.938,-1.234 4.867,10.973 2.515,-11.739 11.938,-1.242 -10.387,-6.015 2.512,-11.739 -8.93,8.024 -10.39,-6.02 4.867,10.977 -8.93,8.015" /><path
         id="path542"
         style="fill:#1f222c;fill-opacity:1;fill-rule:evenodd;stroke:none"
         d="m 463.98,651.445 -7.722,-9.191 -11.129,4.504 6.355,-10.188 -7.722,-9.187 11.652,2.894 6.356,-10.183 0.843,11.976 11.649,2.899 -11.125,4.504 0.843,11.972" /><path
         id="path544"
         style="fill:#1f222c;fill-opacity:1;fill-rule:evenodd;stroke:none"
         d="m 511.375,620.82 -10.605,-5.629 -8.625,8.348 2.07,-11.824 -10.606,-5.625 11.891,-1.684 2.07,-11.824 5.274,10.785 11.886,-1.679 -8.628,8.347 5.273,10.785" /><path
         id="path546"
         style="fill:#1f222c;fill-opacity:1;fill-rule:evenodd;stroke:none"
         d="m 543.828,574.648 -11.945,-1.234 -4.867,10.973 -2.512,-11.739 -11.941,-1.242 10.39,-6.015 -2.515,-11.739 8.929,8.024 10.395,-6.02 -4.871,10.977 8.937,8.015" /><path
         id="path548"
         style="fill:#f0dbb2;fill-opacity:1;fill-rule:evenodd;stroke:none"
         d="m 683.379,152.746 c -181.012,-50.82 -368.203,-50.808 -549.215,-0.004 0.027,36.805 0.059,73.613 0.086,110.418 183.016,-1.887 366.031,-1.887 549.043,0 0.027,-36.805 0.059,-73.609 0.086,-110.414" /><g
         id="g550"><path
           id="path552"
           style="fill:none;stroke:#212a36;stroke-width:7.86203003;stroke-linecap:square;stroke-linejoin:miter;stroke-miterlimit:10;stroke-dasharray:none;stroke-opacity:1"
           d="m 683.378,152.746 c -181.011,-50.82 -368.202,-50.808 -549.214,-0.004 0.027,36.805 0.059,73.614 0.086,110.418 183.015,-1.886 366.031,-1.886 549.042,0 0.028,-36.804 0.059,-73.609 0.086,-110.414 z" /></g><path
         id="path554"
         style="fill:#ffffff;fill-opacity:1;fill-rule:evenodd;stroke:none"
         d="M 269.219,147.461 H 495.91 269.219" /><path
         id="path556"
         style="fill:#212a36;fill-opacity:1;fill-rule:nonzero;stroke:none"
         d="m 325.059,714.84 0.937,-0.18 1.895,10.094 -0.938,0.18 c -0.262,-0.891 -0.633,-1.051 -1.348,-1.227 -2.007,-0.5 -8.074,0.949 -15.91,-1 -10.359,-2.574 -15.511,-8.668 -14.004,-14.754 1.532,-6.156 7.551,-7.961 18.137,-5.742 6.41,1.324 10.539,2.418 11.473,-1.34 0.597,-2.394 -1.965,-4.82 -7.406,-6.168 -8.094,-2.015 -15.082,-0.726 -15.665,1.606 -0.046,0.191 -0.031,0.406 0.055,0.629 l -0.937,0.179 -2.157,-11.535 0.942,-0.18 c 0.355,0.778 0.582,1.246 1.031,1.36 0.715,0.179 6.977,-1.5 18.371,1.332 10.945,2.722 16.278,9.48 14.637,16.086 -1.707,6.863 -7.449,8.39 -18.086,6.367 -7.344,-1.414 -11.07,-2.481 -11.731,0.176 -0.496,2.007 2.125,4.449 7.504,5.785 6.344,1.578 12.735,1.035 13.184,-0.781 0.051,-0.196 -0.016,-0.485 0.016,-0.887 z m 28.211,8.808 7.214,0.915 c 5.426,0.687 8.036,0.281 8.442,-2.899 0.363,-2.91 -2.012,-4.289 -7.176,-4.945 l -7.48,-0.949 z m -7.934,-29.187 13.176,1.668 -0.121,0.926 c -1.43,0.156 -1.805,0.445 -1.961,1.703 l -1.274,9.992 8.145,1.035 c 5.097,0.649 8.703,1.375 11.328,3.524 2.551,2.14 3.851,5.668 3.371,9.441 -0.848,6.684 -6.094,10.391 -15.031,9.258 l -22.039,-2.797 0.117,-0.93 c 1.43,-0.156 1.738,-0.449 1.898,-1.703 l 3.688,-29.062 c 0.156,-1.258 -0.067,-1.625 -1.414,-2.129 z m 51.68,22.434 c -0.086,5.937 3.996,10.066 10.265,10.148 6.34,0.09 10.465,-3.988 10.547,-9.859 0.082,-5.871 -3.863,-9.996 -10.199,-10.086 -6.477,-0.09 -10.535,3.859 -10.613,9.797 z m 10.656,-17.938 c 12.273,0.172 20.504,8.359 20.367,18.434 -0.141,10.074 -8.457,17.968 -20.867,17.793 -12.41,-0.168 -20.508,-8.289 -20.367,-18.364 0.136,-10.074 8.59,-18.035 20.867,-17.863 z m 44.031,26.563 8.277,-1.047 c 5.426,-0.692 7.852,-1.739 7.446,-4.918 -0.371,-2.914 -3.02,-3.653 -8.184,-2.996 l -8.535,1.082 z m -14.973,-26.282 13.176,-1.672 0.117,0.926 c -1.347,0.508 -1.636,0.883 -1.476,2.137 l 1.269,9.996 7.149,-0.906 4.558,-9.656 c 0.372,-0.79 0.832,-1.387 0.754,-1.981 -0.062,-0.527 -0.511,-0.879 -1.265,-0.984 l -0.114,-0.93 13.961,-1.77 0.121,0.926 c -1.738,0.629 -2.488,2.137 -3.542,4.418 l -4.129,8.797 c 6.105,0.977 9.613,4.231 10.3,9.66 0.852,6.684 -3.367,11.59 -12.304,12.723 l -24.164,3.066 -0.114,-0.925 c 1.344,-0.508 1.571,-0.875 1.411,-2.129 l -3.688,-29.059 c -0.16,-1.262 -0.465,-1.559 -1.902,-1.711 z m 74.141,13.832 10.168,-2.523 c 1.231,-0.305 1.473,-0.711 1.461,-2.152 l 0.906,-0.223 2.914,11.719 -0.906,0.226 c -0.664,-1.281 -1.066,-1.523 -2.297,-1.215 l -29.984,7.446 c -1.227,0.308 -1.473,0.711 -1.457,2.152 l -0.973,0.242 -2.91,-11.722 0.969,-0.239 c 0.664,1.278 1.066,1.52 2.297,1.219 l 10.23,-2.543 -5.68,-22.863 c -0.304,-1.227 -0.711,-1.473 -2.148,-1.461 l -0.227,-0.903 12.883,-3.203 0.227,0.907 c -1.281,0.66 -1.457,1.05 -1.149,2.281 l 5.676,22.855" /><path
         id="path558"
         style="fill:#212a36;fill-opacity:1;fill-rule:evenodd;stroke:none"
         d="m 262.184,231.695 c 5.765,8.262 -4.957,10.371 -27.68,-16.324 l -0.113,-0.098 -27.914,-40.527 h -12.219 l 39.437,56.949 c 5.653,8.164 -4.726,10.278 -26.984,-15.461 L 178.109,174.746 H 165.77 l 41.054,59.352 c -12.918,-5.477 -33.328,-5.762 -38.867,-13.735 -5.883,-8.351 4.496,-11.906 4.496,-11.906 l -4.496,-6.437 c -7.957,2.593 -17.184,10.66 -9.457,21.898 9.805,14.211 36.215,9.125 57.324,23.047 l 6.11,-8.735 -3.231,-4.71 c 7.613,7.972 14.418,11.335 20.645,11.335 6.343,0 11.183,-5.093 7.031,-12.101 7.965,8.449 14.992,12.101 21.457,12.101 6.691,0 11.648,-5.476 6.453,-13.062 l -44.402,-64.059 c -1.723,-2.402 -2.418,-7.207 1.617,-8.836 l -5.074,-7.3 c -9.918,4.132 -10.379,13.351 -5.532,20.363 l 41.286,59.734" /><path
         id="path560"
         style="fill:none;stroke:#ffffff;stroke-width:7.08659983;stroke-linecap:butt;stroke-linejoin:miter;stroke-miterlimit:22.92560005;stroke-dasharray:none;stroke-opacity:1"
         d="m 262.184,231.695 c 5.765,8.262 -4.957,10.371 -27.68,-16.324 l -0.113,-0.098 -27.914,-40.527 h -12.219 l 39.437,56.949 c 5.653,8.164 -4.726,10.278 -26.984,-15.461 L 178.109,174.746 H 165.77 l 41.054,59.352 c -12.918,-5.477 -33.328,-5.762 -38.867,-13.735 -5.883,-8.351 4.496,-11.906 4.496,-11.906 l -4.496,-6.437 c -7.957,2.593 -17.184,10.66 -9.457,21.898 9.805,14.211 36.215,9.125 57.324,23.047 l 6.11,-8.735 -3.231,-4.71 c 7.613,7.972 14.418,11.335 20.645,11.335 6.343,0 11.183,-5.093 7.031,-12.101 7.965,8.449 14.992,12.101 21.457,12.101 6.691,0 11.648,-5.476 6.453,-13.062 l -44.402,-64.059 c -1.723,-2.402 -2.418,-7.207 1.617,-8.836 l -5.074,-7.3 c -9.918,4.132 -10.379,13.351 -5.532,20.363 z" /><path
         id="path562"
         style="fill:#212a36;fill-opacity:1;fill-rule:evenodd;stroke:none"
         d="m 288.027,195.008 h 0.578 l 8.762,12.488 c 7.266,10.371 -4.262,15.078 -12.683,3.168 l -5.766,-8.164 -9.109,-13.156 c -7.157,-10.371 6.57,-11.91 12.222,-3.84 l 0.117,0.191 c -0.695,0.957 -1.156,2.114 -1.156,3.36 0,3.265 3.113,5.953 7.035,5.953 z m 3.461,-12.485 c -16.144,-17 -45.097,-9.027 -29.992,12.582 l 5.195,7.395 5.883,8.547 c 6.922,9.988 14.067,13.058 23.297,13.058 11.301,0 17.988,-9.886 10.723,-20.355 l -11.301,-16.234 c 6,0.097 12.691,2.5 18.109,7.398 l 0.809,0.77 c 1.609,-0.579 3.687,-2.114 4.496,-3.461 -6.113,-6.051 -17.414,-9.7 -24.566,-9.7 h -2.653" /><path
         id="path564"
         style="fill:none;stroke:#ffffff;stroke-width:7.08659983;stroke-linecap:butt;stroke-linejoin:miter;stroke-miterlimit:22.92560005;stroke-dasharray:none;stroke-opacity:1"
         d="m 288.027,195.008 h 0.578 l 8.762,12.488 c 7.266,10.371 -4.262,15.078 -12.683,3.168 l -5.766,-8.164 -9.109,-13.156 c -7.157,-10.371 6.57,-11.91 12.222,-3.84 l 0.117,0.191 c -0.695,0.957 -1.156,2.114 -1.156,3.36 0,3.265 3.113,5.953 7.035,5.953 z m 3.461,-12.485 c -16.144,-17 -45.097,-9.027 -29.992,12.582 l 5.195,7.395 5.883,8.547 c 6.922,9.988 14.067,13.058 23.297,13.058 11.301,0 17.988,-9.886 10.723,-20.355 l -11.301,-16.234 c 6,0.097 12.691,2.5 18.109,7.398 l 0.809,0.77 c 1.609,-0.579 3.687,-2.114 4.496,-3.461 -6.113,-6.051 -17.414,-9.7 -24.566,-9.7 z" /><path
         id="path566"
         style="fill:#212a36;fill-opacity:1;fill-rule:evenodd;stroke:none"
         d="m 324.938,227.57 h 10.843 l 11.297,16.325 h 11.996 L 347.773,227.57 h 9.918 l -3.461,-4.804 h -9.796 l -25.723,-37.36 c -2.77,-3.941 -1.27,-5.472 1.379,-5.472 5.308,0 13.726,6.625 22.375,14.98 l 0.808,0.77 c 1.618,-0.579 3.692,-2.114 4.5,-3.461 -9.918,-9.602 -21.339,-18.438 -31.257,-18.438 -9.684,0 -13.262,6.817 -8.188,14.211 l 24.106,34.77 h -10.957 l 3.461,4.804" /><path
         id="path568"
         style="fill:none;stroke:#ffffff;stroke-width:7.08659983;stroke-linecap:butt;stroke-linejoin:miter;stroke-miterlimit:22.92560005;stroke-dasharray:none;stroke-opacity:1"
         d="m 324.938,227.57 h 10.843 l 11.297,16.325 h 11.996 L 347.773,227.57 h 9.918 l -3.461,-4.804 h -9.796 l -25.723,-37.36 c -2.77,-3.941 -1.27,-5.472 1.379,-5.472 5.308,0 13.726,6.625 22.375,14.98 l 0.808,0.77 c 1.618,-0.579 3.692,-2.114 4.5,-3.461 -9.918,-9.602 -21.339,-18.438 -31.257,-18.438 -9.684,0 -13.262,6.817 -8.188,14.211 l 24.106,34.77 h -10.957 z" /><path
         id="path570"
         style="fill:#212a36;fill-opacity:1;fill-rule:evenodd;stroke:none"
         d="m 368.766,195.008 h 0.574 l 8.765,12.488 c 7.266,10.371 -4.265,15.078 -12.683,3.168 l -5.77,-8.164 -9.113,-13.156 c -7.148,-10.371 6.578,-11.91 12.227,-3.84 l 0.117,0.191 c -0.692,0.957 -1.153,2.114 -1.153,3.36 0,3.265 3.114,5.953 7.036,5.953 z m 3.461,-12.485 c -16.149,-17 -45.094,-9.027 -29.989,12.582 l 5.188,7.395 5.887,8.547 c 6.921,9.988 14.07,13.058 23.296,13.058 11.305,0 17.993,-9.886 10.727,-20.355 l -11.301,-16.234 c 5.992,0.097 12.68,2.5 18.106,7.398 l 0.804,0.77 c 1.614,-0.579 3.692,-2.114 4.5,-3.461 -6.113,-6.051 -17.418,-9.7 -24.566,-9.7 h -2.652" /><path
         id="path572"
         style="fill:none;stroke:#ffffff;stroke-width:7.08659983;stroke-linecap:butt;stroke-linejoin:miter;stroke-miterlimit:22.92560005;stroke-dasharray:none;stroke-opacity:1"
         d="m 368.766,195.008 h 0.574 l 8.765,12.488 c 7.266,10.371 -4.265,15.078 -12.683,3.168 l -5.77,-8.164 -9.113,-13.156 c -7.148,-10.371 6.578,-11.91 12.227,-3.84 l 0.117,0.191 c -0.692,0.957 -1.153,2.114 -1.153,3.36 0,3.265 3.114,5.953 7.036,5.953 z m 3.461,-12.485 c -16.149,-17 -45.094,-9.027 -29.989,12.582 l 5.188,7.395 5.887,8.547 c 6.921,9.988 14.07,13.058 23.296,13.058 11.305,0 17.993,-9.886 10.727,-20.355 l -11.301,-16.234 c 5.992,0.097 12.68,2.5 18.106,7.398 l 0.804,0.77 c 1.614,-0.579 3.692,-2.114 4.5,-3.461 -6.113,-6.051 -17.418,-9.7 -24.566,-9.7 z" /><path
         id="path574"
         style="fill:#212a36;fill-opacity:1;fill-rule:evenodd;stroke:none"
         d="m 421.008,206.34 c 1.39,2.019 0.812,4.031 -0.688,5.672 l -1.613,1.629 c -9.574,-10.852 -14.066,-15.844 -19.84,-21.418 -1.726,0.961 -3.461,2.211 -4.5,3.461 7.848,7.679 15,16.132 20.301,22.375 l -1.035,1.152 c -4.266,4.609 -3.692,10.277 3.113,15.367 l 6.227,-5.668 c -2.418,-1.918 -2.422,-3.937 -0.688,-5.765 l 6.688,-6.715 c 3.922,-3.938 5.882,-7.496 1.726,-13.547 l -11.992,-17.477 c -2.769,-3.941 -1.266,-5.472 1.383,-5.472 5.308,0 13.723,6.625 22.371,14.98 l 0.809,0.77 c 1.617,-0.579 3.695,-2.114 4.503,-3.461 -9.921,-9.602 -21.343,-18.438 -31.257,-18.438 -9.684,0 -13.262,6.817 -8.188,14.211 l 12.68,18.344" /><path
         id="path576"
         style="fill:none;stroke:#ffffff;stroke-width:7.08659983;stroke-linecap:butt;stroke-linejoin:miter;stroke-miterlimit:22.92560005;stroke-dasharray:none;stroke-opacity:1"
         d="m 421.008,206.34 c 1.39,2.019 0.812,4.031 -0.688,5.672 l -1.613,1.629 c -9.574,-10.852 -14.066,-15.844 -19.84,-21.418 -1.726,0.961 -3.461,2.211 -4.5,3.461 7.848,7.679 15,16.132 20.301,22.375 l -1.035,1.152 c -4.266,4.609 -3.692,10.277 3.113,15.367 l 6.227,-5.668 c -2.418,-1.918 -2.422,-3.937 -0.688,-5.765 l 6.688,-6.715 c 3.922,-3.938 5.882,-7.496 1.726,-13.547 l -11.992,-17.477 c -2.769,-3.941 -1.266,-5.472 1.383,-5.472 5.308,0 13.723,6.625 22.371,14.98 l 0.809,0.77 c 1.617,-0.579 3.695,-2.114 4.503,-3.461 -9.921,-9.602 -21.343,-18.438 -31.257,-18.438 -9.684,0 -13.262,6.817 -8.188,14.211 z" /><path
         id="path578"
         style="fill:#212a36;fill-opacity:1;fill-rule:evenodd;stroke:none"
         d="m 452.16,191.84 c -5.535,-8.067 -1.152,-11.906 6.227,-11.906 8.418,0 19.484,6.625 28.136,14.98 l 0.813,0.77 c 1.613,-0.579 3.691,-2.114 4.5,-3.461 -9.922,-9.602 -23.418,-18.438 -37.027,-18.438 -14.184,0 -20.645,9.797 -13.145,20.453 l 12.566,17.961 c 5.075,7.301 12.801,11.528 22.493,11.528 9.8,0 16.031,-6.914 9.574,-16.133 l -1.734,-2.5 h -9.805 l 1.734,2.5 c 7.153,10.367 -5.074,12 -11.996,2.109 L 452.16,191.84" /><path
         id="path580"
         style="fill:none;stroke:#ffffff;stroke-width:7.08659983;stroke-linecap:butt;stroke-linejoin:miter;stroke-miterlimit:22.92560005;stroke-dasharray:none;stroke-opacity:1"
         d="m 452.16,191.84 c -5.535,-8.067 -1.152,-11.906 6.227,-11.906 8.418,0 19.484,6.625 28.136,14.98 l 0.813,0.77 c 1.613,-0.579 3.691,-2.114 4.5,-3.461 -9.922,-9.602 -23.418,-18.438 -37.027,-18.438 -14.184,0 -20.645,9.797 -13.145,20.453 l 12.566,17.961 c 5.075,7.301 12.801,11.528 22.493,11.528 9.8,0 16.031,-6.914 9.574,-16.133 l -1.734,-2.5 h -9.805 l 1.734,2.5 c 7.153,10.367 -5.074,12 -11.996,2.109 z" /><path
         id="path582"
         style="fill:#212a36;fill-opacity:1;fill-rule:evenodd;stroke:none"
         d="m 487.688,157.648 5.527,8.067 c -9.223,-2.973 -12.102,-5.949 -12.102,-8.547 0,-2.688 4.035,-3.262 6.575,0.48 z m 23.64,34.383 21.219,30.735 h 11.996 l -32.871,-46.868 c 9.461,3.36 17.879,9.508 27.793,19.016 l 0.808,0.77 c 1.618,-0.579 3.692,-2.114 4.504,-3.461 -13.152,-12.672 -25.379,-19.782 -37.836,-23.047 l -9.222,-13.16 c -8.649,-12.293 -26.297,-10.274 -26.297,-0.672 0,7.492 10.144,13.062 26.41,17.097 l 6.574,9.414 c -5.418,-4.042 -11.996,-8.07 -17.761,-8.07 -7.954,0 -10.727,6.242 -4.614,15.078 l 23.532,33.903 h 11.996 L 494.145,188.77 c -1.504,-2.118 -4.5,-5.86 -1.504,-6.918 2.312,-0.864 9.461,3.07 18.687,10.179" /><path
         id="path584"
         style="fill:none;stroke:#ffffff;stroke-width:7.08659983;stroke-linecap:butt;stroke-linejoin:miter;stroke-miterlimit:22.92560005;stroke-dasharray:none;stroke-opacity:1"
         d="m 487.688,157.648 5.527,8.067 c -9.223,-2.973 -12.102,-5.949 -12.102,-8.547 0,-2.688 4.035,-3.262 6.575,0.48 z m 23.64,34.383 21.219,30.735 h 11.996 l -32.871,-46.868 c 9.461,3.36 17.879,9.508 27.793,19.016 l 0.808,0.77 c 1.618,-0.579 3.692,-2.114 4.504,-3.461 -13.152,-12.672 -25.379,-19.782 -37.836,-23.047 l -9.222,-13.16 c -8.649,-12.293 -26.297,-10.274 -26.297,-0.672 0,7.492 10.144,13.062 26.41,17.097 l 6.574,9.414 c -5.418,-4.042 -11.996,-8.07 -17.761,-8.07 -7.954,0 -10.727,6.242 -4.614,15.078 l 23.532,33.903 h 11.996 L 494.145,188.77 c -1.504,-2.118 -4.5,-5.86 -1.504,-6.918 2.312,-0.864 9.461,3.07 18.687,10.179 z" /><path
         id="path586"
         style="fill:#212a36;fill-opacity:1;fill-rule:evenodd;stroke:none"
         d="m 549.16,191.84 c -5.535,-8.067 -1.152,-11.906 6.231,-11.906 8.414,0 19.484,6.625 28.136,14.98 l 0.809,0.77 c 1.613,-0.579 3.695,-2.114 4.496,-3.461 -9.914,-9.602 -23.41,-18.438 -37.019,-18.438 -14.184,0 -20.641,9.797 -13.145,20.453 l 12.566,17.961 c 5.075,7.301 12.801,11.528 22.493,11.528 9.8,0 16.027,-6.914 9.574,-16.133 l -1.735,-2.5 h -9.804 l 1.734,2.5 c 7.152,10.367 -5.078,12 -11.996,2.109 L 549.16,191.84" /><path
         id="path588"
         style="fill:none;stroke:#ffffff;stroke-width:7.08659983;stroke-linecap:butt;stroke-linejoin:miter;stroke-miterlimit:22.92560005;stroke-dasharray:none;stroke-opacity:1"
         d="m 549.16,191.84 c -5.535,-8.067 -1.152,-11.906 6.231,-11.906 8.414,0 19.484,6.625 28.136,14.98 l 0.809,0.77 c 1.613,-0.579 3.695,-2.114 4.496,-3.461 -9.914,-9.602 -23.41,-18.438 -37.019,-18.438 -14.184,0 -20.641,9.797 -13.145,20.453 l 12.566,17.961 c 5.075,7.301 12.801,11.528 22.493,11.528 9.8,0 16.027,-6.914 9.574,-16.133 l -1.735,-2.5 h -9.804 l 1.734,2.5 c 7.152,10.367 -5.078,12 -11.996,2.109 z" /><path
         id="path590"
         style="fill:#212a36;fill-opacity:1;fill-rule:evenodd;stroke:none"
         d="m 613.402,195.684 c 1.614,-0.579 3.688,-2.114 4.496,-3.461 -9.918,-9.602 -21.339,-18.438 -31.253,-18.438 -9.688,0 -13.266,6.817 -8.188,14.211 l 38.75,55.899 h 11.992 l -40.367,-58.489 c -2.766,-3.941 -1.269,-5.472 1.383,-5.472 5.312,0 13.726,6.625 22.375,14.98 l 0.812,0.77" /><path
         id="path592"
         style="fill:none;stroke:#ffffff;stroke-width:7.08659983;stroke-linecap:butt;stroke-linejoin:miter;stroke-miterlimit:22.92560005;stroke-dasharray:none;stroke-opacity:1"
         d="m 613.402,195.684 c 1.614,-0.579 3.688,-2.114 4.496,-3.461 -9.918,-9.602 -21.339,-18.438 -31.253,-18.438 -9.688,0 -13.266,6.817 -8.188,14.211 l 38.75,55.899 h 11.992 l -40.367,-58.489 c -2.766,-3.941 -1.269,-5.472 1.383,-5.472 5.312,0 13.726,6.625 22.375,14.98 z" /><path
         id="path594"
         style="fill:#212a36;fill-opacity:1;fill-rule:evenodd;stroke:none"
         d="m 626.898,198.469 c 4.497,-1.344 12.223,-1.535 17.989,6.625 l 1.73,2.5 c 7.153,10.367 -5.074,12 -11.996,2.109 z m -3.46,-4.899 -1.153,-1.73 c -5.539,-8.067 -1.156,-11.906 6.227,-11.906 8.418,0 19.488,6.625 28.14,14.98 l 0.809,0.77 c 1.617,-0.579 3.691,-2.114 4.496,-3.461 -9.918,-9.602 -23.414,-18.438 -37.019,-18.438 -14.188,0 -20.645,9.797 -13.149,20.453 l 12.57,17.961 c 5.075,7.301 12.801,11.528 22.489,11.528 9.804,0 16.031,-6.914 9.574,-16.133 l -1.734,-2.5 c -8.993,-12.965 -23.524,-14.215 -31.25,-11.524" /><path
         id="path596"
         style="fill:none;stroke:#ffffff;stroke-width:7.08659983;stroke-linecap:butt;stroke-linejoin:miter;stroke-miterlimit:22.92560005;stroke-dasharray:none;stroke-opacity:1"
         d="m 626.898,198.469 c 4.497,-1.344 12.223,-1.535 17.989,6.625 l 1.73,2.5 c 7.153,10.367 -5.074,12 -11.996,2.109 z m -3.46,-4.899 -1.153,-1.73 c -5.539,-8.067 -1.156,-11.906 6.227,-11.906 8.418,0 19.488,6.625 28.14,14.98 l 0.809,0.77 c 1.617,-0.579 3.691,-2.114 4.496,-3.461 -9.918,-9.602 -23.414,-18.438 -37.019,-18.438 -14.188,0 -20.645,9.797 -13.149,20.453 l 12.57,17.961 c 5.075,7.301 12.801,11.528 22.489,11.528 9.804,0 16.031,-6.914 9.574,-16.133 l -1.734,-2.5 c -8.993,-12.965 -23.524,-14.215 -31.25,-11.524 z" /></g></g></svg>