<?xml version="1.0" encoding="UTF-8" standalone="no"?>
<svg
   xmlns:dc="http://purl.org/dc/elements/1.1/"
   xmlns:cc="http://creativecommons.org/ns#"
   xmlns:rdf="http://www.w3.org/1999/02/22-rdf-syntax-ns#"
   xmlns:svg="http://www.w3.org/2000/svg"
   xmlns="http://www.w3.org/2000/svg"
   viewBox="0 0 89.333336 109.33333"
   height="109.33333"
   width="89.333336"
   xml:space="preserve"
   id="svg2"
   version="1.1"><metadata
     id="metadata8"><rdf:RDF><cc:Work
         rdf:about=""><dc:format>image/svg+xml</dc:format><dc:type
           rdf:resource="http://purl.org/dc/dcmitype/StillImage" /></cc:Work></rdf:RDF></metadata><defs
     id="defs6" /><g
     transform="matrix(1.3333333,0,0,-1.3333333,0,109.33333)"
     id="g10"><g
       transform="scale(0.1)"
       id="g12"><path
         id="path14"
         style="fill:#4ac7f2;fill-opacity:1;fill-rule:nonzero;stroke:none"
         d="M 331.652,17.8711 C 311.996,29.5273 281.848,39.1094 243.68,51.25 145.922,82.3203 12.0469,124.887 12.0469,218.461 v 497.766 l 5.3984,0.195 c 170.4337,5.914 276.3127,65.527 313.9257,90.887 l 3.121,2.113 3.129,-2.113 c 37.606,-25.36 143.481,-84.981 313.914,-90.887 l 5.391,-0.195 V 218.461 C 656.926,124.887 523.055,82.3203 425.309,51.25 387.148,39.1094 356.996,29.5273 337.344,17.8711 l -2.852,-1.6758 -2.84,1.6758" /><path
         id="path16"
         style="fill:#ffffff;fill-opacity:1;fill-rule:nonzero;stroke:none"
         d="m 334.492,816.164 -6.25,-4.215 C 291.027,786.867 186.234,727.875 17.25,722.016 L 6.45703,721.641 V 218.461 C 6.45703,120.797 142.59,77.5117 241.984,45.8984 279.809,33.8867 309.691,24.375 328.797,13.0625 l 5.695,-3.36719 5.707,3.36719 C 359.301,24.375 389.172,33.8867 427,45.8984 526.398,77.5117 662.523,120.797 662.523,218.461 v 503.18 l -10.8,0.375 c -168.985,5.859 -273.766,64.851 -310.969,89.933 z m 0,-13.48 c 40.137,-27.075 146.254,-85.942 316.84,-91.844 V 218.461 C 651.332,128.992 519.719,87.1289 423.613,56.5625 385.125,44.332 354.68,34.6602 334.492,22.6797 314.309,34.6602 283.859,44.332 245.375,56.5625 149.266,87.1289 17.6406,128.992 17.6406,218.461 V 710.84 c 170.5864,5.902 276.7224,64.769 316.8514,91.844" /><path
         id="path18"
         style="fill:#222443;fill-opacity:1;fill-rule:nonzero;stroke:none"
         d="M 334.492,22.6797 C 314.309,34.6602 283.859,44.332 245.375,56.5625 149.266,87.1289 17.6406,128.992 17.6406,218.461 v 146.676 c 167.2264,0 456.6994,0 633.6914,0 V 218.461 C 651.332,128.992 519.719,87.1289 423.613,56.5625 385.125,44.332 354.68,34.6602 334.492,22.6797" /><path
         id="path20"
         style="fill:#ffffff;fill-opacity:1;fill-rule:nonzero;stroke:none"
         d="m 421.965,105.727 c -2.59,0 -16.414,-0.164 -34.27,-0.391 1.43,2.66 3.219,6.016 5.18,9.695 4.305,3.133 8.906,6.614 13.59,10.465 -2.039,-8.738 2.324,-15.148 13.305,-15.148 5.332,0 10.964,2.199 15.878,6.222 5.75,4.746 11.024,8.114 11.024,3.266 0,-4.395 -8.234,-14.109 -24.707,-14.109 z M 369.23,90.7305 c -1.25,0 -2.312,0.5976 -2.312,2.5508 0,1.414 1.207,3.0859 3.355,5.082 1.696,0.1445 3.383,0.2969 5.063,0.4219 -2.43,-4.7071 -3.973,-8.0547 -6.106,-8.0547 z m 10.071,28.9845 c -3.082,0 -2.43,5.207 1.367,11.613 3.848,6.399 9.418,11.617 12.437,11.617 3.086,0 2.497,-5.218 -1.355,-11.617 -3.797,-6.406 -9.363,-11.613 -12.449,-11.613 z m 52.379,23.23 c 3.027,0 -0.172,-6.941 -3.965,-10.148 -2.789,-2.309 -6.11,-4.551 -9.012,-2.309 0.176,0.309 0.36,0.543 0.473,0.84 3.855,6.461 9.429,11.617 12.504,11.617 z m -70.567,0 c 3.024,0 -0.175,-6.941 -3.968,-10.148 -2.786,-2.309 -6.106,-4.551 -9.012,-2.309 0.18,0.309 0.359,0.543 0.472,0.84 3.856,6.461 9.426,11.617 12.508,11.617 z m -87.695,-23.23 c -3.082,0 -2.43,5.207 1.367,11.613 2.84,4.86 6.754,8.945 9.778,10.723 -1.125,-3.129 -1.188,-6.871 0.769,-9.949 -3.082,-5.754 -7.883,-12.387 -11.914,-12.387 z m 165.258,6.152 c -5.512,-4.847 -11.145,-8.465 -15.942,-8.465 -5.097,0 -7.168,3.024 -6.164,7.754 0.832,-0.758 1.836,-1.414 3.141,-1.777 5.156,-1.59 11.023,1.191 16.113,7.539 8.481,10.598 3.145,18.785 -5.445,18.785 -5.219,0 -13.336,-4.633 -19.973,-15.18 -0.168,-0.265 -0.304,-0.531 -0.461,-0.8 -4.476,-4.118 -9.117,-8.278 -13.402,-11.871 7.176,13.382 14.758,27.851 14.758,27.851 h -9.363 l -3.497,-6.758 c -0.648,3.555 -3.136,6.758 -6.578,6.758 -5.277,0 -12.855,-4.273 -21.269,-17.078 -2.02,-3.062 -3.403,-5.937 -4.242,-8.535 -4.993,-4.141 -9.817,-6.688 -14.192,-6.688 -5.09,0 -7.164,3.024 -6.16,7.754 0.832,-0.758 1.844,-1.414 3.145,-1.777 5.152,-1.59 11.015,1.191 16.121,7.539 8.468,10.598 3.132,18.785 -5.457,18.785 -5.207,0 -13.332,-4.633 -19.969,-15.18 -0.102,-0.164 -0.18,-0.308 -0.277,-0.472 -4.141,-3.926 -7.844,-7.387 -8.79,-8.184 -1.539,-1.297 -2.96,-2.601 -3.437,-2.062 -0.469,0.468 1.133,3.726 2.019,5.328 2.543,4.793 21.153,39.644 21.153,39.644 h -9.422 c 0,0 -7.262,-13.64 -14.191,-26.644 -6.168,-5.926 -15.672,-14.91 -17.274,-16.266 -1.543,-1.297 -2.961,-2.601 -3.433,-2.062 -0.477,0.468 1.128,3.726 2.015,5.328 2.547,4.793 21.152,39.644 21.152,39.644 h -9.421 c 0,0 -8.516,-16.004 -15.907,-29.855 -3.339,-2.692 -7.242,-5.086 -10.043,-4.574 0.832,2.312 1.188,4.324 1.422,5.988 0.649,4.09 -0.117,9.07 -3.379,9.07 -1.539,0 -3.14,-0.894 -4.5,-2.375 -0.121,1.418 -0.472,2.672 -1.543,2.672 -5.277,0 -13.449,-3.922 -21.273,-17.078 -0.156,-0.246 -0.266,-0.496 -0.41,-0.742 -5.699,-5.801 -14.024,-12.047 -22.047,-12.047 -10.016,0 -9.836,10.898 -1.656,24.168 8.175,13.281 17.656,19.496 22.277,19.496 4.629,0 -0.293,-10.008 -8.176,-15.348 0,0 1.953,-4.734 6.758,-2.011 10.188,5.871 13.809,22.636 2.254,22.636 -6.758,0 -20.922,-4.379 -33.07,-21.457 -15.821,-22.215 -5.754,-36.972 7.82,-36.972 7.719,0 15.648,4.457 22.117,9.965 -0.168,-6.184 3.399,-9.965 8.574,-9.965 6.52,0 13.508,4.621 19.973,14.285 0.711,1.121 1.363,2.187 1.953,3.258 2.559,-0.411 5.387,0.492 8.145,2.031 -2.836,-5.32 -5.012,-9.387 -5.657,-10.567 -3.378,-6.164 -1.601,-9.007 2.305,-9.007 2.492,0 5.692,1.418 10.852,6.273 2.336,2.231 8.289,8.156 13.918,13.793 -2.969,-5.566 -5.258,-9.836 -5.922,-11.059 -3.379,-6.164 -1.602,-9.007 2.312,-9.007 2.485,0 5.688,1.418 10.844,6.273 1.48,1.418 4.418,4.317 7.801,7.684 -1.367,-8.114 3.058,-13.957 13.527,-13.957 5.485,0 11.012,2.566 16.235,6.511 0.511,-4.066 3.14,-6.511 7.222,-6.511 4.332,0 8.719,3.144 12.332,6.871 l -3.199,-6.102 c -4.039,-2.39 -7.816,-4.281 -11.066,-5.996 -37.872,-0.504 -82.688,-1.109 -82.688,-1.109 0,0 22.461,-12.4495 29.328,-17.2542 7.266,5.3008 24.746,8.5977 43.36,10.6602 -0.43,-0.875 -0.68,-1.7969 -0.68,-2.836 0,-5.2187 5.445,-7.8242 9.125,-7.8242 7.394,0 10.5,4.5899 15.273,12.6719 19.785,1.2543 36.223,1.3793 37.102,1.3793 21.16,0 27.914,12.98 27.914,21.39 0,5.864 -6.106,7.703 -10.785,3.668" /><path
         id="path22"
         style="fill:#0a1a2e;fill-opacity:1;fill-rule:evenodd;stroke:none"
         d="m 341.23,282.559 c 2.325,2.214 1.743,1.48 4.11,0.484 -1.414,-1.652 0.785,-1.219 -1.899,-1.582 -2.863,-0.387 -1.914,0.781 -2.211,1.098 z m -54.46,2.168 c 4.324,-0.235 3.566,0.394 3.664,-3.965 -3.188,0.617 -3.68,0.418 -3.664,3.965 z m -30.485,0.57 c -1.535,3.676 -1.066,3.976 -0.808,7.863 l 2.316,-2.742 c 2,-1.875 2.074,-0.676 3.316,-1.879 3.391,-3.285 -1.839,-4.121 -4.824,-3.242 z m -28.097,1.316 c 3.796,2.641 8.07,8.825 19.292,2.766 2.997,-1.617 2.364,-2.731 4.747,-4.199 -6.563,-0.723 -19.571,-3.328 -24.039,1.433 z m 35.398,-4.922 c -1.348,-4.324 -6.832,-2.523 -11.824,-2.418 l -30.559,0.219 c -4.711,-0.051 -11.504,-0.769 -13.879,2.137 4.414,1.574 10.199,0.726 15.196,1.543 l 0.175,4.129 c -3.093,2.484 -2.375,-0.11 -6.238,2.414 1.836,5.148 7.668,4.418 11.949,2.769 -0.562,-3.004 -9.625,-11.515 10.207,-10.629 5.825,0.262 21.235,3.75 24.973,-0.164 z m 95.805,21.235 2.308,-5.543 -3.941,-1.039 c -1.731,2.707 -2.149,5.207 1.633,6.582 z M 249.656,291.309 c -0.133,0.203 -2.496,0.316 -0.679,3.367 0.812,1.363 1.718,1.199 3.449,1.73 -1.317,-4.554 -0.996,-3.679 -2.77,-5.097 z m -5.457,2.546 1.43,2.993 c -0.051,-5.203 -1.152,-1.821 -1.43,-2.993 z m -3.437,2.797 c -0.938,-2.031 1.211,-0.882 -2.75,-1.843 0.828,1.812 0.125,2.589 2.75,1.843 z m -19.102,0.231 c 0.02,0.308 1.922,2.551 1.117,0.027 -0.23,-0.734 -1.3,-2.988 -1.117,-0.027 z m 47.68,6.84 c 1.89,2.558 1.015,2.511 4.801,2.371 l 1.433,-5.352 c -3.844,-2.679 -2.441,0.289 -5.738,-2.347 1.23,-3.235 -0.117,-0.954 2.781,-2.418 -3.98,-4.856 -6.539,-7.813 -0.793,-14.086 5.699,-0.075 4.766,3.812 6.457,-1.473 l -10.586,-0.047 c -3.867,4.637 -0.468,8.942 -4.168,14.313 -1.726,-2.004 -0.425,-3.313 -3.019,-3.883 -2.469,2.304 -1.781,0.883 -1.43,4.972 1.688,0.809 3.867,1.063 5.735,2.004 4.777,2.414 0.218,2.762 5.882,2.996 -0.164,0.243 -0.48,0.872 -0.535,0.692 -0.726,-2.477 -0.785,2.215 -0.82,2.258 z m 35,2.898 0.281,-3.41 -2.039,2.41 z m -17.613,4.606 -1.368,-2.575 c -0.265,2.563 -1.781,1.321 1.368,2.575 z m -30.481,-4.438 3.824,2.223 c 1.219,1.203 0.731,1.754 2.801,3.355 3.242,2.512 3.77,3.774 6.856,5.813 2.441,-5.231 -0.559,-7.879 10.054,-5.965 -1.109,-2.348 -2.062,-4.074 -2.355,-6.172 -7.785,9.449 -6.473,1.973 -12.899,-0.379 -4.019,-1.465 -6.218,-2.023 -8.281,1.125 z m 56.274,18.953 c 2.382,2.426 2.453,2.578 3.304,-1.23 z m -56.872,-5.863 3.422,0.508 c 0.168,-4.977 -3.015,-7.985 -5.664,-10.633 -7.527,2.043 -10.519,9.719 -3.808,13.156 7.797,3.985 2.144,3.465 7.465,5.453 1.257,-6.734 -5.219,-1.492 -1.415,-8.484 z m -9.601,8.668 c -1.047,-2.754 -0.555,-1.817 -2.508,-3.539 1.473,5.203 -0.301,2.101 2.508,3.539 z m -44.777,-1.926 c -1.028,2.262 -0.141,4.121 2.609,6.797 0.445,-4.672 0.781,-4.66 -2.609,-6.797 z m 11.398,18.18 c 2.352,-0.223 2.801,1.801 5.75,-5.934 1.719,-4.492 -0.418,-6.152 2.859,-9.437 2.953,3.961 -2.562,9.105 2.407,15.148 5.058,-1.933 6.339,-4.988 3.211,-9.578 -2.676,-3.926 -5.438,-7.84 -7.852,-11.152 -1.945,1.351 -5.242,2.379 -7.168,3.379 1.504,1.269 7.559,1.3 5.961,7.843 -0.898,3.688 -4.309,4.653 -5.168,9.731 z m 33.379,-16.254 c 0.519,2.492 1.883,4.183 3.539,6.344 l 15.551,17.468 c -0.391,-3.511 -17.797,-23.336 -19.09,-23.812 z m -24.106,21.883 c 0.086,0.027 -0.062,1.726 1.555,0.109 1.039,-1.043 0.317,0.117 0.649,-1.809 -3.852,0.637 -1.536,-0.109 -2.204,1.7 z m 7.567,-36.778 c 5.047,0.211 5.297,2.809 10.527,3.809 1.645,-2.445 1.313,-3.43 3.832,-5.703 1.418,-1.281 3.988,-3.121 5.977,-4.465 4.312,-2.91 8.39,-4.793 14.465,-5.289 -1.672,-0.969 -4.004,-0.629 -5.325,-0.863 -3.23,-0.567 -3.843,-3.836 -17.957,-1.45 -4.187,0.711 -7.937,1.836 -12.007,2.469 -5.321,0.82 -8.801,-0.187 -13.125,1.227 -2.485,12.484 5.714,16.558 15.218,31.859 7.121,11.465 11.66,18.758 30.5,19.317 -2.453,-5 -4.754,-5.684 -8.121,-9.786 -5.465,-6.656 -12.418,-18.332 -15.429,-21.109 -3.696,-3.398 -8.559,-4.375 -8.555,-10.016 z m 44.691,1.559 c -3.398,1.215 0.395,0.605 -2.929,3.32 -4.711,3.852 -10.61,-3.98 -12.024,-5.363 0.375,3.199 5.969,9.867 -1.371,9.723 2.359,2.324 3.555,4.472 1.617,8.226 -8.066,1.961 -4.547,-3.961 -11.57,-5.894 1.457,3.168 2.863,3.601 4.894,5.781 l 15.707,18.305 c 1.938,2.254 3.372,3.8 5.301,6.046 9.321,10.836 5.172,9.094 26.332,8.985 -2.914,-6.102 -9.703,-19.485 -13.347,-24.516 -11.258,-15.558 -6.633,-20.523 -12.61,-24.613 z m 30.141,-8.59 c -4.027,4.434 4.785,8.555 -23.957,8.285 -0.551,10.059 10.933,26.199 15.137,32.86 2.933,4.656 6.058,11.64 9.363,14.91 6.609,6.554 18.269,6.738 18.183,4.722 -0.058,-1.339 -3.839,-4.48 -6.707,-9.546 -2.078,-3.664 -3.789,-8.211 -5.254,-12.75 -2.71,-8.43 -8.449,-15.559 0.293,-27.93 -4.937,-5.957 -2.441,-4.5 -1.316,-6.758 z m 1.336,111.957 c 5.929,0.067 16.137,-3.344 22,-4.504 -8.25,-7.676 -11.821,-11.91 -16.75,-22.39 l -4.578,-13.09 c -0.582,-1.766 -2.004,-3.914 -2.868,-6.156 -1.175,-3.043 -1.718,-4.727 -2.992,-7.352 l -18.336,-0.617 c 2.161,3.472 5.5,5.918 7.438,8.34 2.082,2.601 1.34,2.796 1.644,3.332 0.758,1.324 -0.781,-0.461 0.907,1.066 6.418,5.809 17.746,14.387 18.468,23.293 0.692,8.551 -4.218,11.984 -4.933,18.078 z m 0,0 z m 6.164,47.875 -9.129,4.055 c 0.656,0.512 0.277,2.238 5.141,0.191 2.734,-1.156 3.078,-1.687 3.988,-4.246 z m -37.156,4.723 c 9.777,5.922 12.996,-9.168 19.656,-11.551 8.476,-3.035 5.863,10.395 25.441,1.164 12.672,-5.98 35.582,-19.32 41.789,-26.719 11.453,-13.66 0.055,-22.144 -14.035,-43.636 -19.222,-29.317 -12.074,-21 -27.336,-19.661 -6.64,0.586 -9.066,-1.562 -14.097,-2.503 7.906,19.671 9.996,29.218 24.336,42.386 7.488,6.879 6.785,5.496 17.843,5.328 -6.035,9.68 -16.554,2.043 -28.105,4.653 -7.977,1.804 -18.153,3.867 -21.867,9.953 -4.11,6.742 -6.637,15.183 -10.926,21.773 z M 242.742,354.289 c 3.223,11.672 16.68,34.531 28.098,41.879 6.086,3.914 12.453,3.125 12.621,11.215 -8.063,-3.692 -2.504,-4.625 -15.723,7.699 -15.672,14.617 -58.043,35.941 -56.136,59.527 1.742,21.563 27.414,28.11 43.964,16.067 11.653,-8.481 46.204,-67.692 50.239,-81.965 4.675,-16.527 -15.407,-28.77 -21.352,-36.234 -2.246,-2.825 -3.605,-5.301 -6.14,-7.813 -10.422,-10.324 -5.086,-7.016 -22.141,-7.465 -5.953,-0.156 -8.457,-1.367 -13.43,-2.91 z m 216.059,163.734 c -2.528,-5.566 -9.25,-16.035 -18.731,-12.761 0.739,2.121 1.524,2.601 3.41,4.324 14.356,13.105 8.407,1.93 13.829,8.605 0.808,0.957 0.375,0.668 1.55,1.629 0.407,0.328 1.239,0.649 1.641,0.84 -1.375,-5.594 0.156,-1.027 -1.699,-2.637 z m -213.035,9.801 c 28.89,11.813 10.675,-29.871 26.812,-40.656 8.293,-5.547 19.356,-0.012 27.715,-5.43 0.75,-6.09 -5.434,-11.398 -8.48,-14.886 -3.141,2.296 -4.805,4.828 -8.747,7.164 -6.761,4 -6.851,-0.649 -11.199,-1.149 -2.777,3.281 -3.39,8.219 -4.769,13.012 -1.547,5.367 -3.547,7.543 -5.91,11.73 -1.618,2.871 -4.368,10.602 -5.59,12.118 -2.719,3.371 -7.285,4.734 -10.321,0.336 1.543,-1.372 2.536,-0.422 5.211,-1.192 1.309,-3.996 4.625,-7.668 6.641,-13.027 -8.723,1.144 -13.883,8.355 -25.961,14.886 -1.762,0.954 -2.906,1.543 -4.547,2.348 -0.73,0.356 -1.617,0.781 -2.312,1.215 -1.289,0.809 -0.789,0.469 -1.614,1.238 6.184,1.766 15.375,9.149 23.071,12.293 z m 224,-1.297 c 0.144,-0.082 0.379,-0.199 0.441,-0.23 0.059,-0.027 0.359,-0.184 0.426,-0.211 l 1.101,-0.527 c -2.496,-4.172 0.153,-0.61 -2.457,-2.629 -4.07,-1.457 -3.609,-12.364 -17.894,-19.078 2.445,3.796 14.75,14.804 11.898,22.718 -3.754,-2.043 -4.375,-5.371 -10.004,-7.172 l 2.789,3.821 c 3.606,3.316 6.77,4.054 8.965,6.574 1.321,-1.41 0.754,-1.063 1.301,-2.59 3.75,1.485 2.918,3.781 7.383,5.934 -1.25,-2.504 -2.742,-3.996 -3.949,-6.61 z M 236.52,502.684 c -8.661,1.711 -29.774,11.566 -35.856,2.433 8.695,-2.344 19.914,-0.234 27.695,-3.933 -8.953,-1.106 -36.863,-1.606 -40.234,-7.903 4.289,-1.609 24.195,3.344 30.477,3.996 -5.973,-12.629 -18.485,-22.718 -3.864,-43.922 1.922,-2.785 7.504,-9.527 9.293,-11.015 -17.027,-0.336 -33.793,11.996 -39.629,21.969 -8.535,14.593 -5.609,46.343 3.578,49.324 3.184,-2.699 5.801,-18.145 18.215,4.715 2.625,4.836 6.473,12.054 10.535,14.281 -3.148,-7.895 -8.242,-13.703 0.973,-20.039 5.317,-3.656 14.137,-5.871 18.817,-9.906 z m 90.543,70.828 c -5.403,3.07 -5.637,3.554 -4.43,10.883 0.172,-0.145 0.41,-0.34 0.519,-0.434 l 3.325,-2.949 c 9.011,-8.242 10.089,-4.875 11.652,-9.586 -4.418,-2.371 -7.32,-0.039 -11.066,2.086 z m 16.628,4.644 c 2.481,2.973 -3.73,2.313 5.02,1.434 -2.199,-2.18 -1.953,-2.141 -5.02,-1.434 z m 7.282,5.711 c 0.371,2.824 1.695,4.004 2.613,6.383 0.699,1.813 0.527,1.895 0.867,3.285 l 1.5,3.789 c 0.117,-6.875 -1.348,-9.785 -4.98,-13.457 z m -31.903,26.211 c 0.211,-1.719 0.633,-6.793 0.504,-8.383 -0.429,-5.422 -0.711,-1.113 -2.496,-5.312 4.059,-7.438 12.82,-14.551 -12.582,-14.949 1.93,4.304 8.965,6.918 11.668,10.671 -1.223,3 0.531,0.391 -2.266,1.559 l 3.133,7.965 -3.222,0.766 c 1.738,3.781 1.445,6.168 5.261,7.683 z m -40.992,-14.133 c 2.473,1.801 5.754,1.895 8.715,3.473 2.664,1.422 5.496,3.855 6.969,5.324 4.836,4.805 9.769,4.395 16.617,1.113 -2.594,-3.91 -3.004,-5.878 -6.375,-9 -4.063,-3.761 -7.828,-2.589 -9.399,-6.675 3.598,-1.211 4.637,-0.637 8.418,0.238 -8.003,-5.488 -3.246,-2.336 -7.433,-6.219 -2.598,3.297 -5.774,2.543 -9.758,4.887 -4.031,2.371 -2.672,4.074 -7.754,6.859 z m -3.633,3.235 c -5.957,1.035 -6.254,1.609 -8.125,6.652 3.743,-0.793 1.356,-0.609 4.25,-3.215 z m -1.617,5.328 c 2.246,3.488 7.891,3.555 11.254,5.894 3.988,2.77 5.566,5.692 8.75,7.813 6.285,-6.281 0.594,-10.27 -3.484,-13.574 -3.922,-3.184 -12.371,-5.864 -16.52,-0.133 z m 56.41,3.734 -7.226,0.547 c -0.235,1.543 -0.477,0.227 -0.211,2.621 0.176,1.629 0.629,1.555 0.949,2.067 4,-1.997 6.938,-1.547 10.336,-4.079 -0.398,4.891 -1.258,3.61 -5.516,5.215 -2.968,1.117 -1.394,0.395 -2.402,1.274 4.281,4.699 8.844,13.617 17,15.078 2.051,-2.735 0.77,-3.117 4.121,-5.207 3.793,-2.367 1.816,0.781 4.508,-4.235 1.238,-2.304 2.027,-3.91 3.148,-5.753 l 3.207,-4.051 c 0.059,-9.012 -6.664,-20.879 -9.902,-28.223 -4.801,-0.98 -1.883,0.164 -5.738,0.547 -1.114,-11.461 -12.317,-3.227 -15.137,0.477 -3.32,4.367 -6,14.128 -3.625,19.269 1.316,1.539 5.977,0.297 8.656,2.695 -1.347,2.204 -0.109,0.821 -2.168,1.758 z m -9.203,8.516 c -1.109,-3.055 -1.074,-3.227 -3.414,-4.711 0.344,0.863 0.969,2.789 1.219,3.156 1.246,1.844 0.055,0.867 2.195,1.555 z m -23.222,-1.383 c -1.797,7.93 0.386,10.785 5.41,13.566 -0.309,-6.285 -4.395,-13.562 -4.77,-12.976 -0.109,0.172 -0.43,-0.391 -0.64,-0.59 z m 23.222,1.383 c -0.738,2.672 2.371,2.297 -2.308,1.258 -2.664,-0.594 -3.211,-5.032 -5.422,-6.977 -3.403,-2.988 -8.813,-0.668 -11.446,1.063 0.989,7.16 15.52,24.734 20.5,29.39 4.856,4.547 12.684,9.352 20.067,7.082 6.23,-1.918 8.637,-4.41 8.871,-11.75 0.273,-8.57 3.027,-7.945 7.391,-11.562 6.925,-5.746 8.39,-21.149 4.343,-30.918 -0.129,7.918 -4.07,23.703 -7.668,27.406 -4.406,4.543 -1.09,2.125 -3.789,5.973 l -1.238,1.394 c -6.02,7.156 -14.262,6.031 -18.856,1.324 -6.617,-6.781 -5.933,-8.875 -9.175,-12.539 -1.032,-1.164 -0.524,-0.605 -1.27,-1.144 z m -8.004,19.371 c -0.98,-2.82 -1.179,-2.41 -2.566,-3.625 z m 0,0 3.399,3.699 c -0.668,-1.074 -0.328,-1.094 -0.946,-1.883 -1.664,-2.136 0.118,-0.632 -2.453,-1.816 z m -150.41,19.008 -2.848,7.285 c 1.438,-2.039 3.426,-3.465 4.793,-6.047 1.844,-3.492 4.028,-24.285 5.813,-29.316 l 5.336,-0.993 c 0.531,-2.625 0.777,-4.906 -0.063,-7.16 -7.14,-0.699 -1.757,2.16 -6.461,5.282 -4.203,2.785 -5.296,0.054 -5.695,7.167 -0.258,4.54 0.367,8.493 -0.773,13.02 -0.938,3.742 -2.907,5.426 -3.457,9.148 1.32,-3.515 3.355,-7.125 6.148,-9.195 -1.754,13.418 -3.203,4.402 -6.488,14.145 z m 81.692,-291.102 c -1.782,-8.457 -7.395,-17.508 -11.965,-22.199 -1.961,3.082 -1.301,1.496 -2.914,3.164 -2.438,2.512 -0.961,1.445 -2.286,4.816 -1.5,3.805 -2.988,2.989 -4.488,9.122 l -2.332,-0.083 -0.035,-15.226 c -4.125,2.465 -4.352,5.062 -8.453,2.105 -0.477,-0.558 -1.926,-5.711 2.476,-8.742 0.43,-0.293 2.114,-0.137 2.625,-2.734 0.36,-1.84 0.414,-0.223 -0.179,-2.465 -6.875,-3.938 -9.344,6.242 -15.391,3.852 -1.719,-1.375 0.996,-0.856 -0.492,-4.286 -0.16,-0.371 -5.422,-6.242 1.406,-6.226 0.883,0 2.481,0.633 3.227,1.078 2.976,1.789 1.992,1.703 3.472,4.18 1.266,-2.86 2.789,-4.164 3.211,-7.832 1.719,0.273 3.535,0.625 5.016,-0.512 -1.547,-8.246 -4.531,-8.613 -4.137,-20.246 0.106,-2.977 0.625,-8.621 1.84,-11.184 1.77,-3.734 2.539,-2.281 5.445,-4.23 0.184,-0.121 0.391,-0.27 0.567,-0.399 l 1.586,-1.55 c -5.403,-0.204 -11.688,0.828 -15.828,-1.489 -0.094,-9.648 26.132,-5.215 40.937,-5.371 8.973,-0.094 41.344,-1.484 45.969,3.664 l -0.488,4.469 -6.512,1.148 c -1.016,-2.148 -2.891,-4.171 -4.125,-5.828 -0.774,0.649 -0.543,0.391 -1.465,1.449 l -3.574,5.079 c -1.59,-2.129 -1.828,-5.075 -5.313,-1.61 l -0.168,0.797 2.903,2.395 c 0.156,0.113 0.449,0.273 0.648,0.445 -1.496,2.055 -1.344,4.137 0.152,6.598 2.422,3.992 3.403,1.8 6.985,3.523 0.762,6.488 -1.18,1.926 -1.766,6.918 l 5.735,1.293 1.668,-6.777 c 0.847,5.578 2.273,7.839 6.578,5.004 -0.856,2.183 -1.157,1.91 -1,4.269 5.398,0.477 8.535,-2.555 8.168,-8.105 l -7.235,0.789 c -1.652,-4.45 -2.34,-4.274 -4.199,-7.422 9.059,-7.625 8.227,-4.758 11.609,-3.332 3.637,1.527 -0.093,-2.168 5.403,0.98 4.031,2.313 2.5,1.871 8.058,1.981 0.629,2.449 0.668,3.343 2.86,5.316 l 3.711,-4.723 c 2.039,-1.968 3.199,-2.46 6.148,-2.394 l 2.828,4.07 c 0.969,1.082 1.035,0.985 1.356,1.297 3.875,-3.836 1.226,-3.933 4.656,-5.812 0.418,-0.227 0.984,-0.051 2.375,-0.852 -4.481,-2.633 -6.106,-2.355 -5.641,-8.18 4.938,1.426 -0.461,-0.089 2.035,2.321 1.516,1.468 -0.554,1.812 3.575,0.976 0.308,-3.98 -1.95,-1.867 -2.266,-8 5.024,1.313 5.449,-0.019 8.117,0.52 l 2.625,1.355 c 1.824,4.192 -1.187,3.781 -4.238,5.242 -4.445,2.129 -2.844,4.196 -2.617,8.317 -3.571,2.734 0.16,-1.715 -5.453,3.84 -2.321,2.297 -3.981,2.281 -3.188,7.066 2.86,-1.238 2.528,-2.965 5.719,-3.141 5.23,-0.285 1.316,-0.925 5.57,-2.421 1.645,0.199 1.375,-0.317 1.328,1.07 -2.726,-0.094 0.032,-0.371 -1.16,1.016 -1.98,6.105 -1.965,4.167 -3.969,4.343 -2.546,0.227 -5.433,0.883 -8.402,-0.105 -2.762,-5.508 0.688,-7.25 -3.683,-9.528 -3.856,-1.664 -6.61,4.157 -11.231,5.438 -1.855,-1.813 -1.758,-1.395 -2.219,-4.535 -4.82,2.187 -2.242,-0.324 -7.285,-1.231 -5.508,-0.988 -4.656,1.098 -7.652,-3.742 -2.746,1.965 -3.238,1.59 -6.168,2.942 2.019,2.242 2.531,1.71 5.617,3.132 7.148,3.297 2.117,-1.601 5.176,0.887 3.554,2.672 0.816,2 3.086,4.918 1.965,2.523 2.996,1.016 5.789,3.141 0.742,2.406 -0.301,7.816 1.508,11.183 l 6.543,8.567 c 6.171,-0.149 2.793,-0.762 6.277,-4.758 4.922,0.812 4.336,2.156 6.801,5.734 l 5.285,-0.234 c 0.711,-2.309 0.875,1.047 -0.266,-1.352 -4.469,-9.386 -0.355,-5.574 1.989,-10.656 l 0.441,-1.312 c 7.027,3.183 5.164,13.16 11.355,16.539 2.735,-9.957 -6.761,-12.332 4.891,-16.618 l -1.336,-3.187 c -0.945,-3.691 1.566,-0.793 -1.551,-4.207 -2.883,1.012 -1.828,1.555 -3.199,4.371 -6.07,-0.016 -7.129,-3.695 -7.039,-9.441 l 2.262,-2.454 0.183,3.524 c 0.625,2.84 1.84,2.476 2.582,3.047 l 5.469,-2.578 0.774,-8.95 c 3.691,-1.511 8.835,-2.882 8.105,3.809 -0.797,7.324 -3.414,5.961 -8.512,4.844 2.559,5.269 0.871,8.344 8.059,9.496 l 3.691,-0.485 c -0.324,6.52 0.055,1.458 -1.461,3.5 l -1.285,-1.878 c -0.984,2.152 -1.64,0.89 0.457,3.031 l 1.543,0.726 1.36,-1.824 c -0.321,3.387 -0.129,1.766 -1.145,2.969 -6.746,-0.383 -5.316,-4.664 -12.605,-0.844 -0.856,5.231 5.132,17.004 -4.254,15.094 -1.688,-5.231 -1.157,-1.152 -2.657,-4.5 -1.953,-4.356 -0.179,-11.66 -7.949,-7.211 1.688,4.477 3.711,3.668 3.207,7.699 -2.812,1.438 -7.586,1.547 -11.511,1.985 0.207,-4.102 0.238,-4.762 -2.879,-6.539 l -1.774,4.273 c -1.863,-0.297 -4.844,-1.117 -6.316,-1.121 l -5.196,1.996 -3.519,-3.203 c -1.457,5.39 -2.625,5.883 0.277,10.078 1.688,2.437 4.496,7.363 5.157,9.316 l -1.629,-0.8 c -1.536,-0.711 0.566,-0.196 -2.727,-1.207 5.672,7.183 10.547,16.82 15.293,20.308 -0.59,-5.199 -3.867,-7.578 -6.035,-12.058 2.605,1.679 1.008,0.492 2.961,2.773 1.039,1.211 1.238,1.633 2.383,2.797 1.425,1.445 3.683,3.512 5.976,4.422 -0.972,-6.074 -4.601,-6.692 -5.437,-11.481 1.539,1.727 7.965,9.532 9.601,10.246 5.809,2.551 13.403,-2.644 17.524,2.106 l -8.598,-0.289 c 0.164,3.265 1.438,4.59 3.277,6.242 l 31.797,27.769 c 2.461,2.008 3.918,2.551 4.668,5.786 -6.402,-3.34 -8.219,-1.016 -19.035,-12.645 -5.012,-5.391 -9.34,-11.891 -14.945,-16.469 -3.844,-3.136 -6.696,-8.433 -11.899,-10.011 4.774,7.679 13.2,14.961 20.008,21.031 2.879,2.566 4.465,4.43 6.113,7.816 -13.691,-3.683 -20.875,-25.121 -32.261,-28.183 1.465,2.359 14.562,17.23 20.769,27.086 4.453,7.058 9.692,14.652 13.34,22.195 5.699,11.769 3.758,13.199 -5.102,24.262 -7.136,8.906 -27.035,19.687 -37.617,23.07 -3.511,1.125 -5.32,2.637 -8.742,3.312 -0.133,3.883 -0.625,5.079 0.609,7.887 -19.238,0.949 -4.07,6.891 -24.16,16.664 -0.05,4.496 0.477,5.004 3.473,6.903 24.668,15.605 32.727,7.461 40.582,14.484 3.719,3.32 1.984,12.949 1.766,19.492 3.586,-0.715 5.871,-2.371 8.64,-4.324 l 20.223,-14.543 c 1.805,-1.426 2.137,-1.363 3.988,-2.973 4.258,-3.699 10.488,-8.668 15.875,-11.054 12.317,-5.461 36.238,-1.606 49.863,0.757 4.883,0.848 7.844,0.68 12.223,2.106 4.258,1.387 5.524,3.051 8.508,5.574 l 14.656,13.473 c 4.453,4.719 1.981,1.824 1.449,3.137 -1.128,2.8 3.024,8.281 3.325,14.265 l -3.094,-0.035 c -7.922,0.582 -20.024,-14.297 -26.207,-19.926 -7.59,-6.914 -9.84,-5.449 -20.668,-3.637 -13.098,2.192 -25.992,2.551 -36.399,10.805 -11.707,9.278 -32.628,33.606 -45.214,36.656 -2.766,0.668 -3.301,0.223 -5.61,1.235 -0.172,5.187 0.086,9.039 2.906,11.652 6.524,6.035 21.098,-0.656 24.559,22.703 4.141,27.93 -7.586,27.367 -10.457,35.395 -1.867,5.238 -3.457,24.519 -24.496,22.687 -9.582,-0.832 -13.289,-6.871 -19.535,-12.215 -2.727,-2.335 -6.313,-4.222 -9.391,-6.437 -4.519,-3.254 -4.14,-4.379 -7.527,-8.188 -7.578,-8.511 -6.856,-8.937 -17.215,-14.343 l -1.098,3.425 c -6.496,-1.734 -5.879,-5.125 -10.164,-6.425 -1.718,3.289 -0.086,3.574 0.543,5.875 l 1.711,4.695 c 1.266,2.824 1.301,1.609 -0.137,4.359 -6.05,-1.836 -9.757,-12.75 -6.378,-18.543 3.601,-6.179 10.843,-6.492 15.355,-14.367 l -30.43,5.438 c -10.527,2.23 -16.789,6.707 -25.785,11.308 -12.664,6.473 -26.094,10.235 -39.008,16.16 -4.777,2.196 -8.425,4.192 -12.726,6.282 -0.379,11.312 -2.61,34.152 -15.235,37.07 -4.027,-9.176 2.555,-19.336 3.539,-28.777 1.293,-12.418 2.325,-16.16 12.309,-23.012 l 29.121,-23.113 c 11.074,-8.09 21.192,-12.926 35.391,-16.414 5.054,-1.243 9.375,-2.082 13.836,-3.289 4.859,-1.313 8.14,-2.332 13.64,-3.497 28.102,-5.957 13.332,-11.417 10.137,-29.093 -1.113,-6.168 -1.391,-8.321 -5.797,-11.492 -5.488,1.085 -5.554,5.304 -12.363,4.921 -7.734,-0.429 -21.016,-12.277 -27.234,-5.671 -2.071,2.203 -5.821,8.718 -6.243,12.32 -10.058,-2.707 -15.175,-13.11 -19.652,-21.367 -2.34,-4.313 -2.301,-5.094 -6.469,-7.481 -3.797,3.078 -3.992,5.133 -6.433,9.395 -17.493,-12.59 -20.891,-60.551 12.742,-75.91 8.32,-3.801 13.383,-3.618 22.277,-6.016 9.039,-2.438 18.309,-11.016 25.785,-16.738 3.039,-2.321 5.407,-4.114 8.411,-6.379 5.136,-3.867 11.433,-8.383 15.187,-13.602 -4.172,-6.117 -14.172,-9.359 -17.754,-16.375 -4.734,-9.258 -6.488,-9.582 -11.933,-22.207" /><path
         id="path24"
         style="fill:#0a1a2e;fill-opacity:1;fill-rule:evenodd;stroke:none"
         d="m 385.707,346.145 4.801,4.945 c 0.777,0.992 0.969,1.574 1.719,2.59 l 3.343,2.785 c -2.539,-5.172 -3.675,-8.879 -9.863,-10.32 z m -4.582,-2.297 c 1.375,2.847 2.586,4.386 3.938,7.277 0.484,1.023 1.144,2.816 1.539,3.594 l 2.738,3.031 c -0.485,-3.242 -1.438,-5.605 -2.902,-7.891 l -3.223,-4.683 c -1.613,-1.52 0.539,0.054 -2.09,-1.328 z m -2.266,1.14 c 1.563,4.891 4.356,10.45 7.676,13.262 -1.68,-4.703 -4.762,-10.297 -7.676,-13.262 z m 17.528,12.317 c 1.441,3.218 -0.457,0.406 2.199,3.265 0.894,0.965 1.465,1.485 2.191,2.285 0.446,-4.167 -0.777,-4.109 -4.39,-5.55 z m 69.707,21.226 -0.817,-1.773 z m 0,0 0.414,1.895 z m -61.637,3.246 c 0.496,-1.714 3.906,-1.16 -3.738,-11.472 l -8.594,-11.403 c -0.543,0.559 -0.922,0.942 -1.867,1.762 l -0.969,0.82 c -0.148,0.121 -0.379,0.313 -0.516,0.426 l -1.05,0.875 c 2.711,9.492 6.441,13.824 11,20.387 5.222,7.531 5.968,11.953 9.609,21.469 2.414,6.3 7.637,18.238 15.856,11.375 3.015,-2.516 4.593,-5.832 7.64,-8.176 3.938,-3.035 3.84,0.23 7.598,-2.586 1.285,-0.965 1.523,-1.191 2.508,-1.832 -3.442,-8.192 -16.379,-10.586 -28.711,-31.274 -1.66,-2.785 -7.676,-11.187 -10.789,-6.527 l -0.196,1.168 c 0.2,2.313 2.227,5.359 3.879,6.965 7.426,7.199 0.926,1.269 5.242,7.742 5.614,8.426 16.918,18.609 17.711,27.438 -2.742,-2.45 -8.757,-15.473 -20.797,-23.664 -3.039,-2.071 -2.253,-0.641 -3.816,-3.493 z m 39.77,46.61 c 6.027,-4.66 9.933,-0.856 8.082,-12.453 -0.59,1.046 -1.063,2.328 -1.512,3.152 -1.129,2.07 -0.18,1.043 -1.891,2.656 -2.297,-5.156 -1.265,-10.953 0.606,-15.726 2.058,3.257 0.449,4.507 1.426,7.375 1.691,-2.918 1.429,-7.723 -0.524,-10.496 -4.355,1.113 -2.777,1.875 -4.719,4.179 -1.265,-1.652 -0.367,-2.886 -4.101,-0.734 -5.125,2.953 -1.258,6.535 -10.207,4.523 -2.125,4.957 -6.5,9.075 -12.395,9.469 0.617,1.582 1.352,3.984 2.516,4.559 3.719,1.82 -1.844,-3.797 2.441,-0.215 2.934,2.449 1.141,6.176 8.199,4.211 l 0.176,7.621 c 2.133,-1.172 1.946,-2.699 5.274,-4.348 5.668,-2.816 0.55,0.926 6.629,-3.773 z m -28.532,-5.164 c -1.75,4.965 3.094,8.09 7.067,9.461 -0.192,-6.2 0.922,-2.625 -2.989,-5.774 -2.472,-1.996 -1.414,-2.359 -4.078,-3.687 z m 28.453,12.254 c -0.703,-2.067 0.836,-1.055 -1.371,-1.692 0.555,4.051 -0.14,0.578 1.371,1.692 z m -19.253,-4.379 c 0.242,3.687 1.91,6.406 4.187,8.105 l 1.023,-5.07 c -0.167,-0.106 -0.417,-0.227 -0.527,-0.285 z m 102.382,7.179 c 0.961,1.524 1.895,3.352 3.039,5.59 7.012,-1.906 6.715,-0.965 8.512,-8.156 l -7.91,-2.141 c -2.242,1.965 -1.934,2.289 -3.641,4.707 z m -42,-7.531 c 9.59,-8.312 19.496,8.656 30.192,8.164 -2.008,-10.234 -3.43,-10.176 -6.512,-13.363 -1.937,-2.004 -0.539,-1.332 -2.457,-3.367 -0.219,-0.129 -22.262,-5.055 -24.566,11.554 z m 35.375,15.859 c 3.934,-3.585 3.071,1.149 4.641,-1.984 1.27,-2.531 -1.824,-3.187 -4.59,-2.863 z m -87.234,-4.496 c 1.898,1.797 2.527,3.493 5.766,4.399 -2.258,-7.613 -2.114,-5.899 -4.914,-4.797 z m 14.219,-1.261 c -0.305,-1.68 -0.321,-1.641 -1.324,-3.16 l -2.165,-2.211 c 0.582,4.367 1.965,3.836 3.473,7.336 0.461,2.066 1.473,3.542 2.5,4.867 2.481,3.211 1.477,3.082 2.645,0.386 -0.078,2.309 -0.559,1.852 1.66,1.055 -0.387,-5.808 0.183,-2.062 -2.598,-4.762 -2.39,-2.324 -0.637,-1.761 -4.191,-3.511 z m 73.015,5.757 c -4.105,-1.273 -1.109,-2.07 -5.125,-4.773 l -1.523,2.648 2.332,0.422 c -0.953,0.918 -1.059,0.977 -2.363,1.981 l -2.633,2.672 6.68,-0.977 c -1.516,2.613 -0.278,0.703 -2.508,2.856 3.922,-0.7 4.136,-0.954 5.14,-4.829 z m -66.226,2.516 c 0.312,0.945 0.234,1.07 0.847,2.039 0.68,1.07 0.864,0.957 1.274,1.34 -0.238,-0.652 -0.645,-1.828 -0.977,-2.359 -0.937,-1.489 -0.683,-0.696 -1.144,-1.02 z m 2.121,3.379 -0.09,1.863 c 1.5,0.7 0.77,-1.73 1.414,0.539 0.094,0.321 0.543,0.231 0.734,0.438 z m -0.09,1.863 -1.082,2.114 c 1.41,-1.493 1.559,2.062 1.082,-2.114 z m -28.801,1.535 c -0.133,3.872 5.024,4.54 8.578,4.661 6.973,0.234 5.403,-4.684 5.621,-11.176 -4.886,-1.313 -9.207,-0.887 -10.296,-5.59 -2.579,1.754 -3.801,9.02 -3.903,12.105 z m 53.848,12.532 c 0.367,-3.957 1.586,-6.946 -0.149,-10.301 -3.23,-2.797 -9.261,3.449 -10.929,5.461 z m -14.219,-1.582 c -1.687,-7.442 -1.988,1.785 -8.183,-7.2 l 3,8.567 z m 16.817,3.297 c 3.308,2.261 8.14,3.562 12.839,4.511 2.618,-4.523 2.348,-6.82 7.039,-8.875 0.532,3.762 -0.953,3.981 -2.363,7.114 3.703,-2.125 5.395,-1.899 10.727,-1.43 -1.582,-2.973 -2.434,-3.078 -2.938,-6.457 7.278,3.265 9.215,3.707 15.184,-1.281 3.262,-2.731 6.254,-8.247 7.801,-13.579 -4.332,-2.335 -6.336,-4.32 -9.157,-1.07 3.368,5.043 0.52,-4.887 3.641,2.879 1.047,2.606 0.199,4.508 -0.789,6.063 -3.289,-0.254 -3.797,-1.938 -4.852,-5.102 -5.781,2.762 -13.945,0.496 -11.257,-8.176 -5.325,-2.972 -18.059,-10.625 -23.168,-2.445 -2.258,3.613 -2.079,8.621 -1.688,13.09 0.563,6.324 -1.09,8.937 -1.019,14.758 z m 26.808,6.027 c -0.808,-2.172 -0.851,-3.055 -4.211,-2.801 -3.297,0.25 -2.988,1.309 -3.883,2.785 3.715,-0.808 4.801,-1.129 8.094,0.016 z m -44.789,-6.988 c -3.238,4.793 -3.383,9.078 -0.012,15.07 3.25,5.769 8.188,0.519 13.325,-1.004 -1.332,-6.914 -5.317,-15.113 -13.313,-14.066 z m 39.199,16.789 2.438,-0.285 c 1.222,0.75 0.117,-0.59 1.242,1.5 0.438,0.812 0.387,1.07 0.602,1.824 l 0.652,1.386 c 0.187,0.122 0.398,0.375 0.516,0.43 l 2.515,0.512 c 1.153,-5.539 -0.496,-14.152 -10.578,-12.309 -0.637,1.86 -1.434,4.699 -2.258,6.946 l -1.851,5.828 1.39,0.496 c 2.785,0.367 -1.355,0.191 1.457,0.062 1.43,-0.066 1.496,-0.5 1.86,-0.656 2.679,0.395 0.859,-0.617 1.98,0.891 -3.43,3.261 -2.922,1.757 -2.199,6.828 l 9.66,-0.774 0.145,-4.922 c -3.77,-1.683 -2.828,0.528 -4.731,-3.179 -1.867,-3.637 1.363,-1.973 -2.84,-4.578 z M 385.453,362.707 c -4.859,-16.508 -15.293,-19.465 -18.816,-32.59 2.152,1.012 3.679,2.496 6.019,3.617 l -1.316,2.329 5.863,3.636 c -0.18,-0.332 -0.426,-0.418 -0.519,-1.008 l -1.473,-3.023 c 3.137,2.648 4.469,5.008 8.23,6.84 5.059,2.461 5.325,1.41 9.332,5.637 5.461,5.761 7.911,10.46 15.293,14.609 8.493,6.703 16.758,20.926 30.09,32.598 5.91,5.171 5.446,5.148 15.824,5.5 4.161,9.476 -3.292,33.679 7.286,38.843 9.484,4.629 5.3,9.903 10.386,8.012 7.446,-2.766 6.559,-13.769 6.735,-18.941 -8.258,-5.942 -5.688,-6.239 -10.485,-14.723 -3.961,-7.008 -9.871,-17.211 -12.535,-24.637 -1.801,-5.004 -1.832,-4.379 -4.722,-8.265 -4.903,-6.59 -5.153,-10.004 -7.868,-18.25 -1.5,-8.586 -7.988,-22.942 -12.882,-30.012 -3.391,-4.899 -8.391,-6.406 -9.61,-17.449 l 4.785,2.066 c 2.223,3.574 2.375,-0.344 5.301,3.961 1.129,1.668 1.777,4.285 3.051,6.449 2.473,4.184 4.961,7.664 7.516,11.578 3.273,5.036 11.75,19.711 15.214,22.868 1.383,3.078 6.895,12.648 9.125,14.406 -0.882,-4.481 -4.574,-10.09 -6.472,-14.199 -3.942,-9.629 -20.309,-29.731 -18.196,-40.137 12.696,1.055 4.168,12.91 24.832,30.508 3.469,2.957 6.758,7.726 9.934,9.468 6.23,8.805 12.758,14.11 20.301,23.993 7.406,9.703 10.058,19.621 14.168,31.57 l 8.379,21.762 c 6.582,-0.328 6.254,-7.172 10.789,-9.336 4.738,-2.258 10.515,2.941 14.73,4.078 -0.367,3.137 -12.883,27.719 -14.82,29.367 l -12.777,8.945 c -6.727,6.547 1.082,10.875 1.183,15.883 0.016,0.899 -0.82,7.195 -1.074,9.559 -0.801,7.453 -9.633,8.144 -13.613,6.011 -8.711,-4.667 -2.465,-21.757 -5.118,-25.71 -1.847,-2.754 -11.796,-6.313 -16.214,-6.829 1.679,3.454 3.945,6.52 4.054,11.497 0.149,6.382 -1.523,8.355 -5.019,11.031 -4.035,3.082 -6.856,0.851 -10.711,-1.496 -4.848,-2.953 -9.91,-2.02 -5.793,4.597 -3.016,-0.914 -3.168,-0.914 -3.348,-4.48 -3.476,2.371 -0.097,1.371 -3.578,2.5 -0.781,-3.942 -4.562,-9.02 -0.562,-15.07 l 2.117,-2.262 c 2.226,-2.153 2.492,-1.875 2.73,-6.121 -10.523,-2.828 -7.125,1.922 -24.437,0.015 l -16.641,-3.89 c -2.805,-1.164 -1.918,-1.293 -4.141,-2.891 1.063,-18.953 19.333,-22.453 2.247,-32.543 -3.293,-1.941 -7.032,-3.199 -7.907,-6.98 3.789,-0.879 5.453,-2.782 3.664,-6.688 l -12.289,-24.144 c -9.136,-16.481 -9.347,-15.383 -16.242,-32.059" /><path
         id="path26"
         style="fill:#ffffff;fill-opacity:1;fill-rule:evenodd;stroke:none"
         d="m 296.563,393.277 c -0.84,3.403 0.281,9.133 3.238,10.938 0.91,-4.766 -1.172,-7.633 -3.238,-10.938 z m -53.821,-38.988 c 4.973,1.543 7.477,2.754 13.43,2.91 17.055,0.449 11.719,-2.859 22.141,7.465 2.535,2.512 3.894,4.988 6.14,7.813 5.945,7.464 26.027,19.707 21.352,36.234 -4.035,14.273 -38.586,73.484 -50.239,81.965 -16.55,12.043 -42.222,5.496 -43.964,-16.067 -1.907,-23.586 40.464,-44.91 56.136,-59.527 13.219,-12.324 7.66,-11.391 15.723,-7.699 -0.168,-8.09 -6.535,-7.301 -12.621,-11.215 -11.418,-7.348 -24.875,-30.207 -28.098,-41.879" /><path
         id="path28"
         style="fill:#ffffff;fill-opacity:1;fill-rule:evenodd;stroke:none"
         d="m 360.508,417.352 c -0.168,3.441 -0.555,6.656 0.84,9.043 1.898,-2.848 1.117,-6.305 -0.84,-9.043 z m -40.727,43.437 c -19.578,9.231 -16.965,-4.199 -25.441,-1.164 -6.66,2.383 -9.879,17.473 -19.656,11.551 l 12.699,-18.813 c 4.289,-6.59 6.816,-15.031 10.926,-21.773 3.714,-6.086 13.89,-8.149 21.867,-9.953 11.551,-2.61 22.07,5.027 28.105,-4.653 -11.058,0.168 -10.355,1.551 -17.843,-5.328 -14.34,-13.168 -16.43,-22.715 -24.336,-42.386 5.031,0.941 7.457,3.089 14.097,2.503 15.262,-1.339 8.114,-9.656 27.336,19.661 14.09,21.492 25.488,29.976 14.035,43.636 -6.207,7.399 -29.117,20.739 -41.789,26.719" /><path
         id="path30"
         style="fill:#ffffff;fill-opacity:1;fill-rule:evenodd;stroke:none"
         d="m 236.52,502.684 c -4.68,4.035 -13.5,6.25 -18.817,9.906 -9.215,6.336 -4.121,12.144 -0.973,20.039 -4.062,-2.227 -7.91,-9.445 -10.535,-14.281 -12.414,-22.86 -15.031,-7.414 -18.215,-4.715 -9.187,-2.981 -12.113,-34.731 -3.578,-49.324 5.836,-9.973 22.602,-22.305 39.629,-21.969 -1.789,1.488 -7.371,8.23 -9.293,11.015 -14.621,21.204 -2.109,31.293 3.864,43.922 -6.282,-0.652 -26.188,-5.605 -30.477,-3.996 3.371,6.297 31.281,6.797 40.234,7.903 -7.781,3.699 -19,1.589 -27.695,3.933 6.082,9.133 27.195,-0.722 35.856,-2.433" /><path
         id="path32"
         style="fill:#ffffff;fill-opacity:1;fill-rule:evenodd;stroke:none"
         d="m 222.695,515.531 c 0.825,-0.769 0.325,-0.429 1.614,-1.238 0.695,-0.434 1.582,-0.859 2.312,-1.215 1.641,-0.805 2.785,-1.394 4.547,-2.348 12.078,-6.531 17.238,-13.742 25.961,-14.886 -2.016,5.359 -5.332,9.031 -6.641,13.027 -2.675,0.77 -3.668,-0.18 -5.211,1.192 3.036,4.398 7.602,3.035 10.321,-0.336 1.222,-1.516 3.972,-9.247 5.59,-12.118 2.363,-4.187 4.363,-6.363 5.91,-11.73 1.379,-4.793 1.992,-9.731 4.769,-13.012 4.348,0.5 4.438,5.149 11.199,1.149 3.942,-2.336 5.606,-4.868 8.747,-7.164 3.046,3.488 9.23,8.796 8.48,14.886 -8.359,5.418 -19.422,-0.117 -27.715,5.43 -16.137,10.785 2.078,52.469 -26.812,40.656 -7.696,-3.144 -16.887,-10.527 -23.071,-12.293" /><path
         id="path34"
         style="fill:#ffffff;fill-opacity:1;fill-rule:evenodd;stroke:none"
         d="m 304.34,306.621 5.742,3.793 c -1.125,2.258 -3.621,0.801 1.316,6.758 -8.742,12.371 -3.003,19.5 -0.293,27.93 1.465,4.539 3.176,9.086 5.254,12.75 2.868,5.066 6.649,8.207 6.707,9.546 0.086,2.016 -11.574,1.832 -18.183,-4.722 -3.305,-3.27 -6.43,-10.254 -9.363,-14.91 -4.204,-6.661 -15.688,-22.801 -15.137,-32.86 28.742,0.27 19.93,-3.851 23.957,-8.285" /><path
         id="path36"
         style="fill:#ffffff;fill-opacity:1;fill-rule:evenodd;stroke:none"
         d="m 413.129,375.414 c -1.234,-2.668 0.574,-1.664 -2.598,-2.383 0.246,1.789 0.758,1.532 2.598,2.383 z m -11.926,8.481 c 0.391,3.839 -0.371,2.453 2.332,3.933 -0.668,-3.625 0.207,-2.187 -2.332,-3.933 z m 3.254,-2.118 c 1.563,2.852 0.777,1.422 3.816,3.493 12.04,8.191 18.055,21.214 20.797,23.664 -0.793,-8.829 -12.097,-19.012 -17.711,-27.438 -4.316,-6.473 2.184,-0.543 -5.242,-7.742 -1.652,-1.606 -3.679,-4.652 -3.879,-6.965 l 0.196,-1.168 c 3.113,-4.66 9.129,3.742 10.789,6.527 12.332,20.688 25.269,23.082 28.711,31.274 -0.985,0.641 -1.223,0.867 -2.508,1.832 -3.758,2.816 -3.66,-0.449 -7.598,2.586 -3.047,2.344 -4.625,5.66 -7.64,8.176 -8.219,6.863 -13.442,-5.075 -15.856,-11.375 -3.641,-9.516 -4.387,-13.938 -9.609,-21.469 -4.559,-6.563 -8.289,-10.895 -11,-20.387 l 1.05,-0.875 c 0.137,-0.113 0.368,-0.305 0.516,-0.426 l 0.969,-0.82 c 0.945,-0.82 1.324,-1.203 1.867,-1.762 l 8.594,11.403 c 7.644,10.312 4.234,9.758 3.738,11.472" /><path
         id="path38"
         style="fill:#ffffff;fill-opacity:1;fill-rule:evenodd;stroke:none"
         d="m 338.539,584.629 c -6.527,-0.566 -8.726,1.601 -10.187,7.242 4.277,1.492 12.843,0.301 16.066,-1.543 -1.691,-1.918 -3.297,-3.898 -5.879,-5.699 z m -3.406,12.812 c 0.59,-1.25 0.355,-1.058 0.746,-2.168 -1.352,0.368 -2.984,0.348 -3.629,2.032 -1.07,2.804 -0.586,1.07 1.406,2.496 l 0.828,-1.09 c 0.125,-0.211 0.539,-1.039 0.649,-1.27 z m 8.961,8.715 c -2.528,1.399 -0.574,0.836 -0.656,1.02 1.562,0.902 3.265,1.758 6.847,0.222 1.262,-0.543 1.113,-0.789 1.485,-1.105 -2.227,-0.98 -5.52,-1.332 -7.676,-0.137 z m 0.054,6.508 c 3.555,1.223 5.915,0.734 8.665,-2.211 -5.875,0.317 -4.301,1.238 -9.786,-0.789 z m -21.398,0.813 -0.305,-3.801 c 0.219,-0.086 0.5,-0.203 0.68,-0.242 l 6.113,-1.192 c 2.059,-0.937 0.821,0.446 2.168,-1.758 -2.679,-2.398 -7.34,-1.156 -8.656,-2.695 -2.375,-5.141 0.305,-14.902 3.625,-19.269 2.82,-3.704 14.023,-11.938 15.137,-0.477 3.855,-0.383 0.937,-1.527 5.738,-0.547 3.238,7.344 9.961,19.211 9.902,28.223 l -3.207,4.051 c -1.121,1.843 -1.91,3.449 -3.148,5.753 -2.692,5.016 -0.715,1.868 -4.508,4.235 -3.351,2.09 -2.07,2.472 -4.121,5.207 -8.156,-1.461 -12.719,-10.379 -17,-15.078 1.008,-0.879 -0.566,-0.157 2.402,-1.274 4.258,-1.605 5.118,-0.324 5.516,-5.215 -3.398,2.532 -6.336,2.082 -10.336,4.079" /><path
         id="path40"
         style="fill:#ffffff;fill-opacity:1;fill-rule:evenodd;stroke:none"
         d="m 229.508,313.652 c -0.004,5.641 4.859,6.618 8.555,10.016 3.011,2.777 9.964,14.453 15.429,21.109 3.367,4.102 5.668,4.786 8.121,9.786 -18.84,-0.559 -23.379,-7.852 -30.5,-19.317 -9.504,-15.301 -17.703,-19.375 -15.218,-31.859 4.324,-1.414 7.804,-0.407 13.125,-1.227 4.07,-0.633 7.82,-1.758 12.007,-2.469 14.114,-2.386 14.727,0.883 17.957,1.45 1.321,0.234 3.653,-0.106 5.325,0.863 -6.075,0.496 -10.153,2.379 -14.465,5.289 -1.989,1.344 -4.559,3.184 -5.977,4.465 -2.519,2.273 -2.187,3.258 -3.832,5.703 -5.23,-1 -5.48,-3.598 -10.527,-3.809" /><path
         id="path42"
         style="fill:#ffffff;fill-opacity:1;fill-rule:evenodd;stroke:none"
         d="m 484.102,470.145 c -0.071,-5.821 1.582,-8.434 1.019,-14.758 -0.391,-4.469 -0.57,-9.477 1.688,-13.09 5.109,-8.18 17.843,-0.527 23.168,2.445 -2.688,8.672 5.476,10.938 11.257,8.176 1.055,3.164 1.563,4.848 4.852,5.102 0.988,-1.555 1.836,-3.457 0.789,-6.063 -3.121,-7.766 -0.273,2.164 -3.641,-2.879 2.821,-3.25 4.825,-1.265 9.157,1.07 -1.547,5.332 -4.539,10.848 -7.801,13.579 -5.969,4.988 -7.906,4.546 -15.184,1.281 0.504,3.379 1.356,3.484 2.938,6.457 -5.332,-0.469 -7.024,-0.695 -10.727,1.43 1.41,-3.133 2.895,-3.352 2.363,-7.114 -4.691,2.055 -4.421,4.352 -7.039,8.875 -4.699,-0.949 -9.531,-2.25 -12.839,-4.511" /><path
         id="path44"
         style="fill:#ffffff;fill-opacity:1;fill-rule:evenodd;stroke:none"
         d="m 320.035,616.758 c 0.746,0.539 0.238,-0.02 1.27,1.144 3.242,3.664 2.558,5.758 9.175,12.539 4.594,4.707 12.836,5.832 18.856,-1.324 l 1.238,-1.394 c 2.699,-3.848 -0.617,-1.43 3.789,-5.973 3.598,-3.703 7.539,-19.488 7.668,-27.406 4.047,9.769 2.582,25.172 -4.343,30.918 -4.364,3.617 -7.118,2.992 -7.391,11.562 -0.234,7.34 -2.641,9.832 -8.871,11.75 -7.383,2.27 -15.211,-2.535 -20.067,-7.082 -4.98,-4.656 -19.511,-22.23 -20.5,-29.39 2.633,-1.731 8.043,-4.051 11.446,-1.063 2.211,1.945 2.758,6.383 5.422,6.977 4.679,1.039 1.57,1.414 2.308,-1.258" /><path
         id="path46"
         style="fill:#ffffff;fill-opacity:1;fill-rule:evenodd;stroke:none"
         d="m 335.793,313.836 c -0.566,3.094 1.703,0.965 1.555,0.062 -0.274,-1.695 -1.27,-1.644 -1.555,-0.062 z m 7.199,-11.648 0.758,0.289 c -0.09,5.746 0.969,9.425 7.039,9.441 1.371,-2.816 0.316,-3.359 3.199,-4.371 3.117,3.414 0.606,0.516 1.551,4.207 l 1.336,3.187 c -11.652,4.286 -2.156,6.661 -4.891,16.618 -6.191,-3.379 -4.328,-13.356 -11.355,-16.539 l -0.441,1.312 c -2.344,5.082 -6.458,1.27 -1.989,10.656 1.141,2.399 0.977,-0.957 0.266,1.352 l -5.285,0.234 c -2.465,-3.578 -1.879,-4.922 -6.801,-5.734 -3.484,3.996 -0.106,4.609 -6.277,4.758 l -6.543,-8.567 c -1.809,-3.367 -0.766,-8.777 -1.508,-11.183 -2.793,-2.125 -3.824,-0.618 -5.789,-3.141 -2.27,-2.918 0.468,-2.246 -3.086,-4.918 -3.059,-2.488 1.972,2.41 -5.176,-0.887 -3.086,-1.422 -3.598,-0.89 -5.617,-3.132 2.93,-1.352 3.422,-0.977 6.168,-2.942 2.996,4.84 2.144,2.754 7.652,3.742 5.043,0.907 2.465,3.418 7.285,1.231 0.461,3.14 0.364,2.722 2.219,4.535 4.621,-1.281 7.375,-7.102 11.231,-5.438 4.371,2.278 0.921,4.02 3.683,9.528 2.969,0.988 5.856,0.332 8.402,0.105 2.004,-0.176 1.989,1.762 3.969,-4.343" /><path
         id="path48"
         style="fill:#fdfdfd;fill-opacity:1;fill-rule:evenodd;stroke:none"
         d="m 438.91,418.406 c 4.051,-0.707 6.055,-4.051 6.813,-9.281 -2.469,1.676 -5.133,6.332 -6.813,9.281 z m -9.898,7.477 c 7.504,-1.985 5.695,-6.297 3.715,-11.137 -2.442,2.664 -3.211,7.473 -3.715,11.137 z m 3.136,3.004 c -7.058,1.965 -5.265,-1.762 -8.199,-4.211 -4.285,-3.582 1.278,2.035 -2.441,0.215 -1.164,-0.575 -1.899,-2.977 -2.516,-4.559 5.895,-0.394 10.27,-4.512 12.395,-9.469 8.949,2.012 5.082,-1.57 10.207,-4.523 3.734,-2.152 2.836,-0.918 4.101,0.734 1.942,-2.304 0.364,-3.066 4.719,-4.179 1.953,2.773 2.215,7.578 0.524,10.496 -0.977,-2.868 0.632,-4.118 -1.426,-7.375 -1.871,4.773 -2.903,10.57 -0.606,15.726 1.711,-1.613 0.762,-0.586 1.891,-2.656 0.449,-0.824 0.922,-2.106 1.512,-3.152 1.851,11.597 -2.055,7.793 -8.082,12.453 -6.079,4.699 -0.961,0.957 -6.629,3.773 -3.328,1.649 -3.141,3.176 -5.274,4.348 l -0.176,-7.621" /><path
         id="path50"
         style="fill:#fdfdfd;fill-opacity:1;fill-rule:evenodd;stroke:none"
         d="m 278.078,595.945 c 5.082,-2.785 3.723,-4.488 7.754,-6.859 3.984,-2.344 7.16,-1.59 9.758,-4.887 4.187,3.883 -0.57,0.731 7.433,6.219 -3.781,-0.875 -4.82,-1.449 -8.418,-0.238 1.571,4.086 5.336,2.914 9.399,6.675 3.371,3.122 3.781,5.09 6.375,9 -6.848,3.282 -11.781,3.692 -16.617,-1.113 -1.473,-1.469 -4.305,-3.902 -6.969,-5.324 -2.961,-1.578 -6.242,-1.672 -8.715,-3.473" /><path
         id="path52"
         style="fill:#ffffff;fill-opacity:1;fill-rule:evenodd;stroke:none"
         d="m 170.293,364.16 c 12.141,-1.097 39.855,0.043 48.207,-1.09 4.453,-0.601 3.391,-2.273 3.906,-1.125 3.598,1.278 6.563,1.039 10.938,0.809 -0.137,-3.258 -0.567,-4.176 -1.489,-7.102 -2.265,-7.179 -0.242,-6.672 0.461,-7.511 1.211,6.523 3.063,13.484 7.911,15.55 3.011,5.747 2.097,1.993 4.523,11.231 0.813,3.105 2.637,12.609 -3.172,8.226 -5.18,-3.906 -1.117,-19.281 -13.215,-18.414 -16.562,1.188 -30.34,-0.222 -45.187,1.493 -3.047,0.351 -8.438,1.48 -10.863,0.351 -3.442,-1.609 -1.11,0.375 -2.02,-2.418" /><path
         id="path54"
         style="fill:#ffffff;fill-opacity:1;fill-rule:evenodd;stroke:none"
         d="m 433.574,316.254 c 1.336,-2.055 -1.226,-0.949 3.145,-1.426 2.051,-0.219 6.113,0.66 11.523,-0.351 -2.238,-2.086 -4.215,-1.95 -7.887,-1.872 -6.316,0.141 -17.542,1.356 -22.679,-0.378 1.633,-3.161 1.094,-0.848 4.211,-2.774 8.867,1.832 54.109,2.582 59.539,0.883 -0.082,4.742 -1.551,2.738 -5.438,2.316 l -18.191,0.594 c -4.149,-0.055 -7.07,-0.766 -8.703,1.785 5.113,3.703 7.429,-1.703 11.414,1.989 1.133,1.05 -0.16,0.738 1.816,1.488 3.508,1.332 20.59,-0.723 27.649,0.812 -5.457,3.688 -15.203,0.625 -20.567,1.493 -6.32,1.023 -4.402,-0.043 -9.937,0.003 -3.711,0.032 -5.676,1.145 -9.274,0.493 l -1.25,-4.571 c -10.304,-2.047 -8.804,1.262 -12.179,0.813 -2.711,-0.36 0.132,-1.321 -3.192,-1.297" /><path
         id="path56"
         style="fill:#fdfdfd;fill-opacity:1;fill-rule:evenodd;stroke:none"
         d="m 481.934,433.734 c 2.304,-16.609 24.347,-11.683 24.566,-11.554 1.918,2.035 0.52,1.363 2.457,3.367 3.082,3.187 4.504,3.129 6.512,13.363 -10.696,0.492 -20.602,-16.476 -30.192,-8.164 l -3.343,2.988" /><path
         id="path58"
         style="fill:#fafafd;fill-opacity:1;fill-rule:evenodd;stroke:none"
         d="m 263.586,281.691 c -3.738,3.914 -19.148,0.426 -24.973,0.164 -19.832,-0.886 -10.769,7.625 -10.207,10.629 -4.281,1.649 -10.113,2.379 -11.949,-2.769 3.863,-2.524 3.145,0.07 6.238,-2.414 l -0.175,-4.129 c -4.997,-0.817 -10.782,0.031 -15.196,-1.543 2.375,-2.906 9.168,-2.188 13.879,-2.137 l 30.559,-0.219 c 4.992,-0.105 10.476,-1.906 11.824,2.418" /><path
         id="path60"
         style="fill:#ffffff;fill-opacity:1;fill-rule:evenodd;stroke:none"
         d="m 397.813,303.727 c 4.867,1.429 21.707,0.328 33.511,1.351 10.41,0.902 21.125,0.141 33.203,1.363 -5.863,2.997 -12.394,2.204 -21.433,2.063 -5.258,-0.082 -6.789,-1.375 -12.156,-1.488 -4.586,-0.09 -9.391,0.445 -14.016,0.535 -6.344,0.894 -11.356,0.262 -17.535,0.476 -5.895,0.211 -2.867,1.438 -7.489,-0.511 -4.554,-1.926 -6.171,-0.696 -8.519,-1.688 3.312,-4.433 9.164,-2.863 14.434,-2.101" /><path
         id="path62"
         style="fill:#ffffff;fill-opacity:1;fill-rule:evenodd;stroke:none"
         d="m 389.781,298.684 2.403,-0.43 c 0.375,-3.531 -0.082,-1.516 1.824,-4.453 l 13.933,0.379 c -2.757,1.64 -3.73,0.644 -10.914,1.508 0.828,0.921 0.223,0.55 1.567,1.335 l 10.793,1.504 c 8.086,0.043 25.449,-1.398 32.804,0.028 3.164,0.613 3.207,0.679 4.723,2.425 -15.543,3.09 -40.601,-2.996 -54.277,0.766 l -5.524,-0.75 c 0.196,-1.332 -0.359,-0.098 1.145,-1.359 0.027,-0.02 1.328,-0.801 1.523,-0.953" /><path
         id="path64"
         style="fill:#fafafa;fill-opacity:1;fill-rule:evenodd;stroke:none"
         d="m 161.621,655.137 -3.695,3.336 c 3.285,-9.743 4.734,-0.727 6.488,-14.145 -2.793,2.07 -4.828,5.68 -6.148,9.195 0.55,-3.722 2.519,-5.406 3.457,-9.148 1.14,-4.527 0.515,-8.48 0.773,-13.02 0.399,-7.113 1.492,-4.382 5.695,-7.167 4.704,-3.122 -0.679,-5.981 6.461,-5.282 0.84,2.254 0.594,4.535 0.063,7.16 l -5.336,0.993 c -1.785,5.031 -3.969,25.824 -5.813,29.316 -1.367,2.582 -3.355,4.008 -4.793,6.047 l 2.848,-7.285" /><path
         id="path66"
         style="fill:#fdfdfd;fill-opacity:1;fill-rule:evenodd;stroke:none"
         d="m 465.453,475.469 c 3.449,-1.149 3.313,-0.551 4.629,-3.281 -3.633,-1.583 -3.859,-0.34 -4.629,3.281 z m 0.668,-6.285 c 7.996,-1.047 11.981,7.152 13.313,14.066 -5.137,1.523 -10.075,6.773 -13.325,1.004 -3.371,-5.992 -3.226,-10.277 0.012,-15.07" /><path
         id="path68"
         style="fill:#fafafa;fill-opacity:1;fill-rule:evenodd;stroke:none"
         d="m 503.305,491.707 c -0.473,-1.988 0.804,-0.625 -0.871,-1.664 -1.621,2.762 0.949,1.352 -3.836,1.762 l 1.851,-5.828 c 0.824,-2.247 1.621,-5.086 2.258,-6.946 10.082,-1.843 11.731,6.77 10.578,12.309 l -2.515,-0.512 c -0.118,-0.055 -0.329,-0.308 -0.516,-0.43 l 1.73,-1.437 -2.382,0.051 c -0.215,-0.754 -0.164,-1.012 -0.602,-1.824 -1.125,-2.09 -0.02,-0.75 -1.242,-1.5 0.242,-0.282 0.379,-0.477 0.504,-1 l 1.164,-1.586 c -3.797,-0.664 -2.313,-0.934 -5.692,-0.122 l 1.157,2.375 c 0.082,0.141 0.289,0.411 0.429,0.618 4.203,2.605 0.973,0.941 2.84,4.578 1.903,3.707 0.961,1.496 4.731,3.179 l -0.145,4.922 -9.66,0.774 c -0.723,-5.071 -1.231,-3.567 2.199,-6.828 -1.121,-1.508 0.699,-0.496 -1.98,-0.891" /><path
         id="path70"
         style="fill:#fdfdfd;fill-opacity:1;fill-rule:evenodd;stroke:none"
         d="m 272.828,604.508 c 4.149,-5.731 12.598,-3.051 16.52,0.133 4.078,3.304 9.769,7.293 3.484,13.574 -3.184,-2.121 -4.762,-5.043 -8.75,-7.813 -3.363,-2.339 -9.008,-2.406 -11.254,-5.894" /><path
         id="path72"
         style="fill:#fdfdfd;fill-opacity:1;fill-rule:evenodd;stroke:none"
         d="m 313.809,602.395 3.222,-0.766 -3.133,-7.965 c 2.797,-1.168 1.043,1.441 2.266,-1.559 -2.703,-3.753 -9.738,-6.367 -11.668,-10.671 25.402,0.398 16.641,7.511 12.582,14.949 1.785,4.199 2.067,-0.11 2.496,5.312 0.129,1.59 -0.293,6.664 -0.504,8.383 -3.816,-1.515 -3.523,-3.902 -5.261,-7.683" /><path
         id="path74"
         style="fill:#fafafa;fill-opacity:1;fill-rule:evenodd;stroke:none"
         d="m 269.836,298.395 c 3.297,2.636 1.894,-0.332 5.738,2.347 l -1.433,5.352 c -3.786,0.14 -2.911,0.187 -4.801,-2.371 0.035,-0.043 0.094,-4.735 0.82,-2.258 0.055,0.18 0.371,-0.449 0.535,-0.692 -5.664,-0.234 -1.105,-0.582 -5.882,-2.996 -1.868,-0.941 -4.047,-1.195 -5.735,-2.004 -0.351,-4.089 -1.039,-2.668 1.43,-4.972 2.594,0.57 1.293,1.879 3.019,3.883 3.7,-5.371 0.301,-9.676 4.168,-14.313 l 10.586,0.047 c -1.691,5.285 -0.758,1.398 -6.457,1.473 -5.746,6.273 -3.187,9.23 0.793,14.086 -2.898,1.464 -1.551,-0.817 -2.781,2.418" /><path
         id="path76"
         style="fill:#0a1a2e;fill-opacity:1;fill-rule:evenodd;stroke:none"
         d="m 208.563,294.734 c -2.973,0.461 -2.391,-0.371 -3.356,2.332 1.445,1.766 0.879,0.868 2.988,0.637 z m -5.282,-2.636 c -3.386,0.043 -3.91,0.437 -6.851,1.484 -5.309,1.895 -4.039,1.574 -4.653,3.492 0.985,1.66 5.383,2.434 7.953,0.973 1.641,-0.93 3.172,-4.617 3.551,-5.949 z m -15.41,-3.36 0.727,0.035 c 1.59,0.418 5.156,2.543 8.144,3.356 1.672,-2.07 2.75,-3.516 3.207,-6.75 l -3.894,-1.414 c 4.371,-3.055 8.054,3.355 10.402,5.844 4.324,4.582 4.68,7.234 -1.113,10.515 -2.196,-1.117 -0.61,-0.297 -2.16,-2.707 l -8.059,3.852 c -9.348,-5.063 -2.223,-7.156 -7.254,-12.731" /><path
         id="path78"
         style="fill:#fafafd;fill-opacity:1;fill-rule:evenodd;stroke:none"
         d="m 218.418,338.867 c -2.949,7.735 -3.398,5.711 -5.75,5.934 0.859,-5.078 4.27,-6.043 5.168,-9.731 1.598,-6.543 -4.457,-6.574 -5.961,-7.843 1.926,-1 5.223,-2.028 7.168,-3.379 2.414,3.312 5.176,7.226 7.852,11.152 3.128,4.59 1.847,7.645 -3.211,9.578 -4.969,-6.043 0.546,-11.187 -2.407,-15.148 -3.277,3.285 -1.14,4.945 -2.859,9.437" /><path
         id="path80"
         style="fill:#fdfdfd;fill-opacity:1;fill-rule:evenodd;stroke:none"
         d="m 255.648,319.879 c -3.804,6.992 2.672,1.75 1.415,8.484 -5.321,-1.988 0.332,-1.468 -7.465,-5.453 -6.711,-3.437 -3.719,-11.113 3.808,-13.156 2.649,2.648 5.832,5.656 5.664,10.633 l -3.422,-0.508" /><path
         id="path82"
         style="fill:#fafafa;fill-opacity:1;fill-rule:evenodd;stroke:none"
         d="m 469.277,522.93 c -0.214,1.492 -1.035,3.547 0.489,3.597 1.207,2.614 2.699,4.106 3.949,6.61 -4.465,-2.153 -3.633,-4.449 -7.383,-5.934 -0.547,1.527 0.02,1.18 -1.301,2.59 -2.195,-2.52 -5.359,-3.258 -8.965,-6.574 l -2.789,-3.821 c 5.629,1.801 6.25,5.129 10.004,7.172 2.852,-7.914 -9.453,-18.922 -11.898,-22.718 14.285,6.714 13.824,17.621 17.894,19.078" /><path
         id="path84"
         style="fill:#fafafd;fill-opacity:1;fill-rule:evenodd;stroke:none"
         d="m 256.246,306.789 c 2.063,-3.148 4.262,-2.59 8.281,-1.125 6.426,2.352 5.114,9.828 12.899,0.379 0.293,2.098 1.246,3.824 2.355,6.172 -10.613,-1.914 -7.613,0.734 -10.054,5.965 -3.086,-2.039 -3.614,-3.301 -6.856,-5.813 -2.07,-1.601 -1.582,-2.152 -2.801,-3.355 l -3.824,-2.223" /><path
         id="path86"
         style="fill:#ffffff;fill-opacity:1;fill-rule:evenodd;stroke:none"
         d="m 373.086,326.223 c 8.269,-0.168 40.199,-1.719 46.105,0.91 -2.175,1.91 -40.183,1.551 -46.246,1.269 l 0.141,-2.179" /><path
         id="path88"
         style="fill:#0a1729;fill-opacity:1;fill-rule:evenodd;stroke:none"
         d="m 197.637,304.66 c -3.336,-0.394 -9.008,-1.234 -7.285,3.512 1.66,4.598 5.086,4.433 7.304,4.301 z m 2.129,2.848 c 0.148,0.097 -0.938,1.031 1.836,0.539 2.941,-0.527 1.242,-0.637 2.011,-1.383 -3.027,-1.629 -1.941,-1.66 -3.847,0.844 z m 5.609,1.121 c -2.281,0.719 -1.254,-0.082 -2.551,1.676 3.418,-0.422 1.387,0.98 2.551,-1.676 z m -0.527,4.785 c -3.789,-1.812 -6.727,0.734 -9.504,2.324 -0.746,-0.687 -1.789,-1.515 -3.02,-2.543 l -2.613,-2.668 c -0.16,-0.207 -0.637,-0.804 -0.766,-1.031 -2.265,-3.914 0.278,-6.933 4.368,-7.062 l 11.242,2.656 c 3.136,2.328 2.699,5.051 0.293,8.324" /><path
         id="path90"
         style="fill:#ffffff;fill-opacity:1;fill-rule:evenodd;stroke:none"
         d="m 475.852,362.258 c 5.117,-3.66 44.625,-1.664 49.386,-1.188 -1.332,1.078 -1.656,1.571 -4.468,1.797 l -20.075,-0.683 c -6.789,-0.102 -19.242,2.414 -24.843,0.074" /><path
         id="path92"
         style="fill:#fdfdfd;fill-opacity:1;fill-rule:evenodd;stroke:none"
         d="m 458.801,518.023 -1.492,0.168 c -5.422,-6.675 0.527,4.5 -13.829,-8.605 -1.886,-1.723 -2.671,-2.203 -3.41,-4.324 9.481,-3.274 16.203,7.195 18.731,12.761" /><path
         id="path94"
         style="fill:#fdfdff;fill-opacity:1;fill-rule:evenodd;stroke:none"
         d="m 338.129,571.426 c -1.563,4.711 -2.641,1.344 -11.652,9.586 l -3.325,2.949 c -0.109,0.094 -0.347,0.289 -0.519,0.434 -1.207,-7.329 -0.973,-7.813 4.43,-10.883 3.746,-2.125 6.648,-4.457 11.066,-2.086" /><path
         id="path96"
         style="fill:#fdfdfd;fill-opacity:1;fill-rule:evenodd;stroke:none"
         d="m 470.426,463.59 c 1.668,-2.012 7.699,-8.258 10.929,-5.461 1.735,3.355 0.516,6.344 0.149,10.301 l -11.078,-4.84" /><path
         id="path98"
         style="fill:#ffffff;fill-opacity:1;fill-rule:evenodd;stroke:none"
         d="m 356.039,363.465 c -1.242,-3.438 -0.598,-0.856 0.5,-1.867 8.113,-0.625 19.699,-1.922 27.055,1.215 -2.555,1.199 -11.035,1.308 -13.524,1.644 -6.453,0.859 -9.308,-0.703 -14.031,-0.992" /><path
         id="path100"
         style="fill:#fdfdfd;fill-opacity:1;fill-rule:evenodd;stroke:none"
         d="m 527.277,438.277 c 1.707,-2.418 1.399,-2.742 3.641,-4.707 l 7.91,2.141 c -1.797,7.191 -1.5,6.25 -8.512,8.156 -1.144,-2.238 -2.078,-4.066 -3.039,-5.59" /><path
         id="path102"
         style="fill:#0a1a2e;fill-opacity:1;fill-rule:evenodd;stroke:none"
         d="m 332.141,590.145 c 10.761,0.847 6.734,0.023 8.211,-1.29 -1.164,-0.523 -2.293,-1.164 -4.293,-0.996 -3.907,0.321 -3.911,2.282 -3.918,2.286 z m -3.789,1.726 c 1.461,-5.641 3.66,-7.808 10.187,-7.242 2.582,1.801 4.188,3.781 5.879,5.699 -3.223,1.844 -11.789,3.035 -16.066,1.543" /><path
         id="path104"
         style="fill:#ffffff;fill-opacity:1;fill-rule:evenodd;stroke:none"
         d="m 440.188,362.805 c -5.477,-0.051 -6.903,1.418 -19.063,1.113 -2.734,-0.07 -5.371,0.277 -6.652,-1.109 3.863,-3.09 19.281,-1.914 25.117,-1.821 l 0.598,1.817" /><path
         id="path106"
         style="fill:#0d1c30;fill-opacity:1;fill-rule:evenodd;stroke:none"
         d="m 369.578,309.73 c 4.422,1.993 2.735,0.352 3.492,-0.753 -4.386,-2.368 -3.172,0.386 -3.492,0.753 z m 4.723,-5.656 -0.051,-0.953 c 3.297,0.52 1.883,1.063 3.816,-0.973 -1.375,-2.507 0.262,-0.39 -1.89,-1.871 l -1.672,-0.867 c 2.984,-1.238 4.844,2.242 5.09,5.75 l -4.317,1.617 c 0.184,6.407 -2.336,7.286 -7.5,5.024 -1.242,-1.442 -0.898,-0.746 -1.382,-3.043 2.328,-1.715 6.558,-3.25 7.906,-4.684" /><path
         id="path108"
         style="fill:#0a1a2e;fill-opacity:1;fill-rule:evenodd;stroke:none"
         d="m 369.285,297.746 c 2.817,-1.058 1.867,-0.383 2.914,-2.73 -4.328,0.8 -1.347,-0.668 -2.914,2.73 z m 5.434,-4.441 c -0.301,4.644 -1.129,3.777 -2.18,7.718 -0.496,0.528 -0.902,1.293 -1.324,1.813 -1.301,1.019 -1.809,0.836 -4.43,0.266 -0.926,-6.012 0.879,-6.907 4.11,-10.981 l 3.824,1.184" /><path
         id="path110"
         style="fill:#fdfdff;fill-opacity:1;fill-rule:evenodd;stroke:none"
         d="m 197.637,304.66 0.019,7.813 c -2.218,0.132 -5.644,0.297 -7.304,-4.301 -1.723,-4.746 3.949,-3.906 7.285,-3.512" /><path
         id="path112"
         style="fill:#fafafd;fill-opacity:1;fill-rule:evenodd;stroke:none"
         d="m 191.777,297.074 c 0.614,-1.918 -0.656,-1.597 4.653,-3.492 2.941,-1.047 3.465,-1.441 6.851,-1.484 -0.379,1.332 -1.91,5.019 -3.551,5.949 -2.57,1.461 -6.968,0.687 -7.953,-0.973" /><path
         id="path114"
         style="fill:#0a1a2e;fill-opacity:1;fill-rule:evenodd;stroke:none"
         d="m 360.531,324.613 -0.629,3.754 2.832,-1.234 c -1.269,-3.617 0.176,-1.02 -2.203,-2.52 z m -3.937,0.082 c 4.094,-3.613 12.316,-2.902 7.14,4.899 -4.254,1.332 -7.773,-0.539 -7.14,-4.899" /><path
         id="path116"
         style="fill:#0a172e;fill-opacity:1;fill-rule:evenodd;stroke:none"
         d="m 320.766,286.918 c -3.137,0.012 -2.321,-0.441 -4.442,0.918 1.266,4.168 3.719,4.496 4.442,-0.918 z m -0.098,5.352 c -4.125,0.23 -3.492,0.277 -6.633,-1.415 l -0.133,-6.07 8.95,1.07 c 0.3,3.793 0.175,3.579 -2.184,6.415" /><path
         id="path118"
         style="fill:#0a1a2e;fill-opacity:1;fill-rule:evenodd;stroke:none"
         d="m 322.309,281.043 c 0.734,1.465 -0.743,1.125 1.265,1.703 3.84,1.102 2.336,-0.488 2.699,-0.695 -1.16,-1.207 1.457,-0.535 -1.535,-1.426 -4.633,-1.371 -0.949,-0.473 -2.429,0.418 z m -2.465,2.504 c -0.438,-0.91 -0.348,-0.305 -1.328,-1.266 -1.258,-1.226 -0.2,0.86 -0.875,-1.187 2.851,-3.266 7.242,-2.563 11.113,-1.231 v 4.18 c -3.957,1.219 -4.859,0.879 -8.91,-0.496" /><path
         id="path120"
         style="fill:#f2f2f5;fill-opacity:1;fill-rule:evenodd;stroke:none"
         d="m 246.047,328.547 c 1.293,0.476 18.699,20.301 19.09,23.812 l -15.551,-17.468 c -1.656,-2.161 -3.02,-3.852 -3.539,-6.344" /><path
         id="path122"
         style="fill:#0a1729;fill-opacity:1;fill-rule:evenodd;stroke:none"
         d="m 379.816,317.715 c 2.211,-1.512 1.981,-0.305 1.739,-3.82 l -2.653,0.203 c -0.082,0.211 -0.218,0.504 -0.23,0.632 l -0.156,1.196 c 0.019,0.133 0.129,0.433 0.164,0.547 0.367,1.246 0.402,0.586 1.136,1.242 z m -3.589,-6.098 c 11.492,-0.906 9.949,10.082 -0.082,8.02 1.601,-2.801 1.121,-4.684 0.082,-8.02" /><path
         id="path124"
         style="fill:#fafafd;fill-opacity:1;fill-rule:evenodd;stroke:none"
         d="m 296.813,615.375 c 0.21,0.199 0.531,0.762 0.64,0.59 0.375,-0.586 4.461,6.691 4.77,12.976 -5.024,-2.781 -7.207,-5.636 -5.41,-13.566" /><path
         id="path126"
         style="fill:#051229;fill-opacity:1;fill-rule:evenodd;stroke:none"
         d="m 330.793,342.777 c 3.25,-0.711 3.953,-1.136 5.316,-3.386 -3.937,-0.512 -4.449,-0.246 -5.316,3.386 z m -0.32,-5.023 c 3.968,-0.949 6.246,-1.625 8.238,1.961 -2.293,3.535 -12,10.422 -8.238,-1.961" /><path
         id="path128"
         style="fill:#f0f0f2;fill-opacity:1;fill-rule:evenodd;stroke:none"
         d="m 520.652,446.605 c -1.004,3.875 -1.218,4.129 -5.14,4.829 2.23,-2.153 0.992,-0.243 2.508,-2.856 l -6.68,0.977 2.633,-2.672 c 1.304,-1.004 1.41,-1.063 2.363,-1.981 l -2.332,-0.422 1.523,-2.648 c 4.016,2.703 1.02,3.5 5.125,4.773" /><path
         id="path130"
         style="fill:#0f1f33;fill-opacity:1;fill-rule:evenodd;stroke:none"
         d="m 378.988,292.836 c 2.098,-1.063 2.289,-1.625 5.606,-1.711 l 2.336,4.793 c -1.489,0.848 -0.512,0.215 -1.973,1.18 -0.16,0.101 -0.715,0.582 -0.926,0.781 -2.633,-1.035 -5.039,-1.711 -5.043,-5.043" /><path
         id="path132"
         style="fill:#0a1a2e;fill-opacity:1;fill-rule:evenodd;stroke:none"
         d="m 429.012,425.883 c 0.504,-3.664 1.273,-8.473 3.715,-11.137 1.98,4.84 3.789,9.152 -3.715,11.137" /><path
         id="path134"
         style="fill:#0a172e;fill-opacity:1;fill-rule:evenodd;stroke:none"
         d="m 303.074,277.934 c 0.324,0.117 -0.894,2.414 1.528,0.117 1.816,-1.719 0.425,-0.375 0.839,-1.887 -4.035,0.984 -2.078,1.199 -2.367,1.77 z m -2.129,-3.391 c 1.481,-0.406 3.2,-0.789 5.641,0.285 1.695,2.641 1.441,2.824 0.144,5.18 l -2.636,1.094 -3.446,-2.215 0.297,-4.344" /><path
         id="path136"
         style="fill:#fafafa;fill-opacity:1;fill-rule:evenodd;stroke:none"
         d="m 415.695,423.223 c 2.664,1.328 1.606,1.691 4.078,3.687 3.911,3.149 2.797,-0.426 2.989,5.774 -3.973,-1.371 -8.817,-4.496 -7.067,-9.461" /><path
         id="path138"
         style="fill:#6b7382;fill-opacity:1;fill-rule:evenodd;stroke:none"
         d="m 447.621,442.813 0.016,-1.965 c 3.554,1.75 1.801,1.187 4.191,3.511 2.781,2.7 2.211,-1.046 2.598,4.762 -2.219,0.797 -1.738,1.254 -1.66,-1.055 -1.168,2.696 -0.164,2.825 -2.645,-0.386 -1.027,-1.325 -2.039,-2.801 -2.5,-4.867" /><path
         id="path140"
         style="fill:#0a1729;fill-opacity:1;fill-rule:evenodd;stroke:none"
         d="m 324.848,334.586 c -3.438,-1.883 -2.481,-0.617 -3.754,1.934 3.699,-0.774 2.004,0.484 3.754,-1.934 z m -0.055,3.621 0.207,-0.422 -5.414,0.18 c -3.125,-6.988 3.441,-6.84 7.391,-3.449 l -2.184,3.691" /><path
         id="path142"
         style="fill:#0f1c30;fill-opacity:1;fill-rule:evenodd;stroke:none"
         d="m 347.445,334.035 -0.144,4.344 -4.965,-0.395 c -0.918,-1.718 -0.664,0.27 -0.75,-2.136 -0.043,-1.266 0.273,-1.996 0.582,-3.055 2.582,-0.176 3.555,0.23 5.277,1.242" /><path
         id="path144"
         style="fill:#f8f8f8;fill-opacity:1;fill-rule:evenodd;stroke:none"
         d="m 462.102,468.215 -3,-8.567 c 6.195,8.985 6.496,-0.242 8.183,7.2 l -5.183,1.367" /><path
         id="path146"
         style="fill:#f0f0f2;fill-opacity:1;fill-rule:evenodd;stroke:none"
         d="m 381.125,343.848 c 2.629,1.382 0.477,-0.192 2.09,1.328 l 3.223,4.683 c 1.464,2.286 2.417,4.649 2.902,7.891 l -2.738,-3.031 c -0.395,-0.778 -1.055,-2.571 -1.539,-3.594 -1.352,-2.891 -2.563,-4.43 -3.938,-7.277" /><path
         id="path148"
         style="fill:#f8f8f8;fill-opacity:1;fill-rule:evenodd;stroke:none"
         d="m 359.391,302.926 c -3.782,-1.375 -3.364,-3.875 -1.633,-6.582 l 3.941,1.039 -2.308,5.543" /><path
         id="path150"
         style="fill:#0f1c30;fill-opacity:1;fill-rule:evenodd;stroke:none"
         d="m 296.563,393.277 c 2.066,3.305 4.148,6.172 3.238,10.938 -2.957,-1.805 -4.078,-7.535 -3.238,-10.938" /><path
         id="path152"
         style="fill:#f2f5f5;fill-opacity:1;fill-rule:evenodd;stroke:none"
         d="m 424.895,431.098 4.683,2.75 c 0.11,0.058 0.36,0.179 0.527,0.285 l -1.023,5.07 c -2.277,-1.699 -3.945,-4.418 -4.187,-8.105" /><path
         id="path154"
         style="fill:#e8e8eb;fill-opacity:1;fill-rule:evenodd;stroke:none"
         d="m 385.707,346.145 c 6.188,1.441 7.324,5.148 9.863,10.32 l -3.343,-2.785 c -0.75,-1.016 -0.942,-1.598 -1.719,-2.59 l -4.801,-4.945" /><path
         id="path156"
         style="fill:#0d1a2e;fill-opacity:1;fill-rule:evenodd;stroke:none"
         d="m 438.91,418.406 c 1.68,-2.949 4.344,-7.605 6.813,-9.281 -0.758,5.23 -2.762,8.574 -6.813,9.281" /><path
         id="path158"
         style="fill:#0a1a2e;fill-opacity:1;fill-rule:evenodd;stroke:none"
         d="m 295.043,284.457 c 1.23,-0.996 0.801,-0.32 0.723,-1.766 l 4.019,0.301 c 1.473,2.418 2.043,2.852 -0.289,4.785 -1.769,-1.039 -2.988,-2.054 -4.453,-3.32" /><path
         id="path160"
         style="fill:#0f1c30;fill-opacity:1;fill-rule:evenodd;stroke:none"
         d="m 344.148,612.664 -1.121,-3 c 5.485,2.027 3.911,1.106 9.786,0.789 -2.75,2.945 -5.11,3.434 -8.665,2.211" /><path
         id="path162"
         style="fill:#f5f5f5;fill-opacity:1;fill-rule:evenodd;stroke:none"
         d="m 311.84,466.453 c -0.91,2.559 -1.254,3.09 -3.988,4.246 -4.864,2.047 -4.485,0.321 -5.141,-0.191 l 9.129,-4.055" /><path
         id="path164"
         style="fill:#dbdee1;fill-opacity:1;fill-rule:evenodd;stroke:none"
         d="m 378.859,344.988 c 2.914,2.965 5.996,8.559 7.676,13.262 -3.32,-2.812 -6.113,-8.371 -7.676,-13.262" /><path
         id="path166"
         style="fill:#f5f5f5;fill-opacity:1;fill-rule:evenodd;stroke:none"
         d="m 520.652,446.605 0.051,-4.847 c 2.766,-0.324 5.86,0.332 4.59,2.863 -1.57,3.133 -0.707,-1.601 -4.641,1.984" /><path
         id="path168"
         style="fill:#0d172e;fill-opacity:1;fill-rule:evenodd;stroke:none"
         d="m 343.438,607.176 c 0.082,-0.184 -1.872,0.379 0.656,-1.02 2.156,-1.195 5.449,-0.843 7.676,0.137 -0.372,0.316 -0.223,0.562 -1.485,1.105 -3.582,1.536 -5.285,0.68 -6.847,-0.222" /><path
         id="path170"
         style="fill:#dbdee1;fill-opacity:1;fill-rule:evenodd;stroke:none"
         d="m 274.445,599.18 -3.875,3.437 c -2.894,2.606 -0.507,2.422 -4.25,3.215 1.871,-5.043 2.168,-5.617 8.125,-6.652" /><path
         id="path172"
         style="fill:#fafafa;fill-opacity:1;fill-rule:evenodd;stroke:none"
         d="m 332.141,590.145 c 0.007,-0.004 0.011,-1.965 3.918,-2.286 2,-0.168 3.129,0.473 4.293,0.996 -1.477,1.313 2.55,2.137 -8.211,1.29" /><path
         id="path174"
         style="fill:#ebebed;fill-opacity:1;fill-rule:evenodd;stroke:none"
         d="m 350.973,583.867 c 3.632,3.672 5.097,6.582 4.98,13.457 l -1.5,-3.789 c -0.34,-1.39 -0.168,-1.472 -0.867,-3.285 -0.918,-2.379 -2.242,-3.559 -2.613,-6.383" /><path
         id="path176"
         style="fill:#0a1a2e;fill-opacity:1;fill-rule:evenodd;stroke:none"
         d="m 278.352,291.773 c 1.816,-0.984 2.796,-1.355 5.332,-1.25 -6.352,7.36 -0.059,3.149 -4.891,6.161 l -0.441,-4.911" /><path
         id="path178"
         style="fill:#f2f2f5;fill-opacity:1;fill-rule:evenodd;stroke:none"
         d="m 433.418,442.109 0.852,-0.398 c 2.8,-1.102 2.656,-2.816 4.914,4.797 -3.239,-0.906 -3.868,-2.602 -5.766,-4.399" /><path
         id="path180"
         style="fill:#f0f0f2;fill-opacity:1;fill-rule:evenodd;stroke:none"
         d="m 510.91,476.172 c -3.293,-1.145 -4.379,-0.824 -8.094,-0.016 0.895,-1.476 0.586,-2.535 3.883,-2.785 3.36,-0.254 3.403,0.629 4.211,2.801" /><path
         id="path182"
         style="fill:#6e7582;fill-opacity:1;fill-rule:evenodd;stroke:none"
         d="m 372.656,333.734 c 4.903,0.954 2.094,0.621 2.555,1.934 l 1.473,3.023 c 0.093,0.59 0.339,0.676 0.519,1.008 l -5.863,-3.636 1.316,-2.329" /><path
         id="path184"
         style="fill:#0d1a2e;fill-opacity:1;fill-rule:evenodd;stroke:none"
         d="m 308.637,279.715 3.816,0.734 0.758,2.914 c -3.289,0.645 -4.773,0.762 -4.574,-3.648" /><path
         id="path186"
         style="fill:#fafafa;fill-opacity:1;fill-rule:evenodd;stroke:none"
         d="m 201.27,326.621 c 3.39,2.137 3.054,2.125 2.609,6.797 -2.75,-2.676 -3.637,-4.535 -2.609,-6.797" /><path
         id="path188"
         style="fill:#6e7582;fill-opacity:1;fill-rule:evenodd;stroke:none"
         d="m 507.758,485.688 -2.438,0.285 c -0.14,-0.207 -0.347,-0.477 -0.429,-0.618 l -1.157,-2.375 c 3.379,-0.812 1.895,-0.542 5.692,0.122 l -1.164,1.586 c -0.125,0.523 -0.262,0.718 -0.504,1" /><path
         id="path190"
         style="fill:#fafafd;fill-opacity:1;fill-rule:evenodd;stroke:none"
         d="m 316.324,287.836 c 2.121,-1.359 1.305,-0.906 4.442,-0.918 -0.723,5.414 -3.176,5.086 -4.442,0.918" /><path
         id="path192"
         style="fill:#0d1a2e;fill-opacity:1;fill-rule:evenodd;stroke:none"
         d="m 360.508,417.352 c 1.957,2.738 2.738,6.195 0.84,9.043 -1.395,-2.387 -1.008,-5.602 -0.84,-9.043" /><path
         id="path194"
         style="fill:#737d87;fill-opacity:1;fill-rule:evenodd;stroke:none"
         d="m 270.945,286.746 c 5.914,1.719 2.09,0.633 3.746,-0.312 -0.609,-0.368 -0.421,-0.477 -2.007,-0.77 -1.024,-0.191 -0.711,0.082 -1.571,0.285 3.485,-3.465 3.723,-0.519 5.313,1.61 -0.809,1.656 -0.352,1.211 -1.93,2.027 -0.199,-0.172 -0.492,-0.332 -0.648,-0.445 l -2.903,-2.395" /><path
         id="path196"
         style="fill:#fafafa;fill-opacity:1;fill-rule:evenodd;stroke:none"
         d="m 249.656,291.309 c 1.774,1.418 1.453,0.543 2.77,5.097 -1.731,-0.531 -2.637,-0.367 -3.449,-1.73 -1.817,-3.051 0.546,-3.164 0.679,-3.367" /><path
         id="path198"
         style="fill:#f8f8f8;fill-opacity:1;fill-rule:evenodd;stroke:none"
         d="m 290.434,280.762 c -0.098,4.359 0.66,3.73 -3.664,3.965 -0.016,-3.547 0.476,-3.348 3.664,-3.965" /><path
         id="path200"
         style="fill:#525c6b;fill-opacity:1;fill-rule:evenodd;stroke:none"
         d="m 470.082,472.188 c -1.316,2.73 -1.18,2.132 -4.629,3.281 0.77,-3.621 0.996,-4.864 4.629,-3.281" /><path
         id="path202"
         style="fill:#f5f5f5;fill-opacity:1;fill-rule:evenodd;stroke:none"
         d="m 336.109,339.391 c -1.363,2.25 -2.066,2.675 -5.316,3.386 0.867,-3.632 1.379,-3.898 5.316,-3.386" /><path
         id="path204"
         style="fill:#051429;fill-opacity:1;fill-rule:evenodd;stroke:none"
         d="m 335.879,595.273 c -0.391,1.11 -0.156,0.918 -0.746,2.168 -0.11,0.231 -0.524,1.059 -0.649,1.27 l -0.828,1.09 c -1.992,-1.426 -2.476,0.308 -1.406,-2.496 0.645,-1.684 2.277,-1.664 3.629,-2.032" /><path
         id="path206"
         style="fill:#ebebed;fill-opacity:1;fill-rule:evenodd;stroke:none"
         d="m 396.387,357.305 c 3.613,1.441 4.836,1.383 4.39,5.55 -0.726,-0.8 -1.297,-1.32 -2.191,-2.285 -2.656,-2.859 -0.758,-0.047 -2.199,-3.265" /><path
         id="path208"
         style="fill:#f8f8f8;fill-opacity:1;fill-rule:evenodd;stroke:none"
         d="m 378.902,314.098 2.653,-0.203 c 0.242,3.515 0.472,2.308 -1.739,3.82 -0.734,-0.656 -0.769,0.004 -1.136,-1.242 -0.035,-0.114 -0.145,-0.414 -0.164,-0.547 l 0.156,-1.196 c 0.012,-0.128 0.148,-0.421 0.23,-0.632" /><path
         id="path210"
         style="fill:#fafafd;fill-opacity:1;fill-rule:evenodd;stroke:none"
         d="m 326.273,282.051 c -0.363,0.207 1.141,1.797 -2.699,0.695 -2.008,-0.578 -0.531,-0.238 -1.265,-1.703 1.48,-0.891 -2.204,-1.789 2.429,-0.418 2.992,0.891 0.375,0.219 1.535,1.426" /><path
         id="path212"
         style="fill:#f8f8f8;fill-opacity:1;fill-rule:evenodd;stroke:none"
         d="m 205.207,297.066 c 0.965,-2.703 0.383,-1.871 3.356,-2.332 l -0.368,2.969 c -2.109,0.231 -1.543,1.129 -2.988,-0.637" /><path
         id="path214"
         style="fill:#e3e3e6;fill-opacity:1;fill-rule:evenodd;stroke:none"
         d="m 444.148,435.477 2.165,2.211 c 1.003,1.519 1.019,1.48 1.324,3.16 l -0.016,1.965 c -1.508,-3.5 -2.891,-2.969 -3.473,-7.336" /><path
         id="path216"
         style="fill:#c2c4c9;fill-opacity:1;fill-rule:evenodd;stroke:none"
         d="m 343.691,578.156 c 3.067,-0.707 2.821,-0.746 5.02,1.434 -8.75,0.879 -2.539,1.539 -5.02,-1.434" /><path
         id="path218"
         style="fill:#f5f5f5;fill-opacity:1;fill-rule:evenodd;stroke:none"
         d="m 341.23,282.559 c 0.297,-0.317 -0.652,-1.485 2.211,-1.098 2.684,0.363 0.485,-0.07 1.899,1.582 -2.367,0.996 -1.785,1.73 -4.11,-0.484" /><path
         id="path220"
         style="fill:#d6d9db;fill-opacity:1;fill-rule:evenodd;stroke:none"
         d="m 199.766,307.508 c 1.906,-2.504 0.82,-2.473 3.847,-0.844 -0.769,0.746 0.93,0.856 -2.011,1.383 -2.774,0.492 -1.688,-0.442 -1.836,-0.539" /><path
         id="path222"
         style="fill:#f2f2f2;fill-opacity:1;fill-rule:evenodd;stroke:none"
         d="m 369.578,309.73 c 0.32,-0.367 -0.894,-3.121 3.492,-0.753 -0.757,1.105 0.93,2.746 -3.492,0.753" /><path
         id="path224"
         style="fill:#636e7a;fill-opacity:1;fill-rule:evenodd;stroke:none"
         d="m 364.902,316.23 c 1.516,-2.042 1.137,3.02 1.461,-3.5 l -3.691,0.485 4.105,-1.305 0.2,4.375 -1.36,1.824 -1.543,-0.726 c 1.563,-0.524 2.219,0.781 0.828,-1.153" /><path
         id="path226"
         style="fill:#f0f0f2;fill-opacity:1;fill-rule:evenodd;stroke:none"
         d="m 324.848,334.586 c -1.75,2.418 -0.055,1.16 -3.754,1.934 1.273,-2.551 0.316,-3.817 3.754,-1.934" /><path
         id="path228"
         style="fill:#707884;fill-opacity:1;fill-rule:evenodd;stroke:none"
         d="m 469.277,522.93 c 2.61,2.019 -0.039,-1.543 2.457,2.629 l -1.101,0.527 c -0.067,0.027 -0.367,0.184 -0.426,0.211 -0.062,0.031 -0.297,0.148 -0.441,0.23 -1.524,-0.05 -0.703,-2.105 -0.489,-3.597" /><path
         id="path230"
         style="fill:#ebebed;fill-opacity:1;fill-rule:evenodd;stroke:none"
         d="m 360.531,324.613 c 2.379,1.5 0.934,-1.097 2.203,2.52 l -2.832,1.234 0.629,-3.754" /><path
         id="path232"
         style="fill:#121729;fill-opacity:1;fill-rule:evenodd;stroke:none"
         d="m 286.867,292.367 c -0.137,3.192 -1.554,3.512 -4.14,5.059 1.187,-2.633 2.503,-3.442 4.14,-5.059" /><path
         id="path234"
         style="fill:#dbdee1;fill-opacity:1;fill-rule:evenodd;stroke:none"
         d="m 320.035,616.758 c -2.14,-0.688 -0.949,0.289 -2.195,-1.555 -0.25,-0.367 -0.875,-2.293 -1.219,-3.156 2.34,1.484 2.305,1.656 3.414,4.711" /><path
         id="path236"
         style="fill:#576170;fill-opacity:1;fill-rule:evenodd;stroke:none"
         d="m 321.625,344.813 c 1.68,1.695 2.355,2.91 4.461,5.261 -2.879,-0.488 -1.449,0.352 -3.094,-1.914 -0.488,-0.668 -1.117,-2.41 -1.367,-3.347" /><path
         id="path238"
         style="fill:#7d8791;fill-opacity:1;fill-rule:evenodd;stroke:none"
         d="m 329.238,608.242 -6.113,1.192 c -0.18,0.039 -0.461,0.156 -0.68,0.242 l 0.305,3.801 c -0.32,-0.512 -0.773,-0.438 -0.949,-2.067 -0.266,-2.394 -0.024,-1.078 0.211,-2.621 l 7.226,-0.547" /><path
         id="path240"
         style="fill:#454f61;fill-opacity:1;fill-rule:evenodd;stroke:none"
         d="m 315.813,346.277 c 2.429,1.09 1.468,0.051 4.753,5.77 l -1.25,-1.012 c -0.765,-0.805 -0.593,-0.629 -1.316,-1.562 -0.879,-1.133 -1.336,-1.785 -2.187,-3.196" /><path
         id="path242"
         style="fill:#757d89;fill-opacity:1;fill-rule:evenodd;stroke:none"
         d="m 401.203,383.895 c 2.539,1.746 1.664,0.308 2.332,3.933 -2.703,-1.48 -1.941,-0.094 -2.332,-3.933" /><path
         id="path244"
         style="fill:#e3e3e6;fill-opacity:1;fill-rule:evenodd;stroke:none"
         d="m 315.824,324.512 c -0.851,3.808 -0.922,3.656 -3.304,1.23 l 3.304,-1.23" /><path
         id="path246"
         style="fill:#fafafa;fill-opacity:1;fill-rule:evenodd;stroke:none"
         d="m 271.113,285.949 c 0.86,-0.203 0.547,-0.476 1.571,-0.285 1.586,0.293 1.398,0.402 2.007,0.77 -1.656,0.945 2.168,2.031 -3.746,0.312 l 0.168,-0.797" /><path
         id="path248"
         style="fill:#6b7382;fill-opacity:1;fill-rule:evenodd;stroke:none"
         d="m 342.824,300.102 c 0.043,-1.274 -0.168,-0.622 1.199,-0.575 3.43,0.129 0.805,-0.113 1.989,0.496 l -2.262,2.454 -0.758,-0.289 c 1.192,-1.387 -1.566,-1.11 1.16,-1.016 0.047,-1.387 0.317,-0.871 -1.328,-1.07" /><path
         id="path250"
         style="fill:#dee1e3;fill-opacity:1;fill-rule:evenodd;stroke:none"
         d="m 304.602,278.051 c -2.422,2.297 -1.204,0 -1.528,-0.117 0.289,-0.571 -1.668,-0.786 2.367,-1.77 -0.414,1.512 0.977,0.168 -0.839,1.887" /><path
         id="path252"
         style="fill:#f0f0f2;fill-opacity:1;fill-rule:evenodd;stroke:none"
         d="m 369.285,297.746 c 1.567,-3.398 -1.414,-1.93 2.914,-2.73 -1.047,2.347 -0.097,1.672 -2.914,2.73" /><path
         id="path254"
         style="fill:#757d89;fill-opacity:1;fill-rule:evenodd;stroke:none"
         d="m 457.309,518.191 1.492,-0.168 c 1.855,1.61 0.324,-2.957 1.699,2.637 -0.402,-0.191 -1.234,-0.512 -1.641,-0.84 -1.175,-0.961 -0.742,-0.672 -1.55,-1.629" /><path
         id="path256"
         style="fill:#d6d9db;fill-opacity:1;fill-rule:evenodd;stroke:none"
         d="m 364.902,316.23 c 1.391,1.934 0.735,0.629 -0.828,1.153 -2.097,-2.141 -1.441,-0.879 -0.457,-3.031 l 1.285,1.878" /><path
         id="path258"
         style="fill:#e8ebed;fill-opacity:1;fill-rule:evenodd;stroke:none"
         d="m 223.496,350.539 c -1.617,1.617 -1.469,-0.082 -1.555,-0.109 0.668,-1.809 -1.648,-1.063 2.204,-1.7 -0.332,1.926 0.39,0.766 -0.649,1.809" /><path
         id="path260"
         style="fill:#828994;fill-opacity:1;fill-rule:evenodd;stroke:none"
         d="m 503.305,491.707 c -0.364,0.156 -0.43,0.59 -1.86,0.656 -2.812,0.129 1.328,0.305 -1.457,-0.062 l -1.39,-0.496 c 4.785,-0.41 2.215,1 3.836,-1.762 1.675,1.039 0.398,-0.324 0.871,1.664" /><path
         id="path262"
         style="fill:#949ba3;fill-opacity:1;fill-rule:evenodd;stroke:none"
         d="m 371.215,302.836 c 0.422,-0.52 0.828,-1.285 1.324,-1.813 l 1.711,2.098 0.051,0.953 c -1.328,-0.965 -1.004,-0.754 -3.086,-1.238" /><path
         id="path264"
         style="fill:#cfd1d6;fill-opacity:1;fill-rule:evenodd;stroke:none"
         d="m 238.012,294.809 c 3.961,0.961 1.812,-0.188 2.75,1.843 -2.625,0.746 -1.922,-0.031 -2.75,-1.843" /><path
         id="path266"
         style="fill:#828994;fill-opacity:1;fill-rule:evenodd;stroke:none"
         d="m 246.047,328.547 c -2.809,-1.438 -1.035,1.664 -2.508,-3.539 1.953,1.722 1.461,0.785 2.508,3.539" /><path
         id="path268"
         style="fill:#5c6673;fill-opacity:1;fill-rule:evenodd;stroke:none"
         d="m 373.086,326.223 -0.141,2.179 -3.121,-0.867 3.262,-1.312" /><path
         id="path270"
         style="fill:#8f96a1;fill-opacity:1;fill-rule:evenodd;stroke:none"
         d="m 335.793,313.836 c 0.285,-1.582 1.281,-1.633 1.555,0.062 0.148,0.903 -2.121,3.032 -1.555,-0.062" /><path
         id="path272"
         style="fill:#121729;fill-opacity:1;fill-rule:evenodd;stroke:none"
         d="m 410.531,373.031 c 3.172,0.719 1.364,-0.285 2.598,2.383 -1.84,-0.851 -2.352,-0.594 -2.598,-2.383" /><path
         id="path274"
         style="fill:#f5f5f5;fill-opacity:1;fill-rule:evenodd;stroke:none"
         d="m 304.34,306.621 -1.758,-1 2.039,-2.41 -0.281,3.41" /><path
         id="path276"
         style="fill:#b2b8bf;fill-opacity:1;fill-rule:evenodd;stroke:none"
         d="m 205.375,308.629 c -1.164,2.656 0.867,1.254 -2.551,1.676 1.297,-1.758 0.27,-0.957 2.551,-1.676" /><path
         id="path278"
         style="fill:#636e7a;fill-opacity:1;fill-rule:evenodd;stroke:none"
         d="m 312.031,636.129 c 2.571,1.184 0.789,-0.32 2.453,1.816 0.618,0.789 0.278,0.809 0.946,1.883 l -3.399,-3.699" /><path
         id="path280"
         style="fill:#848c96;fill-opacity:1;fill-rule:evenodd;stroke:none"
         d="m 221.66,296.883 c -0.183,-2.961 0.887,-0.707 1.117,0.027 0.805,2.524 -1.097,0.281 -1.117,-0.027" /><path
         id="path282"
         style="fill:#abb0b8;fill-opacity:1;fill-rule:evenodd;stroke:none"
         d="m 454.426,449.121 c 0.461,0.324 0.207,-0.469 1.144,1.02 0.332,0.531 0.739,1.707 0.977,2.359 -0.41,-0.383 -0.594,-0.27 -1.274,-1.34 -0.613,-0.969 -0.535,-1.094 -0.847,-2.039" /><path
         id="path284"
         style="fill:#57616e;fill-opacity:1;fill-rule:evenodd;stroke:none"
         d="m 389.16,295.535 c 0.031,-2.316 -0.293,-0.34 1.047,-0.258 1.656,0.102 -1.086,2.868 -1.047,0.258" /><path
         id="path286"
         style="fill:#999ea6;fill-opacity:1;fill-rule:evenodd;stroke:none"
         d="m 285.359,308.652 1.368,2.575 c -3.149,-1.254 -1.633,-0.012 -1.368,-2.575" /><path
         id="path288"
         style="fill:#b0b5ba;fill-opacity:1;fill-rule:evenodd;stroke:none"
         d="m 244.199,293.855 c 0.278,1.172 1.379,-2.21 1.43,2.993 l -1.43,-2.993" /><path
         id="path290"
         style="fill:#7d8791;fill-opacity:1;fill-rule:evenodd;stroke:none"
         d="m 510.254,490.398 -0.652,-1.386 2.382,-0.051 -1.73,1.437" /><path
         id="path292"
         style="fill:#9ba3ab;fill-opacity:1;fill-rule:evenodd;stroke:none"
         d="m 456.457,454.363 0.09,-1.863 2.058,2.84 c -0.191,-0.207 -0.64,-0.117 -0.734,-0.438 -0.644,-2.269 0.086,0.161 -1.414,-0.539" /><path
         id="path294"
         style="fill:#d1d4d6;fill-opacity:1;fill-rule:evenodd;stroke:none"
         d="m 444.148,435.477 c -1.511,-1.114 -0.816,2.359 -1.371,-1.692 2.207,0.637 0.668,-0.375 1.371,1.692" /><path
         id="path296"
         style="fill:#abb0b8;fill-opacity:1;fill-rule:evenodd;stroke:none"
         d="m 312.031,636.129 -2.566,-3.625 c 1.387,1.215 1.586,0.805 2.566,3.625" /><path
         id="path298"
         style="fill:#848c96;fill-opacity:1;fill-rule:evenodd;stroke:none"
         d="m 456.457,454.363 c 0.477,4.176 0.328,0.621 -1.082,2.114 l 1.082,-2.114" /><path
         id="path300"
         style="fill:#f2f2f5;fill-opacity:1;fill-rule:evenodd;stroke:none"
         d="m 311.906,341.113 c 1.219,0.645 15.938,22.539 15.871,26.071 l -13.175,-19.321 c -1.368,-2.355 -2.5,-4.211 -2.696,-6.75" /><path
         id="path302"
         style="fill:#4ac7f2;fill-opacity:1;fill-rule:evenodd;stroke:none"
         d="m 75.8242,264.504 c 0.9336,-1.02 6.1914,-4.125 7.6446,-5.203 1.207,-0.899 2.4687,-1.895 3.5546,-2.832 0.8672,-0.739 2.5586,-2.387 3.6368,-2.739 1.8398,0.051 4.0859,0.719 6.1523,1.036 22.8285,3.5 61.0315,5.156 82.4025,-5.805 1.484,-0.762 2.973,-1.738 4.539,-2.645 2.574,-1.488 4.734,-1.093 4.758,1.11 0.031,2.773 -6.235,7.668 -8.106,9.105 -10.062,7.735 -26.906,13.364 -40.215,15.223 -5.746,0.805 -10.378,1.101 -17.222,1.129 -5.649,0.019 -11.719,-0.692 -17.086,-1.27 -4.844,-0.519 -11.0978,-1.609 -15.6252,-2.715 l -14.4336,-4.394" /><path
         id="path304"
         style="fill:#4ac7f2;fill-opacity:1;fill-rule:evenodd;stroke:none"
         d="m 487.762,307.461 c 1.406,-0.289 2.179,-0.988 4.074,0.824 8.219,7.883 13.672,12.574 21.82,21.297 2.539,2.719 6.305,5.309 6.16,9.684 -0.07,2.089 -2.648,3.25 -5.3,5.07 -8.196,5.637 -8.387,6.203 -15.821,-10.039 -0.929,-2.039 -1.718,-3.336 -2.621,-5.27 l -7.183,-15.675 c -0.852,-1.997 -1.676,-3.86 -1.129,-5.891" /><path
         id="path306"
         style="fill:#4ac7f2;fill-opacity:1;fill-rule:evenodd;stroke:none"
         d="m 64.8242,244.961 c -2.5976,1.848 -14.0234,4.875 -17.2344,4.023 -1.2968,-2.046 -2.6835,-2.226 -4.0546,-3.957 -3.4493,-4.339 -7.2266,-8.097 -10.0547,-13.882 -4.375,-8.957 -4.0821,-16.356 -0.8047,-26.223 8.4726,-25.524 33.7109,-36.938 59.9805,-36.934 30.7617,0 52.6757,3.789 79.5037,17.41 6.32,3.204 16.348,10 21.309,14.59 l 3.984,3.989 c 0.914,0.808 1.262,0.89 2.199,1.789 8.578,8.257 16.051,16.711 20.282,28.379 2.855,7.886 5.023,17.539 2.093,27.316 -2.531,8.449 -6.519,13.578 -13.48,18.828 -4.238,3.195 -10.488,6.199 -15.672,8.262 -17.672,7.031 -37.695,12.246 -60.734,12.246 v 0.402 c 4.183,0 30.222,4.781 42.265,4.797 4.071,0.008 7.707,-0.101 11.199,-0.391 3.215,-0.265 12.508,0.055 16.965,-0.585 l 10.508,-1.454 c 1.594,-0.328 3.301,-1.046 4.813,-1.171 v -0.801 c -2.121,0 -8.977,-1.688 -11.661,-2.297 -1.761,-0.399 -2.265,-0.445 -3.097,-1.688 1.902,-2.839 15.297,-3.308 19.109,-3.625 3.156,-0.265 6.946,-1.371 9.457,0.184 2.981,1.848 2.582,4.371 3.004,8.562 2.711,26.989 -0.836,25.59 -18.008,25.59 -7.578,0 -15.16,0 -22.734,0 -7.832,0 -14.645,-0.734 -21.949,-0.785 -3.809,-0.027 -16.719,-1.594 -20.692,-2.043 -6.797,-0.765 -13.582,-2.16 -19.679,-3.457 -4.469,-0.949 -13.551,-3.574 -17.442,-5.289 -1.254,-0.555 -2.531,-1.051 -3.863,-1.723 -3.184,-1.601 -7.375,-2.668 -8.922,-8.226 -1.6015,-5.762 -0.191,-14.184 4.41,-16.762 4.957,-2.777 14.656,-0.988 21.242,-1.89 3.379,-0.461 7.153,-0.2 10.598,-0.567 23.949,-2.562 41.266,-4.812 62.848,-17.719 4.715,-2.812 8.886,-6.367 12.086,-10.648 4.433,-5.934 5.054,-10.184 2.613,-17.156 -0.875,-2.504 -2.398,-5.532 -3.699,-7.469 -5.25,-7.856 -9.672,-11.738 -17.387,-17.313 -20.363,-14.734 -58.227,-28.824 -83.906,-30.554 l -16.3713,-0.391 c -15.5782,-0.09 -54.8086,8.16 -56.9922,29.18 -0.3125,3.008 1.3398,7.32 2.3633,9.105 3.7617,6.586 11.0781,12.739 17.8125,16.489 2.6367,1.468 5.2343,2.304 7.7929,3.859" /><path
         id="path308"
         style="fill:#4ac7f2;fill-opacity:1;fill-rule:evenodd;stroke:none"
         d="m 359.875,254.133 c -1.027,-4.41 -6.523,-10.031 -8.562,-22.547 -2.317,-14.258 9.972,-25 16.609,-20.594 2.219,1.469 8.445,11.242 10.141,13.789 0.984,1.477 11.894,17.832 12.921,18.582 -0.093,-1.156 -0.339,-1.711 -0.578,-3.008 -0.242,-1.332 -0.152,-2.296 -0.34,-3.66 -0.261,-1.941 -0.156,-4.293 0.336,-6.672 1.582,-7.613 15.11,-23.437 25.516,-18.371 4.473,2.18 8.672,7.098 11.648,11.086 l 12.348,18.364 c 0.75,1.269 2.363,3.957 3.32,4.656 -0.289,-1.235 -0.879,-2.391 -1.355,-3.828 -4.383,-13.246 -0.176,-18.27 8.23,-26.785 3.399,-3.442 9.844,-7.215 15.137,-2.961 l 44.992,60.296 c 0.817,1.071 1.66,2.04 2.789,2.793 L 488.43,230.875 c -2.621,-4.832 -3.34,-9.555 -0.66,-14.367 1.257,-2.262 3.757,-5.602 6.511,-6.246 3.082,2.062 0.422,1.605 3.77,6.605 l 4.519,5.852 c 1.141,1.398 2.278,2.594 3.282,3.898 l 4.882,5.485 c 0.75,0.851 0.793,1.136 1.59,1.996 l 23.535,25.121 c 0.676,0.676 1.168,1.101 1.801,1.789 0.797,0.863 0.848,1.148 1.598,2 l 6.875,7.078 c -0.34,-1.445 -2.41,-4.488 -3.27,-5.906 l -10.027,-18.289 c -4.043,-8.047 -9.184,-20.918 -0.383,-27.371 15.789,-11.575 13.633,-12.5 30.371,10.152 l 8.035,11.105 c -0.386,-4.629 -1.043,-7.949 0.614,-12.152 1.371,-3.473 3.703,-5.48 6.078,-7.883 2.015,-2.039 4.289,-6.156 8.883,-4.32 4.296,1.715 9.742,10.656 12.586,14.941 0.996,1.492 1.668,2.617 2.718,4.059 2.582,3.547 13.067,18.824 14.989,20.113 L 596.66,222.352 c -1.422,-2.379 -2.558,-4.395 -3.992,-6.782 -5.25,-8.761 -10.352,-17.297 -16.445,-25.425 -2.254,-3.012 -7.422,-8.563 -10.313,-10.825 -6.937,-5.425 -14.344,-9.14 -23.597,-6.777 -1.415,0.359 -2.731,0.84 -3.75,1.43 -1.231,0.715 -1.989,1.617 -3.598,1.988 -0.43,-2.02 1.051,-2.879 2.488,-4.297 0.86,-0.848 1.09,-0.93 1.953,-1.629 3.75,-3.027 7.387,-5.777 12.379,-7.164 8.805,-2.453 19.934,2.195 25.043,5.133 3.524,2.023 5.867,3.992 8.699,6.855 1.317,1.332 2.168,2.707 3.403,4.172 6.156,7.274 10.281,15.746 14.633,24.449 7.714,15.422 13.125,24.274 23.761,38.461 l 13.809,17.301 c 0.57,0.68 0.933,1.559 1.117,2.496 v 3.114 c -0.043,0.234 -0.098,0.464 -0.16,0.687 -0.66,2.277 -11.727,10.918 -12.598,10.93 -1.855,0.031 -4.929,-4.75 -6.281,-6.082 -5.164,-5.102 -9.594,-10.84 -14.762,-15.949 -3.695,-3.649 -8.129,-9.047 -11.758,-12.973 l -11.964,-12.762 c -1.258,-1.422 -1.45,-2.18 -3.098,-3.285 0,13.191 7.445,23.715 14.926,33.73 4.851,6.489 11.16,12.54 18.015,17.082 3.032,2.012 5.434,3.469 8.801,5.161 1.602,0.804 2.996,1.375 4.695,2.089 2.063,0.875 2.969,1.364 5.813,1.364 1.359,-2.578 2.305,-5.563 5.582,-3.989 0,8.477 -4.93,14.918 -11.395,19.329 -1.949,1.332 -2.222,0.953 -4.39,0.05 -11.176,-4.656 -21.5,-11.39 -29.981,-19.879 -6.472,-6.476 -12.297,-12.679 -16.453,-21.039 -4.207,-8.457 -7.941,-11.089 -13.441,-17.664 -1.231,-1.468 -1.649,-2.007 -3.016,-3.367 l -6.176,-6.586 c -2.074,-2.074 -12.082,-12.234 -14.461,-9.871 -1.203,1.199 7.594,17.238 7.977,17.949 6.664,12.317 18.859,28.211 28.047,39.36 1,1.211 2.277,2.504 2.152,4.476 -0.183,2.864 -7.179,8.754 -9.152,10.711 -7.039,6.977 -7.219,0.16 -17.762,-10.371 L 525.293,256.23 c -1.156,-1.16 -1.914,-2.73 -3.887,-2.89 5.239,7.824 10.117,15.777 15.078,24.004 6.114,10.121 3.02,11.578 -5.668,17.312 -2.414,1.59 -3.777,2.953 -7.019,2.953 -2.324,-4.394 -8.711,-10.918 -12.195,-15.324 -1.473,-1.863 -2.692,-3.281 -4.102,-5.07 -2.762,-3.485 -5.414,-6.594 -8.203,-10.145 -1.449,-1.843 -2.629,-3.277 -4.09,-5.082 l -4.113,-5.062 c -0.742,-0.965 -1.305,-1.403 -2.051,-2.336 l -24.766,-25.887 c -0.976,-0.898 -1.422,-1.027 -2.402,-1.984 l -5.125,-4.449 c -1.281,-0.993 -1.301,-1.239 -3.547,-1.239 0,9.52 10.551,28.059 16.113,36.532 l 18.692,25.582 c 1.465,1.64 3.293,3.152 2.133,5.5 -1.059,2.136 -10.891,13.144 -14.508,10.093 -1.52,-1.285 -2.906,-3.574 -4.086,-5.113 -1.285,-1.68 -2.399,-3.219 -3.758,-5.02 l -7.246,-10.304 c -1.281,-1.922 -2.191,-3.43 -3.43,-5.34 -1.211,-1.883 -2.101,-3.516 -3.343,-5.43 -1.266,-1.953 -2.422,-3.16 -3.883,-4.898 l -16.348,-19.149 c -6.027,-7.203 -22.187,-23.648 -29.394,-23.648 -0.985,4.23 -2.313,2.762 -0.047,10.418 2.828,9.543 7.386,17.883 12.39,26.297 0.856,1.437 1.606,2.469 2.496,3.887 0.907,1.449 1.45,2.484 2.481,3.898 l 13.738,18.566 c 0.949,1.188 2.457,2.489 2.848,3.938 6.363,0 11.566,1.324 17.39,2.945 2.086,0.578 3.293,1.012 3.348,3.438 -2.07,1.386 -3.137,1.156 -6.394,1.179 -2.442,0.016 -4.2,0.414 -7.168,0.414 6.425,9.598 17.824,15.981 7.98,28.723 -0.734,0.953 -1.094,1.402 -2.16,2.223 -2.805,2.168 -7.348,5.801 -11.004,4.949 0.27,-3.242 0.262,-4.719 -1.32,-7.856 -2.637,-5.23 -12,-18.308 -15.989,-24.292 -0.73,-1.09 -1.226,-1.813 -1.91,-2.875 -2.136,-3.348 -3.644,-2.29 -7.226,-2.747 -7.864,-1.011 -5.938,-0.855 -13.039,-2.511 0.062,-2.86 3.125,-2.992 5.257,-3.516 2.782,-0.68 5.399,-0.687 7.903,-1.269 -0.34,-1.29 -11.832,-18.575 -13.539,-21.559 l -2.578,-4.602 c -0.586,-0.863 -1.059,-1.113 -1.711,-1.882 l -8.098,-9.45 c -4.246,-5.543 -19.977,-22.347 -24.727,-25.523 0.579,6.961 11.282,22.703 15.715,29.351 l 6.93,9.821 c 3.586,4.816 -5.309,9.629 -8.59,12.371 -4.758,3.973 -5.453,0.699 -10.16,-4.387 l -27.086,-29.551 c -2.781,-3.488 -9.859,-10.437 -12.137,-13.39 -0.992,-1.285 -1.718,-2.586 -3.359,-3.02 0,1.555 0.484,4.793 0.672,6.106 1.738,12.136 7.746,23.304 16.379,31.883 7.968,7.921 21.89,19.199 33.203,21.835 0.945,-0.82 1.648,-1.769 2.39,-2.793 1.25,-1.718 0.903,-2.339 3.192,-2.39 1.629,6.984 -7.586,18.633 -13.059,22.051 -2.308,1.441 -3.218,0.371 -5.058,-0.743 -3.129,-1.89 -6.11,-3.429 -9.008,-5.355 -2.848,-1.887 -5.738,-3.695 -8.539,-5.813 -2.797,-2.109 -5.504,-4.019 -7.91,-6.449 -10.969,-11.101 -21.075,-24.808 -23.836,-40.773 -1.157,-6.688 0.859,-4.731 -4.27,-10.09 -1.273,-1.332 -2.375,-2.188 -3.82,-3.363 -5.356,-4.348 -10.621,-2.664 -15.555,0.957 -0.816,0.593 -1.246,0.961 -1.972,1.613 -3.227,2.879 -6.493,5.301 -9.571,8.379 -2.32,2.324 -4.84,4.926 -6.679,7.68 4.015,-0.336 8.105,-0.879 12.191,0.171 11.453,2.95 19.945,10.125 28,18.262 1.273,1.293 1.812,2.258 3.18,3.598 1.238,1.207 2.011,2.324 3.191,3.594 l 3.066,3.711 c 2.071,2.652 3.731,4.804 5.461,7.714 1.973,3.317 -1.464,5.645 -3.933,8.121 -1.739,1.747 -5.051,5.055 -7.535,5.68 -3.336,0.84 -4.688,-4.488 -5.868,-6.847 -1.515,-3.036 -2.976,-5.614 -4.808,-8.352 -2.625,-3.922 -5.422,-7.91 -8.711,-11.234 -3.434,-3.477 -6.758,-6.672 -10.914,-9.426 -4.559,-3.02 -11.961,-8.024 -19.703,-6.219 0.336,1.262 4.937,7.047 6.054,8.699 0.789,1.16 1.348,1.793 2.164,3.02 0.754,1.133 1.125,1.871 1.829,2.961 l 21.543,34.297 c 6.691,11.019 2.492,18.855 -7.145,26.121 -8.957,6.75 -4.633,0.625 -7.043,-6.754 -1.668,-5.102 -2.965,-10.16 -5.434,-14.906 -3.324,-6.395 -21.949,-35.157 -27.207,-42.989 l -21.621,-33.812 c -0.734,-1.203 -1.347,-1.934 -2.07,-3.117 -1.816,-2.973 -2.242,-8.61 0.734,-11.715 1.106,-1.157 1.395,-1.547 2.414,-2.766 0.704,-0.836 1.696,-1.879 2.5,-2.691 1.063,-1.071 1.77,-1.418 3.766,-1.418 4.348,8.211 2.395,8.004 9.574,18.746 1.946,2.91 3.778,5.566 5.821,8.535 1.058,1.535 1.957,2.637 3.066,4.113 0.582,0.774 0.996,1.328 1.523,2.067 0.692,0.961 0.637,1.285 1.954,1.636 0.601,-2.57 8.296,-14.168 10.207,-16.914 1.011,-1.457 1.875,-2.511 2.894,-3.882 l 6.34,-7.223 c 5.516,-5.57 10.82,-8.387 18.594,-4.43 1.25,0.637 1.211,0.668 2.191,1.399 4.52,3.347 9.16,6.781 12.652,11.277 0.801,1.031 2.508,3.25 3.356,3.82 0.98,-4.203 10.926,-15.91 15.66,-16.695 4.594,-0.758 7.027,6.641 9.297,10.484 1.738,2.934 3.172,5.524 4.949,8.211 2.336,3.516 14.356,21.121 16.758,22.727" /><path
         id="path310"
         style="fill:#f4f4f4;fill-opacity:1;fill-rule:nonzero;stroke:none"
         d="m 335.031,675.438 -33.383,-17.547 6.372,37.183 -27.016,26.332 37.328,5.426 16.699,33.832 16.699,-33.832 37.344,-5.426 -27.019,-26.332 6.367,-37.183 -33.391,17.547" /><path
         id="path312"
         style="fill:#f4f4f4;fill-opacity:1;fill-rule:nonzero;stroke:none"
         d="m 218.031,664.773 -27.804,-14.605 5.308,30.945 -22.476,21.922 31.07,4.524 13.902,28.144 13.895,-28.144 31.078,-4.524 -22.484,-21.922 5.304,-30.945 -27.793,14.605" /><path
         id="path314"
         style="fill:#f4f4f4;fill-opacity:1;fill-rule:nonzero;stroke:none"
         d="m 91.1133,654.652 -21.3594,20.828 29.5234,4.286 13.2067,26.761 13.2,-26.761 29.527,-4.286 -21.363,-20.828 5.043,-29.394 -26.407,13.879 -26.4059,-13.879 5.0352,29.394" /><path
         id="path316"
         style="fill:#f4f4f4;fill-opacity:1;fill-rule:nonzero;stroke:none"
         d="m 448.598,664.773 -27.809,-14.605 5.305,30.945 -22.481,21.922 31.078,4.524 13.907,28.144 13.894,-28.144 31.074,-4.524 -22.492,-21.922 5.313,-30.945 -27.789,14.605" /><path
         id="path318"
         style="fill:#f4f4f4;fill-opacity:1;fill-rule:nonzero;stroke:none"
         d="m 554.137,639.137 -26.403,-13.879 5.043,29.394 -21.371,20.828 29.52,4.286 13.211,26.761 13.207,-26.761 29.523,-4.286 -21.375,-20.828 5.047,-29.394 -26.402,13.879" /><path
         id="path320"
         style="fill:#222443;fill-opacity:1;fill-rule:nonzero;stroke:none"
         d="m 335.031,747.031 12.692,-25.707 28.371,-4.133 -20.524,-20.003 4.84,-28.27 -25.379,13.348 -25.375,-13.348 4.84,28.27 -20.531,20.003 28.379,4.133 12.687,25.707" /><path
         id="path322"
         style="fill:#222443;fill-opacity:1;fill-rule:nonzero;stroke:none"
         d="m 218.031,722.082 9.891,-20.047 22.113,-3.215 -16,-15.601 3.774,-22.024 -19.778,10.387 -19.785,-10.387 3.77,22.024 -15.996,15.601 22.109,3.215 9.902,20.047" /><path
         id="path324"
         style="fill:#222443;fill-opacity:1;fill-rule:nonzero;stroke:none"
         d="m 112.484,692.891 9.196,-18.633 20.562,-2.988 -14.879,-14.512 3.52,-20.473 -18.399,9.668 -18.3981,-9.668 3.5235,20.473 -14.8906,14.512 20.5662,2.988 9.199,18.633" /><path
         id="path326"
         style="fill:#222443;fill-opacity:1;fill-rule:nonzero;stroke:none"
         d="m 448.598,722.082 -9.903,-20.047 -22.121,-3.215 15.996,-15.601 -3.765,-22.024 19.793,10.387 19.777,-10.387 -3.781,22.024 16.004,15.601 -22.114,3.215 -9.886,20.047" /><path
         id="path328"
         style="fill:#222443;fill-opacity:1;fill-rule:nonzero;stroke:none"
         d="m 554.137,692.891 -9.192,-18.633 -20.578,-2.988 14.895,-14.512 -3.52,-20.473 18.395,9.668 18.39,-9.668 -3.519,20.473 14.89,14.512 -20.574,2.988 -9.187,18.633" /><path
         id="path330"
         style="fill:#966e76;fill-opacity:1;fill-rule:nonzero;stroke:none"
         d="m 527.734,625.258 0.329,1.902 c 1.125,-0.211 1.714,-0.328 1.714,-0.328 0,0 0.055,-0.144 0.141,-0.422 l -2.184,-1.152" /></g></g></svg>