<?xml version="1.0" encoding="UTF-8" standalone="no"?>
<svg
   xmlns:dc="http://purl.org/dc/elements/1.1/"
   xmlns:cc="http://creativecommons.org/ns#"
   xmlns:rdf="http://www.w3.org/1999/02/22-rdf-syntax-ns#"
   xmlns:svg="http://www.w3.org/2000/svg"
   xmlns="http://www.w3.org/2000/svg"
   viewBox="0 0 112 104"
   height="104"
   width="112"
   xml:space="preserve"
   id="svg2"
   version="1.1"><metadata
     id="metadata8"><rdf:RDF><cc:Work
         rdf:about=""><dc:format>image/svg+xml</dc:format><dc:type
           rdf:resource="http://purl.org/dc/dcmitype/StillImage" /></cc:Work></rdf:RDF></metadata><defs
     id="defs6" /><g
     transform="matrix(1.3333333,0,0,-1.3333333,0,104)"
     id="g10"><g
       transform="scale(0.1)"
       id="g12"><path
         id="path14"
         style="fill:#ffffff;fill-opacity:1;fill-rule:nonzero;stroke:none"
         d="m 827.176,447.379 v 54.328 c 0,13.215 -6.403,25.633 -17.129,33.215 -8.512,6.016 -31.524,20 -61.297,20 h -0.887 l -29.086,-2.91 c -9.496,32.933 -38.816,56.699 -73.136,56.699 h -82.973 c 0.652,21.176 -2.801,42.426 -10.227,62.402 -23.875,64.242 -86.019,107.403 -154.636,107.403 -19.551,0 -38.817,-3.477 -57.262,-10.332 C 273.867,743.406 231.141,678.379 233.215,608.711 h -55.586 c -20.707,0 -40.09,-8.516 -54.582,-23.973 -15.207,-16.222 -23.09,-38.508 -21.629,-61.133 0.715,-11.05 1.578,-22.101 2.578,-33.023 L 9.96094,481.184 V 342.125 l 27.99996,2.949 v -98.965 l 116.9731,11.797 c 0.937,-2.418 1.886,-4.824 2.851,-7.222 l -43.859,-33.852 38.105,-110.809 h 93.274 C 324.398,18.1836 405.941,7.19531 409.453,6.75781 l 2.184,-0.27734 2.183,0.27734 c 3.508,0.4375 85.047,11.42579 164.141,99.26519 h 93.273 l 38.114,110.805 -43.86,33.86 c 7.739,19.285 14.77,39.628 20.996,60.746 31.922,3.195 42.387,4.226 44.903,4.464 21.82,0.122 41.289,5.305 57.867,15.411 13.891,8.464 23.348,18.918 30.031,27.082 7.278,8.882 15.926,24.285 15.805,47.195 v 0.344 c 0.48,15.625 -2.176,29.496 -7.914,41.449" /><path
         id="path16"
         style="fill:#9cd63e;fill-opacity:1;fill-rule:nonzero;stroke:none"
         d="m 134.906,210.543 44.532,34.379 h 464.398 l 44.527,-34.379 H 134.906" /><path
         id="path18"
         style="fill:#293d63;fill-opacity:1;fill-rule:nonzero;stroke:none"
         d="M 119.18,524.754 C 149.422,56.8164 411.633,24.4219 411.633,24.4219 c 0,0 262.219,32.3945 292.457,500.3321 2.316,35.809 -24.598,66.156 -58.449,66.156 H 177.633 c -33.852,0 -60.766,-30.347 -58.453,-66.156" /><path
         id="path20"
         style="fill:#ffffff;fill-opacity:1;fill-rule:nonzero;stroke:none"
         d="m 411.633,56.0352 c -5.867,1.2695 -17.746,4.3515 -33.172,11.0429 -20.43,8.8477 -51.508,26.0703 -83.559,57.7739 -36.422,36.031 -66.714,83.082 -90.035,139.847 -29.691,72.278 -48.078,160.446 -54.644,262.059 -0.59,9.191 2.511,18.129 8.504,24.527 5.144,5.488 11.859,8.512 18.902,8.512 h 468.012 c 7.043,0 13.757,-3.024 18.902,-8.512 5.996,-6.398 9.094,-15.336 8.504,-24.527 C 666.477,425.145 648.094,336.977 618.402,264.699 595.082,207.934 564.789,160.883 528.367,124.852 496.316,93.1484 465.238,75.9258 444.809,67.0781 429.383,60.3867 417.504,57.3047 411.633,56.0352" /><path
         id="path22"
         style="fill:#293d63;fill-opacity:1;fill-rule:nonzero;stroke:none"
         d="m 411.633,74.2891 c -5.793,1.4804 -14.852,4.2148 -26.102,9.0898 -19.027,8.2539 -48.031,24.3511 -78.129,54.1171 -34.714,34.34 -63.679,79.414 -86.089,133.961 -28.958,70.484 -46.907,156.766 -53.348,256.449 -0.281,4.305 1.082,8.395 3.73,11.223 1.239,1.32 3.27,2.891 5.934,2.891 h 468.012 c 2.66,0 4.695,-1.571 5.933,-2.891 2.649,-2.828 4.012,-6.918 3.731,-11.223 C 648.863,428.223 630.914,341.941 601.957,271.457 579.547,216.91 550.586,171.836 515.867,137.496 485.773,107.73 456.77,91.6328 437.734,83.3789 426.488,78.5039 417.426,75.7695 411.633,74.2891" /><path
         id="path24"
         style="fill:#ffffff;fill-opacity:1;fill-rule:nonzero;stroke:none"
         d="m 263.949,224.34 h 50.934 v 116.336 h -77.227 v -62.219 l 0.098,-0.242 c 7.906,-19.242 16.664,-37.195 26.195,-53.875" /><path
         id="path26"
         style="fill:#ffffff;fill-opacity:1;fill-rule:nonzero;stroke:none"
         d="m 559.328,224.34 c 9.527,16.68 18.281,34.633 26.184,53.875 0.535,1.289 1.035,2.621 1.558,3.922 v 58.539 H 509.84 V 224.34 h 49.488" /><path
         id="path28"
         style="fill:#ffffff;fill-opacity:1;fill-rule:nonzero;stroke:none"
         d="m 373.02,224.34 h 77.2266 V 524.242 H 373.02 Z" /><path
         id="path30"
         style="fill:#9cd63e;fill-opacity:1;fill-rule:nonzero;stroke:none"
         d="M 688.363,210.543 H 134.906 l 29.828,-86.719 h 493.801 l 29.828,86.719" /><path
         id="path32"
         style="fill:#ffffff;fill-opacity:1;fill-rule:nonzero;stroke:none"
         d="m 226.633,159.578 v -6.988 c 0,-8.41 -4.211,-13.211 -12.32,-13.211 -8.11,0 -12.317,4.801 -12.317,13.211 v 27.34 c 0,8.414 4.207,13.222 12.317,13.222 8.109,0 12.32,-4.808 12.32,-13.222 v -5.106 h -7.813 v 5.633 c 0,3.754 -1.652,5.184 -4.281,5.184 -2.633,0 -4.285,-1.43 -4.285,-5.184 V 152.07 c 0,-3.761 1.652,-5.109 4.285,-5.109 2.629,0 4.281,1.348 4.281,5.109 v 7.508 h 7.813" /><path
         id="path34"
         style="fill:#ffffff;fill-opacity:1;fill-rule:nonzero;stroke:none"
         d="m 247.438,139.973 h -8.262 v 52.578 h 8.262 V 170.02 h 9.39 v 22.531 h 8.41 v -52.578 h -8.41 v 22.535 h -9.39 v -22.535" /><path
         id="path36"
         style="fill:#ffffff;fill-opacity:1;fill-rule:nonzero;stroke:none"
         d="m 286.645,156.648 h 7.964 l -3.98,26.586 z M 305.5,139.973 h -8.34 l -1.426,9.543 h -10.14 l -1.43,-9.543 h -7.582 l 8.41,52.578 h 12.094 l 8.414,-52.578" /><path
         id="path38"
         style="fill:#ffffff;fill-opacity:1;fill-rule:nonzero;stroke:none"
         d="m 334.344,155.219 5.629,37.332 h 11.492 v -52.578 h -7.809 v 37.707 l -5.707,-37.707 h -7.812 l -6.16,37.179 v -37.179 h -7.207 v 52.578 h 11.492 l 6.082,-37.332" /><path
         id="path40"
         style="fill:#ffffff;fill-opacity:1;fill-rule:nonzero;stroke:none"
         d="m 373.254,185.039 v -17.801 h 3.906 c 2.629,0 4.055,1.2 4.055,4.957 v 7.883 c 0,3.758 -1.426,4.961 -4.055,4.961 z m 16.223,-5.484 v -6.832 c 0,-8.41 -4.055,-12.996 -12.317,-12.996 h -3.906 v -19.754 h -8.262 v 52.578 h 12.168 c 8.262,0 12.317,-4.582 12.317,-12.996" /><path
         id="path42"
         style="fill:#ffffff;fill-opacity:1;fill-rule:nonzero;stroke:none"
         d="m 401.195,139.973 h 8.26172 v 52.5781 H 401.195 Z" /><path
         id="path44"
         style="fill:#ffffff;fill-opacity:1;fill-rule:nonzero;stroke:none"
         d="m 430.566,152.07 c 0,-3.761 1.649,-5.187 4.278,-5.187 2.629,0 4.281,1.426 4.281,5.187 v 28.387 c 0,3.754 -1.652,5.184 -4.281,5.184 -2.629,0 -4.278,-1.43 -4.278,-5.184 z m -8.261,27.86 c 0,8.414 4.429,13.222 12.539,13.222 8.113,0 12.543,-4.808 12.543,-13.222 v -27.34 c 0,-8.41 -4.43,-13.211 -12.543,-13.211 -8.11,0 -12.539,4.801 -12.539,13.211 v 27.34" /><path
         id="path46"
         style="fill:#ffffff;fill-opacity:1;fill-rule:nonzero;stroke:none"
         d="m 467.598,178.055 v -38.082 h -7.438 v 52.578 h 10.363 l 8.489,-31.473 v 31.473 h 7.359 v -52.578 h -8.484 l -10.289,38.082" /><path
         id="path48"
         style="fill:#ffffff;fill-opacity:1;fill-rule:nonzero;stroke:none"
         d="m 510.938,193.152 c 8.031,0 12.167,-4.808 12.167,-13.222 v -1.649 h -7.812 v 2.176 c 0,3.754 -1.504,5.184 -4.129,5.184 -2.633,0 -4.133,-1.43 -4.133,-5.184 0,-10.816 16.145,-12.844 16.145,-27.867 0,-8.41 -4.207,-13.211 -12.317,-13.211 -8.113,0 -12.32,4.801 -12.32,13.211 v 3.23 h 7.813 v -3.75 c 0,-3.761 1.656,-5.109 4.285,-5.109 2.625,0 4.281,1.348 4.281,5.109 0,10.813 -16.148,12.84 -16.148,27.86 0,8.414 4.128,13.222 12.168,13.222" /><path
         id="path50"
         style="fill:#ffffff;fill-opacity:1;fill-rule:nonzero;stroke:none"
         d="m 543.688,139.973 h -8.266 v 52.578 h 8.266 V 170.02 h 9.386 v 22.531 h 8.41 v -52.578 h -8.41 v 22.535 h -9.386 v -22.535" /><path
         id="path52"
         style="fill:#ffffff;fill-opacity:1;fill-rule:nonzero;stroke:none"
         d="m 575.008,139.973 h 8.26172 v 52.5781 H 575.008 Z" /><path
         id="path54"
         style="fill:#ffffff;fill-opacity:1;fill-rule:nonzero;stroke:none"
         d="m 605.051,185.039 v -17.801 h 3.91 c 2.625,0 4.051,1.2 4.051,4.957 v 7.883 c 0,3.758 -1.426,4.961 -4.051,4.961 z m 16.222,-5.484 v -6.832 c 0,-8.41 -4.054,-12.996 -12.312,-12.996 h -3.91 v -19.754 h -8.262 v 52.578 h 12.172 c 8.258,0 12.312,-4.582 12.312,-12.996" /><path
         id="path56"
         style="fill:#7fbd29;fill-opacity:1;fill-rule:nonzero;stroke:none"
         d="m 446.898,482.012 c -72.613,-26.989 -153.644,10.136 -180.632,82.746 -26.985,72.617 10.132,153.644 82.75,180.633 72.609,26.988 153.64,-10.133 180.632,-82.746 26.985,-72.614 -10.136,-153.649 -82.75,-180.633" /><path
         id="path58"
         style="fill:#9cd63e;fill-opacity:1;fill-rule:nonzero;stroke:none"
         d="m 266.266,564.758 c 6.422,-17.278 15.933,-32.52 27.632,-45.395 19.559,-1.769 39.786,0.68 59.387,7.961 70.262,26.114 106.18,104.524 80.067,174.785 -7.625,20.524 -19.739,38.09 -34.786,52.059 -16.472,0.09 -33.222,-2.707 -49.55,-8.777 -72.618,-26.989 -109.735,-108.016 -82.75,-180.633" /><path
         id="path60"
         style="fill:#ffffff;fill-opacity:1;fill-rule:nonzero;stroke:none"
         d="m 445.613,745.762 c 27.985,-15.727 50.774,-41.02 62.809,-73.395 26.984,-72.613 -10.137,-153.644 -82.75,-180.633 -32.375,-12.035 -66.41,-11.293 -96.598,-0.371 34.778,-19.55 77.586,-24.308 117.824,-9.351 72.614,26.984 109.735,108.019 82.75,180.633 -14.957,40.238 -46.519,69.543 -84.035,83.117" /><path
         id="path62"
         style="fill:#ffffff;fill-opacity:1;fill-rule:nonzero;stroke:none"
         d="m 368.555,534.129 c -25.758,7.937 -34.559,26.875 -40.16,37.91 -7.641,15.059 -20.09,54.363 -23.52,71.918 -3.434,17.559 -29.051,22.648 -29.051,22.648 l -6.586,3.129 c -2.75,-6.316 -5.039,-12.828 -6.843,-19.492 1.074,-1.047 2.941,-1.453 5.957,-0.84 15.671,3.203 21.164,-17.617 29.753,-35.523 8.594,-17.906 37.208,-73.469 44.106,-83.551 1.258,-1.836 3.559,-3.324 6.578,-4.531 13.547,-5.41 41.75,-5.051 57.082,-4.192 18.75,1.051 19.852,11.579 19.852,11.579 -25.66,-6.993 -43.297,-3.329 -57.168,0.945" /><path
         id="path64"
         style="fill:#293d63;fill-opacity:1;fill-rule:nonzero;stroke:none"
         d="m 432.629,521.711 c -18.586,-6.906 -38.844,-9.32 -59.133,-6.629 l -0.527,0.07 c -9.082,1.235 -17.703,4.055 -25.61,8.383 -39.082,21.383 -51.984,73.758 -58.91,101.895 -1.097,4.453 -2.929,11.91 -3.668,13.476 -1.297,2.657 -4.008,8.196 -15.871,8.317 l 0.133,13.035 c 13.215,-0.133 22.445,-5.395 27.453,-15.637 1.258,-2.566 2.57,-7.781 4.613,-16.074 6.45,-26.188 18.461,-74.942 52.508,-93.574 6.5,-3.559 13.61,-5.879 21.125,-6.903 l 0.301,-0.043 c 36.328,-4.816 72.398,8.52 96.656,35.664 l 0.336,0.379 c 5.047,5.692 8.906,12.071 11.5,18.996 13.574,36.25 -9.285,80.977 -21.558,105.012 -3.895,7.61 -6.313,12.414 -7.047,15.176 -2.926,11.023 0.625,21.035 10.562,29.742 l 8.594,-9.801 c -8.887,-7.797 -7.313,-13.742 -6.555,-16.597 0.469,-1.664 3.965,-8.5 6.051,-12.586 13.195,-25.824 37.75,-73.883 22.16,-115.516 -3.152,-8.433 -7.84,-16.183 -13.922,-23.039 l -0.406,-0.465 C 467.891,539.867 451.086,528.57 432.629,521.711" /><path
         id="path66"
         style="fill:#293d63;fill-opacity:1;fill-rule:nonzero;stroke:none"
         d="m 351.285,739.277 c -69.246,-25.734 -104.64,-103.004 -78.91,-172.246 25.738,-69.246 103.008,-104.644 172.254,-78.91 69.242,25.734 104.641,103.004 78.91,172.25 -25.738,69.246 -103.008,104.645 -172.254,78.906 z m 97.883,-263.379 c -75.98,-28.238 -160.773,10.606 -189.012,86.586 -28.238,75.989 10.602,160.778 86.586,189.02 75.985,28.238 160.778,-10.606 189.016,-86.59 28.238,-75.984 -10.602,-160.773 -86.59,-189.016" /><path
         id="path68"
         style="fill:#293d63;fill-opacity:1;fill-rule:nonzero;stroke:none"
         d="M 27.7578,465.074 V 361.895 l 43.6211,4.593 v -27.574 l -15.6172,-1.648 v -71.473 c 0,0 672.8323,67.898 674.8323,67.898 h 0.008 c 43.125,0 63.609,22.176 74.914,35.977 12.847,15.687 11.711,34.121 11.777,36.645 0.602,18.617 -4.098,33.839 -13.977,45.296 l 6.063,0.641 v 49.453 c 0,7.453 -3.59,14.434 -9.602,18.684 -7.121,5.031 -26.351,16.738 -51.027,16.738 L 27.7578,465.074" /><path
         id="path70"
         style="fill:#ffffff;fill-opacity:1;fill-rule:nonzero;stroke:none"
         d="m 139.672,452.484 -14.137,-1.488 -36.9217,-3.891 -13.5938,-1.433 -17.4453,-1.84 -12.5781,-1.324 v -61.465 l 30.0234,3.164 v 24.656 l 13.5938,1.43 V 323.398 L 73,321.754 v -36.813 l 15.6133,1.649 36.9217,3.887 14.301,1.507 v 36.813 l -14.301,-1.508 v 86.895 l 14.137,1.492 V 391.02 l 30.027,3.164 v 61.464 l -22.441,-2.367 -7.586,-0.797" /><path
         id="path72"
         style="fill:#ffffff;fill-opacity:1;fill-rule:nonzero;stroke:none"
         d="m 262.797,465.461 -32.227,-3.398 -36.922,-3.891 -14.21,-1.496 v -36.813 l 14.21,1.5 v -86.898 l -14.21,-1.496 V 296.16 l 14.21,1.496 36.922,3.891 32.227,3.394 15.012,1.582 15.011,1.582 v 61.465 l -30.023,-3.164 v -24.652 l -32.227,-3.399 v 23.868 l 29.86,3.148 v 36.809 l -29.86,-3.149 v 26.223 l 32.227,3.398 v -24.656 l 30.023,3.16 v 61.465 l -15.011,-1.582 -15.012,-1.578" /><path
         id="path74"
         style="fill:#ffffff;fill-opacity:1;fill-rule:nonzero;stroke:none"
         d="m 400.496,479.973 -14.457,-1.528 v -36.808 l 14.457,1.523 v -42.164 l -49.949,73.711 -2.567,-0.273 -34.355,-3.618 -14.434,-1.519 V 432.48 l 14.434,1.524 v -86.895 l -14.434,-1.519 v -36.813 l 14.434,1.52 36.922,3.894 14.113,1.489 v 36.808 L 350.547,351 v 44.238 l 49.949,-75.785 35.383,3.731 1.539,0.16 v 123.707 l 14.098,1.484 v 36.813 l -14.098,-1.489 -36.922,-3.886" /><path
         id="path76"
         style="fill:#ffffff;fill-opacity:1;fill-rule:nonzero;stroke:none"
         d="m 559.133,496.688 -14.453,-1.524 v -36.812 l 14.453,1.527 v -42.164 l -49.949,73.711 -2.571,-0.274 -34.355,-3.621 -14.434,-1.519 v -36.813 l 14.434,1.524 v -86.899 l -14.434,-1.519 v -36.809 l 14.434,1.52 36.926,3.89 14.117,1.489 v 36.808 l -14.117,-1.488 v 44.238 l 49.949,-75.781 35.383,3.73 1.539,0.161 v 123.703 l 14.093,1.484 v 36.816 l -14.093,-1.488 -36.922,-3.89" /><path
         id="path78"
         style="fill:#ffffff;fill-opacity:1;fill-rule:nonzero;stroke:none"
         d="m 631.02,504.262 -14.895,-1.567 v -36.812 l 14.895,1.566 v -86.894 l -14.895,-1.567 v -36.812 l 14.895,1.57 36.921,3.891 13.653,1.441 v 36.809 l -13.653,-1.442 v 86.899 l 13.653,1.437 v 36.813 l -13.653,-1.442 -36.921,-3.89" /><path
         id="path80"
         style="fill:#ffffff;fill-opacity:1;fill-rule:nonzero;stroke:none"
         d="m 739.211,454.645 c 0,0 -15.863,-2.274 -15.566,11.671 0,0 -0.149,14.516 24.074,15.227 l 10.332,1.09 c 2.246,0.234 4.062,-1.391 4.062,-3.637 v -14.394 l 30.028,3.164 v 33.937 c 0,1.887 -0.848,3.57 -2.313,4.606 -8.445,5.964 -38.91,24.25 -72.414,4.961 -18.504,-10.653 -31.059,-30.196 -30.82,-50.618 0.011,-1.312 0.082,-2.64 0.203,-3.988 1.976,-21.559 14.793,-42.402 52.414,-38.191 30.434,0.988 22.625,-15.68 22.625,-15.68 -9.012,-12.223 -28.574,-11.344 -38.066,-10.074 -3.157,0.422 -5.379,2.988 -5.379,6.234 v 12.098 l -30.032,-3.164 v -36.809 c 5.848,-16.246 36.825,-20.031 36.825,-20.031 73.644,-3.035 74.879,55.773 74.879,55.773 1.929,58.559 -60.852,47.825 -60.852,47.825" /><path
         id="path82"
         style="fill:#5c6c84;fill-opacity:1;fill-rule:nonzero;stroke:none"
         d="m 350.547,394.793 v 0.445 l 0.273,-0.418 -0.273,-0.027" /><path
         id="path84"
         style="fill:#babcc2;fill-opacity:1;fill-rule:nonzero;stroke:none"
         d="m 350.82,394.82 -0.273,0.418 0.273,-0.418 v 0" /><path
         id="path86"
         style="fill:#5c6c84;fill-opacity:1;fill-rule:nonzero;stroke:none"
         d="m 509.184,410.84 v 1.113 l 0.687,-1.043 -0.687,-0.07" /><path
         id="path88"
         style="fill:#5c6c84;fill-opacity:1;fill-rule:nonzero;stroke:none"
         d="m 73,284.941 v 0 l 15.6133,1.649 36.9217,3.887 14.301,1.507 v 36.813 -36.813 l -14.301,-1.507 -36.9217,-3.887 z m 0,36.813 15.6133,1.644 v 0 L 73,321.754" /><path
         id="path90"
         style="fill:#babcc2;fill-opacity:1;fill-rule:nonzero;stroke:none"
         d="m 73,284.941 v 36.813 l 15.6133,1.644 v 44.899 l 36.9217,3.738 v -44.746 l 14.301,1.508 V 291.984 L 125.535,290.477 88.6133,286.59 73,284.941" /><path
         id="path92"
         style="fill:#babcc2;fill-opacity:1;fill-rule:nonzero;stroke:none"
         d="m 179.438,296.16 v 36.809 l 14.21,1.496 v 44.457 l 66.782,6.754 v -20.305 l -29.86,-3.148 v -23.868 l 32.227,3.399 v 24.652 l 30.023,3.164 v -61.465 l -15.011,-1.582 -15.012,-1.582 -32.227,-3.394 -36.922,-3.891 -14.21,-1.496" /><path
         id="path94"
         style="fill:#babcc2;fill-opacity:1;fill-rule:nonzero;stroke:none"
         d="m 400.496,319.453 v 0 l -49.676,75.367 86.598,8.762 v -80.238 l -1.539,-0.16 -35.383,-3.731" /><path
         id="path96"
         style="fill:#babcc2;fill-opacity:1;fill-rule:nonzero;stroke:none"
         d="m 299.191,308.777 v 36.813 l 14.434,1.519 v 43.95 l 36.922,3.734 V 351 l 14.113,1.488 V 315.68 l -14.113,-1.489 -36.922,-3.894 -14.434,-1.52" /><path
         id="path98"
         style="fill:#5c6c84;fill-opacity:1;fill-rule:nonzero;stroke:none"
         d="m 457.824,325.496 v 0 l 14.434,1.52 36.926,3.89 14.117,1.489 v 36.808 -36.808 l -14.117,-1.489 -36.926,-3.89 -14.434,-1.52" /><path
         id="path100"
         style="fill:#babcc2;fill-opacity:1;fill-rule:nonzero;stroke:none"
         d="m 457.824,325.496 v 36.809 l 14.434,1.519 v 43.281 l 36.926,3.735 v -43.125 l 14.117,1.488 v -36.808 l -14.117,-1.489 -36.926,-3.89 -14.434,-1.52" /><path
         id="path102"
         style="fill:#5c6c84;fill-opacity:1;fill-rule:nonzero;stroke:none"
         d="m 559.133,336.172 -49.262,74.738 49.262,-74.738 35.383,3.73 1.539,0.161 v 79.562 -79.562 l -1.539,-0.161 -35.383,-3.73" /><path
         id="path104"
         style="fill:#babcc2;fill-opacity:1;fill-rule:nonzero;stroke:none"
         d="m 559.133,336.172 -49.262,74.738 86.184,8.715 v -79.562 l -1.539,-0.161 -35.383,-3.73" /><path
         id="path106"
         style="fill:#babcc2;fill-opacity:1;fill-rule:nonzero;stroke:none"
         d="m 616.125,342.176 v 36.812 l 14.895,1.567 v 42.609 l 36.921,3.734 v -42.453 l 13.653,1.442 v -36.809 l -13.653,-1.441 -36.921,-3.891 -14.895,-1.57" /><path
         id="path108"
         style="fill:#5c6c84;fill-opacity:1;fill-rule:nonzero;stroke:none"
         d="m 730.594,350.934 c -1.758,0 -3.563,0.035 -5.41,0.113 0,0 -30.977,3.785 -36.825,20.031 v 0 c 5.848,-16.246 36.825,-20.031 36.825,-20.031 1.847,-0.078 3.652,-0.113 5.41,-0.113 68.304,-0.008 69.469,55.886 69.469,55.886 0.097,3.051 0.027,5.907 -0.208,8.594 0.235,-2.684 0.309,-5.543 0.208,-8.594 0,0 -1.165,-55.886 -69.469,-55.886 z m 31.246,51.867 c 0.148,0.324 4.277,9.617 -6.551,13.754 10.828,-4.137 6.699,-13.43 6.551,-13.754 z m 38.015,12.648 c -0.007,0.028 -0.007,0.055 -0.007,0.078 0,-0.023 0,-0.05 0.007,-0.078 z m -0.019,0.203 c 0,0.004 0,0.004 0,0.008 0,-0.004 0,-0.004 0,-0.008 z m -0.012,0.153 c 0,0.004 0,0 0,0.008 0,-0.004 0,-0.008 0,-0.008" /><path
         id="path110"
         style="fill:#babcc2;fill-opacity:1;fill-rule:nonzero;stroke:none"
         d="m 730.594,350.934 c -1.758,0 -3.563,0.035 -5.41,0.113 0,0 -30.977,3.785 -36.825,20.031 v 36.809 l 30.032,3.164 v -12.098 c 0,-3.246 2.222,-5.812 5.379,-6.234 2.718,-0.364 6.269,-0.696 10.164,-0.696 9.679,0 21.476,2.055 27.902,10.77 0,0 0,0.004 0.004,0.008 0.148,0.324 4.277,9.617 -6.551,13.754 -3.121,1.195 -7.484,1.961 -13.547,1.961 -0.812,0 -1.66,-0.012 -2.531,-0.043 -3.305,-0.368 -6.41,-0.547 -9.34,-0.543 -15.199,0 -25.504,4.758 -32.242,11.972 l 93.449,9.45 c 4.539,-5.688 7.793,-13.321 8.746,-23.539 0,-0.008 0,-0.004 0,-0.008 0,-0.051 0.004,-0.098 0.012,-0.145 0,-0.004 0,-0.004 0,-0.008 0.004,-0.043 0.008,-0.086 0.012,-0.125 0,-0.023 0,-0.05 0.007,-0.078 0,-0.011 0,-0.023 0,-0.035 0.235,-2.687 0.305,-5.543 0.208,-8.594 0,0 -1.165,-55.894 -69.469,-55.886" /></g></g></svg>