<?xml version="1.0" encoding="UTF-8"?>
<!DOCTYPE svg PUBLIC "-//W3C//DTD SVG 1.1//EN" "http://www.w3.org/Graphics/SVG/1.1/DTD/svg11.dtd">
<!-- Creator: CorelDRAW X5 -->
<svg xmlns="http://www.w3.org/2000/svg" xml:space="preserve" width="1427px" height="224px" style="shape-rendering:geometricPrecision; text-rendering:geometricPrecision; image-rendering:optimizeQuality; fill-rule:evenodd; clip-rule:evenodd"
viewBox="0 0 1427 224"
 xmlns:xlink="http://www.w3.org/1999/xlink">
 <defs>
  <style type="text/css">
   <![CDATA[
    .fil1 {fill:#474747}
    .fil2 {fill:#B0002C}
    .fil0 {fill:#BEC2CC;fill-rule:nonzero}
   ]]>
  </style>
 </defs>
 <g id="Layer_x0020_1">
  <metadata id="CorelCorpID_0Corel-Layer"/>
  <path class="fil0" d="M302 164c9,0 13,5 13,14l0 7c0,9 -4,14 -13,14l-4 0 0 21 -9 0 0 -56 13 0zm0 8l-4 0 0 19 4 0c1,0 3,0 3,-1 1,-1 1,-2 1,-4l0 -8c0,-2 0,-3 -1,-4 -1,-1 -2,-1 -3,-1zm45 48l-9 0c-1,-2 -1,-4 -1,-7l0 -9c0,-3 0,-4 -1,-6 -1,-1 -2,-2 -4,-2l-3 0 0 23 -9 0 0 -56 13 0c5,0 8,1 10,3 2,2 3,5 3,10l0 4c0,6 -2,10 -6,11 4,2 6,6 6,12l0 9c0,3 0,5 1,7zm-14 -48l-4 0 0 17 3 0c2,0 3,0 4,-1 1,-1 1,-2 1,-5l0 -6c0,-4 -2,-6 -5,-6zm27 5l0 30c0,4 2,6 5,6 3,0 5,-2 5,-6l0 -30c0,-4 -2,-6 -5,-6 -3,0 -5,2 -5,6zm-9 30l0 -29c0,-5 1,-8 3,-10 2,-2 6,-4 10,-4 4,0 8,1 10,4 2,2 3,6 3,10l0 29c0,5 -1,8 -3,10 -2,2 -6,4 -10,4 -4,0 -8,-1 -10,-4 -2,-2 -3,-6 -3,-10zm41 -35l0 17 11 0 0 8 -11 0 0 23 -9 0 0 -56 23 0 0 8 -15 0zm28 0l0 16 12 0 0 8 -12 0 0 16 15 0 0 8 -24 0 0 -56 24 0 0 8 -15 0zm20 5c0,-5 1,-8 3,-10 2,-2 5,-4 10,-4 4,0 8,1 10,4 2,2 3,6 3,10l0 2 -8 0 0 -2c0,-4 -1,-6 -4,-6 -3,0 -4,2 -4,6 0,2 1,4 2,6 1,2 3,4 4,5 2,2 3,3 5,5 2,2 3,4 4,6 1,2 2,5 2,8 0,5 -1,8 -3,10 -2,2 -6,4 -10,4 -4,0 -8,-1 -10,-4 -2,-2 -3,-6 -3,-10l0 -3 8 0 0 4c0,4 2,5 5,5 3,0 5,-2 5,-5 0,-2 -1,-4 -2,-6 -1,-2 -3,-4 -4,-5 -2,-2 -3,-3 -5,-5 -2,-2 -3,-4 -4,-6 -1,-2 -2,-5 -2,-8zm30 0c0,-5 1,-8 3,-10 2,-2 5,-4 10,-4 4,0 8,1 10,4 2,2 3,6 3,10l0 2 -8 0 0 -2c0,-4 -1,-6 -4,-6 -3,0 -4,2 -4,6 0,2 1,4 2,6 1,2 3,4 4,5 2,2 3,3 5,5 2,2 3,4 4,6 1,2 2,5 2,8 0,5 -1,8 -3,10 -2,2 -6,4 -10,4 -4,0 -8,-1 -10,-4 -2,-2 -3,-6 -3,-10l0 -3 8 0 0 4c0,4 2,5 5,5 3,0 5,-2 5,-5 0,-2 -1,-4 -2,-6 -1,-2 -3,-4 -4,-5 -2,-2 -3,-3 -5,-5 -2,-2 -3,-4 -4,-6 -1,-2 -2,-5 -2,-8zm31 43l0 -56 9 0 0 56 -9 0zm23 -43l0 30c0,4 2,6 5,6 3,0 5,-2 5,-6l0 -30c0,-4 -2,-6 -5,-6 -3,0 -5,2 -5,6zm-9 30l0 -29c0,-5 1,-8 3,-10 2,-2 6,-4 10,-4 4,0 8,1 10,4 2,2 3,6 3,10l0 29c0,5 -1,8 -3,10 -2,2 -6,4 -10,4 -4,0 -8,-1 -10,-4 -2,-2 -3,-6 -3,-10zm51 14l-11 -41 0 41 -8 0 0 -56 11 0 9 34 0 -34 8 0 0 56 -9 0zm35 -56l9 56 -9 0 -2 -10 -11 0 -2 10 -8 0 9 -56 13 0zm-7 10l-4 28 9 0 -4 -28zm20 46l0 -56 9 0 0 48 15 0 0 8 -23 0zm39 -43c0,-5 1,-8 3,-10 2,-2 5,-4 10,-4 4,0 8,1 10,4 2,2 3,6 3,10l0 2 -8 0 0 -2c0,-4 -1,-6 -4,-6 -3,0 -4,2 -4,6 0,2 1,4 2,6 1,2 3,4 4,5 2,2 3,3 5,5 2,2 3,4 4,6 1,2 2,5 2,8 0,5 -1,8 -3,10 -2,2 -6,4 -10,4 -4,0 -8,-1 -10,-4 -2,-2 -3,-6 -3,-10l0 -3 8 0 0 4c0,4 2,5 5,5 3,0 5,-2 5,-5 0,-2 -1,-4 -2,-6 -1,-2 -3,-4 -4,-5 -2,-2 -3,-3 -5,-5 -2,-2 -3,-4 -4,-6 -1,-2 -2,-5 -2,-8zm44 -14c9,0 13,5 13,14l0 7c0,9 -4,14 -13,14l-4 0 0 21 -9 0 0 -56 13 0zm0 8l-4 0 0 19 4 0c1,0 3,0 3,-1 1,-1 1,-2 1,-4l0 -8c0,-2 0,-3 -1,-4 -1,-1 -2,-1 -3,-1zm25 5l0 30c0,4 2,6 5,6 3,0 5,-2 5,-6l0 -30c0,-4 -2,-6 -5,-6 -3,0 -5,2 -5,6zm-9 30l0 -29c0,-5 1,-8 3,-10 2,-2 6,-4 10,-4 4,0 8,1 10,4 2,2 3,6 3,10l0 29c0,5 -1,8 -3,10 -2,2 -6,4 -10,4 -4,0 -8,-1 -10,-4 -2,-2 -3,-6 -3,-10zm60 14l-9 0c-1,-2 -1,-4 -1,-7l0 -9c0,-3 0,-4 -1,-6 -1,-1 -2,-2 -4,-2l-3 0 0 23 -9 0 0 -56 13 0c5,0 8,1 10,3 2,2 3,5 3,10l0 4c0,6 -2,10 -6,11 4,2 6,6 6,12l0 9c0,3 0,5 1,7zm-14 -48l-4 0 0 17 3 0c2,0 3,0 4,-1 1,-1 1,-2 1,-5l0 -6c0,-4 -2,-6 -5,-6zm17 0l0 -8 27 0 0 8 -9 0 0 48 -9 0 0 -48 -9 0zm30 5c0,-5 1,-8 3,-10 2,-2 5,-4 10,-4 4,0 8,1 10,4 2,2 3,6 3,10l0 2 -8 0 0 -2c0,-4 -1,-6 -4,-6 -3,0 -4,2 -4,6 0,2 1,4 2,6 1,2 3,4 4,5 2,2 3,3 5,5 2,2 3,4 4,6 1,2 2,5 2,8 0,5 -1,8 -3,10 -2,2 -6,4 -10,4 -4,0 -8,-1 -10,-4 -2,-2 -3,-6 -3,-10l0 -3 8 0 0 4c0,4 2,5 5,5 3,0 5,-2 5,-5 0,-2 -1,-4 -2,-6 -1,-2 -3,-4 -4,-5 -2,-2 -3,-3 -5,-5 -2,-2 -3,-4 -4,-6 -1,-2 -2,-5 -2,-8zm53 -5l0 16 12 0 0 8 -12 0 0 16 15 0 0 8 -24 0 0 -56 24 0 0 8 -15 0zm20 35l0 -29c0,-5 1,-8 3,-10 2,-2 6,-4 10,-4 4,0 8,1 10,4 2,2 3,6 3,10l0 29c0,3 -1,6 -2,8 0,1 1,1 2,1l1 0 0 8 -1 0c-4,0 -6,-1 -8,-4 -2,1 -4,1 -6,1 -4,0 -8,-1 -10,-4 -2,-2 -3,-6 -3,-10zm9 -30l0 30c0,4 2,6 5,6 3,0 5,-2 5,-6l0 -30c0,-4 -2,-6 -5,-6 -3,0 -5,2 -5,6zm23 -13l9 0 0 43c0,4 2,5 5,5 3,0 5,-2 5,-5l0 -43 8 0 0 43c0,5 -1,8 -3,10 -2,2 -6,4 -10,4 -4,0 -8,-1 -10,-4 -2,-2 -3,-6 -3,-10l0 -43zm32 56l0 -56 9 0 0 56 -9 0zm28 -56c9,0 13,5 13,14l0 7c0,9 -4,14 -13,14l-4 0 0 21 -9 0 0 -56 13 0zm0 8l-4 0 0 19 4 0c1,0 3,0 3,-1 1,-1 1,-2 1,-4l0 -8c0,-2 0,-3 -1,-4 -1,-1 -2,-1 -3,-1zm30 -8l7 40 6 -40 12 0 0 56 -8 0 0 -40 -6 40 -8 0 -7 -40 0 40 -8 0 0 -56 12 0zm40 8l0 16 12 0 0 8 -12 0 0 16 15 0 0 8 -24 0 0 -56 24 0 0 8 -15 0zm40 48l-11 -41 0 41 -8 0 0 -56 11 0 9 34 0 -34 8 0 0 56 -9 0zm13 -48l0 -8 27 0 0 8 -9 0 0 48 -9 0 0 -48 -9 0z"/>
  <path class="fil1" d="M601 83l0 29 -155 0c-24,0 -32,-13 -33,-28l0 -1 0 -13 0 -28 0 -1 0 -13 0 -1c0,-15 9,-28 33,-28l155 0 0 29 -151 0c-4,0 -8,3 -8,8l0 5 0 29 0 5c0,4 3,8 8,8l151 0z"/>
  <path class="fil1" d="M365 83l0 -13 -49 0 -31 0 -45 0c-24,0 -32,-13 -33,-28l0 -1 0 -13 0 0c0,-15 9,-28 33,-28l-4 0 158 0 0 29 -158 0 0 13 49 0 31 0 45 0c24,0 32,13 33,28l0 1 0 13 0 0c0,15 -9,28 -33,28l4 0 -158 0 0 -29 158 0z"/>
  <path class="fil2" d="M33 0c-24,0 -32,13 -33,28l0 1 187 0 0 -29 -155 0z"/>
  <path class="fil1" d="M33 71c-1,0 -2,0 -4,0l0 13 158 0 0 29 -155 0c-24,0 -32,-13 -33,-28l0 -1 0 -41 0 -1 29 0 158 0 0 29 -155 0z"/>
  <path class="fil1" d="M981 0c24,0 32,13 33,28l0 1 0 13 0 1c0,15 -9,28 -33,28l-126 0 0 42 -29 0 0 -42 0 -28 0 -1 158 0 0 -13 -158 0 0 -29 155 0z"/>
  <path class="fil2" d="M1066 0c-24,0 -32,13 -33,28l0 1 187 0 0 -29 -155 0z"/>
  <path class="fil1" d="M1066 71c-1,0 -2,0 -4,0l0 13 158 0 0 29 -155 0c-24,0 -32,-13 -33,-28l0 -1 0 -41 0 -1 29 0 158 0 0 29 -155 0z"/>
  <path class="fil1" d="M1394 0c24,0 32,13 33,28l0 1 0 13 0 1c0,15 -9,28 -33,28l-1 0 33 42 -37 0 -33 -42 -88 0 0 42 -29 0 0 -42 0 -28 0 -1 93 0 37 0 28 0 0 -13 -158 0 0 -29 155 0z"/>
  <polygon class="fil1" points="703,42 713,42 724,42 716,29 716,29 676,29 696,0 731,0 807,112 772,112 744,71 683,71 655,112 620,112 668,42 "/>
 </g>
</svg>
