<?xml version="1.0" encoding="UTF-8"?>
<!DOCTYPE svg PUBLIC "-//W3C//DTD SVG 1.1//EN" "http://www.w3.org/Graphics/SVG/1.1/DTD/svg11.dtd">
<!-- Creator: CorelDRAW X8 -->
<svg xmlns="http://www.w3.org/2000/svg" xml:space="preserve" width="100.841mm" height="161.173mm" version="1.1" style="shape-rendering:geometricPrecision; text-rendering:geometricPrecision; image-rendering:optimizeQuality; fill-rule:evenodd; clip-rule:evenodd"
viewBox="0 0 629 1005"
 xmlns:xlink="http://www.w3.org/1999/xlink">
 <defs>
  <style type="text/css">
   <![CDATA[
    .str0 {stroke:#E0E0E0;stroke-width:0.475052;stroke-opacity:0.741176}
    .fil2 {fill:none}
    .fil5 {fill:#F2F3F5}
    .fil13 {fill:#20A7DF;fill-rule:nonzero}
    .fil19 {fill:#474747;fill-rule:nonzero}
    .fil11 {fill:#4F0417;fill-rule:nonzero}
    .fil16 {fill:#730621;fill-rule:nonzero}
    .fil15 {fill:#B0002C;fill-rule:nonzero}
    .fil14 {fill:#B59452;fill-rule:nonzero}
    .fil17 {fill:#CBAC6F;fill-rule:nonzero}
    .fil12 {fill:#D4B476;fill-rule:nonzero}
    .fil10 {fill:#DBDBDB;fill-rule:nonzero}
    .fil18 {fill:#E8CB90;fill-rule:nonzero}
    .fil1 {fill:white;fill-rule:nonzero}
    .fil0 {fill:url(#id0)}
    .fil7 {fill:url(#id1);fill-rule:nonzero}
    .fil4 {fill:url(#id2);fill-rule:nonzero}
    .fil9 {fill:url(#id3);fill-rule:nonzero}
    .fil6 {fill:url(#id4);fill-rule:nonzero}
    .fil8 {fill:url(#id5);fill-rule:nonzero}
    .fil3 {fill:url(#id6);fill-rule:nonzero}
   ]]>
  </style>
  <linearGradient id="id0" gradientUnits="userSpaceOnUse" x1="23.0313" y1="193.964" x2="605.637" y2="810.838">
   <stop offset="0" style="stop-opacity:1; stop-color:#F71B3F"/>
   <stop offset="0.690196" style="stop-opacity:1; stop-color:#D40E36"/>
   <stop offset="1" style="stop-opacity:1; stop-color:#B0002C"/>
  </linearGradient>
  <linearGradient id="id1" gradientUnits="userSpaceOnUse" x1="314.335" y1="821.864" x2="314.334" y2="673.115">
   <stop offset="0" style="stop-opacity:1; stop-color:#CED2DB"/>
   <stop offset="0.619608" style="stop-opacity:0; stop-color:#E0E2E8"/>
   <stop offset="1" style="stop-opacity:0; stop-color:#F2F3F5"/>
  </linearGradient>
  <linearGradient id="id2" gradientUnits="userSpaceOnUse" x1="628.748" y1="502.477" x2="586.873" y2="502.325">
   <stop offset="0" style="stop-opacity:0.717647; stop-color:#5C0017"/>
   <stop offset="0.196078" style="stop-opacity:0; stop-color:#5C0017"/>
   <stop offset="0.65098" style="stop-opacity:0; stop-color:#5C0017"/>
   <stop offset="1" style="stop-opacity:0; stop-color:#5C0017"/>
  </linearGradient>
  <linearGradient id="id3" gradientUnits="userSpaceOnUse" x1="628.754" y1="522.219" x2="583.61" y2="521.915">
   <stop offset="0" style="stop-opacity:0.717647; stop-color:#939AAB"/>
   <stop offset="0.196078" style="stop-opacity:0; stop-color:#AAAFBB"/>
   <stop offset="0.65098" style="stop-opacity:0; stop-color:#C2C5CC"/>
   <stop offset="1" style="stop-opacity:0; stop-color:#C2C5CC"/>
  </linearGradient>
  <linearGradient id="id4" gradientUnits="userSpaceOnUse" xlink:href="#id1" x1="314.335" y1="222.27" x2="314.334" y2="371.019">
  </linearGradient>
  <linearGradient id="id5" gradientUnits="userSpaceOnUse" xlink:href="#id3" x1="-0.08493" y1="522.219" x2="45.0591" y2="521.915">
  </linearGradient>
  <linearGradient id="id6" gradientUnits="userSpaceOnUse" x1="-0.0790043" y1="502.477" x2="41.7956" y2="502.325">
   <stop offset="0" style="stop-opacity:0.717647; stop-color:#99062B"/>
   <stop offset="0.196078" style="stop-opacity:0; stop-color:#99062B"/>
   <stop offset="0.65098" style="stop-opacity:0; stop-color:#99062B"/>
   <stop offset="1" style="stop-opacity:0; stop-color:#99062B"/>
  </linearGradient>
 </defs>
 <g id="Layer_x0020_1">
  <metadata id="CorelCorpID_0Corel-Layer"/>
  <polygon class="fil0" points="0,0 629,0 629,1005 0,1005 "/>
  <path class="fil1" d="M207 41l15 91 -15 0 -2 -16 -18 0 -2 16 -13 0 14 -91 21 0zm-11 16l-7 46 14 0 -7 -46zm69 75l-14 -36 -5 8 0 28 -14 0 0 -91 14 0 0 40 19 -40 15 0 -20 41 20 50 -15 0zm24 0l0 -91 15 0 0 78 16 0 0 -78 15 0 0 79 6 0 0 25 -14 0 0 -13 -38 0zm90 -42l-12 42 -15 0 0 -91 13 0 0 58 5 -20 12 -38 16 0 0 91 -13 0 0 -64 -6 22zm59 0l-12 42 -15 0 0 -91 13 0 0 58 5 -20 12 -38 16 0 0 91 -13 0 0 -64 -6 22z"/>
  <path class="fil1" d="M68 167l0 39 -8 0 0 -46 23 0 0 46 -7 0 0 -39 -8 0zm29 3l0 25c0,3 1,5 3,5 3,0 4,-2 4,-5l0 -25c0,-3 -1,-4 -4,-4 -2,0 -3,1 -3,4zm-8 25l0 -24c0,-4 1,-7 3,-9 2,-2 5,-3 8,-3 4,0 6,1 8,3 2,2 3,5 3,9l0 24c0,3 -1,6 -3,8 -2,2 -4,3 -8,3 -3,0 -6,-1 -8,-3 -2,-2 -3,-5 -3,-8zm43 -25l0 25c0,3 2,5 4,5 3,0 4,-2 4,-5l0 -25c0,-3 -1,-4 -4,-4 -2,0 -4,1 -4,4zm-7 25l0 -24c0,-4 1,-7 3,-9 2,-2 5,-3 8,-3 4,0 6,1 8,3 2,2 3,5 3,9l0 24c0,3 -1,6 -3,8 -2,2 -4,3 -8,3 -3,0 -6,-1 -8,-3 -2,-2 -3,-5 -3,-8zm42 -6l7 0 0 6c0,3 -1,6 -2,8 -2,2 -5,3 -8,3 -4,0 -7,-1 -8,-3 -2,-2 -3,-5 -3,-8l0 -24c0,-4 1,-7 3,-9 1,-2 4,-3 8,-3 3,0 6,1 8,3 1,2 2,5 2,9l0 4 -7 0 0 -5c0,-3 -1,-4 -3,-4 -3,0 -4,1 -4,4l0 25c0,3 1,5 4,5 2,0 3,-2 3,-5l0 -6zm20 -19l0 25c0,3 1,5 4,5 2,0 3,-2 3,-5l0 -25c0,-3 -1,-4 -3,-4 -3,0 -4,1 -4,4zm-7 25l0 -24c0,-4 1,-7 3,-9 1,-2 4,-3 8,-3 3,0 6,1 8,3 2,2 3,5 3,9l0 24c0,3 -1,6 -3,8 -2,2 -5,3 -8,3 -4,0 -7,-1 -8,-3 -2,-2 -3,-5 -3,-8zm39 11l-11 0 0 -46 20 0 0 7 -13 0 0 11 4 0c4,0 7,1 8,3 2,2 3,5 3,8l0 5c0,4 -1,7 -3,9 -1,2 -4,3 -8,3zm-4 -7l4 0c3,0 4,-1 4,-4l0 -6c0,-3 -1,-4 -4,-4l-4 0 0 14zm32 7l-10 0 0 -46 7 0 0 17 3 0c7,0 11,4 11,11l0 6c0,8 -4,12 -11,12zm-3 -7l3 0c1,0 2,0 3,-1 0,-1 1,-2 1,-3l0 -7c0,-2 -1,-3 -1,-3 -1,-1 -2,-1 -3,-1l-3 0 0 15zm25 7l-7 0 0 -46 7 0 0 46zm17 -46l5 32 5 -32 10 0 0 46 -7 0 0 -33 -5 33 -6 0 -6 -33 0 33 -6 0 0 -46 10 0zm59 0l-8 34c0,4 -2,8 -4,9 -2,2 -5,3 -10,3l0 -7c2,0 3,0 4,0 1,-1 2,-2 2,-3l0 -1 -10 -35 8 0 3 16 3 10 1 -10 4 -16 7 0zm19 29l7 0 0 6c0,3 -1,6 -3,8 -2,2 -5,3 -8,3 -4,0 -6,-1 -8,-3 -2,-2 -3,-5 -3,-8l0 -24c0,-4 1,-7 3,-9 2,-2 4,-3 8,-3 3,0 6,1 8,3 2,2 3,5 3,9l0 4 -7 0 0 -5c0,-3 -1,-4 -4,-4 -2,0 -4,1 -4,4l0 25c0,3 2,5 4,5 3,0 4,-2 4,-5l0 -6zm11 17l0 -7c1,0 3,0 3,-1 1,0 1,-1 1,-4l1 -34 21 0 0 46 -8 0 0 -39 -6 0 -1 27c0,4 -1,7 -2,9 -2,2 -5,3 -8,3l-1 0zm39 -36l0 25c0,3 2,5 4,5 3,0 4,-2 4,-5l0 -25c0,-3 -1,-4 -4,-4 -2,0 -4,1 -4,4zm-7 25l0 -24c0,-4 1,-7 3,-9 2,-2 5,-3 8,-3 4,0 6,1 8,3 2,2 3,5 3,9l0 24c0,3 -1,6 -3,8 -2,2 -4,3 -8,3 -3,0 -6,-1 -8,-3 -2,-2 -3,-5 -3,-8zm39 -35c4,0 7,1 8,3 2,1 3,4 3,7l0 2c0,5 -2,8 -5,9 4,2 6,5 6,10l0 4c0,3 -1,6 -3,8 -2,2 -5,3 -8,3l-12 0 0 -46 11 0zm0 25l-3 0 0 14 4 0c1,0 2,0 2,-1 1,-1 1,-2 1,-3l0 -4c0,-2 0,-4 -1,-5 0,0 -2,-1 -3,-1zm0 -18l-3 0 0 12 2 0c2,0 3,-1 4,-2 0,0 1,-2 1,-3l0 -3c0,-3 -2,-4 -4,-4zm31 18l-6 21 -7 0 0 -46 6 0 0 29 3 -10 5 -19 8 0 0 46 -6 0 0 -33 -3 12zm22 21l-7 0c0,-2 1,-3 1,-6l0 -7c0,-5 1,-8 4,-10 -3,-1 -4,-4 -4,-9l0 -4c0,-3 0,-6 2,-7 2,-2 5,-3 8,-3l11 0 0 46 -7 0 0 -19 -3 0c-1,0 -2,1 -3,1 -1,1 -1,3 -1,5l0 7c0,2 0,4 -1,6zm8 -39l-4 0c-2,0 -3,1 -3,4l0 5c0,1 0,3 1,3 1,1 2,2 3,2l3 0 0 -14zm24 -7l5 32 5 -32 10 0 0 46 -7 0 0 -33 -5 33 -6 0 -6 -33 0 33 -6 0 0 -46 10 0z"/>
  <polygon class="fil2 str0" points="134,852 494,852 494,945 134,945 "/>
  <path class="fil1" d="M193 885l-7 26c-1,2 -2,4 -3,6 -1,1 -3,1 -6,1l0 -3c2,0 3,0 3,-1 1,0 2,-1 2,-3l1 -2 -8 -24 4 0 3 11 2 9 2 -9 3 -11 4 0zm11 -1c3,0 5,1 6,3 1,1 2,3 2,6l0 3 -4 0 0 -3c0,-4 -1,-5 -4,-5 -2,0 -4,1 -4,5l0 17c0,3 2,5 4,5 3,0 4,-2 4,-5l0 -4 4 0 0 4c0,3 -1,5 -2,6 -1,2 -3,2 -6,2 -2,0 -4,0 -5,-2 -2,-1 -2,-3 -2,-6l0 -17c0,-3 0,-5 2,-6 1,-2 3,-3 5,-3zm26 4l-6 0 -1 22c0,3 -1,5 -2,6 -1,1 -2,2 -5,2l-1 0 0 -3c2,0 3,-1 3,-1 1,-1 1,-2 1,-4l1 -25 14 0 0 33 -4 0 0 -30zm9 22l0 -17c0,-3 0,-5 2,-6 1,-2 3,-3 5,-3 3,0 5,1 6,3 1,1 2,3 2,6l0 17c0,3 -1,5 -2,6 -1,2 -3,2 -6,2 -2,0 -4,0 -5,-2 -2,-1 -2,-3 -2,-6zm3 -17l0 17c0,3 2,5 4,5 3,0 4,-2 4,-5l0 -17c0,-4 -1,-5 -4,-5 -2,0 -4,1 -4,5zm17 -8l7 0c3,0 5,0 6,1 1,2 1,4 1,6l0 2c0,1 0,3 0,4 -1,1 -2,2 -3,2 2,1 4,3 4,7l0 3c0,5 -3,8 -8,8l-7 0 0 -33zm3 14l3 0c2,0 3,-1 4,-1 0,-1 1,-2 1,-4l0 -2c0,-1 -1,-2 -1,-3 -1,-1 -2,-1 -3,-1l-4 0 0 11zm0 16l4 0c3,0 4,-2 4,-5l0 -3c0,-2 0,-3 -1,-4 -1,0 -2,-1 -3,-1l-4 0 0 13zm29 -24l-4 12 -5 15 -3 0 0 -33 3 0 0 25 3 -11 5 -14 4 0 0 33 -3 0 0 -27zm20 13l-3 0c-2,0 -3,0 -4,1 0,1 -1,2 -1,4l0 5c0,2 0,3 0,4l-4 0c0,-1 0,-2 0,-4l0 -5c0,-4 2,-6 5,-7 -3,-1 -5,-3 -5,-7l0 -3c0,-2 1,-4 2,-5 1,-2 3,-2 6,-2l7 0 0 33 -3 0 0 -14zm0 -16l-4 0c-3,0 -4,2 -4,5l0 3c0,2 1,3 1,3 1,1 2,1 4,1l3 0 0 -12zm22 -3l7 0c3,0 5,0 6,1 1,2 2,4 2,6l0 2c0,1 -1,3 -1,4 -1,1 -2,2 -3,2 3,1 4,3 4,7l0 3c0,5 -2,8 -7,8l-8 0 0 -33zm4 14l2 0c2,0 3,-1 4,-1 1,-1 1,-2 1,-4l0 -2c0,-1 0,-2 -1,-3 0,-1 -1,-1 -3,-1l-3 0 0 11zm0 16l4 0c2,0 4,-2 4,-5l0 -3c0,-2 -1,-3 -2,-4 0,0 -1,-1 -3,-1l-3 0 0 13zm28 -12l-8 0 0 15 -4 0 0 -33 4 0 0 15 8 0 0 -15 3 0 0 33 -3 0 0 -15zm26 -18l-7 26c-1,2 -2,4 -3,6 -1,1 -3,1 -6,1l0 -3c1,0 2,0 3,-1 1,0 1,-1 1,-3l1 -2 -7 -24 3 0 4 11 2 9 2 -9 3 -11 4 0zm13 33l-4 0 0 -30 -6 0 0 -3 16 0 0 3 -6 0 0 30zm10 -33l7 0c5,0 7,2 7,8l0 4c0,5 -2,8 -7,8l-4 0 0 13 -3 0 0 -33zm3 17l4 0c1,0 2,-1 3,-2 0,0 1,-1 1,-3l0 -4c0,-2 -1,-3 -1,-4 -1,-1 -2,-1 -3,-1l-4 0 0 14zm28 -11l-4 12 -5 15 -3 0 0 -33 3 0 0 25 3 -11 5 -14 4 0 0 33 -3 0 0 -27z"/>
  <polygon class="fil3" points="0,1005 0,0 42,0 42,1005 "/>
  <polygon class="fil4" points="629,1005 629,0 587,0 587,1005 "/>
  <g id="_822386792">
   <polygon class="fil5" points="0,230 629,230 629,814 0,814 "/>
   <polygon class="fil6" points="0,230 629,230 629,363 0,363 "/>
   <polygon class="fil7" points="629,814 0,814 0,681 629,681 "/>
   <polygon class="fil8" points="0,814 0,230 45,230 45,814 "/>
   <polygon class="fil9" points="629,814 629,230 584,230 584,814 "/>
  </g>
  <polygon class="fil10" points="171,280 204,667 404,654 461,292 "/>
  <polygon class="fil11" points="167,323 476,269 420,656 191,659 "/>
  <polygon class="fil12" points="95,450 185,445 185,526 104,534 136,489 "/>
  <polygon class="fil13" points="145,447 145,447 162,446 162,446 145,447 "/>
  <polygon class="fil14" points="180,524 156,515 148,447 166,446 163,506 "/>
  <polygon class="fil12" points="532,449 443,452 423,530 514,534 500,487 "/>
  <polygon class="fil14" points="429,529 429,526 448,513 449,513 469,451 488,451 466,514 "/>
  <polygon class="fil11" points="181,525 429,530 451,513 163,506 "/>
  <polygon class="fil15" points="187,298 493,290 410,667 179,640 "/>
  <polygon class="fil16" points="466,413 184,413 184,426 464,421 "/>
  <polygon class="fil16" points="182,511 442,522 443,516 444,513 186,500 182,502 "/>
  <polygon class="fil12" points="167,423 163,506 453,513 484,416 "/>
  <path class="fil1" d="M204 555c1,0 1,0 2,0 1,0 2,0 2,0 1,0 1,0 2,1 3,1 6,2 8,3 2,0 4,0 5,0 0,0 0,-1 0,-1 0,0 -1,-1 -1,-1 -1,-1 -2,-1 -3,-2 -1,0 -2,-1 -3,-1 -1,-1 -2,-1 -3,-2 -1,-1 -2,-1 -3,-2 -1,-1 -2,-1 -3,-2 0,-1 -1,-2 -1,-3 -1,-1 -1,-2 -1,-3 0,-1 0,-2 1,-3 0,-1 1,-2 2,-3 0,-1 1,-2 2,-3 2,-1 3,-2 4,-3 1,-1 3,-1 4,-2 0,0 1,0 2,-1 0,0 1,0 2,0 1,0 2,0 3,0 1,0 2,0 3,1 1,0 3,1 5,2 1,0 2,1 3,2 1,0 2,1 2,2 0,0 1,1 1,1 0,1 0,1 0,2 0,0 0,0 0,1 0,1 0,1 -1,2 0,1 0,2 -1,3 0,1 0,2 -1,3 0,0 -1,1 -1,2 0,0 -1,1 -1,1 -1,0 -1,0 -2,0 -5,-2 -7,-4 -7,-6 0,-1 0,-1 1,-2 0,-1 0,-1 0,-2 0,0 1,-1 1,-2 0,0 0,-1 0,-1 0,0 0,-1 0,-1 -1,0 -1,0 -2,1 -1,0 -1,0 -2,1 -1,0 -1,1 -2,1 -1,1 -1,2 -2,2 0,1 -1,2 -1,3 0,0 0,1 0,2 0,1 1,1 1,2 1,1 3,1 4,2 1,1 2,2 4,2 1,1 2,2 3,2 1,1 2,2 3,2 1,1 1,2 1,3 0,0 0,1 -1,2 0,0 0,1 -1,2 -1,0 -2,1 -3,1 -1,1 -2,1 -4,2 -1,0 -3,0 -5,0 -3,0 -6,-1 -9,-2 -2,0 -5,-2 -8,-4 -1,-1 -2,-2 -2,-3 0,0 0,-1 1,-1 1,0 1,0 2,0zm43 6c0,2 -1,3 -1,4 0,1 0,1 -1,1 0,0 -1,0 -2,0 -1,0 -1,0 -2,-1 -1,0 -2,0 -3,0 0,-1 -1,-1 -1,-2 0,0 0,-1 0,-1 0,-1 0,-2 1,-4 0,-1 0,-3 1,-5 0,-2 0,-4 1,-6 0,-3 0,-5 0,-6 1,-2 1,-4 1,-5 1,-1 1,-2 1,-2 2,-1 3,-1 5,-2 2,0 3,-1 5,-1 2,-1 4,-1 5,-1 2,0 4,0 6,0 1,0 3,0 4,0 2,1 3,1 4,2 1,1 2,2 3,4 1,1 2,2 2,4 0,1 0,2 0,3 0,0 0,1 -1,2 0,0 -1,1 -1,2 -1,0 -2,1 -2,1 -2,1 -3,2 -5,3 -2,1 -3,2 -5,2 -2,1 -5,2 -7,2 -2,1 -4,1 -6,1 -1,2 -1,4 -2,5zm11 -14c2,-1 3,-2 5,-3 1,-1 2,-2 2,-3 1,-1 1,-1 1,-2 0,0 -1,-1 -1,-1 -1,0 -2,0 -3,0 -1,0 -2,0 -3,0 -2,0 -3,1 -4,1 -1,1 -2,3 -2,5 -1,1 -1,3 -2,5 3,-1 5,-2 7,-2zm27 -14c2,-1 4,-1 6,-1 2,0 4,-1 6,-1 2,0 5,0 7,0 2,0 3,1 4,2 0,1 0,2 0,2 1,1 1,1 1,2 0,1 0,1 0,1 -1,1 -1,1 -2,1 -3,0 -5,0 -7,0 -2,0 -5,0 -7,1 -1,1 -1,2 -2,3 0,2 -1,3 -2,5 1,0 2,0 4,0 1,0 2,0 3,0 1,0 2,0 2,0 1,0 1,1 2,1 0,1 0,1 1,2 0,0 0,1 0,2 1,0 1,1 0,1 0,0 -1,0 -2,0 -2,1 -4,1 -6,1 -2,0 -5,0 -7,1 0,0 0,1 -1,2 0,1 0,2 0,2 1,0 3,0 4,0 2,0 4,0 5,0 1,0 2,0 3,0 0,0 1,1 1,1 0,1 1,1 1,2 0,0 0,1 1,1 0,1 0,1 0,2 0,0 -1,0 -2,0 -2,0 -5,1 -7,1 -2,0 -5,0 -7,1 -1,0 -2,0 -3,0 -1,-1 -2,-1 -2,-1 -1,0 -1,-1 -2,-1 0,-1 -1,-1 -2,-2 0,0 -1,0 -1,-1 0,-1 0,-1 0,-2l6 -28c1,0 3,0 5,0zm50 29c0,0 0,1 -1,2 0,1 -1,2 -2,3 -1,1 -2,1 -3,2 -1,0 -1,0 -2,0 -1,1 -2,1 -2,1 -1,0 -2,0 -3,0 -1,0 -2,0 -2,0 -2,0 -4,-1 -5,-1 -1,0 -2,-1 -3,-1 -1,0 -2,-1 -3,-2 -1,0 -2,-1 -3,-2 0,-1 -1,-2 -1,-4 -1,-2 -1,-3 -1,-5 1,-2 1,-4 2,-6 0,-2 1,-4 2,-6 1,-2 3,-3 4,-5 2,-2 3,-3 5,-4 2,-1 3,-2 5,-2 2,0 3,0 4,0 1,0 2,0 4,1 1,0 2,0 3,0 1,1 2,1 2,2 1,0 2,0 3,1 0,0 1,1 1,1 1,1 1,1 1,2 1,0 1,0 1,1 0,0 0,1 0,2 0,0 0,1 0,2 0,0 0,1 0,2 0,0 -1,1 -1,2 0,0 0,1 0,1 -1,1 -1,1 -1,1 0,0 0,0 0,0 0,0 -1,1 -1,1 0,0 -1,0 -2,-1 -1,0 -2,0 -2,0 -1,-1 -2,-1 -2,-2 -1,0 -1,0 -2,-1 0,-1 0,-1 0,-2 0,-1 0,-1 0,-2 0,0 0,-1 -1,-2 0,-1 0,-1 -1,-2 0,0 -1,1 -2,1 -1,1 -2,2 -3,3 -1,2 -2,3 -3,5 -1,1 -2,3 -3,4 0,1 0,3 -1,4 0,1 0,3 0,4 0,1 0,2 0,3 1,1 1,1 2,1 2,1 4,0 7,-2 2,-2 5,-2 8,-1 1,0 2,0 2,1zm24 -24c0,1 0,1 0,2 -1,1 -2,3 -2,4 -1,2 -2,4 -2,5 -1,2 -2,4 -2,6 -1,2 -1,4 -2,5 -1,2 -1,4 -2,6 0,1 -1,3 -1,4 0,0 0,1 -1,1 0,0 -1,0 -2,0 -1,-1 -1,-1 -2,-1 -1,0 -2,-1 -3,-1 0,0 -1,-1 -1,-1 0,-1 -1,-1 0,-2 0,-1 0,-2 0,-4 0,-1 1,-3 1,-5 1,-2 1,-4 2,-6 0,-2 1,-4 1,-6 1,-2 1,-3 2,-5 0,-2 1,-3 1,-5 0,0 1,-1 2,-1 0,0 1,0 2,0 1,0 2,1 4,1 1,1 2,1 3,2 1,1 1,1 2,1zm14 26c-2,0 -5,0 -7,1 -1,1 -1,2 -2,3 0,1 -1,2 -2,2 0,1 0,1 -1,1 0,0 -1,0 -1,0 -1,0 -1,0 -2,-1 -1,0 -1,0 -2,0 0,0 0,-1 -1,-1 0,0 0,0 -1,0 0,-1 0,-1 0,-1 0,-1 0,-1 1,-2 1,-2 2,-4 3,-6 2,-3 3,-6 5,-8 2,-3 3,-6 5,-8 2,-3 4,-5 5,-7 1,-1 1,-2 2,-2 1,-1 2,-1 4,0 2,0 3,0 4,0 1,0 2,0 3,1 1,0 2,0 3,0 1,0 1,1 2,1 1,0 2,1 2,1 1,1 1,1 0,2 0,2 0,4 0,7 -1,3 -1,5 -1,8 0,3 0,6 0,9 0,2 -1,5 -1,7 0,1 0,1 0,1 0,1 -1,1 -2,1 -1,0 -2,0 -2,-1 -1,0 -2,0 -3,0 -1,0 -1,-1 -2,-1 0,0 0,-1 0,-2 0,0 0,-1 -1,-2 0,-1 0,-2 0,-3 -2,0 -5,0 -8,0zm3 -7c2,0 3,0 5,0 0,-3 0,-5 0,-7 0,-2 0,-5 0,-7 -1,2 -3,4 -4,7 -2,2 -4,5 -6,7 2,0 3,0 5,0zm35 15c-3,0 -5,1 -7,1 -1,0 -2,0 -2,0 -1,0 -1,0 -1,0 -1,0 -1,0 -1,0 -1,0 -1,-1 -1,-1 -1,0 -1,0 -2,-1 0,0 -1,-1 -2,-1 0,0 -1,-1 -1,-2 0,0 -1,-1 0,-1 0,-1 0,-3 0,-4 1,-2 1,-3 1,-5 1,-2 1,-3 2,-5 0,-2 1,-4 1,-6 1,-2 2,-3 2,-5 1,-2 1,-3 2,-5 0,-1 1,-1 1,-1 1,0 2,0 3,0 1,0 2,1 3,1 2,1 3,1 4,2 1,0 1,1 1,1 1,1 0,1 0,2 -1,1 -1,3 -2,5 -1,2 -2,4 -3,6 0,3 -1,5 -2,7 -1,2 -1,4 -2,6 2,0 3,0 5,-1 1,0 3,0 4,0 1,0 2,0 3,1 0,0 1,0 1,1 0,0 1,1 1,1 0,1 0,1 0,2 1,0 1,1 1,1 -1,0 -1,0 -2,0 -3,1 -5,1 -7,1z"/>
  <path class="fil1" d="M239 582c1,2 1,4 1,6 1,4 0,7 0,11 -1,4 -2,8 -3,12 -2,4 -3,7 -6,10 -2,4 -4,6 -7,9 -2,1 -4,2 -6,2 -2,0 -5,0 -7,0 -2,-1 -4,-1 -6,-2 -1,0 -3,-1 -5,-2 -1,0 -2,-1 -3,-3 -1,-1 -2,-2 -3,-3 0,-2 -1,-5 -1,-8 -1,-2 -1,-5 -1,-8 1,-3 1,-6 2,-9 1,-3 2,-6 4,-9 1,-3 3,-5 5,-8 2,-2 5,-4 7,-6 2,-1 4,-2 6,-3 2,0 5,0 7,0 2,1 5,2 7,3 2,1 4,2 6,4 1,1 2,3 3,4zm-18 3c-2,1 -3,2 -4,4 -2,2 -3,4 -4,6 -2,2 -3,5 -3,7 -1,2 -2,4 -2,6 -1,3 -1,5 -1,7 0,2 0,4 0,5 1,2 1,3 2,3 1,0 2,0 4,0 1,-1 2,-2 3,-3 1,-2 2,-4 4,-6 1,-2 2,-4 3,-7 0,-2 1,-4 2,-7 0,-3 1,-5 1,-7 0,-3 0,-5 0,-6 -1,-2 -1,-3 -2,-3 -1,-1 -2,0 -3,1zm54 4c-3,0 -7,0 -10,0 -1,2 -1,4 -2,6 -1,3 -2,5 -3,7 2,0 3,0 5,0 1,0 2,0 4,0 2,0 4,1 4,3 1,1 1,2 2,3 0,1 0,2 0,3 0,1 0,1 0,2 0,0 -1,0 -3,0 -2,1 -5,1 -8,1 -2,0 -5,1 -8,1 -1,3 -2,7 -3,10 -1,3 -2,6 -2,8 -1,1 -1,2 -2,2 -1,0 -1,0 -2,-1 -1,0 -3,0 -4,-1 -1,0 -2,-1 -3,-1 -1,-1 -2,-1 -2,-2 0,-1 0,-2 0,-3 0,-1 1,-3 1,-5 1,-3 1,-5 2,-8 1,-3 2,-6 2,-10 1,-3 2,-6 3,-10 0,-3 1,-6 1,-9 1,-3 1,-6 1,-8 2,0 4,-1 7,-1 2,0 5,0 8,0 2,0 5,-1 8,-1 3,1 6,1 9,1 0,0 1,0 1,0 1,0 1,0 2,0 0,1 0,1 1,1 0,1 0,1 1,2 1,2 1,4 1,6 1,2 0,2 0,3 0,0 -1,0 -3,0 -2,1 -5,1 -8,1zm39 3c-3,0 -6,0 -9,0 -1,2 -2,4 -3,7 0,2 -1,4 -2,7 1,0 3,0 4,-1 1,1 3,1 4,1 3,0 4,0 5,2 0,1 1,2 1,3 0,1 0,2 1,3 0,1 0,2 0,2 -1,0 -2,1 -3,1 -3,0 -5,0 -8,0 -3,1 -6,1 -8,1 -1,4 -2,7 -3,10 -1,3 -2,6 -3,9 0,0 0,1 -1,1 -1,0 -2,0 -3,0 -1,0 -2,-1 -3,-1 -1,-1 -2,-1 -3,-2 -1,0 -2,-1 -2,-2 0,0 0,-1 0,-3 0,-1 0,-3 1,-5 0,-2 1,-5 2,-8 0,-3 1,-6 2,-9 1,-4 1,-7 2,-10 1,-4 1,-7 2,-10 0,-3 0,-5 1,-8 2,0 4,0 6,-1 3,0 6,0 8,0 3,0 6,0 9,0 3,0 5,0 8,0 1,0 1,0 2,0 0,0 1,1 1,1 1,0 1,0 1,1 1,0 1,1 1,1 1,3 2,5 2,7 0,1 0,2 0,2 -1,0 -2,1 -3,1 -3,0 -6,0 -9,0zm21 -8c2,-1 5,-1 8,-1 2,0 5,-1 8,-1 3,0 6,0 8,0 3,1 5,2 5,4 1,1 1,2 1,3 0,1 1,2 1,3 0,1 0,2 -1,2 0,1 -1,1 -2,1 -3,0 -6,0 -9,0 -3,0 -6,0 -10,1 0,2 -1,4 -2,6 -1,2 -2,5 -3,7 2,0 3,0 5,0 1,0 2,0 4,0 1,0 2,0 3,1 1,0 1,1 2,2 0,1 1,1 1,2 0,1 0,2 0,3 1,1 1,2 0,2 0,1 -1,1 -2,1 -3,0 -6,1 -9,1 -3,0 -6,0 -8,1 -1,1 -1,3 -2,4 0,1 -1,2 -1,4 2,-1 4,-1 6,-1 2,0 4,0 7,0 1,0 2,0 3,1 0,0 1,1 1,2 1,1 1,1 1,2 1,1 1,2 1,3 0,1 0,1 0,2 0,0 -1,0 -2,0 -3,1 -6,1 -9,1 -3,1 -6,1 -9,1 -2,1 -4,1 -4,0 -1,0 -2,0 -3,-1 -1,0 -1,-1 -2,-2 -1,0 -1,-1 -2,-2 -1,-1 -2,-1 -2,-2 0,-1 0,-2 0,-4l10 -45c2,-1 5,-1 7,-1zm37 52c0,3 -1,5 -2,8 0,0 -1,1 -1,1 0,0 -1,0 -2,0 -1,-1 -3,-1 -3,-1 -1,-1 -2,-1 -3,-2 -1,0 -2,-1 -2,-2 0,0 0,-1 0,-2 0,-1 0,-3 1,-5 0,-1 1,-4 1,-6 0,-2 1,-5 1,-7 1,-3 1,-6 2,-8 1,-3 1,-5 2,-8 0,-2 1,-5 2,-7 0,-2 1,-3 2,-5 0,-1 1,-2 2,-2 3,-1 6,-2 9,-3 3,-1 6,-2 9,-2 3,0 6,0 9,1 3,0 5,2 7,4 1,2 3,4 4,6 1,2 2,5 2,8 1,3 0,5 -1,7 -2,3 -5,6 -9,8 -4,3 -9,5 -14,7 1,1 2,2 3,4 1,1 3,3 4,4 1,2 2,3 4,4 1,2 2,3 3,4 1,1 1,1 1,2 0,0 -1,1 -1,1 -1,1 -2,1 -2,1 -1,0 -2,0 -3,1 -1,0 -2,0 -3,-1 -1,0 -3,0 -4,-2 -1,0 -2,-1 -4,-3 -1,-1 -2,-2 -4,-4 -1,-1 -2,-3 -4,-4 -1,-2 -2,-3 -3,-5 -1,3 -2,6 -3,8zm10 -28c-1,3 -2,5 -3,8 3,0 6,-2 8,-3 3,-1 5,-3 7,-4 2,-2 3,-3 4,-4 1,-2 1,-3 1,-4 0,-1 -2,-2 -5,-2 -1,0 -3,0 -4,0 -2,0 -4,1 -6,2 0,2 -1,4 -2,7z"/>
  <polygon class="fil17" points="208,675 337,667 404,674 397,684 "/>
  <polygon class="fil18" points="163,506 167,423 180,495 453,513 437,512 184,506 184,506 "/>
  <g id="_822390272">
   <path class="fil1" d="M405 380c-10,0 -10,16 1,16 10,0 10,-16 -1,-16zm0 -5c18,-1 18,26 1,26 -18,0 -18,-26 -1,-26z"/>
   <polygon class="fil1" points="429,380 429,385 435,385 435,390 429,390 429,400 424,401 423,375 436,375 436,380 "/>
   <polygon class="fil1" points="446,380 446,385 452,385 452,390 446,390 446,400 441,400 440,375 453,374 453,380 "/>
   <path class="fil1" d="M436 363c6,0 6,-10 0,-10 -7,0 -7,10 0,10zm0 7c-17,0 -17,-24 -1,-24 17,-1 18,24 1,24zm-30 -38c6,0 6,-10 0,-10 -7,0 -7,10 0,10zm37 -17l-34 55 -11 0 34 -55 11 0zm-37 24c-17,0 -17,-24 0,-24 16,-1 17,24 0,24z"/>
  </g>
  <path class="fil1" d="M196 376l37 -1 -1 -15 -36 0 0 16zm67 29l22 0c1,-38 4,-56 25,-82l0 -14 -65 1 0 19 42 -1c-17,25 -23,45 -24,77zm94 0c20,0 33,-18 33,-50 -1,-32 -14,-49 -34,-48 -21,0 -34,17 -33,49 0,32 14,50 34,49zm0 -17c-8,0 -13,-6 -14,-32 0,-26 5,-32 13,-32 7,0 13,5 13,31 1,26 -5,33 -12,33z"/>
  <path class="fil19" d="M57 399l-4 0 0 -4 -9 0 0 4 -5 0 0 -8 2 0c1,-1 1,-2 1,-4l1 -20 12 0 0 24 2 0 0 8zm-10 -28l-1 16c0,2 0,3 -1,4l6 0 0 -20 -4 0zm18 2l0 15c0,2 1,3 2,3 2,0 2,-1 2,-3l0 -15c0,-1 0,-2 -2,-2 -1,0 -2,1 -2,2zm-5 15l0 -14c0,-3 1,-4 2,-6 1,-1 3,-1 5,-1 2,0 4,0 5,1 1,2 2,3 2,6l0 14c0,2 -1,4 -2,5 -1,2 -3,2 -5,2 -2,0 -4,0 -5,-2 -1,-1 -2,-3 -2,-5z"/>
  <path class="fil19" d="M126 762l0 15 -6 0 0 -36 6 0 0 16 6 0 0 -16 6 0 0 36 -6 0 0 -15 -6 0zm29 -21l6 36 -6 0 0 -7 -7 0 -1 7 -5 0 5 -36 8 0zm-4 7l-3 18 6 0 -3 -18zm19 -2l0 -5 17 0 0 5 -6 0 0 31 -5 0 0 -31 -6 0zm26 4l0 19c0,2 1,3 3,3 2,0 3,-1 3,-3l0 -19c0,-3 -1,-4 -3,-4 -2,0 -3,1 -3,4zm-5 18l0 -18c0,-3 0,-5 2,-7 1,-1 3,-2 6,-2 3,0 5,1 6,2 2,2 2,4 2,7l0 18c0,3 0,5 -2,7 -1,2 -3,2 -6,2 -3,0 -5,0 -6,-2 -2,-2 -2,-4 -2,-7zm30 -27c3,0 5,1 6,2 1,2 2,4 2,7l0 1c0,3 -1,6 -4,7 3,1 5,4 5,8l0 2c0,3 -1,5 -3,7 -1,1 -3,2 -6,2l-9 0 0 -36 9 0zm-1 20l-2 0 0 11 3 0c1,0 2,0 2,-1 1,0 1,-1 1,-3l0 -3c0,-1 0,-2 -1,-3 0,-1 -1,-1 -3,-1zm1 -15l-3 0 0 10 2 0c1,0 2,0 3,-1 0,-1 0,-2 0,-3l0 -2c0,-2 0,-4 -2,-4zm26 -5l5 36 -5 0 -1 -7 -7 0 -1 7 -5 0 6 -36 8 0zm-5 7l-2 18 5 0 -3 -18zm23 -7c5,0 8,3 8,9l0 5c0,6 -3,9 -8,9l-3 0 0 13 -6 0 0 -36 9 0zm0 5l-3 0 0 13 3 0c0,0 1,-1 2,-1 0,-1 0,-2 0,-3l0 -5c0,-1 0,-2 0,-3 -1,0 -2,-1 -2,-1zm20 31l-8 0 0 -36 5 0 0 14 3 0c6,0 8,3 8,9l0 4c0,6 -2,9 -8,9zm-3 -5l3 0c1,0 2,0 2,-1 0,0 1,-1 1,-3l0 -5c0,-1 -1,-2 -1,-2 0,-1 -1,-1 -2,-1l-3 0 0 12zm20 5l-6 0 0 -36 6 0 0 36zm20 -36c3,0 5,1 7,2 1,2 2,4 2,7l0 1c0,3 -2,6 -4,7 3,1 4,4 4,8l0 2c0,3 0,5 -2,7 -1,1 -3,2 -6,2l-9 0 0 -36 8 0zm0 20l-2 0 0 11 3 0c1,0 1,0 2,-1 0,0 1,-1 1,-3l0 -3c0,-1 -1,-2 -1,-3 -1,-1 -2,-1 -3,-1zm0 -15l-2 0 0 10 2 0c1,0 2,0 2,-1 1,-1 1,-2 1,-3l0 -2c0,-2 -1,-4 -3,-4zm33 31l-5 -14 -2 3 0 11 -6 0 0 -36 6 0 0 16 7 -16 6 0 -8 16 8 20 -6 0zm22 -36l6 36 -6 0 -1 -7 -7 0 -1 7 -5 0 6 -36 8 0zm-4 7l-3 18 5 0 -2 -18zm12 -2l0 -5 17 0 0 5 -5 0 0 31 -6 0 0 -31 -6 0zm34 -5l5 36 -5 0 -1 -7 -7 0 -1 7 -5 0 5 -36 9 0zm-5 7l-3 18 6 0 -3 -18zm13 29l0 -5c1,0 2,0 2,-1 1,0 1,-1 1,-3l1 -27 16 0 0 36 -6 0 0 -31 -5 0 0 22c-1,3 -1,6 -3,7 -1,1 -3,2 -6,2l0 0zm30 -27l0 19c0,2 1,3 3,3 2,0 3,-1 3,-3l0 -19c0,-3 -1,-4 -3,-4 -2,0 -3,1 -3,4zm-5 18l0 -18c0,-3 1,-5 2,-7 1,-1 4,-2 6,-2 3,0 5,1 7,2 1,2 2,4 2,7l0 18c0,3 -1,5 -2,7 -2,2 -4,2 -7,2 -2,0 -5,0 -6,-2 -1,-2 -2,-4 -2,-7zm27 9l-5 0 0 -36 14 0 0 5 -9 0 0 31zm20 -31l0 10 8 0 0 5 -8 0 0 11 10 0 0 5 -15 0 0 -36 15 0 0 5 -10 0z"/>
  <path class="fil11" d="M219 490l-7 0 0 -6 -15 0 0 6 -6 0 0 -12 2 0c1,-1 2,-3 2,-6l2 -32 19 0 0 38 3 0 0 12zm-16 -43l-1 25c0,3 -1,5 -2,6l9 0 0 -31 -6 0zm28 3l0 24c0,3 1,4 3,4 3,0 4,-1 4,-4l0 -24c0,-3 -1,-4 -4,-4 -2,0 -3,1 -3,4zm-7 24l0 -23c0,-4 1,-6 3,-8 1,-2 4,-3 7,-3 4,0 6,1 8,3 2,2 3,4 3,8l0 23c0,3 -1,6 -3,8 -2,2 -4,3 -8,3 -3,0 -6,-1 -7,-3 -2,-2 -3,-5 -3,-8zm35 -9l0 -6 12 0 0 6 -12 0zm18 0l0 -6 13 0 0 6 -13 0zm19 12l6 0 0 7 -6 0 0 -7zm13 -12l0 -6 12 0 0 6 -12 0zm18 0l0 -6 13 0 0 6 -13 0zm19 12l7 0 0 7 -7 0 0 -7zm27 -26c0,-2 0,-3 -1,-4 0,-1 -1,-1 -3,-1 -2,0 -3,1 -3,4l0 5 -7 0 0 -4c0,-4 1,-6 3,-8 2,-2 4,-3 8,-3 3,0 6,1 7,3 2,2 3,4 3,8 0,2 -1,5 -1,7 -1,2 -3,4 -4,6 -1,2 -3,3 -4,4 -1,2 -2,3 -3,5 -1,1 -2,3 -2,4 0,0 0,1 0,1l13 0 0 6 -20 0 0 -5c0,-3 1,-5 2,-7 1,-2 2,-4 3,-5 2,-2 3,-3 4,-4 2,-2 3,-4 4,-6 1,-1 1,-4 1,-6zm19 -1l0 24c0,3 1,4 4,4 2,0 3,-1 3,-4l0 -24c0,-3 -1,-4 -3,-4 -3,0 -4,1 -4,4zm-7 24l0 -23c0,-4 1,-6 3,-8 2,-2 4,-3 8,-3 3,0 6,1 7,3 2,2 3,4 3,8l0 23c0,3 -1,6 -3,8 -1,2 -4,3 -7,3 -4,0 -6,-1 -8,-3 -2,-2 -3,-5 -3,-8zm31 -23l0 -5c3,0 5,-1 6,-2 1,-1 1,-2 2,-4l5 0 0 44 -7 0 0 -33 -6 0zm22 14l0 -6 13 0 0 6 -13 0z"/>
 </g>
</svg>
