<?xml version="1.0" encoding="UTF-8"?>
<!DOCTYPE svg PUBLIC "-//W3C//DTD SVG 1.1//EN" "http://www.w3.org/Graphics/SVG/1.1/DTD/svg11.dtd">
<!-- Creator: CorelDRAW X8 -->
<svg xmlns="http://www.w3.org/2000/svg" xml:space="preserve" width="100.841mm" height="161.174mm" version="1.1" style="shape-rendering:geometricPrecision; text-rendering:geometricPrecision; image-rendering:optimizeQuality; fill-rule:evenodd; clip-rule:evenodd"
viewBox="0 0 551 881"
 xmlns:xlink="http://www.w3.org/1999/xlink">
 <defs>
  <style type="text/css">
   <![CDATA[
    .str0 {stroke:#E0E0E0;stroke-width:0.416644;stroke-opacity:0.741176}
    .fil2 {fill:none}
    .fil5 {fill:#F2F3F5}
    .fil15 {fill:#FEFEFE;fill-rule:nonzero}
    .fil16 {fill:#474747;fill-rule:nonzero}
    .fil10 {fill:#4F0417;fill-rule:nonzero}
    .fil12 {fill:#730621;fill-rule:nonzero}
    .fil11 {fill:#B0002C;fill-rule:nonzero}
    .fil13 {fill:#CBAC6F;fill-rule:nonzero}
    .fil14 {fill:#D4B476;fill-rule:nonzero}
    .fil1 {fill:white;fill-rule:nonzero}
    .fil0 {fill:url(#id0)}
    .fil3 {fill:url(#id1);fill-rule:nonzero}
    .fil6 {fill:url(#id2);fill-rule:nonzero}
    .fil9 {fill:url(#id3);fill-rule:nonzero}
    .fil7 {fill:url(#id4);fill-rule:nonzero}
    .fil4 {fill:url(#id5);fill-rule:nonzero}
    .fil8 {fill:url(#id6);fill-rule:nonzero}
   ]]>
  </style>
  <linearGradient id="id0" gradientUnits="userSpaceOnUse" x1="20.1996" y1="170.116" x2="531.175" y2="711.145">
   <stop offset="0" style="stop-opacity:1; stop-color:#F71B3F"/>
   <stop offset="1" style="stop-opacity:1; stop-color:#B0002C"/>
  </linearGradient>
  <linearGradient id="id1" gradientUnits="userSpaceOnUse" x1="-0.0691466" y1="440.698" x2="36.6569" y2="440.565">
   <stop offset="0" style="stop-opacity:0.717647; stop-color:#99062B"/>
   <stop offset="0.196078" style="stop-opacity:0; stop-color:#99062B"/>
   <stop offset="0.65098" style="stop-opacity:0; stop-color:#99062B"/>
   <stop offset="1" style="stop-opacity:0; stop-color:#99062B"/>
  </linearGradient>
  <linearGradient id="id2" gradientUnits="userSpaceOnUse" x1="275.687" y1="194.943" x2="275.686" y2="325.403">
   <stop offset="0" style="stop-opacity:1; stop-color:#CED2DB"/>
   <stop offset="0.619608" style="stop-opacity:0; stop-color:#E0E2E8"/>
   <stop offset="1" style="stop-opacity:0; stop-color:#F2F3F5"/>
  </linearGradient>
  <linearGradient id="id3" gradientUnits="userSpaceOnUse" x1="551.448" y1="458.013" x2="511.855" y2="457.747">
   <stop offset="0" style="stop-opacity:0.717647; stop-color:#939AAB"/>
   <stop offset="0.196078" style="stop-opacity:0; stop-color:#AAAFBB"/>
   <stop offset="0.65098" style="stop-opacity:0; stop-color:#C2C5CC"/>
   <stop offset="1" style="stop-opacity:0; stop-color:#C2C5CC"/>
  </linearGradient>
  <linearGradient id="id4" gradientUnits="userSpaceOnUse" xlink:href="#id2" x1="275.687" y1="720.817" x2="275.687" y2="590.357">
  </linearGradient>
  <linearGradient id="id5" gradientUnits="userSpaceOnUse" x1="551.443" y1="440.698" x2="514.717" y2="440.565">
   <stop offset="0" style="stop-opacity:0.717647; stop-color:#5C0017"/>
   <stop offset="0.196078" style="stop-opacity:0; stop-color:#5C0017"/>
   <stop offset="0.65098" style="stop-opacity:0; stop-color:#5C0017"/>
   <stop offset="1" style="stop-opacity:0; stop-color:#5C0017"/>
  </linearGradient>
  <linearGradient id="id6" gradientUnits="userSpaceOnUse" xlink:href="#id3" x1="-0.0743438" y1="458.013" x2="39.5192" y2="457.747">
  </linearGradient>
 </defs>
 <g id="Layer_x0020_1">
  <metadata id="CorelCorpID_0Corel-Layer"/>
  <polygon class="fil0" points="0,0 551,0 551,881 0,881 "/>
  <path class="fil1" d="M67 48l0 68 -13 0 0 -80 40 0 0 80 -13 0 0 -68 -14 0zm58 -12c12,0 18,7 18,20l0 11c0,13 -6,19 -18,19l-6 0 0 30 -13 0 0 -80 19 0zm0 12l-6 0 0 27 6 0c2,0 3,-1 4,-2 1,-1 2,-3 2,-6l0 -12c0,-2 -1,-4 -2,-5 -1,-2 -2,-2 -4,-2zm51 32l-11 36 -13 0 0 -80 11 0 0 51 5 -18 10 -33 14 0 0 80 -11 0 0 -56 -5 20zm67 -19l0 -5c0,-3 0,-6 -2,-7 -1,-1 -2,-2 -4,-2 -5,0 -7,3 -7,8l0 6 -12 0 0 -6c0,-6 2,-11 5,-14 3,-4 8,-5 14,-5 6,0 11,1 14,5 3,3 5,8 5,15l0 2c0,8 -3,14 -9,16 6,3 9,8 9,17l0 6c0,7 -2,12 -5,15 -3,4 -8,5 -14,5 -6,0 -11,-1 -14,-5 -3,-3 -5,-8 -5,-15l0 -9 12 0 0 10c0,5 2,8 7,8 2,0 3,-1 4,-2 2,-1 2,-4 2,-7l0 -6c0,-4 -1,-7 -2,-8 -1,-2 -3,-3 -6,-3l-3 0 0 -11 4 0c2,0 4,-1 5,-2 1,-1 2,-3 2,-6zm52 -25l13 80 -13 0 -2 -14 -15 0 -3 14 -11 0 13 -80 18 0zm-10 15l-6 40 12 0 -6 -40zm60 65l-12 -31 -4 7 0 24 -12 0 0 -80 12 0 0 35 17 -35 12 0 -17 36 17 44 -13 0zm50 -80l13 80 -13 0 -2 -14 -16 0 -2 14 -11 0 13 -80 18 0zm-10 15l-6 40 12 0 -6 -40zm56 10l0 -5c0,-3 -1,-6 -2,-7 -1,-1 -2,-2 -5,-2 -4,0 -6,3 -6,8l0 6 -12 0 0 -6c0,-6 2,-11 5,-14 3,-4 8,-5 14,-5 6,0 10,1 14,5 3,3 4,8 4,15l0 2c0,8 -2,14 -8,16 6,3 8,8 8,17l0 6c0,7 -1,12 -4,15 -4,4 -8,5 -14,5 -6,0 -11,-1 -14,-5 -3,-3 -5,-8 -5,-15l0 -9 12 0 0 10c0,5 2,8 6,8 3,0 4,-1 5,-2 1,-1 2,-4 2,-7l0 -6c0,-4 -1,-7 -2,-8 -1,-2 -3,-3 -6,-3l-3 0 0 -11 3 0c3,0 5,-1 6,-2 1,-1 2,-3 2,-6zm37 -13l0 22 17 0 0 12 -17 0 0 23 21 0 0 11 -34 0 0 -80 34 0 0 12 -21 0z"/>
  <path class="fil1" d="M122 180l0 -4 -3 0c-6,0 -9,-3 -9,-10l0 -11c0,-7 3,-10 9,-10l3 0 0 -5 6 0 0 5 2 0c6,0 9,3 9,10l0 11c0,7 -3,10 -9,10l-2 0 0 4 -6 0zm8 -29l-2 0 0 19 2 0c2,0 3,-1 3,-4l0 -11c0,-3 -1,-4 -3,-4zm-8 19l0 -19 -3 0c-2,0 -3,1 -3,4l0 11c0,3 1,4 3,4l3 0zm29 -20l0 21c0,3 1,4 3,4 2,0 3,-1 3,-4l0 -21c0,-3 -1,-4 -3,-4 -2,0 -3,1 -3,4zm-6 21l0 -21c0,-3 0,-6 2,-8 2,-1 4,-2 7,-2 3,0 6,1 7,2 2,2 3,5 3,8l0 21c0,3 -1,5 -3,7 -1,2 -4,3 -7,3 -3,0 -5,-1 -7,-3 -2,-2 -2,-4 -2,-7zm34 -31c6,0 9,4 9,10l0 5c0,7 -3,10 -9,10l-3 0 0 15 -7 0 0 -40 10 0zm0 6l-3 0 0 14 3 0c1,0 1,-1 2,-1 0,-1 1,-2 1,-3l0 -6c0,-2 -1,-3 -1,-3 -1,-1 -1,-1 -2,-1zm22 -6l5 29 4 -29 9 0 0 40 -6 0 0 -28 -5 28 -5 0 -5 -28 0 28 -6 0 0 -40 9 0zm33 40l-9 0 0 -40 6 0 0 15 3 0c6,0 9,4 9,10l0 5c0,7 -3,10 -9,10zm-3 -5l3 0c1,0 2,-1 2,-1 1,-1 1,-2 1,-3l0 -6c0,-2 0,-2 -1,-3 0,-1 -1,-1 -2,-1l-3 0 0 14zm22 5l-6 0 0 -40 6 0 0 40zm20 -17l0 17 -6 0 0 -40 6 0 0 17 7 0 0 -17 7 0 0 40 -7 0 0 -17 -7 0zm34 -23l6 40 -6 0 -1 -7 -8 0 -1 7 -6 0 6 -40 10 0zm-5 7l-3 21 6 0 -3 -21zm35 5l0 -2c0,-2 0,-3 -1,-3 0,-1 -1,-1 -2,-1 -2,0 -4,1 -4,4l0 3 -5 0 0 -3c0,-3 0,-6 2,-8 2,-1 4,-2 7,-2 3,0 5,1 7,2 2,2 2,5 2,8l0 1c0,4 -1,7 -4,8 3,1 4,4 4,9l0 3c0,3 0,5 -2,7 -2,2 -4,3 -7,3 -3,0 -5,-1 -7,-3 -2,-2 -2,-4 -2,-7l0 -5 5 0 0 5c0,3 2,4 4,4 1,0 2,0 2,-1 1,-1 1,-2 1,-3l0 -4c0,-1 0,-3 -1,-3 -1,-1 -2,-2 -3,-2l-2 0 0 -5 2 0c1,0 2,-1 3,-1 1,-1 1,-2 1,-4zm26 -12l6 40 -6 0 -1 -7 -8 0 -1 7 -6 0 7 -40 9 0zm-5 7l-3 21 6 0 -3 -21zm30 33l-6 -16 -2 4 0 12 -6 0 0 -40 6 0 0 18 8 -18 7 0 -9 18 9 22 -7 0zm25 -40l6 40 -6 0 -1 -7 -8 0 -1 7 -6 0 7 -40 9 0zm-5 7l-3 21 6 0 -3 -21zm28 5l0 -2c0,-2 0,-3 -1,-3 0,-1 -1,-1 -2,-1 -3,0 -4,1 -4,4l0 3 -5 0 0 -3c0,-3 0,-6 2,-8 1,-1 4,-2 7,-2 3,0 5,1 7,2 1,2 2,5 2,8l0 1c0,4 -1,7 -4,8 3,1 4,4 4,9l0 3c0,3 -1,5 -2,7 -2,2 -4,3 -7,3 -3,0 -6,-1 -7,-3 -2,-2 -3,-4 -3,-7l0 -5 6 0 0 5c0,3 1,4 4,4 1,0 2,0 2,-1 1,-1 1,-2 1,-3l0 -4c0,-1 0,-3 -1,-3 -1,-1 -2,-2 -3,-2l-2 0 0 -5 2 0c1,0 2,-1 3,-1 1,-1 1,-2 1,-4z"/>
  <polygon class="fil2 str0" points="134,748 450,748 450,829 134,829 "/>
  <path class="fil1" d="M186 776l-6 23c-1,2 -2,4 -3,5 -1,1 -2,1 -5,1l0 -3c1,0 2,0 3,0 0,-1 1,-2 1,-3l1 -2 -7 -21 3 0 3 10 2 7 2 -7 3 -10 3 0zm10 0c2,0 4,0 5,2 1,1 1,3 1,5l0 3 -3 0 0 -3c0,-3 -1,-4 -3,-4 -2,0 -3,1 -3,4l0 15c0,3 1,4 3,4 2,0 3,-1 3,-4l0 -4 3 0 0 4c0,2 0,4 -1,5 -1,2 -3,2 -5,2 -2,0 -4,0 -5,-2 -1,-1 -2,-3 -2,-5l0 -15c0,-2 1,-4 2,-5 1,-2 3,-2 5,-2zm22 3l-5 0 -1 19c0,2 0,4 -1,5 -1,2 -3,2 -5,2l0 0 0 -3c1,0 2,0 2,-1 1,0 1,-1 1,-3l1 -22 12 0 0 29 -4 0 0 -26zm8 19l0 -15c0,-2 1,-4 2,-5 1,-2 2,-2 5,-2 2,0 4,0 5,2 1,1 1,3 1,5l0 15c0,2 0,4 -1,5 -1,2 -3,2 -5,2 -3,0 -4,0 -5,-2 -1,-1 -2,-3 -2,-5zm3 -15l0 15c0,3 1,4 4,4 2,0 3,-1 3,-4l0 -15c0,-3 -1,-4 -3,-4 -3,0 -4,1 -4,4zm15 -7l6 0c2,0 4,0 5,1 1,2 1,3 1,5l0 2c0,1 0,3 0,4 -1,1 -2,1 -3,2 3,0 4,2 4,6l0 2c0,5 -2,7 -7,7l-6 0 0 -29zm3 12l2 0c2,0 3,0 3,-1 1,0 1,-1 1,-3l0 -1c0,-2 0,-3 0,-3 -1,-1 -2,-1 -3,-1l-3 0 0 9zm0 14l3 0c3,0 4,-1 4,-4l0 -2c0,-2 -1,-3 -1,-4 -1,0 -2,-1 -3,-1l-3 0 0 11zm25 -20l-3 10 -5 13 -3 0 0 -29 3 0 0 22 3 -10 4 -12 4 0 0 29 -3 0 0 -23zm17 11l-2 0c-2,0 -3,0 -3,1 -1,0 -1,1 -1,3l0 5c0,1 -1,2 -1,3l-3 0c0,-1 0,-2 0,-3l0 -5c0,-3 2,-5 4,-6 -2,-1 -4,-3 -4,-6l0 -2c0,-3 1,-4 2,-5 1,-2 3,-2 5,-2l6 0 0 29 -3 0 0 -12zm0 -14l-3 0c-2,0 -3,1 -3,4l0 3c0,1 0,2 1,3 0,0 1,1 3,1l2 0 0 -11zm20 -3l6 0c2,0 4,0 5,1 1,2 2,3 2,5l0 2c0,1 -1,3 -1,4 -1,1 -2,1 -3,2 3,0 4,2 4,6l0 2c0,5 -2,7 -7,7l-6 0 0 -29zm3 12l2 0c2,0 3,0 3,-1 1,0 1,-1 1,-3l0 -1c0,-2 0,-3 0,-3 -1,-1 -2,-1 -3,-1l-3 0 0 9zm0 14l3 0c3,0 4,-1 4,-4l0 -2c0,-2 0,-3 -1,-4 -1,0 -2,-1 -3,-1l-3 0 0 11zm25 -10l-8 0 0 13 -3 0 0 -29 3 0 0 13 8 0 0 -13 3 0 0 29 -3 0 0 -13zm22 -16l-6 23c0,2 -1,4 -2,5 -1,1 -3,1 -6,1l0 -3c2,0 2,0 3,0 1,-1 1,-2 1,-3l1 -2 -7 -21 4 0 3 10 2 7 1 -7 3 -10 3 0zm12 29l-4 0 0 -26 -5 0 0 -3 14 0 0 3 -5 0 0 26zm9 -29l6 0c4,0 6,2 6,7l0 4c0,4 -2,7 -6,7l-3 0 0 11 -3 0 0 -29zm3 15l3 0c1,0 2,-1 2,-1 1,-1 1,-2 1,-3l0 -4c0,-1 0,-3 -1,-3 0,-1 -1,-1 -2,-1l-3 0 0 12zm24 -9l-3 10 -5 13 -3 0 0 -29 3 0 0 22 3 -10 4 -12 4 0 0 29 -3 0 0 -23z"/>
  <polygon class="fil3" points="0,881 0,0 37,0 37,881 "/>
  <polygon class="fil4" points="551,881 551,0 515,0 515,881 "/>
  <g id="_822387104">
   <polygon class="fil5" points="0,202 551,202 551,714 0,714 "/>
   <polygon class="fil6" points="0,202 551,202 551,319 0,319 "/>
   <polygon class="fil7" points="551,714 0,714 0,597 551,597 "/>
   <polygon class="fil8" points="0,714 0,202 39,202 39,714 "/>
   <polygon class="fil9" points="551,714 551,202 512,202 512,714 "/>
  </g>
  <polygon class="fil10" points="402,578 122,551 180,248 456,303 "/>
  <polygon class="fil11" points="441,281 160,266 148,424 431,420 "/>
  <polygon class="fil12" points="431,420 441,281 416,396 149,413 148,419 403,420 415,420 "/>
  <polygon class="fil13" points="420,565 431,420 148,424 138,564 "/>
  <polygon class="fil1" points="141,413 443,413 447,429 141,428 "/>
  <polygon class="fil14" points="192,576 266,576 383,608 "/>
  <polygon class="fil11" points="203,243 435,256 444,233 "/>
  <polygon class="fil12" points="250,254 313,269 442,274 437,265 "/>
  <polygon class="fil11" points="141,347 142,344 119,526 104,505 "/>
  <g id="_822388472">
   <path class="fil15" d="M365 362c-8,1 -8,14 0,14 9,0 9,-14 0,-14zm0 -4c15,0 16,23 0,23 -15,0 -15,-23 0,-23z"/>
   <polygon class="fil15" points="385,363 385,367 391,367 391,371 385,371 385,380 381,380 381,358 392,358 392,363 "/>
   <polygon class="fil15" points="400,363 400,367 405,367 405,371 400,371 400,380 395,380 395,358 406,358 406,363 "/>
   <path class="fil15" d="M391 348c6,0 6,-8 0,-8 -5,0 -5,8 0,8zm1 6c-15,0 -15,-21 -1,-21 15,0 15,21 1,21zm-26 -33c6,0 6,-8 0,-8 -5,0 -5,8 0,8zm33 -14l-31 47 -9 0 30 -47 10 0zm-33 20c-14,0 -14,-20 0,-20 15,0 15,20 0,20z"/>
  </g>
  <path class="fil1" d="M187 357l31 0 0 -14 -31 0 0 14zm67 27c16,0 30,-9 30,-24 0,-10 -7,-17 -16,-20l0 0c9,-4 13,-10 13,-18 0,-15 -11,-23 -27,-23 -10,1 -18,5 -26,11l10 11c5,-4 9,-7 15,-7 6,0 10,4 10,9 0,7 -5,11 -19,11l0 13c17,0 21,5 21,12 0,6 -5,10 -13,10 -7,0 -13,-4 -17,-9l-9 12c6,7 15,12 28,12zm70 0c17,0 28,-15 28,-43 0,-28 -11,-42 -28,-42 -18,0 -29,15 -29,42 0,28 11,43 29,43zm0 -15c-7,0 -11,-6 -12,-28 0,-22 5,-27 12,-27 6,0 11,5 11,27 0,22 -5,28 -11,28z"/>
  <path class="fil10" d="M180 458l0 31 -5 0 0 -36 18 0 0 36 -6 0 0 -31 -7 0zm-15 59l0 -2c0,-2 0,-3 -1,-4 0,0 -1,-1 -2,-1 -2,0 -3,2 -3,4l0 3 -5 0 0 -3c0,-3 0,-5 2,-6 1,-2 3,-3 6,-3 3,0 5,1 6,3 2,1 3,3 3,6l0 1c0,4 -2,7 -4,8 2,1 4,3 4,7l0 3c0,3 -1,5 -3,7 -1,1 -3,2 -6,2 -3,0 -5,-1 -6,-2 -2,-2 -2,-4 -2,-7l0 -4 5 0 0 4c0,3 1,4 3,4 1,0 2,0 2,-1 1,-1 1,-2 1,-3l0 -3c0,-2 0,-3 -1,-3 -1,-1 -2,-2 -3,-2l-1 0 0 -5 1 0c2,0 2,0 3,-1 1,0 1,-1 1,-2zm22 -11l6 36 -6 0 -1 -7 -7 0 -1 7 -5 0 6 -36 8 0zm-5 6l-2 18 5 0 -3 -18zm26 30l-5 -15 -2 4 0 11 -6 0 0 -36 6 0 0 15 7 -15 6 0 -8 16 8 20 -6 0zm21 -36l6 36 -6 0 -1 -7 -7 0 -1 7 -5 0 6 -36 8 0zm-4 6l-3 18 5 0 -2 -18zm23 5l0 -2c0,-2 0,-3 0,-4 -1,0 -1,-1 -2,-1 -2,0 -3,2 -3,4l0 3 -6 0 0 -3c0,-3 1,-5 2,-6 2,-2 4,-3 7,-3 2,0 5,1 6,3 1,1 2,3 2,6l0 1c0,4 -1,7 -4,8 3,1 4,3 4,7l0 3c0,3 -1,5 -2,7 -1,1 -4,2 -6,2 -3,0 -5,-1 -7,-2 -1,-2 -2,-4 -2,-7l0 -4 6 0 0 4c0,3 1,4 3,4 1,0 1,0 2,-1 0,-1 0,-2 0,-3l0 -3c0,-2 0,-3 0,-3 -1,-1 -2,-2 -3,-2l-2 0 0 -5 2 0c1,0 2,0 3,-1 0,0 0,-1 0,-2zm23 -11l5 36 -5 0 -1 -7 -7 0 -1 7 -6 0 6 -36 9 0zm-5 6l-3 18 6 0 -3 -18zm31 30l0 -4 -2 0c-6,0 -9,-3 -9,-9l0 -10c0,-6 3,-9 9,-9l2 0 0 -4 6 0 0 4 2 0c5,0 8,3 8,9l0 10c0,6 -3,9 -8,9l-2 0 0 4 -6 0zm8 -27l-2 0 0 18 2 0c2,0 2,-1 2,-4l0 -10c0,-3 0,-4 -2,-4zm-8 18l0 -18 -2 0c-2,0 -3,1 -3,4l0 10c0,3 1,4 3,4l2 0zm25 -19l0 19c0,3 1,4 3,4 2,0 3,-1 3,-4l0 -19c0,-2 -1,-4 -3,-4 -2,0 -3,2 -3,4zm-6 19l0 -19c0,-3 1,-5 3,-6 1,-2 3,-3 6,-3 3,0 5,1 6,3 2,1 3,3 3,6l0 19c0,3 -1,5 -3,7 -1,1 -3,2 -6,2 -3,0 -5,-1 -6,-2 -2,-2 -3,-4 -3,-7zm30 -27c5,0 8,3 8,9l0 4c0,6 -3,9 -8,9l-3 0 0 14 -6 0 0 -36 9 0zm0 5l-3 0 0 12 3 0c1,0 1,0 2,-1 0,0 0,-1 0,-2l0 -6c0,-1 0,-2 0,-2 -1,-1 -1,-1 -2,-1zm19 -5l4 25 4 -25 7 0 0 36 -5 0 0 -26 -4 26 -5 0 -4 -26 0 26 -5 0 0 -36 8 0zm28 36l-8 0 0 -36 5 0 0 13 3 0c5,0 8,3 8,9l0 5c0,6 -3,9 -8,9zm-3 -5l3 0c1,0 1,-1 2,-1 0,-1 1,-2 1,-3l0 -5c0,-1 -1,-2 -1,-3 -1,0 -1,-1 -2,-1l-3 0 0 13zm20 5l-5 0 0 -36 5 0 0 36zm-205 -89c6,0 8,3 8,9l0 4c0,6 -2,9 -8,9l-3 0 0 14 -5 0 0 -36 8 0zm0 5l-3 0 0 12 3 0c1,0 2,0 2,-1 1,0 1,-1 1,-2l0 -6c0,-1 0,-2 -1,-2 0,-1 -1,-1 -2,-1zm22 14l-5 17 -6 0 0 -36 5 0 0 22 2 -7 5 -15 6 0 0 36 -5 0 0 -26 -2 9zm38 -19l-6 27c-1,3 -2,5 -4,7 -1,1 -4,2 -8,2l0 -5c2,0 3,0 4,-1 0,0 1,-1 1,-2l0 -1 -8 -27 6 0 3 12 2 8 1 -8 3 -12 6 0zm13 22l5 0 0 5c0,3 0,5 -2,7 -1,1 -3,2 -6,2 -3,0 -5,-1 -6,-2 -2,-2 -2,-4 -2,-7l0 -19c0,-3 0,-5 2,-6 1,-2 3,-3 6,-3 3,0 5,1 6,3 2,1 2,3 2,6l0 4 -5 0 0 -4c0,-2 -1,-4 -3,-4 -2,0 -3,2 -3,4l0 19c0,3 1,4 3,4 2,0 3,-1 3,-4l0 -5zm7 14l0 -5c2,0 3,-1 3,-1 0,-1 1,-2 1,-3l1 -27 16 0 0 36 -6 0 0 -31 -5 0 -1 22c0,3 0,5 -2,7 -1,1 -3,2 -6,2l-1 0zm30 -28l0 19c0,3 1,4 3,4 2,0 3,-1 3,-4l0 -19c0,-2 -1,-4 -3,-4 -2,0 -3,2 -3,4zm-5 19l0 -19c0,-3 0,-5 2,-6 1,-2 3,-3 6,-3 3,0 5,1 7,3 1,1 2,3 2,6l0 19c0,3 -1,5 -2,7 -2,1 -4,2 -7,2 -3,0 -5,-1 -6,-2 -2,-2 -2,-4 -2,-7zm29 -27c3,0 5,0 6,2 2,1 2,3 2,6l0 1c0,4 -1,6 -3,7 2,2 4,4 4,8l0 3c0,3 -1,5 -2,6 -2,2 -4,3 -7,3l-9 0 0 -36 9 0zm0 19l-3 0 0 12 3 0c1,0 2,-1 3,-1 0,-1 0,-2 0,-3l0 -3c0,-2 0,-3 -1,-4 0,0 -1,-1 -2,-1zm0 -14l-3 0 0 9 2 0c1,0 2,0 3,-1 0,0 1,-1 1,-3l0 -2c0,-2 -1,-3 -3,-3zm23 14l-5 17 -6 0 0 -36 5 0 0 22 2 -7 5 -15 6 0 0 36 -5 0 0 -26 -2 9zm22 0l-5 17 -6 0 0 -36 5 0 0 22 2 -7 5 -15 6 0 0 36 -5 0 0 -26 -2 9z"/>
  <path class="fil16" d="M25 671l0 13 -4 0 0 -31 4 0 0 13 6 0 0 -13 5 0 0 31 -5 0 0 -13 -6 0zm27 -18l5 31 -5 0 -1 -5 -6 0 -1 5 -5 0 5 -31 8 0zm-4 6l-3 15 5 0 -2 -15zm27 14l5 0 0 4c0,2 -1,4 -2,6 -1,1 -3,2 -5,2 -3,0 -5,-1 -6,-2 -1,-2 -2,-4 -2,-6l0 -16c0,-3 1,-5 2,-6 1,-2 3,-2 6,-2 2,0 4,0 5,2 1,1 2,3 2,6l0 3 -5 0 0 -4c0,-2 -1,-3 -2,-3 -2,0 -3,1 -3,3l0 17c0,2 1,3 3,3 1,0 2,-1 2,-3l0 -4zm14 -13l0 17c0,2 0,3 2,3 2,0 3,-1 3,-3l0 -17c0,-2 -1,-3 -3,-3 -2,0 -2,1 -2,3zm-5 17l0 -16c0,-3 0,-5 2,-6 1,-2 3,-2 5,-2 2,0 4,0 6,2 1,1 1,3 1,6l0 16c0,2 0,4 -1,6 -2,1 -4,2 -6,2 -2,0 -4,-1 -5,-2 -2,-2 -2,-4 -2,-6zm24 -19l0 26 -5 0 0 -31 15 0 0 31 -5 0 0 -26 -5 0zm31 -5l-5 23c-1,3 -2,5 -3,7 -2,1 -4,1 -7,1l0 -4c1,0 2,0 3,0 1,-1 1,-2 1,-3l0 0 -6 -24 4 0 3 11 2 7 1 -7 2 -11 5 0zm2 5l0 -5 15 0 0 5 -5 0 0 26 -5 0 0 -26 -5 0zm28 15l5 0 0 4c0,2 -1,4 -2,6 -2,1 -3,2 -6,2 -2,0 -4,-1 -5,-2 -1,-2 -2,-4 -2,-6l0 -16c0,-3 1,-5 2,-6 1,-2 3,-2 5,-2 3,0 4,0 6,2 1,1 2,3 2,6l0 3 -5 0 0 -4c0,-2 -1,-3 -3,-3 -1,0 -2,1 -2,3l0 17c0,2 1,3 2,3 2,0 3,-1 3,-3l0 -4zm7 -15l0 -5 15 0 0 5 -5 0 0 26 -5 0 0 -26 -5 0zm26 -5c3,0 4,1 6,2 1,1 1,3 1,5l0 1c0,4 -1,6 -3,7 3,1 4,3 4,6l0 3c0,2 -1,4 -2,5 -1,2 -3,2 -6,2l-7 0 0 -31 7 0zm0 17l-2 0 0 10 2 0c1,0 2,0 2,-1 1,0 1,-1 1,-2l0 -3c0,-1 0,-2 -1,-3 0,0 -1,-1 -2,-1zm0 -12l-2 0 0 8 1 0c1,0 2,0 3,-1 0,0 0,-1 0,-3l0 -1c0,-2 0,-3 -2,-3zm28 -5l-5 23c-1,3 -2,5 -3,7 -2,1 -4,1 -7,1l0 -4c1,0 2,0 3,0 1,-1 1,-2 1,-3l0 0 -7 -24 5 0 3 11 2 7 1 -7 2 -11 5 0zm12 24l0 -6 -4 0 0 13 -5 0 0 -31 5 0 0 13 4 0 0 -5c0,-3 0,-5 2,-6 1,-2 3,-2 5,-2 3,0 4,0 6,2 1,1 2,3 2,6l0 16c0,2 -1,4 -2,6 -2,1 -3,2 -6,2 -2,0 -4,-1 -5,-2 -2,-2 -2,-4 -2,-6zm5 -17l0 17c0,2 0,3 2,3 2,0 3,-1 3,-3l0 -17c0,-2 -1,-3 -3,-3 -2,0 -2,1 -2,3zm37 -7l0 27 2 0 0 8 -4 0 0 -4 -21 0 0 -31 5 0 0 27 4 0 0 -27 5 0 0 27 4 0 0 -27 5 0zm22 0l-5 23c-1,3 -2,5 -3,7 -1,1 -4,1 -7,1l0 -4c2,0 3,0 3,0 1,-1 1,-2 1,-3l1 0 -7 -24 5 0 2 11 2 7 1 -7 2 -11 5 0zm12 24l0 -6 -4 0 0 13 -4 0 0 -31 4 0 0 13 4 0 0 -5c0,-3 1,-5 2,-6 1,-2 3,-2 5,-2 3,0 5,0 6,2 1,1 2,3 2,6l0 16c0,2 -1,4 -2,6 -1,1 -3,2 -6,2 -2,0 -4,-1 -5,-2 -1,-2 -2,-4 -2,-6zm5 -17l0 17c0,2 1,3 2,3 2,0 3,-1 3,-3l0 -17c0,-2 -1,-3 -3,-3 -1,0 -2,1 -2,3zm19 13l5 0 0 4c0,2 1,3 3,3 1,0 2,-1 2,-3l0 -7 -4 0 0 -4 4 0 0 -6c0,-2 -1,-3 -2,-3 -2,0 -3,1 -3,3l0 3 -4 0 0 -2c0,-3 0,-5 1,-6 2,-2 3,-2 6,-2 2,0 4,0 5,2 1,1 2,3 2,6l0 16c0,2 -1,4 -2,6 -1,1 -3,2 -5,2 -3,0 -4,-1 -6,-2 -1,-2 -2,-4 -2,-6l0 -4zm31 11l-5 -12 -2 3 0 9 -5 0 0 -31 5 0 0 14 7 -14 5 0 -7 14 7 17 -5 0zm17 -14l-4 14 -5 0 0 -31 4 0 0 20 2 -7 4 -13 6 0 0 31 -5 0 0 -22 -2 8zm16 -12l0 26 -5 0 0 -31 16 0 0 31 -5 0 0 -26 -6 0zm24 12l-4 14 -5 0 0 -31 5 0 0 20 1 -7 4 -13 6 0 0 31 -5 0 0 -22 -2 8zm19 -17c5,0 7,3 7,8l0 4c0,5 -2,8 -7,8l-3 0 0 11 -5 0 0 -31 8 0zm0 5l-3 0 0 10 3 0c0,0 1,0 1,-1 1,0 1,-1 1,-2l0 -5c0,-1 0,-1 -1,-2 0,0 -1,0 -1,0zm15 2l0 17c0,2 1,3 2,3 2,0 3,-1 3,-3l0 -17c0,-2 -1,-3 -3,-3 -1,0 -2,1 -2,3zm-5 17l0 -16c0,-3 1,-5 2,-6 1,-2 3,-2 5,-2 3,0 5,0 6,2 1,1 2,3 2,6l0 16c0,2 -1,4 -2,6 -1,1 -3,2 -6,2 -2,0 -4,-1 -5,-2 -1,-2 -2,-4 -2,-6zm27 -24c2,0 4,1 5,2 1,1 2,3 2,5l0 1c0,4 -1,6 -3,7 2,1 3,3 3,6l0 3c0,2 0,4 -2,5 -1,2 -3,2 -5,2l-8 0 0 -31 8 0zm-1 17l-2 0 0 10 3 0c1,0 1,0 2,-1 0,0 0,-1 0,-2l0 -3c0,-1 0,-2 0,-3 -1,0 -2,-1 -3,-1zm0 -12l-2 0 0 8 2 0c1,0 2,0 2,-1 1,0 1,-1 1,-3l0 -1c0,-2 -1,-3 -3,-3zm24 26l-5 -12 -2 3 0 9 -5 0 0 -31 5 0 0 14 7 -14 5 0 -7 14 7 17 -5 0zm24 -31l-5 23c-1,3 -2,5 -3,7 -1,1 -4,1 -7,1l0 -4c1,0 2,0 3,0 1,-1 1,-2 1,-3l0 0 -6 -24 4 0 3 11 2 7 1 -7 2 -11 5 0z"/>
  <path class="fil16" d="M48 350l-4 0 0 -4 -8 0 0 4 -4 0 0 -7 1 0c1,-1 1,-2 1,-3l1 -18 11 0 0 21 2 0 0 7zm-9 -25l-1 15c0,1 0,2 -1,3l5 0 0 -18 -3 0zm15 2l0 14c0,1 1,2 2,2 2,0 2,-1 2,-2l0 -14c0,-1 0,-2 -2,-2 -1,0 -2,1 -2,2zm-4 13l0 -12c0,-2 1,-4 2,-5 1,-1 2,-1 4,-1 2,0 4,0 5,1 1,1 1,3 1,5l0 12c0,2 0,4 -1,5 -1,1 -3,2 -5,2 -2,0 -3,-1 -4,-2 -1,-1 -2,-3 -2,-5z"/>
 </g>
</svg>
