<?xml version="1.0" encoding="UTF-8"?>
<!DOCTYPE svg PUBLIC "-//W3C//DTD SVG 1.1//EN" "http://www.w3.org/Graphics/SVG/1.1/DTD/svg11.dtd">
<!-- Creator: CorelDRAW X8 -->
<svg xmlns="http://www.w3.org/2000/svg" xml:space="preserve" width="172.942mm" height="72.9431mm" version="1.1" style="shape-rendering:geometricPrecision; text-rendering:geometricPrecision; image-rendering:optimizeQuality; fill-rule:evenodd; clip-rule:evenodd"
viewBox="0 0 5168 2180"
 xmlns:xlink="http://www.w3.org/1999/xlink">
 <defs>
  <style type="text/css">
   <![CDATA[
    .str0 {stroke:white;stroke-width:2.27695;stroke-opacity:0.741176}
    .fil10 {fill:none}
    .fil5 {fill:#20A7DF;fill-rule:nonzero}
    .fil3 {fill:#4F0417;fill-rule:nonzero}
    .fil8 {fill:#730621;fill-rule:nonzero}
    .fil7 {fill:#B0002C;fill-rule:nonzero}
    .fil6 {fill:#B59452;fill-rule:nonzero}
    .fil4 {fill:#D4B476;fill-rule:nonzero}
    .fil2 {fill:#DBDBDB;fill-rule:nonzero}
    .fil9 {fill:#E8CB90;fill-rule:nonzero}
    .fil1 {fill:white;fill-rule:nonzero}
    .fil0 {fill:url(#id0)}
   ]]>
  </style>
  <linearGradient id="id0" gradientUnits="userSpaceOnUse" x1="2031.98" y1="2398.27" x2="3135.74" y2="-218.644">
   <stop offset="0" style="stop-opacity:1; stop-color:#A3864D"/>
   <stop offset="1" style="stop-opacity:1; stop-color:#D4B476"/>
  </linearGradient>
 </defs>
 <g id="Layer_x0020_1">
  <metadata id="CorelCorpID_0Corel-Layer"/>
  <polygon class="fil0" points="5168,0 0,0 0,2180 5168,2180 "/>
  <path class="fil1" d="M455 927l-15 0 0 -120 -24 0 0 -13 64 0 0 13 -25 0 0 120zm40 -32l0 -69c0,-11 2,-19 7,-25 5,-6 13,-9 23,-9 10,0 18,3 23,9 5,6 8,14 8,25l0 69c0,10 -3,18 -8,24 -5,6 -13,9 -23,9 -10,0 -17,-3 -23,-9 -5,-6 -7,-14 -7,-24zm14 -70l0 70c0,13 6,19 16,19 11,0 16,-6 16,-19l0 -70c0,-13 -5,-19 -16,-19 -10,0 -16,6 -16,19zm66 -31l29 0c11,0 18,2 22,7 5,5 7,12 7,22l0 6c0,8 -1,14 -3,18 -3,4 -7,7 -12,9 12,3 18,13 18,28l0 11c0,21 -11,32 -31,32l-30 0 0 -133zm14 56l12 0c6,0 11,-1 13,-4 3,-2 5,-7 5,-14l0 -7c0,-6 -1,-11 -4,-14 -2,-2 -6,-4 -11,-4l-15 0 0 43zm0 63l16 0c11,0 16,-6 16,-18l0 -12c0,-7 -2,-12 -4,-15 -3,-3 -8,-4 -15,-4l-13 0 0 49zm114 -13l-34 0 -5 27 -14 0 26 -133 21 0 26 133 -15 0 -5 -27zm-17 -90l-15 77 30 0 -15 -77zm53 -16l29 0c20,0 30,11 30,32l0 16c0,21 -10,32 -31,32l-13 0 0 53 -15 0 0 -133zm15 67l13 0c6,0 10,-1 12,-4 3,-3 4,-8 4,-14l0 -18c0,-6 -1,-10 -3,-13 -3,-3 -6,-5 -12,-5l-14 0 0 54zm75 -15l14 0c20,0 30,11 30,32l0 16c0,22 -9,33 -29,33l-29 0 0 -133 14 0 0 52zm57 -52l14 0 0 133 -14 0 0 -133zm-57 119l15 0c5,0 9,-1 11,-4 3,-3 4,-8 4,-14l0 -18c0,-6 -1,-11 -4,-13 -3,-3 -7,-5 -12,-5l-14 0 0 54zm184 -119l-28 103c-3,11 -6,19 -11,24 -5,4 -13,6 -25,6l0 -14c6,1 10,0 13,-2 3,-2 5,-6 6,-11l3 -8 -30 -98 15 0 13 46 9 33 8 -33 12 -46 15 0zm62 133l0 -59c-4,7 -11,10 -20,10 -9,0 -16,-3 -20,-9 -5,-5 -7,-13 -7,-22l0 -53 15 0 0 52c0,5 1,10 4,13 3,4 7,6 12,6 9,0 15,-5 16,-16l0 -55 15 0 0 133 -15 0zm84 -27l-34 0 -5 27 -13 0 25 -133 21 0 26 133 -15 0 -5 -27zm-17 -90l-15 77 30 0 -15 -77zm82 -18c10,0 18,3 23,9 5,6 7,14 7,25l0 12 -14 0 0 -13c0,-13 -5,-19 -16,-19 -10,0 -15,6 -15,19l0 70c0,13 5,19 15,19 11,0 16,-6 16,-19l0 -17 14 0 0 17c0,10 -2,18 -7,24 -5,6 -13,9 -23,9 -10,0 -17,-3 -22,-9 -5,-6 -8,-14 -8,-24l0 -69c0,-11 3,-19 8,-25 5,-6 12,-9 22,-9zm84 135l-15 0 0 -120 -25 0 0 -13 64 0 0 13 -24 0 0 120zm40 -133l30 0c10,0 17,2 22,7 5,5 7,12 7,22l0 6c0,8 -1,14 -4,18 -2,4 -6,7 -12,9 12,3 18,13 18,28l0 11c0,21 -10,32 -30,32l-31 0 0 -133zm15 56l11 0c7,0 11,-1 14,-4 3,-2 4,-7 4,-14l0 -7c0,-6 -1,-11 -3,-14 -2,-2 -6,-4 -11,-4l-15 0 0 43zm0 63l16 0c10,0 16,-6 16,-18l0 -12c0,-7 -2,-12 -5,-15 -3,-3 -8,-4 -14,-4l-13 0 0 49zm133 -119l-29 103c-2,11 -6,19 -11,24 -5,4 -13,6 -24,6l0 -14c6,1 10,0 13,-2 3,-2 5,-6 6,-11l3 -8 -31 -98 15 0 14 46 9 33 8 -33 12 -46 15 0zm58 7c5,-6 12,-9 22,-9 10,0 18,3 23,9 5,6 8,14 8,25l0 69c0,10 -3,18 -8,24 -5,6 -13,9 -23,9 -10,0 -17,-3 -22,-9 -6,-6 -8,-14 -8,-24l0 -28 -19 0 0 60 -15 0 0 -133 15 0 0 59 19 0 0 -27c0,-11 2,-19 8,-25zm38 24c0,-13 -5,-19 -16,-19 -10,0 -15,6 -15,19l0 70c0,13 5,19 15,19 11,0 16,-6 16,-19l0 -70zm139 119l-14 0 0 -17 -91 0 0 -133 15 0 0 119 25 0 0 -119 15 0 0 119 25 0 0 -119 15 0 0 119 10 0 0 31zm33 -91l32 0 0 13 -32 0 0 47 40 0 0 14 -55 0 0 -133 55 0 0 13 -40 0 0 46zm73 0l33 0 0 13 -33 0 0 47 40 0 0 14 -55 0 0 -133 55 0 0 13 -40 0 0 46zm83 -59l30 0c10,0 17,2 22,7 5,5 7,12 7,22l0 6c0,8 -1,14 -4,18 -2,4 -6,7 -12,9 12,3 18,13 18,28l0 11c0,21 -10,32 -30,32l-31 0 0 -133zm15 56l11 0c7,0 11,-1 14,-4 3,-2 4,-7 4,-14l0 -7c0,-6 -1,-11 -3,-14 -3,-2 -6,-4 -11,-4l-15 0 0 43zm0 63l16 0c10,0 15,-6 15,-18l0 -12c0,-7 -1,-12 -4,-15 -3,-3 -8,-4 -14,-4l-13 0 0 49zm138 -13l-34 0 -5 27 -14 0 26 -133 21 0 26 133 -15 0 -5 -27zm-18 -90l-14 77 29 0 -15 -77zm105 117l-28 -58 -8 13 0 45 -15 0 0 -133 15 0 0 64 35 -64 15 0 -33 60 34 73 -15 0zm105 17l-14 0 0 -17 -58 0 0 -133 15 0 0 119 32 0 0 -119 15 0 0 119 10 0 0 31zm67 -123l-14 44 -20 62 -15 0 0 -133 13 0 0 99 12 -37 21 -62 17 0 0 133 -14 0 0 -106zm83 0l-14 44 -20 62 -15 0 0 -133 13 0 0 99 12 -37 21 -62 16 0 0 133 -13 0 0 -106zm-1915 352l-14 0 0 -19 -55 0 0 19 -14 0 0 -32 9 0c3,-4 5,-10 6,-19l5 -100 53 0 0 119 10 0 0 32zm-50 -138l-4 87c-1,9 -3,16 -6,19l35 0 0 -106 -25 0zm67 87l0 -68c0,-11 2,-19 8,-25 5,-6 12,-9 22,-9 10,0 18,3 23,9 5,6 8,14 8,25l0 68c0,11 -3,19 -8,25 -5,6 -13,9 -23,9 -10,0 -17,-3 -22,-9 -6,-6 -8,-14 -8,-25zm14 -69l0 70c0,13 6,19 16,19 11,0 16,-6 16,-19l0 -70c0,-13 -5,-19 -16,-19 -10,0 -16,6 -16,19zm89 69l0 -68c0,-11 3,-19 8,-25 5,-6 13,-9 22,-9 10,0 18,3 23,9 5,6 8,14 8,25l0 68c0,11 -3,19 -8,25 -5,6 -13,9 -23,9 -9,0 -17,-3 -22,-9 -5,-6 -8,-14 -8,-25zm15 -69l0 70c0,13 5,19 15,19 11,0 16,-6 16,-19l0 -70c0,-13 -5,-19 -16,-19 -10,0 -15,6 -15,19zm113 -18l-33 0 0 119 -15 0 0 -132 62 0 0 132 -14 0 0 -119zm35 -13l29 0c19,0 29,10 29,32l0 16c0,21 -10,32 -31,32l-13 0 0 52 -14 0 0 -132zm14 67l13 0c6,0 10,-2 13,-4 2,-3 4,-8 4,-14l0 -18c0,-6 -1,-11 -4,-14 -2,-3 -6,-4 -11,-4l-15 0 0 54zm76 -9l32 0 0 14 -32 0 0 47 40 0 0 13 -55 0 0 -132 55 0 0 13 -40 0 0 45zm138 93l-14 0 0 -19 -54 0 0 19 -15 0 0 -32 9 0c3,-4 5,-10 6,-19l5 -100 53 0 0 119 10 0 0 32zm-49 -138l-5 87c0,9 -2,16 -6,19l35 0 0 -106 -24 0zm82 45l32 0 0 14 -32 0 0 47 40 0 0 13 -55 0 0 -132 55 0 0 13 -40 0 0 45zm112 -45l-25 0 -3 86c-1,12 -3,20 -7,25 -4,6 -10,8 -20,9l-2 0 0 -14c5,0 9,-1 11,-4 2,-3 3,-8 3,-15l4 -100 54 0 0 132 -15 0 0 -119zm51 45l32 0 0 14 -32 0 0 47 39 0 0 13 -54 0 0 -132 54 0 0 13 -39 0 0 45zm106 15l-33 0 0 59 -15 0 0 -132 15 0 0 59 33 0 0 -59 14 0 0 132 -14 0 0 -59zm82 0l-33 0 0 59 -14 0 0 -132 14 0 0 59 33 0 0 -59 15 0 0 132 -15 0 0 -59zm34 27l0 -68c0,-11 3,-19 8,-25 5,-6 12,-9 22,-9 10,0 18,3 23,9 5,6 8,14 8,25l0 68c0,11 -3,19 -8,25 -5,6 -13,9 -23,9 -10,0 -17,-3 -22,-9 -5,-6 -8,-14 -8,-25zm15 -69l0 70c0,13 5,19 15,19 11,0 16,-6 16,-19l0 -70c0,-13 -5,-19 -16,-19 -10,0 -15,6 -15,19zm108 -59l10 0c0,6 -2,11 -6,14 -4,3 -9,5 -15,5 -6,0 -11,-2 -15,-5 -3,-3 -5,-8 -5,-14l9 0c0,7 4,10 11,10 7,0 11,-3 11,-10zm6 55l-14 43 -20 62 -15 0 0 -132 13 0 0 99 13 -39 20 -60 17 0 0 132 -14 0 0 -105zm138 124l-14 0 0 -19 -55 0 0 19 -14 0 0 -32 9 0c3,-4 5,-10 6,-19l5 -100 53 0 0 119 10 0 0 32zm-50 -138l-4 87c0,9 -3,16 -6,19l35 0 0 -106 -25 0zm117 93l-34 0 -5 26 -14 0 26 -132 21 0 26 132 -15 0 -5 -26zm-17 -90l-15 77 30 0 -15 -77zm88 116l-15 0 0 -119 -24 0 0 -13 64 0 0 13 -25 0 0 119zm56 -80l13 0c20,0 31,11 31,32l0 16c0,22 -10,32 -30,32l-29 0 0 -132 15 0 0 52zm56 -52l15 0 0 132 -15 0 0 -132zm-56 119l14 0c5,0 9,-2 11,-5 3,-3 4,-7 4,-13l0 -18c0,-6 -1,-11 -4,-14 -3,-2 -7,-4 -12,-4l-13 0 0 54z"/>
  <polygon class="fil2" points="3324,314 3451,1799 4218,1749 4439,359 "/>
  <polygon class="fil3" points="3309,476 4494,271 4281,1755 3399,1768 "/>
  <polygon class="fil4" points="3032,965 3376,947 3375,1257 3066,1286 3190,1116 "/>
  <polygon class="fil5" points="3222,955 3222,955 3290,951 3290,951 3222,955 "/>
  <polygon class="fil6" points="3358,1250 3266,1216 3236,955 3304,951 3291,1180 "/>
  <polygon class="fil4" points="4710,962 4367,973 4292,1271 4641,1289 4588,1108 "/>
  <polygon class="fil6" points="4313,1269 4316,1259 4386,1206 4392,1207 4469,970 4541,967 4457,1210 "/>
  <polygon class="fil3" points="3363,1255 4314,1271 4400,1206 3291,1180 "/>
  <polygon class="fil7" points="3384,383 4558,353 4243,1798 3353,1694 "/>
  <polygon class="fil8" points="4455,823 3374,822 3372,874 4449,852 "/>
  <polygon class="fil8" points="3365,1201 4364,1242 4369,1219 4372,1206 3379,1156 3365,1164 "/>
  <polygon class="fil4" points="3309,863 3291,1180 4406,1207 4526,836 "/>
  <path class="fil1" d="M3450 1367c2,0 5,0 8,0 3,1 5,1 8,2 3,1 5,1 7,3 11,6 21,10 30,12 8,2 14,2 18,-1 2,0 2,-1 1,-3 -1,-1 -2,-2 -5,-4 -2,-2 -5,-4 -9,-6 -4,-2 -8,-4 -12,-6 -4,-2 -8,-5 -12,-7 -4,-2 -8,-5 -11,-7 -4,-3 -7,-6 -10,-9 -3,-3 -5,-6 -7,-10 -1,-3 -2,-7 -2,-11 0,-4 1,-8 3,-12 1,-4 4,-8 7,-12 3,-4 7,-8 11,-12 4,-4 8,-7 13,-10 5,-4 10,-6 15,-8 2,-1 4,-2 7,-3 3,-1 5,-1 9,-2 3,0 6,0 10,0 4,1 8,2 12,3 6,2 12,4 18,7 6,3 12,6 16,9 2,2 4,4 6,6 1,2 2,4 3,6 0,2 0,4 0,6 0,2 0,3 0,5 0,3 -1,6 -2,9 -1,4 -2,7 -4,11 -1,3 -3,6 -4,10 -2,3 -4,6 -5,8 -2,2 -3,3 -5,4 -2,0 -5,0 -8,-1 -18,-6 -27,-14 -25,-23 0,-1 1,-4 2,-6 1,-2 1,-5 2,-7 1,-3 2,-5 2,-7 1,-2 1,-4 1,-5 0,-2 -1,-3 -2,-3 -1,0 -3,0 -5,2 -3,0 -5,2 -8,4 -3,1 -5,4 -8,6 -3,2 -5,5 -7,8 -2,2 -4,5 -5,8 0,3 0,6 0,9 1,3 3,5 6,8 4,3 8,6 13,8 5,3 10,6 15,8 4,3 9,6 13,8 4,3 8,6 11,8 2,3 4,6 5,8 0,3 -1,6 -3,9 -1,2 -3,5 -6,7 -3,3 -6,5 -10,7 -4,2 -9,4 -15,5 -6,1 -13,2 -22,1 -11,0 -21,-2 -32,-6 -10,-4 -21,-10 -31,-18 -6,-5 -9,-8 -9,-10 0,-2 1,-3 4,-4 2,-1 5,-1 8,-2zm166 25c-2,5 -3,11 -5,16 0,2 -1,3 -3,4 -1,0 -3,0 -7,-1 -3,-1 -7,-1 -10,-2 -4,-1 -6,-2 -9,-3 -3,-2 -5,-3 -6,-5 -1,-2 -1,-4 0,-7 1,-2 2,-7 4,-13 1,-6 2,-13 3,-21 1,-7 2,-15 3,-24 2,-8 3,-16 4,-23 1,-7 2,-13 3,-18 1,-5 3,-7 4,-8 5,-2 11,-4 18,-6 6,-2 13,-3 19,-5 7,-2 14,-3 21,-4 7,-1 13,-1 20,-1 6,0 12,1 17,3 6,1 10,3 14,7 5,4 9,8 13,13 3,5 6,11 8,18 1,3 1,7 1,9 -1,3 -2,6 -4,9 -2,2 -4,4 -6,7 -3,2 -5,4 -8,6 -5,4 -11,7 -17,10 -7,3 -14,6 -22,9 -8,3 -16,5 -25,7 -8,2 -17,4 -25,5 -2,6 -4,12 -5,18zm41 -56c7,-3 13,-6 18,-10 5,-3 8,-7 10,-10 2,-3 3,-6 2,-9 0,-1 -2,-2 -4,-3 -3,-1 -6,-1 -10,-1 -4,0 -8,0 -13,1 -5,0 -10,1 -15,3 -3,6 -5,12 -7,18 -2,6 -5,12 -7,19 10,-2 18,-4 26,-8zm104 -54c7,-1 14,-1 22,-2 8,-1 16,-2 25,-2 8,-1 16,-1 25,0 7,0 12,2 14,7 2,3 3,5 4,8 0,2 1,4 2,7 0,2 0,4 -1,5 -1,1 -4,2 -8,2 -8,0 -17,1 -26,1 -9,0 -18,1 -28,2 -2,4 -4,9 -6,14 -2,6 -4,11 -6,17 4,-1 8,-1 12,-1 4,0 8,0 13,0 4,0 7,1 9,2 2,0 4,2 6,4 1,2 2,4 3,6 1,3 2,5 2,7 1,3 1,4 1,5 -1,1 -4,2 -8,2 -8,1 -17,2 -25,2 -9,1 -17,2 -25,3 -1,3 -2,6 -4,9 -1,3 -2,6 -3,9 6,0 13,-1 19,-1 5,0 12,0 19,0 4,0 7,0 9,1 2,0 4,2 5,4 2,2 3,4 4,6 0,2 1,4 2,6 1,2 1,4 0,4 0,1 -3,2 -6,2 -9,1 -18,2 -27,3 -10,1 -18,2 -27,3 -5,1 -9,1 -12,0 -3,-1 -5,-2 -7,-3 -3,-1 -5,-3 -7,-4 -2,-1 -4,-3 -7,-5 -2,-2 -4,-3 -5,-6 -2,-2 -2,-4 -2,-7l24 -107c6,-1 12,-2 20,-3zm193 113c0,2 -2,5 -4,8 -3,4 -6,8 -10,11 -4,3 -8,5 -12,7 -2,1 -4,2 -7,3 -2,0 -5,1 -8,1 -3,1 -6,1 -9,1 -4,0 -7,0 -10,0 -6,-1 -12,-2 -17,-4 -5,-1 -10,-2 -14,-4 -4,-1 -8,-3 -11,-5 -4,-3 -7,-5 -9,-9 -3,-4 -5,-10 -6,-16 -2,-7 -2,-13 -1,-21 0,-7 2,-14 5,-22 2,-7 5,-14 10,-22 4,-7 9,-13 15,-19 6,-6 12,-12 19,-16 6,-4 12,-6 18,-7 6,-1 12,-1 17,-1 4,1 8,1 12,2 4,1 8,3 12,4 4,1 7,3 10,4 4,2 7,3 10,5 2,2 4,3 6,5 2,2 3,4 4,5 1,2 1,4 2,6 0,2 0,4 0,6 1,2 0,5 0,8 0,3 -1,5 -1,8 -1,2 -1,5 -2,7 -1,3 -2,5 -3,7 0,1 0,1 -1,2 0,1 -1,1 -2,2 0,0 -1,0 -3,1 -1,0 -3,-1 -6,-1 -4,-1 -8,-2 -11,-3 -3,-2 -5,-3 -7,-5 -2,-1 -4,-3 -5,-5 -1,-2 -2,-5 -3,-8 0,-2 0,-4 0,-6 0,-3 0,-7 0,-9 -1,-3 -2,-5 -5,-6 -3,-1 -6,0 -10,3 -4,3 -8,7 -12,12 -4,5 -7,10 -11,16 -4,6 -7,11 -9,17 -2,5 -3,10 -4,15 -1,6 -2,11 -2,15 0,4 1,8 3,11 1,3 3,5 6,6 6,2 14,-2 26,-10 8,-6 19,-8 32,-4 5,1 7,3 8,5zm90 -90c0,1 0,4 -1,6 -2,5 -4,11 -7,17 -2,6 -5,12 -7,19 -3,7 -5,14 -8,21 -2,8 -5,15 -7,21 -2,7 -4,14 -6,20 -2,6 -4,12 -5,16 -1,2 -2,3 -3,4 -1,0 -4,0 -7,-1 -4,-1 -7,-1 -10,-2 -4,-1 -7,-2 -9,-4 -4,-1 -6,-3 -7,-4 0,-2 -1,-4 0,-7 0,-3 1,-8 2,-14 1,-6 2,-13 4,-20 2,-7 3,-14 5,-22 2,-8 4,-15 6,-23 2,-8 4,-15 6,-21 2,-7 4,-13 6,-18 1,-3 3,-5 5,-5 2,-1 5,-1 9,1 5,1 9,2 14,4 5,2 9,4 13,6 4,2 6,4 7,6zm56 98c-11,1 -20,2 -28,3 -3,4 -5,8 -7,12 -3,3 -5,7 -7,10 -1,2 -2,3 -4,3 -1,0 -4,0 -7,-1 -2,-1 -4,-1 -6,-2 -2,-1 -4,-2 -6,-3 -2,-1 -3,-2 -4,-2 -2,-1 -3,-2 -3,-2 -1,-1 -1,-2 -1,-4 0,-1 0,-3 1,-5 4,-7 8,-16 14,-26 5,-10 12,-20 18,-30 7,-11 13,-21 20,-31 7,-10 13,-19 19,-27 2,-3 5,-5 8,-7 4,-1 9,-2 15,-1 6,0 11,1 15,2 5,0 9,1 12,2 4,1 7,2 10,2 3,1 6,2 10,3 4,1 6,3 8,5 1,2 1,5 0,8 -1,7 -2,16 -3,26 -1,10 -1,20 -2,31 -1,11 -1,22 -2,32 0,11 0,21 -1,31 0,2 0,3 -1,4 -1,0 -4,1 -7,0 -4,0 -7,0 -10,0 -3,-1 -6,-1 -9,-2 -4,-1 -6,-2 -7,-3 -1,-2 -2,-4 -3,-7 0,-3 0,-7 -1,-10 0,-4 0,-8 -1,-12 -10,0 -20,1 -30,1zm11 -27c6,0 12,0 18,0 1,-9 1,-18 1,-27 0,-9 0,-18 1,-26 -6,8 -12,16 -19,25 -6,9 -13,19 -20,29 6,0 12,-1 19,-1zm133 59c-9,1 -18,2 -26,2 -4,1 -6,1 -8,1 -2,0 -4,0 -5,0 -2,-1 -3,-1 -4,-1 -1,-1 -2,-2 -3,-2 -2,-1 -5,-3 -6,-4 -2,-1 -5,-3 -8,-5 -2,-2 -4,-4 -5,-6 -1,-1 -2,-4 -1,-6 1,-5 1,-10 3,-15 1,-6 2,-12 4,-19 2,-6 3,-13 5,-21 2,-7 4,-14 6,-21 2,-7 5,-13 7,-20 2,-6 4,-12 6,-18 2,-3 4,-5 6,-5 2,-1 5,0 9,1 5,1 9,2 14,4 5,2 9,4 13,6 3,2 6,4 7,6 0,1 0,3 -1,6 -3,6 -6,13 -9,21 -3,8 -7,16 -10,24 -3,8 -6,16 -9,24 -2,8 -5,16 -8,23 7,-1 13,-1 18,-1 6,0 12,-1 18,-1 4,0 7,1 9,1 2,1 4,2 5,5 2,2 3,4 4,6 1,2 2,4 2,6 1,2 1,3 1,4 -1,1 -3,1 -7,2 -9,1 -18,2 -27,3z"/>
  <path class="fil1" d="M3585 1474c2,6 4,14 5,22 0,13 0,27 -2,42 -3,15 -7,30 -12,44 -6,15 -12,29 -21,42 -8,12 -18,23 -29,31 -8,5 -15,8 -23,9 -8,2 -17,1 -27,-1 -7,-1 -14,-3 -21,-5 -7,-2 -13,-5 -19,-8 -4,-3 -9,-6 -13,-11 -4,-4 -8,-9 -10,-14 -3,-9 -6,-18 -7,-29 -1,-10 -2,-21 0,-32 1,-12 3,-23 7,-35 3,-11 8,-23 13,-33 6,-11 13,-21 21,-31 8,-9 16,-17 26,-25 7,-4 15,-7 24,-9 8,-1 17,-2 24,0 10,3 20,6 29,10 8,5 16,9 21,14 7,7 11,13 14,19zm-72 8c-5,4 -10,10 -15,17 -5,7 -10,15 -15,23 -5,9 -9,18 -12,26 -3,8 -6,17 -7,26 -2,9 -3,17 -4,25 0,7 1,14 2,20 2,6 5,9 9,11 4,1 8,1 12,-2 4,-2 9,-6 13,-12 5,-5 9,-12 14,-21 4,-8 8,-17 11,-27 4,-8 6,-17 8,-27 2,-10 4,-19 5,-28 1,-9 0,-16 -1,-23 -1,-6 -3,-10 -7,-11 -3,-2 -8,-1 -13,3zm208 16c-11,1 -24,1 -36,2 -3,7 -6,15 -9,23 -2,9 -6,18 -10,27 6,0 11,0 16,0 5,0 11,0 16,0 9,1 15,4 19,10 1,4 3,7 4,11 1,3 1,7 2,11 1,4 1,7 -1,8 -1,2 -4,2 -9,3 -10,0 -21,1 -31,2 -11,1 -21,3 -31,4 -5,13 -9,26 -12,38 -4,12 -7,23 -10,32 -1,4 -2,5 -5,6 -3,0 -7,0 -11,-1 -4,-1 -8,-2 -12,-4 -5,-2 -9,-4 -12,-6 -4,-2 -7,-5 -7,-8 -1,-2 -1,-6 -1,-10 1,-5 2,-12 4,-21 2,-9 5,-20 7,-31 3,-11 6,-23 9,-36 3,-13 6,-25 9,-38 2,-13 4,-25 6,-36 2,-11 2,-22 3,-30 8,-2 16,-3 26,-4 9,-1 20,-2 30,-2 11,-1 22,-1 33,-1 11,0 21,0 32,1 3,0 5,1 7,1 2,0 3,1 5,2 1,1 3,2 4,4 1,2 3,4 4,6 4,9 6,17 6,24 1,5 0,8 -1,9 -2,2 -5,3 -10,3 -11,1 -22,1 -34,1zm152 13c-12,0 -24,1 -37,1 -3,7 -5,15 -8,24 -3,9 -6,17 -10,27 5,0 11,0 16,-1 5,1 11,1 16,1 9,0 15,3 18,10 2,3 4,7 5,11 0,3 1,7 2,11 1,4 1,7 -1,8 -1,1 -5,2 -9,2 -11,1 -21,2 -31,3 -11,1 -21,2 -32,4 -4,13 -8,26 -12,38 -3,12 -7,23 -10,32 0,3 -2,5 -5,5 -3,1 -6,1 -10,-1 -4,0 -8,-2 -12,-4 -5,-2 -9,-4 -12,-5 -4,-3 -7,-5 -8,-8 0,-2 0,-6 0,-11 1,-5 2,-12 4,-21 2,-9 4,-19 7,-30 3,-12 6,-23 9,-36 3,-13 6,-26 9,-38 2,-13 4,-25 6,-36 1,-12 2,-22 3,-31 7,-1 16,-2 26,-3 9,-1 20,-2 30,-3 11,0 22,0 33,0 11,0 21,0 32,1 3,0 5,0 7,1 2,0 3,1 5,2 1,1 3,2 4,3 1,2 2,4 4,7 4,8 6,16 6,24 0,5 0,8 -2,9 -1,2 -4,2 -10,3 -10,0 -21,1 -33,1zm80 -32c9,-1 19,-2 30,-3 10,-1 20,-2 32,-3 10,0 21,0 32,1 10,0 16,5 18,13 2,4 3,8 4,12 0,3 1,7 2,12 0,4 -1,7 -2,9 -2,1 -5,2 -10,2 -11,1 -22,1 -34,1 -11,1 -23,1 -36,2 -3,8 -6,16 -9,24 -4,9 -7,18 -10,27 5,-1 10,-1 16,-1 5,1 11,1 17,1 5,0 9,1 11,2 3,2 5,4 7,8 2,3 3,7 4,11 1,3 2,7 2,11 1,4 1,7 0,8 -1,1 -4,2 -10,3 -10,1 -21,2 -33,3 -11,1 -22,2 -32,3 -2,5 -4,11 -6,15 -1,5 -3,10 -5,15 9,0 17,-1 24,-1 8,0 16,0 25,0 5,0 9,0 12,2 2,1 5,3 6,7 2,3 3,7 4,10 1,3 2,7 3,10 1,3 1,6 0,7 -1,1 -4,2 -9,3 -12,1 -23,2 -35,4 -12,1 -24,2 -34,3 -8,2 -13,1 -16,0 -4,-1 -7,-3 -10,-5 -3,-2 -5,-4 -8,-7 -3,-2 -5,-5 -9,-8 -3,-3 -5,-6 -6,-10 -2,-3 -2,-7 -1,-12l40 -175c8,-1 16,-3 26,-4zm143 201c-3,9 -6,19 -9,29 -1,2 -2,4 -3,5 -2,1 -5,0 -9,-1 -5,-2 -9,-3 -13,-4 -3,-1 -7,-2 -10,-4 -3,-3 -5,-5 -6,-8 -1,-3 -1,-7 -1,-11 1,-4 2,-9 3,-16 1,-8 3,-15 4,-24 2,-9 4,-19 6,-29 2,-10 4,-20 6,-31 3,-10 5,-20 7,-29 3,-10 5,-18 7,-26 3,-8 5,-14 8,-19 2,-5 5,-7 7,-8 12,-5 24,-8 36,-12 13,-4 25,-6 36,-8 12,-1 23,0 33,3 11,2 19,8 26,16 6,7 11,15 16,23 4,8 7,18 9,29 1,13 0,22 -5,30 -7,11 -19,22 -33,31 -16,9 -34,17 -54,24 3,5 7,11 12,16 4,6 9,11 14,17 4,5 9,11 14,16 5,5 9,10 13,14 3,3 5,5 4,7 0,2 -2,4 -5,5 -3,3 -6,4 -8,4 -3,0 -5,1 -9,1 -4,1 -8,1 -12,0 -5,-1 -11,-4 -16,-8 -4,-3 -9,-7 -14,-12 -5,-4 -10,-10 -15,-15 -5,-6 -11,-12 -16,-18 -5,-6 -10,-12 -14,-18 -3,11 -6,21 -9,31zm36 -108c-3,10 -7,21 -12,32 13,-3 24,-7 34,-12 10,-6 19,-11 26,-17 6,-5 11,-10 15,-16 3,-5 4,-9 4,-12 -2,-6 -8,-8 -19,-9 -5,-1 -11,-1 -17,0 -6,1 -13,3 -20,5 -4,9 -7,19 -11,29z"/>
  <polygon class="fil1" points="3464,1830 3962,1800 4217,1825 4191,1862 "/>
  <polygon class="fil9" points="3291,1180 3309,863 3356,1137 4406,1207 4344,1205 3375,1182 3375,1182 "/>
  <g id="_-1906831712">
   <path class="fil1" d="M4223 696c-39,1 -39,62 1,61 39,0 38,-61 -1,-61zm0 -20c68,-1 69,101 1,102 -68,1 -69,-101 -1,-102z"/>
   <polygon class="fil1" points="4312,696 4312,716 4337,716 4338,735 4313,736 4313,775 4293,775 4292,677 4341,676 4342,696 "/>
   <polygon class="fil1" points="4377,695 4378,715 4403,715 4403,734 4378,735 4379,774 4359,774 4358,676 4407,675 4407,695 "/>
   <path class="fil1" d="M4340 631c25,0 25,-39 -1,-39 -26,0 -25,39 1,39zm0 27c-65,1 -66,-92 -1,-93 64,-1 66,92 1,93zm-115 -147c25,0 25,-39 -1,-39 -25,1 -25,40 1,39zm144 -64l-134 211 -42 0 134 -210 42 -1zm-144 92c-64,1 -66,-93 -1,-94 64,-1 66,93 1,94z"/>
  </g>
  <path class="fil1" d="M3419 680l140 -2 0 -60 -141 2 1 60zm257 112l84 -1c5,-143 16,-211 98,-315l-1 -52 -252 4 1 71 163 -2c-67,96 -88,174 -93,295zm361 2c77,-1 128,-69 127,-193 -2,-124 -55,-187 -132,-186 -78,1 -129,65 -127,190 2,124 54,190 132,189zm-1 -66c-28,1 -50,-25 -52,-124 -1,-100 21,-123 49,-124 28,0 50,22 51,122 2,100 -19,126 -48,126z"/>
  <path class="fil3" d="M3760 1106l-29 0 0 -31 -76 0 0 31 -28 0 0 -61 10 0c8,-14 11,-32 11,-54l0 -24 100 0 0 78 12 0 0 61zm-53 -61l0 -48 -20 0 0 1c0,15 -3,31 -9,47l29 0zm105 -43l-39 -4c1,-7 3,-13 6,-17 3,-4 7,-7 12,-10 4,-2 9,-4 16,-5 6,-1 13,-2 21,-2 12,0 22,1 30,2 7,2 13,5 18,9 4,3 7,7 9,13 2,6 3,11 3,16l0 48c0,5 0,9 1,12 0,3 2,6 4,11l-39 0c-1,-3 -2,-5 -3,-7 0,-1 -1,-3 -1,-6 -6,5 -11,9 -16,11 -7,3 -16,4 -25,4 -13,0 -23,-3 -30,-9 -6,-6 -10,-13 -10,-22 0,-8 3,-15 8,-20 4,-5 13,-9 26,-12 15,-3 25,-5 30,-7 5,-1 9,-2 15,-4 0,-6 -1,-9 -4,-11 -2,-2 -5,-3 -11,-3 -6,0 -11,1 -15,3 -2,2 -4,5 -6,10zm36 21c-6,2 -12,4 -18,6 -8,2 -14,4 -16,6 -2,3 -3,5 -3,8 0,3 1,6 3,8 2,2 6,3 10,3 4,0 9,-1 13,-3 4,-2 6,-5 8,-8 2,-4 3,-8 3,-13l0 -7zm154 -26l-29 0 0 78 -41 0 0 -78 -30 0 0 -30 100 0 0 30zm53 5l-40 -4c2,-7 4,-13 7,-17 3,-4 7,-7 12,-10 4,-2 9,-4 15,-5 7,-1 14,-2 22,-2 12,0 22,1 29,2 8,2 14,5 19,9 3,3 6,7 8,13 2,6 3,11 3,16l0 48c0,5 1,9 1,12 1,3 2,6 4,11l-38 0c-2,-3 -3,-5 -3,-7 -1,-1 -1,-3 -2,-6 -5,5 -10,9 -16,11 -7,3 -15,4 -25,4 -13,0 -22,-3 -29,-9 -7,-6 -10,-13 -10,-22 0,-8 2,-15 7,-20 5,-5 14,-9 27,-12 15,-3 25,-5 30,-7 4,-1 9,-2 14,-4 0,-6 -1,-9 -3,-11 -2,-2 -6,-3 -11,-3 -7,0 -12,1 -15,3 -3,2 -5,5 -6,10zm35 21c-5,2 -11,4 -18,6 -8,2 -13,4 -15,6 -3,3 -4,5 -4,8 0,3 1,6 4,8 2,2 5,3 10,3 4,0 8,-1 12,-3 4,-2 7,-5 9,-8 1,-4 2,-8 2,-13l0 -7z"/>
  <path class="fil1" d="M474 635l26 0 0 23c0,14 -4,25 -11,33 -7,7 -17,11 -30,11 -14,0 -24,-4 -31,-11 -7,-8 -11,-19 -11,-33l0 -91c0,-15 4,-26 11,-33 7,-8 17,-12 31,-12 13,0 23,4 30,12 7,7 11,18 11,33l0 17 -26 0 0 -19c0,-12 -5,-17 -15,-17 -9,0 -14,5 -14,17l0 95c0,11 5,17 14,17 10,0 15,-6 15,-17l0 -25zm109 -85l0 150 -27 0 0 -176 87 0 0 176 -28 0 0 -150 -32 0zm112 15l0 95c0,11 5,17 14,17 10,0 14,-6 14,-17l0 -95c0,-12 -4,-17 -14,-17 -9,0 -14,5 -14,17zm-28 93l0 -91c0,-14 4,-25 11,-33 7,-8 18,-12 31,-12 14,0 24,4 31,12 7,8 11,19 11,33l0 91c0,14 -4,25 -11,33 -7,7 -17,11 -31,11 -13,0 -24,-4 -31,-11 -7,-8 -11,-19 -11,-33zm150 -134c14,0 25,4 31,10 7,7 10,17 10,31l0 6c0,18 -6,30 -18,36 14,5 21,17 21,37l0 15c0,13 -4,23 -11,31 -7,7 -17,10 -31,10l-44 0 0 -176 42 0zm-2 97l-12 0 0 54 16 0c5,0 8,-1 11,-4 2,-2 3,-7 3,-13l0 -16c0,-8 -1,-13 -4,-16 -3,-3 -7,-5 -14,-5zm1 -71l-13 0 0 46 11 0c5,0 10,-1 12,-4 3,-3 5,-8 5,-15l0 -9c0,-12 -5,-18 -15,-18zm109 150l-41 0 0 -176 28 0 0 66 13 0c27,0 41,15 41,44l0 23c0,29 -14,43 -41,43zm-13 -25l13 0c4,0 8,-1 10,-4 2,-2 3,-6 3,-12l0 -27c0,-6 -1,-10 -3,-13 -2,-2 -6,-3 -10,-3l-13 0 0 59zm97 25l-27 0 0 -176 27 0 0 176zm158 0l-131 0 0 -176 28 0 0 151 24 0 0 -151 27 0 0 151 24 0 0 -151 28 0 0 176zm54 -150l0 49 38 0 0 25 -38 0 0 51 48 0 0 25 -75 0 0 -176 75 0 0 26 -48 0zm99 75l0 75 -27 0 0 -176 27 0 0 76 32 0 0 -76 28 0 0 176 -28 0 0 -75 -32 0zm114 0l0 75 -28 0 0 -176 28 0 0 76 32 0 0 -76 28 0 0 176 -28 0 0 -75 -32 0zm127 75l-41 0 0 -176 28 0 0 66 13 0c28,0 41,15 41,44l0 23c0,29 -13,43 -41,43zm-13 -25l13 0c5,0 8,-1 10,-4 2,-2 4,-6 4,-12l0 -27c0,-6 -2,-10 -4,-13 -2,-2 -5,-3 -10,-3l-13 0 0 59zm98 25l-28 0 0 -176 28 0 0 176zm65 -176l20 125 19 -125 38 0 0 176 -26 0 0 -126 -19 126 -26 0 -21 -124 0 124 -24 0 0 -176 39 0zm155 96l-23 80 -28 0 0 -176 25 0 0 112 10 -39 22 -73 31 0 0 176 -25 0 0 -124 -12 44zm149 15l26 0 0 23c0,14 -3,25 -10,33 -7,7 -18,11 -31,11 -13,0 -24,-4 -31,-11 -7,-8 -10,-19 -10,-33l0 -91c0,-15 3,-26 10,-33 7,-8 18,-12 31,-12 13,0 24,4 31,12 7,7 10,18 10,33l0 17 -26 0 0 -19c0,-12 -5,-17 -14,-17 -10,0 -14,5 -14,17l0 95c0,11 4,17 14,17 9,0 14,-6 14,-17l0 -25zm113 65l-27 -70 -9 16 0 54 -27 0 0 -176 27 0 0 77 37 -77 27 0 -38 79 38 97 -28 0zm99 -80l-23 80 -29 0 0 -176 25 0 0 112 10 -39 23 -73 30 0 0 176 -25 0 0 -124 -11 44zm170 104l-28 0 0 -24 -59 0 0 24 -27 0 0 -48 11 0c4,-5 6,-13 7,-23l6 -129 77 0 0 152 13 0 0 48zm-64 -174l-5 102c-1,12 -3,19 -8,24l36 0 0 -126 -23 0zm148 150l-26 -70 -9 16 0 54 -28 0 0 -176 28 0 0 77 36 -77 28 0 -39 79 39 97 -29 0zm109 -176l28 176 -27 0 -5 -32 -34 0 -5 32 -25 0 28 -176 40 0zm-21 32l-14 88 27 0 -13 -88zm107 -32l20 125 19 -125 39 0 0 176 -26 0 0 -126 -19 126 -27 0 -20 -124 0 124 -24 0 0 -176 38 0zm156 96l-23 80 -29 0 0 -176 25 0 0 112 10 -39 23 -73 30 0 0 176 -25 0 0 -124 -11 44zm202 104l-27 0 0 -24 -60 0 0 24 -26 0 0 -48 10 0c4,-5 7,-13 7,-23l6 -129 78 0 0 152 12 0 0 48zm-64 -174l-5 102c0,12 -3,19 -7,24l36 0 0 -126 -24 0zm111 15l0 95c0,11 5,17 15,17 9,0 14,-6 14,-17l0 -95c0,-12 -5,-17 -14,-17 -10,0 -15,5 -15,17zm-27 93l0 -91c0,-14 3,-25 10,-33 8,-8 18,-12 32,-12 13,0 23,4 31,12 7,8 11,19 11,33l0 91c0,14 -4,25 -11,33 -8,7 -18,11 -31,11 -14,0 -24,-4 -32,-11 -7,-8 -10,-19 -10,-33z"/>
  <polygon class="fil10 str0" points="1025,1433 2700,1433 2700,1867 1025,1867 "/>
  <path class="fil1" d="M1299 1584l-33 121c-3,13 -8,22 -13,27 -6,6 -15,8 -29,7l0 -15c7,0 12,-1 15,-3 4,-3 6,-7 7,-13l4 -10 -36 -114 18 0 15 54 11 39 9 -39 14 -54 18 0zm52 -2c12,0 21,4 26,10 6,7 9,17 9,29l0 14 -16 0 0 -15c0,-15 -6,-22 -18,-22 -13,0 -19,7 -19,22l0 82c0,15 6,23 19,23 12,0 18,-8 18,-23l0 -20 16 0 0 20c0,12 -3,21 -9,28 -5,7 -14,11 -26,11 -11,0 -20,-4 -26,-11 -6,-7 -9,-16 -9,-28l0 -81c0,-12 3,-22 9,-29 6,-6 15,-10 26,-10zm120 17l-30 0 -4 101c0,14 -3,23 -7,30 -5,6 -13,9 -24,9l-3 0 0 -15c7,0 12,-2 14,-5 2,-4 3,-10 4,-18l4 -117 63 0 0 155 -17 0 0 -140zm40 103l0 -81c0,-12 3,-22 9,-29 6,-6 15,-10 27,-10 11,0 20,4 26,10 6,7 9,17 9,29l0 81c0,12 -3,21 -9,28 -6,7 -15,11 -26,11 -12,0 -21,-4 -27,-11 -6,-7 -9,-16 -9,-28zm17 -82l0 82c0,15 6,23 19,23 12,0 18,-8 18,-23l0 -82c0,-15 -6,-22 -18,-22 -13,0 -19,7 -19,22zm77 -36l35 0c11,0 20,2 25,8 6,6 8,14 8,26l0 7c0,9 -1,16 -4,21 -3,5 -7,8 -14,10 14,4 21,15 21,34l0 13c0,24 -12,36 -36,36l-35 0 0 -155zm17 66l13 0c8,0 13,-2 16,-5 4,-3 5,-8 5,-16l0 -9c0,-7 -1,-12 -4,-16 -2,-3 -7,-5 -13,-5l-17 0 0 51zm0 73l18 0c13,0 19,-7 19,-21l0 -14c0,-8 -2,-14 -5,-17 -4,-4 -9,-6 -17,-6l-15 0 0 58zm133 -108l-16 52 -23 72 -18 0 0 -155 15 0 0 116 16 -50 23 -66 19 0 0 155 -16 0 0 -124zm92 58l-12 0c-8,0 -14,1 -17,5 -4,3 -6,9 -6,18l0 24c0,9 -1,15 -3,19l-18 0c3,-4 4,-10 4,-19l0 -24c0,-18 6,-28 19,-32 -13,-4 -19,-15 -19,-32l0 -13c0,-12 3,-21 8,-27 6,-5 14,-8 26,-8l35 0 0 155 -17 0 0 -66zm0 -74l-17 0c-12,0 -18,7 -18,22l0 15c0,8 2,13 5,16 4,3 9,5 17,5l13 0 0 -58zm104 -15l35 0c11,0 20,2 25,8 6,6 8,14 8,26l0 7c0,9 -1,16 -4,21 -3,5 -7,8 -14,10 14,4 21,15 21,34l0 13c0,24 -12,36 -36,36l-35 0 0 -155zm17 66l13 0c8,0 13,-2 16,-5 4,-3 5,-8 5,-16l0 -9c0,-7 -1,-12 -4,-16 -2,-3 -7,-5 -13,-5l-17 0 0 51zm0 73l18 0c13,0 19,-7 19,-21l0 -14c0,-8 -2,-14 -5,-17 -4,-4 -9,-6 -17,-6l-15 0 0 58zm131 -54l-38 0 0 70 -17 0 0 -155 17 0 0 70 38 0 0 -70 18 0 0 155 -18 0 0 -70zm121 -85l-33 121c-3,13 -7,22 -13,27 -6,6 -15,8 -29,7l0 -15c7,0 12,-1 15,-3 4,-3 6,-7 7,-13l4 -10 -36 -114 18 0 15 54 11 39 9 -39 14 -54 18 0zm60 155l-18 0 0 -140 -28 0 0 -15 74 0 0 15 -28 0 0 140zm47 -155l34 0c23,0 35,12 35,38l0 18c0,25 -12,38 -36,38l-16 0 0 61 -17 0 0 -155zm17 78l16 0c6,0 11,-1 14,-5 3,-3 5,-8 5,-16l0 -20c0,-8 -1,-13 -4,-16 -3,-4 -8,-6 -14,-6l-17 0 0 63zm129 -47l-16 52 -24 72 -18 0 0 -155 16 0 0 116 16 -50 22 -66 20 0 0 155 -16 0 0 -124z"/>
 </g>
</svg>
