<?xml version="1.0" encoding="UTF-8"?>
<!DOCTYPE svg PUBLIC "-//W3C//DTD SVG 1.1//EN" "http://www.w3.org/Graphics/SVG/1.1/DTD/svg11.dtd">
<!-- Creator: CorelDRAW X8 -->
<svg xmlns="http://www.w3.org/2000/svg" xml:space="preserve" width="110.173mm" height="147.491mm" version="1.1" style="shape-rendering:geometricPrecision; text-rendering:geometricPrecision; image-rendering:optimizeQuality; fill-rule:evenodd; clip-rule:evenodd"
viewBox="0 0 6012 8049"
 xmlns:xlink="http://www.w3.org/1999/xlink">
 <defs>
  <style type="text/css">
   <![CDATA[
    .str0 {stroke:white;stroke-width:4.15829;stroke-opacity:0.741176}
    .fil3 {fill:none}
    .fil4 {fill:#5EC3AE}
    .fil1 {fill:#B0002C;fill-rule:nonzero}
    .fil2 {fill:white;fill-rule:nonzero}
    .fil0 {fill:url(#id0)}
   ]]>
  </style>
  <linearGradient id="id0" gradientUnits="userSpaceOnUse" x1="5894.32" y1="2549.35" x2="117.878" y2="5499.33">
   <stop offset="0" style="stop-opacity:1; stop-color:#D4B476"/>
   <stop offset="1" style="stop-opacity:1; stop-color:#A3864D"/>
  </linearGradient>
 </defs>
 <g id="Layer_x0020_1">
  <metadata id="CorelCorpID_0Corel-Layer"/>
  <polygon class="fil0" points="0,0 6012,0 6012,8049 0,8049 "/>
  <path class="fil1" d="M935 908l0 353 -129 0 0 -824 129 0 0 353 147 0 0 -353 132 0 0 824 -132 0 0 -353 -147 0zm691 -471l132 824 -131 0 -22 -150 -159 0 -22 150 -119 0 132 -824 189 0zm-101 146l-62 417 124 0 -62 -417zm453 325l0 353 -129 0 0 -824 129 0 0 353 148 0 0 -353 131 0 0 824 -131 0 0 -353 -148 0zm534 -353l0 229 178 0 0 118 -178 0 0 241 223 0 0 118 -353 0 0 -824 353 0 0 118 -223 0zm587 399l123 0 0 109c0,67 -17,118 -50,154 -33,35 -80,53 -143,53 -63,0 -111,-18 -144,-53 -33,-36 -49,-87 -49,-154l0 -428c0,-67 16,-118 49,-154 33,-35 81,-53 144,-53 63,0 110,18 143,53 33,36 50,87 50,154l0 80 -123 0 0 -88c0,-55 -22,-82 -67,-82 -44,0 -67,27 -67,82l0 444c0,54 23,80 67,80 45,0 67,-26 67,-80l0 -117zm362 -399l0 229 178 0 0 118 -178 0 0 241 224 0 0 118 -353 0 0 -824 353 0 0 118 -224 0zm464 353l0 353 -129 0 0 -824 129 0 0 353 147 0 0 -353 132 0 0 824 -132 0 0 -353 -147 0zm645 -25l-108 378 -133 0 0 -824 115 0 0 521 47 -181 106 -340 143 0 0 824 -117 0 0 -580 -53 202zm401 378l-132 0c9,-22 14,-55 14,-100l0 -127c0,-93 29,-151 86,-176 -57,-26 -85,-82 -85,-167l0 -64c0,-65 16,-112 46,-143 31,-31 79,-47 146,-47l195 0 0 824 -129 0 0 -336 -45 0c-30,0 -51,9 -64,25 -14,16 -20,43 -20,80l0 130c0,44 -4,77 -12,101zm141 -706l-62 0c-44,0 -66,28 -66,85l0 81c0,31 6,53 19,67 13,13 32,20 58,20l51 0 0 -253z"/>
  <path class="fil2" d="M1839 6713l-56 0 0 203 -25 0 0 -226 106 0 0 226 -25 0 0 -203zm57 148l0 -117c0,-17 5,-31 14,-41 8,-11 21,-16 38,-16 17,0 30,5 39,16 9,10 13,24 13,41l0 117c0,18 -4,32 -13,42 -9,10 -22,15 -39,15 -17,0 -29,-5 -38,-15 -9,-10 -14,-24 -14,-42zm25 -118l0 119c0,22 9,33 27,33 18,0 27,-11 27,-33l0 -119c0,-22 -9,-33 -27,-33 -18,0 -27,11 -27,33zm248 204l-25 0 0 -31 -92 0 0 31 -25 0 0 -54 15 0c6,-6 9,-17 10,-33l9 -170 90 0 0 203 18 0 0 54zm-85 -234l-7 147c-1,16 -5,27 -11,33l60 0 0 -180 -42 0zm140 70l27 0c35,0 53,18 53,53l0 25c0,36 -17,55 -52,55l-53 0 0 -226 96 0 0 23 -71 0 0 70zm0 110l28 0c9,0 16,-3 20,-8 5,-4 7,-12 7,-23l0 -28c0,-10 -2,-18 -7,-22 -4,-4 -12,-6 -21,-6l-27 0 0 87zm138 -103l55 0 0 22 -55 0 0 81 68 0 0 23 -93 0 0 -226 93 0 0 23 -68 0 0 77zm100 -100l49 0c34,0 51,18 51,55l0 27c0,36 -18,55 -53,55l-22 0 0 89 -25 0 0 -226zm25 114l22 0c10,0 17,-2 21,-7 5,-5 7,-13 7,-23l0 -30c0,-11 -2,-19 -6,-24 -4,-5 -11,-7 -20,-7l-24 0 0 91zm187 -68l-24 75 -34 105 -26 0 0 -226 22 0 0 168 24 -71 33 -97 28 0 0 226 -23 0 0 -180zm117 180l-26 0 0 -203 -41 0 0 -23 108 0 0 23 -41 0 0 203zm94 -126l55 0 0 22 -55 0 0 81 67 0 0 23 -93 0 0 -226 93 0 0 23 -67 0 0 77zm272 24l-56 0 0 102 -25 0 0 -226 25 0 0 101 56 0 0 -101 25 0 0 226 -25 0 0 -102zm142 56l-57 0 -9 46 -23 0 43 -226 36 0 44 226 -25 0 -9 -46zm-29 -152l-25 130 50 0 -25 -130zm172 96l-56 0 0 102 -25 0 0 -226 25 0 0 101 56 0 0 -101 25 0 0 226 -25 0 0 -102zm84 -24l56 0 0 22 -56 0 0 81 68 0 0 23 -93 0 0 -226 93 0 0 23 -68 0 0 77zm149 -103c17,0 30,5 38,16 9,10 13,24 13,41l0 21 -24 0 0 -22c0,-22 -9,-33 -27,-33 -17,0 -26,11 -26,33l0 119c0,22 9,33 26,33 18,0 27,-11 27,-33l0 -29 24 0 0 28c0,18 -4,32 -13,42 -8,10 -21,15 -38,15 -17,0 -30,-5 -38,-15 -9,-10 -13,-24 -13,-42l0 -117c0,-17 4,-31 13,-41 8,-11 21,-16 38,-16zm107 103l56 0 0 22 -56 0 0 81 68 0 0 23 -93 0 0 -226 93 0 0 23 -68 0 0 77zm181 24l-56 0 0 102 -25 0 0 -226 25 0 0 101 56 0 0 -101 25 0 0 226 -25 0 0 -102zm143 -78l-24 75 -33 105 -27 0 0 -226 23 0 0 168 23 -71 33 -97 28 0 0 226 -23 0 0 -180zm82 54l55 0 0 22 -55 0 0 81 68 0 0 23 -93 0 0 -226 93 0 0 23 -68 0 0 77zm-2913 412l-55 0 0 101 -26 0 0 -226 26 0 0 102 55 0 0 -102 25 0 0 226 -25 0 0 -101zm142 56l-57 0 -8 45 -24 0 44 -226 36 0 43 226 -25 0 -9 -45zm-29 -152l-24 130 50 0 -26 -130zm274 -6l-66 0 0 203 -24 0 0 -226 90 0 0 23zm31 149l0 -117c0,-18 4,-32 13,-42 9,-10 21,-15 38,-15 17,0 30,5 39,15 9,10 13,24 13,42l0 117c0,17 -4,31 -13,41 -9,10 -22,16 -39,16 -16,0 -29,-6 -38,-16 -9,-10 -13,-24 -13,-41zm25 -119l0 120c0,22 9,33 26,33 18,0 27,-11 27,-33l0 -120c0,-21 -9,-32 -27,-32 -17,0 -26,11 -26,32zm171 173l-26 0 0 -203 -41 0 0 -23 108 0 0 23 -41 0 0 203zm67 -54l0 -117c0,-18 4,-32 13,-42 8,-10 21,-15 38,-15 17,0 30,5 39,15 9,10 13,24 13,42l0 117c0,17 -4,31 -13,41 -9,10 -22,16 -39,16 -17,0 -29,-6 -38,-16 -9,-10 -13,-24 -13,-41zm24 -119l0 120c0,22 9,33 27,33 18,0 27,-11 27,-33l0 -120c0,-21 -9,-32 -27,-32 -18,0 -27,11 -27,32zm112 -53l50 0c18,0 30,4 38,12 8,9 11,21 11,38l0 11c0,12 -2,22 -6,29 -4,8 -11,13 -20,16 20,5 30,22 30,48l0 19c0,36 -17,53 -51,53l-52 0 0 -226zm25 96l19 0c11,0 18,-2 23,-6 5,-5 8,-13 8,-24l0 -13c0,-10 -2,-18 -6,-23 -4,-4 -10,-7 -19,-7l-25 0 0 73zm0 107l27 0c18,0 26,-10 26,-30l0 -20c0,-13 -2,-21 -7,-26 -5,-5 -13,-8 -24,-8l-22 0 0 84zm135 -114l22 0c35,0 53,19 53,55l0 27c0,37 -17,55 -51,55l-49 0 0 -226 25 0 0 89zm96 -89l25 0 0 226 -25 0 0 -226zm-96 203l24 0c9,0 16,-2 20,-7 4,-5 6,-13 6,-24l0 -30c0,-10 -2,-18 -7,-23 -4,-5 -11,-7 -21,-7l-22 0 0 91zm180 -103l56 0 0 23 -56 0 0 80 68 0 0 23 -93 0 0 -226 93 0 0 23 -68 0 0 77zm251 126l-25 0 0 -203 -42 0 0 -23 109 0 0 23 -42 0 0 203zm67 -54l0 -117c0,-18 5,-32 13,-42 9,-10 22,-15 39,-15 17,0 30,5 39,15 8,10 13,24 13,42l0 117c0,17 -5,31 -13,41 -9,10 -22,16 -39,16 -17,0 -30,-6 -39,-16 -8,-10 -13,-24 -13,-41zm25 -119l0 120c0,22 9,33 27,33 18,0 27,-11 27,-33l0 -120c0,-21 -9,-32 -27,-32 -18,0 -27,11 -27,32zm111 -53l51 0c17,0 30,4 37,12 8,9 12,21 12,38l0 11c0,12 -2,22 -6,29 -4,8 -11,13 -20,16 20,5 30,22 30,48l0 19c0,36 -17,53 -52,53l-52 0 0 -226zm26 96l19 0c10,0 18,-2 23,-6 5,-5 7,-13 7,-24l0 -13c0,-10 -2,-18 -6,-23 -3,-4 -10,-7 -19,-7l-24 0 0 73zm0 107l26 0c18,0 27,-10 27,-30l0 -20c0,-13 -2,-21 -7,-26 -5,-5 -13,-8 -25,-8l-21 0 0 84zm192 -22l-57 0 -9 45 -23 0 43 -226 37 0 43 226 -25 0 -9 -45zm-29 -152l-25 130 51 0 -26 -130zm91 -29l50 0c33,0 50,19 50,55l0 28c0,36 -17,54 -52,54l-23 0 0 89 -25 0 0 -226zm25 114l23 0c9,0 16,-2 21,-7 4,-4 7,-12 7,-23l0 -30c0,-10 -3,-18 -7,-23 -4,-5 -10,-8 -19,-8l-25 0 0 91zm129 -25l22 0c35,0 53,19 53,55l0 27c0,37 -17,55 -51,55l-49 0 0 -226 25 0 0 89zm96 -89l25 0 0 226 -25 0 0 -226zm-96 203l24 0c9,0 16,-2 20,-7 4,-5 6,-13 6,-24l0 -30c0,-10 -2,-18 -7,-23 -4,-5 -11,-7 -21,-7l-22 0 0 91zm327 -180l-55 0 0 203 -25 0 0 -226 105 0 0 226 -25 0 0 -203zm58 149l0 -117c0,-18 4,-32 13,-42 9,-10 22,-15 39,-15 17,0 30,5 38,15 9,10 14,24 14,42l0 117c0,17 -5,31 -14,41 -8,10 -21,16 -38,16 -17,0 -30,-6 -39,-16 -9,-10 -13,-24 -13,-41zm25 -119l0 120c0,22 9,33 27,33 17,0 26,-11 26,-33l0 -120c0,-21 -9,-32 -26,-32 -18,0 -27,11 -27,32zm230 -9l-36 182 -24 0 -37 -180 0 180 -22 0 0 -226 35 0 37 181 36 -181 35 0 0 226 -24 0 0 -182zm84 56l55 0 0 23 -55 0 0 80 67 0 0 23 -93 0 0 -226 93 0 0 23 -67 0 0 77zm178 126l0 -100c-9,12 -20,18 -36,18 -14,0 -25,-5 -33,-15 -8,-10 -11,-23 -11,-39l0 -90 25 0 0 88c0,10 2,18 7,24 5,6 12,9 21,9 15,0 24,-9 27,-27l0 -94 25 0 0 226 -25 0zm84 -126l56 0 0 23 -56 0 0 80 68 0 0 23 -93 0 0 -226 93 0 0 23 -68 0 0 77zm181 25l-56 0 0 101 -25 0 0 -226 25 0 0 102 56 0 0 -102 25 0 0 226 -25 0 0 -101zm84 -36l23 0c35,0 52,19 52,55l0 27c0,37 -16,55 -50,55l-50 0 0 -226 25 0 0 89zm96 -89l25 0 0 226 -25 0 0 -226zm-96 203l25 0c9,0 15,-2 19,-7 5,-5 7,-13 7,-24l0 -30c0,-10 -3,-18 -7,-23 -5,-5 -12,-7 -21,-7l-23 0 0 91zm181 -103l55 0 0 23 -55 0 0 80 68 0 0 23 -93 0 0 -226 93 0 0 23 -68 0 0 77zm-3677 285c17,0 30,6 39,16 8,10 12,24 12,41l0 21 -24 0 0 -22c0,-22 -8,-33 -26,-33 -18,0 -26,11 -26,33l0 120c0,21 8,32 26,32 18,0 26,-11 26,-32l0 -30 24 0 0 28c0,18 -4,32 -12,42 -9,10 -22,15 -39,15 -16,0 -29,-5 -38,-15 -8,-10 -12,-24 -12,-42l0 -117c0,-17 4,-31 12,-41 9,-10 22,-16 38,-16zm164 26l-56 0 0 203 -25 0 0 -226 106 0 0 226 -25 0 0 -203zm84 77l56 0 0 22 -56 0 0 81 68 0 0 23 -93 0 0 -226 93 0 0 23 -68 0 0 77zm225 156l-24 0 0 -30 -99 0 0 -226 25 0 0 203 56 0 0 -203 25 0 0 204 17 0 0 52zm114 -210l-24 75 -33 105 -27 0 0 -226 23 0 0 168 23 -71 33 -97 28 0 0 226 -23 0 0 -180zm140 134l-58 0 -8 46 -23 0 43 -226 36 0 44 226 -26 0 -8 -46zm-29 -152l-25 131 50 0 -25 -131zm182 -5l-43 0 -5 147c-1,19 -5,33 -11,42 -7,9 -18,14 -35,14l-4 0 0 -23c10,0 16,-2 20,-7 3,-5 5,-13 5,-25l6 -171 92 0 0 226 -25 0 0 -203zm86 66l22 0c35,0 53,18 53,54l0 28c0,36 -17,55 -51,55l-49 0 0 -226 25 0 0 89zm0 114l24 0c9,0 16,-3 20,-8 4,-5 6,-13 6,-23l0 -30c0,-11 -2,-19 -7,-23 -4,-5 -11,-8 -21,-8l-22 0 0 92zm187 -79l-56 0 0 102 -25 0 0 -226 25 0 0 101 56 0 0 -101 25 0 0 226 -25 0 0 -102zm85 -35l22 0c35,0 53,18 53,54l0 28c0,36 -17,55 -51,55l-49 0 0 -226 25 0 0 89zm96 -89l25 0 0 226 -25 0 0 -226zm-96 203l24 0c9,0 16,-3 20,-8 4,-5 6,-13 6,-23l0 -30c0,-11 -2,-19 -7,-23 -4,-5 -11,-8 -21,-8l-22 0 0 92zm274 -159l-36 182 -24 0 -37 -180 0 180 -22 0 0 -226 35 0 37 180 36 -180 35 0 0 226 -24 0 0 -182zm199 -47c17,0 30,6 39,16 8,10 12,24 12,41l0 6c0,24 -9,40 -27,47 18,6 27,22 27,46l0 18c0,18 -4,32 -12,42 -9,10 -22,15 -39,15 -16,0 -29,-5 -38,-15 -8,-10 -12,-24 -12,-42l0 -22 23 0 0 24c0,21 9,32 27,32 17,0 26,-11 26,-34l0 -18c0,-23 -9,-34 -29,-34l-11 0 0 -22 12 0c9,0 16,-3 21,-9 5,-5 7,-13 7,-22l0 -11c0,-23 -9,-35 -26,-35 -18,0 -27,11 -27,33l0 15 -23 0 0 -14c0,-18 4,-32 13,-42 8,-10 21,-15 37,-15zm165 127l-55 0 0 102 -26 0 0 -226 26 0 0 101 55 0 0 -101 25 0 0 226 -25 0 0 -102zm142 56l-57 0 -8 46 -24 0 44 -226 36 0 43 226 -25 0 -9 -46zm-29 -152l-25 131 51 0 -26 -131zm178 198l-48 -98 -13 22 0 76 -25 0 0 -226 25 0 0 109 60 -109 25 0 -57 103 59 123 -26 0zm52 -55l0 -117c0,-17 5,-31 13,-41 9,-10 22,-16 39,-16 17,0 30,6 39,16 8,10 13,24 13,41l0 117c0,18 -5,32 -13,42 -9,10 -22,15 -39,15 -17,0 -30,-5 -39,-15 -8,-10 -13,-24 -13,-42zm25 -118l0 120c0,21 9,32 27,32 18,0 27,-11 27,-32l0 -120c0,-22 -9,-33 -27,-33 -18,0 -27,11 -27,33zm230 -9l-35 182 -25 0 -37 -180 0 180 -22 0 0 -226 35 0 37 180 36 -180 35 0 0 226 -24 0 0 -182zm150 -44l51 0c17,0 30,4 38,12 7,8 11,21 11,38l0 10c0,13 -2,23 -6,30 -4,7 -11,12 -20,15 20,6 30,22 30,49l0 19c0,35 -17,53 -52,53l-52 0 0 -226zm26 96l19 0c10,0 18,-2 23,-7 5,-4 7,-12 7,-23l0 -14c0,-10 -2,-17 -6,-22 -3,-5 -10,-7 -19,-7l-24 0 0 73zm0 107l26 0c18,0 27,-10 27,-31l0 -20c0,-12 -2,-21 -7,-26 -5,-5 -13,-7 -24,-7l-22 0 0 84zm288 23l-48 -98 -14 22 0 76 -25 0 0 -226 25 0 0 109 60 -109 26 0 -57 103 59 123 -26 0zm136 -46l-57 0 -8 46 -24 0 44 -226 36 0 43 226 -25 0 -9 -46zm-29 -152l-25 131 51 0 -26 -131zm151 198l-25 0 0 -203 -42 0 0 -23 109 0 0 23 -42 0 0 203zm152 -46l-57 0 -9 46 -23 0 43 -226 36 0 44 226 -25 0 -9 -46zm-29 -152l-25 131 50 0 -25 -131zm182 -5l-43 0 -5 147c-1,19 -4,33 -11,42 -7,9 -18,14 -35,14l-4 0 0 -23c10,0 17,-2 20,-7 3,-5 5,-13 5,-25l7 -171 92 0 0 226 -26 0 0 -203zm59 148l0 -117c0,-17 4,-31 13,-41 9,-10 22,-16 39,-16 17,0 30,6 38,16 9,10 14,24 14,41l0 117c0,18 -5,32 -14,42 -8,10 -21,15 -38,15 -17,0 -30,-5 -39,-15 -9,-10 -13,-24 -13,-42zm25 -118l0 120c0,21 9,32 27,32 18,0 26,-11 26,-32l0 -120c0,-22 -8,-33 -26,-33 -18,0 -27,11 -27,33zm201 -30l-65 0 0 203 -25 0 0 -226 90 0 0 23zm59 77l55 0 0 22 -55 0 0 81 68 0 0 23 -93 0 0 -226 93 0 0 23 -68 0 0 77z"/>
  <path class="fil2" d="M972 1626l-141 0 0 213 -30 0 0 -454 30 0 0 213 141 0 0 -213 31 0 0 454 -31 0 0 -213zm285 113l-141 0 -23 100 -27 0 99 -455 43 0 102 455 -30 0 -23 -100zm-71 -321l-66 295 133 0 -67 -295zm545 -6l-145 0 0 427 -29 0 0 -454 174 0 0 27zm65 316l0 -232c0,-35 9,-63 26,-84 16,-21 41,-31 74,-31 34,0 59,10 76,31 16,21 25,49 25,84l0 232c0,35 -9,63 -25,84 -17,21 -42,31 -76,31 -33,0 -58,-10 -74,-31 -17,-21 -26,-49 -26,-84zm30 -234l0 236c0,27 6,47 17,63 12,15 29,23 53,23 24,0 42,-8 53,-23 12,-16 18,-36 18,-63l0 -236c0,-27 -6,-48 -18,-63 -11,-15 -29,-23 -53,-23 -24,0 -41,8 -53,23 -11,15 -17,36 -17,63zm352 345l-30 0 0 -427 -93 0 0 -27 216 0 0 27 -93 0 0 427zm152 -111l0 -232c0,-35 9,-63 25,-84 17,-21 42,-31 75,-31 33,0 59,10 75,31 17,21 25,49 25,84l0 232c0,35 -8,63 -25,84 -16,21 -42,31 -75,31 -33,0 -58,-10 -75,-31 -16,-21 -25,-49 -25,-84zm30 -234l0 236c0,27 6,47 17,63 11,15 29,23 53,23 24,0 42,-8 53,-23 12,-16 17,-36 17,-63l0 -236c0,-27 -5,-48 -17,-63 -11,-15 -29,-23 -53,-23 -24,0 -42,8 -53,23 -11,15 -17,36 -17,63zm237 -109l95 0c34,0 57,8 72,24 14,16 21,40 21,72l0 26c0,26 -4,47 -13,61 -9,15 -25,24 -47,29 46,9 69,42 69,97l0 40c0,70 -34,105 -100,105l-97 0 0 -454zm30 200l50 0c28,0 48,-5 60,-15 12,-10 18,-29 18,-57l0 -29c0,-25 -5,-43 -14,-55 -10,-11 -26,-17 -49,-17l-65 0 0 173zm0 227l67 0c46,0 70,-26 70,-79l0 -41c0,-29 -7,-49 -20,-61 -13,-12 -33,-18 -61,-18l-56 0 0 199zm262 -240l56 0c36,0 63,8 80,26 17,18 26,45 26,81l0 50c0,73 -33,110 -98,110l-94 0 0 -454 30 0 0 187zm205 -187l30 0 0 454 -30 0 0 -454zm-205 427l64 0c45,0 68,-27 68,-81l0 -54c0,-27 -6,-47 -18,-60 -12,-12 -32,-18 -58,-18l-56 0 0 213zm334 -217l124 0 0 27 -124 0 0 190 149 0 0 27 -179 0 0 -454 179 0 0 27 -149 0 0 183zm514 244l-30 0 0 -427 -93 0 0 -27 216 0 0 27 -93 0 0 427zm152 -111l0 -232c0,-35 9,-63 25,-84 17,-21 42,-31 75,-31 33,0 59,10 75,31 17,21 25,49 25,84l0 232c0,35 -8,63 -25,84 -16,21 -42,31 -75,31 -33,0 -58,-10 -75,-31 -16,-21 -25,-49 -25,-84zm30 -234l0 236c0,27 6,47 17,63 11,15 29,23 53,23 24,0 42,-8 53,-23 12,-16 17,-36 17,-63l0 -236c0,-27 -5,-48 -17,-63 -11,-15 -29,-23 -53,-23 -24,0 -42,8 -53,23 -11,15 -17,36 -17,63zm237 -109l95 0c34,0 57,8 72,24 14,16 21,40 21,72l0 26c0,26 -4,47 -13,61 -9,15 -25,24 -47,29 46,9 69,42 69,97l0 40c0,70 -34,105 -100,105l-97 0 0 -454zm30 200l50 0c28,0 48,-5 60,-15 12,-10 18,-29 18,-57l0 -29c0,-25 -5,-43 -14,-55 -10,-11 -26,-17 -49,-17l-65 0 0 173zm0 227l67 0c47,0 70,-26 70,-79l0 -41c0,-29 -7,-49 -20,-61 -13,-12 -33,-18 -61,-18l-56 0 0 199zm418 -73l-142 0 -23 100 -27 0 99 -455 44 0 101 455 -30 0 -22 -100zm-72 -321l-66 295 133 0 -67 -295zm187 -33l94 0c65,0 97,36 97,110l0 49c0,72 -35,108 -105,108l-56 0 0 187 -30 0 0 -454zm30 240l56 0c26,0 46,-6 58,-19 11,-12 17,-32 17,-60l0 -53c0,-54 -22,-81 -67,-81l-64 0 0 213zm253 -53l56 0c36,0 63,8 80,26 17,18 26,45 26,81l0 50c0,73 -33,110 -98,110l-94 0 0 -454 30 0 0 187zm205 -187l30 0 0 454 -30 0 0 -454zm-205 427l64 0c45,0 68,-27 68,-81l0 -54c0,-27 -6,-47 -18,-60 -12,-12 -32,-18 -58,-18l-56 0 0 213z"/>
  <polygon class="fil3 str0" points="1476,4951 4536,4951 4536,5743 1476,5743 "/>
  <path class="fil2" d="M2340 5255l-69 0 0 255 -32 0 0 -284 133 0 0 284 -32 0 0 -255zm73 186l0 -146c0,-23 5,-40 16,-53 11,-12 27,-19 49,-19 21,0 37,7 48,19 11,13 17,30 17,53l0 146c0,23 -6,40 -17,53 -11,13 -27,19 -48,19 -21,0 -38,-6 -49,-19 -11,-13 -16,-30 -16,-53zm31 -148l0 150c0,27 11,41 34,41 22,0 33,-14 33,-41l0 -150c0,-27 -11,-41 -33,-41 -23,0 -34,14 -34,41zm310 256l-30 0 0 -39 -116 0 0 39 -31 0 0 -67 18 0c8,-8 12,-22 13,-41l11 -215 114 0 0 256 21 0 0 67zm-106 -294l-9 185c-1,20 -6,34 -13,42l75 0 0 -227 -53 0zm145 -29l62 0c42,0 64,23 64,69l0 35c0,45 -23,68 -67,68l-28 0 0 112 -31 0 0 -284zm31 144l28 0c12,0 21,-3 27,-9 5,-6 8,-16 8,-29l0 -38c0,-13 -2,-23 -7,-30 -6,-6 -14,-9 -25,-9l-31 0 0 115zm128 71l0 -146c0,-23 5,-40 16,-53 11,-12 27,-19 48,-19 22,0 38,7 49,19 11,13 17,30 17,53l0 146c0,23 -6,40 -17,53 -11,13 -27,19 -49,19 -21,0 -37,-6 -48,-19 -11,-13 -16,-30 -16,-53zm31 -148l0 150c0,27 11,41 33,41 23,0 34,-14 34,-41l0 -150c0,-27 -11,-41 -34,-41 -22,0 -33,14 -33,41zm171 50l33 0c45,0 67,22 67,67l0 31c0,46 -21,69 -65,69l-66 0 0 -284 120 0 0 29 -89 0 0 88zm0 138l35 0c12,0 20,-3 26,-9 5,-6 8,-16 8,-29l0 -35c0,-13 -3,-23 -9,-28 -6,-6 -14,-8 -27,-8l-33 0 0 109zm243 -99l-70 0 0 128 -31 0 0 -284 31 0 0 128 70 0 0 -128 32 0 0 284 -32 0 0 -128zm107 -30l69 0 0 28 -69 0 0 101 85 0 0 29 -117 0 0 -284 117 0 0 29 -85 0 0 97zm156 0l70 0 0 28 -70 0 0 101 86 0 0 29 -117 0 0 -284 117 0 0 29 -86 0 0 97z"/>
  <polygon class="fil4" points="2786,3081 6012,3080 6012,3840 3020,3840 "/>
  <path class="fil2" d="M3140 3521l0 168 -64 0 0 -391 64 0 0 167 72 0 0 -167 65 0 0 391 -65 0 0 -168 -72 0zm324 -223l65 391 -64 0 -11 -71 -78 0 -11 71 -59 0 65 -391 93 0zm-49 69l-31 198 61 0 -30 -198zm207 154l0 168 -63 0 0 -391 63 0 0 167 73 0 0 -167 64 0 0 391 -64 0 0 -168 -73 0zm247 -167l0 109 88 0 0 56 -88 0 0 114 110 0 0 56 -173 0 0 -391 173 0 0 56 -110 0zm274 189l60 0 0 52c0,32 -8,56 -24,73 -16,17 -40,25 -71,25 -31,0 -54,-8 -70,-25 -17,-17 -25,-41 -25,-73l0 -203c0,-32 8,-56 25,-73 16,-17 39,-26 70,-26 31,0 55,9 71,26 16,17 24,41 24,73l0 38 -60 0 0 -42c0,-26 -11,-39 -33,-39 -22,0 -33,13 -33,39l0 211c0,25 11,38 33,38 22,0 33,-13 33,-38l0 -56zm162 -189l0 109 88 0 0 56 -88 0 0 114 110 0 0 56 -173 0 0 -391 173 0 0 56 -110 0zm213 167l0 168 -63 0 0 -391 63 0 0 167 73 0 0 -167 64 0 0 391 -64 0 0 -168 -73 0zm302 -11l-53 179 -65 0 0 -391 56 0 0 247 24 -86 52 -161 70 0 0 391 -58 0 0 -275 -26 96zm182 179l-65 0c5,-10 7,-26 7,-47l0 -61c0,-44 14,-72 42,-83 -27,-13 -41,-39 -41,-79l0 -31c0,-31 7,-53 22,-68 15,-15 39,-22 72,-22l96 0 0 391 -64 0 0 -159 -22 0c-14,0 -25,4 -31,11 -7,8 -10,21 -10,38l0 62c0,21 -2,37 -6,48zm69 -335l-30 0c-22,0 -33,13 -33,40l0 39c0,14 3,25 10,31 6,7 16,10 28,10l25 0 0 -120z"/>
 </g>
</svg>
