<?xml version="1.0" encoding="UTF-8"?>
<!DOCTYPE svg PUBLIC "-//W3C//DTD SVG 1.1//EN" "http://www.w3.org/Graphics/SVG/1.1/DTD/svg11.dtd">
<!-- Creator: CorelDRAW X8 -->
<svg xmlns="http://www.w3.org/2000/svg" xml:space="preserve" width="110.173mm" height="147.491mm" version="1.1" style="shape-rendering:geometricPrecision; text-rendering:geometricPrecision; image-rendering:optimizeQuality; fill-rule:evenodd; clip-rule:evenodd"
viewBox="0 0 2679 3586"
 xmlns:xlink="http://www.w3.org/1999/xlink">
 <defs>
  <style type="text/css">
   <![CDATA[
    .str0 {stroke:white;stroke-width:1.85266;stroke-opacity:0.741176}
    .fil8 {fill:none}
    .fil2 {fill:black;fill-rule:nonzero}
    .fil4 {fill:#730621;fill-rule:nonzero}
    .fil3 {fill:#B0002C;fill-rule:nonzero}
    .fil6 {fill:#B59452;fill-rule:nonzero}
    .fil5 {fill:#D4B476;fill-rule:nonzero}
    .fil1 {fill:#F71B3F;fill-rule:nonzero}
    .fil7 {fill:white;fill-rule:nonzero}
    .fil0 {fill:url(#id0)}
   ]]>
  </style>
  <linearGradient id="id0" gradientUnits="userSpaceOnUse" x1="336.173" y1="498.684" x2="2342.47" y2="3087.28">
   <stop offset="0" style="stop-opacity:1; stop-color:#F71B3F"/>
   <stop offset="1" style="stop-opacity:1; stop-color:#B0002C"/>
  </linearGradient>
 </defs>
 <g id="Layer_x0020_1">
  <metadata id="CorelCorpID_0Corel-Layer"/>
  <polygon class="fil0" points="0,0 2679,0 2679,3586 0,3586 "/>
  <polygon class="fil1" points="2205,1752 1575,2295 1759,2261 "/>
  <polygon class="fil2" points="512,1951 449,736 1172,228 2289,762 2331,1566 1467,2274 "/>
  <polygon class="fil3" points="2248,659 1383,176 506,798 527,1289 2273,1084 "/>
  <polygon class="fil4" points="2273,1084 2248,659 2101,577 2105,1006 527,1276 527,1315 2244,1104 2244,1088 "/>
  <polygon class="fil5" points="1227,2295 2244,1739 2205,1092 477,1284 488,1834 "/>
  <polygon class="fil6" points="2211,1189 2211,1189 2210,1179 2205,1092 2106,1103 2107,1144 481,1353 2107,1199 2111,1637 1188,2179 488,1834 1227,2295 2244,1739 "/>
  <path class="fil7" d="M1179 2142c5,-4 11,-8 17,-10 6,-3 12,-4 18,-6 7,-1 12,-1 18,0 32,2 58,1 78,-4 20,-5 33,-12 38,-23 2,-3 1,-6 -2,-9 -4,-2 -10,-5 -17,-6 -8,-1 -17,-3 -27,-4 -11,0 -21,-2 -33,-3 -12,-1 -23,-2 -35,-3 -12,-1 -23,-3 -33,-6 -11,-2 -22,-5 -32,-11 -10,-4 -19,-10 -28,-18 -8,-7 -15,-16 -21,-27 -6,-11 -9,-22 -11,-36 -3,-11 -4,-24 -3,-38 0,-15 2,-29 5,-44 3,-15 7,-30 12,-44 6,-14 12,-27 19,-39 3,-5 6,-9 10,-15 5,-5 10,-10 16,-15 6,-4 13,-8 21,-12 8,-4 18,-6 27,-8 16,-2 32,-3 48,-3 16,0 31,2 44,6 8,3 15,5 21,9 6,4 11,8 15,13 4,4 7,9 9,13 3,5 5,10 7,14 4,8 7,18 9,28 3,10 5,21 7,31 3,11 4,21 5,32 2,10 2,19 2,27 0,7 -1,13 -4,16 -4,3 -9,5 -17,6 -46,6 -74,-3 -83,-29 -2,-5 -4,-11 -6,-19 -2,-7 -4,-14 -5,-21 -2,-8 -4,-14 -6,-21 -1,-6 -3,-11 -6,-15 -2,-4 -5,-5 -7,-4 -3,0 -6,4 -10,10 -3,5 -6,12 -9,20 -3,8 -6,17 -8,26 -2,9 -3,19 -3,29 0,10 1,19 3,28 3,8 7,16 13,22 5,7 13,12 22,14 12,4 26,6 39,8 14,2 28,3 41,4 14,1 27,3 39,5 13,2 23,4 33,8 9,4 16,9 22,15 5,7 7,16 7,26 0,8 -1,16 -2,26 -2,10 -6,20 -11,30 -6,10 -14,20 -24,31 -11,10 -24,20 -41,29 -23,12 -48,20 -74,22 -27,2 -57,-1 -91,-11 -18,-5 -29,-9 -32,-14 -3,-6 -2,-11 2,-17 4,-5 9,-9 14,-13zm404 -184c-20,14 -37,28 -51,41 0,14 0,27 0,38 1,13 2,24 2,35 1,6 -1,11 -4,13 -3,3 -8,5 -16,6 -4,0 -9,1 -14,1 -6,0 -12,0 -17,1 -5,-1 -9,-1 -13,-2 -3,0 -6,-1 -8,-2 -3,-2 -5,-4 -7,-8 -2,-4 -4,-9 -5,-16 -4,-23 -6,-51 -9,-84 -3,-32 -5,-66 -6,-101 -2,-35 -3,-70 -4,-105 -1,-34 -1,-65 1,-93 0,-10 2,-19 7,-27 4,-9 14,-16 28,-22 11,-5 23,-10 32,-13 10,-3 20,-6 28,-8 9,-2 17,-4 24,-6 8,-1 15,-2 23,-4 10,-1 18,0 23,4 5,4 10,11 13,19 9,21 19,46 31,73 13,27 26,55 40,84 14,29 28,58 43,87 15,29 28,56 41,81 3,5 4,9 3,12 -1,4 -6,7 -13,11 -8,3 -15,7 -22,9 -6,3 -13,5 -21,6 -8,2 -14,2 -18,0 -5,-2 -9,-6 -15,-14 -5,-7 -11,-16 -17,-26 -6,-9 -12,-20 -19,-31 -20,14 -40,28 -60,41zm-17 -85c13,-8 25,-16 38,-23 -13,-24 -25,-47 -37,-71 -13,-23 -24,-46 -35,-69 -1,27 -2,56 -2,88 -1,33 -1,66 0,100 11,-8 24,-17 36,-25zm355 -4c-18,14 -34,27 -50,39 -5,5 -10,8 -14,11 -4,3 -8,4 -12,5 -3,1 -6,2 -9,1 -3,0 -6,0 -8,0 -7,-1 -13,-2 -19,-3 -5,-1 -13,-3 -22,-5 -7,-1 -13,-4 -18,-8 -5,-3 -9,-9 -12,-17 -5,-12 -10,-26 -16,-42 -6,-17 -12,-35 -18,-54 -6,-19 -12,-39 -19,-60 -6,-21 -12,-42 -18,-63 -5,-21 -10,-42 -15,-62 -5,-19 -9,-37 -13,-54 -1,-10 0,-17 4,-21 4,-3 10,-6 21,-8 10,-3 21,-4 34,-6 12,-1 24,0 34,1 10,2 17,4 22,7 3,3 6,9 7,18 3,20 7,42 12,66 4,24 9,48 15,73 5,25 10,49 16,74 6,24 11,48 17,70 12,-9 23,-17 34,-24 11,-7 23,-15 36,-22 8,-5 15,-8 20,-9 4,0 10,2 16,6 6,3 12,7 17,11 5,4 9,9 13,13 5,5 7,9 8,11 -1,3 -5,7 -13,13 -16,13 -33,26 -50,39zm2 -439c14,-11 28,-22 43,-33 15,-12 30,-23 47,-34 16,-11 33,-21 50,-30 16,-9 30,-8 41,3 8,4 13,9 17,14 5,5 10,11 14,17 5,6 7,12 6,16 -1,3 -5,8 -13,13 -16,11 -33,22 -50,34 -18,11 -36,23 -55,37 2,15 5,30 8,46 4,16 7,33 10,51 8,-6 16,-11 25,-16 8,-5 17,-10 27,-16 8,-4 14,-6 20,-7 6,-1 11,1 17,5 7,4 12,8 17,13 5,5 10,10 14,15 5,5 8,10 7,13 -1,3 -4,8 -12,13 -15,12 -32,24 -48,36 -16,13 -32,24 -47,36 2,11 4,20 6,30 2,9 4,18 6,28 13,-9 25,-18 37,-26 11,-7 24,-15 38,-23 8,-5 14,-8 19,-8 6,-1 11,1 17,4 6,4 12,8 16,12 5,4 9,8 14,13 4,4 6,8 6,11 0,3 -4,8 -11,13 -17,13 -33,26 -50,39 -17,14 -34,27 -50,38 -10,9 -18,14 -25,15 -6,2 -13,3 -19,2 -6,-1 -12,-2 -18,-3 -7,-1 -14,-2 -23,-5 -7,-1 -13,-4 -18,-8 -6,-4 -10,-10 -14,-18l-105 -309c11,-9 23,-20 36,-31z"/>
  <polygon class="fil7" points="2273,1084 2239,1127 426,1360 354,1295 "/>
  <path class="fil5" d="M1903 2295c12,-3 164,-28 164,-28l240 -484 -404 512z"/>
  <polygon class="fil7" points="449,694 1169,122 1026,97 "/>
  <path class="fil2" d="M837 1749c19,10 34,23 46,37 12,19 18,37 18,54 0,17 -5,38 -15,59 -6,16 -14,33 -25,50 -10,17 -22,34 -36,50 -14,17 -27,32 -42,47 -14,15 -28,29 -41,41 -8,6 -13,12 -19,15 -6,4 -11,8 -17,10 -6,2 -11,4 -18,5 -6,1 -13,1 -22,1 -17,1 -31,1 -44,0 -13,-1 -29,-4 -47,-7 -7,-2 -14,-5 -20,-7 -5,-1 -11,-3 -15,-7 -4,-3 -8,-6 -12,-11 -3,-5 -7,-12 -10,-20 -13,-28 -26,-60 -41,-96 -15,-36 -29,-73 -44,-113 -15,-39 -31,-78 -47,-117 -16,-39 -32,-75 -49,-109 12,-17 27,-36 44,-55 18,-19 37,-38 58,-56 21,-18 43,-35 66,-50 22,-15 46,-28 69,-38 22,-10 44,-18 65,-21 21,-4 41,-3 59,2 23,8 44,17 64,29 19,13 37,29 54,49 8,12 15,24 19,37 3,13 5,26 5,40 0,15 -1,28 -5,41 -3,15 -8,28 -13,41 -6,13 -13,27 -20,40 -6,15 -15,29 -26,44 21,0 42,5 61,15zm-199 -43c15,-24 27,-47 35,-68 9,-20 12,-38 14,-53 1,-15 -1,-26 -7,-32 -5,-5 -12,-6 -21,-6 -9,2 -20,6 -32,13 -12,7 -25,17 -39,30 -14,13 -27,29 -42,47 4,22 9,44 15,67 6,23 12,48 18,74 24,-24 43,-48 59,-72zm-10 251c5,19 10,37 16,57 20,-18 37,-35 52,-54 14,-17 26,-34 34,-50 9,-15 14,-29 15,-42 2,-12 0,-21 -6,-28 -4,-3 -11,-5 -19,-5 -8,1 -18,2 -30,7 -12,4 -24,11 -37,20 -14,10 -27,22 -42,37 6,20 12,40 17,58zm351 -643c5,5 9,14 12,28 5,22 10,48 16,77 6,30 12,59 20,91 7,32 15,65 23,98 8,33 17,65 25,97 8,31 16,61 24,88 7,29 14,54 20,75 2,8 2,15 -1,19 -2,4 -10,8 -23,11 -13,3 -25,6 -37,8 -12,2 -24,3 -35,3 -12,1 -22,-1 -29,-6 -6,-4 -12,-13 -16,-25 -8,-15 -16,-36 -26,-62 -10,-26 -20,-54 -30,-85 -11,-31 -22,-63 -34,-98 -11,-34 -22,-68 -32,-102 -11,-33 -21,-65 -29,-95 -8,-30 -16,-57 -22,-80 -2,-14 -1,-25 4,-32 6,-6 16,-10 31,-13 16,-4 33,-6 52,-7 20,-1 37,-1 53,0 17,2 28,6 34,10zm495 -1c-3,6 -10,10 -21,15 -33,12 -60,15 -81,8 -21,-6 -39,-19 -53,-41 -3,-4 -5,-7 -8,-12 -2,-4 -5,-8 -7,-13 -2,-5 -4,-9 -7,-13 -3,-5 -5,-9 -8,-13 -7,-7 -12,-13 -16,-18 -5,-5 -9,-7 -15,-6 -9,2 -18,11 -25,26 -7,17 -11,37 -14,62 -3,25 -5,52 -4,82 1,31 5,61 10,92 3,25 9,49 17,72 9,24 18,45 28,64 11,18 22,32 34,42 13,11 24,16 35,14 9,-1 17,-6 24,-15 6,-8 11,-19 15,-32 4,-13 6,-28 7,-44 2,-17 2,-34 2,-52 -26,15 -48,21 -68,18 -19,-3 -40,-15 -61,-35 -5,-5 -7,-10 -7,-14 1,-5 2,-9 6,-13 4,-5 9,-9 15,-14 7,-5 14,-10 22,-16 15,-11 29,-23 46,-34 17,-12 31,-21 42,-30 14,-10 26,-16 36,-19 10,-2 22,0 34,4 9,3 17,7 25,10 7,3 14,7 21,11 12,6 21,13 26,20 4,8 7,19 9,32 4,48 2,90 -4,128 -7,37 -20,69 -36,96 -12,17 -25,32 -41,43 -16,13 -34,22 -55,30 -35,12 -73,20 -112,23 -14,0 -30,-3 -46,-8 -16,-4 -30,-10 -43,-20 -21,-13 -41,-32 -59,-57 -18,-23 -34,-51 -47,-82 -13,-30 -24,-63 -32,-99 -7,-35 -11,-70 -12,-107 -2,-36 1,-71 8,-107 5,-35 16,-69 31,-99 5,-10 11,-19 18,-27 8,-8 16,-16 25,-22 8,-6 17,-12 26,-17 9,-4 18,-8 27,-11 11,-4 24,-8 38,-11 13,-3 27,-6 40,-8 13,-1 26,-2 39,-2 12,1 24,2 35,5 21,4 39,11 52,22 13,11 25,24 37,41 5,8 10,19 16,30 5,11 11,23 16,35 4,12 9,23 13,35 4,11 7,20 9,28 1,11 0,18 -2,23z"/>
  <g id="_-2094312368">
   <path class="fil7" d="M1772 931c-57,0 -56,89 1,88 58,-1 56,-89 -1,-88zm0 -30c98,-1 100,146 2,148 -99,1 -101,-146 -2,-148z"/>
   <polygon class="fil7" points="1901,930 1902,959 1938,959 1939,987 1902,988 1903,1045 1874,1045 1872,902 1944,901 1944,930 "/>
   <polygon class="fil7" points="1996,929 1997,958 2033,957 2034,986 1997,986 1998,1044 1969,1044 1967,901 2039,900 2039,928 "/>
   <path class="fil7" d="M1941 835c38,0 37,-57 0,-56 -38,0 -37,57 0,56zm1 40c-94,1 -96,-135 -2,-136 94,-1 96,135 2,136zm-167 -213c37,-1 36,-57 -1,-57 -37,1 -37,57 1,57zm209 -94l-194 306 -62 1 195 -306 61 -1zm-209 134c-94,1 -96,-135 -2,-136 94,-1 96,134 2,136z"/>
  </g>
  <path class="fil7" d="M616 826l178 -2 2 88 -179 2 -1 -88zm383 61c8,0 14,0 20,0 32,-1 59,3 83,11 25,7 45,18 61,33 16,15 28,33 37,53 8,21 13,44 13,69 0,26 -4,50 -13,72 -9,23 -22,42 -40,59 -18,16 -40,29 -67,39 -26,10 -56,15 -90,15 -22,1 -44,-1 -64,-5 -20,-4 -38,-10 -54,-16l-2 -84c21,8 40,14 59,18 18,3 36,5 53,5 21,-1 40,-4 55,-9 15,-5 27,-12 37,-20 9,-9 16,-19 20,-31 5,-12 7,-25 7,-39 -1,-15 -3,-28 -8,-40 -5,-11 -13,-21 -24,-29 -11,-8 -24,-14 -41,-18 -16,-3 -36,-5 -59,-5 -13,0 -26,1 -41,2 -14,2 -29,4 -46,7l37 -299 275 -4 1 88 -193 2 -16 126zm535 -23c-1,-41 -9,-73 -24,-95 -15,-22 -37,-32 -65,-32 -29,0 -51,12 -65,34 -15,22 -22,54 -22,96 1,41 9,72 24,94 16,22 38,33 66,33 28,-1 50,-12 65,-34 14,-23 21,-55 21,-96zm99 -1c1,29 -3,57 -11,82 -7,26 -19,48 -34,66 -15,19 -35,34 -58,45 -23,11 -50,17 -81,17 -30,0 -57,-4 -80,-15 -23,-10 -43,-24 -59,-43 -16,-18 -29,-40 -38,-65 -8,-25 -13,-52 -13,-82 0,-30 3,-57 11,-83 8,-25 20,-47 35,-66 16,-19 35,-34 58,-45 24,-10 50,-16 80,-16 31,-1 58,4 82,14 23,10 43,24 59,43 16,18 28,40 36,65 8,26 13,53 13,83z"/>
  <path class="fil7" d="M479 2539l0 -18c0,-14 -2,-24 -7,-30 -4,-5 -11,-8 -20,-8 -18,0 -27,11 -27,33l0 27 -48 0 0 -25c0,-27 6,-47 19,-61 13,-15 32,-22 58,-22 25,0 44,8 57,22 14,14 20,35 20,62l0 8c0,36 -12,59 -36,69 24,10 36,34 36,69l0 26c0,27 -6,48 -20,62 -13,15 -32,22 -57,22 -26,0 -45,-7 -58,-22 -14,-14 -20,-35 -20,-62l0 -36 49 0 0 40c0,22 9,33 27,33 9,0 16,-3 20,-9 5,-5 7,-15 7,-29l0 -26c0,-15 -2,-26 -8,-32 -5,-7 -14,-10 -26,-10l-13 0 0 -48 16 0c10,0 18,-2 23,-8 6,-5 8,-14 8,-27zm216 -100l53 332 -53 0 -9 -60 -64 0 -9 60 -48 0 53 -332 77 0zm-41 59l-25 168 50 0 -25 -168zm244 -11l0 284 -53 0 0 -332 165 0 0 332 -53 0 0 -284 -59 0zm210 29l0 179c0,22 9,33 27,33 18,0 27,-11 27,-33l0 -179c0,-22 -9,-33 -27,-33 -18,0 -27,11 -27,33zm-52 175l0 -172c0,-27 7,-47 21,-62 13,-14 33,-22 58,-22 26,0 46,8 59,22 14,15 21,35 21,62l0 172c0,27 -7,48 -21,62 -13,15 -33,22 -59,22 -25,0 -45,-7 -58,-22 -14,-14 -21,-35 -21,-62zm190 81l0 -48c13,0 21,-2 25,-6 5,-4 7,-13 7,-28l9 -251 147 0 0 332 -53 0 0 -284 -45 0 -6 200c-1,31 -7,52 -19,65 -12,13 -31,20 -57,20l-8 0zm241 -1l0 -332 52 0 0 285 59 0 0 -285 53 0 0 286 23 0 0 91 -51 0 0 -45 -136 0zm280 -284l0 92 72 0 0 48 -72 0 0 97 90 0 0 47 -142 0 0 -332 142 0 0 48 -90 0zm187 142l0 142 -52 0 0 -332 52 0 0 142 59 0 0 -142 53 0 0 332 -53 0 0 -142 -59 0zm240 142l-77 0 0 -332 52 0 0 125 25 0c51,0 77,27 77,82l0 43c0,55 -26,82 -77,82zm-25 -47l25 0c8,0 15,-3 19,-7 4,-5 6,-13 6,-25l0 -49c0,-12 -2,-20 -6,-25 -4,-4 -11,-7 -19,-7l-25 0 0 113zm184 47l-52 0 0 -332 52 0 0 332z"/>
  <polygon class="fil8 str0" points="687,3006 2050,3006 2050,3359 687,3359 "/>
  <path class="fil7" d="M910 3129l-27 99c-3,10 -6,17 -11,22 -4,4 -12,6 -23,6l0 -13c6,0 10,-1 12,-3 3,-1 5,-5 6,-10l3 -8 -29 -93 14 0 13 44 9 32 7 -32 11 -44 15 0zm42 -1c10,0 17,2 22,8 5,6 7,14 7,23l0 12 -13 0 0 -12c0,-13 -5,-19 -15,-19 -10,0 -15,6 -15,19l0 67c0,12 5,18 15,18 10,0 15,-6 15,-18l0 -17 13 0 0 16c0,10 -2,17 -7,23 -5,6 -12,9 -22,9 -9,0 -16,-3 -21,-9 -5,-6 -7,-13 -7,-23l0 -66c0,-9 2,-17 7,-23 5,-6 12,-8 21,-8zm98 14l-25 0 -2 82c-1,11 -3,19 -7,24 -3,5 -10,7 -19,8l-2 0 0 -13c5,0 9,-2 11,-4 2,-3 3,-8 3,-14l3 -96 52 0 0 126 -14 0 0 -113zm32 83l0 -66c0,-9 3,-17 8,-23 5,-6 12,-8 21,-8 10,0 17,2 22,8 5,6 7,14 7,23l0 66c0,10 -2,17 -7,23 -5,6 -12,9 -22,9 -9,0 -16,-3 -21,-9 -5,-6 -8,-13 -8,-23zm14 -66l0 67c0,12 5,18 15,18 10,0 15,-6 15,-18l0 -67c0,-13 -5,-19 -15,-19 -10,0 -15,6 -15,19zm63 -30l28 0c10,0 17,2 21,7 4,4 6,11 6,21l0 6c0,7 -1,12 -3,16 -2,4 -6,7 -11,9 11,3 17,12 17,27l0 11c0,19 -10,29 -29,29l-29 0 0 -126zm14 54l11 0c5,0 10,-2 13,-4 2,-3 4,-7 4,-13l0 -8c0,-5 -2,-10 -4,-12 -2,-3 -5,-4 -10,-4l-14 0 0 41zm0 60l15 0c10,0 15,-6 15,-18l0 -11c0,-7 -2,-12 -4,-14 -3,-3 -8,-5 -14,-5l-12 0 0 48zm108 -88l-13 42 -19 58 -15 0 0 -126 13 0 0 94 13 -40 18 -54 16 0 0 126 -13 0 0 -100zm75 46l-10 0c-6,0 -11,2 -14,5 -3,2 -5,7 -5,14l0 20c0,7 -1,12 -2,15l-14 0c1,-3 2,-8 2,-15l0 -20c0,-14 5,-23 16,-26 -11,-3 -16,-12 -16,-26l0 -10c0,-10 3,-17 7,-22 5,-5 12,-7 22,-7l28 0 0 126 -14 0 0 -54zm0 -59l-14 0c-10,0 -15,5 -15,17l0 12c0,7 2,11 5,14 3,2 7,3 13,3l11 0 0 -46zm84 -13l29 0c9,0 16,2 21,7 4,4 6,11 6,21l0 6c0,7 -1,12 -3,16 -3,4 -6,7 -12,9 12,3 17,12 17,27l0 11c0,19 -9,29 -29,29l-29 0 0 -126zm14 54l11 0c6,0 10,-2 13,-4 3,-3 4,-7 4,-13l0 -8c0,-5 -1,-10 -3,-12 -2,-3 -6,-4 -11,-4l-14 0 0 41zm0 60l15 0c10,0 15,-6 15,-18l0 -11c0,-7 -1,-12 -4,-14 -3,-3 -7,-5 -13,-5l-13 0 0 48zm107 -45l-31 0 0 57 -14 0 0 -126 14 0 0 57 31 0 0 -57 14 0 0 126 -14 0 0 -57zm98 -69l-27 99c-2,10 -6,17 -10,22 -5,4 -13,6 -23,6l0 -13c5,0 9,-1 12,-3 2,-1 4,-5 6,-10l2 -8 -29 -93 14 0 13 44 9 32 7 -32 12 -44 14 0zm49 126l-14 0 0 -113 -23 0 0 -13 60 0 0 13 -23 0 0 113zm38 -126l28 0c19,0 29,10 29,31l0 15c0,20 -10,30 -30,30l-12 0 0 50 -15 0 0 -126zm15 64l12 0c5,0 9,-2 12,-4 2,-3 4,-7 4,-13l0 -17c0,-6 -2,-10 -4,-13 -2,-3 -6,-4 -11,-4l-13 0 0 51zm104 -38l-13 42 -19 58 -15 0 0 -126 13 0 0 94 13 -40 18 -54 16 0 0 126 -13 0 0 -100z"/>
 </g>
</svg>
