<?xml version="1.0" encoding="UTF-8"?>
<!DOCTYPE svg PUBLIC "-//W3C//DTD SVG 1.1//EN" "http://www.w3.org/Graphics/SVG/1.1/DTD/svg11.dtd">
<!-- Creator: CorelDRAW X8 -->
<svg xmlns="http://www.w3.org/2000/svg" xml:space="preserve" width="172.985mm" height="72.9431mm" version="1.1" style="shape-rendering:geometricPrecision; text-rendering:geometricPrecision; image-rendering:optimizeQuality; fill-rule:evenodd; clip-rule:evenodd"
viewBox="0 0 14822 6250"
 xmlns:xlink="http://www.w3.org/1999/xlink">
 <defs>
  <style type="text/css">
   <![CDATA[
    .str0 {stroke:white;stroke-width:6.52904;stroke-opacity:0.741176}
    .fil9 {fill:none}
    .fil8 {fill:#FEFEFE;fill-rule:nonzero}
    .fil2 {fill:#4F0417;fill-rule:nonzero}
    .fil4 {fill:#730621;fill-rule:nonzero}
    .fil3 {fill:#B0002C;fill-rule:nonzero}
    .fil6 {fill:#B59452;fill-rule:nonzero}
    .fil5 {fill:#D4B476;fill-rule:nonzero}
    .fil1 {fill:#DBDBDB;fill-rule:nonzero}
    .fil7 {fill:white;fill-rule:nonzero}
    .fil0 {fill:url(#id0)}
   ]]>
  </style>
  <linearGradient id="id0" gradientUnits="userSpaceOnUse" x1="5828.73" y1="6877.22" x2="8993.16" y2="-627.234">
   <stop offset="0" style="stop-opacity:1; stop-color:#B0002C"/>
   <stop offset="1" style="stop-opacity:1; stop-color:#F71B3F"/>
  </linearGradient>
 </defs>
 <g id="Layer_x0020_1">
  <metadata id="CorelCorpID_0Corel-Layer"/>
  <polygon class="fil0" points="14822,0 0,0 0,6250 14822,6250 "/>
  <path class="fil1" d="M12655 3951c-503,860 -1587,1150 -2421,649 -834,-501 -1102,-1604 -599,-2464 503,-859 1587,-1150 2421,-648 834,501 1102,1604 599,2463z"/>
  <path class="fil2" d="M12728 3817c-503,859 -1587,1150 -2421,649 -834,-502 -1103,-1605 -600,-2464 503,-859 1587,-1150 2421,-649 834,502 1103,1605 600,2464z"/>
  <path class="fil3" d="M13070 2968c-85,-925 -844,-1642 -1774,-1636 -929,6 -1729,735 -1829,1661l3603 -25z"/>
  <path class="fil4" d="M13070 2968c-8,-84 -21,-165 -39,-245l0 0 0 0c-60,-259 -173,-497 -328,-699 63,232 85,477 61,723l-2747 242 2985 13 3 -34 65 0z"/>
  <path class="fil5" d="M9303 2994c85,925 844,1642 1774,1636 930,-6 1719,-736 1818,-1661l-3592 25z"/>
  <path class="fil6" d="M12895 2969l-165 1c-7,37 -16,73 -26,110l-15 -15 -3356 49 3333 90c-286,840 -1084,1376 -1957,1389 119,25 242,37 368,37 930,-6 1719,-736 1818,-1661z"/>
  <g id="_-2135082704">
   <path class="fil2" d="M10123 3886c-5,28 -11,56 -14,84 -3,8 -7,14 -11,17 -5,2 -15,2 -29,0 -13,-4 -27,-7 -40,-11 -14,-3 -25,-8 -36,-13 -10,-6 -17,-12 -22,-21 -6,-8 -7,-20 -4,-33 5,-13 9,-35 13,-66 3,-31 6,-65 9,-105 3,-39 5,-79 8,-121 3,-42 5,-80 8,-116 3,-35 6,-65 10,-90 4,-23 8,-37 13,-39 20,-11 43,-23 67,-35 25,-12 50,-22 77,-32 26,-10 53,-18 79,-25 27,-6 52,-9 76,-10 25,-2 48,1 70,7 21,6 40,16 55,31 19,20 36,42 52,65 15,23 27,52 36,85 5,17 6,33 4,47 -2,15 -6,28 -11,41 -7,13 -15,26 -23,38 -10,12 -20,23 -31,35 -18,19 -40,37 -65,54 -25,17 -53,34 -83,49 -30,16 -61,29 -94,42 -33,12 -65,23 -98,33 -6,30 -11,60 -16,89zm148 -287c28,-17 52,-36 70,-55 18,-19 31,-37 38,-54 7,-17 8,-31 4,-43 -2,-7 -7,-11 -17,-15 -11,-3 -23,-5 -38,-4 -15,1 -33,4 -52,8 -19,4 -38,11 -58,20 -9,29 -16,59 -23,91 -8,31 -15,64 -23,98 38,-13 71,-28 99,-46z"/>
   <path class="fil2" d="M10688 3868c-6,30 -13,60 -18,89 -2,9 -6,15 -10,17 -5,3 -14,3 -26,1 -14,-4 -27,-6 -39,-9 -11,-2 -21,-5 -32,-11 -11,-5 -17,-12 -21,-21 -4,-8 -5,-19 -5,-33 1,-11 2,-27 5,-49 1,-22 3,-46 5,-74 2,-26 5,-55 8,-87 3,-31 7,-62 11,-93 3,-32 7,-62 11,-92 5,-29 9,-55 14,-79 6,-23 11,-43 17,-58 7,-15 13,-24 20,-29 33,-15 68,-30 104,-45 36,-15 72,-26 107,-33 35,-6 68,-7 100,-3 31,5 59,19 83,42 19,20 37,41 52,64 16,23 27,52 37,86 7,36 5,65 -7,89 -18,37 -49,71 -91,103 -44,32 -95,62 -155,89 12,14 26,29 42,44 15,15 30,31 46,46 15,15 31,30 47,45 15,14 29,27 43,37 11,9 16,16 15,22 -1,5 -5,11 -13,17 -10,7 -18,12 -24,13 -8,2 -16,3 -25,5 -12,3 -25,4 -39,3 -15,-1 -32,-7 -50,-18 -12,-9 -27,-19 -43,-32 -17,-12 -34,-27 -51,-42 -17,-15 -35,-31 -52,-48 -17,-17 -34,-33 -48,-50 -6,33 -13,64 -18,94zm77 -334c-8,31 -17,64 -27,100 37,-13 70,-28 99,-47 28,-18 52,-37 71,-56 19,-19 33,-36 41,-53 9,-17 11,-30 8,-39 -7,-15 -26,-22 -58,-22 -15,1 -33,3 -51,7 -19,4 -39,11 -60,22 -8,27 -16,56 -23,88zm612 -194c2,7 3,19 -1,33 -7,25 -15,52 -23,84 -9,31 -17,63 -26,98 -8,35 -16,71 -25,107 -8,36 -16,72 -23,107 -8,34 -15,68 -21,98 -7,32 -12,59 -16,83 -3,9 -7,16 -11,18 -5,3 -14,3 -28,0 -14,-4 -27,-7 -40,-11 -13,-4 -25,-8 -36,-14 -12,-5 -20,-13 -24,-21 -5,-7 -6,-18 -5,-32 1,-18 3,-43 6,-73 3,-30 7,-62 12,-98 4,-35 9,-72 15,-112 6,-40 12,-78 19,-115 6,-38 12,-74 19,-108 7,-33 13,-63 18,-88 5,-15 11,-25 20,-29 8,-4 20,-3 37,2 17,3 35,10 54,18 19,9 36,18 51,27 16,10 25,19 28,26zm436 463c0,12 -4,25 -13,43 -9,19 -21,37 -36,53 -15,16 -30,30 -45,41 -7,5 -16,10 -26,14 -11,4 -22,8 -33,11 -12,3 -24,5 -36,6 -13,1 -25,1 -37,1 -25,-2 -49,-5 -69,-12 -20,-5 -39,-10 -55,-16 -15,-5 -29,-14 -44,-25 -14,-11 -26,-24 -34,-39 -14,-23 -24,-50 -30,-82 -6,-31 -9,-64 -8,-100 1,-36 6,-73 15,-111 8,-38 20,-74 34,-111 15,-36 34,-70 55,-103 22,-32 46,-60 73,-85 23,-19 45,-33 68,-38 24,-6 45,-9 66,-8 15,2 30,4 46,8 17,3 32,8 47,14 16,5 30,11 43,17 14,8 26,14 37,21 10,9 19,17 26,25 7,8 12,16 16,25 5,9 7,18 9,27 2,9 3,20 3,30 1,12 2,25 1,39 -1,14 -2,27 -4,39 -1,14 -3,26 -5,38 -3,12 -6,24 -9,34 -1,4 -3,8 -5,12 -1,4 -4,6 -6,9 -3,2 -7,3 -13,4 -5,1 -13,0 -22,-2 -16,-2 -32,-7 -44,-13 -12,-5 -23,-11 -31,-19 -8,-7 -15,-16 -20,-27 -5,-10 -8,-21 -11,-35 -1,-11 -2,-22 -2,-31 0,-17 -1,-33 -3,-47 -3,-14 -10,-23 -20,-27 -11,-3 -23,3 -38,19 -14,15 -28,36 -43,61 -15,25 -29,53 -41,83 -13,30 -23,59 -30,85 -7,26 -12,53 -15,80 -3,26 -4,50 -3,72 1,22 6,40 12,56 5,15 14,24 26,27 22,7 54,-13 97,-59 31,-33 73,-42 124,-28 20,5 32,13 33,24zm206 -520c28,-6 57,-13 89,-19 30,-6 61,-11 94,-15 33,-5 65,-8 97,-9 31,-1 50,11 59,35 8,13 13,24 15,34 3,11 6,23 9,35 2,13 1,23 -3,28 -4,5 -14,8 -30,11 -32,4 -65,8 -99,13 -35,4 -71,9 -109,15 -8,24 -15,49 -22,75 -7,27 -13,54 -22,82 16,-2 32,-4 48,-5 16,-1 33,-2 52,-3 15,-1 27,0 35,3 9,3 17,11 22,21 7,10 12,21 16,31 4,11 7,22 9,32 5,12 6,21 2,25 -4,4 -12,9 -28,12 -32,6 -65,12 -98,18 -33,6 -66,12 -97,19 -4,17 -8,33 -11,49 -4,15 -8,30 -12,46 25,-5 49,-9 72,-12 23,-2 48,-5 75,-7 15,-1 26,0 35,3 8,3 15,9 21,19 7,10 12,21 16,29 3,10 7,20 12,29 2,11 2,18 0,22 -2,4 -11,8 -26,11 -34,7 -69,14 -104,21 -36,8 -69,15 -101,21 -22,6 -38,7 -49,4 -11,-2 -21,-6 -29,-12 -9,-5 -18,-12 -26,-18 -9,-6 -19,-13 -30,-23 -9,-7 -16,-16 -21,-26 -6,-11 -8,-23 -7,-37l69 -537c23,-6 49,-13 77,-20z"/>
  </g>
  <polygon class="fil7" points="9083,3118 13038,3068 13207,2908 9303,2994 "/>
  <path class="fil6" d="M9328 2826c0,0 119,-1252 1150,-1746l38 -229c0,0 -1289,569 -1188,1975z"/>
  <path class="fil7" d="M12975 3598c0,0 -343,1078 -1418,1322l-177 272c0,0 1346,-192 1595,-1594z"/>
  <g id="_-2135081648">
   <path class="fil8" d="M12002 2465c-104,0 -103,161 1,161 104,0 104,-162 -1,-161zm0 -54c180,-1 181,268 1,269 -180,0 -180,-269 -1,-269z"/>
   <polygon class="fil8" points="12238,2467 12238,2519 12305,2519 12305,2571 12239,2571 12239,2676 12187,2676 12186,2415 12316,2414 12316,2467 "/>
   <polygon class="fil8" points="12412,2466 12412,2519 12478,2518 12478,2571 12412,2571 12412,2675 12360,2675 12359,2414 12490,2414 12490,2466 "/>
   <path class="fil8" d="M12313 2295c68,-1 68,-104 0,-104 -68,1 -68,104 0,104zm0 71c-171,1 -171,-247 0,-247 171,-1 172,247 0,247zm-300 -391c68,-1 67,-104 0,-104 -68,0 -68,104 0,104zm384 -167l-361 554 -112 1 362 -555 111 0zm-384 239c-171,0 -172,-247 -1,-248 171,0 172,248 1,248z"/>
  </g>
  <path class="fil7" d="M9874 2397l371 -1 0 -159 -372 1 1 159zm678 -98l126 -211c27,-55 54,-110 78,-163l6 0c-3,61 -9,154 -9,216l1 157 -202 1zm519 -2l-110 1 -2 -566 -272 1 -348 583 0 154 415 -1 1 232 207 -1 -1 -232 110 0 0 -171zm411 420c186,0 351,-124 350,-339 -1,-206 -141,-300 -305,-300 -39,0 -71,7 -107,23l16 -181 351 -1 0 -189 -544 1 -26 490 100 64c58,-37 86,-49 142,-50 89,0 151,52 151,149 0,100 -63,152 -161,152 -81,0 -149,-42 -207,-96l-99 142c76,76 181,136 339,135z"/>
  <path class="fil7" d="M5928 1725l70 0 0 62c0,38 -10,67 -28,88 -19,20 -47,30 -82,30 -36,0 -63,-10 -82,-30 -19,-21 -28,-50 -28,-88l0 -244c0,-38 9,-67 28,-88 19,-20 46,-30 82,-30 35,0 63,10 82,30 18,21 28,50 28,88l0 45 -70 0 0 -50c0,-31 -13,-46 -38,-46 -26,0 -39,15 -39,46l0 254c0,30 13,45 39,45 25,0 38,-15 38,-45l0 -67zm301 175l-72 -187 -23 43 0 144 -74 0 0 -470 74 0 0 205 97 -205 74 0 -103 209 103 261 -76 0zm264 -216l-61 216 -76 0 0 -470 66 0 0 297 26 -103 61 -194 81 0 0 470 -66 0 0 -331 -31 115zm454 279l-74 0 0 -63 -157 0 0 63 -72 0 0 -129 29 0c11,-13 17,-34 18,-61l17 -343 206 0 0 404 33 0 0 129zm-170 -466l-14 275c-1,30 -8,50 -20,62l96 0 0 -337 -62 0zm397 403l-72 -187 -23 43 0 144 -74 0 0 -470 74 0 0 205 97 -205 74 0 -103 209 103 261 -76 0zm264 -216l-61 216 -76 0 0 -470 66 0 0 297 26 -103 61 -194 81 0 0 470 -66 0 0 -331 -31 115zm-4965 820l0 201 -74 0 0 -470 74 0 0 202 84 0 0 -202 75 0 0 470 -75 0 0 -201 -84 0zm394 -269l75 470 -74 0 -13 -85 -91 0 -12 85 -68 0 75 -470 108 0zm-58 84l-35 237 71 0 -36 -237zm250 -17l0 -67 228 0 0 67 -77 0 0 403 -74 0 0 -403 -77 0zm346 41l0 254c0,31 12,46 38,46 25,0 38,-15 38,-46l0 -254c0,-30 -13,-46 -38,-46 -26,0 -38,16 -38,46zm-74 249l0 -244c0,-38 10,-67 29,-87 19,-21 47,-31 83,-31 36,0 64,10 83,31 19,20 29,49 29,87l0 244c0,38 -10,67 -29,88 -19,20 -47,30 -83,30 -36,0 -64,-10 -83,-30 -19,-21 -29,-50 -29,-88zm401 -357c38,0 66,9 83,27 17,18 26,45 26,81l0 17c0,48 -16,80 -48,95 37,14 56,48 56,100l0 39c0,36 -10,64 -29,83 -19,19 -47,28 -84,28l-116 0 0 -470 112 0zm-5 259l-33 0 0 144 42 0c13,0 23,-4 29,-10 7,-7 10,-19 10,-36l0 -41c0,-22 -4,-37 -11,-45 -8,-8 -20,-12 -37,-12zm3 -192l-36 0 0 125 29 0c15,0 26,-4 33,-12 8,-7 11,-20 11,-38l0 -26c0,-32 -12,-49 -37,-49zm344 -67l75 470 -74 0 -13 -85 -90 0 -13 85 -68 0 75 -470 108 0zm-57 84l-36 237 71 0 -35 -237zm293 -84c73,0 110,39 110,116l0 61c0,78 -37,117 -110,117l-35 0 0 176 -74 0 0 -470 109 0zm0 67l-35 0 0 159 35 0c12,0 21,-3 27,-10 6,-6 9,-18 9,-34l0 -70c0,-16 -3,-28 -9,-34 -6,-7 -15,-11 -27,-11zm271 403l-109 0 0 -470 74 0 0 177 35 0c73,0 110,39 110,116l0 61c0,77 -37,116 -110,116zm-35 -67l35 0c12,0 21,-3 27,-10 6,-7 9,-18 9,-34l0 -71c0,-16 -3,-27 -9,-34 -6,-7 -15,-10 -27,-10l-35 0 0 159zm261 67l-74 0 0 -470 74 0 0 470zm269 -470c38,0 66,9 83,27 18,18 26,45 26,81l0 17c0,48 -16,80 -47,95 36,14 55,48 55,100l0 39c0,36 -10,64 -29,83 -19,19 -47,28 -83,28l-116 0 0 -470 111 0zm-5 259l-33 0 0 144 43 0c13,0 22,-4 28,-10 7,-7 10,-19 10,-36l0 -41c0,-22 -4,-37 -11,-45 -8,-8 -20,-12 -37,-12zm3 -192l-36 0 0 125 29 0c15,0 26,-4 33,-12 8,-7 11,-20 11,-38l0 -26c0,-32 -12,-49 -37,-49zm435 403l-71 -187 -23 43 0 144 -74 0 0 -470 74 0 0 205 96 -205 74 0 -102 210 102 260 -76 0zm291 -470l75 470 -74 0 -13 -85 -90 0 -13 85 -68 0 75 -470 108 0zm-58 84l-35 237 71 0 -36 -237zm164 -17l0 -67 228 0 0 67 -77 0 0 403 -74 0 0 -403 -77 0zm442 -67l75 470 -75 0 -12 -85 -91 0 -13 85 -68 0 76 -470 108 0zm-58 84l-36 237 71 0 -35 -237zm164 387l0 -67c18,0 30,-3 36,-9 6,-5 9,-19 9,-40l13 -355 208 0 0 470 -75 0 0 -403 -64 0 -8 284c-2,43 -11,74 -27,92 -17,19 -44,28 -81,28l-11 0zm408 -363l0 254c0,31 13,46 38,46 26,0 39,-15 39,-46l0 -254c0,-30 -13,-46 -39,-46 -25,0 -38,16 -38,46zm-74 249l0 -244c0,-38 10,-67 29,-87 19,-21 47,-31 83,-31 37,0 64,10 84,31 19,20 28,49 28,87l0 244c0,38 -9,67 -28,88 -20,20 -47,30 -84,30 -36,0 -64,-10 -83,-30 -19,-21 -29,-50 -29,-88zm364 113l-74 0 0 -470 195 0 0 67 -121 0 0 403zm262 -403l0 131 101 0 0 67 -101 0 0 138 128 0 0 67 -202 0 0 -470 202 0 0 67 -128 0z"/>
  <polygon class="fil9 str0" points="2718,4110 7523,4110 7523,5353 2718,5353 "/>
  <path class="fil7" d="M3506 4541l-96 348c-8,36 -21,62 -37,78 -17,15 -44,22 -82,20l0 -44c19,1 33,-2 43,-9 9,-6 16,-18 21,-35l10 -29 -103 -329 50 0 45 155 31 112 26 -112 40 -155 52 0zm149 -5c33,0 59,10 75,30 17,20 26,48 26,83l0 40 -48 0 0 -43c0,-43 -17,-64 -52,-64 -35,0 -52,21 -52,64l0 236c0,43 17,64 52,64 35,0 52,-21 52,-64l0 -58 48 0 0 55c0,35 -9,62 -26,82 -16,20 -42,30 -75,30 -33,0 -58,-10 -75,-30 -17,-20 -25,-47 -25,-82l0 -230c0,-35 8,-63 25,-83 17,-20 42,-30 75,-30zm343 50l-86 0 -10 290c-1,38 -8,66 -21,84 -14,18 -36,27 -69,27l-8 0 0 -45c20,0 33,-5 39,-14 6,-10 10,-26 11,-49l12 -338 182 0 0 446 -50 0 0 -401zm115 293l0 -230c0,-35 9,-63 26,-83 17,-20 43,-30 76,-30 34,0 59,10 77,30 17,20 26,48 26,83l0 230c0,35 -9,62 -26,82 -18,20 -43,30 -77,30 -33,0 -58,-10 -76,-30 -17,-20 -26,-47 -26,-82zm49 -233l0 236c0,43 18,64 53,64 36,0 53,-21 53,-64l0 -236c0,-43 -17,-64 -53,-64 -35,0 -53,21 -53,64zm220 -105l100 0c34,0 58,8 74,24 15,16 23,41 23,75l0 21c0,24 -4,44 -12,58 -9,14 -22,24 -41,30 40,11 60,43 60,96l0 37c0,70 -34,105 -102,105l-102 0 0 -446zm49 189l39 0c20,0 36,-4 45,-13 10,-8 15,-24 15,-46l0 -26c0,-20 -4,-35 -12,-45 -8,-9 -20,-14 -37,-14l-50 0 0 144zm0 212l53 0c36,0 53,-21 53,-61l0 -39c0,-25 -5,-42 -14,-52 -10,-10 -26,-15 -48,-15l-44 0 0 167zm383 -310l-48 148 -66 207 -52 0 0 -446 44 0 0 332 46 -140 65 -192 55 0 0 446 -44 0 0 -355zm262 164l-35 0c-22,0 -38,5 -49,15 -11,10 -16,27 -16,52l0 70c0,23 -3,42 -8,54l-51 0c6,-12 9,-30 9,-54l0 -69c0,-51 19,-82 56,-93 -37,-12 -55,-43 -55,-92l0 -36c0,-34 8,-60 24,-77 16,-17 41,-25 75,-25l100 0 0 446 -50 0 0 -191zm0 -210l-48 0c-35,0 -52,21 -52,61l0 43c0,23 5,39 16,48 10,9 26,13 46,13l38 0 0 -165zm298 -45l100 0c34,0 59,8 74,24 15,16 23,41 23,75l0 21c0,24 -4,44 -12,58 -8,14 -22,24 -40,30 40,11 60,43 60,96l0 37c0,70 -34,105 -102,105l-103 0 0 -446zm50 189l38 0c21,0 36,-4 46,-13 9,-8 14,-24 14,-46l0 -26c0,-20 -4,-35 -12,-45 -7,-9 -20,-14 -37,-14l-49 0 0 144zm0 212l53 0c35,0 52,-21 52,-61l0 -39c0,-25 -4,-42 -14,-52 -10,-10 -26,-15 -48,-15l-43 0 0 167zm376 -156l-110 0 0 201 -49 0 0 -446 49 0 0 201 110 0 0 -201 50 0 0 446 -50 0 0 -201zm347 -245l-96 348c-8,36 -21,62 -37,78 -17,15 -44,22 -82,20l0 -44c19,1 33,-2 43,-9 9,-6 16,-18 21,-35l10 -29 -103 -329 50 0 45 155 31 112 26 -112 40 -155 52 0zm171 446l-50 0 0 -401 -82 0 0 -45 214 0 0 45 -82 0 0 401zm135 -446l98 0c67,0 100,36 100,109l0 53c0,72 -35,108 -104,108l-44 0 0 176 -50 0 0 -446zm50 225l44 0c19,0 33,-4 41,-14 9,-9 14,-24 14,-45l0 -60c0,-21 -4,-36 -12,-46 -8,-10 -21,-15 -39,-15l-48 0 0 180zm369 -134l-48 148 -66 207 -51 0 0 -446 44 0 0 332 45 -140 65 -192 56 0 0 446 -45 0 0 -355z"/>
 </g>
</svg>
