<?xml version="1.0" encoding="UTF-8"?>
<!DOCTYPE svg PUBLIC "-//W3C//DTD SVG 1.1//EN" "http://www.w3.org/Graphics/SVG/1.1/DTD/svg11.dtd">
<!-- Creator: CorelDRAW X8 -->
<svg xmlns="http://www.w3.org/2000/svg" xml:space="preserve" width="110.173mm" height="147.491mm" version="1.1" style="shape-rendering:geometricPrecision; text-rendering:geometricPrecision; image-rendering:optimizeQuality; fill-rule:evenodd; clip-rule:evenodd"
viewBox="0 0 1723 2307"
 xmlns:xlink="http://www.w3.org/1999/xlink">
 <defs>
  <style type="text/css">
   <![CDATA[
    .fil8 {fill:#FEFEFE;fill-rule:nonzero}
    .fil4 {fill:black;fill-rule:nonzero}
    .fil3 {fill:#333333;fill-rule:nonzero}
    .fil5 {fill:#730621;fill-rule:nonzero}
    .fil7 {fill:#9C7B3A;fill-rule:nonzero}
    .fil2 {fill:#B0002C;fill-rule:nonzero}
    .fil6 {fill:#CBAC6F;fill-rule:nonzero}
    .fil1 {fill:white;fill-rule:nonzero}
    .fil0 {fill:url(#id0)}
   ]]>
  </style>
  <linearGradient id="id0" gradientUnits="userSpaceOnUse" x1="138.049" y1="440.351" x2="1585.35" y2="1866.81">
   <stop offset="0" style="stop-opacity:1; stop-color:#D4B476"/>
   <stop offset="1" style="stop-opacity:1; stop-color:#A3864D"/>
  </linearGradient>
 </defs>
 <g id="Layer_x0020_1">
  <metadata id="CorelCorpID_0Corel-Layer"/>
  <polygon class="fil0" points="0,0 1723,0 1723,2307 0,2307 "/>
  <path class="fil1" d="M135 131l0 83 -15 0 0 -96 48 0 0 96 -16 0 0 -83 -17 0zm69 -13c15,0 23,7 23,23l0 13c0,16 -8,24 -23,24l-7 0 0 36 -15 0 0 -96 22 0zm0 13l-7 0 0 33 7 0c3,0 5,-1 6,-2 1,-2 2,-4 2,-7l0 -15c0,-3 -1,-5 -2,-7 -1,-1 -3,-2 -6,-2zm62 39l-13 44 -15 0 0 -96 13 0 0 60 6 -21 12 -39 17 0 0 96 -14 0 0 -68 -6 24zm67 -39l0 83 -15 0 0 -96 47 0 0 96 -15 0 0 -83 -17 0zm61 9l0 52c0,6 2,9 7,9 6,0 8,-3 8,-9l0 -52c0,-7 -2,-10 -8,-10 -5,0 -7,3 -7,10zm-15 51l0 -50c0,-8 2,-14 5,-18 4,-4 10,-7 17,-7 8,0 14,3 17,7 4,4 6,10 6,18l0 50c0,7 -2,13 -6,17 -3,5 -9,7 -17,7 -7,0 -13,-2 -17,-7 -3,-4 -5,-10 -5,-17zm93 23l-14 -39 -5 9 0 30 -15 0 0 -96 15 0 0 41 20 -41 15 0 -21 42 21 54 -16 0zm76 -96l-16 71c-2,10 -5,16 -9,20 -5,4 -12,5 -22,5l0 -14c4,1 8,0 10,-1 2,-1 3,-3 4,-6l0 -1 -21 -74 15 0 8 32 5 23 3 -22 7 -33 16 0zm25 13l0 83 -15 0 0 -96 48 0 0 96 -16 0 0 -83 -17 0zm82 83l-15 -39 -5 9 0 30 -15 0 0 -96 15 0 0 41 20 -41 15 0 -21 42 21 54 -15 0zm41 -83l0 27 20 0 0 14 -20 0 0 28 26 0 0 14 -41 0 0 -96 41 0 0 13 -26 0zm83 83l0 -11 -5 0c-15,0 -23,-8 -23,-24l0 -26c0,-16 8,-24 23,-24l5 0 0 -11 15 0 0 11 6 0c15,0 22,8 22,24l0 26c0,16 -7,24 -22,24l-6 0 0 11 -15 0zm21 -72l-6 0 0 48 6 0c5,0 7,-4 7,-10l0 -28c0,-6 -2,-10 -7,-10zm-21 48l0 -48 -5 0c-5,0 -8,4 -8,10l0 28c0,6 3,10 8,10l5 0zm71 -50l0 52c0,6 3,9 8,9 5,0 8,-3 8,-9l0 -52c0,-7 -3,-10 -8,-10 -5,0 -8,3 -8,10zm-15 51l0 -50c0,-8 2,-14 6,-18 4,-4 9,-7 17,-7 7,0 13,3 17,7 4,4 6,10 6,18l0 50c0,7 -2,13 -6,17 -4,5 -10,7 -17,7 -8,0 -13,-2 -17,-7 -4,-4 -6,-10 -6,-17zm81 -73c15,0 23,7 23,23l0 13c0,16 -8,24 -23,24l-7 0 0 36 -15 0 0 -96 22 0zm0 13l-7 0 0 33 7 0c3,0 5,-1 6,-2 1,-2 2,-4 2,-7l0 -15c0,-3 -1,-5 -2,-7 -1,-1 -3,-2 -6,-2zm54 -13l12 68 10 -68 21 0 0 96 -14 0 0 -69 -11 69 -14 0 -11 -68 0 68 -14 0 0 -96 21 0zm80 96l-23 0 0 -96 16 0 0 36 7 0c15,0 22,8 22,23l0 13c0,16 -7,24 -22,24zm-7 -14l7 0c2,0 4,-1 5,-2 2,-1 2,-4 2,-7l0 -15c0,-3 0,-5 -2,-7 -1,-1 -3,-2 -5,-2l-7 0 0 33zm53 14l-15 0 0 -96 15 0 0 96zm47 -83l0 83 -15 0 0 -96 48 0 0 96 -15 0 0 -83 -18 0zm61 9l0 52c0,6 3,9 8,9 5,0 8,-3 8,-9l0 -52c0,-7 -3,-10 -8,-10 -5,0 -8,3 -8,10zm-15 51l0 -50c0,-8 2,-14 6,-18 4,-4 10,-7 17,-7 8,0 13,3 17,7 4,4 6,10 6,18l0 50c0,7 -2,13 -6,17 -4,5 -9,7 -17,7 -7,0 -13,-2 -17,-7 -4,-4 -6,-10 -6,-17zm118 36l-15 0 0 -13 -32 0 0 13 -15 0 0 -27 6 0c2,-3 4,-7 4,-12l3 -70 43 0 0 82 6 0 0 27zm-35 -96l-2 56c-1,7 -2,11 -5,13l20 0 0 -69 -13 0zm94 16l0 -6c0,-4 -1,-7 -2,-8 -1,-2 -3,-3 -6,-3 -5,0 -8,3 -8,10l0 7 -14 0 0 -7c0,-7 2,-13 6,-17 4,-5 9,-7 17,-7 7,0 12,3 16,7 4,4 6,10 6,18l0 2c0,10 -3,17 -10,20 7,3 10,10 10,20l0 8c0,7 -2,13 -6,18 -4,4 -9,6 -16,6 -8,0 -13,-2 -17,-6 -4,-5 -6,-11 -6,-18l0 -11 14 0 0 12c0,6 3,9 8,9 3,0 5,-1 6,-2 1,-2 2,-5 2,-9l0 -7c0,-5 -1,-8 -2,-10 -2,-2 -4,-3 -8,-3l-4 0 0 -13 5 0c3,0 5,-1 7,-3 1,-1 2,-4 2,-7zm62 -29l16 96 -15 0 -3 -18 -19 0 -2 18 -14 0 15 -96 22 0zm-11 17l-8 48 15 0 -7 -48zm72 79l-15 -39 -5 9 0 30 -15 0 0 -96 15 0 0 41 20 -41 15 0 -21 42 21 54 -15 0zm59 -96l16 96 -15 0 -3 -18 -19 0 -2 18 -14 0 15 -96 22 0zm-11 17l-8 48 15 0 -7 -48zm66 12l0 -6c0,-4 0,-7 -1,-8 -2,-2 -4,-3 -6,-3 -6,0 -8,3 -8,10l0 7 -14 0 0 -7c0,-7 2,-13 5,-17 4,-5 10,-7 17,-7 7,0 13,3 17,7 4,4 6,10 6,18l0 2c0,10 -4,17 -11,20 7,3 11,10 11,20l0 8c0,7 -2,13 -6,18 -4,4 -10,6 -17,6 -7,0 -13,-2 -17,-6 -4,-5 -5,-11 -5,-18l0 -11 14 0 0 12c0,6 2,9 8,9 2,0 4,-1 6,-2 1,-2 1,-5 1,-9l0 -7c0,-5 0,-8 -2,-10 -1,-2 -4,-3 -7,-3l-4 0 0 -13 4 0c3,0 6,-1 7,-3 2,-1 2,-4 2,-7z"/>
  <path class="fil2" d="M350 520l48 0 0 43c0,26 -7,46 -19,60 -13,14 -32,21 -57,21 -24,0 -43,-7 -56,-21 -13,-14 -19,-34 -19,-60l0 -168c0,-26 6,-46 19,-60 13,-14 32,-21 56,-21 25,0 44,7 57,21 12,14 19,34 19,60l0 31 -48 0 0 -34c0,-21 -9,-32 -26,-32 -18,0 -27,11 -27,32l0 174c0,21 9,31 27,31 17,0 26,-10 26,-31l0 -46zm206 120l-49 -128 -15 29 0 99 -51 0 0 -322 51 0 0 140 66 -140 50 0 -70 143 70 179 -52 0zm182 -148l-42 148 -52 0 0 -322 45 0 0 204 18 -71 42 -133 55 0 0 322 -45 0 0 -227 -21 79zm311 191l-50 0 0 -43 -108 0 0 43 -50 0 0 -88 20 0c8,-9 12,-23 13,-42l11 -235 142 0 0 277 22 0 0 88zm-116 -319l-10 188c-1,21 -6,35 -14,43l66 0 0 -231 -42 0zm272 276l-49 -128 -16 29 0 99 -51 0 0 -322 51 0 0 140 66 -140 51 0 -70 143 70 179 -52 0zm182 -148l-43 148 -52 0 0 -322 45 0 0 204 19 -71 41 -133 56 0 0 322 -46 0 0 -227 -20 79z"/>
  <path class="fil1" d="M313 1112l-20 0 0 -17 -41 0 0 17 -20 0 0 -35 8 0c3,-3 5,-9 5,-16l4 -91 55 0 0 107 9 0 0 35zm-45 -124l-4 73c0,8 -2,13 -5,16l25 0 0 -89 -16 0zm78 11l0 67c0,8 4,12 10,12 7,0 11,-4 11,-12l0 -67c0,-8 -4,-12 -11,-12 -6,0 -10,4 -10,12zm-19 66l0 -65c0,-10 2,-18 7,-23 5,-6 13,-8 22,-8 10,0 17,2 23,8 5,5 7,13 7,23l0 65c0,10 -2,18 -7,23 -6,5 -13,8 -23,8 -9,0 -17,-3 -22,-8 -5,-5 -7,-13 -7,-23z"/>
  <path class="fil1" d="M245 1787l0 -33c0,-6 1,-9 4,-12 2,-3 6,-5 11,-5 5,0 9,2 11,5 3,3 4,6 4,12l0 33c0,5 -1,9 -4,12 -2,3 -6,4 -11,4 -5,0 -8,-1 -11,-4 -3,-3 -4,-7 -4,-12zm7 -34l0 34c0,7 3,10 8,10 5,0 8,-3 8,-10l0 -34c0,-6 -3,-9 -8,-9 -5,0 -8,3 -8,9zm49 50l-7 0 0 -59 -12 0 0 -6 31 0 0 6 -12 0 0 59zm43 -59l-16 0 0 59 -7 0 0 -65 30 0 0 65 -7 0 0 -59zm17 -6l14 0c10,0 15,5 15,16l0 8c0,10 -5,15 -15,15l-6 0 0 26 -8 0 0 -65zm8 33l6 0c3,0 5,-1 6,-2 1,-2 2,-4 2,-7l0 -9c0,-3 -1,-5 -2,-6 -1,-2 -3,-3 -6,-3l-6 0 0 27zm53 19l-17 0 -2 13 -7 0 13 -65 10 0 12 65 -7 0 -2 -13zm-9 -44l-7 37 15 0 -8 -37zm27 -8l14 0c5,0 9,1 11,3 2,3 3,6 3,11l0 3c0,4 0,7 -2,9 -1,2 -3,3 -5,4 5,2 8,6 8,14l0 6c0,10 -5,15 -15,15l-14 0 0 -65zm7 27l5 0c3,0 6,0 7,-1 1,-2 2,-4 2,-7l0 -4c0,-3 0,-5 -2,-6 -1,-2 -3,-3 -5,-3l-7 0 0 21zm0 31l7 0c6,0 8,-3 8,-9l0 -5c0,-4 -1,-6 -2,-8 -1,-1 -4,-2 -7,-2l-6 0 0 24zm39 -33l6 0c10,0 15,6 15,16l0 8c0,10 -5,16 -15,16l-14 0 0 -65 8 0 0 25zm0 33l6 0c3,0 5,-1 6,-2 1,-1 2,-4 2,-7l0 -8c0,-3 -1,-6 -2,-7 -1,-1 -3,-2 -6,-2l-6 0 0 26zm47 7l-7 0 0 -59 -12 0 0 -6 31 0 0 6 -12 0 0 59zm27 -36l16 0 0 6 -16 0 0 23 20 0 0 7 -27 0 0 -65 27 0 0 6 -20 0 0 23zm58 36l-8 0 0 -59 -11 0 0 -6 31 0 0 6 -12 0 0 59zm19 -16l0 -33c0,-6 1,-9 4,-12 2,-3 6,-5 11,-5 5,0 8,2 11,5 2,3 4,6 4,12l0 33c0,5 -2,9 -4,12 -3,3 -6,4 -11,4 -5,0 -9,-1 -11,-4 -3,-3 -4,-7 -4,-12zm7 -34l0 34c0,7 3,10 8,10 5,0 7,-3 7,-10l0 -34c0,-6 -2,-9 -7,-9 -5,0 -8,3 -8,9zm32 -15l14 0c5,0 9,1 11,3 2,3 4,6 4,11l0 3c0,4 -1,7 -2,9 -1,2 -3,3 -6,4 6,2 9,6 9,14l0 6c0,10 -5,15 -15,15l-15 0 0 -65zm7 27l6 0c3,0 5,0 6,-1 2,-2 2,-4 2,-7l0 -4c0,-3 0,-5 -1,-6 -1,-2 -3,-3 -6,-3l-7 0 0 21zm0 31l8 0c5,0 8,-3 8,-9l0 -5c0,-4 -1,-6 -3,-8 -1,-1 -3,-2 -7,-2l-6 0 0 24zm55 -6l-16 0 -3 13 -6 0 12 -65 11 0 12 65 -7 0 -3 -13zm-8 -44l-7 37 14 0 -7 -37zm26 -8l14 0c10,0 15,5 15,16l0 8c0,10 -5,15 -15,15l-7 0 0 26 -7 0 0 -65zm7 33l7 0c2,0 4,-1 6,-2 1,-2 2,-4 2,-7l0 -9c0,-3 -1,-5 -2,-6 -1,-2 -3,-3 -6,-3l-7 0 0 27zm65 -27l-16 0 0 59 -7 0 0 -65 30 0 0 65 -7 0 0 -59zm17 43l0 -33c0,-6 1,-9 3,-12 3,-3 6,-5 11,-5 5,0 9,2 11,5 3,3 4,6 4,12l0 33c0,5 -1,9 -4,12 -2,3 -6,4 -11,4 -4,0 -8,-1 -11,-4 -2,-3 -3,-7 -3,-12zm7 -34l0 34c0,7 2,10 7,10 5,0 8,-3 8,-10l0 -34c0,-6 -3,-9 -8,-9 -5,0 -7,3 -7,9zm71 59l-8 0 0 -9 -26 0 0 9 -7 0 0 -16 4 0c2,-2 3,-5 3,-9l3 -49 26 0 0 58 5 0 0 16zm-25 -68l-2 43c0,4 -1,8 -3,9l17 0 0 -52 -12 0zm59 -7c5,0 9,2 11,5 3,3 4,6 4,12l0 1c0,7 -3,12 -8,14 5,1 8,6 8,13l0 5c0,5 -1,9 -4,12 -2,3 -6,4 -11,4 -4,0 -8,-1 -11,-4 -2,-3 -3,-7 -3,-12l0 -6 7 0 0 6c0,7 2,10 7,10 5,0 8,-4 8,-10l0 -5c0,-7 -3,-10 -9,-10l-3 0 0 -6 4 0c2,0 4,-1 6,-3 1,-1 2,-3 2,-6l0 -3c0,-7 -3,-10 -8,-10 -5,0 -7,3 -7,9l0 5 -7 0 0 -5c0,-5 1,-9 3,-11 3,-3 7,-5 11,-5zm48 53l-16 0 -3 13 -6 0 12 -65 10 0 13 65 -7 0 -3 -13zm-8 -44l-7 37 14 0 -7 -37zm51 57l-14 -28 -4 6 0 22 -7 0 0 -65 7 0 0 31 17 -31 8 0 -17 29 17 36 -7 0zm39 -13l-16 0 -3 13 -7 0 13 -65 10 0 13 65 -8 0 -2 -13zm-8 -44l-8 37 15 0 -7 -37zm40 -9c5,0 8,2 11,5 2,3 4,6 4,12l0 1c0,7 -3,12 -8,14 5,1 8,6 8,13l0 5c0,5 -2,9 -4,12 -3,3 -6,4 -11,4 -5,0 -9,-1 -11,-4 -2,-3 -4,-7 -4,-12l0 -6 7 0 0 6c0,7 3,10 8,10 5,0 7,-4 7,-10l0 -5c0,-7 -2,-10 -8,-10l-3 0 0 -6 3 0c3,0 5,-1 6,-3 2,-1 2,-3 2,-6l0 -3c0,-7 -2,-10 -7,-10 -5,0 -8,3 -8,9l0 5 -7 0 0 -5c0,-5 2,-9 4,-11 2,-3 6,-5 11,-5zm36 1l14 0c5,0 9,1 11,3 2,3 4,6 4,11l0 3c0,4 -1,7 -2,9 -1,2 -3,3 -6,4 6,2 9,6 9,14l0 6c0,10 -5,15 -15,15l-15 0 0 -65zm7 27l6 0c3,0 5,0 6,-1 2,-2 2,-4 2,-7l0 -4c0,-3 0,-5 -1,-6 -1,-2 -3,-3 -6,-3l-7 0 0 21zm0 31l8 0c5,0 8,-3 8,-9l0 -5c0,-4 -1,-6 -3,-8 -1,-1 -3,-2 -7,-2l-6 0 0 24zm68 7l-13 -28 -4 6 0 22 -7 0 0 -65 7 0 0 31 17 -31 7 0 -16 29 17 36 -8 0zm15 -16l0 -33c0,-6 2,-9 4,-12 3,-3 6,-5 11,-5 5,0 9,2 11,5 3,3 4,6 4,12l0 33c0,5 -1,9 -4,12 -2,3 -6,4 -11,4 -5,0 -8,-1 -11,-4 -2,-3 -4,-7 -4,-12zm7 -34l0 34c0,7 3,10 8,10 5,0 8,-3 8,-10l0 -34c0,-6 -3,-9 -8,-9 -5,0 -8,3 -8,9zm32 -15l15 0c9,0 14,5 14,16l0 8c0,10 -5,15 -15,15l-6 0 0 26 -8 0 0 -65zm8 33l6 0c3,0 5,-1 6,-2 1,-2 2,-4 2,-7l0 -9c0,-3 -1,-5 -2,-6 -1,-2 -3,-3 -5,-3l-7 0 0 27zm43 -34c5,0 9,2 11,5 3,3 4,6 4,12l0 1c0,7 -3,12 -8,14 5,1 8,6 8,13l0 5c0,5 -1,9 -4,12 -2,3 -6,4 -11,4 -5,0 -8,-1 -11,-4 -2,-3 -3,-7 -3,-12l0 -6 7 0 0 6c0,7 2,10 7,10 5,0 8,-4 8,-10l0 -5c0,-7 -3,-10 -9,-10l-3 0 0 -6 4 0c2,0 4,-1 6,-3 1,-1 2,-3 2,-6l0 -3c0,-7 -3,-10 -8,-10 -5,0 -7,3 -7,9l0 5 -7 0 0 -5c0,-5 1,-9 3,-11 3,-3 6,-5 11,-5zm48 14l-6 22 -10 30 -8 0 0 -65 7 0 0 48 6 -20 10 -28 8 0 0 65 -7 0 0 -52zm40 23l-16 0 0 29 -7 0 0 -65 7 0 0 29 16 0 0 -29 7 0 0 65 -7 0 0 -29zm50 -36l-14 50c-1,6 -3,10 -5,12 -2,2 -6,3 -12,3l0 -7c3,0 5,0 6,-1 2,-1 3,-3 3,-5l2 -4 -15 -48 7 0 7 22 4 17 4 -17 6 -22 7 0zm-899 124l-7 22 -9 30 -8 0 0 -65 6 0 0 48 7 -20 10 -28 8 0 0 65 -7 0 0 -52zm51 -6l-15 0 0 58 -8 0 0 -65 31 0 0 65 -8 0 0 -58zm17 42l0 -33c0,-5 1,-9 4,-12 2,-3 6,-5 11,-5 5,0 8,2 11,5 2,3 4,7 4,12l0 33c0,5 -2,9 -4,12 -3,3 -6,4 -11,4 -5,0 -9,-1 -11,-4 -3,-3 -4,-7 -4,-12zm7 -34l0 35c0,6 3,9 8,9 5,0 7,-3 7,-9l0 -35c0,-6 -2,-9 -7,-9 -5,0 -8,3 -8,9zm58 -8l-12 0 -2 42c0,5 -1,9 -3,12 -2,3 -5,4 -10,4l-1 0 0 -7c3,0 5,0 6,-2 1,-1 1,-4 1,-7l2 -49 26 0 0 65 -7 0 0 -58zm51 -7l-14 51c-1,5 -3,9 -5,11 -3,2 -7,3 -12,3l0 -7c2,1 5,0 6,-1 1,-1 2,-2 3,-5l1 -4 -14 -48 7 0 6 23 5 16 4 -16 5 -23 8 0zm30 65l0 -29c-2,4 -6,5 -10,5 -4,0 -7,-1 -10,-4 -2,-3 -3,-7 -3,-11l0 -26 7 0 0 25c0,3 1,5 2,7 2,2 4,3 6,3 5,0 7,-3 8,-8l0 -27 7 0 0 65 -7 0zm41 -52l-7 22 -9 30 -8 0 0 -65 7 0 0 48 6 -20 10 -28 8 0 0 65 -7 0 0 -52zm34 52l-8 0 0 -58 -12 0 0 -7 32 0 0 7 -12 0 0 58zm27 -36l15 0 0 6 -15 0 0 23 19 0 0 7 -27 0 0 -65 27 0 0 7 -19 0 0 22zm54 -30c5,0 9,2 11,5 2,3 4,7 4,12l0 5 -7 0 0 -6c0,-6 -3,-9 -8,-9 -5,0 -7,3 -7,9l0 35c0,6 2,9 7,9 5,0 8,-3 8,-9l0 -9 7 0 0 8c0,5 -2,9 -4,12 -2,3 -6,4 -11,4 -5,0 -8,-1 -11,-4 -2,-3 -4,-7 -4,-12l0 -33c0,-5 2,-9 4,-12 3,-3 6,-5 11,-5zm49 66l-14 -28 -4 6 0 22 -7 0 0 -65 7 0 0 31 17 -31 7 0 -16 30 17 35 -7 0zm39 -52l-7 22 -10 30 -7 0 0 -65 6 0 0 48 7 -20 9 -28 9 0 0 65 -7 0 0 -52zm55 61l-7 0 0 -9 -26 0 0 9 -7 0 0 -16 4 0c2,-1 3,-5 3,-9l2 -49 26 0 0 58 5 0 0 16zm-24 -67l-2 42c0,4 -1,8 -3,9l17 0 0 -51 -12 0zm58 58l-14 -28 -4 6 0 22 -7 0 0 -65 7 0 0 31 17 -31 8 0 -17 30 17 35 -7 0zm39 -52l-7 22 -9 30 -8 0 0 -65 7 0 0 48 6 -20 10 -28 8 0 0 65 -7 0 0 -52zm-876 134l-16 0 0 29 -7 0 0 -65 7 0 0 29 16 0 0 -29 7 0 0 65 -7 0 0 -29zm41 16l-16 0 -3 13 -7 0 13 -65 10 0 13 65 -7 0 -3 -13zm-8 -44l-7 38 14 0 -7 -38zm38 -8l14 0c5,0 9,1 11,4 2,2 3,6 3,10l0 4c0,3 0,6 -1,8 -2,2 -4,4 -6,4 6,2 8,7 8,14l0 6c0,10 -4,15 -14,15l-15 0 0 -65zm7 28l6 0c3,0 5,-1 6,-2 2,-1 2,-4 2,-7l0 -4c0,-3 0,-5 -1,-6 -2,-2 -3,-2 -6,-2l-7 0 0 21zm0 30l8 0c5,0 7,-3 7,-8l0 -6c0,-4 0,-6 -2,-8 -1,-1 -4,-2 -7,-2l-6 0 0 24zm45 -59c5,0 9,2 11,5 3,3 4,7 4,12l0 6 -7 0 0 -7c0,-6 -2,-9 -7,-9 -5,0 -8,3 -8,9l0 35c0,6 3,9 8,9 5,0 7,-3 7,-9l0 -9 7 0 0 8c0,5 -1,9 -4,12 -2,3 -6,5 -11,5 -4,0 -8,-2 -10,-5 -3,-3 -4,-7 -4,-12l0 -33c0,-5 1,-9 4,-12 2,-3 6,-5 10,-5zm44 5c3,-3 7,-5 12,-5 4,0 8,2 11,5 2,3 3,7 3,12l0 33c0,5 -1,9 -3,12 -3,3 -7,5 -11,5 -5,0 -9,-2 -12,-5 -2,-3 -3,-7 -3,-12l0 -13 -10 0 0 29 -7 0 0 -65 7 0 0 29 10 0 0 -13c0,-5 1,-9 3,-12zm19 11c0,-6 -2,-9 -7,-9 -6,0 -8,3 -8,9l0 35c0,6 2,9 8,9 5,0 7,-3 7,-9l0 -35zm43 -16c5,0 8,2 11,5 2,3 3,7 3,12l0 6 -7 0 0 -7c0,-6 -2,-9 -7,-9 -5,0 -8,3 -8,9l0 35c0,6 3,9 8,9 5,0 7,-3 7,-9l0 -9 7 0 0 8c0,5 -1,9 -3,12 -3,3 -6,5 -11,5 -5,0 -9,-2 -11,-5 -3,-3 -4,-7 -4,-12l0 -33c0,-5 1,-9 4,-12 2,-3 6,-5 11,-5zm23 50l0 -33c0,-5 1,-9 3,-12 3,-3 7,-5 12,-5 4,0 8,2 11,5 2,3 3,7 3,12l0 33c0,5 -1,9 -3,12 -3,3 -7,5 -11,5 -5,0 -9,-2 -11,-5 -3,-3 -4,-7 -4,-12zm7 -34l0 35c0,6 2,9 8,9 5,0 7,-3 7,-9l0 -35c0,-6 -2,-9 -7,-9 -6,0 -8,3 -8,9zm55 -8l-16 0 0 58 -7 0 0 -65 30 0 0 65 -7 0 0 -58zm50 -7l-14 51c-1,5 -3,9 -5,11 -2,2 -6,3 -12,3l0 -6c3,0 5,-1 6,-2 2,-1 3,-2 3,-5l2 -4 -15 -48 7 0 7 23 4 16 4 -16 6 -23 7 0zm25 65l-7 0 0 -58 -12 0 0 -7 31 0 0 7 -12 0 0 58zm34 -66c5,0 8,2 11,5 2,3 4,7 4,12l0 6 -7 0 0 -7c0,-6 -3,-9 -8,-9 -5,0 -8,3 -8,9l0 35c0,6 3,9 8,9 5,0 8,-3 8,-9l0 -9 7 0 0 8c0,5 -2,9 -4,12 -3,3 -6,5 -11,5 -5,0 -9,-2 -11,-5 -2,-3 -4,-7 -4,-12l0 -33c0,-5 2,-9 4,-12 2,-3 6,-5 11,-5zm41 66l-8 0 0 -58 -12 0 0 -7 32 0 0 7 -12 0 0 58zm19 -65l15 0c5,0 8,1 11,4 2,2 3,6 3,10l0 4c0,3 -1,6 -2,8 -1,2 -3,4 -6,4 6,2 9,7 9,14l0 6c0,10 -5,15 -15,15l-15 0 0 -65zm8 28l5 0c3,0 5,-1 7,-2 1,-1 2,-4 2,-7l0 -4c0,-3 -1,-5 -2,-6 -1,-2 -3,-2 -5,-2l-7 0 0 21zm0 30l7 0c5,0 8,-3 8,-8l0 -6c0,-4 -1,-6 -2,-8 -2,-1 -4,-2 -7,-2l-6 0 0 24zm64 -58l-13 51c-2,5 -3,9 -6,11 -2,2 -6,3 -12,3l0 -6c3,0 5,-1 7,-2 1,-1 2,-2 3,-5l1 -4 -15 -48 7 0 7 23 4 16 4 -16 6 -23 7 0zm29 4c2,-3 6,-5 11,-5 5,0 8,2 11,5 2,3 3,7 3,12l0 33c0,5 -1,9 -3,12 -3,3 -7,5 -11,5 -5,0 -9,-2 -11,-5 -3,-3 -4,-7 -4,-12l0 -13 -10 0 0 29 -7 0 0 -65 7 0 0 29 10 0 0 -13c0,-5 1,-9 4,-12zm18 11c0,-6 -2,-9 -7,-9 -5,0 -8,3 -8,9l0 35c0,6 3,9 8,9 5,0 7,-3 7,-9l0 -35zm68 59l-7 0 0 -9 -44 0 0 -65 7 0 0 58 12 0 0 -58 8 0 0 58 12 0 0 -58 7 0 0 59 5 0 0 15zm42 -74l-14 51c-1,5 -3,9 -5,11 -2,2 -6,3 -12,3l0 -6c3,0 5,-1 6,-2 2,-1 3,-2 3,-5l2 -4 -15 -48 7 0 7 23 4 16 4 -16 6 -23 7 0zm28 4c3,-3 7,-5 11,-5 5,0 9,2 11,5 3,3 4,7 4,12l0 33c0,5 -1,9 -4,12 -2,3 -6,5 -11,5 -4,0 -8,-2 -11,-5 -2,-3 -4,-7 -4,-12l0 -13 -9 0 0 29 -7 0 0 -65 7 0 0 29 9 0 0 -13c0,-5 2,-9 4,-12zm19 11c0,-6 -2,-9 -8,-9 -5,0 -7,3 -7,9l0 35c0,6 2,9 7,9 6,0 8,-3 8,-9l0 -35zm31 -11c3,-3 6,-5 11,-5 5,0 9,2 11,5 3,3 4,7 4,12l0 33c0,5 -1,9 -4,12 -2,3 -6,5 -11,5 -5,0 -8,-2 -11,-5 -2,-3 -3,-7 -3,-12l0 -7 6 0 0 8c0,6 3,9 8,9 5,0 8,-3 8,-9l0 -15 -12 0 0 -7 12 0 0 -13c0,-6 -3,-9 -8,-9 -5,0 -8,3 -8,9l0 6 -6 0 0 -5c0,-5 1,-9 3,-12zm60 61l-14 -28 -4 6 0 22 -7 0 0 -65 7 0 0 31 18 -31 7 0 -17 30 17 35 -7 0zm40 -52l-7 22 -10 30 -8 0 0 -65 7 0 0 48 6 -20 10 -28 8 0 0 65 -6 0 0 -52zm39 -6l-16 0 0 58 -7 0 0 -65 30 0 0 65 -7 0 0 -58zm41 6l-7 22 -10 30 -7 0 0 -65 6 0 0 48 7 -20 9 -28 9 0 0 65 -7 0 0 -52zm16 -13l14 0c10,0 15,5 15,16l0 8c0,10 -5,15 -15,15l-7 0 0 26 -7 0 0 -65zm7 33l7 0c3,0 5,-1 6,-2 1,-2 2,-4 2,-7l0 -8c0,-3 -1,-6 -2,-7 -1,-2 -3,-2 -6,-2l-7 0 0 26zm29 16l0 -33c0,-5 2,-9 4,-12 3,-3 6,-5 11,-5 5,0 9,2 11,5 3,3 4,7 4,12l0 33c0,5 -1,9 -4,12 -2,3 -6,5 -11,5 -5,0 -8,-2 -11,-5 -2,-3 -4,-7 -4,-12zm8 -34l0 35c0,6 2,9 7,9 5,0 8,-3 8,-9l0 -35c0,-6 -3,-9 -8,-9 -5,0 -7,3 -7,9zm32 -15l14 0c5,0 9,1 11,4 2,2 3,6 3,10l0 4c0,3 0,6 -2,8 -1,2 -3,4 -5,4 5,2 8,7 8,14l0 6c0,10 -5,15 -15,15l-14 0 0 -65zm7 28l5 0c3,0 6,-1 7,-2 1,-1 2,-4 2,-7l0 -4c0,-3 -1,-5 -2,-6 -1,-2 -3,-2 -5,-2l-7 0 0 21zm0 30l7 0c6,0 8,-3 8,-8l0 -6c0,-4 -1,-6 -2,-8 -1,-1 -4,-2 -7,-2l-6 0 0 24zm56 7l-14 -28 -4 6 0 22 -7 0 0 -65 7 0 0 31 18 -31 7 0 -16 30 17 35 -8 0zm49 -65l-14 51c-1,5 -3,9 -5,11 -3,2 -7,3 -12,3l0 -6c2,0 5,-1 6,-2 1,-1 2,-2 3,-5l1 -4 -14 -48 7 0 6 23 5 16 4 -16 5 -23 8 0z"/>
  <g id="_-1897722640">
   <path class="fil3" d="M651 2131l1 -5c3,1 5,2 7,3 -1,-4 -1,-7 -1,-8l4 0c0,2 0,5 0,8 2,-1 4,-2 6,-3l2 5c-3,1 -5,2 -7,2 1,1 2,3 5,7l-4 3c-1,-2 -2,-5 -4,-8 -1,3 -3,6 -4,8l-3 -3c2,-4 4,-6 5,-7 -3,-1 -5,-1 -7,-2zm72 24l6 2c-2,6 -4,10 -7,13 -3,3 -7,4 -11,4 -4,0 -8,-1 -10,-3 -3,-1 -5,-5 -7,-9 -2,-4 -3,-9 -3,-15 0,-6 1,-10 3,-14 2,-4 4,-7 7,-9 3,-2 6,-3 10,-3 4,0 8,1 11,3 3,3 5,7 6,12l-6 1c-1,-7 -5,-11 -11,-11 -3,0 -5,1 -7,3 -2,1 -4,3 -5,6 -1,4 -2,7 -2,12 0,7 1,13 4,16 2,4 5,5 10,5 3,0 5,-1 8,-3 2,-2 3,-5 4,-10zm12 -19l5 0 0 16c2,0 3,0 4,-1 0,-1 1,-3 3,-7 1,-3 1,-5 2,-6 1,-1 1,-1 2,-2 1,0 2,0 4,0l1 0 0 5 -1 0c-1,0 -2,0 -3,1 0,0 0,1 -1,2 -1,4 -2,6 -3,7 0,1 -1,2 -3,3 2,1 5,3 7,8l5 11 -5 0 -6 -11c-1,-3 -2,-4 -3,-5 -1,-1 -2,-1 -3,-1l0 17 -5 0 0 -37zm26 0l5 0 0 28 14 -28 6 0 0 37 -5 0 0 -28 -15 28 -5 0 0 -37zm37 0l21 0 0 32 4 0 0 16 -5 0 0 -11 -24 0 0 11 -4 0 0 -16 3 0c3,-6 5,-17 5,-32zm4 5c0,12 -2,21 -4,27l16 0 0 -27 -12 0zm26 -5l6 0 0 16c1,0 2,0 3,-1 1,-1 2,-3 3,-7 1,-3 2,-5 2,-6 1,-1 2,-1 3,-2 0,0 2,0 4,0l1 0 0 5 -2 0c-1,0 -2,0 -2,1 -1,0 -1,1 -1,2 -2,4 -3,6 -3,7 -1,1 -2,2 -3,3 2,1 4,3 6,8l6 11 -6 0 -6 -11c-1,-3 -2,-4 -2,-5 -1,-1 -2,-1 -3,-1l0 17 -6 0 0 -37zm26 0l5 0 0 28 15 -28 5 0 0 37 -5 0 0 -28 -14 28 -6 0 0 -37zm54 0l21 0 0 32 3 0 0 16 -4 0 0 -11 -24 0 0 11 -4 0 0 -16 3 0c3,-6 5,-17 5,-32zm4 5c0,12 -2,21 -4,27l16 0 0 -27 -12 0zm47 20l6 1c-1,4 -3,7 -5,9 -3,2 -6,3 -9,3 -4,0 -8,-1 -11,-5 -2,-3 -4,-8 -4,-14 0,-7 2,-11 4,-15 3,-3 7,-5 11,-5 4,0 7,2 10,5 2,3 4,8 4,15l0 1 -23 0c0,5 1,8 3,10 1,2 4,3 6,3 4,0 7,-2 8,-8zm-17 -10l17 0c0,-3 -1,-6 -2,-7 -2,-3 -4,-4 -6,-4 -3,0 -5,1 -6,3 -2,2 -3,5 -3,8zm29 -15l5 0 0 28 15 -28 5 0 0 37 -5 0 0 -28 -14 28 -6 0 0 -37zm18 -14l3 0c0,3 -1,5 -3,6 -1,2 -3,3 -5,3 -3,0 -5,-1 -6,-3 -2,-1 -3,-3 -3,-6l4 0c0,3 2,4 5,4 1,0 2,0 3,-1 1,-1 1,-2 2,-3zm35 38l5 1c0,4 -2,7 -4,10 -3,2 -5,3 -9,3 -4,0 -7,-1 -10,-5 -2,-3 -4,-8 -4,-14 0,-7 2,-12 4,-15 3,-3 6,-5 11,-5 3,0 5,1 8,3 2,2 3,5 4,9l-5 1c-1,-3 -2,-5 -3,-6 -1,-1 -3,-2 -4,-2 -3,0 -5,1 -7,4 -1,2 -2,6 -2,11 0,5 1,8 2,11 2,2 4,3 6,3 2,0 4,-1 5,-2 2,-2 3,-4 3,-7zm7 -24l25 0 0 5 -10 0 0 32 -5 0 0 -32 -10 0 0 -5zm30 0l12 0c2,0 5,0 6,1 1,0 3,1 4,3 1,1 2,3 2,6 0,3 -2,6 -4,8 3,1 5,4 5,9 0,3 -1,5 -3,7 -1,2 -4,3 -8,3l-14 0 0 -37zm5 16l5 0c3,0 4,-1 5,-1 1,0 2,-1 2,-2 1,0 1,-1 1,-3 0,-2 0,-3 -1,-4 -2,-1 -4,-1 -6,-1l-6 0 0 11zm0 16l7 0c3,0 5,0 6,-1 1,-1 2,-2 2,-4 0,-2 -1,-4 -2,-5 -1,-1 -4,-1 -7,-1l-6 0 0 11zm26 -32l5 0 0 28 15 -28 5 0 0 37 -5 0 0 -28 -14 28 -6 0 0 -37zm30 0l25 0 0 5 -9 0 0 32 -6 0 0 -32 -10 0 0 -5zm51 25l6 1c-1,4 -3,7 -5,9 -3,2 -5,3 -9,3 -4,0 -8,-1 -10,-5 -3,-3 -5,-8 -5,-14 0,-7 2,-11 5,-15 2,-3 6,-5 10,-5 4,0 7,2 10,5 2,3 4,8 4,15l0 1 -23 0c0,5 1,8 3,10 1,2 4,3 6,3 4,0 7,-2 8,-8zm-17 -10l17 0c0,-3 -1,-6 -2,-7 -1,-3 -4,-4 -6,-4 -3,0 -5,1 -6,3 -2,2 -3,5 -3,8zm32 -15l24 0 0 37 -5 0 0 -32 -14 0 0 19c0,4 0,7 0,8 -1,2 -1,3 -2,4 -1,1 -3,2 -5,2 -1,0 -2,0 -4,-1l0 -5c2,0 4,0 4,0 1,0 1,-1 1,-1 1,-1 1,-3 1,-6l0 -25zm32 0l5 0 0 15 6 0c5,0 9,1 11,3 2,2 3,5 3,8 0,3 -1,6 -3,8 -2,2 -5,3 -9,3l-13 0 0 -37zm5 32l5 0c4,0 7,0 8,-2 1,-1 2,-2 2,-4 0,-2 -1,-4 -2,-5 -2,-1 -4,-1 -7,-1l-6 0 0 12zm25 -32l6 0 0 15 14 0 0 -15 5 0 0 37 -5 0 0 -16 -14 0 0 16 -6 0 0 -37zm33 0l5 0 0 15 7 0c5,0 8,1 10,3 2,2 3,5 3,8 0,3 -1,6 -3,8 -1,2 -5,3 -9,3l-13 0 0 -37zm5 32l6 0c4,0 6,0 7,-2 1,-1 2,-2 2,-4 0,-2 -1,-4 -2,-5 -1,-1 -3,-1 -6,-1l-7 0 0 12zm26 5l0 -37 5 0 0 37 -5 0zm30 -37l24 0 0 37 -5 0 0 -32 -14 0 0 32 -5 0 0 -37zm32 52l0 -52 4 0 0 5c2,-2 3,-4 4,-5 2,-1 3,-1 5,-1 3,0 5,1 7,2 2,2 3,4 5,7 1,3 1,6 1,10 0,7 -1,12 -4,15 -2,4 -5,5 -9,5 -2,0 -3,0 -5,-1 -1,-1 -2,-2 -3,-3l0 18 -5 0zm4 -33c0,5 1,8 3,11 1,2 3,3 6,3 2,0 4,-1 5,-3 2,-3 3,-7 3,-12 0,-4 -1,-8 -2,-10 -2,-3 -4,-4 -6,-4 -2,0 -4,1 -6,4 -2,2 -3,6 -3,11zm29 -19l5 0 0 28 14 -28 6 0 0 37 -5 0 0 -28 -15 28 -5 0 0 -37zm49 52l-1 -6c2,0 3,1 3,1 1,0 2,-1 3,-1 1,-1 1,-1 2,-2 0,-1 1,-3 2,-7l-12 -37 6 0 6 21c1,3 2,6 2,9 1,-3 2,-6 3,-8l6 -22 5 0 -11 38c-2,5 -3,8 -4,10 -1,2 -2,3 -3,4 -1,0 -2,1 -4,1 -1,0 -2,-1 -3,-1zm50 -28l5 1c-1,4 -2,7 -4,10 -3,2 -6,3 -9,3 -4,0 -7,-1 -10,-5 -3,-3 -4,-8 -4,-14 0,-7 1,-12 4,-15 3,-3 6,-5 10,-5 3,0 6,1 8,3 2,2 4,5 4,9l-5 1c0,-3 -1,-5 -2,-6 -1,-1 -3,-2 -5,-2 -2,0 -4,1 -6,4 -2,2 -2,6 -2,11 0,5 0,8 2,11 2,2 4,3 6,3 2,0 4,-1 5,-2 1,-2 2,-4 3,-7zm12 -24l24 0 0 37 -5 0 0 -32 -14 0 0 19c0,4 0,7 0,8 0,2 -1,3 -2,4 -1,1 -3,2 -5,2 -1,0 -2,0 -4,-1l0 -5c3,0 4,0 4,0 1,0 1,-1 2,-1 0,-1 0,-3 0,-6l0 -25zm30 19c0,-7 1,-12 4,-15 3,-3 6,-5 10,-5 4,0 8,2 10,5 3,3 5,8 5,14 0,7 -2,12 -5,15 -2,4 -6,5 -10,5 -4,0 -7,-1 -10,-5 -3,-3 -4,-8 -4,-14zm5 0c0,5 1,8 3,11 2,2 4,3 6,3 3,0 5,-1 7,-3 1,-3 2,-7 2,-11 0,-5 -1,-9 -2,-11 -2,-3 -4,-4 -7,-4 -2,0 -5,1 -6,4 -2,2 -3,6 -3,11zm30 -19l12 0c2,0 5,0 6,1 1,0 3,1 4,3 1,1 2,3 2,6 0,3 -2,6 -4,8 3,1 5,4 5,9 0,3 -1,5 -3,7 -1,2 -4,3 -8,3l-14 0 0 -37zm5 16l5 0c3,0 4,-1 5,-1 1,0 2,-1 2,-2 1,0 1,-1 1,-3 0,-2 0,-3 -1,-4 -2,-1 -4,-1 -6,-1l-6 0 0 11zm0 16l7 0c3,0 5,0 6,-1 1,-1 2,-2 2,-4 0,-2 -1,-4 -2,-5 -1,-1 -4,-1 -7,-1l-6 0 0 11zm26 -32l5 0 0 28 15 -28 5 0 0 37 -5 0 0 -28 -14 28 -6 0 0 -37zm33 0l5 0 0 28 15 -28 6 0 0 37 -6 0 0 -28 -14 28 -6 0 0 -37zm-1133 82l24 0 0 38 -5 0 0 -33 -14 0 0 33 -5 0 0 -38zm30 19c0,-7 1,-11 4,-15 2,-3 6,-5 10,-5 4,0 7,2 10,5 3,4 4,8 4,15 0,6 -1,11 -4,15 -2,3 -6,5 -10,5 -4,0 -8,-2 -10,-5 -3,-4 -4,-9 -4,-15zm5 0c0,5 1,8 3,11 1,2 4,3 6,3 3,0 5,-1 6,-3 2,-3 3,-6 3,-11 0,-5 -1,-9 -3,-11 -1,-2 -4,-3 -6,-3 -3,0 -5,1 -6,3 -2,2 -3,6 -3,11zm30 -19l5 0 0 16c1,0 3,0 3,-1 1,-1 2,-3 3,-7 1,-3 2,-5 3,-6 0,-1 1,-1 2,-1 1,-1 2,-1 4,-1l1 0 0 5 -2 0c-1,0 -2,0 -2,1 -1,0 -1,1 -1,2 -1,4 -2,6 -3,8 -1,1 -2,2 -3,2 2,1 4,4 6,8l6 12 -6 0 -5 -12c-2,-2 -2,-4 -3,-5 -1,0 -2,-1 -3,-1l0 18 -5 0 0 -38zm25 52l0 -6c1,1 2,1 3,1 1,0 2,0 2,-1 1,0 2,-1 2,-2 0,0 1,-2 2,-6l-11 -38 5 0 6 22c1,2 2,5 3,8 0,-2 1,-5 2,-8l6 -22 6 0 -12 38c-2,5 -3,9 -4,10 -1,2 -2,3 -3,4 -1,1 -2,1 -3,1 -1,0 -3,0 -4,-1zm30 -52l24 0 0 38 -5 0 0 -33 -14 0 0 33 -5 0 0 -38zm32 0l5 0 0 16c2,0 3,0 4,-1 0,-1 1,-3 3,-7 1,-3 2,-5 2,-6 1,-1 2,-1 2,-1 1,-1 3,-1 5,-1l0 0 0 5 -1 0c-1,0 -2,0 -3,1 0,0 0,1 -1,2 -1,4 -2,6 -3,8 0,1 -1,2 -3,2 2,1 5,4 7,8l5 12 -5 0 -6 -12c-1,-2 -2,-4 -3,-5 -1,0 -2,-1 -3,-1l0 18 -5 0 0 -38zm26 0l5 0 0 29 15 -29 5 0 0 38 -5 0 0 -29 -15 29 -5 0 0 -38zm47 0l25 0 0 5 -10 0 0 33 -5 0 0 -33 -10 0 0 -5zm28 19c0,-7 1,-11 4,-15 2,-3 6,-5 10,-5 4,0 7,2 10,5 3,4 4,8 4,15 0,6 -1,11 -4,15 -3,3 -6,5 -10,5 -4,0 -8,-2 -10,-5 -3,-4 -4,-9 -4,-15zm5 0c0,5 1,8 2,11 2,2 4,3 7,3 2,0 5,-1 6,-3 2,-3 3,-6 3,-11 0,-5 -1,-9 -3,-11 -2,-2 -4,-3 -6,-3 -3,0 -5,1 -7,3 -1,2 -2,6 -2,11zm29 -19l12 0c3,0 5,0 7,1 1,0 2,1 4,3 1,2 1,4 1,6 0,4 -1,6 -3,8 3,2 5,5 5,9 0,3 -1,6 -3,8 -2,2 -5,3 -9,3l-14 0 0 -38zm6 16l5 0c2,0 4,0 5,0 1,-1 1,-1 2,-2 1,-1 1,-2 1,-3 0,-2 -1,-4 -2,-4 -1,-1 -3,-2 -6,-2l-5 0 0 11zm0 17l6 0c3,0 5,-1 7,-2 1,-1 1,-2 1,-4 0,-2 0,-4 -1,-4 -2,-1 -4,-2 -7,-2l-6 0 0 12zm46 0c-2,2 -4,3 -6,4 -2,1 -3,2 -6,2 -3,0 -5,-1 -7,-3 -2,-2 -3,-5 -3,-8 0,-2 0,-4 1,-6 1,-2 2,-3 4,-4 2,-1 4,-1 7,-2 4,-1 7,-1 9,-2l0 -2c0,-2 0,-4 -1,-5 -1,-2 -3,-2 -6,-2 -2,0 -4,0 -5,1 -2,1 -2,3 -3,6l-5 -1c1,-4 2,-7 4,-9 2,-2 6,-3 10,-3 3,0 6,1 7,2 2,1 3,3 4,5 0,1 1,4 1,8l0 8c0,6 0,10 0,11 0,2 1,3 1,5l-5 0c-1,-1 -1,-3 -1,-5zm-1 -14c-2,1 -4,2 -8,2 -2,1 -4,1 -5,2 -1,0 -1,1 -2,2 0,1 0,2 0,3 0,2 0,3 1,4 1,1 3,2 5,2 2,0 3,-1 5,-2 1,-1 2,-2 3,-4 1,-1 1,-4 1,-7l0 -2zm14 33l0 -52 5 0 0 5c1,-2 2,-3 3,-4 2,-1 3,-2 5,-2 3,0 5,1 7,2 2,2 3,4 5,7 1,3 1,7 1,11 0,6 -1,11 -4,14 -2,4 -5,6 -9,6 -2,0 -3,-1 -5,-2 -1,0 -2,-2 -3,-3l0 18 -5 0zm4 -33c0,5 1,9 3,11 1,2 3,3 6,3 2,0 4,-1 5,-3 2,-3 3,-6 3,-11 0,-5 -1,-9 -2,-11 -2,-3 -4,-4 -6,-4 -2,0 -4,2 -6,4 -2,3 -3,6 -3,11zm49 14c-2,2 -4,3 -6,4 -2,1 -4,2 -6,2 -3,0 -5,-1 -7,-3 -2,-2 -3,-5 -3,-8 0,-2 0,-4 1,-6 1,-2 2,-3 4,-4 1,-1 4,-1 7,-2 4,-1 7,-1 9,-2l0 -2c0,-2 0,-4 -1,-5 -1,-2 -3,-2 -6,-2 -3,0 -4,0 -6,1 -1,1 -2,3 -2,6l-5 -1c0,-4 2,-7 4,-9 2,-2 5,-3 10,-3 3,0 5,1 7,2 2,1 3,3 4,5 0,1 0,4 0,8l0 8c0,6 1,10 1,11 0,2 0,3 1,5l-5 0c-1,-1 -1,-3 -1,-5zm-1 -14c-2,1 -5,2 -8,2 -3,1 -4,1 -5,2 -1,0 -1,1 -2,2 0,1 -1,2 -1,3 0,2 1,3 2,4 1,1 3,2 5,2 1,0 3,-1 5,-2 1,-1 2,-2 3,-4 1,-1 1,-4 1,-7l0 -2zm30 -19l5 0 0 16 15 0 0 -16 5 0 0 38 -5 0 0 -17 -15 0 0 17 -5 0 0 -38zm53 33c-2,2 -4,3 -6,4 -2,1 -4,2 -6,2 -3,0 -5,-1 -7,-3 -2,-2 -3,-5 -3,-8 0,-2 0,-4 1,-6 1,-2 2,-3 4,-4 1,-1 4,-1 7,-2 4,-1 7,-1 9,-2l0 -2c0,-2 0,-4 -1,-5 -1,-2 -3,-2 -6,-2 -3,0 -4,0 -6,1 -1,1 -2,3 -2,6l-5 -1c0,-4 2,-7 4,-9 2,-2 5,-3 10,-3 3,0 5,1 7,2 2,1 3,3 4,5 0,1 0,4 0,8l0 8c0,6 1,10 1,11 0,2 0,3 1,5l-5 0c-1,-1 -1,-3 -1,-5zm-1 -14c-2,1 -5,2 -8,2 -3,1 -4,1 -5,2 -1,0 -1,1 -2,2 0,1 -1,2 -1,3 0,2 1,3 2,4 1,1 3,2 5,2 1,0 3,-1 5,-2 1,-1 2,-2 3,-4 1,-1 1,-4 1,-7l0 -2zm30 -19l5 0 0 29 15 -29 5 0 0 38 -5 0 0 -29 -14 29 -6 0 0 -38zm40 21l0 -5c2,0 4,0 4,-1 1,0 2,0 3,-1 0,-1 1,-2 1,-4 0,-2 -1,-3 -2,-4 -1,-1 -2,-1 -3,-1 -3,0 -5,2 -6,6l-5 -1c1,-7 5,-11 11,-11 3,0 6,1 7,4 2,2 3,4 3,7 0,3 -1,6 -3,8 3,2 4,5 4,9 0,4 -1,6 -3,9 -2,2 -5,3 -8,3 -7,0 -11,-4 -12,-12l5 -1c0,2 1,4 2,6 2,1 3,2 5,2 2,0 3,-1 4,-2 1,-2 2,-3 2,-5 0,-2 0,-3 -1,-4 -1,-1 -2,-2 -2,-2 -1,0 -3,0 -4,0l-2 0zm20 -21l18 0 0 5 -13 0 0 33 -5 0 0 -38zm20 19c0,-7 1,-11 4,-15 3,-3 6,-5 10,-5 4,0 8,2 10,5 3,4 4,8 4,15 0,6 -1,11 -4,15 -2,3 -6,5 -10,5 -4,0 -7,-2 -10,-5 -3,-4 -4,-9 -4,-15zm5 0c0,5 1,8 3,11 1,2 4,3 6,3 3,0 5,-1 7,-3 1,-3 2,-6 2,-11 0,-5 -1,-9 -2,-11 -2,-2 -4,-3 -7,-3 -2,0 -5,1 -6,3 -2,2 -3,6 -3,11zm27 -19l25 0 0 5 -10 0 0 33 -5 0 0 -33 -10 0 0 -5zm28 19c0,-7 1,-11 4,-15 3,-3 6,-5 10,-5 4,0 8,2 10,5 3,4 4,8 4,15 0,6 -1,11 -4,15 -2,3 -6,5 -10,5 -4,0 -7,-2 -10,-5 -3,-4 -4,-9 -4,-15zm5 0c0,5 1,8 3,11 1,2 4,3 6,3 3,0 5,-1 7,-3 1,-3 2,-6 2,-11 0,-5 -1,-9 -2,-11 -2,-2 -4,-3 -7,-3 -2,0 -5,1 -6,3 -2,2 -3,6 -3,11zm30 -19l12 0c2,0 4,0 6,1 1,0 3,1 4,3 1,2 2,4 2,6 0,4 -2,6 -4,8 3,2 5,5 5,9 0,3 -1,6 -3,8 -1,2 -4,3 -8,3l-14 0 0 -38zm5 16l5 0c3,0 4,0 5,0 1,-1 2,-1 2,-2 1,-1 1,-2 1,-3 0,-2 0,-4 -2,-4 -1,-1 -3,-2 -5,-2l-6 0 0 11zm0 17l7 0c3,0 5,-1 6,-2 1,-1 2,-2 2,-4 0,-2 -1,-4 -2,-4 -1,-1 -4,-2 -7,-2l-6 0 0 12z"/>
   <path class="fil3" d="M1241 2218l24 0 0 38 -5 0 0 -33 -14 0 0 19c0,4 0,7 -1,9 0,1 0,2 -1,3 -2,2 -3,2 -5,2 -1,0 -3,0 -4,0l0 -6c2,0 4,0 4,0 1,0 1,0 1,-1 1,0 1,-3 1,-6l0 -25zm53 26l5 1c-1,4 -3,7 -5,9 -2,2 -5,3 -9,3 -4,0 -8,-2 -10,-5 -3,-4 -4,-8 -4,-15 0,-6 1,-11 4,-15 3,-3 6,-5 10,-5 4,0 7,2 10,5 3,4 4,9 4,15l0 2 -23 0c0,4 1,7 3,9 2,2 4,3 6,3 4,0 7,-2 9,-7zm-18 -11l18 0c-1,-3 -1,-5 -3,-7 -1,-2 -3,-3 -6,-3 -2,0 -4,0 -6,2 -2,2 -2,5 -3,8zm29 -15l6 0 0 16 14 0 0 -16 5 0 0 38 -5 0 0 -17 -14 0 0 17 -6 0 0 -38zm33 0l5 0 0 29 15 -29 5 0 0 38 -5 0 0 -29 -14 29 -6 0 0 -38zm54 26l6 1c-1,4 -3,7 -5,9 -3,2 -6,3 -9,3 -4,0 -8,-2 -11,-5 -2,-4 -4,-8 -4,-15 0,-6 2,-11 4,-15 3,-3 7,-5 11,-5 4,0 7,2 10,5 2,4 4,9 4,15l0 2 -23 0c0,4 1,7 3,9 1,2 3,3 6,3 4,0 7,-2 8,-7zm-17 -11l17 0c0,-3 -1,-5 -2,-7 -2,-2 -4,-3 -6,-3 -3,0 -5,0 -6,2 -2,2 -3,5 -3,8zm46 -15l24 0 0 38 -5 0 0 -33 -14 0 0 33 -5 0 0 -38zm30 19c0,-7 1,-11 4,-15 2,-3 6,-5 10,-5 4,0 7,2 10,5 3,4 4,8 4,15 0,6 -1,11 -4,15 -2,3 -6,5 -10,5 -4,0 -8,-2 -10,-5 -3,-4 -4,-9 -4,-15zm5 0c0,5 1,8 3,11 1,2 4,3 6,3 3,0 5,-1 6,-3 2,-3 3,-6 3,-11 0,-5 -1,-9 -3,-11 -1,-2 -4,-3 -6,-3 -3,0 -5,1 -6,3 -2,2 -3,6 -3,11zm34 -19l21 0 0 33 3 0 0 15 -4 0 0 -10 -24 0 0 10 -4 0 0 -15 2 0c4,-6 6,-17 6,-33zm4 5c0,13 -2,22 -5,28l17 0 0 -28 -12 0zm49 16l0 -5c3,0 4,0 5,-1 1,0 1,0 2,-1 1,-1 1,-2 1,-4 0,-2 0,-3 -1,-4 -1,-1 -2,-1 -4,-1 -3,0 -5,2 -6,6l-5 -1c2,-7 5,-11 11,-11 3,0 6,1 8,4 2,2 3,4 3,7 0,3 -2,6 -4,8 3,2 5,5 5,9 0,4 -1,6 -3,9 -2,2 -5,3 -9,3 -7,0 -11,-4 -12,-12l5 -1c0,2 1,4 3,6 1,1 3,2 4,2 2,0 4,-1 5,-2 1,-2 1,-3 1,-5 0,-2 0,-3 -1,-4 0,-1 -1,-2 -2,-2 -1,0 -2,0 -4,0l-2 0zm40 12c-1,2 -3,3 -5,4 -2,1 -4,2 -6,2 -3,0 -6,-1 -7,-3 -2,-2 -3,-5 -3,-8 0,-2 0,-4 1,-6 1,-2 2,-3 4,-4 1,-1 4,-1 7,-2 4,-1 7,-1 9,-2l0 -2c0,-2 0,-4 -1,-5 -2,-2 -4,-2 -6,-2 -3,0 -4,0 -6,1 -1,1 -2,3 -2,6l-5 -1c0,-4 2,-7 4,-9 2,-2 5,-3 10,-3 3,0 5,1 7,2 2,1 3,3 4,5 0,1 0,4 0,8l0 8c0,6 0,10 1,11 0,2 0,3 1,5l-5 0c-1,-1 -1,-3 -2,-5zm0 -14c-2,1 -5,2 -8,2 -3,1 -4,1 -5,2 -1,0 -2,1 -2,2 0,1 -1,2 -1,3 0,2 1,3 2,4 1,1 3,2 5,2 1,0 3,-1 5,-2 1,-1 2,-2 3,-4 1,-1 1,-4 1,-7l0 -2zm13 -19l6 0 0 16c1,0 3,0 3,-1 1,-1 2,-3 3,-7 1,-3 2,-5 3,-6 0,-1 1,-1 2,-1 1,-1 2,-1 4,-1l1 0 0 5 -2 0c-1,0 -2,0 -2,1 -1,0 -1,1 -1,2 -1,4 -2,6 -3,8 -1,1 -2,2 -3,2 2,1 4,4 6,8l6 12 -6 0 -5 -12c-2,-2 -3,-4 -3,-5 -1,0 -2,-1 -3,-1l0 18 -6 0 0 -38zm46 33c-1,2 -3,3 -5,4 -2,1 -4,2 -6,2 -3,0 -6,-1 -8,-3 -2,-2 -3,-5 -3,-8 0,-2 1,-4 2,-6 1,-2 2,-3 3,-4 2,-1 4,-1 8,-2 4,-1 7,-1 9,-2l0 -2c0,-2 -1,-4 -1,-5 -2,-2 -4,-2 -6,-2 -3,0 -5,0 -6,1 -1,1 -2,3 -2,6l-6 -1c1,-4 3,-7 5,-9 2,-2 5,-3 9,-3 4,0 6,1 8,2 2,1 3,3 3,5 1,1 1,4 1,8l0 8c0,6 0,10 0,11 1,2 1,3 2,5l-6 0c0,-1 -1,-3 -1,-5zm0 -14c-2,1 -5,2 -9,2 -2,1 -3,1 -4,2 -1,0 -2,1 -2,2 -1,1 -1,2 -1,3 0,2 1,3 2,4 1,1 2,2 4,2 2,0 4,-1 5,-2 2,-1 3,-2 4,-4 0,-1 1,-4 1,-7l0 -2zm20 2l0 -5c2,0 4,0 5,-1 0,0 1,0 2,-1 0,-1 1,-2 1,-4 0,-2 -1,-3 -2,-4 -1,-1 -2,-1 -3,-1 -3,0 -5,2 -6,6l-5 -1c1,-7 5,-11 11,-11 3,0 6,1 8,4 1,2 2,4 2,7 0,3 -1,6 -3,8 3,2 4,5 4,9 0,4 -1,6 -3,9 -2,2 -4,3 -8,3 -7,0 -11,-4 -12,-12l5 -1c0,2 1,4 2,6 2,1 3,2 5,2 2,0 3,-1 4,-2 2,-2 2,-3 2,-5 0,-2 0,-3 -1,-4 -1,-1 -1,-2 -2,-2 -1,0 -2,0 -4,0l-2 0z"/>
  </g>
  <g id="_-1897722784">
   <polygon class="fil4" points="1156,1617 495,1508 633,783 1293,914 "/>
   <polygon class="fil2" points="1257,861 584,826 556,1204 1233,1194 "/>
   <polygon class="fil5" points="1233,1194 1257,861 1198,1138 558,1178 557,1193 1167,1195 1196,1195 "/>
   <polygon class="fil6" points="1205,1575 1233,1194 556,1204 531,1539 "/>
   <polygon class="fil7" points="1205,1575 1233,1194 1196,1195 1140,1497 531,1539 "/>
   <polygon class="fil1" points="539,1178 1263,1178 1271,1217 539,1215 "/>
   <polygon class="fil1" points="662,1567 838,1569 1118,1645 "/>
   <polygon class="fil2" points="689,772 1244,803 1266,748 "/>
   <polygon class="fil5" points="801,798 952,834 1261,844 1248,823 "/>
   <polygon class="fil2" points="540,1021 541,1014 486,1449 450,1398 "/>
   <g>
    <path class="fil8" d="M1077 1057c-21,0 -21,33 0,33 21,-1 21,-33 0,-33zm0 -11c36,0 36,54 0,54 -36,0 -36,-54 0,-54z"/>
    <polygon class="fil8" points="1124,1058 1124,1068 1138,1068 1138,1078 1124,1079 1124,1100 1114,1100 1114,1047 1140,1047 1140,1057 "/>
    <polygon class="fil8" points="1159,1057 1159,1068 1173,1068 1173,1078 1159,1078 1159,1099 1149,1099 1149,1047 1175,1047 1175,1057 "/>
    <path class="fil8" d="M1139 1023c14,0 14,-21 0,-21 -13,0 -13,21 0,21zm0 14c-34,0 -34,-49 0,-49 35,-1 35,49 0,49zm-60 -79c14,0 14,-20 0,-20 -14,0 -14,21 0,20zm77 -33l-72 112 -23 0 73 -112 22 0zm-77 48c-34,0 -35,-50 0,-50 34,0 34,50 0,50z"/>
   </g>
   <path class="fil1" d="M649 1043l74 0 0 -32 -74 0 0 32zm161 65c39,0 72,-20 72,-57 0,-25 -16,-41 -38,-47l0 -1c20,-9 32,-23 32,-44 0,-34 -27,-53 -67,-53 -24,0 -43,10 -61,25l23 28c12,-11 22,-17 36,-18 15,0 24,8 24,22 0,16 -11,26 -46,26l0 32c42,0 52,11 52,28 0,14 -12,23 -31,23 -16,0 -31,-8 -42,-20l-21 29c14,16 36,27 67,27zm167 0c41,0 69,-36 69,-102 0,-66 -28,-100 -69,-100 -42,0 -69,34 -69,100 0,66 28,102 69,102zm0 -35c-15,0 -27,-14 -27,-67 0,-53 12,-65 27,-65 15,0 26,12 27,65 0,53 -12,67 -27,67z"/>
   <path class="fil4" d="M634 1285l0 74 -14 0 0 -86 43 0 0 86 -14 0 0 -74 -15 0zm-37 141l0 -5c0,-4 -1,-6 -2,-8 -1,-1 -3,-2 -5,-2 -5,0 -7,3 -7,9l0 7 -13 0 0 -7c0,-7 2,-12 5,-16 4,-3 8,-5 15,-5 7,0 12,2 15,6 4,3 5,9 5,16l0 2c0,9 -3,15 -9,18 6,2 9,8 9,18l0 7c0,7 -1,12 -5,16 -3,3 -8,5 -15,5 -7,0 -12,-2 -15,-5 -3,-4 -5,-9 -5,-16l0 -10 13 0 0 10c0,6 2,9 7,9 2,0 4,-1 5,-2 1,-2 2,-4 2,-8l0 -7c0,-4 -1,-6 -2,-8 -2,-2 -4,-3 -7,-3l-3 0 0 -12 4 0c2,0 4,-1 6,-2 1,-1 2,-4 2,-7zm52 -26l14 86 -13 0 -3 -15 -16 0 -3 15 -12 0 14 -86 19 0zm-10 15l-7 44 13 0 -6 -44zm61 71l-13 -34 -4 8 0 26 -13 0 0 -86 13 0 0 38 18 -38 13 0 -18 38 18 48 -14 0zm51 -86l13 86 -13 0 -3 -15 -16 0 -3 15 -12 0 14 -86 20 0zm-11 15l-6 44 13 0 -7 -44zm57 11l0 -5c0,-4 -1,-6 -2,-8 -1,-1 -3,-2 -5,-2 -5,0 -7,3 -7,9l0 7 -13 0 0 -7c0,-7 2,-12 5,-16 4,-3 9,-5 15,-5 7,0 12,2 15,6 4,3 5,9 5,16l0 2c0,9 -3,15 -9,18 6,2 9,8 9,18l0 7c0,7 -1,12 -5,16 -3,3 -8,5 -15,5 -6,0 -11,-2 -15,-5 -3,-4 -5,-9 -5,-16l0 -10 13 0 0 10c0,6 2,9 7,9 2,0 4,-1 5,-2 1,-2 2,-4 2,-8l0 -7c0,-4 -1,-6 -2,-8 -2,-2 -4,-3 -7,-3l-3 0 0 -12 4 0c2,0 4,-1 6,-2 1,-1 2,-4 2,-7zm53 -26l13 86 -13 0 -3 -15 -16 0 -3 15 -12 0 14 -86 20 0zm-11 15l-6 44 13 0 -7 -44zm74 71l0 -9 -5 0c-14,0 -20,-8 -20,-22l0 -23c0,-15 6,-22 20,-22l5 0 0 -10 13 0 0 10 5 0c14,0 21,7 21,22l0 23c0,14 -7,22 -21,22l-5 0 0 9 -13 0zm18 -64l-5 0 0 43 5 0c5,0 7,-3 7,-9l0 -25c0,-6 -2,-9 -7,-9zm-18 43l0 -43 -5 0c-5,0 -7,3 -7,9l0 25c0,6 2,9 7,9l5 0zm60 -45l0 46c0,6 2,9 7,9 5,0 7,-3 7,-9l0 -46c0,-6 -2,-9 -7,-9 -5,0 -7,3 -7,9zm-13 46l0 -45c0,-7 1,-13 5,-16 3,-4 9,-6 15,-6 7,0 12,2 15,6 4,3 6,9 6,16l0 45c0,6 -2,12 -6,16 -3,3 -8,5 -15,5 -6,0 -12,-2 -15,-5 -4,-4 -5,-10 -5,-16zm69 -66c14,0 21,7 21,21l0 12c0,14 -7,21 -21,21l-6 0 0 32 -13 0 0 -86 19 0zm0 12l-6 0 0 30 6 0c3,0 4,-1 5,-2 2,-2 2,-4 2,-7l0 -13c0,-3 0,-5 -2,-6 -1,-1 -2,-2 -5,-2zm46 -12l10 61 9 -61 19 0 0 86 -13 0 0 -62 -9 62 -13 0 -10 -61 0 61 -12 0 0 -86 19 0zm68 86l-20 0 0 -86 13 0 0 32 7 0c13,0 20,7 20,22l0 11c0,14 -7,21 -20,21zm-7 -12l7 0c2,0 4,-1 5,-2 1,-1 1,-3 1,-6l0 -13c0,-3 0,-5 -1,-6 -1,-2 -3,-2 -5,-2l-7 0 0 29zm48 12l-13 0 0 -86 13 0 0 86zm-491 -213c13,0 20,7 20,21l0 11c0,15 -7,22 -20,22l-7 0 0 32 -13 0 0 -86 20 0zm0 12l-7 0 0 29 7 0c2,0 4,0 5,-1 1,-2 1,-4 1,-7l0 -13c0,-3 0,-5 -1,-6 -1,-1 -3,-2 -5,-2zm51 35l-11 39 -14 0 0 -86 12 0 0 55 5 -19 11 -36 15 0 0 86 -12 0 0 -61 -6 22zm92 -47l-15 64c-2,9 -4,15 -8,18 -4,3 -10,5 -19,4l0 -12c3,1 6,0 8,-1 2,-1 3,-3 4,-6l0 0 -19 -67 13 0 8 29 4 21 3 -20 6 -30 15 0zm32 54l13 0 0 12c0,7 -2,12 -6,16 -3,3 -8,5 -15,5 -6,0 -11,-2 -15,-5 -3,-4 -5,-9 -5,-16l0 -45c0,-7 2,-13 5,-16 4,-4 9,-6 15,-6 7,0 12,2 15,6 4,3 6,9 6,16l0 8 -13 0 0 -9c0,-6 -3,-9 -7,-9 -5,0 -7,3 -7,9l0 46c0,6 2,9 7,9 4,0 7,-3 7,-9l0 -12zm17 32l0 -12c3,0 5,0 7,-2 1,-1 1,-3 1,-7l3 -65 38 0 0 86 -14 0 0 -74 -12 0 -1 52c0,8 -2,14 -5,17 -3,4 -8,5 -15,5l-2 0zm72 -66l0 46c0,6 2,9 7,9 4,0 7,-3 7,-9l0 -46c0,-6 -3,-9 -7,-9 -5,0 -7,3 -7,9zm-14 46l0 -45c0,-7 2,-13 5,-16 4,-4 9,-6 16,-6 6,0 11,2 15,6 4,3 5,9 5,16l0 45c0,6 -1,12 -5,16 -4,3 -9,5 -15,5 -7,0 -12,-2 -16,-5 -3,-4 -5,-10 -5,-16zm71 -66c7,0 12,2 15,5 3,3 5,8 5,15l0 3c0,9 -3,15 -9,17 7,3 10,9 10,19l0 7c0,6 -2,11 -5,15 -4,3 -9,5 -16,5l-21 0 0 -86 21 0zm-1 47l-6 0 0 27 7 0c3,0 5,-1 6,-2 1,-1 1,-3 1,-7l0 -7c0,-4 0,-7 -2,-8 -1,-2 -3,-3 -6,-3zm0 -35l-6 0 0 23 5 0c3,0 5,-1 6,-2 1,-1 2,-4 2,-7l0 -5c0,-6 -2,-9 -7,-9zm55 35l-11 39 -14 0 0 -86 12 0 0 55 5 -19 11 -36 15 0 0 86 -12 0 0 -61 -6 22zm53 0l-11 39 -14 0 0 -86 12 0 0 55 5 -19 11 -36 15 0 0 86 -12 0 0 -61 -6 22z"/>
  </g>
 </g>
</svg>
