<?xml version="1.0" encoding="UTF-8" standalone="no"?>
<svg
   xmlns:dc="http://purl.org/dc/elements/1.1/"
   xmlns:cc="http://creativecommons.org/ns#"
   xmlns:rdf="http://www.w3.org/1999/02/22-rdf-syntax-ns#"
   xmlns:svg="http://www.w3.org/2000/svg"
   xmlns="http://www.w3.org/2000/svg"
   viewBox="0 0 1668 812"
   height="812"
   width="1668"
   xml:space="preserve"
   id="svg2"
   version="1.1"><metadata
     id="metadata8"><rdf:RDF><cc:Work
         rdf:about=""><dc:format>image/svg+xml</dc:format><dc:type
           rdf:resource="http://purl.org/dc/dcmitype/StillImage" /></cc:Work></rdf:RDF></metadata><defs
     id="defs6" /><g
     transform="matrix(1.3333333,0,0,-1.3333333,0,812)"
     id="g10"><g
       transform="scale(0.1)"
       id="g12"><path
         id="path14"
         style="fill:#0ab2eb;fill-opacity:1;fill-rule:evenodd;stroke:none"
         d="M 4.07422,2.73828 H 12504.074 V 6083.0483 H 4.07422 Z" /><path
         id="path16"
         style="fill:#ffffff;fill-opacity:1;fill-rule:nonzero;stroke:none"
         d="m 8212.89,1360.84 h -43.43 v 37.45 h -93.64 v -37.45 h -42.64 v 76.5 h 17.14 c 6.37,7.97 9.96,20.06 10.75,36.26 l 9.97,203.62 h 122.73 v -239.88 h 19.12 z m -100.81,276.53 -7.97,-162.97 c -1.06,-17.8 -5.18,-30.15 -12.36,-37.06 h 57.39 v 200.03 z m 206.81,-111.16 -36.66,-127.92 h -45.03 v 278.93 h 39.05 V 1500.7 l 15.94,61.36 35.86,115.16 h 48.22 v -278.93 h -39.45 v 196.45 z m 174.13,-23.92 h 41.44 v -37.05 c 0,-22.58 -5.58,-39.92 -16.73,-52 -11.16,-12.09 -27.36,-18.14 -48.61,-18.14 -21.26,0 -37.46,6.05 -48.62,18.14 -11.16,12.08 -16.73,29.42 -16.73,52 v 145.03 c 0,22.59 5.57,39.92 16.73,52.01 11.16,12.08 27.36,18.13 48.62,18.13 21.25,0 37.45,-6.05 48.61,-18.13 11.15,-12.09 16.73,-29.42 16.73,-52.01 v -27.09 h -41.44 v 29.89 c 0,18.33 -7.57,27.49 -22.71,27.49 -15.14,0 -22.71,-9.16 -22.71,-27.49 v -150.63 c 0,-18.06 7.57,-27.09 22.71,-27.09 15.14,0 22.71,9.03 22.71,27.09 z m 168.15,-104 -42.63,111.18 -13.55,-25.51 v -85.67 h -43.83 v 278.93 h 43.83 v -121.54 l 57.38,121.54 h 43.83 l -60.97,-124.33 60.97,-154.6 z m 162.18,278.93 44.63,-278.93 h -44.23 l -7.57,50.6 h -53.8 l -7.56,-50.6 h -40.25 l 44.63,278.93 z m -34.26,-49.41 -21.13,-141.05 h 42.24 z m 243.46,49.41 -47.02,-208 c -5.58,-27.09 -14.48,-46.22 -26.7,-57.38 -12.22,-11.16 -32.8,-15.81 -61.76,-13.94 v 39.04 c 11.96,-0.8 20.98,0.4 27.1,3.59 6.1,3.19 9.96,9.56 11.55,19.12 l 0.4,2.4 -60.57,215.17 h 43.44 l 23.91,-95.23 13.55,-65.35 10.35,64.95 19.92,95.63 z m 62.16,-159.39 v -119.54 h -43.83 v 278.93 h 43.83 v -119.54 h 49.81 v 119.54 h 44.62 v -278.93 h -44.62 v 119.54 z m 113.57,119.54 v 39.85 h 135.48 v -39.85 h -45.83 v -239.08 h -43.83 v 239.08 z m 198.43,0 v -77.7 h 60.17 v -39.85 h -60.17 v -81.68 h 75.71 v -39.85 h -119.54 v 278.93 h 119.54 v -39.85 z m 167.36,39.85 c 43.56,0 65.35,-22.98 65.35,-68.93 v -36.26 c 0,-45.96 -21.79,-68.94 -65.35,-68.94 h -20.72 v -104.8 h -43.83 v 278.93 z m 0,-39.85 h -20.72 v -94.44 h 20.72 c 7.17,0 12.55,2 16.14,5.98 3.58,3.98 5.38,10.76 5.38,20.32 v 41.84 c 0,9.57 -1.8,16.34 -5.38,20.33 -3.59,3.98 -8.97,5.97 -16.14,5.97" /><path
         id="path18"
         style="fill:#ffffff;fill-opacity:1;fill-rule:nonzero;stroke:none"
         d="m 3129.67,4037.48 154.12,-945.69 142.72,945.69 h 291.13 V 2705.52 h -197.9 v 955.2 l -144.61,-955.2 h -197.89 l -156.03,941.88 v -941.88 h -182.67 v 1331.96 z m 949.5,-190.28 v -371.05 h 287.32 V 3285.87 H 4079.17 V 2895.8 H 4440.7 V 2705.52 H 3869.86 V 4037.48 H 4440.7 V 3847.2 Z M 4781.3,2705.52 H 4572 v 1331.96 h 551.81 V 3847.2 H 4781.3 Z m 947.6,1331.96 213.12,-1331.96 H 5730.8 l -36.15,241.66 h -256.88 l -36.15,-241.66 h -192.18 l 213.11,1331.96 z m -163.64,-235.95 -100.85,-673.59 h 201.7 z m 1057.95,235.95 154.13,-945.69 142.71,945.69 h 291.14 V 2705.52 h -197.9 v 955.2 l -144.61,-955.2 h -197.89 l -156.03,941.88 v -941.88 h -182.67 v 1331.96 z m 932.38,-306.35 v -719.26 c 0,-87.53 36.16,-131.29 108.46,-131.29 72.31,0 108.47,43.76 108.47,131.29 v 719.26 c 0,87.53 -36.16,131.29 -108.47,131.29 -72.3,0 -108.46,-43.76 -108.46,-131.29 z m -209.31,-705.94 v 692.62 c 0,106.56 27.28,189.01 81.82,247.37 54.56,58.34 133.2,87.53 235.95,87.53 102.75,0 181.4,-29.19 235.95,-87.53 54.55,-58.36 81.82,-140.81 81.82,-247.37 v -692.62 c 0,-106.56 -27.27,-189.01 -81.82,-247.37 -54.55,-58.35 -133.2,-87.53 -235.95,-87.53 -102.75,0 -181.39,29.18 -235.95,87.53 -54.54,58.36 -81.82,140.81 -81.82,247.37 z m 711.65,-321.58 v 190.28 c 50.75,0 84.68,7.93 101.8,23.79 17.13,15.86 26.33,53.59 27.59,113.22 l 34.26,1006.58 h 591.77 V 2705.52 H 8600.23 V 3847.2 h -182.67 l -22.83,-804.89 c -3.8,-121.77 -29.17,-208.67 -76.11,-260.68 -46.94,-52.01 -123.05,-78.02 -228.33,-78.02 z m 856.27,0 v 190.28 c 50.74,0 84.67,7.93 101.8,23.79 17.12,15.86 26.32,53.59 27.59,113.22 l 34.25,1006.58 h 591.77 V 2705.52 H 9456.49 V 3847.2 h -182.67 l -22.83,-804.89 c -3.81,-121.77 -29.17,-208.67 -76.11,-260.68 -46.93,-52.01 -123.05,-78.02 -228.34,-78.02 h -32.34" /><path
         id="path20"
         style="fill:#474747;fill-opacity:1;fill-rule:nonzero;stroke:none"
         d="m 3047.5,2117.66 h 81.32 v -72.71 c 0,-44.31 -10.95,-78.32 -32.84,-102.04 -21.9,-23.72 -53.69,-35.58 -95.39,-35.58 -41.71,0 -73.5,11.86 -95.4,35.58 -21.89,23.72 -32.84,57.73 -32.84,102.04 v 284.61 c 0,44.31 10.95,78.32 32.84,102.04 21.9,23.72 53.69,35.58 95.4,35.58 41.7,0 73.49,-11.86 95.39,-35.58 21.89,-23.72 32.84,-57.73 32.84,-102.04 v -53.17 h -81.32 v 58.65 c 0,35.96 -14.86,53.94 -44.57,53.94 -29.72,0 -44.57,-17.98 -44.57,-53.94 v -295.57 c 0,-35.45 14.85,-53.17 44.57,-53.17 29.71,0 44.57,17.72 44.57,53.17 z m 240.32,265.07 v -469.14 h -86.01 v 547.33 h 271.32 v -547.33 h -87.58 v 469.14 z m 347.43,-47.69 v -295.57 c 0,-35.97 14.86,-53.95 44.57,-53.95 29.72,0 44.57,17.98 44.57,53.95 v 295.57 c 0,35.96 -14.85,53.94 -44.57,53.94 -29.71,0 -44.57,-17.98 -44.57,-53.94 z m -86.01,-290.09 v 284.61 c 0,43.79 11.21,77.67 33.63,101.65 22.41,23.98 54.73,35.97 96.95,35.97 42.23,0 74.54,-11.99 96.96,-35.97 22.42,-23.98 33.62,-57.86 33.62,-101.65 v -284.61 c 0,-43.79 -11.2,-77.67 -33.62,-101.65 -22.42,-23.98 -54.73,-35.97 -96.96,-35.97 -42.22,0 -74.54,11.99 -96.95,35.97 -22.42,23.98 -33.63,57.86 -33.63,101.65 z m 463.95,415.97 c 85.49,0 128.23,-45.09 128.23,-135.27 v -71.15 c 0,-90.18 -42.74,-135.27 -128.23,-135.27 h -40.66 v -205.64 h -86.01 v 547.33 z m 0,-78.19 h -40.66 v -185.31 h 40.66 c 14.07,0 24.63,3.91 31.66,11.73 7.04,7.81 10.56,21.11 10.56,39.87 v 82.11 c 0,18.76 -3.52,32.05 -10.56,39.87 -7.03,7.82 -17.59,11.73 -31.66,11.73 z m 163.69,0 v 78.19 h 265.85 v -78.19 h -89.92 v -469.14 h -86.01 v 469.14 z m 484.27,-218.15 -71.94,-250.99 h -88.35 v 547.33 h 76.63 v -346.38 l 31.28,120.41 70.36,225.97 h 94.62 v -547.33 h -77.41 v 385.48 z m 323.98,296.34 c 44.31,0 76.63,-10.29 96.96,-30.88 20.33,-20.59 30.5,-52.26 30.5,-95 v -19.55 c 0,-56.3 -18.51,-93.05 -55.52,-110.26 42.75,-16.68 64.12,-55.77 64.12,-117.28 v -44.57 c 0,-42.22 -11.08,-74.41 -33.24,-96.56 -22.15,-22.16 -54.6,-33.23 -97.34,-33.23 h -135.27 v 547.33 z m -5.47,-301.03 h -38.31 v -168.11 h 49.26 c 15.12,0 26.32,4.04 33.62,12.12 7.3,8.08 10.95,22.02 10.95,41.83 v 47.69 c 0,25.03 -4.3,42.36 -12.91,52 -8.6,9.65 -22.8,14.47 -42.61,14.47 z m 3.13,222.84 h -41.44 v -144.65 h 33.62 c 17.2,0 30.1,4.43 38.7,13.29 8.6,8.86 12.91,23.72 12.91,44.57 v 30.49 c 0,37.53 -14.6,56.3 -43.79,56.3 z m 296.61,-234.57 v -234.57 h -86.01 v 547.33 h 86.01 v -234.57 h 97.74 v 234.57 h 87.57 v -547.33 h -87.57 v 234.57 z m 347.44,186.88 v -295.57 c 0,-35.97 14.86,-53.95 44.57,-53.95 29.71,0 44.57,17.98 44.57,53.95 v 295.57 c 0,35.96 -14.86,53.94 -44.57,53.94 -29.71,0 -44.57,-17.98 -44.57,-53.94 z m -86.01,-290.09 v 284.61 c 0,43.79 11.21,77.67 33.62,101.65 22.42,23.98 54.74,35.97 96.96,35.97 42.23,0 74.54,-11.99 96.96,-35.97 22.41,-23.98 33.62,-57.86 33.62,-101.65 v -284.61 c 0,-43.79 -11.21,-77.67 -33.62,-101.65 -22.42,-23.98 -54.73,-35.97 -96.96,-35.97 -42.22,0 -74.54,11.99 -96.96,35.97 -22.41,23.98 -33.62,57.86 -33.62,101.65 z m 425.63,-131.36 71.94,250.99 35.19,134.49 v -385.48 h 77.4 v 547.33 h -94.61 l -70.37,-225.97 -31.28,-120.41 v 346.38 h -76.62 v -547.33 z m 88.36,669.31 h 52.39 c 0,-27.11 -7.82,-48.35 -23.46,-63.73 -15.64,-15.37 -38.32,-23.06 -68.03,-23.06 -29.19,0 -51.21,7.55 -66.07,22.67 -14.86,15.12 -22.8,36.49 -23.85,64.12 h 53.17 c 1.05,-14.08 4.43,-23.59 10.17,-28.54 5.73,-4.95 14.59,-7.43 26.58,-7.43 12.51,0 21.89,2.61 28.15,7.82 6.26,5.21 9.9,14.6 10.95,28.15 z m 268.97,-473.06 h 81.32 v -70.37 c 0,-35.45 14.85,-53.17 44.57,-53.17 29.71,0 44.57,17.72 44.57,53.17 v 118.07 h -78.98 v 78.19 h 78.98 v 99.31 c 0,35.96 -14.86,53.94 -44.57,53.94 -29.72,0 -44.57,-17.98 -44.57,-53.94 v -51.61 h -79.75 v 46.13 c 0,44.31 10.68,78.32 32.05,102.04 21.38,23.72 52.91,35.58 94.61,35.58 41.7,0 73.5,-11.86 95.39,-35.58 21.9,-23.72 32.84,-57.73 32.84,-102.04 v -284.61 c 0,-44.31 -10.94,-78.32 -32.84,-102.04 -21.89,-23.72 -53.69,-35.58 -95.39,-35.58 -41.7,0 -73.49,11.86 -95.39,35.58 -21.89,23.72 -32.84,57.73 -32.84,102.04 z m 529.62,-196.25 -83.66,218.15 -26.59,-50.04 v -168.11 h -86 v 547.33 h 86 v -238.48 l 112.6,238.48 h 86.01 l -119.63,-243.96 119.63,-303.37 z m 308.35,250.99 -71.94,-250.99 h -88.36 v 547.33 h 76.63 v -346.38 l 31.28,120.41 70.37,225.97 h 94.61 v -547.33 h -77.41 v 385.48 z m 280.19,218.15 v -469.14 h -86 v 547.33 h 271.31 v -547.33 h -87.57 v 469.14 z m 428.76,-218.15 -71.94,-250.99 h -88.35 v 547.33 h 76.63 v -346.38 l 31.27,120.41 70.37,225.97 h 94.61 v -547.33 h -77.41 v 385.48 z m 320.86,296.34 c 85.48,0 128.22,-45.09 128.22,-135.27 v -71.15 c 0,-90.18 -42.74,-135.27 -128.22,-135.27 h -40.66 v -205.64 h -86.01 v 547.33 z m 0,-78.19 h -40.66 v -185.31 h 40.66 c 14.07,0 24.63,3.91 31.66,11.73 7.04,7.81 10.56,21.11 10.56,39.87 v 82.11 c 0,18.76 -3.52,32.05 -10.56,39.87 -7.03,7.82 -17.59,11.73 -31.66,11.73 z m 267.68,-47.69 v -295.57 c 0,-35.97 14.86,-53.95 44.57,-53.95 29.71,0 44.57,17.98 44.57,53.95 v 295.57 c 0,35.96 -14.86,53.94 -44.57,53.94 -29.71,0 -44.57,-17.98 -44.57,-53.94 z m -86.01,-290.09 v 284.61 c 0,43.79 11.21,77.67 33.62,101.65 22.42,23.98 54.73,35.97 96.96,35.97 42.22,0 74.54,-11.99 96.95,-35.97 22.42,-23.98 33.63,-57.86 33.63,-101.65 v -284.61 c 0,-43.79 -11.21,-77.67 -33.63,-101.65 -22.41,-23.98 -54.73,-35.97 -96.95,-35.97 -42.23,0 -74.54,11.99 -96.96,35.97 -22.41,23.98 -33.62,57.86 -33.62,101.65 z m 467.07,415.97 c 44.31,0 76.62,-10.29 96.96,-30.88 20.32,-20.59 30.49,-52.26 30.49,-95 v -19.55 c 0,-56.3 -18.51,-93.05 -55.52,-110.26 42.75,-16.68 64.12,-55.77 64.12,-117.28 v -44.57 c 0,-42.22 -11.08,-74.41 -33.23,-96.56 -22.15,-22.16 -54.6,-33.23 -97.35,-33.23 h -135.26 v 547.33 z m -5.47,-301.03 h -38.32 v -168.11 h 49.26 c 15.12,0 26.33,4.04 33.62,12.12 7.3,8.08 10.95,22.02 10.95,41.83 v 47.69 c 0,25.03 -4.3,42.36 -12.9,52 -8.6,9.65 -22.81,14.47 -42.61,14.47 z m 3.12,222.84 h -41.44 v -144.65 h 33.62 c 17.21,0 30.11,4.43 38.71,13.29 8.6,8.86 12.9,23.72 12.9,44.57 v 30.49 c 0,37.53 -14.59,56.3 -43.79,56.3 z m 406.87,-469.14 -83.67,218.15 -26.58,-50.04 v -168.11 h -86.01 v 547.33 h 86.01 v -238.48 l 112.6,238.48 h 86 l -119.63,-243.96 119.63,-303.37 z m 308.34,250.99 -71.93,-250.99 h -88.36 v 547.33 h 76.63 v -346.38 l 31.28,120.41 70.36,225.97 h 94.62 v -547.33 h -77.41 v 385.48 l -35.19,-134.49" /><path
         id="path22"
         style="fill:#ffffff;fill-opacity:1;fill-rule:nonzero;stroke:none"
         d="m 4754.07,5428.25 h 60.23 v -53.86 c 0,-32.82 -8.11,-58.01 -24.33,-75.58 -16.22,-17.57 -39.77,-26.35 -70.65,-26.35 -30.89,0 -54.44,8.78 -70.66,26.35 -16.21,17.57 -24.32,42.76 -24.32,75.58 v 210.81 c 0,32.81 8.11,58 24.32,75.57 16.22,17.57 39.77,26.36 70.66,26.36 30.88,0 54.43,-8.79 70.65,-26.36 16.22,-17.57 24.33,-42.76 24.33,-75.57 v -39.39 h -60.23 v 43.44 c 0,26.64 -11.01,39.96 -33.02,39.96 -22.01,0 -33.01,-13.32 -33.01,-39.96 v -218.92 c 0,-26.25 11,-39.38 33.01,-39.38 22.01,0 33.02,13.13 33.02,39.38 z m 259.65,-151.16 -61.96,161.58 -19.7,-37.06 v -124.52 h -63.7 v 405.4 h 63.7 v -176.64 l 83.4,176.64 h 63.71 l -88.61,-180.69 88.61,-224.71 z m 168.16,312.16 v -218.92 c 0,-26.64 11,-39.96 33.01,-39.96 22,0 33.01,13.32 33.01,39.96 v 218.92 c 0,26.64 -11.01,39.96 -33.01,39.96 -22.01,0 -33.01,-13.32 -33.01,-39.96 z m -63.7,-214.86 v 210.81 c 0,32.43 8.3,57.52 24.9,75.28 16.6,17.76 40.53,26.65 71.81,26.65 31.27,0 55.21,-8.89 71.81,-26.65 16.6,-17.76 24.91,-42.85 24.91,-75.28 v -210.81 c 0,-32.43 -8.31,-57.53 -24.91,-75.29 -16.6,-17.76 -40.54,-26.64 -71.81,-26.64 -31.28,0 -55.21,8.88 -71.81,26.64 -16.6,17.76 -24.9,42.86 -24.9,75.29 z m 343.62,308.1 c 63.33,0 94.99,-33.4 94.99,-100.19 v -52.7 c 0,-66.8 -31.66,-100.19 -94.99,-100.19 h -30.11 v -152.32 h -63.71 v 405.4 z m 0,-57.92 h -30.11 v -137.25 h 30.11 c 10.43,0 18.25,2.89 23.46,8.69 5.21,5.79 7.82,15.63 7.82,29.54 v 60.8 c 0,13.9 -2.61,23.75 -7.82,29.54 -5.21,5.79 -13.03,8.68 -23.46,8.68 z m 198.28,-35.32 v -218.92 c 0,-26.64 11,-39.96 33.01,-39.96 22,0 33.01,13.32 33.01,39.96 v 218.92 c 0,26.64 -11.01,39.96 -33.01,39.96 -22.01,0 -33.01,-13.32 -33.01,-39.96 z m -63.71,-214.86 v 210.81 c 0,32.43 8.3,57.52 24.9,75.28 16.61,17.76 40.54,26.65 71.82,26.65 31.27,0 55.21,-8.89 71.81,-26.65 16.6,-17.76 24.9,-42.85 24.9,-75.28 v -210.81 c 0,-32.43 -8.3,-57.53 -24.9,-75.29 -16.6,-17.76 -40.54,-26.64 -71.81,-26.64 -31.28,0 -55.21,8.88 -71.82,26.64 -16.6,17.76 -24.9,42.86 -24.9,75.29 z m 382.81,214.86 v -218.92 c 0,-26.64 11,-39.96 33.01,-39.96 22.01,0 33.01,13.32 33.01,39.96 v 218.92 c 0,26.64 -11,39.96 -33.01,39.96 -22.01,0 -33.01,-13.32 -33.01,-39.96 z m -63.7,-214.86 v 210.81 c 0,32.43 8.3,57.52 24.9,75.28 16.6,17.76 40.54,26.65 71.81,26.65 31.27,0 55.22,-8.89 71.81,-26.65 16.61,-17.76 24.91,-42.85 24.91,-75.28 v -210.81 c 0,-32.43 -8.3,-57.53 -24.91,-75.29 -16.59,-17.76 -40.54,-26.64 -71.81,-26.64 -31.27,0 -55.21,8.88 -71.81,26.64 -16.6,17.76 -24.9,42.86 -24.9,75.29 z m 231.27,250.18 v 57.92 h 196.92 v -57.92 h -66.61 v -347.48 h -63.7 v 347.48 z m 385.34,-347.48 -61.97,161.58 -19.69,-37.06 v -124.52 h -63.71 v 405.4 h 63.71 v -176.64 l 83.39,176.64 h 63.71 l -88.61,-180.69 88.61,-224.71 z m 203.48,405.4 c 63.32,0 94.98,-33.4 94.98,-100.19 v -52.7 c 0,-66.8 -31.66,-100.19 -94.98,-100.19 h -30.12 v -152.32 h -63.7 v 405.4 z m 0,-57.92 h -30.12 v -137.25 h 30.12 c 10.43,0 18.24,2.89 23.46,8.69 5.21,5.79 7.81,15.63 7.81,29.54 v 60.8 c 0,13.9 -2.6,23.75 -7.81,29.54 -5.22,5.79 -13.03,8.68 -23.46,8.68 z m 233.6,-347.48 h -93.82 v 405.4 h 63.7 v -152.31 h 30.12 c 63.31,0 94.97,-33.4 94.97,-100.2 v -52.7 c 0,-66.79 -31.66,-100.19 -94.97,-100.19 z m -30.12,57.91 h 30.12 c 10.42,0 18.24,2.9 23.45,8.69 5.22,5.79 7.82,15.64 7.82,29.54 v 60.81 c 0,13.9 -2.6,23.74 -7.82,29.53 -5.21,5.8 -13.03,8.69 -23.45,8.69 h -30.12 z m 225.29,-57.91 h -63.71 v 405.4 h 63.71 z m 43.06,347.48 v 57.92 h 196.91 v -57.92 h -66.6 V 5277.09 H 7274 v 347.48 z M 7566.09,5463 7512.81,5277.09 h -65.44 v 405.4 h 56.76 v -256.56 l 23.16,89.19 52.12,167.37 h 70.07 v -405.4 h -57.33 v 285.52 z m 207.54,161.57 v -112.93 h 87.45 v -57.91 h -87.45 V 5335 h 110.03 v -57.91 h -173.74 v 405.4 h 173.74 v -57.92 h -110.03" /><path
         id="path24"
         style="fill:#474747;fill-opacity:1;fill-rule:nonzero;stroke:none"
         d="m 4118.61,5074.39 11.73,-71.96 10.86,71.96 h 22.15 v -101.35 h -15.06 v 72.68 l -11,-72.68 h -15.06 l -11.87,71.67 v -71.67 h -13.9 v 101.35 z m 76.06,-14.48 v -28.23 h 21.87 v -14.48 h -21.87 v -29.68 h 27.51 v -14.48 h -43.43 v 101.35 h 43.43 v -14.48 z m 57.24,-86.87 h -15.93 v 101.35 h 41.99 v -14.48 h -26.06 z m 75.92,101.35 16.21,-101.35 h -16.06 l -2.76,18.39 h -19.54 l -2.75,-18.39 h -14.63 l 16.22,101.35 z m -12.45,-17.95 -7.68,-51.25 h 15.35 z m 39.14,-39.96 v 14.48 h 28.96 v -14.48 z m 73.32,3.04 -13.32,-46.48 h -16.37 v 101.35 h 14.19 v -64.14 l 5.79,22.3 13.03,41.84 h 17.52 v -101.35 h -14.33 v 71.38 z m 51.87,-3.04 v -43.44 h -15.92 v 101.35 h 15.92 v -43.43 h 18.1 v 43.43 h 16.22 v -101.35 h -16.22 v 43.44 z m 45.08,43.43 v 14.48 h 49.22 v -14.48 h -16.64 v -86.87 h -15.93 v 86.87 z m 75.91,0 v -28.23 h 21.87 v -14.48 h -21.87 v -29.68 h 27.51 v -14.48 h -43.43 v 101.35 h 43.43 v -14.48 z m 64.63,14.48 c 15.83,0 23.74,-8.35 23.74,-25.05 v -13.17 c 0,-16.7 -7.91,-25.05 -23.74,-25.05 h -7.53 v -38.08 h -15.92 v 101.35 z m 0,-14.48 h -7.53 v -34.31 h 7.53 c 2.61,0 4.56,0.72 5.87,2.17 1.3,1.45 1.95,3.91 1.95,7.39 v 15.2 c 0,3.47 -0.65,5.93 -1.95,7.38 -1.31,1.45 -3.26,2.17 -5.87,2.17 z m 50.87,-43.43 v -43.44 h -15.93 v 101.35 h 15.93 v -43.43 h 18.1 v 43.43 h 16.21 v -101.35 h -16.21 v 43.44 z m 65.64,43.43 v -28.23 h 21.86 v -14.48 h -21.86 v -29.68 h 27.51 v -14.48 h -43.44 v 101.35 h 43.44 v -14.48 z m 36.54,0 v 14.48 h 49.22 v -14.48 h -16.65 v -86.87 h -15.93 v 86.87 z m 59.26,-43.43 v 14.48 h 28.96 v -14.48 z m 65.64,57.91 11.73,-71.96 10.85,71.96 h 22.16 v -101.35 h -15.06 v 72.68 l -11.01,-72.68 h -15.05 l -11.87,71.67 v -71.67 h -13.9 v 101.35 z m 95.46,0 16.22,-101.35 h -16.07 l -2.75,18.39 h -19.55 l -2.75,-18.39 h -14.63 l 16.22,101.35 z m -12.45,-17.95 -7.67,-51.25 h 15.34 z m 55.94,-83.4 h -15.93 v 101.35 h 41.99 v -14.48 h -26.06 z m 75.91,101.35 16.22,-101.35 h -16.07 l -2.75,18.39 h -19.55 l -2.75,-18.39 h -14.62 l 16.22,101.35 z m -12.44,-17.95 -7.68,-51.25 h 15.35 z m 70.55,-12.6 v 5.65 c 0,4.34 -0.7,7.36 -2.1,9.05 -1.4,1.69 -3.45,2.53 -6.15,2.53 -5.6,0 -8.4,-3.33 -8.4,-9.99 v -8.25 h -14.62 v 7.53 c 0,8.2 1.98,14.45 5.93,18.75 3.96,4.29 9.8,6.44 17.52,6.44 7.73,0 13.61,-2.19 17.66,-6.59 4.06,-4.39 6.09,-10.69 6.09,-18.89 v -2.61 c 0,-10.81 -3.72,-17.76 -11.15,-20.85 7.43,-3.28 11.15,-10.37 11.15,-21.28 v -7.96 c 0,-8.21 -2.03,-14.5 -6.09,-18.9 -4.05,-4.39 -9.93,-6.59 -17.66,-6.59 -7.72,0 -13.61,2.2 -17.66,6.59 -4.05,4.4 -6.08,10.69 -6.08,18.9 v 11.15 h 15.06 v -12.17 c 0,-6.65 2.75,-9.99 8.25,-9.99 2.7,0 4.75,0.85 6.15,2.54 1.4,1.69 2.1,4.65 2.1,8.9 v 7.96 c 0,4.64 -0.82,7.94 -2.46,9.92 -1.64,1.98 -4.29,2.97 -7.96,2.97 h -3.91 v 14.48 h 4.78 c 3.18,0 5.57,0.82 7.16,2.46 1.59,1.64 2.39,4.39 2.39,8.25 z m 60.14,-24.32 -13.32,-46.48 h -16.36 v 101.35 h 14.18 v -64.14 l 5.8,22.3 13.02,41.84 h 17.53 v -101.35 h -14.34 v 71.38 z m 51.88,-3.04 v -43.44 h -15.93 v 101.35 h 15.93 v -43.43 h 18.1 v 43.43 h 16.21 v -101.35 h -16.21 v 43.44 z m 85.04,57.91 16.21,-101.35 h -16.07 l -2.75,18.39 h -19.55 l -2.74,-18.39 h -14.63 l 16.22,101.35 z m -12.45,-17.95 -7.68,-51.25 h 15.35 z m 89.61,-45.61 h 15.06 v -13.46 c 0,-8.21 -2.03,-14.5 -6.08,-18.9 -4.05,-4.39 -9.94,-6.59 -17.66,-6.59 -7.72,0 -13.61,2.2 -17.66,6.59 -4.06,4.4 -6.09,10.69 -6.09,18.9 v 52.7 c 0,8.2 2.03,14.5 6.09,18.89 4.05,4.4 9.94,6.59 17.66,6.59 7.72,0 13.61,-2.19 17.66,-6.59 4.05,-4.39 6.08,-10.69 6.08,-18.89 v -9.85 h -15.06 v 10.86 c 0,6.66 -2.74,9.99 -8.25,9.99 -5.5,0 -8.25,-3.33 -8.25,-9.99 v -54.73 c 0,-6.56 2.75,-9.84 8.25,-9.84 5.51,0 8.25,3.28 8.25,9.84 z m 44.5,49.08 v -86.87 h -15.92 v 101.35 h 50.24 v -101.35 h -16.22 v 86.87 z m 64.34,-8.83 v -54.73 c 0,-6.65 2.75,-9.99 8.25,-9.99 5.5,0 8.25,3.34 8.25,9.99 v 54.73 c 0,6.66 -2.75,9.99 -8.25,9.99 -5.5,0 -8.25,-3.33 -8.25,-9.99 z m -15.93,-53.71 v 52.7 c 0,8.11 2.07,14.38 6.23,18.82 4.15,4.44 10.13,6.66 17.95,6.66 7.82,0 13.8,-2.22 17.95,-6.66 4.15,-4.44 6.23,-10.71 6.23,-18.82 v -52.7 c 0,-8.11 -2.08,-14.39 -6.23,-18.82 -4.15,-4.44 -10.13,-6.67 -17.95,-6.67 -7.82,0 -13.8,2.23 -17.95,6.67 -4.16,4.43 -6.23,10.71 -6.23,18.82 z m 85.91,77.02 c 15.83,0 23.74,-8.35 23.74,-25.05 v -13.17 c 0,-16.7 -7.91,-25.05 -23.74,-25.05 h -7.53 v -38.08 h -15.93 v 101.35 z m 0,-14.48 h -7.53 v -34.31 h 7.53 c 2.6,0 4.56,0.72 5.86,2.17 1.31,1.45 1.96,3.91 1.96,7.39 v 15.2 c 0,3.47 -0.65,5.93 -1.96,7.38 -1.3,1.45 -3.26,2.17 -5.86,2.17 z m 30.31,0 v 14.48 h 49.22 v -14.48 h -16.64 v -86.87 h -15.93 v 86.87 z m 89.67,-40.39 -13.32,-46.48 h -16.36 v 101.35 h 14.19 v -64.14 l 5.79,22.3 13.03,41.84 h 17.52 v -101.35 h -14.34 v 71.38 z m 59.99,54.87 c 8.2,0 14.19,-1.91 17.95,-5.72 3.77,-3.81 5.65,-9.67 5.65,-17.59 v -3.62 c 0,-10.42 -3.43,-17.23 -10.28,-20.41 7.91,-3.09 11.87,-10.33 11.87,-21.72 v -8.25 c 0,-7.82 -2.05,-13.78 -6.15,-17.88 -4.1,-4.1 -10.12,-6.16 -18.03,-6.16 h -25.05 v 101.35 z m -1.02,-55.74 h -7.09 v -31.13 h 9.12 c 2.8,0 4.87,0.75 6.23,2.25 1.35,1.49 2.02,4.07 2.02,7.74 v 8.83 c 0,4.64 -0.79,7.85 -2.38,9.63 -1.6,1.79 -4.23,2.68 -7.9,2.68 z m 0.58,41.26 h -7.67 v -26.78 h 6.23 c 3.18,0 5.57,0.82 7.16,2.46 1.6,1.64 2.39,4.39 2.39,8.25 v 5.65 c 0,6.95 -2.7,10.42 -8.11,10.42 z m 54.93,-43.43 v -43.44 h -15.93 v 101.35 h 15.93 v -43.43 h 18.09 v 43.43 h 16.22 v -101.35 h -16.22 v 43.44 z m 73.16,-43.44 h -23.45 v 101.35 h 15.92 v -38.08 h 7.53 c 15.83,0 23.75,-8.35 23.75,-25.04 v -13.18 c 0,-16.7 -7.92,-25.05 -23.75,-25.05 z m -7.53,14.48 h 7.53 c 2.61,0 4.56,0.73 5.87,2.18 1.3,1.44 1.95,3.9 1.95,7.38 v 15.2 c 0,3.47 -0.65,5.94 -1.95,7.38 -1.31,1.45 -3.26,2.18 -5.87,2.18 h -7.53 z m 56.32,-14.48 h -15.92 v 101.35 h 15.92 z m 53.77,101.35 h 14.77 l -16.65,-49.23 17.8,-52.12 h -16.79 l -13.03,40.11 -13.18,-40.11 h -14.91 l 17.81,52.12 -16.65,49.23 h 16.5 l 12.02,-37.35 z m 41.7,-14.48 v 14.48 h 49.22 v -14.48 h -16.64 v -86.87 h -15.93 v 86.87 z m 74.61,-8.83 v -54.73 c 0,-6.65 2.75,-9.99 8.26,-9.99 5.5,0 8.25,3.34 8.25,9.99 v 54.73 c 0,6.66 -2.75,9.99 -8.25,9.99 -5.51,0 -8.26,-3.33 -8.26,-9.99 z m -15.92,-53.71 v 52.7 c 0,8.11 2.07,14.38 6.22,18.82 4.15,4.44 10.13,6.66 17.96,6.66 7.81,0 13.8,-2.22 17.94,-6.66 4.16,-4.44 6.23,-10.71 6.23,-18.82 v -52.7 c 0,-8.11 -2.07,-14.39 -6.23,-18.82 -4.14,-4.44 -10.13,-6.67 -17.94,-6.67 -7.83,0 -13.81,2.23 -17.96,6.67 -4.15,4.43 -6.22,10.71 -6.22,18.82 z m 86.48,77.02 c 8.21,0 14.19,-1.91 17.95,-5.72 3.77,-3.81 5.65,-9.67 5.65,-17.59 v -3.62 c 0,-10.42 -3.42,-17.23 -10.28,-20.41 7.92,-3.09 11.88,-10.33 11.88,-21.72 v -8.25 c 0,-7.82 -2.06,-13.78 -6.16,-17.88 -4.1,-4.1 -10.11,-6.16 -18.02,-6.16 h -25.05 v 101.35 z m -1.01,-55.74 h -7.1 v -31.13 h 9.13 c 2.8,0 4.87,0.75 6.22,2.25 1.35,1.49 2.03,4.07 2.03,7.74 v 8.83 c 0,4.64 -0.8,7.85 -2.39,9.63 -1.59,1.79 -4.22,2.68 -7.89,2.68 z m 0.58,41.26 h -7.68 v -26.78 h 6.23 c 3.18,0 5.58,0.82 7.17,2.46 1.59,1.64 2.39,4.39 2.39,8.25 v 5.65 c 0,6.95 -2.71,10.42 -8.11,10.42 z m 74.32,14.48 16.22,-101.35 h -16.07 l -2.75,18.39 h -19.55 l -2.75,-18.39 h -14.62 l 16.21,101.35 z m -12.45,-17.95 -7.67,-51.25 h 15.34 z m 63.32,17.95 c 15.83,0 23.74,-8.35 23.74,-25.05 v -13.17 c 0,-16.7 -7.91,-25.05 -23.74,-25.05 h -7.53 v -38.08 h -15.92 v 101.35 z m 0,-14.48 h -7.53 v -34.31 h 7.53 c 2.61,0 4.56,0.72 5.86,2.17 1.31,1.45 1.96,3.91 1.96,7.39 v 15.2 c 0,3.47 -0.65,5.93 -1.96,7.38 -1.3,1.45 -3.25,2.17 -5.86,2.17 z m 49.57,-8.83 v -54.73 c 0,-6.65 2.75,-9.99 8.25,-9.99 5.5,0 8.25,3.34 8.25,9.99 v 54.73 c 0,6.66 -2.75,9.99 -8.25,9.99 -5.5,0 -8.25,-3.33 -8.25,-9.99 z m -15.93,-53.71 v 52.7 c 0,8.11 2.08,14.38 6.23,18.82 4.15,4.44 10.13,6.66 17.95,6.66 7.82,0 13.8,-2.22 17.95,-6.66 4.15,-4.44 6.23,-10.71 6.23,-18.82 v -52.7 c 0,-8.11 -2.08,-14.39 -6.23,-18.82 -4.15,-4.44 -10.13,-6.67 -17.95,-6.67 -7.82,0 -13.8,2.23 -17.95,6.67 -4.15,4.43 -6.23,10.71 -6.23,18.82 z m 86.49,77.02 c 8.2,0 14.18,-1.91 17.95,-5.72 3.77,-3.81 5.64,-9.67 5.64,-17.59 v -3.62 c 0,-10.42 -3.42,-17.23 -10.27,-20.41 7.91,-3.09 11.87,-10.33 11.87,-21.72 v -8.25 c 0,-7.82 -2.05,-13.78 -6.15,-17.88 -4.11,-4.1 -10.12,-6.16 -18.03,-6.16 h -25.05 v 101.35 z m -1.02,-55.74 h -7.09 v -31.13 h 9.12 c 2.8,0 4.87,0.75 6.22,2.25 1.36,1.49 2.03,4.07 2.03,7.74 v 8.83 c 0,4.64 -0.79,7.85 -2.38,9.63 -1.6,1.79 -4.23,2.68 -7.9,2.68 z m 0.58,41.26 h -7.67 v -26.78 h 6.22 c 3.19,0 5.58,0.82 7.17,2.46 1.6,1.64 2.39,4.39 2.39,8.25 v 5.65 c 0,6.95 -2.7,10.42 -8.11,10.42 z m 87.31,-40.39 -13.32,-46.48 h -16.36 v 101.35 h 14.19 v -64.14 l 5.79,22.3 13.03,41.84 h 17.52 v -101.35 h -14.34 v 71.38 z m 52.55,-10.14 h 15.06 v -13.03 c 0,-6.56 2.75,-9.84 8.25,-9.84 5.5,0 8.25,3.28 8.25,9.84 v 21.87 h -14.62 v 14.48 h 14.62 v 18.38 c 0,6.66 -2.75,9.99 -8.25,9.99 -5.5,0 -8.25,-3.33 -8.25,-9.99 v -9.55 h -14.77 v 8.54 c 0,8.2 1.98,14.5 5.94,18.89 3.96,4.4 9.8,6.59 17.51,6.59 7.73,0 13.62,-2.19 17.67,-6.59 4.05,-4.39 6.08,-10.69 6.08,-18.89 v -52.7 c 0,-8.21 -2.03,-14.5 -6.08,-18.9 -4.05,-4.39 -9.94,-6.59 -17.67,-6.59 -7.71,0 -13.6,2.2 -17.66,6.59 -4.05,4.4 -6.08,10.69 -6.08,18.9 z m 98.07,-36.34 -15.49,40.4 -4.93,-9.27 v -31.13 h -15.92 v 101.35 h 15.92 v -44.16 l 20.85,44.16 h 15.93 l -22.15,-45.17 22.15,-56.18 z m 57.1,46.48 -13.32,-46.48 h -16.37 v 101.35 h 14.19 v -64.14 l 5.8,22.3 13.02,41.84 h 17.52 v -101.35 h -14.33 v 71.38 z m 51.88,40.39 v -86.87 h -15.93 v 101.35 h 50.24 v -101.35 h -16.22 v 86.87 z m 79.39,-40.39 -13.32,-46.48 h -16.36 v 101.35 h 14.18 v -64.14 l 5.8,22.3 13.02,41.84 h 17.53 v -101.35 h -14.34 v 71.38 z m 59.4,54.87 c 15.83,0 23.75,-8.35 23.75,-25.05 v -13.17 c 0,-16.7 -7.92,-25.05 -23.75,-25.05 h -7.53 v -38.08 h -15.92 v 101.35 z m 0,-14.48 h -7.53 v -34.31 h 7.53 c 2.61,0 4.56,0.72 5.87,2.17 1.3,1.45 1.95,3.91 1.95,7.39 v 15.2 c 0,3.47 -0.65,5.93 -1.95,7.38 -1.31,1.45 -3.26,2.17 -5.87,2.17 z m 49.57,-8.83 v -54.73 c 0,-6.65 2.75,-9.99 8.26,-9.99 5.5,0 8.25,3.34 8.25,9.99 v 54.73 c 0,6.66 -2.75,9.99 -8.25,9.99 -5.51,0 -8.26,-3.33 -8.26,-9.99 z m -15.92,-53.71 v 52.7 c 0,8.11 2.07,14.38 6.22,18.82 4.15,4.44 10.14,6.66 17.96,6.66 7.81,0 13.8,-2.22 17.95,-6.66 4.15,-4.44 6.23,-10.71 6.23,-18.82 v -52.7 c 0,-8.11 -2.08,-14.39 -6.23,-18.82 -4.15,-4.44 -10.14,-6.67 -17.95,-6.67 -7.82,0 -13.81,2.23 -17.96,6.67 -4.15,4.43 -6.22,10.71 -6.22,18.82 z m 86.49,77.02 c 8.2,0 14.18,-1.91 17.94,-5.72 3.77,-3.81 5.65,-9.67 5.65,-17.59 v -3.62 c 0,-10.42 -3.43,-17.23 -10.28,-20.41 7.92,-3.09 11.88,-10.33 11.88,-21.72 v -8.25 c 0,-7.82 -2.06,-13.78 -6.16,-17.88 -4.1,-4.1 -10.11,-6.16 -18.02,-6.16 h -25.05 v 101.35 z m -1.02,-55.74 h -7.1 v -31.13 h 9.13 c 2.8,0 4.87,0.75 6.22,2.25 1.35,1.49 2.03,4.07 2.03,7.74 v 8.83 c 0,4.64 -0.8,7.85 -2.39,9.63 -1.59,1.79 -4.22,2.68 -7.89,2.68 z m 0.58,41.26 h -7.68 v -26.78 h 6.23 c 3.19,0 5.57,0.82 7.17,2.46 1.59,1.64 2.39,4.39 2.39,8.25 v 5.65 c 0,6.95 -2.71,10.42 -8.11,10.42 z m 75.34,-86.87 -15.49,40.4 -4.93,-9.27 v -31.13 h -15.92 v 101.35 h 15.92 v -44.16 l 20.85,44.16 h 15.93 l -22.16,-45.17 22.16,-56.18 z m 57.09,46.48 -13.32,-46.48 h -16.36 v 101.35 h 14.19 v -64.14 l 5.79,22.3 13.03,41.84 h 17.52 v -101.35 h -14.33 v 71.38 z m 116.4,-60.09 h -15.78 v 13.61 h -34.02 v -13.61 h -15.49 v 27.8 h 6.22 c 2.32,2.9 3.62,7.29 3.91,13.18 l 3.62,73.98 h 44.59 v -87.16 h 6.95 z m -36.63,100.48 -2.89,-59.21 c -0.39,-6.47 -1.88,-10.96 -4.49,-13.47 h 20.85 v 72.68 z m 44.79,-87.01 v 14.48 c 3.86,0 6.45,0.6 7.75,1.81 1.3,1.2 2,4.08 2.1,8.61 l 2.6,76.59 h 45.03 v -101.35 h -16.21 v 86.87 h -13.9 l -1.74,-61.24 c -0.29,-9.26 -2.22,-15.88 -5.79,-19.83 -3.57,-3.96 -9.36,-5.94 -17.38,-5.94 z m 86.78,0.14 h -16.22 c 1.16,2.71 1.74,6.81 1.74,12.31 v 15.64 c 0,11.39 3.52,18.58 10.57,21.57 -6.95,3.28 -10.42,10.14 -10.42,20.56 v 7.96 c 0,7.92 1.87,13.78 5.64,17.59 3.77,3.81 9.75,5.72 17.95,5.72 h 24.04 v -101.35 h -15.93 v 41.27 h -5.5 c -3.67,0 -6.32,-0.99 -7.96,-2.97 -1.64,-1.98 -2.46,-5.29 -2.46,-9.92 v -15.92 c 0,-5.41 -0.48,-9.56 -1.45,-12.46 z m 17.37,86.87 h -7.67 c -5.41,0 -8.11,-3.47 -8.11,-10.42 v -9.99 c 0,-3.86 0.8,-6.61 2.39,-8.25 1.59,-1.64 3.98,-2.46 7.17,-2.46 h 6.22 z m 65.88,0 v -86.87 h -15.92 v 101.35 h 50.23 v -101.35 h -16.21 v 86.87 z m 73.16,14.48 c 15.83,0 23.75,-8.35 23.75,-25.05 v -13.17 c 0,-16.7 -7.92,-25.05 -23.75,-25.05 h -7.53 v -38.08 h -15.92 v 101.35 z m 0,-14.48 h -7.53 v -34.31 h 7.53 c 2.61,0 4.56,0.72 5.86,2.17 1.31,1.45 1.96,3.91 1.96,7.39 v 15.2 c 0,3.47 -0.65,5.93 -1.96,7.38 -1.3,1.45 -3.25,2.17 -5.86,2.17 z m 49.57,-8.83 v -54.73 c 0,-6.65 2.75,-9.99 8.25,-9.99 5.51,0 8.26,3.34 8.26,9.99 v 54.73 c 0,6.66 -2.75,9.99 -8.26,9.99 -5.5,0 -8.25,-3.33 -8.25,-9.99 z m -15.93,-53.71 v 52.7 c 0,8.11 2.08,14.38 6.23,18.82 4.15,4.44 10.14,6.66 17.95,6.66 7.82,0 13.8,-2.22 17.95,-6.66 4.16,-4.44 6.23,-10.71 6.23,-18.82 v -52.7 c 0,-8.11 -2.07,-14.39 -6.23,-18.82 -4.15,-4.44 -10.13,-6.67 -17.95,-6.67 -7.81,0 -13.8,2.23 -17.95,6.67 -4.15,4.43 -6.23,10.71 -6.23,18.82 z m 90.83,-24.33 v 11.44 h -5.93 c -15.83,0 -23.75,8.35 -23.75,25.05 v 27.65 c 0,16.7 7.92,25.05 23.75,25.05 h 5.93 v 12.16 h 15.64 v -12.16 h 5.93 c 15.84,0 23.75,-8.35 23.75,-25.05 v -27.65 c 0,-16.7 -7.91,-25.05 -23.75,-25.05 h -5.93 v -11.44 z m 21.57,75.14 h -5.93 v -49.8 h 5.93 c 5.31,0 7.97,3.38 7.97,10.14 v 29.68 c 0,6.66 -2.66,9.98 -7.97,9.98 z m -21.57,-49.8 v 49.8 h -5.93 c -5.31,0 -7.96,-3.32 -7.96,-9.98 v -29.68 c 0,-6.76 2.65,-10.14 7.96,-10.14 z m 75.77,61.53 v -28.23 h 21.87 v -14.48 h -21.87 v -29.68 h 27.52 v -14.48 h -43.44 v 101.35 h 43.44 v -14.48 z m 72.3,-49.08 h 15.06 v -13.46 c 0,-8.21 -2.03,-14.5 -6.08,-18.9 -4.05,-4.39 -9.94,-6.59 -17.66,-6.59 -7.73,0 -13.61,2.2 -17.67,6.59 -4.05,4.4 -6.08,10.69 -6.08,18.9 v 52.7 c 0,8.2 2.03,14.5 6.08,18.89 4.06,4.4 9.94,6.59 17.67,6.59 7.72,0 13.61,-2.19 17.66,-6.59 4.05,-4.39 6.08,-10.69 6.08,-18.89 v -9.85 h -15.06 v 10.86 c 0,6.66 -2.75,9.99 -8.25,9.99 -5.5,0 -8.25,-3.33 -8.25,-9.99 v -54.73 c 0,-6.56 2.75,-9.84 8.25,-9.84 5.5,0 8.25,3.28 8.25,9.84 z m 59.7,0 h 15.06 v -13.46 c 0,-8.21 -2.03,-14.5 -6.08,-18.9 -4.05,-4.39 -9.94,-6.59 -17.66,-6.59 -7.73,0 -13.61,2.2 -17.67,6.59 -4.05,4.4 -6.08,10.69 -6.08,18.9 v 52.7 c 0,8.2 2.03,14.5 6.08,18.89 4.06,4.4 9.94,6.59 17.67,6.59 7.72,0 13.61,-2.19 17.66,-6.59 4.05,-4.39 6.08,-10.69 6.08,-18.89 v -9.85 h -15.06 v 10.86 c 0,6.66 -2.75,9.99 -8.25,9.99 -5.5,0 -8.25,-3.33 -8.25,-9.99 v -54.73 c 0,-6.56 2.75,-9.84 8.25,-9.84 5.5,0 8.25,3.28 8.25,9.84 z m 58.26,8.69 -13.32,-46.48 h -16.37 v 101.35 h 14.19 v -64.14 l 5.79,22.3 13.04,41.84 h 17.51 v -101.35 h -14.33 v 71.38 z m 50.58,31.56 v -54.73 c 0,-6.65 2.75,-9.99 8.25,-9.99 5.5,0 8.25,3.34 8.25,9.99 v 54.73 c 0,6.66 -2.75,9.99 -8.25,9.99 -5.5,0 -8.25,-3.33 -8.25,-9.99 z m -15.93,-53.71 v 52.7 c 0,8.11 2.07,14.38 6.23,18.82 4.14,4.44 10.13,6.66 17.95,6.66 7.82,0 13.8,-2.22 17.95,-6.66 4.15,-4.44 6.23,-10.71 6.23,-18.82 v -52.7 c 0,-8.11 -2.08,-14.39 -6.23,-18.82 -4.15,-4.44 -10.13,-6.67 -17.95,-6.67 -7.82,0 -13.81,2.23 -17.95,6.67 -4.16,4.43 -6.23,10.71 -6.23,18.82 z m 78.37,19.11 v -43.44 h -15.92 v 101.35 h 15.92 v -43.43 h 18.1 v 43.43 h 16.22 v -101.35 h -16.22 v 43.44 z m 85.04,57.91 16.21,-101.35 h -16.07 l -2.75,18.39 h -19.54 l -2.75,-18.39 h -14.62 l 16.21,101.35 z m -12.45,-17.95 -7.68,-51.25 h 15.35 z m 35.38,-83.54 v 14.48 c 3.86,0 6.44,0.6 7.74,1.81 1.31,1.2 2.01,4.08 2.1,8.61 l 2.61,76.59 h 45.03 v -101.35 h -16.22 v 86.87 h -13.9 l -1.74,-61.24 c -0.28,-9.26 -2.21,-15.88 -5.79,-19.83 -3.57,-3.96 -9.36,-5.94 -17.37,-5.94 z m 88.08,78.18 v -54.73 c 0,-6.65 2.75,-9.99 8.25,-9.99 5.5,0 8.25,3.34 8.25,9.99 v 54.73 c 0,6.66 -2.75,9.99 -8.25,9.99 -5.5,0 -8.25,-3.33 -8.25,-9.99 z m -15.93,-53.71 v 52.7 c 0,8.11 2.07,14.38 6.22,18.82 4.16,4.44 10.14,6.66 17.96,6.66 7.82,0 13.8,-2.22 17.95,-6.66 4.15,-4.44 6.23,-10.71 6.23,-18.82 v -52.7 c 0,-8.11 -2.08,-14.39 -6.23,-18.82 -4.15,-4.44 -10.13,-6.67 -17.95,-6.67 -7.82,0 -13.8,2.23 -17.96,6.67 -4.15,4.43 -6.22,10.71 -6.22,18.82 z m 86.49,77.02 c 8.2,0 14.18,-1.91 17.95,-5.72 3.76,-3.81 5.64,-9.67 5.64,-17.59 v -3.62 c 0,-10.42 -3.42,-17.23 -10.27,-20.41 7.91,-3.09 11.87,-10.33 11.87,-21.72 v -8.25 c 0,-7.82 -2.05,-13.78 -6.15,-17.88 -4.11,-4.1 -10.12,-6.16 -18.03,-6.16 h -25.05 v 101.35 z m -1.02,-55.74 h -7.09 v -31.13 h 9.12 c 2.8,0 4.87,0.75 6.22,2.25 1.36,1.49 2.03,4.07 2.03,7.74 v 8.83 c 0,4.64 -0.8,7.85 -2.38,9.63 -1.6,1.79 -4.23,2.68 -7.9,2.68 z m 0.58,41.26 h -7.67 v -26.78 h 6.22 c 3.19,0 5.58,0.82 7.17,2.46 1.6,1.64 2.39,4.39 2.39,8.25 v 5.65 c 0,6.95 -2.71,10.42 -8.11,10.42 z M 5313.39,4673.76 h -28.05 v 24.19 h -60.49 v -24.19 h -27.54 v 49.42 h 11.07 c 4.12,5.14 6.43,12.95 6.95,23.42 l 6.43,131.53 h 79.28 v -154.95 h 12.35 z m -65.12,178.63 -5.14,-105.28 c -0.69,-11.49 -3.35,-19.47 -7.98,-23.93 h 37.06 v 129.21 z m 79.63,-154.69 v 25.73 c 6.87,0 11.46,1.08 13.77,3.22 2.31,2.15 3.56,7.25 3.73,15.31 l 4.64,136.17 h 80.05 v -180.18 h -28.83 v 154.44 h -24.71 l -3.09,-108.88 c -0.51,-16.47 -3.95,-28.22 -10.3,-35.26 -6.35,-7.04 -16.64,-10.55 -30.88,-10.55 z m 154.27,0.25 h -28.83 c 2.06,4.81 3.09,12.1 3.09,21.88 v 27.8 c 0,20.25 6.26,33.03 18.79,38.35 -12.35,5.84 -18.53,18.02 -18.53,36.55 v 14.16 c 0,14.07 3.35,24.49 10.04,31.27 6.69,6.78 17.33,10.17 31.91,10.17 h 42.73 v -180.18 h -28.32 v 73.36 h -9.77 c -6.53,0 -11.24,-1.76 -14.16,-5.28 -2.92,-3.51 -4.38,-9.39 -4.38,-17.63 v -28.31 c 0,-9.61 -0.86,-16.99 -2.57,-22.14 z m 30.88,154.44 h -13.64 c -9.61,0 -14.41,-6.18 -14.41,-18.53 v -17.76 c 0,-6.87 1.41,-11.76 4.25,-14.67 2.83,-2.92 7.07,-4.38 12.74,-4.38 h 11.06 z m 131.53,25.74 c 14.59,0 25.23,-3.39 31.92,-10.17 6.7,-6.78 10.04,-17.2 10.04,-31.27 v -6.44 c 0,-18.53 -6.09,-30.62 -18.28,-36.29 14.08,-5.49 21.11,-18.36 21.11,-38.61 v -14.67 c 0,-13.9 -3.64,-24.5 -10.94,-31.79 -7.29,-7.29 -17.97,-10.94 -32.04,-10.94 h -44.53 v 180.18 z m -1.8,-99.1 h -12.61 v -55.34 h 16.22 c 4.97,0 8.66,1.33 11.07,3.99 2.4,2.66 3.6,7.25 3.6,13.77 v 15.7 c 0,8.24 -1.42,13.94 -4.25,17.12 -2.83,3.18 -7.51,4.76 -14.03,4.76 z m 1.03,73.36 h -13.64 v -47.62 h 11.07 c 5.66,0 9.91,1.46 12.74,4.38 2.83,2.92 4.25,7.8 4.25,14.67 v 10.04 c 0,12.35 -4.81,18.53 -14.42,18.53 z m 124.67,-87.26 h 26.77 v -23.93 c 0,-14.59 -3.61,-25.79 -10.81,-33.59 -7.21,-7.81 -17.67,-11.72 -31.4,-11.72 -13.73,0 -24.2,3.91 -31.4,11.72 -7.21,7.8 -10.82,19 -10.82,33.59 v 93.69 c 0,14.58 3.61,25.78 10.82,33.59 7.2,7.81 17.67,11.71 31.4,11.71 13.73,0 24.19,-3.9 31.4,-11.71 7.2,-7.81 10.81,-19.01 10.81,-33.59 v -17.51 h -26.77 v 19.31 c 0,11.84 -4.89,17.76 -14.67,17.76 -9.78,0 -14.67,-5.92 -14.67,-17.76 v -97.3 c 0,-11.66 4.89,-17.5 14.67,-17.5 9.78,0 14.67,5.84 14.67,17.5 z m 79.11,87.26 v -50.19 h 38.87 v -25.74 h -38.87 v -52.77 h 48.91 v -25.74 h -77.22 v 180.18 h 77.22 v -25.74 z m 141.4,25.74 h 26.26 l -29.61,-87.52 31.66,-92.66 h -29.85 l -23.17,71.3 -23.42,-71.3 h -26.51 l 31.66,92.66 -29.6,87.52 h 29.34 l 21.36,-66.41 z m 125.09,0 c 14.59,0 25.23,-3.39 31.92,-10.17 6.69,-6.78 10.04,-17.2 10.04,-31.27 v -6.44 c 0,-18.53 -6.09,-30.62 -18.28,-36.29 14.08,-5.49 21.11,-18.36 21.11,-38.61 v -14.67 c 0,-13.9 -3.64,-24.5 -10.94,-31.79 -7.29,-7.29 -17.97,-10.94 -32.04,-10.94 h -44.53 v 180.18 z m -1.8,-99.1 h -12.61 v -55.34 h 16.22 c 4.97,0 8.66,1.33 11.06,3.99 2.41,2.66 3.61,7.25 3.61,13.77 v 15.7 c 0,8.24 -1.42,13.94 -4.25,17.12 -2.83,3.18 -7.51,4.76 -14.03,4.76 z m 1.03,73.36 h -13.64 v -47.62 h 11.07 c 5.66,0 9.91,1.46 12.74,4.38 2.83,2.92 4.25,7.8 4.25,14.67 v 10.04 c 0,12.35 -4.81,18.53 -14.42,18.53 z m 122.1,-71.81 -23.68,-82.63 h -29.09 v 180.18 h 25.23 V 4764.1 l 10.29,39.64 23.17,74.39 h 31.14 v -180.18 h -25.48 v 126.9 z m 173.83,-106.82 h -28.06 v 24.19 h -60.48 v -24.19 h -27.54 v 49.42 h 11.06 c 4.12,5.14 6.44,12.95 6.95,23.42 l 6.44,131.53 h 79.27 v -154.95 h 12.36 z m -65.12,178.63 -5.15,-105.28 c -0.68,-11.49 -3.34,-19.47 -7.98,-23.93 h 37.07 v 129.21 z m 113.6,-15.7 v -97.3 c 0,-11.84 4.89,-17.76 14.67,-17.76 9.78,0 14.67,5.92 14.67,17.76 v 97.3 c 0,11.84 -4.89,17.76 -14.67,17.76 -9.78,0 -14.67,-5.92 -14.67,-17.76 z m -28.31,-95.49 v 93.69 c 0,14.41 3.68,25.56 11.06,33.46 7.38,7.89 18.02,11.84 31.92,11.84 13.9,0 24.54,-3.95 31.92,-11.84 7.38,-7.9 11.07,-19.05 11.07,-33.46 v -93.69 c 0,-14.42 -3.69,-25.57 -11.07,-33.47 -7.38,-7.89 -18.02,-11.84 -31.92,-11.84 -13.9,0 -24.54,3.95 -31.92,11.84 -7.38,7.9 -11.06,19.05 -11.06,33.47 z m 153.75,136.93 c 14.59,0 25.23,-3.39 31.92,-10.17 6.69,-6.78 10.04,-17.2 10.04,-31.27 v -6.44 c 0,-18.53 -6.1,-30.62 -18.28,-36.29 14.07,-5.49 21.11,-18.36 21.11,-38.61 v -14.67 c 0,-13.9 -3.65,-24.5 -10.94,-31.79 -7.3,-7.29 -17.97,-10.94 -32.05,-10.94 h -44.53 v 180.18 z m -1.8,-99.1 h -12.61 v -55.34 h 16.21 c 4.98,0 8.67,1.33 11.07,3.99 2.4,2.66 3.6,7.25 3.6,13.77 v 15.7 c 0,8.24 -1.41,13.94 -4.24,17.12 -2.84,3.18 -7.51,4.76 -14.03,4.76 z m 1.03,73.36 h -13.64 v -47.62 h 11.07 c 5.66,0 9.91,1.46 12.73,4.38 2.84,2.92 4.25,7.8 4.25,14.67 v 10.04 c 0,12.35 -4.8,18.53 -14.41,18.53 z m 157.78,-87.26 h 26.77 v -23.93 c 0,-14.59 -3.6,-25.79 -10.81,-33.59 -7.21,-7.81 -17.68,-11.72 -31.4,-11.72 -13.73,0 -24.2,3.91 -31.41,11.72 -7.2,7.8 -10.8,19 -10.8,33.59 v 93.69 c 0,14.58 3.6,25.78 10.8,33.59 7.21,7.81 17.68,11.71 31.41,11.71 13.72,0 24.19,-3.9 31.4,-11.71 7.21,-7.81 10.81,-19.01 10.81,-33.59 v -17.51 h -26.77 v 19.31 c 0,11.84 -4.89,17.76 -14.67,17.76 -9.79,0 -14.67,-5.92 -14.67,-17.76 v -97.3 c 0,-11.66 4.88,-17.5 14.67,-17.5 9.78,0 14.67,5.84 14.67,17.5 z m 79.11,87.26 v -154.44 h -28.31 v 180.18 h 89.32 v -180.18 h -28.83 v 154.44 z m 114.38,-15.7 v -97.3 c 0,-11.84 4.89,-17.76 14.67,-17.76 9.78,0 14.67,5.92 14.67,17.76 v 97.3 c 0,11.84 -4.89,17.76 -14.67,17.76 -9.78,0 -14.67,-5.92 -14.67,-17.76 z m -28.32,-95.49 v 93.69 c 0,14.41 3.69,25.56 11.07,33.46 7.38,7.89 18.02,11.84 31.92,11.84 13.9,0 24.54,-3.95 31.91,-11.84 7.38,-7.9 11.07,-19.05 11.07,-33.46 v -93.69 c 0,-14.42 -3.69,-25.57 -11.07,-33.47 -7.37,-7.89 -18.01,-11.84 -31.91,-11.84 -13.9,0 -24.54,3.95 -31.92,11.84 -7.38,7.9 -11.07,19.05 -11.07,33.47 z m 152.73,136.93 c 28.14,0 42.21,-14.84 42.21,-44.53 v -23.42 c 0,-29.69 -14.07,-44.54 -42.21,-44.54 h -13.39 v -67.69 h -28.31 v 180.18 z m 0,-25.74 h -13.39 v -61 h 13.39 c 4.63,0 8.11,1.29 10.42,3.86 2.31,2.57 3.47,6.95 3.47,13.13 v 27.02 c 0,6.18 -1.16,10.56 -3.47,13.13 -2.31,2.57 -5.79,3.86 -10.42,3.86 z m 53.88,0 v 25.74 h 87.51 v -25.74 h -29.59 v -154.44 h -28.32 v 154.44 z m 169.46,25.74 28.83,-180.18 h -28.57 l -4.89,32.69 h -34.75 l -4.89,-32.69 h -26 l 28.83,180.18 z m -22.14,-31.92 -13.64,-91.12 h 27.29 l -13.65,91.12" /></g></g></svg>