<?xml version="1.0" encoding="UTF-8" standalone="no"?>
<svg
   xmlns:dc="http://purl.org/dc/elements/1.1/"
   xmlns:cc="http://creativecommons.org/ns#"
   xmlns:rdf="http://www.w3.org/1999/02/22-rdf-syntax-ns#"
   xmlns:svg="http://www.w3.org/2000/svg"
   xmlns="http://www.w3.org/2000/svg"
   viewBox="0 0 121.33333 109.33333"
   height="109.33333"
   width="121.33333"
   xml:space="preserve"
   id="svg2"
   version="1.1"><metadata
     id="metadata8"><rdf:RDF><cc:Work
         rdf:about=""><dc:format>image/svg+xml</dc:format><dc:type
           rdf:resource="http://purl.org/dc/dcmitype/StillImage" /></cc:Work></rdf:RDF></metadata><defs
     id="defs6" /><g
     transform="matrix(1.3333333,0,0,-1.3333333,0,109.33333)"
     id="g10"><g
       transform="scale(0.1)"
       id="g12"><path
         id="path14"
         style="fill:#a82822;fill-opacity:1;fill-rule:nonzero;stroke:none"
         d="M 198.758,111.281 304.648,68.3672 H 590.625 L 699.477,111.281 H 198.758" /><path
         id="path16"
         style="fill:#212a36;fill-opacity:1;fill-rule:nonzero;stroke:none"
         d="M 448.965,733.176 C 262.551,730.672 113.488,674.07 113.488,604.598 113.488,38.9961 448.965,1.80469 448.965,1.80469 c 0,0 335.473,37.19141 335.473,602.79331 0,69.472 -149.051,126.074 -335.473,128.578" /><path
         id="path18"
         style="fill:#ffffff;fill-opacity:1;fill-rule:nonzero;stroke:none"
         d="m 449.063,43.9531 c -7.481,1.5508 -21.852,5.1563 -40.137,12.7696 -36.211,15.0703 -69.903,37.8828 -100.125,67.8123 -43.004,42.59 -77.43,98.406 -102.313,165.914 -31.883,86.477 -48.047,192.172 -48.047,314.149 0,8.41 14.649,29.906 70.086,51.09 57.657,22.035 135.918,34.816 220.438,36.007 84.523,-1.191 162.785,-13.972 220.441,-36.007 55.442,-21.184 70.086,-42.68 70.086,-51.09 0,-124.34 -16.789,-231.711 -49.902,-319.121 C 663.926,217.73 628.535,162.031 584.395,119.926 525.082,63.3555 466.805,47.6172 449.063,43.9531" /><path
         id="path20"
         style="fill:#212a36;fill-opacity:1;fill-rule:nonzero;stroke:none"
         d="m 449.066,68.3672 c -6.898,1.7305 -17.16,4.7891 -29.582,9.9531 -33.086,13.7695 -64,34.7497 -91.886,62.3677 -40.516,40.121 -73.082,93.074 -96.793,157.386 -30.715,83.332 -46.418,185.473 -46.672,303.61 2.648,3.64 14.465,16.918 54.226,32.113 54.633,20.875 129.411,33.019 210.606,34.203 81.199,-1.184 155.98,-13.328 210.613,-34.203 39.758,-15.195 51.578,-28.473 54.223,-32.113 C 713.543,481.25 697.242,377.508 665.34,293.297 640.914,228.809 607.465,176.023 565.926,136.402 516.758,89.5 469.023,73.375 449.066,68.3672" /><path
         id="path22"
         style="fill:#212a36;fill-opacity:1;fill-rule:nonzero;stroke:none"
         d="M 405.039,809.57 C 187.691,765.445 122.875,588.727 126.566,566.008 c 0.231,-1.438 0.508,-2.875 0.825,-4.301 4.964,-22.473 130.5,-162.723 348.761,-123.398 217.348,44.121 282.172,220.836 278.477,243.55 -0.234,1.442 -0.508,2.879 -0.82,4.305 -4.961,22.477 -130.504,162.715 -348.77,123.406" /><path
         id="path24"
         style="fill:#f04420;fill-opacity:1;fill-rule:nonzero;stroke:none"
         d="m 472.172,459.078 c -106.606,-19.148 -186.777,7.695 -235.266,33.598 -56.101,29.965 -85.117,65.941 -89.043,74.414 -0.101,0.496 -0.195,0.988 -0.285,1.48 0.516,9.321 14.184,53.477 55.238,102.059 35.489,41.988 100.067,96.559 206.2,118.172 106.609,19.129 186.781,-7.696 235.273,-33.613 56.094,-29.958 85.109,-65.93 89.043,-74.407 0.106,-0.492 0.188,-0.988 0.273,-1.484 -0.503,-9.332 -14.179,-53.484 -55.23,-102.055 C 642.891,535.254 578.313,480.684 472.172,459.078" /><path
         id="path26"
         style="fill:#ffffff;fill-opacity:1;fill-rule:nonzero;stroke:none"
         d="m 712.824,693.504 c -6.922,1.086 -14.011,0.504 -20.969,1.391 -1.074,0.136 -2.195,0.554 -3.214,1.183 -9.805,-20.98 -24.664,-46.633 -46.286,-73.398 -40.402,-50.008 -114.14,-114.817 -235.992,-139.696 -55.238,-9.89 -104.355,-8.582 -146.8,-1.296 49.23,-21.625 121.191,-39.028 212.609,-22.61 106.141,21.606 170.719,76.176 206.203,118.164 41.051,48.571 54.727,92.723 55.23,102.055 -0.085,0.496 -0.167,0.992 -0.273,1.484 -0.676,1.465 -2.144,3.778 -4.328,6.719 -5.582,1.621 -10.352,5.082 -16.18,6.004" /><path
         id="path28"
         style="fill:#212a36;fill-opacity:1;fill-rule:nonzero;stroke:none"
         d="m 320.031,615.016 c -6.129,-1.172 -12.394,2.199 -14.66,8.242 l -21.074,56.164 c -2.531,6.754 0.887,14.277 7.641,16.808 6.746,2.528 14.277,-0.886 16.804,-7.636 l 21.074,-56.164 c 2.532,-6.75 -0.886,-14.278 -7.636,-16.809 -0.711,-0.266 -1.426,-0.465 -2.149,-0.605" /><path
         id="path30"
         style="fill:#212a36;fill-opacity:1;fill-rule:nonzero;stroke:none"
         d="m 377.414,633.809 c -6.594,-1.266 -13.16,2.711 -15.012,9.293 l -16.23,57.742 c -1.949,6.937 2.094,14.148 9.035,16.105 6.973,1.996 14.148,-2.105 16.102,-9.039 l 16.23,-57.746 c 1.953,-6.941 -2.098,-14.148 -9.039,-16.101 -0.359,-0.102 -0.727,-0.188 -1.086,-0.254" /><path
         id="path32"
         style="fill:#212a36;fill-opacity:1;fill-rule:nonzero;stroke:none"
         d="m 436.09,647.645 c -7.086,-1.356 -13.922,3.289 -15.277,10.367 l -11.29,58.914 c -1.355,7.086 3.286,13.918 10.364,15.281 7.086,1.367 13.922,-3.277 15.281,-10.359 l 11.285,-58.922 c 1.36,-7.086 -3.285,-13.922 -10.363,-15.281" /><path
         id="path34"
         style="fill:#212a36;fill-opacity:1;fill-rule:nonzero;stroke:none"
         d="m 495.723,656.469 c -0.36,-0.067 -0.731,-0.121 -1.11,-0.164 -7.168,-0.75 -13.593,4.453 -14.343,11.621 l -6.258,59.656 c -0.754,7.168 4.394,13.625 11.621,14.359 7.168,0.735 13.59,-4.457 14.344,-11.621 l 6.257,-59.668 c 0.715,-6.797 -3.921,-12.922 -10.511,-14.183" /><path
         id="path36"
         style="fill:#212a36;fill-opacity:1;fill-rule:nonzero;stroke:none"
         d="m 555.988,660.215 c -0.722,-0.137 -1.461,-0.215 -2.218,-0.235 -7.207,-0.14 -13.168,5.59 -13.309,12.801 l -1.176,59.977 c -0.144,7.207 5.602,13.18 12.797,13.305 7.207,0.148 13.164,-5.594 13.305,-12.801 l 1.179,-59.969 c 0.125,-6.453 -4.449,-11.902 -10.578,-13.078" /><path
         id="path38"
         style="fill:#ffffff;fill-opacity:1;fill-rule:nonzero;stroke:none"
         d="m 648.48,752.918 c 1.309,-0.863 46.7,-30.652 31.356,-74.273 l 51.266,-10.579 c 1.597,5.27 2.398,9.133 2.503,11.231 -0.085,0.496 -0.167,0.992 -0.273,1.484 -3.828,8.262 -31.512,42.641 -84.852,72.137" /><path
         id="path40"
         style="fill:#ffffff;fill-opacity:1;fill-rule:nonzero;stroke:none"
         d="m 147.918,571.191 14.547,21.442 c 78.672,148.637 214.027,188.535 250.258,196.777 -1.239,-0.211 -2.461,-0.398 -3.707,-0.609 C 302.883,767.188 238.305,712.617 202.816,670.629 164.77,625.609 150.254,584.41 147.918,571.191" /><path
         id="path42"
         style="fill:#212a36;fill-opacity:1;fill-rule:nonzero;stroke:none"
         d="m 736.066,666.473 c -1.765,-0.336 -3.617,-0.313 -5.468,0.125 -81.262,19.32 -161.973,25.613 -239.891,18.695 -62.316,-5.531 -123.043,-19.473 -180.469,-41.441 -97.98,-37.485 -153.144,-86.016 -153.687,-86.5 -5.383,-4.793 -13.633,-4.321 -18.426,1.058 -4.797,5.375 -4.336,13.617 1.039,18.418 2.34,2.094 58.516,51.699 160.574,90.957 59.774,22.996 122.965,37.621 187.832,43.445 80.977,7.274 164.778,0.821 249.063,-19.23 7.019,-1.668 11.351,-8.703 9.691,-15.723 -1.242,-5.156 -5.363,-8.863 -10.258,-9.804" /><path
         id="path44"
         style="fill:#212a36;fill-opacity:1;fill-rule:nonzero;stroke:none"
         d="m 850.336,417.945 2.906,18.168 13.477,1.637 15.027,94.023 L 360.051,467.137 173.879,445.641 42.5898,429.691 27.5703,335.668 39.2031,337.082 32.3672,294.285 20.7305,292.875 4.60156,191.898 100.5,203.547 l 781.375,94.887 20.094,125.785 -51.633,-6.274" /><path
         id="path46"
         style="fill:#ffffff;fill-opacity:1;fill-rule:nonzero;stroke:none"
         d="m 53.457,362.723 11.6328,1.414 -14.6328,-91.567 -11.6328,-1.41 -8.3437,-52.207 11.6328,1.41 27.1367,3.293 13.1602,1.602 8.3398,52.211 -13.1602,-1.602 2.2735,14.215 25.1487,3.059 7.312,45.781 -25.1443,-3.055 5.0469,31.567 24.7464,3.004 -3.004,-18.79 23.797,2.891 3,18.785 4.257,26.66 2.973,18.602 L 60.6836,407.98 53.457,362.723" /><path
         id="path48"
         style="fill:#ffffff;fill-opacity:1;fill-rule:nonzero;stroke:none"
         d="m 413.816,449.758 -35.671,-4.336 -4.567,-28.57 -2.664,-16.684 -4.566,-28.578 24.136,2.937 4.567,28.571 11.535,1.402 -15.559,-97.395 -14.523,-1.765 -7.231,-45.254 14.52,1.762 23.523,2.859 12.645,1.535 7.23,45.258 -12.644,-1.539 15.562,97.394 11.004,1.34 -4.566,-28.574 24.141,2.93 4.566,28.574 2.664,16.684 4.566,28.574 -35.144,-4.27 -23.524,-2.855" /><path
         id="path50"
         style="fill:#ffffff;fill-opacity:1;fill-rule:nonzero;stroke:none"
         d="m 752.797,351.047 -28.109,-3.414 15.773,98.691 13.469,1.637 7.234,45.254 -50.465,-6.133 -7.234,-45.254 13.473,1.637 -15.77,-98.688 -13.469,-1.636 -7.23,-45.254 13.469,1.633 23.519,2.859 51.633,6.269 2.836,17.836 4.394,27.418 5.067,31.754 -23.524,-2.855 -5.066,-31.754" /><path
         id="path52"
         style="fill:#ffffff;fill-opacity:1;fill-rule:nonzero;stroke:none"
         d="m 852.57,394.301 -5.07,-31.75 -28.105,-3.414 15.765,98.687 13.453,1.637 7.231,45.258 -50.449,-6.129 -7.231,-45.258 13.473,1.633 -15.766,-98.688 -13.473,-1.632 -7.23,-45.258 13.469,1.633 23.527,2.863 51.629,6.269 2.84,17.836 4.394,27.418 5.067,31.754 -23.524,-2.859" /><path
         id="path54"
         style="fill:#ffffff;fill-opacity:1;fill-rule:nonzero;stroke:none"
         d="m 181.227,276.133 c -14.801,-1.797 -23.059,20.14 -18.446,49.004 4.614,28.859 20.344,53.711 35.141,55.508 14.797,1.796 23.058,-20.141 18.445,-49.004 -4.609,-28.856 -20.344,-53.711 -35.14,-55.508 z m 23.89,148.273 C 174.844,420.727 143.582,375.684 135.293,323.793 127,271.906 144.816,232.82 175.09,236.5 c 30.277,3.676 61.535,48.719 69.828,100.609 8.289,51.891 -9.531,90.973 -39.801,87.297" /><path
         id="path56"
         style="fill:#ffffff;fill-opacity:1;fill-rule:nonzero;stroke:none"
         d="m 296.293,290.109 c -14.793,-1.796 -23.051,20.145 -18.441,49.004 4.613,28.86 20.343,53.711 35.14,55.512 14.801,1.797 23.055,-20.141 18.446,-49.004 -4.61,-28.859 -20.344,-53.711 -35.145,-55.512 z m 23.895,148.274 c -30.274,-3.676 -61.536,-48.723 -69.825,-100.61 -8.293,-51.89 9.528,-90.976 39.801,-87.296 30.27,3.675 61.535,48.722 69.828,100.609 8.289,51.891 -9.531,90.977 -39.804,87.297" /><path
         id="path58"
         style="fill:#ffffff;fill-opacity:1;fill-rule:nonzero;stroke:none"
         d="m 517.871,316.613 -22.422,-2.722 c -1.648,-0.203 -2.527,2.472 -1.969,5.964 l 4.055,25.387 c 0.559,3.492 2.344,6.488 3.992,6.692 l 22.141,2.687 c 4.656,0.567 7.574,-6.226 6.457,-16.012 -1.281,-11.238 -7.035,-21.363 -12.254,-21.996 z m -9.039,99.332 c 0.465,2.914 2.07,5.43 3.59,5.614 l 20.379,2.472 c 4.289,0.524 7.078,-5.105 6.187,-13.261 -1.027,-9.372 -6.191,-17.864 -11,-18.45 l -20.64,-2.507 c -1.516,-0.184 -2.368,2.031 -1.899,4.945 z m 43.856,-36.832 0.246,1.571 c 12.457,15.836 14.632,38.57 14.632,38.57 7.375,46.172 -20.257,46.719 -20.257,46.719 l -17.063,-2.075 -50.683,-6.156 -7.235,-45.254 9.664,1.172 -15.558,-97.379 0.015,-0.011 -9.679,-1.18 -7.235,-45.258 50.692,6.16 14.058,1.707 c 32.207,6.188 40.813,49.742 40.813,49.742 7.816,35.047 -2.41,51.672 -2.41,51.672" /><path
         id="path60"
         style="fill:#ffffff;fill-opacity:1;fill-rule:nonzero;stroke:none"
         d="m 633.234,386.875 -8.644,-1.047 c -2.621,-0.32 -3.172,6.281 -0.992,11.887 l 8.437,21.664 c 1.621,4.176 4.067,4.476 4.395,0.535 l 1.711,-20.437 c 0.441,-5.278 -2.282,-12.286 -4.907,-12.602 z m 25.5,92.629 -50.687,-6.152 -7.234,-45.262 9.902,1.207 -39.344,-100.289 -11.141,-1.352 -7.23,-45.258 50.688,6.157 7.23,45.258 -9.371,-1.137 2.531,6.859 c 0.735,1.977 1.914,3.344 3,3.477 l 30.598,3.718 c 1.105,0.133 1.894,-1.046 1.984,-2.972 l 0.309,-6.414 -8.817,-1.074 -7.23,-45.254 50.687,6.156 7.231,45.258 -11.988,-1.457 -11.118,138.531" /><path
         id="path62"
         style="fill:#5c6c84;fill-opacity:1;fill-rule:nonzero;stroke:none"
         d="m 30.4805,218.953 8.3437,52.207 -8.3437,-52.207 z m 5.8203,0.703 5.8125,0.707 27.1367,3.293 13.1602,1.602 8.3398,52.211 -8.3398,-52.211 -13.1602,-1.602 -27.1367,-3.293 z m 14.1562,52.914 6.1172,38.27 z m 27.1328,3.297 2.2735,14.215 25.1487,3.059 3.855,24.136 -3.855,-24.136 -25.1487,-3.059 -2.2735,-14.215" /><path
         id="path64"
         style="fill:#babcc2;fill-opacity:1;fill-rule:nonzero;stroke:none"
         d="m 30.4805,218.953 8.3437,52.207 11.6328,1.41 6.1172,38.27 52.2928,6.437 -3.855,-24.136 -25.1487,-3.059 -2.2735,-14.215 13.1602,1.602 -8.3398,-52.211 -13.1602,-1.602 -27.1367,-3.293 -5.8125,-0.707 -5.8203,-0.703" /><path
         id="path66"
         style="fill:#5c6c84;fill-opacity:1;fill-rule:nonzero;stroke:none"
         d="m 369.273,260.086 7.231,45.254 14.523,1.765 7.317,45.813 -7.317,-45.813 -14.523,-1.765 -7.231,-45.254" /><path
         id="path68"
         style="fill:#babcc2;fill-opacity:1;fill-rule:nonzero;stroke:none"
         d="m 369.273,260.086 v 0 l 7.231,45.254 14.523,1.765 7.317,45.813 23.527,2.895 -7.324,-45.852 12.644,1.539 -7.23,-45.258 -12.645,-1.535 -23.523,-2.859 -14.52,-1.762" /><path
         id="path70"
         style="fill:#babcc2;fill-opacity:1;fill-rule:nonzero;stroke:none"
         d="m 680.469,297.887 7.23,45.254 13.469,1.636 2.695,16.883 4.707,29.449 23.52,2.895 -7.402,-46.371 28.109,3.414 5.066,31.754 23.524,2.855 -5.067,-31.754 -4.394,-27.418 -2.836,-17.836 -51.633,-6.269 -23.519,-2.859 -13.469,-1.633" /><path
         id="path72"
         style="fill:#5c6c84;fill-opacity:1;fill-rule:nonzero;stroke:none"
         d="m 812.164,313.883 v 0 l 51.629,6.269 1.41,8.918 -1.41,-8.918 z m -16.293,42.394 7.422,46.493 z m 23.524,2.86 7.421,46.531 v 0 z m 0,0 28.105,3.414 5.07,31.75 23.524,2.859 -23.524,-2.859 -5.07,-31.75 -28.105,-3.414" /><path
         id="path74"
         style="fill:#babcc2;fill-opacity:1;fill-rule:nonzero;stroke:none"
         d="m 775.168,309.387 7.23,45.258 13.473,1.632 7.422,46.493 23.523,2.898 -7.421,-46.531 28.105,3.414 5.07,31.75 23.524,2.859 -5.067,-31.754 -4.394,-27.418 -1.43,-8.918 -1.41,-8.918 -51.629,-6.269 -23.527,-2.86 -13.469,-1.636" /><path
         id="path76"
         style="fill:#5c6c84;fill-opacity:1;fill-rule:nonzero;stroke:none"
         d="m 171.918,236.27 c 1.043,0.019 2.098,0.097 3.172,0.23 0.031,0.004 0.058,0.004 0.09,0.008 -0.028,-0.004 -0.059,-0.004 -0.09,-0.008 -1.074,-0.133 -2.129,-0.211 -3.172,-0.23 z m 3.301,0.242 c 0.015,0.004 0.031,0.008 0.047,0.008 -0.016,0 -0.032,-0.004 -0.047,-0.008 z m 0.097,0.015 c 0.016,0 0.028,0 0.036,0.004 -0.008,-0.004 -0.02,-0.004 -0.036,-0.004 z m 0.086,0.012 c 0.012,0 0.028,0 0.039,0.004 -0.015,-0.004 -0.023,-0.004 -0.039,-0.004 z m 0.106,0.012 c 0.004,0 0.012,0 0.019,0.004 -0.007,-0.004 -0.015,-0.004 -0.019,-0.004 z m 0.086,0.012 c 0.008,0 0.011,0.003 0.023,0.003 -0.008,0 -0.015,-0.003 -0.023,-0.003 z m 0.082,0.011 c 0.012,0.004 0.019,0.004 0.027,0.004 -0.012,0 -0.015,0 -0.027,-0.004 z m 0.082,0.012 c 0.012,0 0.027,0.004 0.035,0.004 -0.012,0 -0.02,0 -0.035,-0.004 z m 0.09,0.016 c 0.011,0 0.023,0 0.031,0 -0.008,0 -0.02,0 -0.031,0 z m 0.086,0.007 c 0.011,0.004 0.023,0.004 0.035,0.008 -0.012,-0.004 -0.024,-0.008 -0.035,-0.008 z m 0.086,0.016 c 0.015,0 0.019,0 0.035,0.004 -0.016,-0.004 -0.02,-0.004 -0.035,-0.004 z m 0.089,0.012 c 0.016,0.004 0.02,0.004 0.032,0.004 -0.008,0 -0.02,0 -0.032,-0.004 z m 0.086,0.015 c 0.016,0 0.024,0 0.035,0.004 -0.011,-0.004 -0.019,-0.004 -0.035,-0.004 z m 0.09,0.012 c 0.012,0.004 0.02,0.004 0.035,0.008 -0.011,-0.004 -0.023,-0.004 -0.035,-0.008 z m 0.09,0.016 c 0.012,0.004 0.02,0.004 0.027,0.004 -0.007,0 -0.015,0 -0.027,-0.004 z m 0.09,0.015 c 0.008,0 0.019,0 0.027,0.004 -0.008,-0.004 -0.019,-0.004 -0.027,-0.004 z m 0.098,0.012 c 0,0 0.007,0.004 0.011,0.004 -0.008,0 -0.011,0 -0.011,-0.004 z m 0.082,0.016 c 0.007,0 0.011,0 0.019,0 -0.008,0 -0.012,0 -0.019,0 z m 0.089,0.015 c 0.004,0 0.008,0 0.016,0 -0.008,0 -0.012,0 -0.016,0 z m 0.082,0.016 c 0.008,0 0.016,0.004 0.024,0.004 -0.008,0 -0.016,-0.004 -0.024,-0.004 z m 0.098,0.016 c 0.004,0 0.004,0 0.004,0 0,0 0,0 -0.004,0 z m 0.082,0.015 c 0.008,0 0.008,0.004 0.012,0.004 -0.004,0 -0.004,-0.004 -0.012,-0.004 z m 0.094,0.016 c 0.004,0 0.004,0 0.004,0 z m 0.082,0.015 c 0.008,0 0.008,0 0.008,0 0,0 0,0 -0.008,0 z m 0.094,0.016 v 0 z m 0.086,0.02 c 0.003,0 0.003,0 0.003,0 z m 0.089,0.015 z m 0.082,0.016 h 0.004 z m 2.028,39.148 c -13.535,0 -20.977,20.715 -16.961,47.86 l 0.008,0.004 c -4.016,-27.145 3.422,-47.864 16.953,-47.864 0.547,0 1.105,0.035 1.676,0.102 14.593,1.773 30.101,25.992 34.941,54.355 h 0.008 c -4.84,-28.363 -20.352,-52.582 -34.949,-54.355 -0.571,-0.07 -1.129,-0.102 -1.676,-0.102" /><path
         id="path78"
         style="fill:#babcc2;fill-opacity:1;fill-rule:nonzero;stroke:none"
         d="m 171.199,236.262 c -27.254,0 -43.097,36.234 -36.394,84.211 l 27.785,3.418 c -4.016,-27.145 3.426,-47.86 16.961,-47.86 0.547,0 1.105,0.032 1.676,0.102 14.597,1.773 30.109,25.992 34.949,54.355 l 28.191,3.473 c -8.777,-49.168 -37.961,-91.484 -66.84,-97.078 h -0.004 c -0.023,-0.004 -0.054,-0.012 -0.082,-0.016 v 0 c -0.031,-0.008 -0.058,-0.012 -0.086,-0.015 0,0 0,0 -0.003,0 -0.032,-0.008 -0.055,-0.016 -0.086,-0.02 v 0 c -0.032,-0.004 -0.055,-0.012 -0.086,-0.016 0,0 0,0 -0.008,0 -0.024,-0.003 -0.055,-0.007 -0.078,-0.015 0,0 0,0 -0.004,0 -0.027,-0.004 -0.055,-0.012 -0.082,-0.012 -0.004,0 -0.004,-0.004 -0.012,-0.004 -0.023,-0.004 -0.051,-0.008 -0.078,-0.015 0,0 0,0 -0.004,0 -0.027,-0.004 -0.051,-0.008 -0.074,-0.012 -0.008,0 -0.016,-0.004 -0.024,-0.004 -0.019,-0.008 -0.043,-0.008 -0.066,-0.016 -0.008,0 -0.012,0 -0.016,0 -0.023,-0.004 -0.046,-0.008 -0.07,-0.015 -0.008,0 -0.012,0 -0.019,0 -0.024,-0.004 -0.047,-0.008 -0.071,-0.012 -0.004,0 -0.011,-0.004 -0.011,-0.004 -0.028,-0.004 -0.047,-0.004 -0.071,-0.008 -0.008,-0.004 -0.019,-0.004 -0.027,-0.004 -0.02,-0.004 -0.039,-0.007 -0.063,-0.011 -0.007,0 -0.015,0 -0.027,-0.004 -0.02,-0.004 -0.039,-0.004 -0.055,-0.008 -0.015,-0.004 -0.023,-0.004 -0.035,-0.008 -0.019,-0.004 -0.035,-0.004 -0.055,-0.008 -0.011,-0.004 -0.019,-0.004 -0.035,-0.004 -0.015,-0.004 -0.031,-0.007 -0.054,-0.011 -0.012,0 -0.016,0 -0.032,-0.004 -0.019,-0.004 -0.035,-0.004 -0.054,-0.008 -0.016,-0.004 -0.02,-0.004 -0.035,-0.004 -0.016,-0.004 -0.036,-0.004 -0.051,-0.008 -0.012,-0.004 -0.024,-0.004 -0.035,-0.008 -0.02,0 -0.036,-0.004 -0.055,-0.007 -0.008,0 -0.02,0 -0.031,0 -0.016,-0.004 -0.035,-0.012 -0.055,-0.012 -0.008,0 -0.023,-0.004 -0.035,-0.004 -0.016,0 -0.035,-0.004 -0.055,-0.008 -0.008,0 -0.015,0 -0.027,-0.004 -0.02,-0.004 -0.039,-0.004 -0.059,-0.008 -0.012,0 -0.015,-0.003 -0.023,-0.003 -0.024,0 -0.047,-0.004 -0.067,-0.008 -0.007,-0.004 -0.015,-0.004 -0.019,-0.004 -0.02,-0.004 -0.047,-0.008 -0.067,-0.008 -0.011,-0.004 -0.027,-0.004 -0.039,-0.004 -0.019,0 -0.031,-0.004 -0.05,-0.008 -0.008,-0.004 -0.02,-0.004 -0.036,-0.004 -0.011,0 -0.031,-0.007 -0.05,-0.007 -0.016,0 -0.032,-0.004 -0.047,-0.008 -0.012,0 -0.028,0 -0.039,-0.004 -0.032,-0.004 -0.059,-0.004 -0.09,-0.008 -1.074,-0.133 -2.129,-0.211 -3.172,-0.23 -0.242,-0.008 -0.48,-0.008 -0.719,-0.008" /><path
         id="path80"
         style="fill:#5c6c84;fill-opacity:1;fill-rule:nonzero;stroke:none"
         d="m 287.406,250.258 c 0.86,0.031 1.735,0.097 2.617,0.199 -0.882,-0.102 -1.757,-0.168 -2.617,-0.199 z m 2.758,0.219 v 0 c 0.031,0.003 0.055,0.003 0.09,0.011 -0.035,-0.008 -0.059,-0.008 -0.09,-0.011 z m 0.137,0.015 c 0.012,0.004 0.023,0.004 0.039,0.008 -0.016,-0.004 -0.027,-0.004 -0.039,-0.008 z m 0.09,0.012 c 0.007,0 0.023,0.004 0.039,0.004 -0.016,0 -0.032,-0.004 -0.039,-0.004 z m 0.078,0.008 c 0.015,0.004 0.031,0.008 0.047,0.008 -0.016,0 -0.028,-0.004 -0.047,-0.008 z m 0.097,0.015 c 0.012,0 0.024,0 0.039,0.004 -0.015,-0.004 -0.027,-0.004 -0.039,-0.004 z m 0.082,0.012 c 0.016,0.004 0.028,0.004 0.043,0.004 -0.015,0 -0.027,0 -0.043,-0.004 z m 0.094,0.012 c 0.008,0 0.024,0.004 0.039,0.004 -0.015,0 -0.031,-0.004 -0.039,-0.004 z m 0.082,0.012 c 0.016,0 0.028,0.003 0.043,0.007 -0.012,-0.004 -0.027,-0.007 -0.043,-0.007 z m 0.086,0.011 c 0.016,0.004 0.031,0.008 0.043,0.008 -0.012,0 -0.027,-0.004 -0.043,-0.008 z m 0.09,0.016 c 0.012,0 0.027,0 0.043,0.004 -0.016,-0.004 -0.031,-0.004 -0.043,-0.004 z m 0.086,0.012 c 0.012,0.003 0.031,0.003 0.047,0.003 -0.02,0 -0.031,0 -0.047,-0.003 z m 0.09,0.011 c 0.015,0.004 0.027,0.008 0.039,0.008 -0.012,0 -0.024,-0.004 -0.039,-0.008 z m 0.094,0.016 c 0.007,0 0.023,0.004 0.031,0.004 -0.008,0 -0.02,-0.004 -0.031,-0.004 z m 0.089,0.016 c 0.008,0 0.02,0 0.032,0.003 -0.012,-0.003 -0.024,-0.003 -0.032,-0.003 z m 0.086,0.011 c 0.012,0.004 0.02,0.004 0.035,0.004 -0.011,0 -0.023,0 -0.035,-0.004 z m 0.09,0.012 c 0.012,0.004 0.02,0.008 0.031,0.008 -0.011,0 -0.019,-0.004 -0.031,-0.008 z m 0.09,0.016 c 0.012,0 0.02,0.004 0.027,0.007 -0.007,-0.003 -0.015,-0.007 -0.027,-0.007 z m 0.09,0.015 c 0.008,0 0.015,0.004 0.023,0.004 -0.008,0 -0.015,-0.004 -0.023,-0.004 z m 0.09,0.016 c 0.008,0 0.011,0 0.019,0.004 -0.004,-0.004 -0.011,-0.004 -0.019,-0.004 z m 0.086,0.015 c 0.004,0 0.015,0.004 0.023,0.004 -0.008,0 -0.016,0 -0.023,-0.004 z m 0.089,0.016 c 0.008,0 0.012,0 0.016,0 -0.004,0 -0.008,0 -0.016,0 z m 0.09,0.016 c 0.004,0 0.008,0.004 0.016,0.004 -0.004,0 -0.012,-0.004 -0.016,-0.004 z m 0.086,0.015 c 0.008,0.004 0.012,0.004 0.016,0.004 -0.004,0 -0.008,0 -0.016,-0.004 z m 0.09,0.016 c 0.004,0 0.008,0.004 0.016,0.004 -0.008,0 -0.012,-0.004 -0.016,-0.004 z m 0.09,0.016 c 0,0 0.008,0 0.008,0.004 0,-0.004 -0.008,-0.004 -0.008,-0.004 z m 0.086,0.019 c 0.004,0 0.004,0 0.012,0 -0.008,0 -0.008,0 -0.012,0 z m 0.09,0.016 c 0,0 0,0 0.008,0 -0.008,0 -0.008,0 -0.008,0 z m 0.086,0.015 c 0,0 0.007,0 0.011,0 -0.004,0 -0.011,0 -0.011,0 z m 0.09,0.02 c 0,0 0,0 0.007,0 -0.007,0 -0.007,0 -0.007,0 z m 0.085,0.016 c 0,0 0,0 0.004,0 -0.004,0 -0.004,0 -0.004,0 z m 0.09,0.019 v 0 z m 1.758,39.094 c -13.566,0 -21.016,20.816 -16.93,48.055 h 0.008 c -4.082,-27.239 3.36,-48.055 16.922,-48.055 0.262,0 0.52,0.008 0.789,0.023 -0.269,-0.015 -0.527,-0.023 -0.789,-0.023 z m 1.481,0.082 c 0.066,0.008 0.132,0.012 0.191,0.019 -0.059,-0.007 -0.125,-0.011 -0.191,-0.019 z m 0.281,0.031 c 0.004,0 0.008,0.004 0.008,0.004 0,0 -0.004,-0.004 -0.008,-0.004 z m 0.086,0.016 c 0.008,0 0.015,0 0.027,0 -0.012,0 -0.019,0 -0.027,0 z m 0.086,0.008 c 0.011,0 0.015,0 0.019,0.003 -0.004,-0.003 -0.011,-0.003 -0.019,-0.003 z m 0.086,0.011 c 0.011,0.004 0.023,0.004 0.031,0.004 -0.008,0 -0.02,0 -0.031,-0.004 z m 0.086,0.012 c 0.011,0.004 0.023,0.008 0.035,0.008 -0.012,0 -0.024,-0.004 -0.035,-0.008 z m 0.089,0.016 c 0.008,0 0.02,0.004 0.036,0.004 -0.016,0 -0.028,-0.004 -0.036,-0.004 z m 0.082,0.011 c 0.016,0.004 0.028,0.004 0.04,0.008 -0.012,-0.004 -0.024,-0.004 -0.04,-0.008 z m 0.09,0.016 c 0.008,0.004 0.024,0.008 0.035,0.008 -0.011,0 -0.027,-0.004 -0.035,-0.008 z m 0.086,0.016 c 0.012,0.003 0.024,0.003 0.035,0.003 -0.011,0 -0.023,0 -0.035,-0.003 z m 0.086,0.011 c 0.012,0.004 0.024,0.012 0.039,0.012 -0.015,0 -0.027,-0.008 -0.039,-0.012 z m 0.086,0.02 c 0.012,0 0.024,0.004 0.035,0.008 -0.011,-0.004 -0.023,-0.008 -0.035,-0.008 z m 0.086,0.015 c 0.016,0.004 0.027,0.008 0.043,0.008 -0.016,0 -0.027,-0.004 -0.043,-0.008 z m 0.09,0.02 c 0.012,0 0.023,0.004 0.039,0.008 -0.016,-0.004 -0.027,-0.008 -0.039,-0.008 z m 0.082,0.016 c 0.016,0.004 0.031,0.004 0.047,0.007 -0.016,-0.003 -0.031,-0.003 -0.047,-0.007 z m 0.086,0.019 c 0.015,0 0.031,0.004 0.043,0.008 -0.012,-0.004 -0.024,-0.008 -0.043,-0.008 z m 0.09,0.016 c 0.015,0.004 0.031,0.008 0.047,0.011 -0.02,-0.003 -0.032,-0.007 -0.047,-0.011 z m 0.086,0.019 c 0.011,0.004 0.031,0.008 0.043,0.008 -0.012,0 -0.032,-0.004 -0.043,-0.008 z m 0.086,0.02 c 0.015,0.004 0.027,0.008 0.043,0.012 -0.012,-0.004 -0.028,-0.008 -0.043,-0.012 z m 0.086,0.023 c 0.015,0 0.031,0.004 0.046,0.008 -0.015,-0.004 -0.031,-0.008 -0.046,-0.008 z m 0.082,0.02 c 0.019,0 0.035,0.008 0.05,0.008 -0.015,0 -0.031,-0.008 -0.05,-0.008 z m 0.089,0.019 c 0.016,0.004 0.036,0.008 0.051,0.012 -0.015,-0.004 -0.035,-0.008 -0.051,-0.012 z m 0.086,0.024 c 0.016,0 0.032,0.008 0.051,0.008 -0.016,0 -0.035,-0.008 -0.051,-0.008 z m 0.086,0.019 c 0.02,0.004 0.035,0.008 0.051,0.012 -0.016,-0.004 -0.031,-0.008 -0.051,-0.012 z m 0.086,0.02 c 0.02,0.008 0.035,0.012 0.055,0.015 -0.02,-0.003 -0.035,-0.007 -0.055,-0.015 z m 0.086,0.027 c 0.02,0.004 0.039,0.008 0.055,0.012 -0.016,-0.004 -0.035,-0.008 -0.055,-0.012 z m 0.086,0.024 c 0.02,0.004 0.039,0.007 0.059,0.015 -0.02,-0.008 -0.039,-0.011 -0.059,-0.015 z m 0.086,0.023 c 0.02,0.004 0.039,0.008 0.063,0.016 -0.024,-0.008 -0.043,-0.012 -0.063,-0.016 z m 0.086,0.023 c 0.019,0.004 0.043,0.012 0.062,0.02 -0.019,-0.012 -0.039,-0.016 -0.062,-0.02 z m 0.082,0.024 c 0.027,0.004 0.047,0.012 0.066,0.019 -0.019,-0.003 -0.039,-0.015 -0.066,-0.019 z m 0.09,0.023 c 0.023,0.012 0.043,0.016 0.066,0.02 -0.019,-0.004 -0.043,-0.012 -0.066,-0.02 z m 0.082,0.028 c 0.023,0.008 0.051,0.015 0.074,0.023 -0.023,-0.008 -0.051,-0.015 -0.074,-0.023 z m 0.09,0.023 c 0.027,0.012 0.05,0.02 0.07,0.027 -0.02,-0.007 -0.043,-0.015 -0.07,-0.027 z m 0.082,0.027 c 0.027,0.008 0.051,0.016 0.078,0.028 -0.024,-0.012 -0.051,-0.02 -0.078,-0.028 z m 0.086,0.028 c 0.027,0.008 0.054,0.019 0.078,0.027 -0.024,-0.008 -0.051,-0.019 -0.078,-0.027 z m 0.086,0.027 c 0.027,0.012 0.054,0.02 0.078,0.028 -0.024,-0.008 -0.051,-0.016 -0.078,-0.028 z m 0.086,0.031 c 0.027,0.008 0.058,0.02 0.082,0.024 -0.024,-0.004 -0.055,-0.016 -0.082,-0.024 z m 0.082,0.024 c 13.64,4.586 27.339,27.43 31.796,53.82 h 0.008 c -4.457,-26.394 -18.16,-49.234 -31.804,-53.82" /><path
         id="path82"
         style="fill:#babcc2;fill-opacity:1;fill-rule:nonzero;stroke:none"
         d="m 286.273,250.238 c -27.293,0 -43.144,36.332 -36.367,84.403 l 27.785,3.422 c -4.086,-27.239 3.364,-48.055 16.93,-48.055 0.262,0 0.52,0.008 0.789,0.023 0.227,0.012 0.461,0.032 0.692,0.059 0.066,0.008 0.132,0.012 0.191,0.019 v 0 c 0.031,0.008 0.062,0.008 0.09,0.012 0.004,0 0.008,0.004 0.008,0.004 0.027,0 0.054,0.004 0.078,0.012 0.008,0 0.015,0 0.027,0 0.02,0.004 0.039,0.004 0.059,0.008 0.008,0 0.015,0 0.019,0.003 0.028,0.004 0.047,0.008 0.067,0.008 0.011,0.004 0.023,0.004 0.031,0.004 0.019,0.004 0.039,0.008 0.055,0.008 0.011,0.004 0.023,0.008 0.035,0.008 0.015,0 0.035,0.004 0.054,0.008 0.008,0 0.02,0.004 0.036,0.004 0.015,0.003 0.035,0.007 0.046,0.007 0.016,0.004 0.028,0.004 0.04,0.008 0.019,0.004 0.035,0.008 0.05,0.008 0.008,0.004 0.024,0.008 0.035,0.008 0.02,0 0.036,0.004 0.051,0.008 0.012,0.003 0.024,0.003 0.035,0.003 0.02,0.004 0.036,0.008 0.051,0.008 0.012,0.004 0.024,0.012 0.039,0.012 0.016,0 0.031,0.004 0.047,0.008 0.012,0 0.024,0.004 0.035,0.008 0.016,0.004 0.035,0.007 0.051,0.007 0.016,0.004 0.027,0.008 0.043,0.008 0.012,0.004 0.027,0.008 0.047,0.012 0.012,0 0.023,0.004 0.039,0.008 0.012,0 0.027,0.004 0.043,0.008 0.016,0.004 0.031,0.004 0.047,0.007 0.012,0.004 0.027,0.004 0.039,0.012 0.019,0 0.031,0.004 0.043,0.008 0.015,0 0.027,0.008 0.047,0.008 0.015,0.004 0.027,0.008 0.047,0.011 0.011,0 0.023,0.008 0.039,0.008 0.011,0.004 0.031,0.008 0.043,0.008 0.015,0.008 0.027,0.008 0.043,0.012 0.015,0.004 0.031,0.008 0.043,0.012 0.015,0 0.031,0.007 0.043,0.011 0.015,0 0.031,0.004 0.046,0.008 0.012,0.004 0.028,0.004 0.036,0.012 0.019,0 0.035,0.008 0.05,0.008 0.016,0.004 0.028,0.007 0.039,0.011 0.016,0.004 0.036,0.008 0.051,0.012 0.012,0.004 0.024,0.004 0.035,0.012 0.016,0 0.035,0.008 0.051,0.008 0.012,0.003 0.027,0.007 0.035,0.011 0.02,0.004 0.035,0.008 0.051,0.012 0.012,0.004 0.023,0.008 0.035,0.008 0.02,0.008 0.035,0.012 0.055,0.015 0.012,0.004 0.019,0.004 0.031,0.012 0.02,0.004 0.039,0.008 0.055,0.012 0.012,0 0.019,0.008 0.031,0.012 0.02,0.004 0.039,0.007 0.059,0.015 0.007,0 0.015,0.004 0.027,0.008 0.02,0.004 0.039,0.008 0.063,0.016 0.007,0 0.015,0.004 0.023,0.007 0.023,0.004 0.043,0.008 0.062,0.02 0.008,0 0.016,0 0.02,0.004 0.027,0.004 0.047,0.016 0.066,0.019 0.012,0 0.016,0.004 0.024,0.004 0.023,0.008 0.047,0.016 0.066,0.02 0.008,0.004 0.016,0.008 0.016,0.008 0.023,0.008 0.051,0.015 0.074,0.023 0.004,0 0.008,0 0.016,0 0.027,0.012 0.05,0.02 0.07,0.027 0.004,0 0.012,0 0.012,0 0.027,0.008 0.054,0.016 0.078,0.028 0.004,0 0.008,0 0.008,0 0.027,0.008 0.054,0.019 0.078,0.027 0.004,0 0.004,0 0.008,0 0.027,0.012 0.054,0.02 0.078,0.028 0.004,0 0.008,0 0.008,0.003 0.027,0.008 0.058,0.02 0.082,0.024 v 0 c 13.644,4.586 27.347,27.426 31.804,53.82 l 28.192,3.469 c -8.711,-49.098 -37.774,-91.41 -66.61,-97.215 v 0 c -0.027,-0.008 -0.058,-0.016 -0.086,-0.019 -0.004,0 -0.004,0 -0.004,0 -0.027,-0.008 -0.054,-0.012 -0.078,-0.016 -0.007,0 -0.007,0 -0.007,0 -0.028,-0.008 -0.055,-0.012 -0.079,-0.02 -0.004,0 -0.011,0 -0.011,0 -0.028,-0.004 -0.055,-0.011 -0.078,-0.015 -0.008,0 -0.008,0 -0.008,0 -0.028,-0.004 -0.055,-0.012 -0.078,-0.016 -0.008,0 -0.008,0 -0.012,0 -0.024,-0.008 -0.055,-0.012 -0.078,-0.015 0,-0.004 -0.008,-0.004 -0.008,-0.004 -0.027,0 -0.051,-0.008 -0.074,-0.012 -0.008,0 -0.012,-0.004 -0.016,-0.004 -0.023,-0.004 -0.051,-0.008 -0.074,-0.012 -0.004,0 -0.008,0 -0.016,-0.004 -0.023,-0.004 -0.047,-0.011 -0.07,-0.011 -0.008,0 -0.012,-0.004 -0.016,-0.004 -0.027,-0.004 -0.05,-0.008 -0.074,-0.016 -0.004,0 -0.008,0 -0.016,0 -0.023,-0.004 -0.042,-0.008 -0.066,-0.012 -0.008,0 -0.019,-0.004 -0.023,-0.004 -0.024,-0.007 -0.043,-0.007 -0.067,-0.011 -0.008,-0.004 -0.011,-0.004 -0.019,-0.004 -0.024,-0.004 -0.047,-0.008 -0.067,-0.012 -0.008,0 -0.015,-0.004 -0.023,-0.004 -0.024,-0.004 -0.043,-0.004 -0.063,-0.008 -0.007,-0.003 -0.015,-0.007 -0.027,-0.007 -0.016,0 -0.039,-0.008 -0.059,-0.008 -0.011,0 -0.019,-0.004 -0.031,-0.008 -0.019,0 -0.039,-0.004 -0.055,-0.008 -0.015,0 -0.023,0 -0.035,-0.004 -0.015,-0.004 -0.035,-0.004 -0.054,-0.008 -0.012,-0.003 -0.024,-0.003 -0.032,-0.003 -0.019,-0.004 -0.039,-0.008 -0.058,-0.012 -0.008,0 -0.024,-0.004 -0.031,-0.004 -0.016,-0.004 -0.036,-0.004 -0.055,-0.008 -0.012,0 -0.024,-0.004 -0.039,-0.008 -0.012,0 -0.031,-0.004 -0.043,-0.008 -0.016,0 -0.035,0 -0.047,-0.003 -0.012,-0.004 -0.027,-0.008 -0.043,-0.008 -0.016,-0.004 -0.031,-0.004 -0.043,-0.004 -0.016,-0.004 -0.031,-0.008 -0.047,-0.008 -0.012,0 -0.027,-0.004 -0.043,-0.008 -0.012,-0.004 -0.027,-0.004 -0.043,-0.004 -0.015,-0.004 -0.027,-0.007 -0.043,-0.007 -0.015,0 -0.031,-0.004 -0.043,-0.008 -0.015,0 -0.031,-0.004 -0.039,-0.004 -0.019,-0.004 -0.035,-0.004 -0.051,-0.008 -0.015,0 -0.027,0 -0.043,-0.004 -0.011,0 -0.031,-0.004 -0.043,-0.008 -0.015,-0.004 -0.027,-0.004 -0.039,-0.004 -0.019,-0.004 -0.035,-0.007 -0.05,-0.007 -0.016,0 -0.032,-0.004 -0.047,-0.008 -0.012,0 -0.028,0 -0.039,-0.004 -0.016,0 -0.032,-0.004 -0.039,-0.004 -0.02,-0.004 -0.036,-0.004 -0.051,-0.004 -0.016,-0.004 -0.027,-0.004 -0.039,-0.008 -0.016,-0.004 -0.031,-0.004 -0.047,-0.004 -0.035,-0.008 -0.059,-0.008 -0.09,-0.011 v 0 c -0.047,-0.008 -0.094,-0.012 -0.141,-0.02 -0.882,-0.102 -1.757,-0.168 -2.617,-0.199 -0.383,-0.016 -0.758,-0.02 -1.133,-0.02" /><path
         id="path84"
         style="fill:#5c6c84;fill-opacity:1;fill-rule:nonzero;stroke:none"
         d="m 495.277,313.883 c -1.175,0 -1.918,1.523 -1.964,3.75 0.046,-2.227 0.789,-3.75 1.964,-3.75 0.028,0 0.059,0 0.086,0 -0.031,0 -0.058,0 -0.086,0 z m 59.516,12.195 c 0.211,0.875 0.305,1.363 0.305,1.363 0.015,0.059 0.031,0.125 0.043,0.184 -0.012,-0.062 -0.028,-0.125 -0.043,-0.184 0,0 -0.094,-0.488 -0.305,-1.363 z m 0.355,1.578 c 2.598,11.742 3.172,21.41 2.786,29.067 0.386,-7.653 -0.188,-17.321 -2.786,-29.067 z m -24.781,14.946 c 0.008,7.234 -2.465,12.05 -6.168,12.05 -0.176,0 -0.351,-0.007 -0.531,-0.031 l -22.141,-2.691 c -0.824,-0.098 -1.679,-0.899 -2.406,-2.11 0.727,1.211 1.582,2.012 2.406,2.114 l 22.141,2.687 c 0.18,0.024 0.355,0.031 0.531,0.031 3.703,0 6.176,-4.816 6.168,-12.05 z m 27.567,14.125 c -0.004,0.039 -0.004,0.074 -0.008,0.113 0.004,-0.039 0.004,-0.074 0.008,-0.113 z m -0.008,0.16 c -0.004,0.019 -0.004,0.039 -0.004,0.054 0,-0.019 0,-0.035 0.004,-0.054" /><path
         id="path86"
         style="fill:#babcc2;fill-opacity:1;fill-rule:nonzero;stroke:none"
         d="m 449.535,269.836 7.235,45.254 9.679,1.18 -0.015,0.011 7.336,45.918 81.664,10.059 c 1.074,-3.633 2.136,-8.723 2.488,-15.317 0,-0.015 0,-0.035 0.004,-0.054 0,-0.012 0,-0.032 0,-0.047 0.004,-0.039 0.004,-0.074 0.008,-0.113 0,0 0,0 0,-0.004 0.386,-7.657 -0.188,-17.325 -2.786,-29.067 -0.003,-0.011 -0.003,-0.019 -0.007,-0.031 -0.012,-0.059 -0.028,-0.125 -0.043,-0.184 0,0 -0.094,-0.488 -0.305,-1.363 -1.773,-7.41 -11.699,-42.844 -40.508,-48.379 l -14.058,-1.707 z m 43.778,47.797 c 0.046,-2.227 0.789,-3.75 1.964,-3.75 0.028,0 0.055,0 0.086,0 0.028,0 0.055,0.004 0.086,0.008 l 22.422,2.722 c 5.219,0.633 10.973,10.758 12.254,21.996 0.16,1.395 0.238,2.731 0.242,3.993 0.008,7.234 -2.465,12.05 -6.168,12.05 -0.176,0 -0.351,-0.007 -0.531,-0.031 l -22.141,-2.687 c -0.824,-0.102 -1.679,-0.903 -2.406,-2.114 -0.723,-1.207 -1.308,-2.832 -1.586,-4.578 l -4.055,-25.387 c -0.128,-0.789 -0.179,-1.539 -0.167,-2.222" /><path
         id="path88"
         style="fill:#5c6c84;fill-opacity:1;fill-rule:nonzero;stroke:none"
         d="m 623.922,291.016 7.23,45.254 8.817,1.074 -8.817,-1.074 z m -44.738,57.914 10.82,27.582 -10.82,-27.582" /><path
         id="path90"
         style="fill:#babcc2;fill-opacity:1;fill-rule:nonzero;stroke:none"
         d="m 553,282.398 7.23,45.258 11.141,1.352 7.813,19.922 10.824,27.582 76.238,9.386 3.606,-44.925 11.988,1.457 -7.231,-45.258 -50.687,-6.156 7.23,45.254 8.817,1.074 -0.309,6.414 c -0.086,1.828 -0.797,2.98 -1.816,2.98 -0.055,0 -0.11,0 -0.168,-0.008 v 0 l -30.598,-3.714 c -1.012,-0.125 -2.105,-1.317 -2.84,-3.075 -0.054,-0.132 -0.109,-0.269 -0.16,-0.406 l -2.531,-6.859 9.371,1.137 -7.23,-45.258 L 553,282.398" /><path
         id="path92"
         style="fill:#f04420;fill-opacity:1;fill-rule:nonzero;stroke:none"
         d="m 198.758,111.281 h 500.719 v 87.9336 H 198.758 Z" /><path
         id="path94"
         style="fill:#ffffff;fill-opacity:1;fill-rule:nonzero;stroke:none"
         d="m 261.32,152.129 v -7.246 c 0,-8.731 -4.367,-13.719 -12.781,-13.719 -8.418,0 -12.785,4.988 -12.785,13.719 v 28.367 c 0,8.73 4.367,13.715 12.785,13.715 8.414,0 12.781,-4.985 12.781,-13.715 v -5.297 h -8.109 v 5.844 c 0,3.898 -1.711,5.375 -4.441,5.375 -2.727,0 -4.442,-1.477 -4.442,-5.375 v -29.461 c 0,-3.895 1.715,-5.297 4.442,-5.297 2.73,0 4.441,1.402 4.441,5.297 v 7.793 h 8.109" /><path
         id="path96"
         style="fill:#ffffff;fill-opacity:1;fill-rule:nonzero;stroke:none"
         d="m 282.91,131.789 h -8.57 v 54.555 h 8.57 v -23.379 h 9.742 v 23.379 h 8.727 v -54.555 h -8.727 v 23.379 h -9.742 v -23.379" /><path
         id="path98"
         style="fill:#ffffff;fill-opacity:1;fill-rule:nonzero;stroke:none"
         d="m 323.594,149.09 h 8.261 l -4.128,27.59 z m 19.562,-17.301 h -8.652 l -1.481,9.899 h -10.519 l -1.484,-9.899 h -7.872 l 8.731,54.555 h 12.547 l 8.73,-54.555" /><path
         id="path100"
         style="fill:#ffffff;fill-opacity:1;fill-rule:nonzero;stroke:none"
         d="m 373.086,147.613 5.844,38.731 h 11.922 v -54.555 h -8.102 v 39.125 l -5.926,-39.125 h -8.101 l -6.391,38.578 v -38.578 h -7.484 v 54.555 h 11.925 l 6.313,-38.731" /><path
         id="path102"
         style="fill:#ffffff;fill-opacity:1;fill-rule:nonzero;stroke:none"
         d="m 413.461,178.551 v -18.473 h 4.051 c 2.726,0 4.207,1.25 4.207,5.145 v 8.179 c 0,3.899 -1.481,5.149 -4.207,5.149 z m 16.832,-5.692 v -7.093 c 0,-8.727 -4.207,-13.481 -12.781,-13.481 h -4.051 v -20.496 h -8.574 v 54.555 h 12.625 c 8.574,0 12.781,-4.758 12.781,-13.485" /><path
         id="path104"
         style="fill:#ffffff;fill-opacity:1;fill-rule:nonzero;stroke:none"
         d="m 442.453,131.789 h 8.57031 v 54.5547 H 442.453 Z" /><path
         id="path106"
         style="fill:#ffffff;fill-opacity:1;fill-rule:nonzero;stroke:none"
         d="m 472.93,144.336 c 0,-3.895 1.711,-5.379 4.437,-5.379 2.731,0 4.446,1.484 4.446,5.379 v 29.461 c 0,3.898 -1.715,5.375 -4.446,5.375 -2.726,0 -4.437,-1.477 -4.437,-5.375 z m -8.575,28.914 c 0,8.73 4.598,13.715 13.012,13.715 8.418,0 13.016,-4.985 13.016,-13.715 v -28.367 c 0,-8.731 -4.598,-13.719 -13.016,-13.719 -8.414,0 -13.012,4.988 -13.012,13.719 v 28.367" /><path
         id="path108"
         style="fill:#ffffff;fill-opacity:1;fill-rule:nonzero;stroke:none"
         d="m 511.352,171.301 v -39.512 h -7.715 v 54.555 h 10.758 l 8.8,-32.653 v 32.653 h 7.645 v -54.555 h -8.809 l -10.679,39.512" /><path
         id="path110"
         style="fill:#ffffff;fill-opacity:1;fill-rule:nonzero;stroke:none"
         d="m 556.324,186.965 c 8.34,0 12.625,-4.985 12.625,-13.715 v -1.715 h -8.105 v 2.262 c 0,3.898 -1.559,5.375 -4.285,5.375 -2.731,0 -4.289,-1.477 -4.289,-5.375 0,-11.223 16.757,-13.328 16.757,-28.914 0,-8.731 -4.363,-13.719 -12.781,-13.719 -8.418,0 -12.781,4.988 -12.781,13.719 v 3.351 h 8.105 v -3.898 c 0,-3.895 1.715,-5.297 4.446,-5.297 2.722,0 4.441,1.402 4.441,5.297 0,11.227 -16.762,13.328 -16.762,28.914 0,8.73 4.289,13.715 12.629,13.715" /><path
         id="path112"
         style="fill:#ffffff;fill-opacity:1;fill-rule:nonzero;stroke:none"
         d="m 590.305,131.789 h -8.571 v 54.555 h 8.571 v -23.379 h 9.742 v 23.379 h 8.726 v -54.555 h -8.726 v 23.379 h -9.742 v -23.379" /><path
         id="path114"
         style="fill:#ffffff;fill-opacity:1;fill-rule:nonzero;stroke:none"
         d="m 622.805,131.789 h 8.57813 v 54.5547 H 622.805 Z" /><path
         id="path116"
         style="fill:#ffffff;fill-opacity:1;fill-rule:nonzero;stroke:none"
         d="m 653.984,178.551 v -18.473 h 4.051 c 2.727,0 4.207,1.25 4.207,5.145 v 8.179 c 0,3.899 -1.48,5.149 -4.207,5.149 z m 16.836,-5.692 v -7.093 c 0,-8.727 -4.215,-13.481 -12.785,-13.481 h -4.051 v -20.496 h -8.574 v 54.555 h 12.625 c 8.57,0 12.785,-4.758 12.785,-13.485" /></g></g></svg>