<?xml version="1.0" encoding="UTF-8" standalone="no"?>
<svg
   xmlns:dc="http://purl.org/dc/elements/1.1/"
   xmlns:cc="http://creativecommons.org/ns#"
   xmlns:rdf="http://www.w3.org/1999/02/22-rdf-syntax-ns#"
   xmlns:svg="http://www.w3.org/2000/svg"
   xmlns="http://www.w3.org/2000/svg"
   viewBox="0 0 112 102.66667"
   height="102.66667"
   width="112"
   xml:space="preserve"
   id="svg2"
   version="1.1"><metadata
     id="metadata8"><rdf:RDF><cc:Work
         rdf:about=""><dc:format>image/svg+xml</dc:format><dc:type
           rdf:resource="http://purl.org/dc/dcmitype/StillImage" /></cc:Work></rdf:RDF></metadata><defs
     id="defs6" /><g
     transform="matrix(1.3333333,0,0,-1.3333333,0,102.66667)"
     id="g10"><g
       transform="scale(0.1)"
       id="g12"><path
         id="path14"
         style="fill:#2e2d2e;fill-opacity:1;fill-rule:nonzero;stroke:none"
         d="M 836.223,316.547 C 586.531,486.238 258.531,486.238 8.83594,316.547 21.1445,306.121 33.6328,295.285 46.3008,284.035 33.6328,257.715 21.1445,230.98 8.83594,203.832 c 249.69506,169.691 577.69506,169.691 827.38706,0 -12.305,27.148 -24.797,53.883 -37.469,80.203 12.672,11.25 25.164,22.086 37.469,32.512" /><path
         id="path16"
         style="fill:#f14621;fill-opacity:1;fill-rule:nonzero;stroke:none"
         d="m 121.152,249.18 v 273.918 c 0,22.922 12.235,44.097 32.078,55.558 l 237.223,136.961 c 19.844,11.457 44.301,11.457 64.156,0 L 691.82,578.656 c 19.856,-11.461 32.086,-32.636 32.086,-55.558 V 249.18 c 0,-22.922 -12.23,-44.102 -32.086,-55.559 L 454.609,56.6602 c -19.855,-11.461 -44.312,-11.461 -64.156,0 L 153.23,193.621 c -19.843,11.457 -32.078,32.637 -32.078,55.559" /><path
         id="path18"
         style="fill:#ffffff;fill-opacity:1;fill-rule:nonzero;stroke:none"
         d="m 560.746,359.664 -47.398,15.129 50.265,16.047 72.481,-3.422 c 0.004,-0.43 0.031,-0.852 0.031,-1.277 0,-7.762 -0.441,-15.426 -1.254,-22.977 z m 69.707,-22.254 -54.801,17.492 58.516,2.766 c -0.914,-6.859 -2.16,-13.617 -3.715,-20.258 z m -8.801,-28.414 -72.468,15.793 -41.871,26.887 52.71,2.492 69.161,-22.078 c -2.071,-7.895 -4.61,-15.586 -7.532,-23.094 z m -10.906,-23.734 -48.394,31.07 57.265,-12.48 c -2.66,-6.36 -5.633,-12.559 -8.871,-18.59 z m -15.902,-25.145 -65.856,33.985 -33.48,36.8 51.558,-11.234 60.993,-39.164 c -4.032,-7.055 -8.434,-13.863 -13.215,-20.387 z m -16.688,-20.054 -38.633,42.46 51.977,-26.82 c -4.203,-5.43 -8.656,-10.648 -13.344,-15.64 z m -21.816,-20.239 -54.797,49.856 -22.816,44.218 46.894,-24.203 48.762,-53.59 c -5.695,-5.765 -11.727,-11.187 -18.043,-16.281 z m -21.27,-15.117 -26.347,51.066 43.269,-39.367 c -5.445,-4.16 -11.086,-8.066 -16.922,-11.699 z m -26.289,-13.91 -40.07,62.406 -10.594,48.61 39.028,-35.508 33.242,-64.418 c -6.965,-4.094 -14.172,-7.793 -21.606,-11.09 z m -24.48,-9.117 -12.258,56.226 31.656,-49.301 C 497.375,186 490.902,183.688 484.301,181.68 Z m -28.996,-6.621 -22.575,70.711 2.348,49.707 28.508,-44.399 15.449,-70.894 c -7.754,-2.129 -15.66,-3.875 -23.73,-5.125 z m -26.028,-2.344 2.711,57.422 17.817,-55.789 c -6.754,-0.871 -13.602,-1.418 -20.528,-1.633 z m -15.226,131.574 5.097,15.984 10.84,-16.871 -2.015,-42.722 z m 9.762,-131.715 c -0.434,-0.004 -0.852,-0.031 -1.286,-0.031 -7.761,0 -15.418,0.441 -22.972,1.254 l -3.496,74.117 15.129,47.402 16.042,-50.265 z m -30.657,136.703 9.063,14.121 6.101,-19.109 -13.004,-40.738 z m -19.351,-131.062 17.488,54.793 2.762,-58.508 c -6.856,0.914 -13.614,2.16 -20.25,3.715 z m -28.422,8.801 15.797,72.464 26.886,41.872 2.493,-52.711 -22.082,-69.153 c -7.887,2.063 -15.582,4.61 -23.094,7.528 z m -23.731,10.906 31.071,48.387 -12.481,-57.258 c -6.359,2.664 -12.558,5.629 -18.59,8.871 z m -25.148,15.906 33.984,65.844 36.809,33.484 -11.238,-51.551 -39.164,-60.992 c -7.059,4.028 -13.868,8.43 -20.391,13.215 z m -20.051,16.684 42.461,38.629 -26.82,-51.973 c -5.43,4.203 -10.645,8.656 -15.641,13.344 z m -20.238,21.812 49.855,54.797 44.215,22.82 -24.199,-46.894 -53.594,-48.758 c -5.765,5.691 -11.183,11.723 -16.277,18.035 z m -15.117,21.27 51.07,26.355 -39.371,-43.277 c -4.16,5.441 -8.063,11.09 -11.699,16.922 z m -13.91,26.297 62.398,40.066 48.621,10.598 -35.508,-39.032 -64.422,-33.238 c -4.089,6.961 -7.793,14.168 -11.089,21.606 z m -9.114,24.48 56.227,12.254 L 225,304.969 c -2.609,6.324 -4.93,12.793 -6.926,19.402 z m -6.625,28.992 70.711,22.578 49.707,-2.351 -44.398,-28.512 -70.895,-15.449 c -2.129,7.758 -3.875,15.664 -5.125,23.734 z m -2.347,26.032 57.429,-2.719 -55.797,-17.813 c -0.859,6.754 -1.414,13.598 -1.632,20.532 z m -0.164,6.746 c 0,7.761 0.437,15.422 1.246,22.972 l 74.125,3.504 47.402,-15.133 -50.27,-16.043 -72.48,3.418 c 0,0.43 -0.023,0.852 -0.023,1.282 z m 5.671,48.726 54.789,-17.488 -58.511,-2.77 c 0.922,6.86 2.164,13.618 3.722,20.258 z m 8.801,28.414 72.469,-15.793 41.863,-26.883 -52.711,-2.492 -69.152,22.078 c 2.062,7.887 4.609,15.582 7.531,23.09 z m 10.906,23.735 48.391,-31.075 -57.273,12.481 c 2.671,6.359 5.632,12.562 8.882,18.594 z m 15.899,25.144 65.855,-33.984 33.481,-36.801 -51.559,11.234 -60.996,39.168 c 4.035,7.047 8.434,13.864 13.219,20.383 z m 16.691,20.059 38.625,-42.465 -51.968,26.824 c 4.199,5.426 8.652,10.645 13.343,15.641 z m 21.813,20.234 54.793,-49.855 22.82,-44.219 -46.898,24.199 -48.754,53.594 c 5.691,5.766 11.722,11.191 18.039,16.281 z m 21.265,15.117 26.352,-51.066 -43.27,39.367 c 5.442,4.164 11.09,8.07 16.918,11.699 z m 26.297,13.91 40.067,-62.406 10.597,-48.609 -39.031,35.508 -33.238,64.418 c 6.957,4.089 14.172,7.797 21.605,11.089 z m 24.481,9.118 12.25,-56.227 -31.653,49.301 c 6.321,2.609 12.793,4.922 19.403,6.926 z m 28.992,6.621 22.578,-70.715 -2.352,-49.703 -28.503,44.398 -15.45,70.891 c 7.746,2.133 15.657,3.883 23.727,5.129 z m 26.031,2.344 -2.715,-57.426 -17.816,55.797 c 6.75,0.863 13.598,1.418 20.531,1.629 z m 15.223,-131.575 -5.102,-15.984 -10.832,16.871 2.016,42.719 z m -9.758,131.715 c 0.43,0.004 0.852,0.031 1.277,0.031 7.766,0 15.426,-0.441 22.977,-1.254 l 3.5,-74.117 -15.129,-47.402 -16.047,50.266 z m 30.652,-136.699 -9.058,-14.121 -6.106,19.105 13.008,40.742 z m 19.356,131.059 -17.488,-54.79 -2.77,58.508 c 6.863,-0.918 13.613,-2.164 20.258,-3.718 z m 28.414,-8.797 -15.793,-72.469 -26.887,-41.867 -2.492,52.711 22.082,69.152 c 7.891,-2.066 15.582,-4.609 23.09,-7.527 z m 23.734,-10.911 -31.07,-48.382 12.48,57.257 c 6.36,-2.664 12.559,-5.632 18.59,-8.875 z m 25.145,-15.902 -33.981,-65.855 -36.804,-33.477 11.238,51.555 39.164,60.992 c 7.051,-4.031 13.863,-8.434 20.383,-13.215 z m 20.054,-16.687 -42.464,-38.637 26.824,51.98 c 5.426,-4.199 10.648,-8.652 15.64,-13.343 z m 20.239,-21.813 -49.856,-54.797 -44.218,-22.82 24.199,46.887 53.597,48.769 c 5.762,-5.699 11.184,-11.722 16.278,-18.039 z m 15.117,-21.273 -51.07,-26.352 39.375,43.277 c 4.16,-5.445 8.058,-11.089 11.695,-16.925 z m 13.91,-26.293 -62.394,-40.067 -48.622,-10.597 35.504,39.031 64.422,33.242 c 4.09,-6.965 7.793,-14.176 11.09,-21.609 z m 9.117,-24.485 -56.23,-12.25 49.305,31.657 c 2.605,-6.325 4.921,-12.797 6.925,-19.407 z m -138.597,-65.14 16.871,10.836 42.726,-2.02 -43.613,-13.922 z m -3.118,-16.934 19.102,6.102 40.742,-13.004 -45.722,-2.164 z m -7.398,-15.543 20.039,0.945 35.984,-23.109 -44.726,9.75 z m -11.164,-13.105 19.598,-4.274 28.781,-31.633 -40.684,20.997 z m -14.176,-9.77 17.82,-9.191 19.614,-38.008 -33.856,30.805 z m -16.226,-5.762 14.836,-13.492 9.109,-41.781 -24.734,38.512 z m 9.089,6.524 1.457,-0.317 2.286,-10.5 -9.688,8.813 c 2.027,0.57 4.008,1.242 5.945,2.004 z m -61.183,7.762 -7.945,-7.235 2.785,12.809 c 1.496,-1.453 3.066,-2.832 4.699,-4.133 z m -9.953,-16.434 12.41,11.289 0.945,-20.027 -23.101,-35.985 z m -15.606,14.758 14.914,7.699 -4.269,-19.598 -31.637,-28.781 z m -11.25,18.301 16.403,3.574 -9.2,-17.82 -38.007,-19.618 z m -6.133,20.589 16.77,-0.793 -13.5,-14.832 -41.789,-9.109 z m 15.391,16.368 -16.871,-10.836 -42.719,2.019 43.61,13.926 z m 3.125,16.929 -19.105,-6.097 -40.739,13.007 45.723,2.161 z m 7.399,15.547 -20.043,-0.941 -35.985,23.105 44.731,-9.75 z m 11.156,13.106 -19.59,4.273 -28.781,31.633 40.679,-20.992 z m 14.183,9.765 -17.828,9.2 -19.609,38.003 33.859,-30.804 z m 16.219,5.766 -14.836,13.492 -9.101,41.781 24.726,-38.511 z m -9.082,-6.52 -1.457,0.317 -2.285,10.496 9.683,-8.813 c -2.023,-0.566 -4.003,-1.238 -5.941,-2 z m 61.18,-7.761 7.949,7.23 L 466,430.77 c -1.496,1.457 -3.059,2.832 -4.691,4.136 z m 9.957,16.429 -12.418,-11.293 -0.942,20.036 23.106,35.984 z m 15.597,-14.757 -14.91,-7.696 4.274,19.594 31.629,28.777 z m 11.258,-18.301 -16.402,-3.574 9.195,17.82 38.012,19.609 z m -10.636,-19.797 13.492,14.832 41.793,9.113 -38.524,-24.738 z m -2.196,-12.965 c -0.027,2.113 -0.156,4.203 -0.39,6.258 l 0.691,1.332 10.734,-0.504 z m -0.66,-9.996 1.004,1.102 10.234,-3.27 -12.461,-3.98 c 0.508,2.011 0.918,4.062 1.223,6.148 z m -3.672,32.039 0.324,1.465 10.5,2.289 -8.816,-9.691 c -0.566,2.023 -1.238,4.003 -2.008,5.937 z m -7.961,15.719 9.551,4.926 -6.004,-11.633 c -1.074,1.797 -2.23,3.543 -3.476,5.218 z m -88.586,11.422 -4.922,9.55 11.633,-6.003 c -1.797,-1.075 -3.539,-2.231 -5.215,-3.477 z m -21.386,-66.926 c 0.57,-2.024 1.238,-4.008 2,-5.942 l -0.313,-1.457 -10.504,-2.293 z m -2.329,16.109 c 0.028,-2.113 0.161,-4.203 0.395,-6.261 l -0.687,-1.333 -10.739,0.504 z m 0.661,9.992 -1.004,-1.097 -10.235,3.265 12.465,3.981 c -0.515,-2.012 -0.914,-4.063 -1.226,-6.149 z m 11.425,29.137 -7.226,7.949 12.808,-2.793 c -1.453,-1.492 -2.835,-3.062 -4.136,-4.695 z m -8.203,-14.297 -9.043,5.805 13.09,0.617 c -1.023,-1.824 -1.957,-3.695 -2.801,-5.625 z m 8.41,-62.597 -9.55,-4.926 6.007,11.637 c 1.071,-1.801 2.231,-3.543 3.473,-5.223 z m 88.582,-11.422 4.93,-9.551 -11.637,6.008 c 1.805,1.07 3.543,2.226 5.223,3.469 z m 11.637,11.687 7.231,-7.949 -12.817,2.793 c 1.457,1.492 2.836,3.059 4.141,4.695 z m 8.207,14.301 9.043,-5.805 -13.09,-0.617 c 1.02,1.82 1.957,3.695 2.793,5.621 z m -34.406,82.426 5.809,9.043 0.617,-13.082 c -1.817,1.023 -3.696,1.957 -5.625,2.797 z m -15.938,4.226 3.27,10.243 3.98,-12.469 c -2.015,0.512 -4.066,0.918 -6.148,1.226 z m -16.48,-0.043 0.504,10.731 7.082,-11.031 c -2.109,-0.028 -4.199,-0.157 -6.25,-0.387 z m -15.613,-121.007 -5.801,-9.039 -0.617,13.082 c 1.816,-1.028 3.695,-1.957 5.617,-2.797 z m 15.945,-4.227 -3.269,-10.238 -3.981,12.465 c 2.012,-0.512 4.059,-0.918 6.145,-1.223 z m 16.481,0.043 -0.504,-10.73 -7.082,11.031 c 2.109,0.027 4.199,0.156 6.25,0.394 z m 202.667,95.367 -70.71,-22.57 -49.704,2.348 44.399,28.507 70.89,15.45 c 2.129,-7.75 3.883,-15.657 5.125,-23.735 z m 2.352,-26.023 -57.434,2.711 55.797,17.816 c 0.868,-6.754 1.418,-13.598 1.637,-20.527 z m -213.43,220.492 c -125.496,0 -227.234,-101.734 -227.234,-227.238 0,-125.504 101.738,-227.243 227.234,-227.243 125.504,0 227.243,101.739 227.243,227.243 0,125.504 -101.739,227.238 -227.243,227.238" /><path
         id="path20"
         style="fill:#2e2d2e;fill-opacity:1;fill-rule:nonzero;stroke:none"
         d="m 453.078,379.781 c -8.5,0 -15.387,6.887 -15.387,15.379 0,8.5 6.887,15.387 15.387,15.387 8.492,0 15.379,-6.887 15.379,-15.387 0,-8.492 -6.887,-15.379 -15.379,-15.379 z m 7.426,-10.551 c -2.191,0 -3.969,1.778 -3.969,3.965 0,2.192 1.778,3.969 3.969,3.969 2.191,0 3.961,-1.777 3.961,-3.969 0,-2.187 -1.77,-3.965 -3.961,-3.965 z m -18.84,-24.582 c -8.496,0 -15.391,6.887 -15.391,15.387 0,8.496 6.895,15.383 15.391,15.383 8.496,0 15.383,-6.887 15.383,-15.383 0,-8.5 -6.887,-15.387 -15.383,-15.387 z m -19.004,-2.183 c -2.191,0 -3.969,1.777 -3.969,3.965 0,2.195 1.778,3.968 3.969,3.968 2.192,0 3.965,-1.773 3.965,-3.968 0,-2.188 -1.773,-3.965 -3.965,-3.965 z m -18.613,2.183 c -8.488,0 -15.383,6.887 -15.383,15.387 0,8.496 6.895,15.383 15.383,15.383 8.5,0 15.391,-6.887 15.391,-15.383 0,-8.5 -6.891,-15.387 -15.391,-15.387 z m -19.231,24.582 c -2.187,0 -3.964,1.778 -3.964,3.965 0,2.192 1.777,3.969 3.964,3.969 2.192,0 3.973,-1.777 3.973,-3.969 0,-2.187 -1.781,-3.965 -3.973,-3.965 z m -8.218,25.93 c 0,8.5 6.886,15.387 15.386,15.387 8.496,0 15.383,-6.887 15.383,-15.387 0,-8.492 -6.887,-15.379 -15.383,-15.379 -8.5,0 -15.386,6.887 -15.386,15.379 z m 21.347,26.328 c 2.192,0 3.969,-1.777 3.969,-3.968 0,-2.196 -1.777,-3.965 -3.969,-3.965 -2.195,0 -3.968,1.769 -3.968,3.965 0,2.191 1.773,3.968 3.968,3.968 z m 37.141,-35.347 c 0,-6.868 -5.563,-12.43 -12.426,-12.43 -6.859,0 -12.426,5.562 -12.426,12.43 0,6.863 5.567,12.425 12.426,12.425 6.863,0 12.426,-5.562 12.426,-12.425 z m -12.426,46.761 c 8.496,0 15.387,-6.886 15.387,-15.382 0,-8.497 -6.891,-15.387 -15.387,-15.387 -8.496,0 -15.383,6.89 -15.383,15.387 0,8.496 6.887,15.382 15.383,15.382 z m 23.926,-10.98 c 2.187,0 3.965,-1.774 3.965,-3.961 0,-2.195 -1.778,-3.969 -3.965,-3.969 -2.191,0 -3.965,1.774 -3.965,3.969 0,2.187 1.774,3.961 3.965,3.961 z m 30.426,-42.453 -1.446,1.461 c -2.851,2.871 -2.851,7.547 0,10.418 l 1.446,1.461 1.347,1.351 -1.668,0.918 -1.816,1.004 c -3.535,1.957 -4.855,6.438 -2.93,9.992 l 0.985,1.828 0.902,1.672 -1.855,0.406 -2.016,0.45 c -3.945,0.871 -6.484,4.804 -5.641,8.758 l 0.426,2.023 0.399,1.855 -1.895,-0.125 -2.055,-0.14 c -0.168,-0.008 -0.343,-0.012 -0.507,-0.012 -3.844,0 -7.079,3.004 -7.368,6.84 l -0.152,2.059 -0.145,1.89 -1.781,-0.652 -1.953,-0.719 c -0.82,-0.301 -1.676,-0.453 -2.547,-0.453 -3.058,0 -5.84,1.926 -6.918,4.789 l -0.734,1.934 -0.672,1.781 -1.531,-1.133 -1.653,-1.23 c -1.289,-0.957 -2.808,-1.465 -4.406,-1.465 -2.34,0 -4.496,1.07 -5.906,2.937 l -1.246,1.645 -1.149,1.515 -1.14,-1.515 -1.246,-1.645 c -1.411,-1.867 -3.567,-2.937 -5.911,-2.937 -1.597,0 -3.121,0.508 -4.402,1.461 l -1.664,1.234 -1.523,1.133 -0.676,-1.781 -0.731,-1.934 c -1.082,-2.863 -3.863,-4.789 -6.921,-4.789 -0.868,0 -1.719,0.152 -2.547,0.453 l -1.95,0.719 -1.781,0.652 -0.14,-1.894 -0.157,-2.055 c -0.289,-3.836 -3.523,-6.844 -7.371,-6.844 -0.168,0 -0.332,0.008 -0.5,0.016 l -2.054,0.137 -1.895,0.128 0.387,-1.855 0.433,-2.023 c 0.836,-3.954 -1.691,-7.887 -5.636,-8.758 l -2.016,-0.45 -1.859,-0.406 0.902,-1.672 0.984,-1.828 c 1.922,-3.554 0.61,-8.039 -2.925,-9.992 l -1.821,-1.004 -1.66,-0.918 1.344,-1.347 1.441,-1.461 c 2.856,-2.875 2.856,-7.551 0,-10.422 l -1.441,-1.461 -1.344,-1.348 1.66,-0.922 1.821,-1 c 3.535,-1.961 4.847,-6.441 2.925,-9.996 l -0.984,-1.824 -0.902,-1.672 1.859,-0.414 2.016,-0.445 c 3.945,-0.875 6.472,-4.805 5.636,-8.758 l -0.433,-2.024 -0.387,-1.855 1.895,0.125 2.054,0.141 c 0.168,0.011 0.332,0.015 0.5,0.015 3.848,0 7.082,-3.008 7.375,-6.844 l 0.153,-2.054 0.14,-1.895 1.785,0.656 1.946,0.711 c 0.828,0.305 1.679,0.454 2.547,0.454 3.058,0 5.839,-1.922 6.921,-4.782 l 0.731,-1.937 0.676,-1.785 1.523,1.136 1.664,1.231 c 1.281,0.961 2.809,1.465 4.402,1.465 2.344,0 4.5,-1.071 5.911,-2.938 l 1.246,-1.644 1.14,-1.512 1.149,1.512 1.246,1.644 c 1.41,1.867 3.566,2.938 5.906,2.938 1.598,0 3.117,-0.504 4.406,-1.465 l 1.653,-1.231 1.531,-1.136 0.672,1.785 0.734,1.937 c 1.086,2.86 3.86,4.785 6.918,4.785 0.871,0 1.727,-0.152 2.547,-0.457 l 1.953,-0.711 1.781,-0.656 0.145,1.895 0.152,2.054 c 0.289,3.836 3.524,6.844 7.368,6.844 0.164,0 0.339,-0.004 0.507,-0.015 l 2.055,-0.141 1.895,-0.125 -0.399,1.859 -0.422,2.02 c -0.844,3.953 1.692,7.883 5.637,8.758 l 2.016,0.445 1.855,0.414 -0.902,1.672 -0.985,1.824 c -1.925,3.559 -0.605,8.035 2.93,9.996 l 1.816,1 1.668,0.922 -1.347,1.348" /><path
         id="path22"
         style="fill:#2e2d2e;fill-opacity:1;fill-rule:nonzero;stroke:none"
         d="m 422.527,656.855 c -149.269,0 -270.714,-121.445 -270.714,-270.714 0,-149.278 121.445,-270.715 270.714,-270.715 149.274,0 270.715,121.437 270.715,270.715 0,149.269 -121.441,270.714 -270.715,270.714 z m 0,-35.472 c 129.926,0 235.246,-105.32 235.246,-235.242 0,-129.926 -105.32,-235.246 -235.246,-235.246 -129.918,0 -235.242,105.32 -235.242,235.246 0,129.922 105.324,235.242 235.242,235.242" /><path
         id="path24"
         style="fill:#593117;fill-opacity:1;fill-rule:nonzero;stroke:none"
         d="m 422.527,741.762 c -13.152,0 -26.312,-3.391 -38.043,-10.164 L 142.371,591.816 C 118.91,578.27 104.332,553.02 104.332,525.922 V 246.355 c 0,-27.093 14.578,-52.347 38.039,-65.894 L 384.484,40.6797 c 23.465,-13.5508 52.621,-13.5508 76.09,0 L 702.688,180.461 c 23.464,13.547 38.042,38.801 38.042,65.894 v 279.567 c 0,27.098 -14.578,52.348 -38.042,65.894 L 460.574,731.598 c -11.734,6.773 -24.89,10.164 -38.047,10.164 z m 0,-735.79325 c -17.406,0 -34.8,4.48435 -50.32,13.44535 L 130.098,159.191 c -31.0394,17.922 -50.3207,51.325 -50.3207,87.164 v 279.567 c 0,35.84 19.2813,69.238 50.3207,87.164 l 242.109,139.781 c 31.035,17.922 69.602,17.922 100.645,0 L 714.965,613.086 c 31.039,-17.926 50.32,-51.324 50.32,-87.164 V 246.355 c 0,-35.839 -19.281,-69.242 -50.32,-87.164 L 472.852,19.4141 C 457.332,10.4531 439.934,5.96875 422.527,5.96875" /><path
         id="path26"
         style="fill:#ffffff;fill-opacity:1;fill-rule:nonzero;stroke:none"
         d="m 145.219,276.715 v -20.551 c 0,-19.281 9.394,-37.098 26.094,-46.734 L 395.992,79.4531 c 16.699,-9.6367 37.047,-9.6367 53.742,0 L 674.863,209.43 c 16.696,9.636 26.985,27.453 26.985,46.734 v 20.551 c -92.774,0 -183.864,49.113 -275.118,49.113 -94.128,0 -188.738,-49.113 -281.511,-49.113" /><path
         id="path28"
         style="fill:#2e2d2e;fill-opacity:1;fill-rule:nonzero;stroke:none"
         d="m 422.527,164.777 c -15.004,0 -27.214,-12.211 -27.214,-27.218 0,-15.004 12.21,-27.215 27.214,-27.215 15.012,0 27.219,12.211 27.219,27.215 0,15.007 -12.207,27.218 -27.219,27.218 z m 0,-5.457 c 12.016,0 21.762,-9.742 21.762,-21.761 0,-12.012 -9.746,-21.758 -21.762,-21.758 -12.011,0 -21.757,9.746 -21.757,21.758 0,12.019 9.746,21.761 21.757,21.761" /><path
         id="path30"
         style="fill:#2e2d2e;fill-opacity:1;fill-rule:nonzero;stroke:none"
         d="m 370.152,163.414 c -10.418,0 -18.89,-8.476 -18.89,-18.894 0,-10.418 8.472,-18.899 18.89,-18.899 10.414,0 18.895,8.481 18.895,18.899 0,10.418 -8.481,18.894 -18.895,18.894 z m 0,-4.094 c 8.172,0 14.801,-6.629 14.801,-14.8 0,-8.176 -6.629,-14.801 -14.801,-14.801 -8.175,0 -14.8,6.625 -14.8,14.801 0,8.171 6.625,14.8 14.8,14.8" /><path
         id="path32"
         style="fill:#2e2d2e;fill-opacity:1;fill-rule:nonzero;stroke:none"
         d="m 475.227,163.414 c -10.418,0 -18.899,-8.476 -18.899,-18.894 0,-10.418 8.481,-18.899 18.899,-18.899 10.418,0 18.894,8.481 18.894,18.899 0,10.418 -8.476,18.894 -18.894,18.894 z m 0,-4.094 c 8.175,0 14.8,-6.629 14.8,-14.8 0,-8.176 -6.625,-14.801 -14.8,-14.801 -8.176,0 -14.801,6.625 -14.801,14.801 0,8.171 6.625,14.8 14.801,14.8" /><path
         id="path34"
         style="fill:#2e2d2e;fill-opacity:1;fill-rule:nonzero;stroke:none"
         d="m 251.223,274.926 h -49.875 v -76.629 h 49.875 c 12.715,0 23.007,10.41 23.007,23 v 1.816 c 0,4.84 -1.578,9.563 -4.363,13.438 3.512,4.844 4.363,9.445 4.363,15.254 0,12.711 -10.292,23.121 -23.007,23.121 z m 3.875,-53.629 c 0,-2.059 -1.817,-3.754 -3.875,-3.754 h -30.625 v 38.137 h 30.625 c 3.515,0 3.875,-3.028 3.875,-5.692 0,-2.058 -1.817,-3.754 -3.875,-3.754 h -19.125 v -19.25 h 19.125 c 3.515,0 3.875,-3.023 3.875,-5.687 z m 28.09,53.629 v -76.629 h 19.246 v 76.629 z m 28.203,-38.375 c 0,-21.067 16.347,-38.254 36.441,-38.254 h 26.879 v 19.246 h -26.879 c -9.441,0 -17.187,8.477 -17.187,19.008 0,10.531 7.746,19.129 17.187,19.129 h 26.879 v 19.246 h -26.879 c -20.094,0 -36.441,-17.188 -36.441,-38.375 z m 119.129,38.5 c -5.325,-10.289 -10.653,-20.582 -16.34,-30.629 l -13.2,30.629 h -20.941 l 22.395,-51.821 c -2.297,-2.902 -7.024,-5.687 -10.774,-5.687 h -10.898 v -19.246 h 10.898 c 10.895,0 23,7.141 28.328,16.703 l 2.907,5.207 0.601,0.969 c 4.359,7.387 8.234,15.133 12.352,22.637 l 16.586,31.238 z m 16.828,-38.5 c 0,-21.067 16.343,-38.254 36.441,-38.254 h 26.875 v 19.246 h -26.875 c -9.441,0 -17.191,8.477 -17.191,19.008 0,10.531 7.75,19.129 17.191,19.129 h 26.875 v 19.246 h -26.875 c -20.098,0 -36.441,-17.188 -36.441,-38.375 z m 88.621,38.375 h -19.25 v -53.629 c 0,-12.711 10.289,-23 23,-23 h 36.441 v 19.246 h -36.441 c -2.055,0 -3.75,1.695 -3.75,3.754 z m 76.027,0 c -20.824,0 -36.441,-18.035 -36.441,-38.375 0,-20.219 15.617,-38.254 36.441,-38.254 h 31.715 v 19.246 h -31.715 c -6.418,0 -11.984,3.875 -14.891,9.441 h 32.204 v 19.25 h -32.204 c 2.907,5.45 8.473,9.446 14.891,9.446 h 31.715 v 19.246 h -31.715" /></g></g></svg>