<?xml version="1.0" encoding="UTF-8" standalone="no"?>
<svg
   xmlns:dc="http://purl.org/dc/elements/1.1/"
   xmlns:cc="http://creativecommons.org/ns#"
   xmlns:rdf="http://www.w3.org/1999/02/22-rdf-syntax-ns#"
   xmlns:svg="http://www.w3.org/2000/svg"
   xmlns="http://www.w3.org/2000/svg"
   viewBox="0 0 132 101.33333"
   height="101.33333"
   width="132"
   xml:space="preserve"
   id="svg2"
   version="1.1"><metadata
     id="metadata8"><rdf:RDF><cc:Work
         rdf:about=""><dc:format>image/svg+xml</dc:format><dc:type
           rdf:resource="http://purl.org/dc/dcmitype/StillImage" /></cc:Work></rdf:RDF></metadata><defs
     id="defs6" /><g
     transform="matrix(1.3333333,0,0,-1.3333333,0,101.33333)"
     id="g10"><g
       transform="scale(0.1)"
       id="g12"><path
         id="path14"
         style="fill:#4a153e;fill-opacity:1;fill-rule:nonzero;stroke:none"
         d="M 728.625,106.742 714.652,92.7734 75.2109,727.402 93.9961,746.188 728.625,106.742" /><path
         id="path16"
         style="fill:#4a153e;fill-opacity:1;fill-rule:nonzero;stroke:none"
         d="M 972.512,58.5977 C 968.555,54.6445 964.676,51.7813 961.867,50.1719 875.313,0.441406 810.148,1.55469 770.727,11.2344 732.395,20.6602 726.215,49.25 725.238,57.793 723.477,73.1211 709.102,86.6914 708.957,86.8281 l -3.66,3.4102 26.113,26.1207 3.375,-4.168 c 0.016,-0.019 2.344,-2.843 7.883,-7.855 4.383,-3.961 5.281,-3.781 8.621,-3.113 8.418,1.683 18.301,1.265 31.977,0.691 14.277,-0.601 32.047,-1.348 55.808,-0.035 46.426,2.566 71.438,25.355 75.981,29.898 2.242,2.246 14.277,13.383 30.953,12.442 11.687,-0.66 22.461,-7.09 32.031,-19.106 9.426,-11.836 12.926,-24.543 10.399,-37.7692 -2.329,-12.2305 -9.239,-22.0547 -15.926,-28.7461 z m -253.5,31.6992 v 0 c 5.129,-5.7266 14.242,-17.6485 15.824,-31.4063 2.137,-18.6093 16.414,-32.9179 38.195,-38.2695 37.707,-9.2656 100.239,-10.2031 184.024,37.9258 6.976,4.0039 19.082,15.8515 21.894,30.6094 1.973,10.332 -0.879,20.4067 -8.469,29.9377 -7.781,9.773 -16.199,14.98 -25.019,15.48 -12.832,0.727 -22.512,-8.562 -23.574,-9.625 -4.977,-4.98 -32.344,-29.9568 -82.278,-32.7185 -24.23,-1.336 -42.261,-0.5782 -56.75,0.0312 -13.004,0.5469 -22.398,0.9414 -29.671,-0.5117 -5.278,-1.0586 -9.586,-1.2852 -17,5.4258 -2.192,1.9805 -3.938,3.6642 -5.278,5.0192 L 719.012,90.2969" /><path
         id="path18"
         style="fill:#4a153e;fill-opacity:1;fill-rule:nonzero;stroke:none"
         d="M 977.609,89.3281 C 968.023,79.7422 947.598,65.4492 904.367,46.1719 820.121,8.60156 732.328,45.6758 731.453,46.0547 l 1.91,4.4336 c 0.86,-0.3672 86.766,-36.5899 169.039,0.0976 79.141,35.293 78.703,52.4261 78.692,52.5981 l 4.734,0.933 c 0.231,-0.969 0.746,-5.824 -8.219,-14.7889" /><path
         id="path20"
         style="fill:#4a153e;fill-opacity:1;fill-rule:nonzero;stroke:none"
         d="M 980.723,113.066 C 940.703,77.2344 888.84,54.7617 826.574,46.2734 763.309,37.6445 717.629,95.1289 717.172,95.707 l 3.808,2.9766 c 0.438,-0.5586 44.461,-55.875 104.942,-47.625 61.289,8.3594 112.289,30.4297 151.578,65.6054 l 3.223,-3.598" /><path
         id="path22"
         style="fill:#4a153e;fill-opacity:1;fill-rule:nonzero;stroke:none"
         d="M 968.789,128.152 C 968.332,127.711 922.258,83.3867 839.418,68.2734 787.086,58.7266 757.824,68.125 719.008,106.941 l 3.418,3.418 C 759.887,72.8945 788.105,63.8242 838.555,73.0273 919.852,87.8555 964.961,131.172 965.41,131.605 l 3.379,-3.453" /><path
         id="path24"
         style="fill:#4a153e;fill-opacity:1;fill-rule:nonzero;stroke:none"
         d="M 811.742,31.8594 747.52,96.0781 c -2.207,0.2735 -4.551,1.4727 -8.09,4.6759 -5.981,5.41 -8.399,8.398 -8.399,8.398 L 712.246,90.3672 c 0,0 15.797,-14.6641 17.789,-32.0234 1.992,-17.3633 14.617,-35.7227 41.844,-42.4141 C 793.621,10.5859 851.301,0.5 935.383,41.582 l -14.778,14.7774 c -62.613,-29.7071 -108.863,-24.5 -108.863,-24.5" /><path
         id="path26"
         style="fill:#4a153e;fill-opacity:1;fill-rule:nonzero;stroke:none"
         d="m 867.926,17.7969 -3.41,-3.4141 -80.907,80.9024 3.414,3.4179 80.903,-80.9062" /><path
         id="path28"
         style="fill:#4a153e;fill-opacity:1;fill-rule:nonzero;stroke:none"
         d="m 898.098,26.3398 -3.414,-3.4179 -70.875,70.875 3.418,3.4179 70.871,-70.875" /><path
         id="path30"
         style="fill:#4a153e;fill-opacity:1;fill-rule:nonzero;stroke:none"
         d="m 925.051,38.1016 -3.418,-3.418 -63.274,63.2734 3.418,3.414 63.274,-63.2694" /><path
         id="path32"
         style="fill:#4a153e;fill-opacity:1;fill-rule:nonzero;stroke:none"
         d="m 951.297,50.5664 -3.414,-3.4141 -59.254,59.2497 3.414,3.418 59.254,-59.2536" /><path
         id="path34"
         style="fill:#4a153e;fill-opacity:1;fill-rule:nonzero;stroke:none"
         d="m 973.832,66.7422 -3.418,-3.418 -59.164,59.1678 3.418,3.414 59.164,-59.1638" /><path
         id="path36"
         style="fill:#4a153e;fill-opacity:1;fill-rule:nonzero;stroke:none"
         d="m 111.504,744.051 c 15.324,-15.324 20.101,-35.399 10.668,-44.828 -9.43,-9.434 -29.5001,-4.657 -44.8282,10.675 -15.3282,15.325 -20.1055,35.395 -10.6758,44.829 9.4336,9.433 29.5078,4.652 44.836,-10.676" /><path
         id="path38"
         style="fill:#4a153e;fill-opacity:1;fill-rule:nonzero;stroke:none"
         d="m 88.6797,740.289 c 5.125,-9 4.7891,-18.848 -0.7461,-22.004 -5.5391,-3.152 -14.1797,1.582 -19.3008,10.582 -5.1289,9 -4.793,18.848 0.7461,22 5.5352,3.156 14.1797,-1.582 19.3008,-10.578" /><path
         id="path40"
         style="fill:#4a153e;fill-opacity:1;fill-rule:nonzero;stroke:none"
         d="M 705.84,134.34 687.055,115.559 709.258,93.3516 728.043,112.141 705.84,134.34" /><path
         id="path42"
         style="fill:#4a153e;fill-opacity:1;fill-rule:nonzero;stroke:none"
         d="m 789.242,93.0703 -19.926,-19.9297 -3.414,3.418 19.922,19.9258 3.418,-3.4141" /><path
         id="path44"
         style="fill:#4a153e;fill-opacity:1;fill-rule:nonzero;stroke:none"
         d="m 816.855,66.6875 -4.414,1.9531 11.879,26.8282 4.418,-1.9532 -11.883,-26.8281" /><path
         id="path46"
         style="fill:#4a153e;fill-opacity:1;fill-rule:nonzero;stroke:none"
         d="m 849.805,72.2305 -4.278,2.2461 13.965,26.6444 4.281,-2.246 -13.968,-26.6445" /><path
         id="path48"
         style="fill:#4a153e;fill-opacity:1;fill-rule:nonzero;stroke:none"
         d="m 880.988,80.0234 -4.445,1.8946 11.574,27.141 4.442,-1.895 -11.571,-27.1406" /><path
         id="path50"
         style="fill:#4a153e;fill-opacity:1;fill-rule:nonzero;stroke:none"
         d="m 907.504,92.6914 -4.684,1.1797 7.797,30.9139 4.684,-1.176 -7.797,-30.9176" /><path
         id="path52"
         style="fill:#4a153e;fill-opacity:1;fill-rule:nonzero;stroke:none"
         d="M 262.391,106.742 276.367,92.7734 915.805,727.402 897.023,746.188 262.391,106.742" /><path
         id="path54"
         style="fill:#4a153e;fill-opacity:1;fill-rule:nonzero;stroke:none"
         d="M 2.57422,87.3438 C 0.0507813,100.57 3.55469,113.277 12.9727,125.113 c 9.5703,12.016 20.3476,18.446 32.0312,19.106 16.6797,0.941 28.7149,-10.196 30.957,-12.442 4.5391,-4.543 29.5551,-27.332 75.9801,-29.898 23.762,-1.313 41.528,-0.566 55.809,0.035 13.676,0.574 23.559,0.992 31.977,-0.691 3.343,-0.668 4.238,-0.848 8.617,3.113 5.543,5.012 7.871,7.836 7.883,7.855 l 3.378,4.168 26.11,-26.1207 -3.656,-3.4102 C 281.914,86.6914 267.539,73.1211 265.781,57.793 264.797,49.25 258.617,20.6602 220.289,11.2344 180.863,1.55469 115.707,0.441406 29.1484,50.1719 26.3398,51.7813 22.4609,54.6445 18.5039,58.5977 11.8164,65.2891 4.90625,75.1133 2.57422,87.3438 Z M 260.109,102.195 v 0 c -1.343,-1.355 -3.089,-3.0387 -5.281,-5.0192 -7.414,-6.711 -11.723,-6.4844 -16.996,-5.4258 -7.281,1.4531 -16.672,1.0586 -29.676,0.5117 -14.484,-0.6094 -32.519,-1.3672 -56.75,-0.0312 -49.933,2.7617 -77.3005,27.7385 -82.2771,32.7185 -1.0625,1.063 -10.7422,10.352 -23.5781,9.625 -8.8203,-0.5 -17.2344,-5.707 -25.0156,-15.48 C 12.9414,109.563 10.0898,99.4883 12.0664,89.1563 14.875,74.3984 26.9844,62.5508 33.9648,58.5469 117.742,10.418 180.277,11.3555 217.984,20.6211 c 21.782,5.3516 36.059,19.6602 38.196,38.2695 1.578,13.7578 10.695,25.6797 15.824,31.4063 l -11.895,11.8981" /><path
         id="path56"
         style="fill:#4a153e;fill-opacity:1;fill-rule:nonzero;stroke:none"
         d="M 13.4063,89.3281 C 22.9922,79.7422 43.418,65.4492 86.6445,46.1719 170.898,8.60156 258.688,45.6758 259.563,46.0547 l -1.915,4.4336 C 256.789,50.1211 170.883,13.8984 88.6133,50.5859 9.47266,85.8789 9.90625,103.012 9.92188,103.184 l -4.73438,0.933 c -0.22656,-0.969 -0.75,-5.824 8.2188,-14.7889" /><path
         id="path58"
         style="fill:#4a153e;fill-opacity:1;fill-rule:nonzero;stroke:none"
         d="M 10.293,113.066 C 50.3164,77.2344 102.18,54.7617 164.445,46.2734 227.707,37.6445 273.387,95.1289 273.84,95.707 l -3.805,2.9766 C 269.594,98.125 225.578,42.8086 165.098,51.0586 103.805,59.418 52.8047,81.4883 13.5156,116.664 l -3.2226,-3.598" /><path
         id="path60"
         style="fill:#4a153e;fill-opacity:1;fill-rule:nonzero;stroke:none"
         d="m 22.2266,128.152 c 0.457,-0.441 46.5351,-44.7653 129.3714,-59.8786 52.332,-9.5468 81.59,-0.1484 120.41,38.6676 l -3.414,3.418 C 231.129,72.8945 202.91,63.8242 152.461,73.0273 71.1641,87.8555 26.0508,131.172 25.6055,131.605 l -3.3789,-3.453" /><path
         id="path62"
         style="fill:#4a153e;fill-opacity:1;fill-rule:nonzero;stroke:none"
         d="m 179.277,31.8594 64.219,64.2187 c 2.207,0.2735 4.551,1.4727 8.09,4.6759 5.977,5.41 8.398,8.398 8.398,8.398 L 278.77,90.3672 c 0,0 -15.797,-14.6641 -17.79,-32.0234 C 258.988,40.9805 246.363,22.6211 219.137,15.9297 197.391,10.5859 139.715,0.5 55.6328,41.582 l 14.7774,14.7774 c 62.6168,-29.7071 108.8668,-24.5 108.8668,-24.5" /><path
         id="path64"
         style="fill:#4a153e;fill-opacity:1;fill-rule:nonzero;stroke:none"
         d="m 123.086,17.7969 3.418,-3.4141 80.902,80.9024 -3.418,3.4179 -80.902,-80.9062" /><path
         id="path66"
         style="fill:#4a153e;fill-opacity:1;fill-rule:nonzero;stroke:none"
         d="m 92.918,26.3398 3.414,-3.4179 70.875,70.875 -3.414,3.4179 -70.875,-70.875" /><path
         id="path68"
         style="fill:#4a153e;fill-opacity:1;fill-rule:nonzero;stroke:none"
         d="m 65.9648,38.1016 3.4141,-3.418 63.2771,63.2734 -3.418,3.414 -63.2732,-63.2694" /><path
         id="path70"
         style="fill:#4a153e;fill-opacity:1;fill-rule:nonzero;stroke:none"
         d="M 39.7188,50.5664 43.1367,47.1523 102.387,106.402 98.9727,109.82 39.7188,50.5664" /><path
         id="path72"
         style="fill:#4a153e;fill-opacity:1;fill-rule:nonzero;stroke:none"
         d="m 17.1836,66.7422 3.418,-3.418 59.1601,59.1678 -3.414,3.414 -59.1641,-59.1638" /><path
         id="path74"
         style="fill:#4a153e;fill-opacity:1;fill-rule:nonzero;stroke:none"
         d="m 879.516,744.051 c -15.328,-15.324 -20.11,-35.399 -10.676,-44.828 9.433,-9.434 29.504,-4.657 44.832,10.675 15.328,15.325 20.105,35.395 10.676,44.829 -9.434,9.433 -29.504,4.652 -44.832,-10.676" /><path
         id="path76"
         style="fill:#4a153e;fill-opacity:1;fill-rule:nonzero;stroke:none"
         d="m 902.336,740.289 c -5.129,-9 -4.789,-18.848 0.746,-22.004 5.535,-3.152 14.18,1.582 19.305,10.582 5.125,9 4.785,18.848 -0.75,22 -5.535,3.156 -14.176,-1.582 -19.301,-10.578" /><path
         id="path78"
         style="fill:#4a153e;fill-opacity:1;fill-rule:nonzero;stroke:none"
         d="m 285.176,134.34 18.785,-18.781 -22.203,-22.2074 -18.785,18.7894 22.203,22.199" /><path
         id="path80"
         style="fill:#4a153e;fill-opacity:1;fill-rule:nonzero;stroke:none"
         d="m 201.773,93.0703 19.926,-19.9297 3.414,3.418 -19.925,19.9258 -3.415,-3.4141" /><path
         id="path82"
         style="fill:#4a153e;fill-opacity:1;fill-rule:nonzero;stroke:none"
         d="m 174.16,66.6875 4.414,1.9531 -11.883,26.8282 -4.414,-1.9532 11.883,-26.8281" /><path
         id="path84"
         style="fill:#4a153e;fill-opacity:1;fill-rule:nonzero;stroke:none"
         d="m 141.211,72.2305 4.277,2.2461 -13.965,26.6444 -4.281,-2.246 13.969,-26.6445" /><path
         id="path86"
         style="fill:#4a153e;fill-opacity:1;fill-rule:nonzero;stroke:none"
         d="m 110.031,80.0234 4.442,1.8946 -11.571,27.141 -4.445,-1.895 11.574,-27.1406" /><path
         id="path88"
         style="fill:#4a153e;fill-opacity:1;fill-rule:nonzero;stroke:none"
         d="m 83.5078,92.6914 4.6836,1.1797 -7.7969,30.9139 -4.6797,-1.176 7.793,-30.9176" /><path
         id="path90"
         style="fill:#bfb290;fill-opacity:1;fill-rule:nonzero;stroke:none"
         d="m 793.57,593.457 c 0,0 -77.148,65.617 -318.39,106.43 v 0.422 c -0.414,-0.071 -0.813,-0.145 -1.223,-0.211 -0.41,0.066 -0.812,0.14 -1.23,0.211 v -0.422 C 231.488,659.074 154.336,593.457 154.336,593.457 190.242,97.0117 445.227,45.4688 472.727,41.3398 v -0.3242 c 0,0 0.453,0.0469 1.23,0.1524 0.777,-0.1055 1.223,-0.1524 1.223,-0.1524 v 0.3242 c 27.504,4.129 282.484,55.6719 318.39,552.1172" /><path
         id="path92"
         style="fill:#bfb290;fill-opacity:1;fill-rule:nonzero;stroke:none"
         d="m 777.527,585.664 c 0,0 -73.281,62.32 -302.406,101.09 v 0.394 c -0.394,-0.066 -0.777,-0.132 -1.164,-0.199 -0.394,0.067 -0.777,0.133 -1.164,0.199 v -0.394 C 243.656,647.984 170.375,585.664 170.375,585.664 204.488,114.145 446.668,65.1836 472.793,61.2695 V 60.957 c 0,0 0.426,0.043 1.164,0.1446 0.734,-0.1016 1.164,-0.1446 1.164,-0.1446 v 0.3125 c 26.125,3.9141 268.297,52.8755 302.406,524.3945" /><path
         id="path94"
         style="fill:#4a153e;fill-opacity:1;fill-rule:nonzero;stroke:none"
         d="m 757.734,568.473 c 0,0 -68.507,58.257 -282.687,94.496 v 0.371 c -0.371,-0.059 -0.727,-0.121 -1.082,-0.184 -0.379,0.063 -0.727,0.125 -1.09,0.184 v -0.371 C 258.684,626.73 190.18,568.473 190.18,568.473 222.059,127.695 448.457,81.9336 472.875,78.2734 v -0.2929 c 0,0 0.391,0.039 1.09,0.1328 0.68,-0.0938 1.082,-0.1328 1.082,-0.1328 v 0.2929 c 24.418,3.6602 250.801,49.4216 282.687,490.1996" /><path
         id="path96"
         style="fill:#bfb290;fill-opacity:1;fill-rule:nonzero;stroke:none"
         d="m 473.965,629.23 7.89,-16.011 17.665,-2.563 -12.786,-12.461 3.02,-17.59 -15.789,8.301 -15.805,-8.301 3.016,17.59 -12.781,12.461 17.668,2.563 7.902,16.011" /><path
         id="path98"
         style="fill:#ffffff;fill-opacity:1;fill-rule:nonzero;stroke:none"
         d="m 230.93,552.02 c 0,0 -0.45,-336.985 227.058,-449.563 0,0 -203.211,109.711 -203.211,443.625 0,0 52.473,34.523 136.43,58.832 0,0 -124.027,-24.309 -160.277,-52.894" /><path
         id="path100"
         style="fill:#8c2b84;fill-opacity:1;fill-rule:nonzero;stroke:none"
         d="m 658.254,499.129 c 0,0 -44.492,37.84 -183.59,61.371 v 0.242 c -0.242,-0.039 -0.473,-0.082 -0.707,-0.125 -0.242,0.043 -0.473,0.086 -0.711,0.125 V 560.5 C 334.148,536.969 289.66,499.129 289.66,499.129 310.371,212.867 457.395,183.156 473.246,180.766 v -0.184 c 0,0 0.266,0.031 0.711,0.09 0.449,-0.059 0.707,-0.09 0.707,-0.09 v 0.184 c 15.859,2.39 162.879,32.101 183.59,318.363" /><path
         id="path102"
         style="fill:#bfb290;fill-opacity:1;fill-rule:nonzero;stroke:none"
         d="M 675.945,662.441 298.02,462.879 l 302.824,119.262 75.101,80.3" /><path
         id="path104"
         style="fill:#bfb290;fill-opacity:1;fill-rule:nonzero;stroke:none"
         d="m 616.313,571.941 -334.329,-134.789 319.719,78.368 14.61,56.421" /><path
         id="path106"
         style="fill:#bfb290;fill-opacity:1;fill-rule:nonzero;stroke:none"
         d="m 607.453,493.316 -320.82,-70.347 343.84,32.551 -23.02,37.796" /><path
         id="path108"
         style="fill:#bfb290;fill-opacity:1;fill-rule:nonzero;stroke:none"
         d="m 719.289,416.031 -411.785,-6.285 356.16,35.008 55.625,-28.723" /><path
         id="path110"
         style="fill:#bfb290;fill-opacity:1;fill-rule:nonzero;stroke:none"
         d="m 694.16,650.113 c -60.758,-4.074 -106.867,-56.82 -102.789,-117.574 4.078,-60.762 56.817,-106.871 117.574,-102.797 60.758,4.078 106.875,56.821 102.793,117.578 -4.074,60.758 -56.824,106.871 -117.578,102.793 z m 15.774,-235.062 c -68.86,-4.617 -128.641,47.644 -133.258,116.5 -4.621,68.859 47.64,128.637 116.5,133.254 68.859,4.621 128.64,-47.641 133.262,-116.496 4.613,-68.856 -47.645,-128.637 -116.504,-133.258" /><path
         id="path112"
         style="fill:#ffffff;fill-opacity:1;fill-rule:nonzero;stroke:none"
         d="m 808.41,539.93 c 0,-59.016 -47.84,-106.856 -106.855,-106.856 -59.012,0 -106.856,47.84 -106.856,106.856 0,59.015 47.844,106.855 106.856,106.855 59.015,0 106.855,-47.84 106.855,-106.855" /><path
         id="path114"
         style="fill:#4a153e;fill-opacity:1;fill-rule:nonzero;stroke:none"
         d="m 701.555,427.922 c -61.762,0 -112.008,50.246 -112.008,112.008 0,61.761 50.246,112.004 112.008,112.004 61.758,0 112.004,-50.243 112.004,-112.004 0,-61.762 -50.246,-112.008 -112.004,-112.008 z m 0,213.715 v 0 c -56.082,0 -101.707,-45.629 -101.707,-101.707 0,-56.082 45.625,-101.707 101.707,-101.707 56.082,0 101.707,45.625 101.707,101.707 0,56.078 -45.625,101.707 -101.707,101.707" /><path
         id="path116"
         style="fill:#4a153e;fill-opacity:1;fill-rule:nonzero;stroke:none"
         d="m 793.699,573.59 c 3.098,0 6,0.797 8.528,2.191 -4.024,11.301 -9.899,21.715 -17.254,30.895 -5.352,-3.043 -8.973,-8.785 -8.973,-15.387 0,-9.777 7.926,-17.699 17.699,-17.699 z m -46.07,44.922 v 0 c 6.551,0 12.254,3.566 15.312,8.855 -9.566,6.731 -20.285,11.926 -31.804,15.238 -0.77,-1.988 -1.211,-4.136 -1.211,-6.394 0,-9.773 7.926,-17.699 17.703,-17.699 z m 46.07,-100.52 v 0 c -9.773,0 -17.699,-7.922 -17.699,-17.699 0,-9.121 6.91,-16.629 15.777,-17.59 6.008,9.453 10.586,19.899 13.395,31.055 -3.09,2.637 -7.09,4.234 -11.473,4.234 z m -138.215,-46.07 v 0 c -9.777,0 -17.699,-7.922 -17.699,-17.699 0,-0.012 0,-0.024 0,-0.035 8.289,-6.18 17.508,-11.176 27.406,-14.758 4.809,3.168 7.993,8.605 7.993,14.793 0,9.777 -7.926,17.699 -17.7,17.699 z m -15.316,155.445 v 0 c 3.059,-5.289 8.766,-8.855 15.316,-8.855 9.774,0 17.7,7.926 17.7,17.699 0,2.258 -0.438,4.406 -1.211,6.394 -11.52,-3.312 -22.239,-8.507 -31.805,-15.238 z m 107.461,-64.449 v 0 c -9.777,0 -17.703,-7.926 -17.703,-17.703 0,-9.774 7.926,-17.699 17.703,-17.699 9.773,0 17.699,7.925 17.699,17.699 0,9.777 -7.926,17.703 -17.699,17.703 z m -46.074,-44.926 v 0 c -9.778,0 -17.7,-7.922 -17.7,-17.699 0,-9.773 7.922,-17.699 17.7,-17.699 9.773,0 17.703,7.926 17.703,17.699 0,9.777 -7.93,17.699 -17.703,17.699 z m 0,90.996 v 0 c -9.778,0 -17.7,-7.925 -17.7,-17.699 0,-9.777 7.922,-17.699 17.7,-17.699 9.773,0 17.703,7.922 17.703,17.699 0,9.774 -7.93,17.699 -17.703,17.699 z m -83.418,-2.312 v 0 c -7.356,-9.18 -13.231,-19.594 -17.254,-30.895 2.527,-1.394 5.433,-2.191 8.531,-2.191 9.774,0 17.699,7.922 17.699,17.699 0,6.602 -3.621,12.344 -8.976,15.387 z M 747.629,471.922 v 0 c -9.777,0 -17.703,-7.922 -17.703,-17.699 0,-6.188 3.183,-11.625 7.996,-14.793 9.894,3.582 19.113,8.578 27.406,14.758 0,0.011 0,0.023 0,0.035 0,9.777 -7.926,17.699 -17.699,17.699 z m -138.215,46.07 v 0 c -4.383,0 -8.383,-1.597 -11.473,-4.234 2.809,-11.156 7.383,-21.602 13.391,-31.055 8.871,0.961 15.781,8.469 15.781,17.59 0,9.777 -7.925,17.699 -17.699,17.699 z m 46.07,44.926 v 0 c -9.777,0 -17.699,-7.926 -17.699,-17.703 0,-9.774 7.922,-17.699 17.699,-17.699 9.774,0 17.7,7.925 17.7,17.699 0,9.777 -7.926,17.703 -17.7,17.703" /><path
         id="path118"
         style="fill:#4a153e;fill-opacity:1;fill-rule:nonzero;stroke:none"
         d="M 110.504,385.824 H 217.285 V 245.629 l 32.227,-0.176 c -0.293,33.746 -2.832,69.906 -0.117,103.332 l 3.168,10.188 v 0.035 l 1.648,5.222 3.434,4.684 6.664,7.406 7.578,4.496 2.754,1.84 7.035,1.969 8.246,1.211 9.828,-0.481 8.426,-1.535 6.035,-2.621 4.59,-2.699 4.574,-3.766 5.285,-6.043 3.168,-5.277 2.563,-5.633 2.449,-10.551 0.004,-0.226 0.144,1.781 3.172,10.188 v 0.035 l 1.649,5.222 3.433,4.684 6.664,7.406 7.578,4.496 2.754,1.84 7.039,1.969 8.239,1.211 9.832,-0.481 8.429,-1.535 6.032,-2.621 4.589,-2.699 4.575,-3.766 5.285,-6.043 3.168,-5.277 2.558,-5.633 1.875,-8.058 v 36.101 h 48.786 l 9.277,-1.465 9.43,-2.882 0.918,-0.688 1.386,-0.457 5,-3.887 4.672,-4.418 2.141,-2.75 3.976,-7.457 1.985,-5.105 3.105,-21.293 v 50.422 c 15.086,-0.09 30.176,-0.188 45.262,-0.262 2.91,-0.32 5.82,-0.629 8.73,-0.945 l 9.914,-3.305 c 1.075,-0.644 2.149,-1.297 3.231,-1.93 l 8.051,-5.445 7.054,-8.621 4.336,-9.941 2.61,-11.387 0.457,-16.195 -1.051,-7.872 -3.453,-9.668 -4.059,-8.363 -3.797,-4.32 4.684,-5.074 4.492,-7.664 2.723,-8.411 2.754,-14.468 -1.125,-19.61 -1.278,-5.621 -2.172,-6.719 c -0.558,-1.546 -1.152,-3.089 -1.73,-4.628 l -1.785,-2.684 -0.442,-0.578 -3.691,-4.613 -3.625,-3.903 -5.078,-2.793 -2.524,-1.769 -6.636,-2.309 -12.543,-2.238 -44.621,-0.231 0.004,-0.011 h -2.563 l -2.129,-0.012 v 0.012 h -38.086 l -10.527,47.945 v -47.945 h -42.063 v 38.16 l -0.421,-2.637 -3.387,-11.129 -4.832,-8.14 -4,-4.497 -4.645,-4.375 -5.722,-3.269 -6.086,-2.211 -5.68,-0.949 -0.648,-0.067 -6.598,-0.601 v -0.016 l -2.832,-0.312 -8.699,0.992 -4.36,1.09 -6.133,2.402 -6.593,4.313 -4.731,4.207 -2.902,3.769 -3.102,5.164 -3.8,9.508 -1.563,7.551 -0.035,4.363 -1.25,-7.793 -3.387,-11.129 -4.832,-8.14 -3.996,-4.497 -4.648,-4.375 -5.723,-3.269 -6.086,-2.211 -5.68,-0.949 -0.648,-0.067 -6.602,-0.601 0.004,-0.016 -2.828,-0.312 -8.703,0.992 -4.356,1.09 -6.136,2.402 -6.594,4.313 -4.727,4.207 -2.906,3.769 -3.101,5.164 -0.063,0.164 v -22.058 l -78.785,0.265 v 140.258 h -32.609 v -25.43 h 28.105 v -41.246 h -28.105 v -73.847 h -41.653 v 181.558 z m 184.101,-39.523 -0.914,0.269 -0.089,0.047 -1.278,-0.211 0.004,-0.011 -0.91,-0.184 -0.559,-1.039 -0.582,-1.414 -0.406,-93.426 -0.105,-0.828 0.074,-0.59 0.152,-2.289 0.922,-2.496 0.445,-0.25 0.168,-0.074 2.145,-0.321 0.301,0.047 0.66,0.367 0.156,0.153 0.297,0.515 0.398,1.344 0.809,93.242 h -0.035 v 2.43 l -0.383,1.797 -0.484,1.851 -0.368,0.469 -0.07,0.137 z m 87.602,0 -0.918,0.269 -0.086,0.047 -1.281,-0.211 v -0.011 l -0.906,-0.184 -0.559,-1.039 -0.582,-1.414 -0.406,-93.426 -0.106,-0.828 0.075,-0.59 0.156,-2.289 0.918,-2.496 0.445,-0.25 0.168,-0.074 2.145,-0.321 0.3,0.047 0.66,0.367 0.157,0.153 0.301,0.515 0.39,1.344 0.813,93.242 h -0.032 v 2.43 l -0.386,1.797 -0.489,1.851 -0.367,0.469 -0.066,0.137 z m 118.176,-60.313 14.152,-61.383 v 98.997 l -1.57,-12.563 -3.141,-11.117 -4.246,-7.734 -4.582,-5.735 z m -29.613,57.871 -0.727,0.243 -1.328,0.277 h -2.793 v -29.738 h 2.859 l 1.231,0.218 0.605,0.528 0.75,1.586 0.625,2.406 0.692,5.887 v 12.058 l -0.778,4.391 -0.652,1.633 z m 89.605,-0.957 -0.789,0.786 -0.25,0.125 -0.191,0.031 -1.504,0.578 -1.293,0.16 h -0.575 v -27.277 h 0.614 l 1.066,0.136 0.422,0.27 0.828,0.734 1.676,2.16 0.504,1.258 0.172,0.676 0.855,4.793 -0.539,11.941 -0.394,2.266 -0.504,1.242 z m -1.457,-67.043 h -3.145 v -30.558 h 3.731 l 0.684,0.226 0.332,0.278 0.843,0.508 0.207,0.308 1.301,3.035 0.41,2.047 0.692,6.305 v 9.23 l -0.465,2.578 -2.02,4.747 -0.312,0.316 -0.406,0.246 z m 118.988,102.606 22.899,-142.012 v 149.371 h 41.246 V 245.629 l 31.379,-0.172 v 140.367 h 41.238 V 245.629 l 37.543,-0.207 v -41.156 l -72.621,0.246 v -0.246 l -73.633,0.246 0.039,-0.246 h -42.379 l -5.121,35.867 -9.277,-0.074 -4.942,-35.793 h -41.714 l 27.46,181.558 h 46.7 l 1.183,-7.359" /><path
         id="path120"
         style="fill:#ffffff;fill-opacity:1;fill-rule:nonzero;stroke:none"
         d="m 173.484,376.645 h -62.98 V 212.531 h 24.207 v 73.852 h 28.102 v 23.793 h -28.102 v 42.875 h 38.773 z m 11.282,0 V 212.738 l 61.336,-0.207 v 23.797 l -37.543,0.207 v 140.11 z m 120.824,-1.641 -6.766,1.23 -8.41,0.411 -6.976,-1.028 -5.129,-1.437 -1.844,-1.231 -6.567,-3.894 -5.539,-6.157 -2.257,-3.074 -1.231,-3.898 -2.871,-9.231 -0.617,-7.59 0.824,-95.39 1.231,-5.949 3.281,-8.207 2.461,-4.102 2.05,-2.668 3.696,-3.281 5.336,-3.488 4.715,-1.844 3.281,-0.824 7.18,-0.821 1.847,0.207 6.77,0.614 4.922,0.824 4.515,1.64 4.309,2.461 3.484,3.282 3.281,3.695 3.899,6.562 2.871,9.434 1.641,10.258 -0.817,94.16 -2.055,8.82 -2.05,4.516 -2.461,4.101 -4.309,4.922 -3.484,2.875 -3.488,2.047 z m -8.82,-20.719 2.054,-0.613 1.641,-1.231 0.82,-1.031 0.613,-0.82 1.438,-1.844 1.027,-3.898 0.614,-2.875 v -3.278 l -0.817,-94.574 -1.027,-3.484 -1.438,-2.461 -1.847,-1.848 -0.614,-0.617 h -0.617 l -1.847,-1.023 -2.665,-0.411 h -0.82 l -4.101,0.618 -1.848,0.816 -1.848,1.027 -1.023,0.821 -1.231,1.847 -0.41,1.024 -1.437,3.898 -0.207,3.074 -0.203,1.645 0.203,1.641 0.414,94.367 1.433,3.488 1.438,2.664 0.613,0.82 0.41,0.207 0.617,0.614 0.614,0.41 0.824,0.617 0.816,0.207 1.235,0.203 1.023,0.203 1.231,0.203 1.437,0.414 2.254,-0.203 z m 96.418,20.719 -6.77,1.23 -8.41,0.411 -6.973,-1.028 -5.129,-1.437 -1.843,-1.231 -6.567,-3.894 -5.539,-6.157 -2.258,-3.074 -1.23,-3.898 -2.875,-9.231 -0.614,-7.59 0.821,-95.39 1.23,-5.949 3.285,-8.207 2.457,-4.102 2.055,-2.668 3.692,-3.281 5.332,-3.488 4.722,-1.844 3.281,-0.824 7.18,-0.821 1.844,0.207 6.769,0.614 4.926,0.824 4.512,1.64 4.309,2.461 3.488,3.282 3.281,3.695 3.899,6.562 2.871,9.434 1.64,10.258 -0.82,94.16 -2.051,8.82 -2.051,4.516 -2.461,4.101 -4.308,4.922 -3.488,2.875 -3.485,2.047 z m -8.821,-20.719 2.051,-0.613 1.641,-1.231 0.82,-1.031 0.617,-0.82 1.438,-1.844 1.023,-3.898 0.617,-2.875 v -3.278 l -0.82,-94.574 -1.027,-3.484 -1.438,-2.461 -1.844,-1.848 -0.613,-0.617 h -0.617 l -1.848,-1.023 -2.668,-0.411 h -0.82 l -4.102,0.618 -1.847,0.816 -1.844,1.027 -1.027,0.821 -1.231,1.847 -0.41,1.024 -1.434,3.898 -0.207,3.074 -0.203,1.645 0.203,1.641 0.411,94.367 1.437,3.488 1.434,2.664 0.617,0.82 0.41,0.207 0.613,0.614 0.617,0.41 0.821,0.617 0.82,0.207 1.231,0.203 1.027,0.203 1.23,0.203 1.434,0.414 2.258,-0.203 z m 87.801,22.36 h -39.59 V 212.531 h 24.613 v 69.133 h 11.079 l 15.183,-69.133 h 24.82 l -17.64,76.516 4.305,3.285 3.285,4.106 3.488,6.355 2.664,9.437 1.438,11.489 v 10.668 l -2.872,19.695 -1.437,3.691 -3.281,6.153 -1.438,1.844 -3.691,3.492 -3.696,2.871 -1.23,0.41 -0.82,0.617 -7.383,2.254 z m 0.273,-24.618 3.11,-1.023 2.945,-3.113 0.613,-1.231 1.231,-3.078 1.058,-5.98 v -13.2 l -0.816,-6.976 -1.027,-3.93 -1.641,-3.488 -0.617,-1.063 -1.024,-0.613 -1.64,-1.437 -1.645,-0.821 -3.484,-0.613 h -12.313 v 47.184 h 12.313 z m 86.707,24.414 -35.902,0.204 V 212.531 l 39.598,0.207 11.484,2.047 4.719,1.645 2.051,1.433 4.101,2.258 2.672,2.871 3.281,4.106 1.231,1.843 1.23,3.286 2.051,6.355 1.027,4.516 1.024,17.847 -2.461,12.922 -2.258,6.977 -3.484,5.949 -4.926,5.336 -1.438,1.23 -1.23,1.024 -3.281,2.055 3.691,3.074 5.949,6.769 3.286,6.77 3.078,8.617 0.816,6.152 -0.406,14.563 -2.258,9.851 -3.488,8 -5.539,6.77 -6.973,4.715 -2.055,1.23 -8,2.668 z m 4.379,-25.437 0.817,-0.414 0.789,-0.613 1.64,-1.641 1.231,-1.434 1.402,-3.492 0.617,-3.484 0.614,-13.746 -1.024,-5.742 -0.414,-1.641 -1.23,-3.078 -2.871,-3.692 -1.844,-1.64 -2.258,-1.442 -1.23,-0.41 -1.231,-0.203 -1.64,-0.203 h -9.852 v 44.719 h 9.578 l 3.246,-0.407 1.606,-0.621 1.23,-0.203 z m -6.566,-66.879 h 3.523 l 4.137,-1.641 2.082,-1.265 1.645,-1.641 0.617,-0.82 2.902,-6.84 0.821,-4.547 v -10.152 l -0.821,-7.457 -0.613,-3.074 -2.055,-4.79 -1.64,-2.46 -2.051,-1.231 -1.024,-0.855 -3.695,-1.231 h -13.746 v 48.004 z m 97.375,56.004 8.82,-68.723 h -18.465 l 8.004,68.52 z m 41.437,-127.598 -26.46,164.114 H 637.512 L 612.688,212.531 h 24.003 l 4.926,35.696 24.41,0.203 5.129,-35.899 z m 13.743,164.114 V 212.738 l 61.339,-0.207 v 23.797 l -37.539,0.207 v 140.11 z m 72.625,0 V 212.738 l 61.336,-0.207 v 23.797 l -37.539,0.207 v 140.11 h -23.797" /></g></g></svg>