<?xml version="1.0" encoding="UTF-8" standalone="no"?>
<svg
   xmlns:dc="http://purl.org/dc/elements/1.1/"
   xmlns:cc="http://creativecommons.org/ns#"
   xmlns:rdf="http://www.w3.org/1999/02/22-rdf-syntax-ns#"
   xmlns:svg="http://www.w3.org/2000/svg"
   xmlns="http://www.w3.org/2000/svg"
   viewBox="0 0 190.66667 142.66667"
   height="142.66667"
   width="190.66667"
   xml:space="preserve"
   id="svg2"
   version="1.1"><metadata
     id="metadata8"><rdf:RDF><cc:Work
         rdf:about=""><dc:format>image/svg+xml</dc:format><dc:type
           rdf:resource="http://purl.org/dc/dcmitype/StillImage" /></cc:Work></rdf:RDF></metadata><defs
     id="defs6" /><g
     transform="matrix(1.3333333,0,0,-1.3333333,0,142.66667)"
     id="g10"><g
       transform="scale(0.1)"
       id="g12"><path
         id="path14"
         style="fill:#ffffff;fill-opacity:1;fill-rule:nonzero;stroke:none"
         d="m 1189.34,439.859 c 0,0 -138.39,-419.5856 -458.992,-419.5856 -320.598,0 -457.25,419.5856 -457.25,419.5856 V 1051.87 H 1189.34 V 439.859" /><path
         id="path16"
         style="fill:#004047;fill-opacity:1;fill-rule:nonzero;stroke:none"
         d="m 730.348,3.17578 c -68.516,0 -134.223,18.85552 -195.41,55.53902 -60.879,36.4961 -117.239,90.6762 -167.364,161.5042 -25.543,36.094 -46.328,71.867 -62.676,103.523 -31.781,61.528 -47.101,107.942 -48.043,110.84 L 256,437.18 v 631.78 h 950.43 V 437.129 l -0.86,-2.613 c -0.95,-2.895 -16.47,-49.321 -48.5,-110.828 -16.48,-31.665 -37.41,-67.442 -63.1,-103.516 C 1043.58,149.375 987.008,95.2109 925.973,58.7109 864.637,22.0313 798.855,3.17578 730.348,3.17578 Z M 290.188,442.691 C 298.055,420.145 358.801,254.633 481.25,142.047 546.336,82.2031 628.949,37.3672 730.348,37.3672 c 101.433,0 184.238,44.8359 249.582,104.6838 122.81,112.48 184.25,277.789 192.32,300.625 V 1034.77 H 290.188 V 442.691" /><path
         id="path18"
         style="fill:#ffffff;fill-opacity:1;fill-rule:nonzero;stroke:none"
         d="m 1145.29,449.113 c 0,0 -125.08,-379.2497 -414.86,-379.2497 -289.774,0 -413.289,379.2497 -413.289,379.2497 V 1002.28 H 1145.29 V 449.113" /><path
         id="path20"
         style="fill:#00a6bd;fill-opacity:1;fill-rule:nonzero;stroke:none"
         d="m 730.43,56.7773 c -122.91,0 -235.633,67.4807 -325.989,195.1527 -67.476,95.336 -98.461,189.187 -99.742,193.133 l -0.644,1.972 V 1015.36 H 1158.38 V 447.012 l -0.66,-2 c -1.3,-3.949 -32.67,-97.785 -100.53,-193.114 C 966.32,124.25 853.328,56.7773 730.43,56.7773 Z M 330.223,451.281 v 0 c 9.945,-28.644 133.73,-368.3357 400.207,-368.3357 266.445,0 391.66,339.5627 401.78,368.3597 V 989.191 H 330.223 v -537.91" /><path
         id="path22"
         style="fill:#00a6bd;fill-opacity:1;fill-rule:nonzero;stroke:none"
         d="m 1102.68,458.059 c 0,0 -112.219,-340.219 -372.164,-340.219 -259.957,0 -370.758,340.219 -370.758,340.219 V 954.297 H 1102.68 V 458.059" /><path
         id="path24"
         style="fill:#f0dbb2;fill-opacity:1;fill-rule:nonzero;stroke:none"
         d="m 504.043,382.434 c 0,0 7.098,0.23 19.512,0.625 12.422,0.269 30.164,0.906 51.457,1.203 21.285,0.273 46.125,0.883 72.738,1.004 26.613,0.132 55,0.285 83.391,0.433 28.386,-0.148 56.777,-0.297 83.39,-0.426 26.614,-0.117 51.449,-0.73 72.739,-1 21.289,-0.293 39.031,-0.945 51.453,-1.207 12.418,-0.402 19.519,-0.632 19.519,-0.632 0,0 -7.101,-0.231 -19.519,-0.637 -12.422,-0.27 -30.164,-0.918 -51.453,-1.203 -21.29,-0.27 -46.125,-0.899 -72.739,-0.996 -26.613,-0.141 -55.004,-0.289 -83.39,-0.438 -28.391,0.156 -56.778,0.297 -83.391,0.438 -26.613,0.125 -51.453,0.726 -72.738,0.996 -21.293,0.301 -39.035,0.941 -51.457,1.203 -12.414,0.406 -19.512,0.637 -19.512,0.637" /><path
         id="path26"
         style="fill:#f0dbb2;fill-opacity:1;fill-rule:nonzero;stroke:none"
         d="m 413.828,344.898 c 0,0 9.914,0.575 27.27,1.27 17.355,0.555 42.136,1.73 71.89,2.465 29.75,0.84 64.457,1.547 101.637,2.008 18.594,0.183 37.809,0.371 57.328,0.558 19.52,0.078 39.352,0.156 59.188,0.231 19.832,-0.067 39.668,-0.149 59.187,-0.215 19.52,-0.192 38.735,-0.379 57.328,-0.563 37.18,-0.445 71.887,-1.152 101.637,-2 29.75,-0.738 54.537,-1.925 71.887,-2.484 17.36,-0.691 27.28,-1.27 27.28,-1.27 0,0 -9.92,-0.585 -27.28,-1.273 -17.35,-0.566 -42.137,-1.754 -71.887,-2.488 -29.75,-0.848 -64.457,-1.551 -101.637,-1.996 -18.593,-0.188 -37.808,-0.375 -57.328,-0.567 -19.519,-0.07 -39.355,-0.148 -59.187,-0.219 -19.836,0.083 -39.668,0.157 -59.188,0.235 -19.519,0.191 -38.734,0.375 -57.328,0.558 -37.18,0.461 -71.887,1.168 -101.637,2.008 -29.754,0.735 -54.535,1.91 -71.89,2.469 -17.356,0.695 -27.27,1.273 -27.27,1.273" /><path
         id="path28"
         style="fill:#f0dbb2;fill-opacity:1;fill-rule:nonzero;stroke:none"
         d="m 477.703,294.242 c 0,0 7.922,0.231 21.785,0.641 13.856,0.262 33.653,0.902 57.414,1.199 23.762,0.27 51.481,0.871 81.18,1 29.695,0.141 61.379,0.281 93.059,0.434 31.679,-0.145 63.363,-0.293 93.058,-0.434 29.699,-0.102 57.418,-0.73 81.18,-1 23.762,-0.285 43.555,-0.93 57.418,-1.199 13.855,-0.41 21.781,-0.641 21.781,-0.641 0,0 -7.926,-0.226 -21.781,-0.629 -13.863,-0.265 -33.656,-0.914 -57.418,-1.207 -23.762,-0.269 -51.481,-0.883 -81.18,-1 -29.695,-0.136 -61.379,-0.281 -93.058,-0.426 -31.68,0.145 -63.364,0.301 -93.059,0.434 -29.699,0.121 -57.418,0.731 -81.18,1.004 -23.761,0.293 -43.558,0.93 -57.414,1.203 -13.863,0.395 -21.785,0.621 -21.785,0.621" /><path
         id="path30"
         style="fill:#000000;fill-opacity:1;fill-rule:nonzero;stroke:none"
         d="m 639.691,309.059 v -56.352 c 0,-20.992 41.793,-38.004 93.352,-38.004 51.555,0 93.348,17.012 93.348,38.004 v 56.352 h -186.7" /><path
         id="path32"
         style="fill:#000000;fill-opacity:1;fill-rule:nonzero;stroke:none"
         d="m 826.391,309.059 c 0,-20.993 -41.793,-38.004 -93.348,-38.004 -51.559,0 -93.352,17.011 -93.352,38.004 0,20.992 41.793,38.015 93.352,38.015 51.555,0 93.348,-17.023 93.348,-38.015" /><path
         id="path34"
         style="fill:#f0f0f0;fill-opacity:1;fill-rule:nonzero;stroke:none"
         d="m 826.18,306.57 c 0,0 -0.067,-0.824 -0.184,-2.367 -0.035,-0.39 -0.07,-0.824 -0.109,-1.297 -0.157,-0.457 -0.332,-0.953 -0.524,-1.492 -0.371,-1.094 -0.781,-2.426 -1.691,-3.594 -0.774,-1.277 -1.692,-2.648 -2.984,-3.894 -1.161,-1.383 -2.606,-2.649 -4.227,-3.926 -3.172,-2.66 -7.176,-5.035 -11.691,-7.309 -4.563,-2.14 -9.622,-4.218 -15.114,-5.984 -5.484,-1.75 -11.347,-3.437 -17.523,-4.562 -6.156,-1.254 -12.578,-2.207 -19.137,-2.844 -6.566,-0.641 -13.258,-0.922 -19.953,-1.016 -6.684,0.094 -13.332,0.367 -19.953,1.016 -6.567,0.617 -12.992,1.59 -19.149,2.844 -6.171,1.125 -12.035,2.8 -17.523,4.554 -5.492,1.762 -10.547,3.852 -15.109,5.992 -4.516,2.274 -8.532,4.641 -11.7,7.301 -1.621,1.278 -3.062,2.551 -4.222,3.934 -1.293,1.246 -2.207,2.617 -2.985,3.894 -0.91,1.18 -1.304,2.477 -1.683,3.559 -0.188,0.543 -0.367,1.039 -0.524,1.492 -0.043,0.488 -0.082,0.93 -0.113,1.32 -0.117,1.555 -0.184,2.379 -0.184,2.379 0,0 0.168,-0.808 0.481,-2.324 0.082,-0.367 0.168,-0.789 0.258,-1.242 0.218,-0.426 0.453,-0.875 0.699,-1.375 0.508,-0.984 0.98,-2.156 1.965,-3.203 0.844,-1.133 1.816,-2.348 3.168,-3.418 1.203,-1.199 2.699,-2.281 4.363,-3.352 3.258,-2.226 7.324,-4.129 11.758,-6.125 4.539,-1.812 9.539,-3.554 14.976,-4.949 5.426,-1.406 11.219,-2.664 17.258,-3.644 6.031,-1.098 12.344,-1.711 18.742,-2.317 6.336,-0.562 12.918,-0.754 19.477,-0.801 6.531,0.035 13.062,0.239 19.473,0.801 6.402,0.598 12.711,1.219 18.738,2.317 6.047,0.98 11.832,2.218 17.258,3.632 5.437,1.395 10.445,3.133 14.976,4.953 4.434,1.989 8.508,3.895 11.754,6.125 1.668,1.067 3.16,2.161 4.371,3.36 1.352,1.07 2.321,2.285 3.172,3.41 0.981,1.07 1.442,2.203 1.945,3.176 0.254,0.5 0.489,0.953 0.704,1.375 0.097,0.469 0.183,0.886 0.265,1.277 0.309,1.516 0.481,2.324 0.481,2.324" /><path
         id="path36"
         style="fill:#f0f0f0;fill-opacity:1;fill-rule:nonzero;stroke:none"
         d="m 826.516,258.961 c -1.075,-1.363 -3.196,-3.063 -4.907,-4.481 -1.726,-1.371 -3.441,-3.253 -5.82,-4.55 -2.262,-1.442 -4.73,-2.996 -7.328,-4.653 -2.68,-1.449 -5.699,-2.593 -8.719,-3.988 -3.027,-1.344 -6.105,-2.844 -9.504,-3.605 -3.32,-0.938 -6.699,-1.895 -10.086,-2.84 -3.336,-1.129 -6.797,-1.625 -10.211,-2.071 -3.398,-0.484 -6.742,-0.96 -9.976,-1.425 -3.242,-0.368 -6.328,-1.168 -9.336,-1.059 -2.992,-0.066 -5.82,-0.152 -8.422,-0.207 -10.394,-0.25 -17.336,-0.422 -17.336,-0.422 0,0 6.91,0.563 17.266,1.406 2.582,0.219 5.383,0.446 8.343,0.692 2.973,0.055 6,1.027 9.18,1.566 3.164,0.641 6.43,1.301 9.754,1.985 3.336,0.617 6.695,1.296 9.891,2.582 3.234,1.113 6.472,2.238 9.66,3.332 3.254,0.91 6.129,2.543 8.961,3.992 2.793,1.504 5.617,2.758 8.07,4.269 2.348,1.68 4.559,3.266 6.602,4.731 2.16,1.328 3.578,3.137 5.082,4.461 1.48,1.375 2.703,2.597 3.437,3.679 0.813,1.094 1.5,1.774 1.914,2.512 0.426,0.692 3.34,4.055 3.34,4.055 l 0.145,-9.961" /><path
         id="path38"
         style="fill:#f0f0f0;fill-opacity:1;fill-rule:nonzero;stroke:none"
         d="m 825.621,246.188 c -0.543,-1.223 -1.094,-1.903 -2.164,-2.782 -1.074,-0.863 -2.144,-2.031 -3.621,-2.843 -1.41,-0.899 -2.945,-1.872 -4.563,-2.887 -1.675,-0.91 -3.554,-1.633 -5.433,-2.488 -1.883,-0.844 -3.805,-1.786 -5.918,-2.25 -2.07,-0.583 -4.18,-1.18 -6.285,-1.774 -2.078,-0.703 -4.235,-1.004 -6.356,-1.285 -2.121,-0.305 -4.207,-0.598 -6.218,-0.887 -2.02,-0.23 -3.942,-0.726 -5.809,-0.664 -1.871,-0.039 -3.633,-0.086 -5.254,-0.129 -6.477,-0.16 -10.793,-0.258 -10.793,-0.258 0,0 4.305,0.348 10.75,0.875 1.609,0.133 3.352,0.27 5.195,0.422 1.856,0.043 3.739,0.653 5.723,0.985 1.969,0.402 4,0.812 6.074,1.234 2.074,0.387 4.172,0.809 6.156,1.609 2.016,0.692 4.036,1.387 6.02,2.079 2.031,0.562 3.82,1.578 5.582,2.488 1.738,0.93 3.5,1.707 5.027,2.66 1.461,1.035 2.84,2.023 4.114,2.941 1.343,0.832 2.226,1.95 3.16,2.778 0.926,0.855 1.691,1.613 2.144,2.293 0.508,0.683 0.934,1.105 1.192,1.558 0.269,0.434 2.086,2.438 2.086,2.438 0,0 0.465,-3.711 -0.809,-6.113" /><path
         id="path40"
         style="fill:#000000;fill-opacity:1;fill-rule:nonzero;stroke:none"
         d="m 417.887,888.914 v -13.641 h -9.262 v 39.801 h 16.156 c 4.719,0 8.461,-1.211 11.235,-3.625 2.765,-2.414 4.152,-5.57 4.152,-9.476 0,-3.914 -1.387,-7.075 -4.152,-9.469 -2.774,-2.395 -6.516,-3.59 -11.235,-3.59 z m 0,7.106 h 6.894 c 2.004,0 3.532,0.546 4.578,1.656 1.047,1.097 1.571,2.515 1.571,4.25 0,1.765 -0.524,3.215 -1.571,4.34 -1.046,1.136 -2.574,1.695 -4.578,1.695 h -6.894 V 896.02" /><path
         id="path42"
         style="fill:#000000;fill-opacity:1;fill-rule:nonzero;stroke:none"
         d="m 454.629,890.523 v -15.25 h -9.266 v 39.801 h 15.305 c 4.613,0 8.266,-1.07 10.965,-3.203 2.695,-2.133 4.047,-5.047 4.047,-8.75 0,-2.055 -0.547,-3.824 -1.633,-5.301 -1.078,-1.476 -2.684,-2.675 -4.793,-3.601 2.441,-0.699 4.195,-1.852 5.258,-3.465 1.07,-1.609 1.601,-3.617 1.601,-6.024 v -2.519 c 0,-1.035 0.157,-2.219 0.465,-3.555 0.313,-1.328 0.848,-2.273 1.617,-2.843 v -0.54 h -9.511 c -0.731,0.563 -1.211,1.563 -1.442,3 -0.222,1.446 -0.336,2.774 -0.336,3.997 v 2.41 c 0,1.89 -0.504,3.34 -1.508,4.34 -1,1.007 -2.468,1.503 -4.398,1.503 z m 0,7.106 h 6.098 c 1.859,0 3.277,0.43 4.257,1.269 0.989,0.852 1.477,2.063 1.477,3.649 0,1.625 -0.504,2.933 -1.512,3.926 -1.008,0.996 -2.441,1.488 -4.281,1.488 h -6.039 v -10.332" /><path
         id="path44"
         style="fill:#000000;fill-opacity:1;fill-rule:nonzero;stroke:none"
         d="m 515.227,891.59 c 0,-4.899 -1.551,-8.945 -4.657,-12.117 -3.105,-3.184 -7.168,-4.774 -12.175,-4.774 -5.051,0 -9.141,1.59 -12.278,4.774 -3.129,3.172 -4.703,7.218 -4.703,12.117 v 7.164 c 0,4.879 1.566,8.918 4.691,12.109 3.122,3.188 7.2,4.785 12.231,4.785 4.996,0 9.059,-1.597 12.187,-4.785 3.141,-3.191 4.704,-7.23 4.704,-12.109 z m -9.207,7.215 v 0 c 0,2.843 -0.668,5.175 -2.012,6.996 -1.336,1.828 -3.227,2.734 -5.672,2.734 -2.492,0 -4.406,-0.906 -5.727,-2.715 -1.324,-1.816 -1.98,-4.156 -1.98,-7.015 v -7.215 c 0,-2.883 0.672,-5.235 2.008,-7.055 1.343,-1.82 3.254,-2.734 5.758,-2.734 2.418,0 4.296,0.914 5.628,2.734 1.329,1.82 1.997,4.172 1.997,7.055 v 7.215" /><path
         id="path46"
         style="fill:#000000;fill-opacity:1;fill-rule:nonzero;stroke:none"
         d="m 545.789,891.293 h -15.934 v -16.02 h -9.265 v 39.801 h 27.988 v -7.113 h -18.723 v -9.566 h 15.934 v -7.102" /><path
         id="path48"
         style="fill:#000000;fill-opacity:1;fill-rule:nonzero;stroke:none"
         d="m 577.637,892.301 h -15.614 v -9.926 h 18.399 v -7.102 h -27.66 v 39.801 h 27.715 v -7.113 h -18.454 v -8.559 h 15.614 v -7.101" /><path
         id="path50"
         style="fill:#000000;fill-opacity:1;fill-rule:nonzero;stroke:none"
         d="m 605.738,885.82 c 0,1.407 -0.468,2.485 -1.39,3.254 -0.938,0.766 -2.606,1.578 -5.008,2.434 -5.027,1.586 -8.758,3.285 -11.184,5.097 -2.418,1.817 -3.633,4.438 -3.633,7.864 0,3.332 1.446,6.027 4.332,8.086 2.887,2.058 6.555,3.093 11.004,3.093 4.407,0 8.024,-1.136 10.836,-3.406 2.817,-2.265 4.18,-5.187 4.09,-8.758 l -0.058,-0.168 h -8.965 c 0,1.582 -0.535,2.875 -1.61,3.868 -1.078,0.996 -2.562,1.492 -4.461,1.492 -1.859,0 -3.316,-0.418 -4.371,-1.235 -1.058,-0.816 -1.586,-1.828 -1.586,-3.035 0,-1.16 0.536,-2.093 1.602,-2.797 1.066,-0.703 3.066,-1.586 5.996,-2.64 4.523,-1.344 7.926,-3.008 10.211,-4.977 2.289,-1.965 3.434,-4.672 3.434,-8.113 0,-3.504 -1.364,-6.234 -4.09,-8.219 -2.719,-1.972 -6.336,-2.961 -10.84,-2.961 -4.516,0 -8.422,1.137 -11.723,3.403 -3.301,2.269 -4.906,5.535 -4.808,9.796 l 0.05,0.168 h 8.997 c 0,-2.293 0.617,-3.937 1.859,-4.921 1.238,-0.989 3.109,-1.477 5.625,-1.477 1.914,0 3.348,0.383 4.277,1.152 0.942,0.758 1.414,1.762 1.414,3" /><path
         id="path52"
         style="fill:#000000;fill-opacity:1;fill-rule:nonzero;stroke:none"
         d="m 641.078,885.82 c 0,1.407 -0.465,2.485 -1.394,3.254 -0.926,0.766 -2.594,1.578 -5,2.434 -5.032,1.586 -8.754,3.285 -11.184,5.097 -2.422,1.817 -3.629,4.438 -3.629,7.864 0,3.332 1.442,6.027 4.332,8.086 2.887,2.058 6.555,3.093 10.996,3.093 4.414,0 8.028,-1.136 10.84,-3.406 2.813,-2.265 4.184,-5.187 4.086,-8.758 l -0.051,-0.168 h -8.965 c 0,1.582 -0.543,2.875 -1.617,3.868 -1.074,0.996 -2.558,1.492 -4.453,1.492 -1.859,0 -3.316,-0.418 -4.375,-1.235 -1.055,-0.816 -1.586,-1.828 -1.586,-3.035 0,-1.16 0.535,-2.093 1.598,-2.797 1.066,-0.703 3.07,-1.586 6,-2.64 4.523,-1.344 7.922,-3.008 10.211,-4.977 2.285,-1.965 3.429,-4.672 3.429,-8.113 0,-3.504 -1.363,-6.234 -4.082,-8.219 -2.73,-1.972 -6.339,-2.961 -10.843,-2.961 -4.52,0 -8.426,1.137 -11.723,3.403 -3.297,2.269 -4.902,5.535 -4.816,9.796 l 0.062,0.168 h 8.988 c 0,-2.293 0.621,-3.937 1.864,-4.921 1.234,-0.989 3.113,-1.477 5.625,-1.477 1.918,0 3.343,0.383 4.281,1.152 0.941,0.758 1.406,1.762 1.406,3" /><path
         id="path54"
         style="fill:#000000;fill-opacity:1;fill-rule:nonzero;stroke:none"
         d="m 655.918,875.273 h 9.21484 v 39.8008 H 655.918 Z" /><path
         id="path56"
         style="fill:#000000;fill-opacity:1;fill-rule:nonzero;stroke:none"
         d="m 704.902,891.59 c 0,-4.899 -1.554,-8.945 -4.656,-12.117 -3.105,-3.184 -7.172,-4.774 -12.183,-4.774 -5.043,0 -9.133,1.59 -12.274,4.774 -3.129,3.172 -4.699,7.218 -4.699,12.117 v 7.164 c 0,4.879 1.566,8.918 4.687,12.109 3.125,3.188 7.203,4.785 12.239,4.785 4.988,0 9.054,-1.597 12.187,-4.785 3.133,-3.191 4.699,-7.23 4.699,-12.109 z m -9.207,7.215 v 0 c 0,2.843 -0.668,5.175 -2.011,6.996 -1.336,1.828 -3.227,2.734 -5.668,2.734 -2.496,0 -4.411,-0.906 -5.731,-2.715 -1.32,-1.816 -1.98,-4.156 -1.98,-7.015 v -7.215 c 0,-2.883 0.672,-5.235 2.011,-7.055 1.336,-1.82 3.25,-2.734 5.747,-2.734 2.425,0 4.304,0.914 5.632,2.734 1.336,1.82 2,4.172 2,7.055 v 7.215" /><path
         id="path58"
         style="fill:#000000;fill-opacity:1;fill-rule:nonzero;stroke:none"
         d="m 743.48,875.273 h -9.214 l -14.571,25.368 -0.164,-0.059 v -25.309 h -9.265 v 39.801 h 9.265 l 14.567,-25.367 0.168,0.051 v 25.316 h 9.214 v -39.801" /><path
         id="path60"
         style="fill:#000000;fill-opacity:1;fill-rule:nonzero;stroke:none"
         d="M 771.383,883.008 H 758.84 l -2.246,-7.735 h -9.289 l 12.847,39.801 h 9.922 l 12.875,-39.801 h -9.293 z m -10.492,7.105 h 8.445 l -4.156,14.242 h -0.164 l -4.125,-14.242" /><path
         id="path62"
         style="fill:#000000;fill-opacity:1;fill-rule:nonzero;stroke:none"
         d="m 795.031,882.375 h 17.137 v -7.102 h -26.402 v 39.801 h 9.265 v -32.699" /><path
         id="path64"
         style="fill:#000000;fill-opacity:1;fill-rule:nonzero;stroke:none"
         d="m 851.148,885.82 c 0,1.407 -0.464,2.485 -1.394,3.254 -0.93,0.766 -2.598,1.578 -5,2.434 -5.027,1.586 -8.762,3.285 -11.184,5.097 -2.422,1.817 -3.632,4.438 -3.632,7.864 0,3.332 1.441,6.027 4.328,8.086 2.89,2.058 6.558,3.093 11.004,3.093 4.414,0 8.027,-1.136 10.839,-3.406 2.817,-2.265 4.18,-5.187 4.086,-8.758 l -0.054,-0.168 h -8.965 c 0,1.582 -0.535,2.875 -1.61,3.868 -1.082,0.996 -2.562,1.492 -4.461,1.492 -1.859,0 -3.32,-0.418 -4.371,-1.235 -1.058,-0.816 -1.582,-1.828 -1.582,-3.035 0,-1.16 0.528,-2.093 1.594,-2.797 1.07,-0.703 3.067,-1.586 6,-2.64 4.52,-1.344 7.926,-3.008 10.211,-4.977 2.289,-1.965 3.43,-4.672 3.43,-8.113 0,-3.504 -1.36,-6.234 -4.086,-8.219 -2.723,-1.972 -6.34,-2.961 -10.836,-2.961 -4.52,0 -8.43,1.137 -11.727,3.403 -3.304,2.269 -4.898,5.535 -4.812,9.796 l 0.051,0.168 h 8.996 c 0,-2.293 0.621,-3.937 1.863,-4.921 1.238,-0.989 3.109,-1.477 5.629,-1.477 1.91,0 3.34,0.383 4.273,1.152 0.938,0.758 1.41,1.762 1.41,3" /><path
         id="path66"
         style="fill:#000000;fill-opacity:1;fill-rule:nonzero;stroke:none"
         d="m 878.895,891.23 h -4.262 v -15.957 h -9.274 v 39.801 h 9.274 v -15.586 h 3.144 l 8.746,15.586 H 898 l -12.328,-18.019 13.391,-21.782 h -11.254 l -8.914,15.957" /><path
         id="path68"
         style="fill:#000000;fill-opacity:1;fill-rule:nonzero;stroke:none"
         d="m 922.738,883.008 h -12.547 l -2.238,-7.735 h -9.297 l 12.848,39.801 h 9.926 l 12.875,-39.801 h -9.297 z m -10.496,7.105 h 8.449 l -4.156,14.242 h -0.164 l -4.129,-14.242" /><path
         id="path70"
         style="fill:#000000;fill-opacity:1;fill-rule:nonzero;stroke:none"
         d="m 962.457,907.961 h -10.5 v -32.688 h -9.262 v 32.688 h -10.414 v 7.113 h 30.176 v -7.113" /><path
         id="path72"
         style="fill:#000000;fill-opacity:1;fill-rule:nonzero;stroke:none"
         d="m 966.824,875.273 h 9.21875 v 39.8008 H 966.824 Z" /><path
         id="path74"
         style="fill:#000000;fill-opacity:1;fill-rule:nonzero;stroke:none"
         d="m 1016.11,875.273 h -9.21 l -14.564,25.368 -0.168,-0.059 v -25.309 h -9.262 v 39.801 h 9.262 l 14.562,-25.367 0.17,0.051 v 25.316 h 9.21 v -39.801" /><path
         id="path76"
         style="fill:#000000;fill-opacity:1;fill-rule:nonzero;stroke:none"
         d="m 1053.81,880.766 c -1.35,-1.602 -3.31,-3.012 -5.88,-4.235 -2.57,-1.222 -5.8,-1.832 -9.67,-1.832 -4.92,0 -8.92,1.512 -11.99,4.535 -3.07,3.028 -4.61,6.954 -4.61,11.782 v 8.316 c 0,4.789 1.5,8.707 4.5,11.746 3,3.043 6.86,4.57 11.58,4.57 5.12,0 8.95,-1.191 11.51,-3.558 2.55,-2.363 4,-5.606 4.34,-9.699 l -0.05,-0.168 h -8.67 c -0.31,2.097 -0.99,3.672 -2.04,4.726 -1.05,1.063 -2.65,1.586 -4.79,1.586 -2.15,0 -3.88,-0.847 -5.2,-2.555 -1.31,-1.699 -1.96,-3.902 -1.96,-6.597 v -8.367 c 0,-2.766 0.64,-4.996 1.93,-6.684 1.3,-1.687 3.11,-2.531 5.45,-2.531 1.69,0 3.02,0.14 3.98,0.41 0.97,0.277 1.73,0.637 2.3,1.098 v 6.289 h -6.26 v 6.121 h 15.53 v -14.953" /><path
         id="path78"
         style="fill:#000000;fill-opacity:1;fill-rule:nonzero;stroke:none"
         d="M 0.0351563,928.289 17.4727,915.543 21.1875,920.641 1086.8,141.293 c 12.04,-8.805 33.69,-12.551 60.24,-12.688 l 0.01,-0.035 2.63,0.039 c 3.18,0.02 6.42,0.079 9.73,0.184 l 2.1,0.043 -0.02,0.039 c 0.01,-0.004 0.01,0.012 0.01,0.012 l 0.01,-0.051 1.81,0.113 c 5.57,0.242 11.28,0.598 17.13,1.098 l 0.44,0.035 10.36,1.012 0.11,0.008 c 6.93,0.734 13.98,1.668 21.12,2.711 l 0.01,-0.036 1.83,0.293 c 5.55,0.821 11.15,1.703 16.76,2.68 l 0.18,0.023 0.65,0.122 c 5.51,0.972 11.05,2.023 16.57,3.136 v -0.035 l 3.39,0.699 h 0.04 l 4.79,0.985 0.26,0.07 c 7.65,1.617 15.23,3.363 22.74,5.176 l 4.88,1.133 9.76,2.164 -0.04,0.418 c 14.93,3.964 29.22,8.269 42.4,12.769 l 1.01,0.313 1.56,0.574 c 4.83,1.68 9.53,3.359 14.01,5.074 l 0.65,0.238 0.95,0.379 c 4.41,1.723 8.56,3.446 12.56,5.18 l 1.53,0.621 v 0.031 c 19.31,8.504 33.35,17.118 38.71,24.91 26.78,38.911 9.39,95.083 -29.25,76.543 -7.1,-3.398 -18.21,-8.191 -31.88,-13.718 l -12.13,-4.805 c -0.47,-0.18 -0.94,-0.371 -1.39,-0.559 l -16.01,-6.07 -21.42,-7.918 c -0.34,-0.105 -0.69,-0.23 -1.02,-0.355 l -8.92,-3.168 c -1.08,-0.375 -2.18,-0.766 -3.27,-1.141 l -18.35,-6.266 c -0.75,-0.265 -1.49,-0.511 -2.25,-0.757 l -4.65,-1.539 c -1.31,-0.422 -2.64,-0.856 -3.97,-1.289 l -22.43,-7.043 c -0.68,-0.2 -1.38,-0.403 -2.07,-0.614 l -19.21,-5.515 c -0.67,-0.192 -1.38,-0.387 -2.07,-0.575 l -13.61,-3.546 c -0.66,-0.165 -1.3,-0.329 -1.96,-0.481 l -6.53,-1.551 -19.41,-4.047 -6.61,-1.105 c -0.23,-0.031 -0.47,-0.074 -0.69,-0.102 l -13.05,-1.535 c -0.24,-0.011 -0.48,-0.043 -0.71,-0.062 l -17.75,0.172 c -30.25,1.714 -42.49,-1.602 -83.96,20.421 l -997.6959,729.68 3.7304,5.094 -17.4257,12.742 z M 1344.39,258.359 v 0 l 19.82,-80.148 -7.41,-3.051 -18.6,80.738 z m -52.04,-19.601 v 0 l 14.8,-80.258 -12.06,-3.379 -7.14,82.067 z m 25.61,9.383 v 0 l 12.63,4.812 18.6,-80.75 -8.88,-3.234 -15.5,49.84 z m -3.83,-1.407 v 0 l 18.78,-80.269 -21.19,-6.641 -11.77,81.672 z m -29.23,-94.461 v 0 l -17.11,78 12.42,4.235 9.68,-81.117 z m -24.69,75.465 v 0 l 19.88,-76.554 -19.5,-4.461 -2.54,80.293 z m -25.51,-8.086 v 0 l 15.34,4.809 2.51,-79.5 -0.98,-0.199 z m -7.6,-2.281 v 0 l 19.77,-73.504 -12.73,-2.426 -20.67,72.02 z m -21.44,-6.074 v 0 l 20.45,-71.242 -10.58,-1.7 -17.43,70.973 z m -15.29,-3.895 v 0 l 19.52,-69.804 -15.11,-1.973 -8.48,70.813 z m -6.26,-72.937 v 0 l -14.21,68.555 11.71,2.445 5.31,-70.742 z m -27.7,-1.672 v 0 l -6.28,-0.109 -17.78,66.906 9.41,-0.098 14.5,-65.683 z m 5.34,68.734 v 0 l 2.29,0.383 12.07,-68.09 -7.66,-0.476 -5.34,42.051 z m -12.07,-1.543 v 0 l 6.16,0.735 8.54,-67.574 -3.88,-0.18 z M 31.1172,935.652 v 0 L 39.0156,946.449 710.445,455.398 559.555,549.184 31.1172,935.652" /><path
         id="path80"
         style="fill:#f0dbb2;fill-opacity:1;fill-rule:nonzero;stroke:none"
         d="m 1356.8,175.16 -18.6,80.738 6.19,2.461 19.82,-80.148 -7.41,-3.051" /><path
         id="path82"
         style="fill:#f0dbb2;fill-opacity:1;fill-rule:nonzero;stroke:none"
         d="m 1349.19,172.203 -8.88,-3.234 -15.5,49.84 -6.85,29.332 12.63,4.812 18.6,-80.75" /><path
         id="path84"
         style="fill:#f0dbb2;fill-opacity:1;fill-rule:nonzero;stroke:none"
         d="m 1332.91,166.465 -21.19,-6.641 -11.77,81.672 14.18,5.238 18.78,-80.269" /><path
         id="path86"
         style="fill:#f0dbb2;fill-opacity:1;fill-rule:nonzero;stroke:none"
         d="m 1295.09,155.121 -7.14,82.067 4.4,1.57 14.8,-80.258 -12.06,-3.379" /><path
         id="path88"
         style="fill:#f0dbb2;fill-opacity:1;fill-rule:nonzero;stroke:none"
         d="m 1280.21,234.508 9.68,-81.117 -4.99,-1.118 -17.11,78 12.42,4.235" /><path
         id="path90"
         style="fill:#f0dbb2;fill-opacity:1;fill-rule:nonzero;stroke:none"
         d="m 1260.59,146.723 -2.54,80.293 2.16,0.722 19.88,-76.554 -19.5,-4.461" /><path
         id="path92"
         style="fill:#f0dbb2;fill-opacity:1;fill-rule:nonzero;stroke:none"
         d="m 1252.55,144.961 -0.98,-0.199 -16.87,74.89 15.34,4.809 2.51,-79.5" /><path
         id="path94"
         style="fill:#f0dbb2;fill-opacity:1;fill-rule:nonzero;stroke:none"
         d="m 1234.14,141.441 -20.67,72.02 13.63,3.91 19.77,-73.504 -12.73,-2.426" /><path
         id="path96"
         style="fill:#f0dbb2;fill-opacity:1;fill-rule:nonzero;stroke:none"
         d="m 1215.53,138.355 -17.43,70.973 7.56,1.969 20.45,-71.242 -10.58,-1.7" /><path
         id="path98"
         style="fill:#f0dbb2;fill-opacity:1;fill-rule:nonzero;stroke:none"
         d="m 1194.78,135.625 -8.48,70.813 4.07,0.964 19.52,-69.804 -15.11,-1.973" /><path
         id="path100"
         style="fill:#f0dbb2;fill-opacity:1;fill-rule:nonzero;stroke:none"
         d="m 1181.61,205.465 5.31,-70.742 -2.81,-0.258 -14.21,68.555 11.71,2.445" /><path
         id="path102"
         style="fill:#f0dbb2;fill-opacity:1;fill-rule:nonzero;stroke:none"
         d="m 1176.11,133.82 -7.66,-0.476 -5.34,42.051 -1.36,26.132 2.29,0.383 12.07,-68.09" /><path
         id="path104"
         style="fill:#f0dbb2;fill-opacity:1;fill-rule:nonzero;stroke:none"
         d="m 1132.35,199.59 9.41,-0.098 14.5,-65.683 0.15,-1.016 -6.28,-0.109 -17.78,66.906" /><path
         id="path106"
         style="fill:#f0dbb2;fill-opacity:1;fill-rule:nonzero;stroke:none"
         d="m 1164.38,133.145 -3.88,-0.18 -10.82,67.019 6.16,0.735 8.54,-67.574" /><path
         id="path108"
         style="fill:#f0dbb2;fill-opacity:1;fill-rule:nonzero;stroke:none"
         d="M 710.445,455.398 559.555,549.184 31.1172,935.652 39.0156,946.449 710.445,455.398" /><path
         id="path110"
         style="fill:#000000;fill-opacity:1;fill-rule:nonzero;stroke:none"
         d="m 1182.44,842.156 c -6.49,0.438 -12.99,0.824 -19.49,1.18 -59.09,3.203 -118.54,3.246 -178.184,1.516 -3.703,-32.465 -7.403,-64.938 -11.106,-97.403 6.07,0.094 12.137,0.156 18.203,0.207 -6.043,-52.996 -12.086,-105.992 -18.125,-158.992 -6.047,0.102 -12.097,0.184 -18.152,0.238 -0.051,-0.464 -0.106,-0.914 -0.156,-1.363 -4.219,0.039 -8.43,0.074 -12.649,0.098 -11.801,40.011 -23.652,79.613 -35.547,118.812 11.766,13.895 23.532,27.821 35.297,41.754 8.121,0.207 16.235,0.367 24.348,0.504 3.644,31.988 7.289,63.957 10.934,95.941 -73.946,-2.316 -148.2,-7.293 -222.458,-12.335 -2.421,-0.161 -4.839,-0.321 -7.265,-0.493 -19.543,-1.316 -39.07,-2.652 -58.602,-3.918 -1.515,-3.945 -3.031,-7.886 -4.543,-11.82 -8,8.328 -20.183,15.34 -38.183,14.234 -35.864,-2.312 -79.391,-45.179 -103.5,-109.312 -6.485,68.66 -40.125,105.156 -97.032,104.766 -46.621,-0.27 -86.703,-32.926 -110.574,-85.172 3.02,26.492 6.039,52.996 9.063,79.504 -76.621,3.769 -152.649,12.711 -227.754,29.808 -3.211,-28.18 -6.426,-56.367 -9.637,-84.543 5.137,-1.265 10.293,-2.472 15.442,-3.644 -5.262,-46.145 -10.52,-92.278 -15.782,-138.426 -5.133,1.301 -10.2692,2.644 -15.3942,4.023 -3.211,-28.175 -6.4258,-56.367 -9.6407,-84.543 74.6329,-21.238 150.1919,-34.328 226.3359,-42.234 2.914,25.559 5.832,51.129 8.746,76.687 11.235,-54.886 42.824,-89.277 92.406,-91.917 53.543,-2.809 94.981,33.476 117.336,98.031 8.516,-62.559 42.305,-101.043 94.485,-100.68 40.457,0.274 72.992,29.758 93.238,54.52 -1.766,-15.512 -3.535,-31.02 -5.305,-46.532 78.528,1.141 157.059,2.313 235.239,0.391 3.16,-0.09 6.316,-0.172 9.476,-0.258 62.63,-1.754 125.02,-5.586 186.98,-13.097 5.48,48.054 10.96,96.093 16.43,144.128 -13.6,1.344 -27.22,2.516 -40.86,3.536 2.97,26.035 5.94,52.058 8.91,78.089 13.65,-0.859 27.29,-1.882 40.91,-3.07 1.61,14.184 3.23,28.375 4.85,42.551 11.51,-46.57 22.96,-93.738 34.33,-141.539 -1.16,-10.141 -2.31,-20.274 -3.47,-30.403 -5.39,0.762 -10.78,1.481 -16.19,2.176 -3.79,-33.297 -7.59,-66.601 -11.38,-99.894 38.16,-5.489 76.14,-12.492 113.91,-21.391 3.86,33.863 7.72,67.742 11.58,101.606 -5.25,1.156 -10.51,2.273 -15.77,3.363 1.15,10.008 2.29,20.031 3.43,30.055 21.06,43.441 42.12,86.882 63.19,130.308 6.69,-1.488 13.38,-3.058 20.05,-4.68 3.86,33.813 7.71,67.622 11.57,101.434 -66.01,15.023 -132.72,23.75 -199.94,28.199 z M 218.914,600.563 v 0 c -5.578,0.867 -11.137,1.781 -16.695,2.726 -4.496,0.758 -8.981,1.535 -13.473,2.344 1.027,9.004 2.055,18.012 3.078,27.015 10.051,-1.765 20.106,-3.41 30.184,-4.937 -1.031,-9.043 -2.063,-18.102 -3.094,-27.148 z m 13,114.035 v 0 c -10.094,1.379 -20.172,2.863 -30.234,4.484 1.023,8.988 2.05,17.996 3.078,27 10.066,-1.566 20.152,-3.012 30.246,-4.34 -1.027,-9.043 -2.059,-18.09 -3.09,-27.144 z M 301.77,590.059 v 0 c 5.441,47.734 10.882,95.48 16.324,143.214 4.547,-0.332 9.09,-0.652 13.64,-0.96 -8.339,-20.579 -14.418,-43.825 -17.351,-69.583 -3.129,-27.41 -2.883,-52.046 0.238,-73.894 -4.281,0.387 -8.574,0.801 -12.851,1.223 z m 119.058,-4.875 v 0 c -9.769,0.363 -16.855,27.507 -11.765,72.16 5.214,45.722 18.078,69.902 25.343,69.82 0.11,0 0.199,0 0.305,0 14.527,-0.144 15.18,-39.719 11.316,-73.625 -5.105,-44.781 -16.804,-68.668 -25.199,-68.355 z m 416.61,159.156 v 0 c 3.242,0.148 6.484,0.301 9.726,0.449 -3.738,-4.488 -7.473,-8.976 -11.211,-13.449 0.492,4.34 0.988,8.66 1.485,13 z M 691.879,643.664 v 0 c -3.563,-5.398 -7.113,-10.797 -10.676,-16.18 -19.051,-28.816 -32.086,-35.004 -39.664,-35.226 -20.848,-0.5 -26.57,30.781 -23.023,61.976 4.289,37.539 17.476,67.383 30.054,67.981 15.782,0.754 15.332,-25.133 14.414,-36.328 -0.476,-5.707 -0.949,-11.41 -1.425,-17.129 25.164,0.996 50.339,2.09 75.515,3.164 2.571,22.558 5.141,45.117 7.715,67.687 2.805,0.149 5.602,0.286 8.41,0.45 -5.926,-51.977 -11.847,-103.942 -17.773,-155.907 -3.754,-0.105 -7.508,-0.222 -11.262,-0.328 -7.832,15.633 -15.672,31.196 -23.519,46.699 -2.918,4.383 -5.844,8.77 -8.766,13.141 z m 136.406,-57.078 v 0 c -2.957,-0.07 -5.902,-0.137 -8.855,-0.203 0.773,6.793 1.55,13.601 2.324,20.402 2.539,2.926 5.062,5.852 7.601,8.785 2.915,-9.578 5.817,-19.168 8.723,-28.797 -3.265,-0.062 -6.531,-0.128 -9.793,-0.187 z m 250.845,-1.949 v 0 c -7.32,0.461 -14.63,0.879 -21.96,1.265 1.39,12.176 2.78,24.368 4.17,36.547 7.33,-0.347 14.64,-0.711 21.97,-1.136 -1.4,-12.227 -2.79,-24.446 -4.18,-36.676 z m 15.55,136.379 v 0 c -7.34,0.312 -14.67,0.578 -22.02,0.812 0.96,8.356 1.91,16.711 2.86,25.082 7.35,-0.211 14.68,-0.445 22.02,-0.734 -0.95,-8.383 -1.91,-16.781 -2.86,-25.16 z m 175.77,-8.434 v 0 c -1.38,6.77 -2.76,13.523 -4.13,20.273 4.21,-0.64 8.41,-1.285 12.62,-1.949 -2.83,-6.117 -5.67,-12.218 -8.49,-18.324" /><path
         id="path112"
         style="fill:#ffffff;fill-opacity:1;fill-rule:nonzero;stroke:none"
         d="m 126.824,830.902 c 30.395,-6.66 60.93,-12.007 91.598,-16.257 -2.004,-17.59 -4.012,-35.176 -6.016,-52.774 -5.855,0.875 -11.715,1.777 -17.558,2.731 -2.289,-20.075 -4.575,-40.133 -6.864,-60.192 17.914,-3.097 35.86,-5.801 53.864,-8.144 2.304,20.254 4.613,40.496 6.922,60.757 -5.59,0.661 -11.176,1.364 -16.754,2.11 2.011,17.652 4.023,35.301 6.035,52.941 30.808,-3.785 61.746,-6.504 92.777,-8.347 -2.043,-17.934 -4.086,-35.86 -6.133,-53.789 -5.531,0.375 -11.058,0.773 -16.586,1.218 -6.718,-58.945 -13.437,-117.879 -20.156,-176.824 5.508,-0.602 11.016,-1.172 16.531,-1.723 -2.046,-17.929 -4.089,-35.859 -6.132,-53.8 -30.864,3.339 -61.629,7.562 -92.27,12.855 2.016,17.656 4.027,35.293 6.035,52.945 5.567,-0.902 11.129,-1.777 16.699,-2.613 2.309,20.242 4.618,40.496 6.93,60.758 -17.98,2.5 -35.914,5.379 -53.805,8.637 -2.289,-20.063 -4.574,-40.121 -6.859,-60.176 5.82,-1.141 11.664,-2.215 17.5,-3.258 -2.008,-17.602 -4.012,-35.187 -6.016,-52.773 -30.5,5.734 -60.863,12.589 -91.0855,20.742 1.9726,17.308 3.9453,34.617 5.9175,51.922 5.137,-1.328 10.27,-2.629 15.415,-3.891 6.519,57.199 13.042,114.398 19.562,171.602 -5.164,1.105 -10.312,2.246 -15.469,3.418 1.973,17.308 3.946,34.621 5.918,51.925" /><path
         id="path114"
         style="fill:#ffffff;fill-opacity:1;fill-rule:nonzero;stroke:none"
         d="m 326.297,661.785 c 10.035,88.035 58.234,146.36 117.961,146.672 70.738,0.551 96.754,-59.562 85.887,-155.008 -10.891,-95.531 -53.918,-154.035 -118.727,-150.812 -59.926,3.101 -96.727,57.332 -85.121,159.148 z m 131.734,-8.422 v 0 c 5.766,50.575 0.84,90.969 -21.343,91.121 -17.559,0.547 -33.758,-35.496 -39.598,-86.707 -6.172,-54.089 3.379,-89.168 21.762,-89.918 18.089,-0.707 33.273,33.7 39.179,85.504" /><path
         id="path116"
         style="fill:#ffffff;fill-opacity:1;fill-rule:nonzero;stroke:none"
         d="m 717.859,563.344 c -23.41,-33.246 -56.734,-62.383 -94.554,-62.762 -61.207,-0.48 -95.27,57.613 -84.532,151.715 11.043,96.965 67.879,157.594 105.954,160.133 29.035,1.738 39.328,-21.614 41.371,-26.649 3.144,8.196 6.3,16.391 9.449,24.606 15.203,0.965 30.414,1.953 45.621,2.933 -4.699,-41.242 -9.402,-82.5 -14.105,-123.75 -17.313,-0.793 -34.618,-1.582 -51.918,-2.336 2.335,28.079 -3.95,53.954 -24.528,52.911 -20.906,-1.059 -38.847,-39.707 -44.164,-86.286 -4.816,-42.3 5.559,-80.14 33.039,-79.554 24.297,0.515 47.731,39.246 50.844,43.691 9.184,-18.125 18.355,-36.344 27.523,-54.652" /><path
         id="path118"
         style="fill:#ffffff;fill-opacity:1;fill-rule:nonzero;stroke:none"
         d="m 843.141,762.988 c -5.235,-0.258 -10.461,-0.527 -15.696,-0.789 -2.738,-24.027 -5.476,-48.039 -8.215,-72.066 20.715,24.742 41.442,49.629 62.176,74.609 -6.968,-0.293 -13.929,-0.613 -20.898,-0.929 2.176,19.109 4.351,38.199 6.531,57.308 32.223,1.766 64.418,3.285 96.555,4.328 -2.211,-19.383 -4.422,-38.781 -6.633,-58.168 -5.582,-0.129 -11.176,-0.269 -16.762,-0.437 -16.133,-19.137 -32.25,-38.25 -48.363,-57.297 14.137,-46.332 28.223,-93.203 42.227,-140.688 5.566,-0.027 11.14,-0.089 16.703,-0.148 -2.231,-19.594 -4.465,-39.176 -6.7,-58.758 -37.41,0.777 -74.894,0.86 -112.429,0.582 2.195,19.25 4.386,38.504 6.582,57.754 6.562,0.109 13.113,0.211 19.672,0.285 -7.52,25.129 -15.059,50.114 -22.621,74.934 -8.204,-9.539 -16.403,-19.051 -24.606,-28.531 -1.797,-15.774 -3.598,-31.536 -5.391,-47.293 5.215,0.105 10.422,0.199 15.637,0.308 -2.187,-19.211 -4.375,-38.406 -6.566,-57.609 -30.328,-0.305 -60.672,-0.82 -91.024,-1.348 2.16,18.938 4.321,37.871 6.477,56.789 5.199,0.141 10.406,0.281 15.613,0.414 7.32,64.239 14.645,128.489 21.969,192.719 -5.223,-0.297 -10.445,-0.578 -15.668,-0.875 2.141,18.777 4.281,37.566 6.422,56.344 30.519,1.98 61.027,3.949 91.519,5.707 -2.172,-19.055 -4.343,-38.094 -6.511,-57.145" /><path
         id="path120"
         style="fill:#ffffff;fill-opacity:1;fill-rule:nonzero;stroke:none"
         d="m 994.668,826.293 c 58.132,1.281 116.042,0.773 173.622,-2.773 -3.9,-34.262 -7.81,-68.52 -11.71,-102.762 -16.49,1.269 -33.01,2.293 -49.56,3.094 1.56,13.683 3.12,27.378 4.69,41.078 -15.31,0.648 -30.64,1.097 -46,1.386 -2.4,-21.089 -4.81,-42.179 -7.21,-63.269 18.2,-0.52 36.38,-1.27 54.53,-2.293 -2.34,-20.496 -4.67,-40.981 -7.01,-61.473 -18.13,1.199 -36.29,2.117 -54.47,2.797 -2.84,-24.898 -5.68,-49.812 -8.52,-74.707 15.31,-0.754 30.58,-1.664 45.84,-2.777 1.63,14.308 3.26,28.617 4.89,42.926 16.52,-1.079 33,-2.391 49.46,-3.961 -4,-35.024 -7.99,-70.047 -11.98,-105.075 -57.26,6.336 -114.86,9.621 -172.674,11.114 2.293,20.101 4.582,40.187 6.872,60.269 6.05,-0.109 12.093,-0.23 18.136,-0.363 7.492,65.715 14.985,131.441 22.476,197.156 -6.066,-0.035 -12.128,-0.086 -18.198,-0.172 2.273,19.938 4.543,39.864 6.816,59.805" /><path
         id="path122"
         style="fill:#ffffff;fill-opacity:1;fill-rule:nonzero;stroke:none"
         d="m 1264.9,663.16 c 2.21,9.262 10.69,28.121 15.1,38.957 7.01,15.074 14.03,30.153 21.04,45.246 -5.18,0.895 -10.39,1.762 -15.58,2.594 2.3,20.203 4.61,40.418 6.91,60.625 25.43,-3.836 50.77,-8.465 76,-14.008 -2.33,-20.433 -4.66,-40.871 -6.99,-61.297 -5.06,1.141 -10.12,2.278 -15.18,3.352 -23.27,-48.055 -46.54,-96.133 -69.81,-144.191 -2.09,-18.336 -4.18,-36.676 -6.26,-55.016 5.26,-1.039 10.52,-2.133 15.78,-3.246 -2.35,-20.59 -4.69,-41.192 -7.04,-61.789 -30.01,6.66 -60.15,12.156 -90.4,16.676 2.32,20.32 4.64,40.644 6.95,60.968 5.4,-0.761 10.78,-1.543 16.17,-2.367 2.11,18.496 4.21,36.996 6.32,55.488 -12.57,53.258 -25.25,105.715 -38.01,157.43 -4.67,0.383 -9.34,0.754 -14.01,1.098 2.26,19.859 4.52,39.703 6.79,59.566 32.63,-2.113 65.16,-5.203 97.55,-9.512 -2.3,-20.152 -4.59,-40.289 -6.89,-60.437 -4.91,0.703 -9.84,1.375 -14.76,2.019 3.6,-17.367 7.19,-34.8 10.77,-52.312 0.69,-9.219 4.21,-31.41 4.42,-39.668 0.38,-0.051 0.76,-0.113 1.13,-0.176" /><path
         id="path124"
         style="fill:#000000;fill-opacity:1;fill-rule:nonzero;stroke:none"
         d="m 1420.59,928.297 -17.44,-12.746 -3.71,5.097 L 333.82,141.297 c -12.035,-8.805 -33.687,-12.551 -60.242,-12.684 v -0.039 l -2.637,0.043 c -3.175,0.02 -6.414,0.078 -9.722,0.184 l -2.102,0.043 0.024,0.035 c -0.012,-0.004 -0.02,0.016 -0.02,0.016 l -0.004,-0.051 -1.808,0.113 c -5.579,0.242 -11.286,0.594 -17.137,1.098 l -0.434,0.031 -10.359,1.012 -0.117,0.011 c -6.922,0.731 -13.985,1.668 -21.114,2.707 l -0.011,-0.031 -1.832,0.289 c -5.555,0.824 -11.153,1.703 -16.762,2.684 l -0.18,0.023 -0.648,0.121 c -5.508,0.969 -11.051,2.024 -16.574,3.133 v -0.031 l -3.387,0.695 h -0.047 l -4.781,0.985 -0.27,0.07 c -7.636,1.617 -15.222,3.363 -22.726,5.18 l -4.887,1.129 -9.754,2.167 0.039,0.418 c -14.933,3.961 -29.2186,8.266 -42.3983,12.77 l -1.0195,0.312 -1.5547,0.575 c -4.8321,1.675 -9.5352,3.359 -14.0117,5.07 l -0.6485,0.242 -0.9531,0.379 c -4.4024,1.719 -8.5508,3.445 -12.5547,5.176 l -1.5391,0.625 0.0039,0.031 c -19.3085,8.504 -33.3476,17.117 -38.7109,24.91 -26.7852,38.907 -9.38281,95.078 29.25,76.539 7.1016,-3.398 18.2109,-8.191 31.8789,-13.718 l 12.1367,-4.801 c 0.4727,-0.184 0.9336,-0.375 1.3946,-0.559 l 16.0004,-6.074 21.421,-7.918 c 0.34,-0.105 0.692,-0.227 1.02,-0.355 l 8.918,-3.164 c 1.082,-0.379 2.18,-0.77 3.269,-1.145 l 18.356,-6.262 c 0.75,-0.269 1.488,-0.515 2.25,-0.761 l 4.648,-1.54 c 1.313,-0.417 2.641,-0.851 3.969,-1.285 l 22.43,-7.047 c 0.68,-0.199 1.383,-0.398 2.07,-0.609 l 19.211,-5.519 c 0.68,-0.192 1.379,-0.387 2.074,-0.571 l 13.61,-3.551 c 0.656,-0.16 1.297,-0.328 1.953,-0.476 l 6.535,-1.551 19.406,-4.051 6.617,-1.105 c 0.231,-0.031 0.461,-0.07 0.688,-0.102 l 13.051,-1.531 c 0.242,-0.016 0.48,-0.047 0.703,-0.066 l 17.75,0.172 c 30.258,1.714 42.496,-1.602 83.969,20.425 l 997.69,729.68 -3.73,5.09 17.43,12.746 z M 76.2344,258.367 v 0 l -19.8242,-80.152 7.4179,-3.047 18.6016,80.734 z m 52.0386,-19.601 v 0 l -14.793,-80.258 12.055,-3.383 7.145,82.07 z m -25.605,9.379 v 0 l -12.625,4.812 -18.6016,-80.75 8.8711,-3.23 15.5,49.836 z m 3.832,-1.403 v 0 l -18.7891,-80.269 21.1911,-6.645 11.778,81.676 z m 29.227,-94.461 v 0 l 17.117,77.996 -12.434,4.235 -9.676,-81.117 z m 24.683,75.461 v 0 l -19.879,-76.554 19.5,-4.458 2.543,80.293 z m 25.512,-8.082 v 0 l -15.34,4.805 -2.508,-79.5 0.977,-0.199 z m 7.605,-2.281 v 0 l -19.777,-73.504 12.73,-2.426 20.676,72.016 z m 21.434,-6.078 v 0 l -20.441,-71.242 10.582,-1.7 17.429,70.973 z m 15.297,-3.895 v 0 l -19.52,-69.801 15.106,-1.972 8.476,70.812 z m 6.258,-72.937 v 0 l 14.207,68.558 -11.7,2.446 -5.312,-70.743 z m 27.695,-1.668 v 0 l 6.277,-0.113 17.789,66.906 -9.41,-0.094 -14.5,-65.687 z m -5.336,68.73 v 0 l -2.289,0.387 -12.07,-68.094 7.668,-0.476 5.332,42.05 z m 12.066,-1.539 v 0 l -6.152,0.731 -8.551,-67.571 3.887,-0.183 z M 1389.51,935.66 v 0 l -7.9,10.797 -671.43,-491.051 150.89,93.782 528.44,386.472" /><path
         id="path126"
         style="fill:#f0dbb2;fill-opacity:1;fill-rule:nonzero;stroke:none"
         d="m 63.8281,175.168 18.6016,80.734 -6.1953,2.465 -19.8242,-80.152 7.4179,-3.047" /><path
         id="path128"
         style="fill:#f0dbb2;fill-opacity:1;fill-rule:nonzero;stroke:none"
         d="m 71.4414,172.207 8.8711,-3.23 15.5,49.836 6.8555,29.332 -12.625,4.812 -18.6016,-80.75" /><path
         id="path130"
         style="fill:#f0dbb2;fill-opacity:1;fill-rule:nonzero;stroke:none"
         d="m 87.7109,166.473 21.1911,-6.645 11.778,81.676 -14.18,5.238 -18.7891,-80.269" /><path
         id="path132"
         style="fill:#f0dbb2;fill-opacity:1;fill-rule:nonzero;stroke:none"
         d="m 125.535,155.125 7.145,82.07 -4.407,1.571 -14.793,-80.258 12.055,-3.383" /><path
         id="path134"
         style="fill:#f0dbb2;fill-opacity:1;fill-rule:nonzero;stroke:none"
         d="m 140.41,234.512 -9.676,-81.117 4.993,-1.114 17.117,77.996 -12.434,4.235" /><path
         id="path136"
         style="fill:#f0dbb2;fill-opacity:1;fill-rule:nonzero;stroke:none"
         d="m 160.031,146.73 2.543,80.293 -2.164,0.719 -19.879,-76.554 19.5,-4.458" /><path
         id="path138"
         style="fill:#f0dbb2;fill-opacity:1;fill-rule:nonzero;stroke:none"
         d="m 168.074,144.965 0.977,-0.199 16.871,74.894 -15.34,4.805 -2.508,-79.5" /><path
         id="path140"
         style="fill:#f0dbb2;fill-opacity:1;fill-rule:nonzero;stroke:none"
         d="m 186.48,141.449 20.676,72.016 -13.629,3.914 -19.777,-73.504 12.73,-2.426" /><path
         id="path142"
         style="fill:#f0dbb2;fill-opacity:1;fill-rule:nonzero;stroke:none"
         d="m 205.102,138.359 17.429,70.973 -7.57,1.969 -20.441,-71.242 10.582,-1.7" /><path
         id="path144"
         style="fill:#f0dbb2;fill-opacity:1;fill-rule:nonzero;stroke:none"
         d="m 225.844,135.633 8.476,70.812 -4.062,0.961 -19.52,-69.801 15.106,-1.972" /><path
         id="path146"
         style="fill:#f0dbb2;fill-opacity:1;fill-rule:nonzero;stroke:none"
         d="m 239.023,205.473 -5.312,-70.743 2.805,-0.261 14.207,68.558 -11.7,2.446" /><path
         id="path148"
         style="fill:#f0dbb2;fill-opacity:1;fill-rule:nonzero;stroke:none"
         d="m 244.516,133.824 7.668,-0.476 5.332,42.05 1.359,26.133 -2.289,0.387 -12.07,-68.094" /><path
         id="path150"
         style="fill:#f0dbb2;fill-opacity:1;fill-rule:nonzero;stroke:none"
         d="m 288.277,199.594 -9.41,-0.094 -14.5,-65.687 -0.156,-1.012 6.277,-0.113 17.789,66.906" /><path
         id="path152"
         style="fill:#f0dbb2;fill-opacity:1;fill-rule:nonzero;stroke:none"
         d="m 256.238,133.152 3.887,-0.183 10.816,67.023 -6.152,0.731 -8.551,-67.571" /><path
         id="path154"
         style="fill:#f0dbb2;fill-opacity:1;fill-rule:nonzero;stroke:none"
         d="m 710.18,455.406 150.89,93.782 528.44,386.472 -7.9,10.797 -671.43,-491.051" /></g></g></svg>