<?xml version="1.0" encoding="UTF-8" standalone="no"?>
<svg
   xmlns:dc="http://purl.org/dc/elements/1.1/"
   xmlns:cc="http://creativecommons.org/ns#"
   xmlns:rdf="http://www.w3.org/1999/02/22-rdf-syntax-ns#"
   xmlns:svg="http://www.w3.org/2000/svg"
   xmlns="http://www.w3.org/2000/svg"
   viewBox="0 0 121.33333 105.33333"
   height="105.33333"
   width="121.33333"
   xml:space="preserve"
   id="svg2"
   version="1.1"><metadata
     id="metadata8"><rdf:RDF><cc:Work
         rdf:about=""><dc:format>image/svg+xml</dc:format><dc:type
           rdf:resource="http://purl.org/dc/dcmitype/StillImage" /></cc:Work></rdf:RDF></metadata><defs
     id="defs6" /><g
     transform="matrix(1.3333333,0,0,-1.3333333,0,105.33333)"
     id="g10"><g
       transform="scale(0.1)"
       id="g12"><path
         id="path14"
         style="fill:#ffffff;fill-opacity:1;fill-rule:nonzero;stroke:none"
         d="m 783.66,521.113 0.238,124.668 -30.183,4.508 c -13.047,1.953 -28.578,4.305 -45.649,6.953 -0.019,0.199 -0.019,0.395 -0.046,0.59 -0.02,0.352 -0.086,0.699 -0.125,1.051 l -0.024,0.496 -0.086,0.457 c -4.347,36.73 -34.414,68.406 -84.976,89.359 -49.86,20.66 -114.192,28.637 -181.133,22.461 -66.946,-6.176 -128.727,-25.793 -173.969,-55.23 -24.855,-16.172 -43.227,-34.34 -54.457,-53.465 -31.34,-5.016 -60.102,-9.402 -81.953,-12.672 l -30.172,-4.508 0.227,-122.703 -100.953562,0.285 V 441.809 H 19.1992 V 387.93 H 0.398438 V 306.363 H 101.668 l 2.59,-6.277 c 8.461,-20.492 32.89,-74.223 76.859,-130.449 C 251.441,79.6914 337.223,24.832 436.078,6.53516 l 6.43,-1.19922 6.43,1.19922 C 547.793,24.832 633.574,79.6914 703.887,169.637 c 44.004,56.242 68.398,109.961 76.859,130.445 l 2.594,6.281 h 71.89 v 81.563 h -13.41 l 29.325,51.289 h 31.492 v 81.558 l -118.977,0.34" /><path
         id="path16"
         style="fill:#293d63;fill-opacity:1;fill-rule:nonzero;stroke:none"
         d="M 436.078,6.53516 C 337.223,24.832 251.441,79.6914 181.117,169.637 137.148,225.863 112.719,279.594 104.258,300.086 l -2.676,6.48 v 88.993 l -0.457,250.222 30.172,4.508 c 35.133,5.254 88.113,13.402 140.988,22.399 56.074,9.542 113.344,14.378 170.219,14.378 56.879,0 114.152,-4.836 170.226,-14.378 52.872,-8.993 105.852,-17.145 140.985,-22.399 l 30.183,-4.508 -0.472,-250.211 v -89.007 l -2.68,-6.481 C 772.285,279.598 747.891,225.879 703.887,169.637 633.574,79.6914 547.793,24.832 448.938,6.53516 l -6.434,-1.19922 -6.426,1.19922" /><path
         id="path18"
         style="fill:#ffffff;fill-opacity:1;fill-rule:nonzero;stroke:none"
         d="M 442.504,41.2813 C 352.375,57.9688 273.832,108.438 208.953,191.402 167.234,244.758 144.227,295.887 136.926,313.574 v 81.981 L 136.52,615.34 c 34.453,5.152 88.199,13.41 141.695,22.512 54.113,9.207 109.387,13.875 164.289,13.875 54.91,0 110.184,-4.668 164.297,-13.875 53.496,-9.102 107.242,-17.36 141.687,-22.512 L 748.082,395.633 V 313.566 C 740.82,295.957 717.813,244.801 676.059,191.402 611.184,108.438 532.637,57.9688 442.504,41.2813" /><path
         id="path20"
         style="fill:#293d63;fill-opacity:1;fill-rule:nonzero;stroke:none"
         d="M 442.504,66.5586 C 360.398,82.9492 288.426,130.074 228.512,206.699 192.004,253.379 170.664,297.84 161.75,318.59 v 76.965 l -0.363,198.429 c 33.816,5.141 77.426,11.981 120.992,19.395 52.746,8.973 106.625,13.523 160.125,13.523 53.512,0 107.383,-4.55 160.137,-13.523 43.554,-7.414 87.172,-14.254 120.976,-19.395 L 723.254,395.68 V 318.598 C 715.305,300.172 693.52,254.047 656.504,206.699 596.586,130.074 524.613,82.9492 442.504,66.5586" /><path
         id="path22"
         style="fill:#7697ce;fill-opacity:1;fill-rule:nonzero;stroke:none"
         d="M 505.051,191.98 H 462.922 V 97.1484 c 14.402,4.2266 28.445,9.5396 42.129,15.9216 v 78.91" /><path
         id="path24"
         style="fill:#7697ce;fill-opacity:1;fill-rule:nonzero;stroke:none"
         d="M 374.66,115.547 C 388.648,108.691 403.027,103 417.773,98.4414 V 191.98 H 374.66 v -76.433" /><path
         id="path26"
         style="fill:#7697ce;fill-opacity:1;fill-rule:nonzero;stroke:none"
         d="m 550.203,191.98 v -53.054 c 21.453,14.734 41.86,32.402 61.129,53.054 h -61.129" /><path
         id="path28"
         style="fill:#7697ce;fill-opacity:1;fill-rule:nonzero;stroke:none"
         d="m 329.508,191.98 h -55.832 c 17.679,-18.945 36.316,-35.375 55.832,-49.335 v 49.335" /><path
         id="path30"
         style="fill:#ffffff;fill-opacity:1;fill-rule:nonzero;stroke:none"
         d="m 273.031,243.609 v -6.539 c 0,-7.879 -3.941,-12.379 -11.535,-12.379 -7.594,0 -11.531,4.5 -11.531,12.379 v 25.594 c 0,7.875 3.937,12.379 11.531,12.379 7.594,0 11.535,-4.504 11.535,-12.379 v -4.781 h -7.312 v 5.277 c 0,3.516 -1.551,4.848 -4.012,4.848 -2.461,0 -4.008,-1.332 -4.008,-4.848 v -26.586 c 0,-3.515 1.547,-4.781 4.008,-4.781 2.461,0 4.012,1.266 4.012,4.781 v 7.035 h 7.312" /><path
         id="path32"
         style="fill:#ffffff;fill-opacity:1;fill-rule:nonzero;stroke:none"
         d="m 292.512,225.25 h -7.735 v 49.23 h 7.735 v -21.097 h 8.793 v 21.097 h 7.875 v -49.23 h -7.875 v 21.098 h -8.793 V 225.25" /><path
         id="path34"
         style="fill:#ffffff;fill-opacity:1;fill-rule:nonzero;stroke:none"
         d="m 329.227,240.863 h 7.449 l -3.727,24.895 z m 17.648,-15.613 h -7.805 l -1.336,8.938 h -9.492 l -1.34,-8.938 h -7.097 l 7.875,49.23 H 339 l 7.875,-49.23" /><path
         id="path36"
         style="fill:#ffffff;fill-opacity:1;fill-rule:nonzero;stroke:none"
         d="m 373.887,239.531 5.269,34.949 h 10.762 v -49.23 h -7.313 v 35.305 l -5.343,-35.305 h -7.317 l -5.765,34.813 V 225.25 h -6.754 v 49.23 h 10.762 l 5.699,-34.949" /><path
         id="path38"
         style="fill:#ffffff;fill-opacity:1;fill-rule:nonzero;stroke:none"
         d="m 410.316,267.449 v -16.668 h 3.661 c 2.457,0 3.796,1.125 3.796,4.641 v 7.383 c 0,3.519 -1.339,4.644 -3.796,4.644 z m 15.192,-5.136 v -6.399 c 0,-7.875 -3.801,-12.168 -11.531,-12.168 h -3.661 V 225.25 h -7.734 v 49.23 h 11.395 c 7.73,0 11.531,-4.289 11.531,-12.167" /><path
         id="path40"
         style="fill:#ffffff;fill-opacity:1;fill-rule:nonzero;stroke:none"
         d="m 436.477,225.25 h 7.73828 v 49.2305 H 436.477 Z" /><path
         id="path42"
         style="fill:#ffffff;fill-opacity:1;fill-rule:nonzero;stroke:none"
         d="m 463.977,236.574 c 0,-3.515 1.546,-4.851 4.011,-4.851 2.461,0 4.008,1.336 4.008,4.851 v 26.586 c 0,3.516 -1.547,4.848 -4.008,4.848 -2.465,0 -4.011,-1.332 -4.011,-4.848 z m -7.735,26.09 c 0,7.875 4.149,12.379 11.746,12.379 7.59,0 11.742,-4.504 11.742,-12.379 V 237.07 c 0,-7.879 -4.152,-12.379 -11.742,-12.379 -7.597,0 -11.746,4.5 -11.746,12.379 v 25.594" /><path
         id="path44"
         style="fill:#ffffff;fill-opacity:1;fill-rule:nonzero;stroke:none"
         d="M 498.652,260.906 V 225.25 h -6.964 v 49.23 h 9.707 l 7.945,-29.464 v 29.464 h 6.89 v -49.23 h -7.945 l -9.633,35.656" /><path
         id="path46"
         style="fill:#ffffff;fill-opacity:1;fill-rule:nonzero;stroke:none"
         d="m 539.23,275.043 c 7.528,0 11.395,-4.504 11.395,-12.379 v -1.547 h -7.312 v 2.043 c 0,3.516 -1.411,4.848 -3.872,4.848 -2.464,0 -3.863,-1.332 -3.863,-4.848 0,-10.129 15.117,-12.027 15.117,-26.09 0,-7.879 -3.937,-12.379 -11.535,-12.379 -7.594,0 -11.531,4.5 -11.531,12.379 v 3.02 h 7.312 v -3.516 c 0,-3.515 1.547,-4.781 4.008,-4.781 2.461,0 4.008,1.266 4.008,4.781 0,10.125 -15.121,12.028 -15.121,26.09 0,7.875 3.871,12.379 11.394,12.379" /><path
         id="path48"
         style="fill:#ffffff;fill-opacity:1;fill-rule:nonzero;stroke:none"
         d="m 569.895,225.25 h -7.735 v 49.23 h 7.735 v -21.097 h 8.789 v 21.097 h 7.879 v -49.23 h -7.879 v 21.098 h -8.789 V 225.25" /><path
         id="path50"
         style="fill:#ffffff;fill-opacity:1;fill-rule:nonzero;stroke:none"
         d="m 599.223,225.25 h 7.73438 v 49.2305 H 599.223 Z" /><path
         id="path52"
         style="fill:#ffffff;fill-opacity:1;fill-rule:nonzero;stroke:none"
         d="m 627.355,267.449 v -16.668 h 3.661 c 2.453,0 3.793,1.125 3.793,4.641 v 7.383 c 0,3.519 -1.34,4.644 -3.793,4.644 z m 15.188,-5.136 v -6.399 c 0,-7.875 -3.797,-12.168 -11.527,-12.168 h -3.661 V 225.25 h -7.738 v 49.23 h 11.399 c 7.73,0 11.527,-4.289 11.527,-12.167" /><path
         id="path54"
         style="fill:#7697ce;fill-opacity:1;fill-rule:nonzero;stroke:none"
         d="M 700.438,657.133 C 693.82,728.73 578.289,776.605 442.375,764.063 306.465,751.52 201.641,683.313 208.246,611.719 c 6.606,-71.598 122.141,-119.473 258.055,-106.93 135.91,12.543 240.734,80.75 234.137,152.344" /><path
         id="path56"
         style="fill:#ffffff;fill-opacity:1;fill-rule:nonzero;stroke:none"
         d="M 226.672,569.285 C 263,548.066 355.473,539.023 462.23,548.875 c 106.758,9.852 196.016,35.664 227.84,63.172 8.055,14.527 11.785,29.726 10.368,45.086 -0.043,0.347 -0.083,0.691 -0.125,1.039 2.121,-34.707 -105.047,-72.809 -240.297,-85.285 -135.254,-12.481 -247.582,5.363 -251.84,39.875 0.027,-0.348 0.039,-0.696 0.07,-1.043 1.418,-15.36 7.859,-29.621 18.426,-42.434" /><path
         id="path58"
         style="fill:#ffffff;fill-opacity:1;fill-rule:nonzero;stroke:none"
         d="m 608.211,694.734 c -3.035,41.625 -86.762,69.926 -191.008,66.325 -123.441,-18.102 -215.148,-82.235 -208.957,-149.34 0.067,-0.735 0.168,-1.461 0.254,-2.188 39.02,-16.676 118.25,-15.937 200.102,-9.972 113.468,8.269 202.836,50.879 199.609,95.175" /><path
         id="path60"
         style="fill:#293d63;fill-opacity:1;fill-rule:nonzero;stroke:none"
         d="m 484.852,747.973 c -13.348,0 -26.981,-0.61 -40.821,-1.891 -123.644,-11.41 -223.39,-72.176 -217.804,-132.707 5.582,-60.527 114.734,-102.039 238.414,-90.605 62.863,5.8 120.515,23.976 162.32,51.175 37.777,24.582 57.988,54.297 55.484,81.532 -4.961,53.753 -91.64,92.496 -197.593,92.496 z M 422.754,484.699 c -126.996,0 -225.645,51.176 -232.492,125.36 -7.633,82.777 102.379,158.32 250.453,171.984 148.027,13.637 270.047,-40.477 277.695,-123.254 3.836,-41.621 -21.633,-82.5 -71.754,-115.109 -46.633,-30.344 -110.101,-50.539 -178.703,-56.871 -15.371,-1.418 -30.484,-2.11 -45.199,-2.11" /><path
         id="path62"
         style="fill:#7697ce;fill-opacity:1;fill-rule:nonzero;stroke:none"
         d="m 226.203,623.676 c 0,0 70.895,103.179 211.442,112.043 0,0 -160.075,15.707 -211.442,-112.043" /><path
         id="path64"
         style="fill:#293d63;fill-opacity:1;fill-rule:nonzero;stroke:none"
         d="m 376.191,550.84 c -34.921,0 -67.199,2.223 -94.75,6.64 -58.144,9.317 -88.863,27.528 -91.32,54.129 -0.91,9.926 6.395,18.719 16.324,19.637 9.852,0.859 18.625,-6.312 19.621,-16.144 4.997,-12.633 80.938,-38.219 232.293,-24.235 151.704,13.996 221.664,53.188 223.957,66.426 -0.925,9.93 6.379,18.586 16.321,19.5 9.961,0.98 18.703,-6.523 19.625,-16.453 2.461,-26.598 -24.422,-50.121 -79.864,-69.926 -46.769,-16.695 -109.527,-29.305 -176.726,-35.512 -29.43,-2.711 -58.262,-4.062 -85.481,-4.062" /><path
         id="path66"
         style="fill:#293d63;fill-opacity:1;fill-rule:nonzero;stroke:none"
         d="M 0.398438,523.363 V 441.809 H 19.1992 V 387.93 H 0.398438 V 306.363 H 855.23 v 81.563 h -13.41 l 29.325,51.289 h 31.492 v 81.558 l -902.238562,2.59" /><path
         id="path68"
         style="fill:#ffffff;fill-opacity:1;fill-rule:nonzero;stroke:none"
         d="m 293.91,461.914 h 16.117 v -62.766 c 0,-16.546 -12.652,-30.078 -28.109,-30.078 h -5.59 c -15.461,0 -28.109,13.532 -28.109,30.078 v 62.766 h 17.816 v 38.328 h -76.961 v -38.328 h 15.656 v -65.703 c 0,-37.523 28.692,-68.227 63.754,-68.227 h 23.575 c 35.062,0 63.754,30.704 63.754,68.227 v 65.703 h 15.062 v 38.328 H 293.91 v -38.328" /><path
         id="path70"
         style="fill:#ffffff;fill-opacity:1;fill-rule:nonzero;stroke:none"
         d="m 800.004,499.156 v -38.324 h 8.613 L 795.59,437.969 c -1.367,-2.403 -4.645,-2.41 -6.016,-0.012 l -13.152,22.875 h 10.648 v 38.324 h -80.996 v -38.324 h 16.684 l 47.472,-72.066 v -22.457 h -17.609 v -38.325 h 80.996 v 38.325 h -17.91 v 19.5 l 42.887,75.023 h 22.429 v 38.324 h -81.019" /><path
         id="path72"
         style="fill:#ffffff;fill-opacity:1;fill-rule:nonzero;stroke:none"
         d="m 135.863,441.582 c 0,-10.867 -9.781,-19.754 -21.73,-19.754 H 86.0273 v 41.594 h 28.1057 c 11.949,0 21.73,-8.887 21.73,-19.746 z m 15.77,-51.637 c -1.121,1.735 -0.531,4.118 1.238,5.055 16.473,8.715 27.875,26.895 27.875,47.801 v 5.652 c 0,29.313 -22.414,53.297 -49.808,53.297 H 22.0195 V 463.422 H 40.8164 V 366.309 H 22.0195 v -38.325 h 81.9925 v 38.325 H 85.8281 v 23.195 h 14.0274 l 22.3125,-30.34 v -31.18 h 65.277 v 38.325 H 166.93 l -15.297,23.636" /><path
         id="path74"
         style="fill:#ffffff;fill-opacity:1;fill-rule:nonzero;stroke:none"
         d="M 506.621,421.125 H 454.223 V 384.73 h 41.746 c -8.418,-9.953 -20.895,-16.273 -34.832,-16.273 -25.356,0 -45.91,20.891 -45.91,46.656 0,25.766 20.554,46.653 45.91,46.653 9.734,0 18.754,-3.086 26.179,-8.336 h 0.832 v -19.797 h 40.946 v 34.566 c -15.668,20.696 -40.27,34.043 -67.957,34.043 -47.352,0 -85.742,-39.012 -85.742,-87.129 0,-48.121 38.39,-87.129 85.742,-87.129 30.289,0 56.894,15.973 72.144,40.067 v 53.074 h -26.66" /><path
         id="path76"
         style="fill:#ffffff;fill-opacity:1;fill-rule:nonzero;stroke:none"
         d="m 657.285,383.207 c 0,-8.719 -7.715,-15.859 -17.14,-15.859 h -35.95 v 33.843 h 35.95 c 9.425,0 17.14,-7.136 17.14,-15.863 z m -53.09,80.227 h 33.344 c 8.742,0 15.891,-5.977 15.891,-13.286 v -1.773 c 0,-7.309 -7.149,-13.281 -15.891,-13.281 h -33.344 z m 57.235,38.324 H 539.934 v -38.324 h 19.054 V 366.309 H 539.934 V 327.984 H 661.43 c 20.929,0 38.066,18.325 38.066,40.723 v 5.438 c 0,22.402 -17.137,40.722 -38.066,40.722 v 0 c 20.929,0 38.066,18.332 38.066,40.727 v 5.441 c 0,22.399 -17.137,40.723 -38.066,40.723" /><path
         id="path78"
         style="fill:#e2e2e2;fill-opacity:1;fill-rule:nonzero;stroke:none"
         d="m 310.027,420.859 v -21.711 c 0,-16.546 -12.652,-30.078 -28.109,-30.078 h -5.59 c -15.457,0 -28.109,13.532 -28.109,30.078 v 21.711 H 204.73 v -24.648 c 0,-37.523 28.692,-68.227 63.754,-68.227 h 23.575 c 35.062,0 63.754,30.704 63.754,68.227 v 24.648 h -45.786" /><path
         id="path80"
         style="fill:#e2e2e2;fill-opacity:1;fill-rule:nonzero;stroke:none"
         d="m 815.707,385.809 20.027,35.05 h -86.648 l 21.144,-32.093 v -22.457 h -17.609 v -38.325 h 80.996 v 38.325 h -17.91 v 19.5" /><path
         id="path82"
         style="fill:#e2e2e2;fill-opacity:1;fill-rule:nonzero;stroke:none"
         d="m 151.633,389.945 c -1.121,1.735 -0.531,4.118 1.238,5.055 10.317,5.457 18.645,14.633 23.426,25.859 H 40.8164 v -54.55 H 22.0195 v -38.325 h 81.9925 v 38.325 H 85.8281 v 23.195 h 14.0274 l 22.3125,-30.34 v -31.18 h 65.277 v 38.325 H 166.93 l -15.297,23.636" /><path
         id="path84"
         style="fill:#e2e2e2;fill-opacity:1;fill-rule:nonzero;stroke:none"
         d="M 454.223,420.859 V 384.73 h 41.746 c -8.418,-9.953 -20.895,-16.273 -34.832,-16.273 -25.356,0 -45.91,20.891 -45.91,46.656 0,1.946 0.132,3.864 0.359,5.746 h -39.984 c -0.125,-1.902 -0.207,-3.812 -0.207,-5.746 0,-48.121 38.39,-87.129 85.742,-87.129 30.289,0 56.89,15.973 72.144,40.067 v 52.808 h -79.058" /><path
         id="path86"
         style="fill:#e2e2e2;fill-opacity:1;fill-rule:nonzero;stroke:none"
         d="m 657.285,383.207 c 0,-8.719 -7.715,-15.859 -17.14,-15.859 h -35.95 v 33.843 h 35.95 c 9.425,0 17.14,-7.136 17.14,-15.863 z m 4.145,31.66 v 0 c 7.215,0 13.957,2.223 19.726,5.992 H 558.988 v -54.55 H 539.934 V 327.984 H 661.43 c 20.929,0 38.066,18.325 38.066,40.723 v 5.438 c 0,22.402 -17.137,40.722 -38.066,40.722" /></g></g></svg>