<?xml version="1.0" encoding="UTF-8" standalone="no"?>
<svg
   xmlns:dc="http://purl.org/dc/elements/1.1/"
   xmlns:cc="http://creativecommons.org/ns#"
   xmlns:rdf="http://www.w3.org/1999/02/22-rdf-syntax-ns#"
   xmlns:svg="http://www.w3.org/2000/svg"
   xmlns="http://www.w3.org/2000/svg"
   viewBox="0 0 109.33333 98.666664"
   height="98.666664"
   width="109.33333"
   xml:space="preserve"
   id="svg2"
   version="1.1"><metadata
     id="metadata8"><rdf:RDF><cc:Work
         rdf:about=""><dc:format>image/svg+xml</dc:format><dc:type
           rdf:resource="http://purl.org/dc/dcmitype/StillImage" /></cc:Work></rdf:RDF></metadata><defs
     id="defs6" /><g
     transform="matrix(1.3333333,0,0,-1.3333333,0,98.666667)"
     id="g10"><g
       transform="scale(0.1)"
       id="g12"><path
         id="path14"
         style="fill:#efefaa;fill-opacity:1;fill-rule:nonzero;stroke:none"
         d="M 140.703,400.898 285.738,149.723 c 80.012,-138.6527 209.821,-138.6527 289.879,0 l 145.012,251.175 c 80.047,138.641 15.156,251.051 -144.941,251.051 H 285.645 c -160.098,0 -225.0005,-112.41 -144.942,-251.051" /><path
         id="path16"
         style="fill:#222443;fill-opacity:1;fill-rule:nonzero;stroke:none"
         d="m 430.68,3.01172 c -17.758,0 -35.504,2.9375 -52.739,8.71878 -16.894,5.6562 -33.375,14.082 -48.968,25.0429 -30.551,21.4649 -57.535,52.2696 -80.246,91.5786 L 103.723,379.543 c -22.7347,39.324 -35.9144,78.117 -39.2074,115.305 -1.6992,18.965 -0.7695,37.453 2.7891,54.902 3.5976,17.828 9.9531,34.645 18.8203,50.023 8.8789,15.383 20.289,29.286 33.914,41.321 13.359,11.804 28.859,21.847 46.168,29.875 33.856,15.734 74.055,23.703 119.438,23.703 h 290.043 c 45.394,0 85.578,-7.969 119.433,-23.703 17.285,-8.028 32.848,-18.071 46.172,-29.875 13.641,-12.035 25.055,-25.938 33.922,-41.321 8.875,-15.378 15.219,-32.195 18.82,-50.023 3.528,-17.449 4.465,-35.937 2.778,-54.902 -3.309,-37.188 -16.489,-75.981 -39.184,-115.305 L 612.609,128.352 C 589.906,89.0352 562.91,58.2383 532.359,36.7734 516.762,25.8125 500.266,17.3867 483.395,11.7305 466.164,5.94922 448.406,3.01172 430.68,3.01172" /><path
         id="path18"
         style="fill:#1c87c7;fill-opacity:1;fill-rule:nonzero;stroke:none"
         d="m 430.68,14.2578 c -16.547,0 -33.071,2.7344 -49.153,8.1563 -15.875,5.3047 -31.382,13.2382 -46.086,23.5781 -29.207,20.5 -55.105,50.1211 -76.968,88.0078 L 113.449,385.164 c -21.8748,37.91 -34.5545,75.121 -37.7224,110.672 -1.5938,17.891 -0.7227,35.285 2.6172,51.687 3.3593,16.622 9.2578,32.329 17.5195,46.629 8.2577,14.301 18.8947,27.278 31.6207,38.508 12.559,11.082 27.161,20.528 43.438,28.086 32.391,15.043 70.965,22.684 114.723,22.684 h 290.043 c 43.75,0 82.339,-7.641 114.675,-22.684 16.309,-7.558 30.93,-17.004 43.477,-28.086 12.715,-11.23 23.355,-24.207 31.613,-38.508 8.277,-14.3 14.168,-30.007 17.547,-46.629 3.328,-16.402 4.188,-33.796 2.605,-51.687 -3.156,-35.551 -15.847,-72.762 -37.734,-110.672 L 602.855,134 C 580.996,96.1133 555.094,66.4922 525.891,45.9922 511.18,35.6523 495.68,27.7188 479.836,22.4141 463.73,16.9922 447.191,14.2578 430.68,14.2578" /><path
         id="path20"
         style="fill:#efefaa;fill-opacity:1;fill-rule:nonzero;stroke:none"
         d="M 140.703,400.898 285.738,149.723 c 80.012,-138.6527 209.821,-138.6527 289.879,0 l 145.012,251.175 c 80.047,138.641 15.156,251.051 -144.941,251.051 H 285.645 c -160.098,0 -225.0005,-112.41 -144.942,-251.051" /><path
         id="path22"
         style="fill:#4ac7f2;fill-opacity:1;fill-rule:nonzero;stroke:none"
         d="M 140.703,400.898 285.738,149.723 c 80.012,-138.6527 209.821,-138.6527 289.879,0 l 145.012,251.175 c 80.047,138.641 15.156,251.051 -144.941,251.051 H 285.645 c -160.098,0 -225.0005,-112.41 -144.942,-251.051" /><path
         id="path24"
         style="fill:#8aaac8;fill-opacity:1;fill-rule:evenodd;stroke:none"
         d="m 360.695,448.293 c 0,0 0,0 -0.136,1.082 0,0 0,0 -1.067,-0.125 1.203,-0.957 1.203,-0.957 1.203,-0.957" /><path
         id="path26"
         style="fill:#7ca1bf;fill-opacity:1;fill-rule:evenodd;stroke:none"
         d="m 336.438,468.457 c 0,0 0,0 -0.11,1.078 0,0 0,0 -1.086,-0.129 0.129,-1.078 0.129,-1.078 0.129,-1.078 1.067,0.129 1.067,0.129 1.067,0.129" /><path
         id="path28"
         style="fill:#6c98b9;fill-opacity:1;fill-rule:evenodd;stroke:none"
         d="m 418.77,428.875 c 1.074,0.129 2.281,-0.828 2.281,-0.828 0,0 0.121,-1.082 -0.953,-1.203 0.117,-1.082 0.117,-1.082 0.117,-1.082 0.129,-1.086 0.129,-1.086 0.129,-1.086 0.129,-1.082 0.129,-1.082 0.129,-1.082 1.082,0.125 1.082,0.125 1.082,0.125 1.207,-0.946 1.207,-0.946 1.207,-0.946 1.215,-0.957 1.34,-2.043 1.34,-2.043 1.199,-0.945 1.332,-2.031 1.332,-2.031 1.199,-0.957 1.199,-0.957 2.281,-0.828 0.137,-1.078 -0.824,-2.293 -0.824,-2.293 0.132,-1.082 0.132,-1.082 0.132,-1.082 1.2,-0.953 1.2,-0.953 1.2,-0.953 1.086,0.133 1.086,0.133 1.086,0.133 0.14,0.012 0.218,0.035 0.324,0.047 v 13.425 c -0.172,0.141 -0.426,0.344 -0.914,0.719 0,0 0,0 -1.196,0.957 0,0 0,0 -0.136,1.086 0,0 0,0 -1.067,-0.137 0,0 0,0 -1.086,-0.125 0,0 0,0 -0.129,1.09 0,0 0,0 -1.199,0.95 0,0 0,0 -1.082,-0.133 0,0 0,0 -1.086,-0.129 -1.07,-0.125 -1.07,-0.125 -1.207,0.961 0,0 0,0 -0.125,1.078 0,0 0,0 -1.207,0.953 0,0 0,0 -1.207,0.949 0,0 0,0 -1.203,0.949 0,0 0,0 -1.082,-0.121 0.129,-1.082 0.262,-2.164 0.391,-3.242 1.332,-2.039 2.547,-2.992 2.672,-4.078" /><path
         id="path30"
         style="fill:#6c98b9;fill-opacity:1;fill-rule:evenodd;stroke:none"
         d="m 674.199,330.91 -0.074,-0.008 v -2.195 l 0.34,0.039 c 0,0 0,0 -0.141,1.082 0,0 0,0 -0.125,1.082" /><path
         id="path32"
         style="fill:#ffffff;fill-opacity:1;fill-rule:evenodd;stroke:none"
         d="m 593.828,517.441 c 0,0 -23.269,-23.636 -42.39,-39.968 -8.383,-14.961 -81.153,-88.426 -81.153,-88.426 l -25.472,47.269 -17.262,-7.015 -10.762,7.015 -17.113,-27.562 c 0,0 -63.746,94.633 -71.102,111.105 -19.129,16.34 -78.73,99.325 -78.73,99.325 L 112.578,491.93 C 111.305,438.496 215.633,281.816 223.223,267.543 l 418.808,4.309 c 1.688,3.179 7.934,10.937 16.602,21.656 l 61.996,107.39 c 9.344,16.184 16.687,32.004 22.164,47.336 l -148.965,69.207" /><path
         id="path34"
         style="fill:#4ac7f2;fill-opacity:1;fill-rule:evenodd;stroke:none"
         d="m 257.66,530.691 c -0.5,2.641 -1.008,5.274 -1.75,9.215 -0.5,2.61 -0.976,5.219 -1.722,9.102 0,0 0,0 -1.5,0.898 0,0 0,0 -0.247,1.293 0,0 0,0 -0.242,1.293 0,0 -0.242,1.278 -0.484,2.559 0,0 0,0 -0.25,1.277 0,0 0,0 -0.238,1.274 0,0 0,0 -0.227,1.285 0,0 0,0 -0.246,1.265 -1.262,-0.418 -1.262,-0.418 -1.496,0.856 0,0 0,0 -0.242,1.265 -1.239,-0.41 -1.239,-0.41 -1.477,0.856 -1.223,-0.41 -1.223,-0.41 -1.695,2.101 0,0 0,0 1.226,0.411 0,0 0,0 -0.234,1.254 -1.223,-0.418 -1.223,-0.418 -1.465,0.832 0,0 0,0 -0.226,1.253 -1.219,-0.425 -1.219,-0.425 -1.454,0.821 -1.226,-0.426 -1.226,-0.426 -1.226,-0.426 -0.227,1.25 -0.449,2.488 -0.688,3.723 0,0 0,0 1.227,0.425 0,0 0,0 -0.223,1.239 0,0 0,0 -0.238,1.238 0,0 0,0 -0.227,1.227 0,0 0,0 1.211,0.437 0,0 0,0 -0.214,1.231 0,0 0,0 -0.247,1.222 0,0 0,0 1.223,0.442 0,0 0,0 -0.238,1.238 0,0 0,0 -0.231,1.226 0,0 0,0 1.231,0.438 0,0 0,0 -0.235,1.23 0,0 0,0 -0.23,1.219 0,0 0,0 0.996,1.684 0,0 0,0 -0.23,1.226 0,0 0,0 -0.243,1.211 0,0 -0.226,1.219 -0.457,2.438 0.996,1.683 0.762,2.894 0.524,4.109 0,0 0,0 -0.215,1.211 0,0 -0.234,1.199 -0.465,2.406 -0.226,1.207 -1.652,1.934 -1.879,3.141 -1.203,-0.481 -1.203,-0.481 -1.422,0.719 -0.976,-1.664 -0.976,-1.664 -0.976,-1.664 -1.192,-0.477 -1.192,-0.477 -1.192,-0.477 -0.972,-1.664 -2.148,-2.129 -3.336,-2.586 -0.964,-1.652 -0.964,-1.652 -2.132,-2.113 -0.961,-1.649 -2.118,-2.094 -3.286,-2.551 -0.953,-1.637 -2.101,-2.09 -2.101,-2.09 -0.945,-1.621 -0.945,-1.621 -0.945,-1.621 -1.149,-0.441 -1.149,-0.441 -1.149,-0.441 -0.945,-1.629 -2.094,-2.071 -2.094,-2.071 -2.07,-2.046 -3.203,-2.476 -4.328,-2.914 -0.926,-1.601 -0.926,-1.601 -0.926,-1.601 -2.05,-2.028 -3.164,-2.446 -4.265,-2.867 -0.922,-1.59 -0.922,-1.59 -0.922,-1.59 -1.117,-0.418 -1.117,-0.418 -1.117,-0.418 -0.899,-1.59 -2.008,-2 -2.008,-2 -1.098,-0.41 -1.098,-0.41 -1.098,-0.41 -0.898,-1.575 -0.898,-1.575 -0.898,-1.575 -1.094,-0.402 -1.094,-0.402 -1.094,-0.402 -0.906,-1.57 -1.984,-1.969 -1.984,-1.969 -1.086,-0.406 -1.086,-0.406 -1.086,-0.406 -0.891,-1.559 -0.891,-1.559 -0.891,-1.559 -1.078,-0.398 -2.144,-0.796 -2.144,-0.796 -0.891,-1.555 -0.891,-1.555 -0.891,-1.555 -1.062,-0.383 -1.062,-0.383 -1.062,-0.383 -0.887,-1.547 -0.887,-1.547 -0.887,-1.547 -1.059,-0.383 -2.121,-0.769 -2.121,-0.769 -0.871,-1.539 -0.871,-1.539 -0.871,-1.539 -1.055,-0.387 -1.055,-0.387 -1.055,-0.387 -0.875,-1.531 -0.875,-1.531 -0.875,-1.531 -1.039,-0.379 -2.082,-0.75 -2.082,-0.75 -0.867,-1.528 -0.867,-1.528 -0.867,-1.528 -1.028,-0.371 -2.071,-0.742 -2.071,-0.742 -0.851,-1.515 -0.851,-1.515 -0.851,-1.515 -1.035,-0.372 -1.035,-0.372 -1.035,-0.372 -0.86,-1.511 -0.86,-1.511 -0.86,-1.511 -1.015,-0.36 -2.039,-0.723 -2.039,-0.723 -0.843,-1.508 -0.843,-1.508 -0.843,-1.508 -1.016,-0.351 -1.016,-0.351 -1.016,-0.351 -0.856,-1.5 -0.856,-1.5 -0.856,-1.5 -0.996,-0.356 -2.007,-0.707 -2.007,-0.707 -0.848,-1.489 -0.848,-1.489 -0.848,-1.489 -0.992,-0.347 -1.984,-0.699 -1.984,-0.699 -0.84,-1.484 -0.84,-1.484 -0.84,-1.484 -0.985,-0.34 -0.985,-0.34 -0.985,-0.34 -0.836,-1.481 -0.836,-1.481 -0.836,-1.481 -0.988,-0.335 -1.968,-0.679 -1.968,-0.679 -0.828,-1.465 -0.828,-1.465 -0.828,-1.465 -1.797,-1.809 -2.774,-2.137 -3.735,-2.469 -0.82,-1.453 -0.82,-1.453 -0.82,-1.453 -0.953,-0.328 -1.918,-0.66 -1.918,-0.66 -0.824,-1.445 -0.824,-1.445 -0.824,-1.445 -0.961,-0.325 -0.961,-0.325 -0.961,-0.325 -0.801,-1.441 -0.801,-1.441 -0.801,-1.441 -0.945,-0.32 -1.891,-0.641 -1.891,-0.641 -0.808,-1.433 -0.808,-1.433 -0.808,-1.433 -0.938,-0.309 -1.879,-0.621 -1.879,-0.621 -0.801,-1.442 -0.801,-1.442 -0.801,-1.442 -0.934,-0.308 -0.934,-0.308 -0.934,-0.308 -0.796,-1.426 -0.796,-1.426 -0.796,-1.426 -0.922,-0.301 -1.852,-0.613 -1.852,-0.613 -0.793,-1.422 -0.793,-1.422 -0.793,-1.422 -0.918,-0.293 -0.918,-0.293 -0.918,-0.293 -0.789,-1.414 -0.789,-1.414 -0.789,-1.414 -0.918,-0.305 -1.824,-0.598 -1.824,-0.598 -0.789,-1.41 -0.789,-1.41 -0.789,-1.41 -0.91,-0.293 -1.817,-0.59 -1.817,-0.59 -0.773,-1.398 -0.773,-1.398 -0.773,-1.398 -1.676,-1.68 -2.578,-1.977 -3.473,-2.258 -0.765,-1.391 -0.765,-1.391 -0.765,-1.391 -0.887,-0.281 -0.887,-0.281 -0.887,-0.281 -0.77,-1.383 -1.652,-1.668 -1.652,-1.668 -0.887,-0.277 -0.887,-0.277 -0.887,-0.277 -0.758,-1.372 -0.758,-1.372 -0.758,-1.372 -0.875,-0.277 -1.754,-0.554 -1.754,-0.554 -0.758,-1.375 -0.758,-1.375 -0.758,-1.375 -0.867,-0.274 -1.73,-0.535 -1.73,-0.535 -0.75,-1.368 -0.75,-1.368 -0.75,-1.368 -0.871,-0.269 -0.871,-0.269 -0.871,-0.269 -0.75,-1.363 -0.75,-1.363 -0.75,-1.363 -0.856,-0.258 -0.856,-0.258 -0.856,-0.258 -0.746,-1.352 -1.601,-1.625 -1.601,-1.625 -0.852,-0.254 -0.852,-0.254 -0.852,-0.254 -0.746,-1.356 -0.746,-1.356 -0.746,-1.356 -0.84,-0.253 -1.684,-0.507 -1.684,-0.507 -0.738,-1.352 -0.738,-1.352 -0.738,-1.352 -0.844,-0.246 -1.68,-0.5 -1.68,-0.5 -0.734,-1.336 -0.734,-1.336 -0.734,-1.336 -0.84,-0.254 -0.84,-0.254 -0.84,-0.254 -0.722,-1.332 -0.722,-1.332 -0.722,-1.332 -0.836,-0.25 -1.664,-0.492 -1.664,-0.492 -0.715,-1.328 -0.715,-1.328 -0.715,-1.328 -0.832,-0.242 -1.653,-0.484 -1.653,-0.484 -0.722,-1.321 -0.722,-1.321 -0.722,-1.321 -0.813,-0.242 -0.813,-0.242 -0.813,-0.242 -0.719,-1.316 -0.719,-1.316 -0.719,-1.316 -0.82,-0.239 -1.625,-0.473 -1.625,-0.473 -0.058,-0.102 -0.078,-0.148 -0.128,-0.238 1.992,-10.223 10.011,-60.145 16.632,-52.629 0.118,0.183 0.258,0.441 0.461,0.793 0,0 0,0 0.762,1.351 0,0 0,0 -0.113,1.164 0,0 0,0 0.89,0.176 0,0 0,0 0.883,0.172 0,0 0,0 -0.109,1.18 0,0 0,0 0.765,1.355 0,0 0,0 0.77,1.344 0,0 0,0 0.898,0.184 0,0 0,0 0.899,0.179 0,0 0,0 0.777,1.367 0,0 0,0 0.785,1.36 0,0 0,0 0.903,0.199 0,0 0,0 -0.121,1.16 0,0 0,0 0.781,1.379 0,0 0,0 0.902,0.184 0,0 0,0 0.91,0.195 0,0 0,0 -0.113,1.18 0,0 0,0 0.91,0.195 0,0 0,0 0.906,0.203 0,0 0,0 -0.125,1.168 0,0 0,0 0.793,1.383 0,0 0,0 0.922,0.199 0,0 0,0 0.918,0.203 0,0 0,0 -0.129,1.18 0,0 0,0 -0.132,1.18 0,0 0,0 0.804,1.378 0,0 0,0 0.926,0.215 0,0 0,0 0.918,0.207 -0.129,1.18 -0.129,1.18 1.734,1.614 0.266,-2.387 0.395,-3.571 0.528,-4.762 0.136,-1.184 0.265,-2.383 0.402,-3.574 0,0 0,0 0.934,0.191 0.269,-2.394 0.535,-4.805 0.668,-6.008 -0.938,-0.191 -0.938,-0.191 -0.938,-0.191 0.125,-1.203 0.125,-1.203 0.125,-1.203 0.141,-1.211 0.141,-1.211 0.141,-1.211 0,0 0,0 0.949,0.187 0.133,-1.215 0.269,-2.429 1.215,-2.242 0.148,-1.211 0.148,-1.211 0.148,-1.211 0.133,-1.226 0.133,-1.226 0.133,-1.226 0.133,-1.211 0.133,-1.211 1.094,-1.036 0.129,-1.234 0.129,-1.234 0.129,-1.234 0.14,-1.226 0.14,-1.226 1.105,-1.047 0.145,-1.226 0.145,-1.226 1.113,-1.051 0.137,-1.234 0.137,-1.234 0.137,-1.234 0.145,-1.238 0.145,-1.238 0.145,-1.238 0,0 0,0 0.976,0.176 0.141,-1.247 0.141,-1.247 0.141,-1.247 0.137,-1.238 0.137,-1.238 0.137,-1.238 0.136,-1.246 0.136,-1.246 1.129,-1.086 0.425,-3.746 0.859,-7.504 2.289,-11.148 0,0 0,0 0.996,0.156 0,0 0,0 0.855,1.422 0,0 0,0 0.844,1.426 0,0 0,0 0.851,1.418 0,0 0,0 1.012,0.156 0,0 0,0 -0.156,1.281 0,0 0,0 1.008,0.16 0,0 0,0 1.008,0.157 0,0 0,0 -0.153,1.265 0,0 0,0 0.867,1.442 0,0 0,0 1.008,0.164 0,0 0,0 1.02,0.172 0,0 0,0 -0.16,1.277 0,0 0,0 0.863,1.434 0,0 0,0 1.031,0.167 0,0 0,0 1.027,0.176 0,0 0,0 0.868,1.449 0,0 0,0 0.871,1.454 0,0 0,0 -0.157,1.269 0,0 0,0 0.868,1.465 0,0 0,0 1.031,0.18 0,0 0,0 1.043,0.195 0,0 0,0 0.887,1.457 0,0 0,0 0.879,1.465 0,0 0,0 1.046,0.183 0,0 0,0 0.883,1.473 0,0 0,0 0.875,1.477 0,0 0,0 -0.152,1.277 0,0 0,0 0.879,1.484 0,0 0,0 0.894,1.465 0,0 0,0 1.059,0.203 0,0 0,0 1.066,0.211 0,0 0,0 0.887,1.485 0,0 0,0 0.902,1.488 0,0 0,0 1.067,0.211 0,0 0,0 0.902,1.492 0,0 0,0 1.082,0.215 0,0 0,0 -0.176,1.289 0,0 0,0 0.907,1.496 0,0 1.074,0.211 1.992,1.719 0,0 0,0 1.094,0.226 0,0 0,0 1.082,0.219 0,0 0,0 0.914,1.516 0,0 0,0 -0.18,1.285 0,0 0,0 0.902,1.516 0,0 0,0 1.11,0.234 0,0 0,0 0.925,1.523 0,0 0,0 0.922,1.516 0,0 0,0 0.914,1.531 0,0 0,0 0.926,1.528 0,0 0,0 1.117,0.246 0,0 0,0 0.93,1.531 0,0 0,0 0.93,1.543 0,0 0,0 -0.192,1.289 0,0 0,0 0.934,1.547 0,0 0,0 1.109,0.246 0,0 0,0 1.141,0.258 0,0 0,0 0.937,1.547 0,0 0,0 -0.195,1.289 0,0 0,0 0.945,1.55 0,0 0,0 0.93,1.551 0,0 0,0 1.145,0.27 0,0 0,0 -0.2,1.289 0,0 0,0 0.942,1.566 0,0 0,0 0.937,1.555 0,0 0,0 0.953,1.57 0,0 -0.203,1.293 0.75,2.852 0,0 0,0 1.153,0.293 0,0 0,0 -0.203,1.285 0,0 0,0 0.957,1.574 0,0 0,0 1.144,0.297 0,0 0,0 1.156,0.281 0,0 0,0 -0.195,1.285 0,0 0,0 1.16,0.297 0,0 0,0 1.172,0.293 0,0 0,0 0.969,1.602 0,0 0,0 0.953,1.578 0,0 0,0 -0.199,1.293 0,0 -0.211,1.293 -0.422,2.578 0,0 0,0 0.961,1.594 0,0 0,0 -0.203,1.281 -1.18,-0.309 -1.18,-0.309 -1.602,2.238 0,0 0,0 1.172,0.325 0,0 0,0 1.184,0.324 0,0 0,0 -0.211,1.269 0,0 0,0 -0.219,1.282 0,0 0,0 -0.207,1.269 0,0 0,0 -0.207,1.274 0,0 0,0 1.176,0.328 0,0 0,0 -0.215,1.269 0,0 0,0 -0.207,1.274 0,0 0,0 1.16,0.328 0.211,-1.274 1.398,-0.938 2.57,-0.61 0.215,-1.277 0.215,-1.277 1.407,-0.941 0.218,-1.285 0.218,-1.285 1.41,-0.957 0.222,-1.281 0.222,-1.281 1.422,-0.953 0,0 0,0 1.207,0.336 0.214,-1.293 0.214,-1.293 0.214,-1.293 0.223,-1.301 0.223,-1.301 0.223,-1.301 0,0 0,0 1.211,0.332 0.211,-1.301 0.211,-1.301 1.434,-0.977 0.226,-1.3 0.226,-1.3 1.437,-0.976 0.231,-1.313 0.231,-1.313 0.231,-1.313 0.226,-1.3 0.226,-1.3 1.472,-0.984 0.223,-1.312 0.223,-1.312 1.45,-0.988 0,0 0,0 1.25,0.328 0.234,-1.317 0.234,-1.317 0.234,-1.317 0.215,-1.328 0.215,-1.328 0.215,-1.328 0.242,-1.328 0.242,-1.328 1.484,-1.007 0.246,-1.336 0.246,-1.336 1.492,-1.02 0.246,-1.324 0.246,-1.324 0.246,-1.324 0,0 0,0 1.258,0.308 0,0 0,0 1.262,0.321 0.242,-1.336 0.242,-1.336 0.242,-1.336 0,0 0,0 1.27,0.312 0.25,-1.344 0.25,-1.344 0.25,-1.344 1.281,0.313 1.281,0.313 1.281,0.313 0,0 0,0 -0.234,1.352 0,0 -0.254,1.339 -0.5,2.679 0,0 0,0 -0.247,1.344 0,0 -0.246,1.34 -0.492,2.68 -0.726,3.984 -1.437,7.965 -2.156,11.918 0,0 0,0 -0.227,1.304 -0.242,1.313 -0.488,2.621 -0.722,3.934 0,0 0,0 -0.227,1.301 1.25,0.355 1.25,0.355 2.258,2.015 0,0 0,0 1.262,0.371 0.25,-1.304 0.25,-1.304 1.515,-0.949 0,0 0,0 1.254,0.371 0.258,-1.312 0.258,-1.312 1.524,-0.949 0,0 0,0 1.285,0.363 0.25,-1.328 0.25,-1.328 1.543,-0.953 0.238,-1.332 0.238,-1.332 0.238,-1.332 1.297,0.363 1.297,0.363 1.039,1.699" /><path
         id="path36"
         style="fill:#4ac7f2;fill-opacity:1;fill-rule:evenodd;stroke:none"
         d="m 201.555,377.492 c 0,0 0,0 0.949,1.203 0,0 0,0 1.086,0.133 0,0 0,0 1.078,0.129 0,0 0,0 0.949,1.211 0,0 0,0 1.074,0.129 0,0 0,0 0.95,1.211 0,0 0,0 1.086,0.129 0,0 0,0 1.078,0.125 0,0 0,0 0.949,1.215 0,0 0,0 1.082,0.132 0,0 0,0 0.941,1.207 0,0 0,0 1.086,0.129 0,0 0,0 1.075,0.125 0,0 0,0 1.085,0.129 0,0 0,0 0.942,1.215 0,0 0,0 1.078,0.125 0,0 0,0 1.086,0.129 0,0 0,0 0.949,1.219 0,0 0,0 1.078,0.121 0,0 0,0 1.074,0.129 0,0 0,0 1.079,0.125 0,0 0,0 0.957,1.211 0,0 0,0 1.078,0.129 0,0 0,0 1.074,0.128 0,0 1.086,0.129 2.152,0.258 0,0 0,0 0.961,1.207 0,0 0,0 1.078,0.129 0,0 0,0 1.075,0.129 0,0 1.074,0.137 2.027,1.348 0,0 0,0 1.078,0.129 0,0 0,0 1.09,0.129 0,0 0,0 0.941,1.207 0,0 0,0 1.086,0.132 0,0 0,0 1.067,0.125 0,0 0,0 0.961,1.211 0,0 0,0 1.074,0.121 0,0 0,0 1.078,0.133 0,0 0,0 0.957,1.215 0,0 0,0 1.074,0.121 0,0 0,0 0.942,1.211 0,0 0,0 1.086,0.129 0,0 0,0 1.082,0.137 0,0 0,0 0.941,1.203 0,0 0,0 1.09,0.129 0,0 0,0 0.941,1.207 0,0 0,0 1.09,0.137 0,0 0,0 0.949,1.214 0,0 0,0 1.067,0.125 0,0 0,0 0.957,1.207 0,0 0,0 0.953,1.211 0,0 0,0 1.074,0.129 0,0 0,0 0.949,1.211 0,0 0,0 1.086,0.129 0,0 0,0 0.953,1.211 0,0 0,0 1.075,0.129 0,0 0,0 0.957,1.211 0,0 0,0 1.066,0.129 0,0 0,0 0.957,1.211 0,0 0,0 1.07,0.129 0,0 0,0 0.957,1.211 0,0 0,0 0.954,1.211 0,0 0,0 1.078,0.128 0,0 0,0 0.945,1.204 0,0 0,0 1.09,0.136 0,0 0,0 0.949,1.211 0,0 0,0 1.074,0.129 0,0 0,0 0.953,1.207 0,0 0,0 1.082,0.129 0,0 0,0 0.946,1.215 0,0 0,0 1.082,0.121 0,0 0,0 0.941,1.211 0,0 0,0 0.953,1.211 0,0 0,0 -0.121,1.086 0,0 0,0 0.949,1.211 0,0 0,0 0.95,1.211 0,0 0,0 -0.129,1.086 0,0 0,0 0.953,1.207 0,0 0,0 0.949,1.211 0,0 0,0 -0.117,1.082 0,0 0,0 0.937,1.207 0,0 0,0 0.957,1.211 0,0 0,0 -0.132,1.082 0,0 0,0 0.964,1.214 0,0 0,0 0.93,1.211 0,0 0,0 0.957,1.219 0,0 0,0 0.957,1.199 0,0 0,0 -0.133,1.082 0,0 0,0 0.953,1.215 0,0 0,0 -0.128,1.082 0,0 0,0 -0.129,1.078 1.09,0.125 1.09,0.125 0.953,1.211 1.078,0.133 1.078,0.133 2.035,1.348 0,0 0,0 0.945,1.211 0,0 0,0 0.961,1.203 0,0 0,0 -0.133,1.082 0,0 0,0 0.954,1.215 0,0 0,0 0.941,1.211 0,0 0,0 -0.117,1.086 0,0 0,0 0.941,1.211 0,0 0,0 0.957,1.207 0,0 0,0 -0.125,1.082 0,0 0,0 -0.137,1.086 -0.128,1.074 -0.253,2.164 -0.378,3.242 0,0 0,0 -0.125,1.086 0,0 0,0 -0.129,1.082 1.07,0.129 1.07,0.129 0.945,1.207 0,0 0,0 -0.121,1.082 1.074,0.129 1.074,0.129 0.941,1.211 1.082,0.129 1.082,0.129 2.039,1.336 0,0 0,0 -0.132,1.09 0,0 0,0 0.957,1.215 0,0 0,0 -0.129,1.074 0,0 0,0 -0.129,1.082 0,0 0,0 0.957,1.211 0,0 0,0 -0.133,1.086 0,0 0,0 -0.129,1.082 0,0 0,0 0.938,1.215 0,0 0,0 -0.118,1.078 -1.086,-0.133 -1.086,-0.133 -1.086,-0.133 -1.074,-0.125 -1.074,-0.125 -1.074,-0.125 -0.945,-1.211 -0.945,-1.211 -0.945,-1.211 -1.082,-0.129 -1.082,-0.129 -2.16,-0.262 0.117,-1.078 0.117,-1.078 -0.946,-1.215 0,0 0,0 -1.074,-0.121 0.121,-1.082 -0.957,-1.211 -0.957,-1.211 -1.082,-0.121 -1.082,-0.121 -1.082,-0.121 -0.953,-1.219 -0.953,-1.219 -0.953,-1.219 -1.074,-0.136 -1.074,-0.136 -1.074,-0.136 -0.949,-1.203 -0.949,-1.203 -0.949,-1.203 -1.086,-0.129 -1.086,-0.129 -1.086,-0.129 -0.942,-1.211 -0.942,-1.211 -2.028,-1.348 0.129,-1.074 0.129,-1.074 -0.941,-1.203 -1.082,-0.125 -1.082,-0.125 -1.082,-0.125 -0.957,-1.207 -0.957,-1.207 -0.957,-1.207 -1.086,-0.137 -1.086,-0.137 -1.086,-0.137 -1.074,-0.125 -1.074,-0.125 -1.074,-0.125 -0.95,-1.207 -2.02,-1.34 -2.02,-1.34 -1.086,-0.125 -1.086,-0.125 -1.086,-0.125 -1.07,-0.132 -1.07,-0.132 -1.07,-0.132 -0.953,-1.211 -0.953,-1.211 -0.953,-1.211 -1.082,-0.125 -1.082,-0.125 -1.082,-0.125 -1.074,-0.133 -1.074,-0.133 -1.074,-0.133 -1.086,-0.133 -1.086,-0.133 -1.086,-0.133 -0.954,-1.203 -0.954,-1.203 -0.954,-1.203 -1.07,-0.129 -1.07,-0.129 -1.07,-0.129 C 268.5,459 268.5,459 268.5,459 c -1.074,-0.137 -1.074,-0.137 -1.074,-0.137 -1.078,-0.125 -1.078,-0.125 -1.078,-0.125 -0.953,-1.207 -0.953,-1.207 -0.953,-1.207 -1.079,-0.129 -1.079,-0.129 -1.079,-0.129 -0.953,-1.211 -0.953,-1.211 -0.953,-1.211 -1.078,-0.128 -1.078,-0.128 -1.203,0.957 -1.082,-0.128 -1.082,-0.128 -1.211,0.95 -1.082,-0.129 -1.082,-0.129 -1.199,0.953 -1.086,-0.125 -1.086,-0.125 -1.211,0.957 -1.078,-0.129 -1.078,-0.129 -1.203,0.957 -1.086,-0.125 -1.086,-0.125 -1.211,0.949 0,0 0,0 -0.125,1.082 -1.082,-0.125 -1.082,-0.125 -1.203,0.957 -1.078,-0.133 -2.16,-0.262 -2.16,-0.262 -0.953,-1.211 -0.953,-1.211 -0.953,-1.211 0.132,-1.078 0.132,-1.078 0.132,-1.078 -0.957,-1.207 -0.957,-1.207 -0.957,-1.207 0.125,-1.082 0.125,-1.082 0.125,-1.082 -0.945,-1.218 -0.945,-1.218 -0.945,-1.218 0.121,-1.079 0.121,-1.079 0.121,-1.079 -0.937,-1.218 -0.937,-1.218 -0.937,-1.218 0.113,-1.075 0.113,-1.075 0.113,-1.075 -0.941,-1.214 -0.941,-1.214 -0.941,-1.214 0.125,-1.082 0.125,-1.082 0.125,-1.082 -0.957,-1.215 -0.957,-1.215 -0.957,-1.215 -0.946,-1.203 -0.946,-1.203 -0.946,-1.203 -0.945,-1.211 -0.945,-1.211 -0.945,-1.211 -0.953,-1.219 -0.953,-1.219 -0.953,-1.219 -0.957,-1.199 -0.957,-1.199 -0.957,-1.199 -0.949,-1.219 -0.949,-1.219 -0.949,-1.219 -0.95,-1.211 -0.95,-1.211 -0.95,-1.211 -0.949,-1.203 -0.949,-1.203 -0.949,-1.203 -0.949,-1.215 -0.949,-1.215 -0.949,-1.215 -0.949,-1.219 -0.949,-1.219 -0.949,-1.219 -0.957,-1.207 -0.957,-1.207 -0.957,-1.207 -0.957,-1.203 -0.957,-1.203 -0.957,-1.203 -0.946,-1.219 -0.946,-1.219 -0.946,-1.219 -0.957,-1.211 -0.957,-1.211 -0.957,-1.211 -0.937,-1.21 -0.937,-1.21 -0.937,-1.21 -0.949,-1.208 -0.949,-1.208 -0.949,-1.208 -0.95,-1.21 -0.95,-1.21 -0.95,-1.21 -0.953,-1.211 -0.953,-1.211 -0.953,-1.211 -0.961,-1.215 -0.961,-1.215 -0.961,-1.215 -0.953,-1.211 -0.953,-1.211 -0.953,-1.211 -0.941,-1.203 -0.941,-1.203 -0.941,-1.203 -0.946,-1.215 -0.946,-1.215 -0.946,-1.215 -0.964,-1.207 -0.964,-1.207 -0.964,-1.207 -0.942,-1.215 -0.942,-1.215 -0.942,-1.215 -0.953,-1.211 -0.953,-1.211 -0.953,-1.211 -0.957,-1.215 -0.957,-1.215 -0.957,-1.215 -0.949,-1.207 -0.949,-1.207 -0.949,-1.207 -0.946,-1.207 -0.946,-1.207 -0.946,-1.207 -0.953,-1.219 -0.953,-1.219 -0.953,-1.219 -0.949,-1.211 -0.949,-1.211 -0.949,-1.211 -0.957,-1.207 -0.957,-1.207 -0.957,-1.207 -0.949,-1.211 -0.949,-1.211 -0.949,-1.211 -0.949,-1.207 -0.949,-1.207 -0.949,-1.207 -0.957,-1.218 -0.957,-1.218 -0.957,-1.218 -0.938,-1.203 -0.938,-1.203 -0.938,-1.203 0.117,-1.082 0.117,-1.082 0.117,-1.082 -0.949,-1.215 -0.949,-1.215 -0.949,-1.215 -0.949,-1.211 -0.949,-1.211 -0.949,-1.211 0.129,-1.078 0.129,-1.078 0.129,-1.078 -0.949,-1.207 -0.949,-1.207 -0.949,-1.207 -0.957,-1.215 -0.957,-1.215 -0.957,-1.215 -0.946,-1.215 -0.946,-1.215 -0.946,-1.215 -0.953,-1.211 -0.953,-1.211 -0.953,-1.211 -0.957,-1.211 -0.957,-1.211 -0.957,-1.211 -0.949,-1.211 -0.949,-1.211 -0.949,-1.211 -0.949,-1.203 -0.949,-1.203 -0.949,-1.203 -0.946,-1.219 -0.946,-1.219 -0.946,-1.219 0.125,-1.078 0.125,-1.078 0.125,-1.078 -0.953,-1.215 -0.953,-1.215 -0.953,-1.215 -0.953,-1.211 -0.953,-1.211 -0.953,-1.211 -0.941,-1.207 -0.941,-1.207 -0.941,-1.207 0.132,-1.082 0.132,-1.082 0.132,-1.082 -0.96,-1.203 -0.96,-1.203 -0.96,-1.203 0.132,-1.09 0.132,-1.09 0.132,-1.09 -0.961,-1.215 -0.961,-1.215 -0.961,-1.215 0.133,-1.082 0.133,-1.082 0.133,-1.082 -0.953,-1.203 -0.953,-1.203 -0.953,-1.203 0.133,-1.086 0.133,-1.086 0.133,-1.086 -0.961,-1.211 -0.961,-1.211 -0.961,-1.211 -0.949,-1.214 -0.949,-1.214 -0.949,-1.214 -0.942,-1.204 -0.942,-1.204 -0.942,-1.204 0.114,-1.089 0.114,-1.089 0.114,-1.089 0.14,-1.079 0.14,-1.079 0.14,-1.079 0,0 0,0 1.078,0.125 0,0 0,0 1.086,0.129 0,0 0,0 1.067,0.133" /><path
         id="path38"
         style="fill:#4ac7f2;fill-opacity:1;fill-rule:evenodd;stroke:none"
         d="m 385.707,425.613 c 0,0 0,0 0.035,1.086 0,0 0,0 -0.875,1.149 0,0 0,0 0.028,1.086 0,0 0,0 -0.879,1.164 0,0 0,0 -0.868,1.164 0,0 0,0 0.02,1.09 0,0 0,0 -0.91,0.074 0,0 0,0 -0.887,1.176 0,0 0,0 0.02,1.097 0,0 0,0 -0.879,1.18 0,0 0,0 -0.899,1.184 0,0 0,0 -0.898,1.199 0,0 0,0 -0.902,1.199 0,0 0,0 0.023,1.105 0,0 0,0 -0.934,0.086 0,0 0,0 -0.91,1.211 0,0 0,0 -0.902,1.211 0,0 0,0 -0.926,1.215 0,0 0,0 -0.918,1.219 0,0 0,0 0.027,1.133 0,0 0,0 -0.925,1.222 0,0 0,0 -0.93,1.239 0,0 0,0 -0.93,1.234 0,0 0,0 -0.925,1.242 0,0 0,0 -0.95,1.246 0,0 0,0 0.02,1.145 0,0 0,0 -0.93,1.258 0,0 0,0 -0.965,1.257 0,0 0,0 -0.953,1.27 0,0 0,0 -0.941,1.273 0,0 0,0 -0.961,1.27 0,0 0,0 0.023,1.168 0,0 0,0 -0.972,1.293 0,0 0,0 -0.965,1.285 0,0 0,0 -0.973,1.285 0,0 0,0 -0.969,1.305 0,0 0,0 -0.98,1.301 0,0 0,0 -0.981,1.316 0,0 0,0 -0.988,1.316 0,0 0,0 -1.004,0.133 0,0 0,0 -0.992,1.321 0,0 0,0 -0.988,1.332 0,0 0,0 -1.004,1.332 0,0 0,0 -1.012,1.339 0,0 0,0 0.008,1.207 0,0 0,0 -1.004,1.348 0,0 0,0 -1.019,1.352 0,0 0,0 -1.02,1.359 0,0 0,0 0,1.215 0,0 0,0 -1.023,1.375 0,0 0,0 -1.028,0.144 0,0 0,0 -1.035,1.379 0,0 0,0 -1.031,1.395 0,0 0,0 -1.039,1.379 0,0 0,0 -1.047,1.394 0,0 0,0 -1.055,1.399 0,0 0,0 -1.058,1.414 0,0 0,0 -1.055,1.406 0,0 0,0 -0.004,1.25 0,0 0,0 -1.051,0.164 0,0 0,0 -0.012,1.254 0,0 0,0 -1.058,1.434 0,0 0,0 -0.008,1.261 0,0 0,0 -1.078,1.434 0,0 0,0 -1.074,1.445 0,0 0,0 -0.012,1.266 0,0 0,0 -0.012,1.273 0,0 0,0 -1.078,1.453 0,0 0,0 -0.008,1.29 0,0 0,0 -1.097,1.457 0,0 0,0 -0.02,1.293 0,0 0,0 -1.09,1.476 0,0 0,0 -1.101,1.492 0,0 0,0 -1.106,1.489 0,0 0,0 -0.023,1.3 0,0 0,0 -1.09,0.196 0.023,-1.305 0.023,-1.305 0.023,-1.305 0.024,-2.594 0.051,-3.891 -1.035,-4.988 0.016,-1.289 0.016,-1.289 0.016,-1.289 0.039,-2.579 0.059,-3.864 0.07,-5.141 0.012,-1.281 0.028,-2.563 -1.062,-2.387 0.023,-1.277 0.023,-1.277 0.023,-1.277 0.016,-1.274 0.016,-1.274 0.016,-1.274 0.015,-1.269 0.015,-1.269 -1.086,-1.105 0.039,-1.27 0.039,-1.27 0.039,-1.27 0.012,-1.273 0.012,-1.273 -1.082,-1.105 0.016,-1.266 0.016,-1.266 -1.074,-1.098 0.015,-1.265 0.015,-1.265 -1.075,-1.093 0.02,-1.274 0.02,-1.274 -1.085,-1.106 0.027,-1.273 0.027,-1.273 0.027,-1.273 0.023,-1.274 0.023,-1.274 0.023,-1.274 0.028,-1.265 0.028,-1.265 -1.074,-1.101 0.024,-1.27 0.024,-1.27 0.024,-1.27 0.031,-1.258 0.031,-1.258 0.031,-1.258 0.019,-1.257 0.019,-1.257 -1.078,-1.101 0.019,-1.27 0.019,-1.27 0.019,-1.27 0.02,-1.25 0.02,-1.25 0.02,-1.25 0.035,-1.261 0.035,-1.261 0.035,-1.261 0.012,-1.25 0.012,-1.25 -1.074,-1.102 0.019,-1.254 0.019,-1.254 0.019,-1.254 0.028,-1.25 0.028,-1.25 0.028,-1.25 0.019,-1.246 0.019,-1.246 -1.075,-1.105 0.012,-1.246 0.012,-1.246 0.012,-1.246 0.027,-1.25 0.066,-2.493 -1.035,-2.356 0.023,-1.246 0.023,-1.246 0.023,-1.246 0.024,-1.246 0.055,-2.477 -1.039,-2.344 0.028,-1.238 0.028,-1.238 0.028,-1.238 0.023,-1.238 0.023,-1.238 -1.079,-1.109 0.028,-1.239 0.028,-1.239 -1.062,-1.118 0.027,-1.234 0.027,-1.234 0.027,-1.234 -1.066,-1.102 -1.066,-1.102 -2.168,-0.973 0.028,-1.23 0.028,-1.23 -1.07,-1.109 0.031,-1.238 0.031,-1.238 0.031,-1.238 0.02,-1.227 0.02,-1.227 -1.093,-1.106 0.042,-1.234 0.042,-1.234 0.042,-1.234 0.032,-1.235 0.032,-1.235 -1.074,-1.117 0.035,-1.235 0.035,-1.235 0.035,-1.235 0.036,-1.222 0.036,-1.222 -1.066,-1.101 0.023,-1.239 0.023,-1.239 0.023,-1.239 0.036,-1.222 0.036,-1.222 -1.062,-1.105 0.027,-1.227 0.027,-1.227 0.027,-1.227 0.035,-1.222 0.035,-1.222 -1.074,-1.113 0.047,-1.219 0.047,-1.219 0.047,-1.219 0.023,-1.226 0.023,-1.226 -1.086,-1.121 0.035,-1.218 0.035,-1.218 0.035,-1.218 1.11,-0.11 1.11,-0.11 1.11,-0.11 1.105,-0.105 1.105,-0.105 1.105,-0.105 1.102,-0.102 1.102,-0.102 1.07,1.117 1.098,-0.113 1.098,-0.113 1.098,-0.113 1.09,-0.102 1.09,-0.102 1.062,1.109 1.102,-0.106 1.102,-0.106 1.067,1.105 0,0 0,0 -0.024,1.219 1.086,-0.105 1.086,-0.105 1.059,1.098 1.098,-0.106 1.098,-0.106 2.164,1.004 0,0 0,0 -0.035,1.215 1.09,-0.114 1.09,-0.114 1.09,-0.114 1.09,-0.117 1.09,-0.117 1.066,1.098 1.078,-0.106 1.078,-0.106 1.051,1.098 1.086,-0.106 1.086,-0.106 1.066,1.105 1.079,-0.113 1.079,-0.113 1.047,1.102 1.086,-0.118 1.086,-0.118 1.067,1.101 1.074,-0.133 1.074,-0.133 1.054,1.09 1.075,-0.121 1.075,-0.121 1.055,1.094 1.063,-0.113 1.063,-0.113 1.043,1.105 1.078,-0.133 1.078,-0.133 1.055,1.094 1.082,-0.137 1.082,-0.137 1.062,1.094 1.063,-0.133 1.063,-0.133 1.047,1.094 1.074,-0.137 1.074,-0.137 1.063,1.082 1.046,-0.133 1.046,-0.133 1.035,1.101 -0.012,1.215 -0.012,1.215 2.121,0.945 -0.004,-1.214 -0.004,-1.214 -0.004,-1.214 1.078,-1.352 1.078,-1.352 1.078,-1.352 1.063,-1.332 1.063,-1.332 1.063,-1.332 1.07,-1.348 1.07,-1.348 1.07,-1.348 1.055,-1.336 1.055,-1.336 1.055,-1.336 1.043,-0.121 1.043,-0.121 1.043,-0.121 1.039,-1.32 1.039,-1.32 1.039,-1.32 1.058,-1.324 1.058,-1.324 1.058,-1.324 1.031,-1.309 1.031,-1.309 1.031,-1.309 0.008,-1.203 0.008,-1.203 0.008,-1.203 1.035,-1.297 1.035,-1.297 1.035,-1.297 1.036,-1.297 1.036,-1.297 1.036,-1.297 1.031,-1.3 1.031,-1.3 1.031,-1.3 1.015,-1.282 1.015,-1.282 1.015,-1.282 1.024,-0.113 1.024,-0.113 1.024,-0.113 1.008,-1.285 1.008,-1.285 1.008,-1.285 1.007,-1.27 1.007,-1.27 1.007,-1.27 1.016,-0.101 1.016,-0.101 1.016,-0.101 1.004,-1.282 1.004,-1.282 1.004,-1.282 0.988,-1.261 0.988,-1.261 0.988,-1.261 1.004,-0.098 1.004,-0.098 1.004,-0.098 0.996,-1.254 0.996,-1.254 0.996,-1.254 0.989,-0.101 0.989,-0.101 0.989,-0.101 0.992,-1.25 0.992,-1.25 0.992,-1.25 0.976,-0.102 0.976,-0.102 0.976,-0.102 0.977,-1.238 0.977,-1.238 0.977,-1.238 0.988,-0.098 0.988,-0.098 0.988,-0.098 0.973,-1.242 0.973,-1.242 0.973,-1.242 0.969,-0.082 0.969,-0.082 0.969,-0.082 0.968,-1.231 0.968,-1.231 0.968,-1.231 0.973,-0.093 0.973,-0.093 0.973,-0.093 0.957,-1.227 0.957,-1.227 0.957,-1.227 0.961,-0.086 0.961,-0.086 0.961,-0.086 0.957,-1.226 0.957,-1.226 0.957,-1.226 0.949,-0.082 0.949,-0.082 0.949,-0.082 0.965,-0.094 0.965,-0.094 0.965,-0.094 -0.016,-1.125 -0.016,-1.125 -0.016,-1.125 0.961,-0.082 0.961,-0.082 0.961,-0.082 0.926,-1.203 0.926,-1.203 0.926,-1.203 0.949,-0.09 0.949,-0.09 0.949,-0.09 -0.015,-1.11 -0.015,-1.11 -0.015,-1.11 0.945,-0.078 0.945,-0.078 0.945,-0.078 0.949,-0.089 0.949,-0.089 0.949,-0.089 0.926,-1.192 0.926,-1.192 0.926,-1.192 0.93,-0.082 0.93,-0.082 0.93,-0.082 0.937,-0.078 0.937,-0.078 0.937,-0.078 0.918,-1.184 0.918,-1.184 0.918,-1.184 0.918,-0.086 0.918,-0.086 0.918,-0.086 0.938,-0.07 0.938,-0.07 0.938,-0.07 0.906,-1.18 0.906,-1.18 0.906,-1.18 0.922,-0.074 0.922,-0.074 0.922,-0.074 0.902,-1.179 0.902,-1.179 0.902,-1.179 0.922,-0.071 0.922,-0.071 0.922,-0.071 0.895,-1.164 0.895,-1.164 0.895,-1.164 0.914,-0.07 0.914,-0.07 0.914,-0.07 0.906,-0.082 0.906,-0.082 0.906,-0.082 0.887,-1.153 0.887,-1.153 0.887,-1.153 0.914,-0.07 0.914,-0.07 0.914,-0.07 0.898,-0.074 0.898,-0.074 0.898,-0.074 0.906,-0.07 0.906,-0.07 0.906,-0.07 0.887,-0.071 0.887,-0.071 0.887,-0.071" /><path
         id="path40"
         style="fill:#4ac7f2;fill-opacity:1;fill-rule:evenodd;stroke:none"
         d="m 585.449,443.414 c 0.285,2.367 0.571,4.731 0.985,8.285 0.285,2.367 0.562,4.742 0.976,8.289 0,0 0,0 1.324,1.043 0,0 0,0 0.133,1.192 0,0 0,0 0.137,1.187 0,0 0.141,1.184 0.277,2.36 0,0 0,0 0.149,1.183 0,0 0,0 0.144,1.192 0,0 0,0 0.125,1.179 0,0 0,0 0.145,1.184 1.187,-0.145 1.187,-0.145 1.328,1.039 0,0 0,0 0.137,1.191 1.179,-0.14 1.179,-0.14 1.32,1.047 1.18,-0.144 1.18,-0.144 1.449,2.227 0,0 0,0 -1.168,0.133 0,0 0,0 0.141,1.187 1.168,-0.141 1.168,-0.141 1.316,1.043 0,0 0,0 0.133,1.184 1.188,-0.141 1.188,-0.141 1.32,1.046 1.184,-0.144 1.184,-0.144 1.184,-0.144 0.137,1.184 0.281,2.371 0.43,3.555 0,0 0,0 -1.196,0.144 0,0 0,0 0.141,1.184 0,0 0,0 0.144,1.183 0,0 0,0 0.141,1.176 0,0 0,0 -1.184,0.152 0,0 0,0 0.141,1.176 0,0 0,0 0.145,1.184 0,0 0,0 -1.184,0.137 0,0 0,0 0.148,1.199 0,0 0,0 0.137,1.176 0,0 0,0 -1.183,0.144 0,0 0,0 0.136,1.184 0,0 0,0 0.145,1.179 0,0 0,0 -1.051,1.332 0,0 0,0 0.141,1.184 0,0 0,0 0.152,1.18 0,0 0.133,1.183 0.273,2.371 -1.042,1.32 -0.902,2.508 -0.757,3.695 0,0 0,0 0.129,1.18 0,0 0.144,1.179 0.285,2.367 0.14,1.184 1.449,2.227 1.593,3.422 1.18,-0.152 1.18,-0.152 1.329,1.035 1.043,-1.32 1.043,-1.32 1.043,-1.32 1.164,-0.141 1.164,-0.141 1.164,-0.141 1.054,-1.328 2.222,-1.469 3.41,-1.609 1.043,-1.328 1.043,-1.328 2.222,-1.469 1.043,-1.324 2.215,-1.461 3.399,-1.602 1.047,-1.324 2.215,-1.468 2.215,-1.468 1.035,-1.321 1.035,-1.321 1.035,-1.321 1.191,-0.14 1.191,-0.14 1.191,-0.14 1.039,-1.332 2.227,-1.465 2.227,-1.465 2.215,-1.465 3.39,-1.61 4.574,-1.754 1.035,-1.316 1.035,-1.316 1.035,-1.316 2.235,-1.469 3.403,-1.61 4.574,-1.754 1.047,-1.321 1.047,-1.321 1.047,-1.321 1.184,-0.14 1.184,-0.14 1.184,-0.14 1.035,-1.332 2.219,-1.473 2.219,-1.473 1.187,-0.137 1.187,-0.137 1.187,-0.137 1.035,-1.324 1.035,-1.324 1.035,-1.324 1.184,-0.141 1.184,-0.141 1.184,-0.141 1.047,-1.32 2.219,-1.46 2.219,-1.46 1.187,-0.141 1.187,-0.141 1.187,-0.141 1.039,-1.328 1.039,-1.328 1.039,-1.328 1.176,-0.141 2.356,-0.281 2.356,-0.281 1.043,-1.329 1.043,-1.329 1.043,-1.329 1.172,-0.132 1.172,-0.132 1.172,-0.132 1.05,-1.329 1.05,-1.329 1.05,-1.329 1.176,-0.14 2.36,-0.281 2.36,-0.281 1.039,-1.328 1.039,-1.328 1.039,-1.328 1.179,-0.141 1.179,-0.141 1.179,-0.141 1.04,-1.324 1.04,-1.324 1.04,-1.324 1.183,-0.144 2.355,-0.285 2.355,-0.285 1.047,-1.32 1.047,-1.32 1.047,-1.32 1.168,-0.149 2.359,-0.281 2.359,-0.281 1.035,-1.325 1.035,-1.325 1.035,-1.325 1.18,-0.144 1.18,-0.144 1.18,-0.144 1.047,-1.324 1.047,-1.324 1.047,-1.324 1.172,-0.145 2.359,-0.278 2.359,-0.278 1.035,-1.324 1.035,-1.324 1.035,-1.324 1.184,-0.145 1.184,-0.145 1.184,-0.145 1.043,-1.324 1.043,-1.324 1.043,-1.324 1.184,-0.144 2.359,-0.277 2.359,-0.277 1.043,-1.324 1.043,-1.324 1.043,-1.324 1.18,-0.145 2.352,-0.285 2.352,-0.285 1.047,-1.325 1.047,-1.325 1.047,-1.325 1.172,-0.144 1.172,-0.144 1.172,-0.144 1.047,-1.324 1.047,-1.324 1.047,-1.324 1.183,-0.133 2.359,-0.278 2.359,-0.278 1.043,-1.324 1.043,-1.324 1.043,-1.324 2.215,-1.469 3.406,-1.609 4.574,-1.742 1.043,-1.328 1.043,-1.328 1.043,-1.328 1.184,-0.149 2.363,-0.289 2.363,-0.289 1.043,-1.321 1.043,-1.321 1.043,-1.321 1.188,-0.14 1.188,-0.14 1.188,-0.14 1.027,-1.321 1.027,-1.321 1.027,-1.321 1.18,-0.148 2.36,-0.289 2.36,-0.289 1.046,-1.312 1.046,-1.312 1.046,-1.312 1.18,-0.141 2.36,-0.293 2.36,-0.293 1.035,-1.324 1.035,-1.324 1.035,-1.324 1.191,-0.141 1.191,-0.141 1.191,-0.141 1.036,-1.328 1.036,-1.328 1.036,-1.328 1.171,-0.133 2.367,-0.274 2.367,-0.274 1.035,-1.328 1.035,-1.328 1.035,-1.328 1.176,-0.132 1.176,-0.132 1.176,-0.132 1.043,-1.329 1.043,-1.329 1.043,-1.329 1.183,-0.148 2.355,-0.285 2.355,-0.285 1.039,-1.324 1.039,-1.324 1.039,-1.324 1.184,-0.141 2.367,-0.285 2.367,-0.285 1.039,-1.324 1.039,-1.324 1.039,-1.324 2.223,-1.457 3.403,-1.61 4.586,-1.743 1.036,-1.324 1.036,-1.324 1.036,-1.324 1.187,-0.144 1.187,-0.144 1.187,-0.144 1.035,-1.325 2.215,-1.473 2.215,-1.473 1.183,-0.133 1.183,-0.133 1.183,-0.133 1.043,-1.32 1.043,-1.32 1.043,-1.32 1.172,-0.133 2.356,-0.285 2.356,-0.285 1.039,-1.324 1.039,-1.324 1.039,-1.324 1.18,-0.145 2.348,-0.282 2.348,-0.282 1.046,-1.328 1.046,-1.328 1.046,-1.328 1.184,-0.14 1.184,-0.14 1.184,-0.14 1.039,-1.325 1.039,-1.325 1.039,-1.325 1.18,-0.132 1.18,-0.132 1.18,-0.132 1.039,-1.325 2.215,-1.473 2.215,-1.473 1.187,-0.137 1.187,-0.137 1.187,-0.137 1.047,-1.332 1.047,-1.332 1.047,-1.332 1.172,-0.137 2.348,-0.277 2.348,-0.277 1.05,-1.328 1.05,-1.328 1.05,-1.328 l 1.825,-0.215 c -4.864,-11.848 -10.813,-23.953 -17.926,-36.278 l -6.867,-11.894 -0.606,0.766 c 0,0 0,0 -1.172,0.132 0,0 0,0 -1.183,0.149 0,0 0,0 0.137,1.179 0,0 0,0 0.148,1.184 0,0 0,0 -1.055,1.32 0,0 0,0 -1.176,0.149 0,0 0,0 -1.171,0.14 0.136,1.188 0.136,1.188 -2.223,1.465 -0.281,-2.375 -0.426,-3.558 -0.555,-4.742 -0.148,-1.18 -0.285,-2.367 -0.429,-3.551 0,0 0,0 -1.176,0.145 -0.281,-2.371 -0.555,-4.742 -0.696,-5.926 1.176,-0.144 1.176,-0.144 1.176,-0.144 -0.136,-1.184 -0.136,-1.184 -0.136,-1.184 -0.141,-1.176 -0.141,-1.176 -0.141,-1.176 0,0 0,0 -1.176,0.141 -0.144,-1.188 -0.285,-2.375 -1.461,-2.227 -0.144,-1.183 -0.144,-1.183 -0.144,-1.183 -0.133,-1.188 -0.133,-1.188 -0.133,-1.188 -0.141,-1.176 -0.141,-1.176 -1.32,-1.043 -0.137,-1.187 -0.137,-1.187 -0.137,-1.187 -0.145,-1.188 -0.145,-1.188 -1.328,-1.047 -0.145,-1.18 -0.145,-1.18 -1.321,-1.039 -0.136,-1.184 -0.136,-1.184 -0.136,-1.184 -0.145,-1.183 -0.145,-1.183 -0.145,-1.183 0,0 0,0 -1.183,0.144 -0.129,-1.191 -0.129,-1.191 -0.129,-1.191 -0.145,-1.184 -0.145,-1.184 -0.145,-1.184 -0.137,-1.184 -0.137,-1.184 -1.328,-1.043 -0.41,-3.558 -0.828,-7.101 -2.43,-10.516 0,0 0,0 -1.175,0.133 0,0 0,0 -1.047,1.336 0,0 0,0 -1.039,1.324 0,0 0,0 -1.032,1.321 0,0 0,0 -1.195,0.14 0,0 0,0 0.148,1.192 0,0 0,0 -1.187,0.137 0,0 0,0 -1.168,0.132 0,0 0,0 0.129,1.184 0,0 0,0 -1.035,1.328 0,0 0,0 -1.18,0.145 0,0 0,0 -1.176,0.136 0,0 0,0 0.141,1.192 0,0 0,0 -1.043,1.32 0,0 0,0 -1.188,0.133 0,0 0,0 -1.171,0.148 0,0 0,0 -1.043,1.321 0,0 0,0 -1.043,1.328 0,0 0,0 0.136,1.183 0,0 0,0 -1.039,1.328 0,0 0,0 -1.172,0.137 0,0 0,0 -1.187,0.152 0,0 0,0 -1.043,1.321 0,0 0,0 -1.035,1.316 0,0 0,0 -1.184,0.137 0,0 0,0 -1.039,1.332 0,0 0,0 -1.031,1.32 0,0 0,0 0.121,1.192 0,0 0,0 -1.027,1.328 0,0 0,0 -1.047,1.316 0,0 0,0 -1.176,0.137 0,0 0,0 -1.18,0.148 0,0 0,0 -1.039,1.325 0,0 0,0 -1.035,1.32 0,0 0,0 -1.191,0.141 0,0 0,0 -1.036,1.328 0,0 0,0 -1.179,0.14 0,0 0,0 0.129,1.184 0,0 0,0 -1.035,1.328 0,0 -1.184,0.141 -2.227,1.465 0,0 0,0 -1.176,0.144 0,0 0,0 -1.183,0.133 0,0 0,0 -1.032,1.328 0,0 0,0 0.137,1.184 0,0 0,0 -1.031,1.328 0,0 0,0 -1.188,0.137 0,0 0,0 -1.047,1.32 0,0 0,0 -1.043,1.328 0,0 0,0 -1.035,1.328 0,0 0,0 -1.039,1.325 0,0 0,0 -1.176,0.136 0,0 0,0 -1.046,1.332 0,0 0,0 -1.039,1.321 0,0 0,0 0.14,1.183 0,0 0,0 -1.051,1.332 0,0 0,0 -1.16,0.145 0,0 0,0 -1.195,0.133 0,0 0,0 -1.027,1.328 0,0 0,0 0.128,1.175 0,0 0,0 -1.035,1.329 0,0 0,0 -1.043,1.324 0,0 0,0 -1.183,0.14 0,0 0,0 0.14,1.18 0,0 0,0 -1.031,1.336 0,0 0,0 -1.043,1.316 0,0 0,0 -1.043,1.329 0,0 0.137,1.183 -0.898,2.503 0,0 0,0 -1.176,0.149 0,0 0,0 0.137,1.184 0,0 0,0 -1.047,1.328 0,0 0,0 -1.18,0.136 0,0 0,0 -1.168,0.145 0,0 0,0 0.141,1.176 0,0 0,0 -1.188,0.144 0,0 0,0 -1.183,0.133 0,0 0,0 -1.047,1.332 0,0 0,0 -1.035,1.32 0,0 0,0 0.14,1.192 0,0 0.141,1.179 0.27,2.367 0,0 0,0 -1.028,1.324 0,0 0,0 0.145,1.184 1.176,-0.137 1.176,-0.137 1.457,2.222 0,0 0,0 -1.176,0.149 0,0 0,0 -1.191,0.14 0,0 0,0 0.133,1.18 0,0 0,0 0.152,1.192 0,0 0,0 0.133,1.179 0,0 0,0 0.137,1.18 0,0 0,0 -1.172,0.144 0,0 0,0 0.132,1.176 0,0 0,0 0.141,1.192 0,0 0,0 -1.172,0.144 -0.144,-1.195 -1.324,-1.043 -2.5,-0.906 -0.14,-1.184 -0.14,-1.184 -1.324,-1.039 -0.137,-1.188 -0.137,-1.188 -1.32,-1.051 -0.141,-1.18 -0.141,-1.18 -1.328,-1.035 0,0 0,0 -1.18,0.141 -0.137,-1.188 -0.137,-1.188 -0.137,-1.188 -0.14,-1.184 -0.14,-1.184 -0.14,-1.184 0,0 0,0 -1.172,0.133 -0.137,-1.179 -0.137,-1.179 -1.325,-1.035 -0.14,-1.187 -0.14,-1.187 -1.312,-1.047 -0.141,-1.187 -0.141,-1.187 -0.141,-1.187 -0.14,-1.18 -0.14,-1.18 -1.332,-1.043 -0.129,-1.18 -0.129,-1.18 -1.312,-1.039 0,0 0,0 -1.184,0.14 -0.137,-1.183 -0.137,-1.183 -0.137,-1.183 -0.132,-1.184 -0.132,-1.184 -0.132,-1.184 -0.145,-1.187 -0.145,-1.187 -1.325,-1.043 -0.148,-1.187 -0.148,-1.187 -1.32,-1.054 -0.144,-1.176 -0.144,-1.176 -0.144,-1.176 0,0 0,0 -1.176,0.14 0,0 0,0 -1.184,0.141 -0.136,-1.184 -0.136,-1.184 -0.136,-1.184 0,0 0,0 -1.176,0.141 -0.149,-1.184 -0.149,-1.184 -0.149,-1.184 -1.179,0.133 -1.179,0.133 -1.179,0.133 0,0 0,0 0.136,1.192 0,0 0.149,1.179 0.293,2.367 0,0 0,0 0.133,1.183 0,0 0.137,1.184 0.281,2.368 0.418,3.554 0.836,7.109 1.254,10.664 0,0 0,0 0.141,1.179 0.133,1.188 0.277,2.371 0.418,3.555 0,0 0,0 0.133,1.184 -1.18,0.14 -1.18,0.14 -2.207,1.461 0,0 0,0 -1.192,0.144 -0.144,-1.18 -0.144,-1.18 -1.316,-1.043 0,0 0,0 -1.18,0.137 -0.14,-1.184 -0.14,-1.184 -1.312,-1.039 0,0 0,0 -1.192,0.14 -0.136,-1.187 -0.136,-1.187 -1.316,-1.046 -0.141,-1.184 -0.141,-1.184 -0.141,-1.184 -1.179,0.133 -1.179,0.133 -1.043,1.328" /><path
         id="path42"
         style="fill:#4ac7f2;fill-opacity:1;fill-rule:evenodd;stroke:none"
         d="m 533.379,260.219 c 0,0 0,0 1.035,1.324 0,0 0,0 1.184,0.145 0,0 0,0 1.179,0.136 0,0 0,0 1.039,1.328 0,0 0,0 1.18,0.141 0,0 0,0 1.043,1.328 0,0 0,0 1.184,0.141 0,0 0,0 1.179,0.14 0,0 0,0 1.039,1.321 0,0 0,0 1.18,0.144 0,0 0,0 1.035,1.324 0,0 0,0 1.188,0.145 0,0 0,0 1.172,0.137 0,0 0,0 1.195,0.144 0,0 0,0 1.023,1.317 0,0 0,0 1.184,0.14 0,0 0,0 1.187,0.145 0,0 0,0 1.028,1.336 0,0 0,0 1.191,0.133 0,0 0,0 1.172,0.14 0,0 0,0 1.184,0.141 0,0 0,0 1.047,1.328 0,0 0,0 1.171,0.137 0,0 0,0 1.184,0.136 0,0 1.188,0.141 2.356,0.285 0,0 0,0 1.046,1.321 0,0 0,0 1.192,0.137 0,0 0,0 1.168,0.14 0,0 1.176,0.149 2.215,1.477 0,0 0,0 1.179,0.14 0,0 0,0 1.196,0.133 0,0 0,0 1.031,1.328 0,0 0,0 1.187,0.141 0,0 0,0 1.168,0.144 0,0 0,0 1.043,1.325 0,0 0,0 1.176,0.132 0,0 0,0 1.188,0.145 0,0 0,0 1.043,1.324 0,0 0,0 1.171,0.145 0,0 0,0 1.039,1.32 0,0 0,0 1.188,0.141 0,0 0,0 1.176,0.144 0,0 0,0 1.043,1.321 0,0 0,0 1.183,0.14 0,0 0,0 1.035,1.324 0,0 0,0 1.188,0.145 0,0 0,0 1.039,1.328 0,0 0,0 1.176,0.141 0,0 0,0 1.047,1.32 0,0 0,0 1.035,1.324 0,0 0,0 1.176,0.141 0,0 0,0 1.043,1.328 0,0 0,0 1.179,0.133 0,0 0,0 1.047,1.328 0,0 0,0 1.176,0.144 0,0 0,0 1.043,1.325 0,0 0,0 1.176,0.14 0,0 0,0 1.043,1.324 0,0 0,0 1.172,0.141 0,0 0,0 1.046,1.32 0,0 0,0 1.047,1.332 0,0 0,0 1.172,0.145 0,0 0,0 1.039,1.32 0,0 0,0 1.192,0.137 0,0 0,0 1.031,1.328 0,0 0,0 1.187,0.141 0,0 0,0 1.039,1.324 0,0 0,0 1.176,0.141 0,0 0,0 1.043,1.332 0,0 0,0 1.18,0.132 0,0 0,0 1.039,1.321 0,0 0,0 1.043,1.328 0,0 0,0 -0.137,1.191 0,0 0,0 1.035,1.321 0,0 0,0 1.047,1.332 0,0 0,0 -0.148,1.179 0,0 0,0 1.043,1.325 0,0 0,0 1.043,1.328 0,0 0,0 -0.141,1.175 0,0 0,0 1.039,1.317 0,0 0,0 1.043,1.328 0,0 0,0 -0.144,1.187 0,0 0,0 1.05,1.332 0,0 0,0 1.028,1.329 0,0 0,0 1.051,1.324 0,0 0,0 1.042,1.312 0,0 0,0 -0.148,1.192 0,0 0,0 1.047,1.32 0,0 0,0 -0.145,1.184 0,0 0,0 -0.144,1.183 1.195,0.141 1.195,0.141 1.043,1.328 1.183,0.141 1.183,0.141 2.23,1.469 0,0 0,0 1.035,1.324 0,0 0,0 1.043,1.321 0,0 0,0 -0.136,1.179 0,0 0,0 1.031,1.332 0,0 0,0 1.039,1.325 0,0 0,0 -0.137,1.187 0,0 0,0 1.035,1.332 0,0 0,0 1.055,1.313 0,0 0,0 -0.14,1.187 0,0 0,0 -0.149,1.188 -0.141,1.179 -0.281,2.371 -0.418,3.546 0,0 0,0 -0.137,1.196 0,0 0,0 -0.136,1.176 1.172,0.14 1.172,0.14 1.035,1.32 0,0 0,0 -0.145,1.183 1.184,0.145 1.184,0.145 1.039,1.329 1.188,0.148 1.188,0.148 2.235,1.468 0,0 0,0 -0.157,1.184 0,0 0,0 1.047,1.328 0,0 0,0 -0.14,1.176 0,0 0,0 -0.129,1.187 0,0 0,0 1.035,1.328 0,0 0,0 -0.152,1.18 0,0 0,0 -0.129,1.188 0,0 0,0 1.027,1.324 0,0 0,0 -0.133,1.187 -1.179,-0.144 -1.179,-0.144 -1.179,-0.144 -1.184,-0.141 -1.184,-0.141 -1.184,-0.141 -1.027,-1.32 -1.027,-1.32 -1.027,-1.32 -1.184,-0.149 -1.184,-0.149 -2.375,-0.285 0.144,-1.18 0.144,-1.18 -1.028,-1.328 0,0 0,0 -1.179,-0.137 0.136,-1.184 -1.047,-1.324 -1.047,-1.324 -1.18,-0.137 -1.18,-0.137 -1.18,-0.137 -1.039,-1.332 -1.039,-1.332 -1.039,-1.332 -1.176,-0.141 -1.176,-0.141 -1.176,-0.141 -1.039,-1.32 -1.039,-1.32 -1.039,-1.32 -1.187,-0.141 -1.187,-0.141 -1.187,-0.141 -1.032,-1.328 -1.032,-1.328 -2.215,-1.476 0.137,-1.176 0.137,-1.176 -1.039,-1.317 -1.18,-0.14 -1.18,-0.14 -1.18,-0.14 -1.047,-1.324 -1.047,-1.324 -1.047,-1.324 -1.187,-0.141 -1.187,-0.141 -1.187,-0.141 -1.176,-0.137 -1.176,-0.137 -1.176,-0.137 -1.039,-1.324 -2.211,-1.469 -2.211,-1.469 -1.188,-0.144 -1.188,-0.144 -1.188,-0.144 -1.175,-0.133 -1.175,-0.133 -1.175,-0.133 -1.043,-1.336 -1.043,-1.336 -1.043,-1.336 -1.18,-0.133 -1.18,-0.133 -1.18,-0.133 -1.176,-0.14 -1.176,-0.14 -1.176,-0.14 -1.191,-0.149 -1.191,-0.149 -1.191,-0.149 -1.043,-1.32 -1.043,-1.32 -1.043,-1.32 -1.164,-0.141 -1.164,-0.141 -1.164,-0.141 -1.043,-1.32 -1.043,-1.32 -1.043,-1.32 -1.188,-0.148 -1.188,-0.148 -1.188,-0.148 -1.168,-0.141 -1.168,-0.141 -1.168,-0.141 -1.05,-1.32 -1.05,-1.32 -1.05,-1.32 -1.184,-0.141 -1.184,-0.141 -1.184,-0.141 -1.031,-1.328 -1.031,-1.328 -1.031,-1.328 -1.188,-0.133 -1.188,-0.133 -1.324,1.047 -1.18,-0.145 -1.18,-0.145 -1.321,1.039 -1.187,-0.137 -1.187,-0.137 -1.312,1.047 -1.184,-0.141 -1.184,-0.141 -1.328,1.043 -1.184,-0.141 -1.184,-0.141 -1.313,1.051 -1.187,-0.141 -1.187,-0.141 -1.328,1.035 0,0 0,0 -0.141,1.191 -1.175,-0.148 -1.175,-0.148 -1.312,1.043 -1.184,-0.144 -2.363,-0.285 -2.363,-0.285 -1.043,-1.328 -1.043,-1.328 -1.043,-1.328 0.144,-1.18 0.144,-1.18 0.144,-1.18 -1.047,-1.32 -1.047,-1.32 -1.047,-1.32 0.141,-1.184 0.141,-1.184 0.141,-1.184 -1.039,-1.332 -1.039,-1.332 -1.039,-1.332 0.14,-1.176 0.14,-1.176 0.14,-1.176 -1.035,-1.336 -1.035,-1.336 -1.035,-1.336 0.133,-1.175 0.133,-1.175 0.133,-1.175 -1.035,-1.328 -1.035,-1.328 -1.035,-1.328 0.133,-1.184 0.133,-1.184 0.133,-1.184 -1.039,-1.328 -1.039,-1.328 -1.039,-1.328 -1.035,-1.321 -1.035,-1.321 -1.035,-1.321 -1.043,-1.328 -1.043,-1.328 -1.043,-1.328 -1.04,-1.328 -1.04,-1.328 -1.04,-1.328 -1.042,-1.316 -1.042,-1.316 -1.042,-1.316 -1.043,-1.332 -1.043,-1.332 -1.043,-1.332 -1.047,-1.324 -1.047,-1.324 -1.047,-1.324 -1.032,-1.321 -1.032,-1.321 -1.032,-1.321 -1.039,-1.328 -1.039,-1.328 -1.039,-1.328 -1.043,-1.332 -1.043,-1.332 -1.043,-1.332 -1.046,-1.312 -1.046,-1.312 -1.046,-1.312 -1.043,-1.329 -1.043,-1.329 -1.043,-1.329 -1.036,-1.324 -1.036,-1.324 -1.036,-1.324 -1.043,-1.332 -1.043,-1.332 -1.043,-1.332 -1.023,-1.32 -1.023,-1.32 -1.023,-1.32 -1.039,-1.328 -1.039,-1.328 -1.039,-1.328 -1.051,-1.317 -1.051,-1.317 -1.051,-1.317 -1.039,-1.328 -1.039,-1.328 -1.039,-1.328 -1.043,-1.332 -1.043,-1.332 -1.043,-1.332 -1.047,-1.32 -1.047,-1.32 -1.047,-1.32 -1.039,-1.324 -1.039,-1.324 -1.039,-1.324 -1.019,-1.325 -1.019,-1.325 -1.019,-1.325 -1.059,-1.324 -1.059,-1.324 -1.059,-1.324 -1.035,-1.328 -1.035,-1.328 -1.035,-1.328 -1.047,-1.324 -1.047,-1.324 -1.047,-1.324 -1.035,-1.324 -1.035,-1.324 -1.035,-1.324 -1.043,-1.328 -1.043,-1.328 -1.043,-1.328 -1.035,-1.317 -1.035,-1.317 -1.035,-1.317 -1.043,-1.328 -1.043,-1.328 -1.043,-1.328 -1.039,-1.332 -1.039,-1.332 -1.039,-1.332 -1.047,-1.32 -1.047,-1.32 -1.047,-1.32 -1.043,-1.328 -1.043,-1.328 -1.043,-1.328 -1.035,-1.321 -1.035,-1.321 -1.035,-1.321 -1.043,-1.328 -1.043,-1.328 -1.043,-1.328 -1.039,-1.324 -1.039,-1.324 -1.039,-1.324 0.14,-1.184 0.14,-1.184 0.14,-1.184 -1.047,-1.32 -1.047,-1.32 -1.047,-1.32 -1.031,-1.328 -1.031,-1.328 -1.031,-1.328 0.141,-1.184 0.141,-1.184 0.141,-1.184 -1.039,-1.316 -1.039,-1.316 -1.039,-1.316 -1.047,-1.336 -1.047,-1.336 -1.047,-1.336 -1.035,-1.324 -1.035,-1.324 -1.035,-1.324 -1.043,-1.321 -1.043,-1.321 -1.043,-1.321 -1.043,-1.332 -1.043,-1.332 -1.043,-1.332 -1.039,-1.32 -1.039,-1.32 -1.039,-1.32 -1.047,-1.328 -1.047,-1.328 -1.047,-1.328 -1.031,-1.324 -1.031,-1.324 -1.031,-1.324 0.136,-1.188 0.136,-1.188 0.136,-1.188 -1.047,-1.316 -1.047,-1.316 -1.047,-1.316 -1.039,-1.328 -1.039,-1.328 -1.039,-1.328 -1.031,-1.317 -1.031,-1.317 -1.031,-1.317 0.137,-1.191 0.137,-1.191 0.137,-1.191 -1.039,-1.324 -1.039,-1.324 -1.039,-1.324 0.144,-1.188 0.144,-1.188 0.144,-1.188 -1.05,-1.32 -1.05,-1.32 -1.05,-1.32 0.148,-1.188 0.148,-1.188 0.148,-1.188 -1.047,-1.324 -1.047,-1.324 -1.047,-1.324 0.145,-1.183 0.145,-1.183 0.145,-1.183 -1.051,-1.321 -1.051,-1.321 -1.051,-1.321 -1.039,-1.328 -1.039,-1.328 -1.039,-1.328 -1.031,-1.324 -1.031,-1.324 -1.031,-1.324 0.125,-1.195 0.125,-1.195 0.125,-1.195 0.148,-1.176 0.148,-1.176 0.148,-1.176 0,0 0,0 1.184,0.14 0,0 0,0 1.187,0.141 0,0 0,0 1.172,0.137" /><path
         id="path44"
         style="fill:#4ac7f2;fill-opacity:1;fill-rule:evenodd;stroke:none"
         d="m 485.793,384.418 c 0,0 0,0 0.145,1.184 0,0 0,0 1.308,1.05 0,0 0,0 0.149,1.18 0,0 0,0 1.32,1.039 0,0 0,0 1.316,1.047 0,0 0,0 0.145,1.184 0,0 0,0 1.176,-0.149 0,0 0,0 1.324,1.051 0,0 0,0 0.133,1.184 0,0 0,0 1.316,1.042 0,0 0,0 1.324,1.04 0,0 0,0 1.321,1.058 0,0 0,0 1.32,1.035 0,0 0,0 0.14,1.184 0,0 0,0 1.188,-0.149 0,0 0,0 1.316,1.047 0,0 0,0 1.317,1.047 0,0 0,0 1.324,1.043 0,0 0,0 1.313,1.039 0,0 0,0 0.144,1.184 0,0 0,0 1.32,1.051 0,0 0,0 1.313,1.05 0,0 0,0 1.328,1.032 0,0 0,0 1.312,1.05 0,0 0,0 1.325,1.043 0,0 0,0 0.133,1.184 0,0 0,0 1.312,1.043 0,0 0,0 1.336,1.039 0,0 0,0 1.324,1.047 0,0 0,0 1.313,1.047 0,0 0,0 1.316,1.035 0,0 0,0 0.129,1.191 0,0 0,0 1.34,1.047 0,0 0,0 1.308,1.039 0,0 0,0 1.317,1.039 0,0 0,0 1.328,1.047 0,0 0,0 1.312,1.047 0,0 0,0 1.329,1.043 0,0 0,0 1.312,1.043 0,0 0,0 1.191,-0.141 0,0 0,0 1.317,1.043 0,0 0,0 1.32,1.043 0,0 0,0 1.317,1.043 0,0 0,0 1.324,1.043 0,0 0,0 0.137,1.188 0,0 0,0 1.316,1.043 0,0 0,0 1.316,1.043 0,0 0,0 1.328,1.047 0,0 0,0 0.133,1.183 0,0 0,0 1.325,1.043 0,0 0,0 1.171,-0.14 0,0 0,0 1.329,1.042 0,0 0,0 1.316,1.051 0,0 0,0 1.32,1.035 0,0 0,0 1.321,1.043 0,0 0,0 1.328,1.047 0,0 0,0 1.316,1.047 0,0 0,0 1.324,1.039 0,0 0,0 0.137,1.184 0,0 0,0 1.176,-0.141 0,0 0,0 0.137,1.184 0,0 0,0 1.32,1.043 0,0 0,0 0.14,1.187 0,0 0,0 1.321,1.039 0,0 0,0 1.32,1.055 0,0 0,0 0.137,1.18 0,0 0,0 0.133,1.183 0,0 0,0 1.328,1.035 0,0 0,0 0.14,1.192 0,0 0,0 1.317,1.035 0,0 0,0 0.14,1.191 0,0 0,0 1.325,1.036 0,0 0,0 1.316,1.054 0,0 0,0 1.324,1.043 0,0 0,0 0.137,1.18 0,0 0,0 1.187,-0.145 -0.152,-1.179 -0.152,-1.179 -0.152,-1.179 -0.277,-2.368 -0.426,-3.555 0.625,-4.879 -0.141,-1.176 -0.141,-1.176 -0.141,-1.176 -0.273,-2.371 -0.429,-3.559 -0.554,-4.742 -0.137,-1.192 -0.289,-2.367 0.898,-2.508 -0.136,-1.188 -0.136,-1.188 -0.136,-1.188 -0.145,-1.179 -0.145,-1.179 -0.145,-1.179 -0.137,-1.184 -0.137,-1.184 1.051,-1.332 -0.153,-1.18 -0.153,-1.18 -0.153,-1.18 -0.136,-1.184 -0.136,-1.184 1.051,-1.324 -0.144,-1.188 -0.144,-1.188 1.028,-1.328 -0.137,-1.184 -0.137,-1.184 1.046,-1.317 -0.136,-1.187 -0.136,-1.187 1.047,-1.328 -0.14,-1.183 -0.14,-1.183 -0.14,-1.183 -0.145,-1.188 -0.145,-1.188 -0.145,-1.188 -0.14,-1.183 -0.14,-1.183 1.043,-1.332 -0.137,-1.184 -0.137,-1.184 -0.137,-1.184 -0.148,-1.179 -0.148,-1.179 -0.148,-1.179 -0.141,-1.184 -0.141,-1.184 1.047,-1.328 -0.145,-1.184 -0.145,-1.184 -0.145,-1.184 -0.133,-1.176 -0.133,-1.176 -0.133,-1.176 -0.152,-1.195 -0.152,-1.195 -0.152,-1.195 -0.133,-1.176 -0.133,-1.176 1.051,-1.316 -0.145,-1.184 -0.145,-1.184 -0.145,-1.184 -0.136,-1.188 -0.136,-1.188 -0.136,-1.188 -0.137,-1.187 -0.137,-1.187 1.039,-1.32 -0.137,-1.183 -0.137,-1.183 -0.137,-1.183 -0.137,-1.192 -0.285,-2.372 0.902,-2.512 -0.14,-1.184 -0.14,-1.184 -0.14,-1.184 -0.145,-1.191 -0.282,-2.371 0.894,-2.508 -0.136,-1.187 -0.136,-1.187 -0.136,-1.187 -0.141,-1.18 -0.141,-1.18 1.046,-1.328 -0.14,-1.176 -0.14,-1.176 1.032,-1.328 -0.133,-1.184 -0.133,-1.184 -0.133,-1.184 1.039,-1.324 1.039,-1.324 2.219,-1.457 -0.141,-1.18 -0.141,-1.18 1.027,-1.328 -0.129,-1.184 -0.129,-1.184 -0.129,-1.184 -0.133,-1.179 -0.133,-1.179 1.051,-1.332 -0.149,-1.172 -0.149,-1.172 -0.149,-1.172 -0.132,-1.187 -0.132,-1.187 1.032,-1.335 -0.137,-1.18 -0.137,-1.18 -0.137,-1.18 -0.137,-1.184 -0.137,-1.184 1.039,-1.324 -0.137,-1.192 -0.137,-1.192 -0.137,-1.192 -0.129,-1.179 -0.129,-1.179 1.047,-1.32 -0.148,-1.188 -0.148,-1.188 -0.148,-1.188 -0.133,-1.171 -0.133,-1.171 1.047,-1.316 -0.149,-1.184 -0.149,-1.184 -0.149,-1.184 -0.129,-1.187 -0.129,-1.187 1.051,-1.328 -0.141,-1.183 -0.141,-1.183 -0.141,-1.183 -1.172,0.136 -1.172,0.136 -1.172,0.136 -1.187,0.145 -1.187,0.145 -1.187,0.145 -1.184,0.141 -1.184,0.141 -1.047,1.324 -1.168,0.137 -1.168,0.137 -1.168,0.137 -1.184,0.148 -1.184,0.148 -1.039,1.328 -1.187,0.141 -1.187,0.141 -1.047,1.32 0,0 0,0 0.137,1.188 -1.168,0.144 -1.168,0.144 -1.043,1.32 -1.18,0.149 -1.18,0.149 -2.219,1.469 0,0 0,0 0.141,1.183 -1.18,0.145 -1.18,0.145 -1.18,0.145 -1.176,0.141 -1.176,0.141 -1.043,1.32 -1.172,0.153 -1.172,0.153 -1.031,1.325 -1.188,0.148 -1.188,0.148 -1.043,1.332 -1.192,0.14 -1.192,0.14 -1.043,1.324 -1.176,0.144 -1.176,0.144 -1.039,1.324 -1.184,0.141 -1.184,0.141 -1.047,1.324 -1.18,0.141 -1.18,0.141 -1.035,1.328 -1.172,0.145 -1.172,0.145 -1.031,1.325 -1.192,0.132 -1.192,0.132 -1.039,1.324 -1.192,0.136 -1.192,0.136 -1.051,1.328 -1.176,0.137 -1.176,0.137 -1.039,1.32 -1.188,0.137 -1.188,0.137 -1.043,1.324 -1.18,0.137 -1.18,0.137 -1.043,1.329 0.144,1.175 0.144,1.175 -2.227,1.46 -0.125,-1.175 -0.125,-1.175 -0.125,-1.175 -1.328,-1.051 -1.328,-1.051 -1.328,-1.051 -1.309,-1.039 -1.309,-1.039 -1.309,-1.039 -1.335,-1.043 -1.335,-1.043 -1.335,-1.043 -1.313,-1.059 -1.313,-1.059 -1.313,-1.059 -1.184,0.149 -1.184,0.149 -1.184,0.149 -1.312,-1.043 -1.312,-1.043 -1.312,-1.043 -1.332,-1.043 -1.332,-1.043 -1.332,-1.043 -1.309,-1.043 -1.309,-1.043 -1.309,-1.043 -0.144,-1.184 -0.144,-1.184 -0.144,-1.184 -1.321,-1.047 -1.321,-1.047 -1.321,-1.047 -1.324,-1.043 -1.324,-1.043 -1.324,-1.043 -1.32,-1.043 -1.32,-1.043 -1.32,-1.043 -1.305,-1.039 -1.305,-1.039 -1.305,-1.039 -1.191,0.137 -1.191,0.137 -1.191,0.137 -1.309,-1.051 -1.309,-1.051 -1.309,-1.051 -1.328,-1.035 -1.328,-1.035 -1.328,-1.035 -1.176,0.137 -1.176,0.137 -1.176,0.137 -1.328,-1.047 -1.328,-1.047 -1.328,-1.047 -1.312,-1.039 -1.312,-1.039 -1.312,-1.039 -1.184,0.137 -1.184,0.137 -1.184,0.137 -1.32,-1.039 -1.32,-1.039 -1.32,-1.039 -1.18,0.144 -1.18,0.144 -1.18,0.144 -1.316,-1.051 -1.316,-1.051 -1.316,-1.051 -1.184,0.141 -1.184,0.141 -1.184,0.141 -1.312,-1.035 -1.312,-1.035 -1.312,-1.035 -1.192,0.133 -1.192,0.133 -1.192,0.133 -1.316,-1.043 -1.316,-1.043 -1.316,-1.043 -1.18,0.148 -1.18,0.148 -1.18,0.148 -1.316,-1.043 -1.316,-1.043 -1.316,-1.043 -1.188,0.137 -1.188,0.137 -1.188,0.137 -1.312,-1.047 -1.312,-1.047 -1.312,-1.047 -1.18,0.144 -1.18,0.144 -1.18,0.144 -1.32,-1.046 -1.32,-1.046 -1.32,-1.046 -1.18,0.14 -1.18,0.14 -1.18,0.14 -1.176,0.137 -1.176,0.137 -1.176,0.137 -0.144,-1.18 -0.144,-1.18 -0.144,-1.18 -1.184,0.145 -1.184,0.145 -1.184,0.145 -1.316,-1.055 -1.316,-1.055 -1.316,-1.055 -1.184,0.152 -1.184,0.152 -1.184,0.152 -0.141,-1.187 -0.141,-1.187 -0.141,-1.187 -1.171,0.144 -1.171,0.144 -1.171,0.144 -1.184,0.133 -1.184,0.133 -1.184,0.133 -1.32,-1.043 -1.32,-1.043 -1.32,-1.043 -1.184,0.141 -1.184,0.141 -1.184,0.141 -1.172,0.141 -1.172,0.141 -1.172,0.141 -1.328,-1.043 -1.328,-1.043 -1.328,-1.043 -1.172,0.14 -1.172,0.14 -1.172,0.14 -1.183,0.141 -1.183,0.141 -1.183,0.141 -1.317,-1.043 -1.317,-1.043 -1.317,-1.043 -1.179,0.141 -1.179,0.141 -1.179,0.141 -1.321,-1.043 -1.321,-1.043 -1.321,-1.043 -1.183,0.144 -1.183,0.144 -1.183,0.144 -1.328,-1.043 -1.328,-1.043 -1.328,-1.043 -1.18,0.137 -1.18,0.137 -1.18,0.137 -1.18,0.137 -1.18,0.137 -1.18,0.137 -1.316,-1.04 -1.316,-1.04 -1.316,-1.04 -1.192,0.137 -1.192,0.137 -1.192,0.137 -1.172,0.145 -1.172,0.145 -1.172,0.145 -1.183,0.136 -1.183,0.136 -1.183,0.136 -1.172,0.145 -1.172,0.145 -1.172,0.145" /><path
         id="path46"
         style="fill:#1c87c7;fill-opacity:1;fill-rule:nonzero;stroke:none"
         d="m 179.594,339.391 c 4.281,-2.965 42.215,-75.293 42.215,-75.293 0,0 419.609,9.976 416.761,7.832 -2.847,-2.133 -458.976,67.461 -458.976,67.461" /><path
         id="path48"
         style="fill:#222443;fill-opacity:1;fill-rule:nonzero;stroke:none"
         d="m 596.363,613.125 c -3.683,3.715 -8.625,11.695 -23.707,12.109 -15.086,0.411 -25.359,-22.836 -25.359,-22.836 0,0 -0.633,3.082 -1.426,3.891 -0.805,0.801 -9.187,-1.285 -12.137,-1.48 -2.945,-0.18 -6.832,1.546 -9.496,0.941 -2.652,-0.598 -4.187,-1.043 -8.203,1.594 -4.027,2.629 -3.297,2.277 -8.687,-0.082 -5.364,-2.36 -12.243,-2.188 -18.508,-3.074 -6.277,-0.887 -18.176,-2.336 -27.481,-4.329 -9.308,-1.996 -18.156,-4.156 -28.171,-7.617 -1.86,-0.648 -3.84,-1.582 -5.895,-2.715 l -132.719,135.536 5.246,7.769 -6.754,-4.461 -14.257,11.34 9.718,-14.094 -4.746,-6.297 8.34,3.285 131.129,-135.488 c -5.875,-3.734 -11.949,-8.496 -16.879,-12.254 l -114.476,79.489 2.769,7.793 c 0,0 -3.551,2.656 -7.601,-3.536 l -13.317,7.262 9.91,-10.558 c 0,0 -2.722,-8.118 -0.301,-7.782 l 6.071,4.371 113.472,-79.644 c -0.429,-0.317 -0.847,-0.625 -1.253,-0.91 -7.68,-5.426 -23.485,-19.75 -25.305,-34.395 -1.824,-14.648 4.988,-17.578 4.988,-17.578 0,0 2.727,-11.254 6.274,-15.328 3.55,-4.067 6.414,-11.426 6.414,-11.426 5.336,-20.039 26.57,-49.648 26.57,-49.648 -1.758,-1.086 1.883,-4.387 0.668,-6.258 -1.227,-1.856 -1.656,-9.324 -2.785,-13.293 -1.133,-3.969 -7.235,-4.192 -9.324,-7.457 -2.075,-3.25 -1.918,-5.77 -7.485,-11.418 -5.551,-5.645 -20.215,-24.641 -22.769,-27.555 -2.578,-2.89 -12.231,-18.433 -12.231,-18.433 0,0 0.414,-1.414 2.676,-3.86 2.242,-2.433 -1.016,-1.824 -1.016,-1.824 l -3.957,-6.496 c -1.453,-1.676 0.262,-4.828 0.262,-4.828 -1.172,-0.785 -0.871,-4.348 -0.871,-4.348 -4.188,-4.824 -5.723,-14.98 -5.723,-14.98 l -4.949,2.047 c -1.621,1.035 0.242,2.785 0.242,2.785 l -11.879,13.769 c -2.547,3.024 -3.402,0.16 -3.402,0.16 l -1.582,-2.339 c -0.824,-3.079 6.144,-12.04 6.144,-12.04 2.133,-1.601 -1.667,-3.195 -1.667,-3.195 l -10.407,0.223 c -4.926,0.363 -5.808,-5.258 -5.808,-5.258 0,0 1.597,0.652 -0.575,-0.508 -0.406,-0.219 -0.738,-0.535 -1.007,-0.922 l -135.989,22.743 -3.945,-1.969 133.938,-26.469 c -0.024,-0.316 15.671,-2.848 15.671,-2.848 0,0 21.559,-4.132 52.008,-9.265 l 71.242,-12.824 c 10.223,-2.02 24.219,-3.555 26.356,-3.563 0,0 116.144,-20.77 131.797,-22.082 15.664,-1.305 25.59,5.684 25.59,5.684 1.789,7.277 -21.313,0.726 -21.313,0.726 l -129.16,21.985 0.207,2.378 c -0.309,5.254 -11.73,12.739 -11.73,12.739 l -0.586,2.675 c 0,0 -1.422,1.071 -2.469,2.403 -1.043,1.328 -3.008,-1.07 -3.008,-1.07 -3.141,2.73 -5.16,3.507 -6.785,6.039 -1.621,2.507 -0.149,2.507 1.805,5.113 1.968,2.609 4.371,15.64 5.683,21.336 1.313,5.683 9.922,27.215 13.074,34.84 3.168,7.648 14.133,43.898 15.465,49.382 1.356,5.481 0.113,11.231 -0.875,13.836 -1.012,2.614 -5.625,8.309 -8.953,15.45 -3.348,7.148 -9.363,16.89 -10.812,19.648 -1.442,2.758 -3.805,8.984 -3.805,8.984 6.887,-5.378 26.387,-5.593 30.398,-5.453 4.004,0.145 12.34,-5.027 12.34,-5.027 1.684,-4.418 7.18,-2.809 7.18,-2.809 1.019,-1.339 6.203,-3.554 8.312,-3.464 2.102,0.074 2.43,-0.735 5.985,-1.915 3.543,-1.199 6.172,1.278 6.172,1.278 3.097,-1.031 6.437,6.84 6.437,6.84 0,0 1.688,1.507 2.113,3.05 0.414,1.543 -0.117,2.313 -3.394,4.606 -3.281,2.285 -2.879,2.336 -5.274,7.293 -2.39,4.953 -11.132,5.414 -11.132,5.414 -0.821,1.371 -15.086,12.473 -16.539,13.758 -1.145,1.004 -1.508,3.047 -1.61,3.859 0.18,0.063 0.36,0.137 0.613,0.234 2.614,0.997 7.274,5.469 8.957,6.973 1.696,1.512 4.743,2.36 8.219,3.285 3.469,0.899 4.36,2.086 5.492,4.567 1.137,2.484 2.469,3.523 4.106,5.457 1.629,1.918 2.18,2.414 3.168,5.937 0.996,3.524 -0.488,3.535 -0.246,6.313 0.242,2.781 5.203,11.101 5.203,11.101 4.476,1.274 12.039,3.184 12.039,3.184 l 0.832,3.074 c 1.758,2.578 5.84,2.102 5.84,2.102 0,0 0,0 6.457,-5.235 6.441,-5.215 8.418,0.344 8.418,0.344 0,0 0.629,1.574 2.254,2.012 1.629,0.445 2.433,0.758 3.136,1.711 0.727,0.941 -0.359,4.179 -0.359,4.179 5.867,0.395 4.465,4.231 4.465,4.231 0.316,0.879 3.074,0.851 3.074,0.851 5.059,0.09 -0.226,12.039 -0.226,12.039 l 2.578,1.204 c 3.886,0.972 2.656,11.171 2.097,15.101 -0.554,3.945 -3.582,10.504 -7.289,14.215" /><path
         id="path50"
         style="fill:#222443;fill-opacity:1;fill-rule:nonzero;stroke:none"
         d="m 709.543,67.0898 -26.16,3.086 c -64.879,7.6289 -136.309,13.4883 -212.93,17.3086 -81.082,4.0312 -165.637,5.6562 -251.25,4.5703 l -37.289,-0.4766 -7.156,40.5779 -22.867,129.407 -9.153,51.886 47.559,-2.59 c 94.941,-5.144 188.34,-13.402 277.598,-24.23 83.867,-10.18 161.511,-22.316 231.562,-35.984 l 32.199,-6.262 -5.093,-40.789 -12.895,-103.504 -4.125,-33.0002" /><path
         id="path52"
         style="fill:#222443;fill-opacity:1;fill-rule:nonzero;stroke:none"
         d="m 45.0508,104.859 61.2852,79.7 13.445,17.492 L 105.43,213.973 1.06641,300.879 126.094,296.484 c 19.621,-0.691 39.433,-1.527 58.926,-2.484 l 37.847,-1.852 6.699,-41.187 14.895,-91.391 7.988,-49.148 -45.125,-0.352 c -9.238,-0.066 -20.515,-0.761 -31.496,-1.465 -10.078,-0.628 -20.594,-1.3 -30.176,-1.496 l -100.6012,-2.25" /><path
         id="path54"
         style="fill:#222443;fill-opacity:1;fill-rule:nonzero;stroke:none"
         d="m 796.16,68.3906 -62.527,8.8047 c -6.352,0.8867 -13.395,2.2305 -20.238,3.5313 -7.543,1.4531 -15.387,2.9336 -21.887,3.7422 l -32.883,4.0976 4.945,41.6566 9.082,76.445 4.051,34.039 26.77,-5.062 c 13.293,-2.508 26.539,-5.125 39.347,-7.754 l 75.246,-15.485 -60.546,-53.363 -8.875,-7.816 8.851,-15.438 38.664,-67.3984" /><path
         id="path56"
         style="fill:#4ac7f2;fill-opacity:1;fill-rule:nonzero;stroke:none"
         d="m 696.039,89.4531 -11.863,1.4766 c -65.211,8.2031 -136.988,14.6953 -214.012,19.1523 -81.539,4.723 -166.57,7.023 -252.742,6.641 l -16.738,-0.059 -3.184,18.203 -22.457,128.481 -4.039,23.175 21.246,-0.953 c 94.316,-4.351 187.172,-11.785 275.941,-21.832 83.446,-9.437 160.707,-20.894 230.414,-33.894 l 14.622,-2.754 -2.297,-18.516 -13.016,-104.16 -1.875,-14.9609" /><path
         id="path58"
         style="fill:#ffffff;fill-opacity:1;fill-rule:nonzero;stroke:none"
         d="m 209.344,194.988 8.797,4.985 9.097,-4.426 -2.011,9.898 7.011,7.262 -10.058,1.16 -4.731,8.926 -4.176,-9.203 -9.988,-1.75 7.477,-6.848 -1.418,-10.004" /><path
         id="path60"
         style="fill:#ffffff;fill-opacity:1;fill-rule:nonzero;stroke:none"
         d="m 673.004,148.711 -8.793,4.98 -9.102,-4.425 2.012,9.898 -7.008,7.266 10.051,1.16 4.731,8.93 4.179,-9.211 9.989,-1.743 -7.473,-6.843 1.414,-10.012" /><path
         id="path62"
         style="fill:#ffffff;fill-opacity:1;fill-rule:nonzero;stroke:none"
         d="m 263.477,223.012 c -0.164,8.355 2.921,14.781 9.195,19.238 6.234,4.43 15.535,6.191 27.812,5.313 6.293,-0.442 11.903,-1.133 16.844,-2.075 4.899,-0.929 8.688,-1.879 11.36,-2.843 l 0.093,-8.016 -24.562,1.598 c -5.84,0.375 -10.446,-0.715 -13.758,-3.282 -3.352,-2.566 -4.984,-6.297 -4.891,-11.164 0.071,-4.367 1.395,-7.902 3.973,-10.601 2.566,-2.7 5.777,-5.043 9.633,-7.043 3.828,-1.989 7.906,-3.852 12.226,-5.602 4.289,-1.734 8.305,-3.867 12.055,-6.383 3.715,-2.511 6.801,-5.605 9.262,-9.297 2.441,-3.675 3.687,-8.429 3.761,-14.257 0.106,-8.598 -3.023,-15.223 -9.429,-19.907 -6.446,-4.722 -17.086,-7.019 -32.086,-6.882 -6.348,0.066 -12.07,0.41 -17.164,1.043 -5.125,0.648 -9.137,1.382 -11.977,2.207 l -0.14,8.187 25.519,-0.394 c 8.942,-0.145 15.266,1.164 19.043,3.902 3.762,2.742 5.594,6.863 5.516,12.375 -0.063,3.965 -1.332,7.168 -3.813,9.629 -2.496,2.457 -5.652,4.601 -9.457,6.441 -3.836,1.848 -7.933,3.645 -12.344,5.379 -4.433,1.742 -8.613,3.957 -12.566,6.652 -3.953,2.704 -7.269,6.067 -9.926,10.075 -2.683,4.035 -4.07,9.273 -4.179,15.707" /><path
         id="path64"
         style="fill:#ffffff;fill-opacity:1;fill-rule:nonzero;stroke:none"
         d="m 423.066,139.875 -20.933,0.746 -28.363,47.242 -1.211,-46.183 -19.774,0.707 2.488,99.492 19.868,-1.91 -1.176,-45.082 27.746,42.519 21.094,-2.023 -30.364,-45.242 30.625,-50.266" /><path
         id="path66"
         style="fill:#ffffff;fill-opacity:1;fill-rule:nonzero;stroke:none"
         d="m 457.406,231.406 -4.832,-93.218 -17.863,0.925 4.793,94.297 17.902,-2.004" /><path
         id="path68"
         style="fill:#ffffff;fill-opacity:1;fill-rule:nonzero;stroke:none"
         d="m 495.605,226.832 -5.945,-90.828 -17.004,1.043 5.946,91.867 17.003,-2.082" /><path
         id="path70"
         style="fill:#ffffff;fill-opacity:1;fill-rule:nonzero;stroke:none"
         d="m 529.734,191.703 -0.668,0.082 -4.871,-58.133 -15.523,1.192 7.453,89.476 16.16,-2.222 20.031,-60.629 0.637,-0.063 4.852,57.188 14.629,-2.008 -7.317,-86.07 -15.312,1.183 -20.071,60.004" /><path
         id="path72"
         style="fill:#ffffff;fill-opacity:1;fill-rule:nonzero;stroke:none"
         d="m 634.203,125.305 c -2.004,-0.434 -4.836,-0.719 -8.508,-0.852 -3.687,-0.129 -7.988,0.031 -12.914,0.496 -5.746,0.539 -10.672,1.676 -14.769,3.434 -4.114,1.765 -7.403,4.426 -9.875,7.992 -2.477,3.582 -4.098,8.254 -4.852,14.012 -0.758,5.761 -0.68,12.89 0.227,21.386 0.906,8.497 2.34,15.473 4.293,20.911 1.957,5.425 4.425,9.617 7.425,12.546 2.993,2.915 6.5,4.766 10.54,5.551 4.015,0.782 8.558,0.789 13.601,0.032 4.578,-0.692 8.629,-1.543 12.176,-2.555 3.527,-1.012 6.219,-1.965 8.094,-2.891 l -0.692,-6.453 -16.644,2.399 c -2.77,0.402 -5.364,0.25 -7.77,-0.446 -2.437,-0.711 -4.637,-2.219 -6.625,-4.527 -1.988,-2.32 -3.68,-5.633 -5.086,-9.957 -1.414,-4.32 -2.469,-9.844 -3.191,-16.574 -0.735,-6.719 -0.836,-12.36 -0.332,-16.914 0.492,-4.543 1.484,-8.176 2.988,-10.918 1.484,-2.723 3.418,-4.735 5.805,-6.012 2.379,-1.289 5.129,-2.074 8.25,-2.383 l 3.23,-0.316 4,37.222 15.305,-1.898 -4.676,-43.285" /><path
         id="path74"
         style="fill:#222443;fill-opacity:1;fill-rule:nonzero;stroke:none"
         d="m 263.477,226.461 c -0.164,8.352 2.921,14.781 9.195,19.234 6.234,4.43 15.535,6.196 27.812,5.309 6.293,-0.434 11.903,-1.125 16.844,-2.07 4.899,-0.926 8.688,-1.875 11.36,-2.84 l 0.093,-8.02 -24.562,1.598 c -5.84,0.375 -10.446,-0.715 -13.758,-3.281 -3.352,-2.563 -4.984,-6.297 -4.891,-11.161 0.071,-4.367 1.395,-7.906 3.973,-10.605 2.566,-2.699 5.777,-5.043 9.633,-7.039 3.828,-1.988 7.906,-3.856 12.226,-5.606 4.289,-1.73 8.305,-3.863 12.055,-6.378 3.715,-2.516 6.801,-5.61 9.262,-9.301 2.441,-3.676 3.687,-8.426 3.761,-14.258 0.106,-8.598 -3.023,-15.223 -9.429,-19.906 -6.446,-4.719 -17.086,-7.016 -32.086,-6.883 -6.348,0.066 -12.07,0.414 -17.164,1.043 -5.125,0.648 -9.137,1.383 -11.977,2.211 l -0.14,8.187 25.519,-0.398 c 8.942,-0.145 15.266,1.164 19.043,3.902 3.762,2.742 5.594,6.864 5.516,12.379 -0.063,3.961 -1.332,7.164 -3.813,9.625 -2.496,2.457 -5.652,4.602 -9.457,6.445 -3.836,1.848 -7.933,3.641 -12.344,5.379 -4.433,1.743 -8.613,3.957 -12.566,6.649 -3.953,2.703 -7.269,6.066 -9.926,10.078 -2.683,4.031 -4.07,9.273 -4.179,15.707" /><path
         id="path76"
         style="fill:#222443;fill-opacity:1;fill-rule:nonzero;stroke:none"
         d="m 423.066,143.324 -20.933,0.746 -28.363,47.243 -1.211,-46.184 -19.774,0.707 2.488,99.488 19.868,-1.91 -1.176,-45.078 27.746,42.519 21.094,-2.027 -30.364,-45.242 30.625,-50.262" /><path
         id="path78"
         style="fill:#222443;fill-opacity:1;fill-rule:nonzero;stroke:none"
         d="m 457.406,234.852 -4.832,-93.219 -17.863,0.926 4.793,94.296 17.902,-2.003" /><path
         id="path80"
         style="fill:#222443;fill-opacity:1;fill-rule:nonzero;stroke:none"
         d="m 495.605,230.277 -5.945,-90.824 -17.004,1.039 5.946,91.867 17.003,-2.082" /><path
         id="path82"
         style="fill:#222443;fill-opacity:1;fill-rule:nonzero;stroke:none"
         d="m 529.734,195.148 -0.668,0.082 -4.871,-58.128 -15.523,1.187 7.453,89.477 16.16,-2.219 20.031,-60.633 0.637,-0.062 4.852,57.187 14.629,-2.004 -7.317,-86.07 -15.312,1.176 -20.071,60.007" /><path
         id="path84"
         style="fill:#222443;fill-opacity:1;fill-rule:nonzero;stroke:none"
         d="m 634.203,128.754 c -2.004,-0.438 -4.836,-0.723 -8.508,-0.856 -3.687,-0.125 -7.988,0.032 -12.914,0.497 -5.746,0.543 -10.672,1.679 -14.769,3.437 -4.114,1.762 -7.403,4.422 -9.875,7.992 -2.477,3.578 -4.098,8.254 -4.852,14.008 -0.758,5.762 -0.68,12.891 0.227,21.391 0.906,8.492 2.34,15.468 4.293,20.91 1.957,5.426 4.425,9.613 7.425,12.539 2.993,2.918 6.5,4.769 10.54,5.558 4.015,0.782 8.558,0.786 13.601,0.028 4.578,-0.688 8.629,-1.543 12.176,-2.555 3.527,-1.008 6.219,-1.965 8.094,-2.887 l -0.692,-6.457 -16.644,2.403 c -2.77,0.398 -5.364,0.25 -7.77,-0.449 -2.437,-0.708 -4.637,-2.215 -6.625,-4.524 -1.988,-2.32 -3.68,-5.637 -5.086,-9.957 -1.414,-4.324 -2.469,-9.848 -3.191,-16.578 -0.735,-6.719 -0.836,-12.359 -0.332,-16.91 0.492,-4.547 1.484,-8.18 2.988,-10.918 1.484,-2.727 3.418,-4.735 5.805,-6.016 2.379,-1.285 5.129,-2.074 8.25,-2.383 l 3.23,-0.312 4,37.219 15.305,-1.895 -4.676,-43.285" /><path
         id="path86"
         style="fill:#1c87c7;fill-opacity:1;fill-rule:nonzero;stroke:none"
         d="m 174.098,129.004 -23.848,147.519 -74.2109,2.653 80.7379,-75.969 -57.7692,-75.969 75.0902,1.766" /><path
         id="path88"
         style="fill:#1c87c7;fill-opacity:1;fill-rule:nonzero;stroke:none"
         d="m 730.621,212.922 44.168,-8.832 -51.238,-50.352 37.988,-64.488 -45.934,6.1836 15.016,117.4884" /></g></g></svg>