<?xml version="1.0" encoding="UTF-8" standalone="no"?>
<svg
   xmlns:dc="http://purl.org/dc/elements/1.1/"
   xmlns:cc="http://creativecommons.org/ns#"
   xmlns:rdf="http://www.w3.org/1999/02/22-rdf-syntax-ns#"
   xmlns:svg="http://www.w3.org/2000/svg"
   xmlns="http://www.w3.org/2000/svg"
   viewBox="0 0 193.33333 161.33333"
   height="161.33333"
   width="193.33333"
   xml:space="preserve"
   id="svg2"
   version="1.1"><metadata
     id="metadata8"><rdf:RDF><cc:Work
         rdf:about=""><dc:format>image/svg+xml</dc:format><dc:type
           rdf:resource="http://purl.org/dc/dcmitype/StillImage" /></cc:Work></rdf:RDF></metadata><defs
     id="defs6" /><g
     transform="matrix(1.3333333,0,0,-1.3333333,0,161.33333)"
     id="g10"><g
       transform="scale(0.1)"
       id="g12"><path
         id="path14"
         style="fill:#293d63;fill-opacity:1;fill-rule:nonzero;stroke:none"
         d="M 1196.23,419.238 V 962.645 H 284.68 V 417.469 c 0,-123.539 65.574,-183.617 172.238,-245.942 L 736.531,8.14453 1021.78,172.012 c 107.92,61.992 174.45,122.769 174.45,247.226" /><path
         id="path16"
         style="fill:#ffffff;fill-opacity:1;fill-rule:nonzero;stroke:none"
         d="M 490.383,228.797 C 383.578,291.203 351.016,335.289 351.016,417.469 V 896.313 H 1129.9 V 419.238 C 1129.9,336 1096.92,291.676 988.742,229.527 L 736.816,84.8086 490.383,228.797" /><path
         id="path18"
         style="fill:#293d63;fill-opacity:1;fill-rule:nonzero;stroke:none"
         d="M 509.508,261.527 C 405.676,322.191 388.922,357.184 388.922,417.469 V 858.406 H 1092 V 419.238 c 0,-61.125 -16.98,-96.425 -122.145,-156.843 L 736.973,128.613 509.508,261.527" /><path
         id="path20"
         style="fill:#ffffff;fill-opacity:1;fill-rule:nonzero;stroke:none"
         d="m 742.074,297.879 17.535,-35.535 39.215,-5.696 -28.375,-27.66 6.699,-39.058 -35.074,18.441 -35.078,-18.441 6.699,39.058 -28.379,27.66 39.219,5.696 17.539,35.535" /><path
         id="path22"
         style="fill:#fbc120;fill-opacity:1;fill-rule:nonzero;stroke:none"
         d="m 321.969,335.758 c -38.375,-8.629 -76.555,-18.445 -114.473,-29.461 11.442,-17.918 22.703,-35.914 33.785,-53.996 -0.98,-17.949 -1.801,-35.883 -2.468,-53.801 35.699,10.371 71.64,19.617 107.769,27.738 -8.203,36.504 -16.406,73.012 -24.613,109.52" /><path
         id="path24"
         style="fill:#fbc120;fill-opacity:1;fill-rule:nonzero;stroke:none"
         d="m 1162.17,335.758 c 38.38,-8.629 76.56,-18.445 114.48,-29.461 -11.44,-17.918 -22.7,-35.914 -33.79,-53.996 0.98,-17.949 1.81,-35.883 2.47,-53.801 -35.7,10.371 -71.64,19.617 -107.76,27.738 8.2,36.504 16.4,73.012 24.6,109.52" /><path
         id="path26"
         style="fill:#cb9619;fill-opacity:1;fill-rule:nonzero;stroke:none"
         d="m 1198.24,264.223 c -20.63,-12.325 -40.86,-24.996 -60.67,-37.985 3.73,16.606 7.46,33.211 11.19,49.821 16.53,-3.719 33.03,-7.661 49.48,-11.836" /><path
         id="path28"
         style="fill:#fbc120;fill-opacity:1;fill-rule:nonzero;stroke:none"
         d="m 1229.28,399.398 c -323.003,81.407 -661.335,80.59 -984.022,-2.445 13.699,-44.199 27.25,-88.445 40.644,-132.73 298.411,75.711 610.981,75.953 909.478,0.722 11.3,44.817 22.6,89.641 33.9,134.453" /><path
         id="path30"
         style="fill:#ffffff;fill-opacity:1;fill-rule:nonzero;stroke:none"
         d="m 401.789,348.48 c 0.715,-3.949 1.43,-7.898 2.141,-11.851 2.562,-14.281 -3.512,-23.758 -17.989,-26.547 -14.484,-2.805 -23.652,3.727 -26.597,17.938 -3.164,15.386 -6.324,30.781 -9.489,46.168 -2.941,14.195 3.258,23.98 18.5,26.929 15.247,2.934 24.629,-3.836 27.188,-18.105 0.523,-2.883 1.047,-5.774 1.566,-8.66 -4.812,-0.868 -9.629,-1.762 -14.437,-2.668 -0.602,3.183 -1.199,6.363 -1.801,9.543 -1.199,6.363 -4.738,8.203 -9.641,7.257 -4.902,-0.949 -7.503,-3.972 -6.246,-10.32 3.157,-16.012 6.313,-32.019 9.473,-48.027 1.254,-6.356 4.672,-8.051 9.406,-7.133 4.731,0.91 7.282,3.754 6.078,10.121 -0.796,4.242 -1.597,8.484 -2.398,12.727 4.746,0.894 9.496,1.769 14.246,2.628" /><path
         id="path32"
         style="fill:#ffffff;fill-opacity:1;fill-rule:nonzero;stroke:none"
         d="m 445.145,321.586 c -4.95,-0.793 -9.899,-1.606 -14.84,-2.438 -5.016,29.797 -10.028,59.594 -15.043,89.391 5.183,0.871 10.367,1.723 15.554,2.555 2.047,-12.785 4.094,-25.571 6.137,-38.36 5.781,0.926 11.563,1.825 17.348,2.692 -1.93,12.808 -3.863,25.613 -5.793,38.418 5.289,0.797 10.578,1.57 15.871,2.324 4.258,-29.914 8.519,-59.828 12.777,-89.742 -5.047,-0.719 -10.093,-1.461 -15.136,-2.219 -1.93,12.805 -3.856,25.613 -5.79,38.418 -5.746,-0.867 -11.488,-1.758 -17.23,-2.68 2.047,-12.789 4.094,-25.57 6.145,-38.359" /><path
         id="path34"
         style="fill:#ffffff;fill-opacity:1;fill-rule:nonzero;stroke:none"
         d="m 512.281,360.055 c 4.864,0.59 9.723,1.16 14.59,1.711 -4.156,14.91 -8.371,29.8 -12.648,44.687 -0.7,-15.465 -1.352,-30.933 -1.942,-46.398 z m 37.5,-24.727 c -5.023,-0.515 -10.039,-1.051 -15.054,-1.609 -1.469,5.355 -2.938,10.707 -4.418,16.058 -6.157,-0.695 -12.309,-1.418 -18.461,-2.168 -0.2,-5.546 -0.395,-11.097 -0.578,-16.644 -4.559,-0.563 -9.118,-1.145 -13.672,-1.742 1.121,30.621 2.488,61.257 4.101,91.894 7.621,0.942 15.246,1.832 22.875,2.68 8.645,-29.442 17.047,-58.93 25.207,-88.469" /><path
         id="path36"
         style="fill:#ffffff;fill-opacity:1;fill-rule:nonzero;stroke:none"
         d="m 599.996,366.18 c 1.844,21.648 3.805,43.3 5.887,64.949 7.269,0.504 14.547,0.965 21.816,1.387 1.758,-30.161 3.516,-60.328 5.27,-90.493 -4.719,-0.273 -9.434,-0.566 -14.153,-0.878 -1.418,21.625 -2.839,43.246 -4.257,64.871 -2.149,-21.86 -4.176,-43.715 -6.079,-65.578 -4.714,-0.336 -9.425,-0.688 -14.14,-1.063 -5.395,21.008 -10.914,41.996 -16.563,62.957 1.805,-21.285 3.614,-42.578 5.418,-63.867 -4.347,-0.367 -8.695,-0.754 -13.039,-1.152 -2.769,30.085 -5.531,60.175 -8.297,90.269 7.262,0.668 14.524,1.293 21.793,1.879 5.575,-21.074 11.02,-42.172 16.344,-63.281" /><path
         id="path38"
         style="fill:#ffffff;fill-opacity:1;fill-rule:nonzero;stroke:none"
         d="m 669.574,421.551 c 0.383,-10.223 0.758,-20.449 1.137,-30.672 2.422,0.09 4.844,0.176 7.262,0.254 4.882,0.164 7.476,2.305 7.285,8.781 -0.133,4.531 -0.262,9.059 -0.395,13.59 -0.191,6.473 -2.941,8.473 -7.91,8.305 -2.461,-0.082 -4.922,-0.172 -7.379,-0.258 z m 30.84,-8.555 c 0.086,-3.93 0.168,-7.859 0.25,-11.785 0.293,-14.512 -7.027,-22.52 -22.258,-23.016 -2.406,-0.082 -4.808,-0.164 -7.215,-0.257 0.422,-11.348 0.84,-22.688 1.262,-34.036 -4.992,-0.187 -9.984,-0.386 -14.976,-0.613 -1.36,30.184 -2.723,60.367 -4.082,90.551 7.703,0.351 15.418,0.652 23.125,0.906 15.726,0.52 23.609,-7.258 23.894,-21.75" /><path
         id="path40"
         style="fill:#ffffff;fill-opacity:1;fill-rule:nonzero;stroke:none"
         d="m 722.223,435.742 c 5.234,0.055 10.472,0.082 15.711,0.094 0.062,-30.215 0.121,-60.43 0.187,-90.645 -4.992,-0.011 -9.992,-0.039 -14.984,-0.093 -0.305,30.215 -0.61,60.429 -0.914,90.644" /><path
         id="path42"
         style="fill:#ffffff;fill-opacity:1;fill-rule:nonzero;stroke:none"
         d="m 776.797,365.727 c -0.125,-6.477 2.851,-8.993 7.644,-9.098 4.797,-0.102 7.879,2.269 8.051,8.742 0.434,16.317 0.867,32.625 1.301,48.938 0.172,6.468 -2.883,9.019 -7.852,9.129 -4.972,0.113 -8.136,-2.297 -8.253,-8.77 -0.297,-16.313 -0.598,-32.629 -0.891,-48.941 z m -14.664,48.257 c 0.133,14.493 8.648,22.739 24.097,22.399 15.45,-0.352 23.594,-8.973 23.071,-23.457 -0.539,-15.703 -1.082,-31.406 -1.625,-47.11 -0.528,-14.5 -8.84,-22.464 -23.52,-22.128 -14.687,0.32 -22.633,8.648 -22.508,23.164 0.165,15.707 0.325,31.421 0.485,47.132" /><path
         id="path44"
         style="fill:#ffffff;fill-opacity:1;fill-rule:nonzero;stroke:none"
         d="m 847.105,408.008 c -1.183,-21.852 -2.367,-43.703 -3.55,-65.555 -4.489,0.238 -8.981,0.465 -13.473,0.68 1.414,30.18 2.828,60.367 4.246,90.547 6.563,-0.309 13.125,-0.649 19.688,-1.02 4.347,-18.367 8.543,-36.742 12.589,-55.129 1.176,18.047 2.348,36.098 3.528,54.145 4.656,-0.305 9.316,-0.625 13.972,-0.961 -2.179,-30.137 -4.355,-60.274 -6.539,-90.41 -5.117,0.371 -10.242,0.718 -15.371,1.047 -4.808,22.238 -9.843,44.461 -15.09,66.656" /><path
         id="path46"
         style="fill:#ffffff;fill-opacity:1;fill-rule:nonzero;stroke:none"
         d="m 930.789,427.824 c 15.258,-1.476 22.191,-10.609 20.609,-25.015 -0.101,-0.95 -0.203,-1.891 -0.308,-2.832 -4.867,0.523 -9.738,1.035 -14.61,1.519 0.129,1.25 0.25,2.492 0.379,3.738 0.645,6.442 -1.937,9.18 -6.886,9.657 -4.953,0.476 -8.012,-1.715 -8.606,-8.161 -1.652,-18.503 27.973,-24.992 25.106,-50.8 -1.586,-14.426 -10.067,-21.805 -24.703,-20.387 -14.629,1.395 -21.547,10.25 -20.348,24.715 0.152,1.851 0.308,3.699 0.461,5.547 4.781,-0.399 9.562,-0.821 14.336,-1.258 -0.196,-2.149 -0.395,-4.301 -0.59,-6.449 -0.59,-6.45 2.203,-9.043 6.984,-9.496 4.785,-0.461 8.024,1.55 8.668,7.996 1.922,18.621 -27.578,24.847 -25.488,50.597 1.199,14.442 9.738,22.086 24.996,20.629" /><path
         id="path48"
         style="fill:#ffffff;fill-opacity:1;fill-rule:nonzero;stroke:none"
         d="m 981.137,329.926 c -4.969,0.637 -9.93,1.254 -14.903,1.847 3.606,30.004 7.211,60 10.817,90.004 5.207,-0.629 10.414,-1.277 15.621,-1.941 -1.652,-12.844 -3.297,-25.688 -4.945,-38.531 5.796,-0.746 11.593,-1.516 17.383,-2.313 1.77,12.832 3.53,25.656 5.3,38.485 5.29,-0.727 10.58,-1.473 15.88,-2.247 -4.37,-29.898 -8.73,-59.8 -13.09,-89.703 -5.04,0.739 -10.09,1.453 -15.145,2.153 1.765,12.824 3.525,25.656 5.295,38.484 -5.752,0.789 -11.514,1.555 -17.272,2.297 -1.644,-12.848 -3.293,-25.688 -4.941,-38.535" /><path
         id="path50"
         style="fill:#ffffff;fill-opacity:1;fill-rule:nonzero;stroke:none"
         d="m 1051.78,411.34 c 5.18,-0.824 10.37,-1.672 15.55,-2.539 -4.99,-29.801 -9.97,-59.602 -14.97,-89.403 -4.95,0.829 -9.89,1.633 -14.84,2.422 4.75,29.84 9.5,59.68 14.26,89.52" /><path
         id="path52"
         style="fill:#ffffff;fill-opacity:1;fill-rule:nonzero;stroke:none"
         d="m 1105.86,388.777 c -1.91,-10.05 -3.81,-20.105 -5.71,-30.156 2.39,-0.449 4.78,-0.906 7.17,-1.367 4.82,-0.934 7.83,0.574 9.09,6.93 0.88,4.449 1.75,8.894 2.63,13.339 1.25,6.356 -1,8.915 -5.9,9.864 -2.43,0.468 -4.85,0.929 -7.28,1.39 z m 28.3,-15.222 c -0.79,-3.848 -1.58,-7.696 -2.37,-11.543 -2.94,-14.211 -11.9,-20.387 -26.93,-17.473 -2.37,0.457 -4.74,0.91 -7.12,1.359 -2.11,-11.156 -4.22,-22.308 -6.33,-33.464 -4.93,0.933 -9.86,1.847 -14.79,2.742 5.37,29.726 10.75,59.465 16.13,89.195 7.62,-1.379 15.24,-2.801 22.84,-4.269 15.52,-3.012 21.51,-12.356 18.57,-26.547" /><path
         id="path54"
         style="fill:#cb9619;fill-opacity:1;fill-rule:nonzero;stroke:none"
         d="m 285.902,264.223 c 20.637,-12.325 40.871,-24.996 60.68,-37.985 -3.73,16.606 -7.465,33.211 -11.195,49.821 -16.535,-3.719 -33.032,-7.661 -49.485,-11.836" /><path
         id="path56"
         style="fill:#ffffff;fill-opacity:1;fill-rule:nonzero;stroke:none"
         d="m 756.738,1176.96 c -9.418,1.17 -18.855,1.74 -28.258,1.74 -53.179,0 -105.289,-18.31 -146.878,-52.05 2.378,-4 9.882,-16.4 21.664,-32.97 16.078,15.34 73.972,66.02 153.472,83.28" /><path
         id="path58"
         style="fill:#518dd2;fill-opacity:1;fill-rule:nonzero;stroke:none"
         d="m 742.078,864.727 c 2.258,32.711 0.508,60.867 -0.57,73.378 -44.106,19.282 -87.653,54.407 -129.547,104.525 -24.832,29.71 -41.715,56.05 -48.68,67.49 -15.363,-15.47 -28.797,-33.35 -39.652,-53.48 -0.492,-0.91 -0.922,-1.85 -1.402,-2.77 11.269,-24.95 70.742,-141.003 219.851,-189.143" /><path
         id="path60"
         style="fill:#fbc120;fill-opacity:1;fill-rule:nonzero;stroke:none"
         d="m 726.445,783.012 c 6.719,18.898 10.785,38.84 13.192,57.082 C 600.75,882.941 534.25,978.961 509.473,1024.88 499.637,997.523 495.328,969.16 496.016,941.18 507.004,921.5 581.445,798.156 726.445,783.012" /><path
         id="path62"
         style="fill:#ffffff;fill-opacity:1;fill-rule:nonzero;stroke:none"
         d="m 739.297,1056.53 c -29.172,-17.58 -49.613,-37.87 -59.684,-49.01 20.821,-18.325 44.227,-34.879 69.508,-46.286 19.703,23.262 85.832,89.716 190.938,79.836 -6.516,14.69 -14.45,28.56 -23.711,41.44 -62.254,16.01 -121.809,7.34 -177.051,-25.98" /><path
         id="path64"
         style="fill:#fbc120;fill-opacity:1;fill-rule:nonzero;stroke:none"
         d="m 661.902,1024.07 c 11.211,12.42 32.911,33.77 64.055,52.67 36.981,22.47 93.762,44.88 164.953,35.41 -15.453,15.14 -33.094,28.24 -52.664,38.81 v 0 c -4.769,2.57 -9.598,4.93 -14.465,7.14 -107.859,6.96 -193.59,-72.02 -205.937,-84.03 12.172,-15.69 27.019,-33.13 44.058,-50" /><path
         id="path66"
         style="fill:#518dd2;fill-opacity:1;fill-rule:nonzero;stroke:none"
         d="m 805.813,980.539 c -21.184,-15.168 -34.868,-30.715 -40.415,-37.594 2.75,-28.097 12.028,-161.742 -51.277,-228.222 23.996,-1.407 47.942,0.906 70.977,6.754 65.875,117.187 34.5,223.812 20.715,259.062" /><path
         id="path68"
         style="fill:#518dd2;fill-opacity:1;fill-rule:nonzero;stroke:none"
         d="m 536.133,850.25 c -12.684,12.48 -23.367,24.773 -32.149,35.934 16.047,-59.551 55.5,-112.672 113.954,-144.164 20.64,-11.122 42.234,-18.754 64.113,-23.165 14.679,10.29 25.851,24.672 34.355,40.946 -83.551,10.851 -143.722,54.496 -180.273,90.449" /><path
         id="path70"
         style="fill:#518dd2;fill-opacity:1;fill-rule:nonzero;stroke:none"
         d="m 949.699,1015.44 c -14.293,2.16 -27.836,2.74 -40.597,2.06 11.148,-31.555 32.207,-107.328 15.777,-194.254 2.668,4.258 5.258,8.594 7.676,13.082 29.375,54.52 35.73,117.313 17.894,176.812 -0.23,0.77 -0.508,1.52 -0.75,2.3" /><path
         id="path72"
         style="fill:#fbc120;fill-opacity:1;fill-rule:nonzero;stroke:none"
         d="m 826.715,993.738 c 13.922,-32.773 49.387,-138.617 -8.637,-261.203 25.164,10.551 48.535,25.555 68.863,44.59 39.778,106.066 8.274,208.051 -2.613,237.485 -22.086,-4.14 -41.32,-11.88 -57.613,-20.872" /><path
         id="path74"
         style="fill:#bfbdbc;fill-opacity:1;fill-rule:nonzero;stroke:none"
         d="M 971.887,962.645 H 959.77 c -1.231,16.918 -4.329,33.835 -9.321,50.495 -0.23,0.77 -0.508,1.52 -0.75,2.3 -10.574,1.6 -20.73,2.33 -30.476,2.33 -3.426,0 -6.801,-0.09 -10.121,-0.27 4.332,-12.26 10.16,-31.191 14.699,-54.855 h -24.934 c -3.914,19.25 -8.594,34.824 -12.187,45.335 2.57,10.74 4.402,21.56 5.504,32.4 8.601,1.09 17.558,1.67 26.855,1.67 6.824,0 13.828,-0.31 21.02,-0.98 -6.516,14.69 -14.45,28.56 -23.711,41.44 -7.996,2.07 -15.95,3.7 -23.856,4.94 -0.742,8.36 -1.902,16.7 -3.476,24.93 0.625,-0.06 1.261,-0.16 1.894,-0.23 v 0 c -0.758,0.74 -1.515,1.47 -2.277,2.2 -1.778,8.9 -4.039,17.74 -6.774,26.41 54.364,-44.81 86.137,-110.04 90.028,-178.115" /><path
         id="path76"
         style="fill:#212e47;fill-opacity:1;fill-rule:nonzero;stroke:none"
         d="M 966.734,896.313 H 954.93 c 4.82,21.73 6.453,44.031 4.84,66.332 h 12.117 c 1.254,-22.016 -0.399,-44.325 -5.153,-66.332 z m -35.882,0 h -24.469 c -0.563,24.796 -3.664,47.343 -7.516,66.332 h 24.934 c 3.711,-19.313 6.562,-41.774 7.051,-66.332 z m -81.442,0 h -22.734 c 7.133,7.636 13.84,15.796 20.054,24.449 1.145,-7.731 2.071,-15.903 2.68,-24.449" /><path
         id="path78"
         style="fill:#bfbdbc;fill-opacity:1;fill-rule:nonzero;stroke:none"
         d="m 955.305,858.406 h -12.293 c 5.086,12.352 9.062,25.028 11.918,37.907 h 11.804 c -2.757,-12.774 -6.558,-25.454 -11.429,-37.907 z m -25.649,0 h -24.472 c 1.144,13.063 1.476,25.758 1.199,37.907 h 24.469 c 0.242,-12.168 -0.098,-24.844 -1.196,-37.907 z m -79.761,0 h -24.782 c 0.598,12.574 0.383,24.567 -0.406,35.821 0.664,0.695 1.313,1.382 1.969,2.086 h 22.734 c 0.852,-11.926 1.098,-24.598 0.485,-37.907 z m -341.954,0 h -15.726 c -2.016,5.168 -3.86,10.407 -5.527,15.692 6.742,-5.555 13.828,-10.793 21.253,-15.692" /><path
         id="path80"
         style="fill:#212e47;fill-opacity:1;fill-rule:nonzero;stroke:none"
         d="m 723.27,700.27 c -39.778,0.003 -80.118,9.562 -117.52,29.71 -53.965,29.075 -92.84,75.352 -113.535,128.426 h 15.726 c 2.43,-1.601 4.899,-3.168 7.399,-4.695 20.027,-46.094 55.019,-86.055 102.598,-111.691 20.64,-11.122 42.234,-18.754 64.113,-23.165 14.679,10.29 25.851,24.672 34.355,40.946 -72.043,9.359 -126.699,43.09 -163.828,75.254 21.02,-8.414 42.645,-13.746 64.367,-16.172 30.559,-17.695 66.993,-31.43 109.5,-35.871 6.219,17.484 10.16,35.855 12.621,52.953 8.895,3.637 17.59,7.785 26.032,12.433 -4.813,-46.55 -18.114,-99.164 -50.977,-133.675 4.563,-0.27 9.129,-0.403 13.684,-0.403 19.386,0 38.64,2.422 57.293,7.157 27.527,48.964 38.074,96.089 40.015,136.929 h 24.782 c -1.75,-37.804 -10.438,-80.703 -31.817,-125.871 25.164,10.551 48.535,25.555 68.863,44.59 10.418,27.789 15.95,55.285 18.243,81.281 h 24.472 c -0.965,-11.449 -2.519,-23.203 -4.777,-35.16 2.668,4.258 5.258,8.594 7.676,13.082 3.89,7.223 7.375,14.59 10.457,22.078 h 12.293 c -3.637,-9.289 -7.871,-18.461 -12.723,-27.457 C 897.707,747.648 811.848,700.262 723.27,700.27" /><path
         id="path82"
         style="fill:#b8911c;fill-opacity:1;fill-rule:nonzero;stroke:none"
         d="m 726.445,783.012 c -42.507,4.441 -78.941,18.176 -109.5,35.871 9.164,-1.024 18.352,-1.531 27.5,-1.531 32.535,0.003 64.711,6.398 94.621,18.613 -2.461,-17.098 -6.402,-35.469 -12.621,-52.953" /><path
         id="path84"
         style="fill:#bfbdbc;fill-opacity:1;fill-rule:nonzero;stroke:none"
         d="m 892.184,1040.38 c 1.605,15.73 1.687,31.5 0.308,47.07 7.906,-1.24 15.86,-2.87 23.856,-4.94 9.261,-12.88 17.195,-26.75 23.711,-41.44 -7.192,0.67 -14.196,0.98 -21.02,0.98 -9.297,0 -18.254,-0.58 -26.855,-1.67" /><path
         id="path86"
         style="fill:#b8911c;fill-opacity:1;fill-rule:nonzero;stroke:none"
         d="m 890.91,1112.15 c -0.633,0.07 -1.269,0.17 -1.894,0.23 -0.125,0.64 -0.254,1.31 -0.383,1.97 0.762,-0.73 1.519,-1.46 2.277,-2.2" /><path
         id="path88"
         style="fill:#366aae;fill-opacity:1;fill-rule:nonzero;stroke:none"
         d="m 727.805,714.32 c -4.555,0 -9.121,0.133 -13.684,0.403 32.863,34.511 46.164,87.125 50.977,133.675 21.828,12.02 41.988,27.379 59.609,45.829 0.789,-11.254 1.004,-23.247 0.406,-35.821 -1.941,-40.84 -12.488,-87.965 -40.015,-136.929 -18.653,-4.735 -37.907,-7.157 -57.293,-7.157" /><path
         id="path90"
         style="fill:#366aae;fill-opacity:1;fill-rule:nonzero;stroke:none"
         d="m 682.051,718.855 c -21.879,4.411 -43.473,12.043 -64.113,23.165 -47.579,25.636 -82.571,65.597 -102.598,111.691 3.781,-2.305 7.644,-4.52 11.59,-6.648 8.414,-4.532 16.98,-8.532 25.648,-12.008 37.129,-32.164 91.785,-65.895 163.828,-75.254 -8.504,-16.274 -19.676,-30.656 -34.355,-40.946" /><path
         id="path92"
         style="fill:#366aae;fill-opacity:1;fill-rule:nonzero;stroke:none"
         d="m 924.879,823.246 c 2.258,11.957 3.812,23.711 4.777,35.16 1.098,13.063 1.438,25.739 1.196,37.907 -0.489,24.558 -3.34,47.019 -7.051,66.332 -4.539,23.664 -10.367,42.595 -14.699,54.855 3.32,0.18 6.695,0.27 10.121,0.27 9.746,0 19.902,-0.73 30.476,-2.33 0.242,-0.78 0.52,-1.53 0.75,-2.3 4.992,-16.66 8.09,-33.577 9.321,-50.495 1.613,-22.301 -0.02,-44.602 -4.84,-66.332 -2.856,-12.879 -6.832,-25.555 -11.918,-37.907 -3.082,-7.488 -6.567,-14.855 -10.457,-22.078 -2.418,-4.488 -5.008,-8.824 -7.676,-13.082" /><path
         id="path94"
         style="fill:#b8911c;fill-opacity:1;fill-rule:nonzero;stroke:none"
         d="m 818.078,732.535 c 21.379,45.168 30.067,88.067 31.817,125.871 0.613,13.309 0.367,25.981 -0.485,37.907 -0.609,8.546 -1.535,16.718 -2.68,24.449 6.176,8.605 11.875,17.699 17.032,27.265 10.429,19.368 18.023,39.508 22.918,59.953 3.593,-10.511 8.273,-26.085 12.187,-45.335 3.852,-18.989 6.953,-41.536 7.516,-66.332 0.277,-12.149 -0.055,-24.844 -1.199,-37.907 -2.293,-25.996 -7.825,-53.492 -18.243,-81.281 -20.328,-19.035 -43.699,-34.039 -68.863,-44.59" /><path
         id="path96"
         style="fill:#293d63;fill-opacity:1;fill-rule:nonzero;stroke:none"
         d="M 932.555,836.328 C 900.48,776.801 845.988,736.941 785.105,721.484 l -0.007,-0.007 -0.418,-0.102 c -2.641,-0.664 -5.293,-1.281 -7.957,-1.855 l -0.485,-0.11 c -15.894,-3.379 -32.16,-5.144 -48.535,-5.144 -26.109,0 -52.461,4.429 -77.953,13.582 l -0.754,0.281 c -2.226,0.809 -4.441,1.644 -6.652,2.523 -0.61,0.246 -1.219,0.496 -1.832,0.743 -1.864,0.761 -3.719,1.55 -5.574,2.359 -0.743,0.328 -1.489,0.652 -2.231,0.988 -1.797,0.809 -3.59,1.656 -5.379,2.52 -0.699,0.336 -1.406,0.664 -2.105,1.008 -2.438,1.207 -4.871,2.449 -7.285,3.75 -3.555,1.914 -7.036,3.921 -10.465,6 -0.836,0.507 -1.637,1.054 -2.465,1.57 -2.594,1.617 -5.168,3.254 -7.684,4.965 -0.761,0.515 -1.492,1.062 -2.246,1.59 -2.57,1.789 -5.117,3.605 -7.605,5.496 -0.532,0.402 -1.043,0.82 -1.571,1.23 -2.695,2.082 -5.343,4.203 -7.933,6.395 l -0.789,0.683 c -33.637,28.68 -58.438,66.449 -71.457,109.879 -17.828,59.488 -11.473,122.282 17.906,176.812 l 0.051,0.09 c 1.668,3.09 3.418,6.11 5.207,9.1 0.547,0.92 1.113,1.83 1.676,2.74 1.371,2.24 2.777,4.4 4.218,6.57 0.559,0.84 1.106,1.7 1.68,2.54 1.844,2.7 3.738,5.33 5.684,7.93 0.757,1.03 1.543,2.03 2.32,3.04 1.289,1.66 2.598,3.3 3.922,4.93 0.957,1.17 1.922,2.33 2.902,3.47 1.336,1.56 2.699,3.1 4.07,4.63 1.555,1.73 3.133,3.44 4.731,5.1 1.058,1.14 2.109,2.24 3.191,3.34 l 0.016,-0.04 c 7.707,7.77 15.91,14.91 24.519,21.41 0.711,0.53 1.403,1.1 2.118,1.6 1.921,1.43 3.875,2.8 5.836,4.13 0.937,0.67 1.871,1.33 2.82,1.97 1.883,1.24 3.793,2.47 5.711,3.67 1.058,0.67 2.125,1.33 3.199,2 1.875,1.13 3.766,2.23 5.668,3.3 1.152,0.67 2.309,1.3 3.465,1.93 1.883,1.04 3.773,2.04 5.683,3 1.215,0.64 2.446,1.24 3.668,1.84 1.899,0.93 3.793,1.83 5.707,2.73 1.27,0.57 2.559,1.1 3.836,1.67 1.914,0.8 3.821,1.67 5.754,2.43 1.285,0.54 2.59,1 3.887,1.47 3.348,1.3 6.723,2.5 10.129,3.63 1.746,0.57 3.488,1.17 5.25,1.7 1.586,0.47 3.187,0.9 4.785,1.37 1.809,0.5 3.617,1 5.441,1.47 1.579,0.4 3.165,0.77 4.75,1.13 1.868,0.43 3.747,0.87 5.629,1.27 1.563,0.33 3.121,0.63 4.692,0.9 1.933,0.37 3.875,0.7 5.824,1.03 1.531,0.23 3.062,0.47 4.602,0.67 2.023,0.3 4.05,0.53 6.085,0.77 1.477,0.17 2.946,0.33 4.422,0.5 2.164,0.2 4.332,0.33 6.5,0.46 1.364,0.1 2.719,0.2 4.082,0.27 2.493,0.14 4.993,0.17 7.493,0.23 1.046,0 2.089,0.07 3.136,0.07 h 0.492 c 3.071,0 6.141,-0.1 9.215,-0.2 0.785,-0.04 1.571,-0.07 2.356,-0.13 3.246,-0.14 6.492,-0.37 9.734,-0.67 0.43,-0.03 0.86,-0.1 1.281,-0.13 1.891,-0.17 3.782,-0.37 5.672,-0.61 l -0.175,-0.03 c 22.726,-2.8 45.32,-9 67.082,-18.83 h 0.136 c 0.66,-0.3 1.313,-0.64 1.973,-0.94 1.133,-0.53 2.262,-1.07 3.387,-1.6 3.05,-1.47 6.093,-3 9.105,-4.6 v 0 l 0.035,-0.03 c 2.992,-1.61 5.926,-3.3 8.828,-5.04 0.961,-0.57 1.911,-1.17 2.852,-1.73 1.984,-1.23 3.945,-2.47 5.879,-3.77 1.043,-0.67 2.09,-1.33 3.117,-2.03 2.453,-1.67 4.883,-3.4 7.258,-5.17 1.492,-1.1 2.945,-2.24 4.402,-3.37 1.008,-0.77 2.016,-1.57 3.008,-2.36 1.66,-1.3 3.297,-2.67 4.91,-4.04 0.485,-0.4 0.957,-0.83 1.442,-1.23 33.14,-28.58 57.593,-66.04 70.484,-109.05 17.832,-59.492 11.473,-122.281 -17.906,-176.812 z m 41.093,183.762 c -19.695,65.69 -63.699,119.73 -123.914,152.18 -124.492,67.08 -280.347,20.34 -347.421,-104.14 -32.442,-60.22 -39.465,-129.56 -19.774,-195.251 19.688,-65.691 63.695,-119.731 123.91,-152.176 38.586,-20.789 80.18,-30.644 121.211,-30.644 91.36,0 179.93,48.875 226.211,134.785 32.442,60.215 39.469,129.558 19.777,195.246" /><path
         id="path98"
         style="fill:#293d63;fill-opacity:1;fill-rule:nonzero;stroke:none"
         d="m 632.707,734.742 c -1.797,0.809 -3.59,1.656 -5.379,2.52 1.789,-0.864 3.582,-1.711 5.379,-2.52" /><path
         id="path100"
         style="fill:#293d63;fill-opacity:1;fill-rule:nonzero;stroke:none"
         d="m 749.785,1177.7 c 0.43,-0.03 0.86,-0.1 1.281,-0.13 -0.421,0.03 -0.851,0.1 -1.281,0.13" /><path
         id="path102"
         style="fill:#293d63;fill-opacity:1;fill-rule:nonzero;stroke:none"
         d="m 681.152,1173.8 c 1.555,0.33 3.121,0.63 4.692,0.9 -1.571,-0.27 -3.129,-0.57 -4.692,-0.9" /><path
         id="path104"
         style="fill:#293d63;fill-opacity:1;fill-rule:nonzero;stroke:none"
         d="m 691.668,1175.73 c 1.531,0.23 3.062,0.47 4.602,0.67 -1.54,-0.2 -3.071,-0.44 -4.602,-0.67" /><path
         id="path106"
         style="fill:#293d63;fill-opacity:1;fill-rule:nonzero;stroke:none"
         d="m 605.008,749.59 c -2.594,1.621 -5.176,3.254 -7.684,4.965 2.516,-1.711 5.09,-3.348 7.684,-4.965" /><path
         id="path108"
         style="fill:#293d63;fill-opacity:1;fill-rule:nonzero;stroke:none"
         d="m 607.473,748.02 c 3.429,-2.079 6.91,-4.086 10.465,-6 2.414,-1.301 4.847,-2.543 7.285,-3.75 -2.442,1.207 -4.871,2.449 -7.285,3.75 -3.563,1.918 -7.047,3.925 -10.465,6" /><path
         id="path110"
         style="fill:#293d63;fill-opacity:1;fill-rule:nonzero;stroke:none"
         d="m 595.078,756.145 c -2.574,1.793 -5.125,3.609 -7.605,5.496 2.488,-1.891 5.035,-3.707 7.605,-5.496" /><path
         id="path112"
         style="fill:#293d63;fill-opacity:1;fill-rule:nonzero;stroke:none"
         d="m 585.902,762.871 c -2.695,2.086 -5.355,4.203 -7.933,6.395 2.59,-2.192 5.238,-4.313 7.933,-6.395" /><path
         id="path114"
         style="fill:#293d63;fill-opacity:1;fill-rule:nonzero;stroke:none"
         d="m 670.773,1171.4 c 1.579,0.4 3.165,0.77 4.75,1.13 -1.585,-0.36 -3.171,-0.73 -4.75,-1.13" /><path
         id="path116"
         style="fill:#293d63;fill-opacity:1;fill-rule:nonzero;stroke:none"
         d="m 713.277,1178.13 c 1.364,0.1 2.719,0.2 4.082,0.27 -1.363,-0.07 -2.718,-0.17 -4.082,-0.27" /><path
         id="path118"
         style="fill:#293d63;fill-opacity:1;fill-rule:nonzero;stroke:none"
         d="m 737.695,1178.5 c 0.785,-0.04 1.571,-0.07 2.356,-0.13 -0.785,0.06 -1.571,0.09 -2.356,0.13" /><path
         id="path120"
         style="fill:#293d63;fill-opacity:1;fill-rule:nonzero;stroke:none"
         d="m 784.68,721.375 c -2.641,-0.664 -5.293,-1.285 -7.957,-1.855 2.664,0.574 5.316,1.191 7.957,1.855" /><path
         id="path122"
         style="fill:#293d63;fill-opacity:1;fill-rule:nonzero;stroke:none"
         d="m 660.547,1168.56 c 1.586,0.47 3.187,0.9 4.785,1.37 -1.598,-0.47 -3.199,-0.9 -4.785,-1.37" /><path
         id="path124"
         style="fill:#293d63;fill-opacity:1;fill-rule:nonzero;stroke:none"
         d="m 932.555,836.328 c -2.418,-4.488 -5.008,-8.824 -7.672,-13.082 16.426,86.926 -4.633,162.699 -15.781,194.254 12.761,0.68 26.304,0.1 40.597,-2.06 0.242,-0.78 0.52,-1.53 0.75,-2.3 17.836,-59.499 11.481,-122.292 -17.894,-176.812 z m -45.614,-59.203 c -20.328,-19.035 -43.699,-34.039 -68.863,-44.59 58.024,122.586 22.559,228.43 8.637,261.203 16.293,8.992 35.527,16.732 57.613,20.872 10.887,-29.434 42.391,-131.419 2.613,-237.485 z m -137.82,184.109 c -25.281,11.407 -48.687,27.961 -69.508,46.286 10.071,11.14 30.508,31.43 59.684,49.01 55.242,33.32 114.789,41.99 177.051,25.98 9.261,-12.88 17.195,-26.75 23.711,-41.44 -105.106,9.88 -171.235,-56.574 -190.938,-79.836 z M 726.445,783.012 c -145,15.144 -219.441,138.488 -230.429,158.168 -0.688,27.98 3.621,56.343 13.457,83.7 24.777,-45.915 91.277,-141.939 230.164,-184.786 -2.407,-18.242 -6.473,-38.184 -13.192,-57.082 z m 153.532,339.178 c 3.75,-3.27 7.402,-6.6 10.933,-10.04 -71.191,9.47 -127.972,-12.94 -164.953,-35.41 -31.144,-18.9 -52.844,-40.25 -64.055,-52.67 -17.039,16.87 -31.886,34.31 -44.058,50 12.34,12.01 98.008,90.93 205.801,84.03 -21.762,9.83 -44.356,16.03 -67.082,18.83 -79.407,-17.3 -137.231,-67.91 -153.297,-83.25 -11.782,16.57 -19.286,28.97 -21.664,32.97 2.039,1.67 4.125,3.27 6.214,4.84 -8.609,-6.5 -16.812,-13.64 -24.519,-21.41 6.973,-11.47 23.851,-37.77 48.664,-67.45 41.894,-50.118 85.441,-85.243 129.547,-104.525 1.078,-12.511 2.828,-40.667 0.57,-73.378 -149.109,48.14 -208.582,164.193 -219.851,189.143 0.48,0.92 0.91,1.86 1.402,2.77 l 0.051,0.09 -0.051,-0.09 c -29.379,-54.53 -35.734,-117.324 -17.906,-176.812 13.019,-43.43 37.82,-81.199 71.457,-109.879 -36.203,30.957 -61.223,71.801 -73.196,116.235 8.782,-11.157 19.465,-23.454 32.149,-35.934 36.551,-35.953 96.722,-79.598 180.273,-90.449 -8.504,-16.274 -19.676,-30.656 -34.355,-40.946 -10.867,2.192 -21.656,5.18 -32.301,8.993 25.492,-9.153 51.844,-13.582 77.953,-13.582 16.375,0 32.641,1.765 48.535,5.144 -20.285,-4.308 -41.179,-5.914 -62.117,-4.691 63.305,66.484 54.027,200.129 51.277,228.226 5.547,6.879 19.231,22.426 40.418,37.594 13.782,-35.25 45.153,-141.867 -20.711,-259.055 60.883,15.457 115.375,55.317 147.45,114.844 29.379,54.531 35.738,117.32 17.906,176.812 -12.891,43.01 -37.344,80.47 -70.484,109.05" /><path
         id="path126"
         style="fill:#293d63;fill-opacity:1;fill-rule:nonzero;stroke:none"
         d="m 724.852,1178.63 c 1.046,0 2.089,0.07 3.136,0.07 -1.047,0 -2.09,-0.07 -3.136,-0.07" /><path
         id="path128"
         style="fill:#293d63;fill-opacity:1;fill-rule:nonzero;stroke:none"
         d="m 648.996,728.129 c -2.226,0.801 -4.441,1.648 -6.652,2.523 2.211,-0.879 4.426,-1.714 6.652,-2.523" /><path
         id="path130"
         style="fill:#293d63;fill-opacity:1;fill-rule:nonzero;stroke:none"
         d="m 616.633,1150.09 c 1.883,1.04 3.773,2.04 5.683,3 -1.91,-0.96 -3.8,-1.96 -5.683,-3" /><path
         id="path132"
         style="fill:#293d63;fill-opacity:1;fill-rule:nonzero;stroke:none"
         d="m 702.355,1177.17 c 1.477,0.17 2.946,0.33 4.422,0.5 -1.476,-0.17 -2.945,-0.33 -4.422,-0.5" /><path
         id="path134"
         style="fill:#293d63;fill-opacity:1;fill-rule:nonzero;stroke:none"
         d="m 640.512,731.395 c -1.864,0.761 -3.719,1.55 -5.574,2.359 1.855,-0.809 3.71,-1.598 5.574,-2.359" /><path
         id="path136"
         style="fill:#293d63;fill-opacity:1;fill-rule:nonzero;stroke:none"
         d="m 589.934,1133.09 c 1.921,1.43 3.875,2.8 5.836,4.13 -1.961,-1.33 -3.915,-2.7 -5.836,-4.13" /><path
         id="path138"
         style="fill:#293d63;fill-opacity:1;fill-rule:nonzero;stroke:none"
         d="m 625.984,1154.93 c 1.899,0.93 3.793,1.83 5.707,2.73 -1.914,-0.9 -3.808,-1.8 -5.707,-2.73" /><path
         id="path140"
         style="fill:#293d63;fill-opacity:1;fill-rule:nonzero;stroke:none"
         d="m 873.625,1127.46 c 1.656,-1.3 3.297,-2.67 4.91,-4.04 -1.613,1.37 -3.25,2.74 -4.91,4.04" /><path
         id="path142"
         style="fill:#293d63;fill-opacity:1;fill-rule:nonzero;stroke:none"
         d="m 598.59,1139.19 c 1.883,1.24 3.793,2.47 5.711,3.67 -1.918,-1.2 -3.828,-2.43 -5.711,-3.67" /><path
         id="path144"
         style="fill:#293d63;fill-opacity:1;fill-rule:nonzero;stroke:none"
         d="m 866.215,1133.19 c 1.488,-1.1 2.945,-2.24 4.402,-3.37 -1.457,1.13 -2.91,2.27 -4.402,3.37" /><path
         id="path146"
         style="fill:#293d63;fill-opacity:1;fill-rule:nonzero;stroke:none"
         d="m 847.109,1145.89 c 0.961,-0.57 1.911,-1.17 2.852,-1.73 -0.941,0.56 -1.891,1.16 -2.852,1.73" /><path
         id="path148"
         style="fill:#293d63;fill-opacity:1;fill-rule:nonzero;stroke:none"
         d="m 855.84,1140.39 c 1.039,-0.67 2.09,-1.33 3.117,-2.03 -1.027,0.7 -2.074,1.36 -3.117,2.03" /><path
         id="path150"
         style="fill:#293d63;fill-opacity:1;fill-rule:nonzero;stroke:none"
         d="m 528.887,1065.83 c 0.547,0.92 1.113,1.83 1.676,2.74 -0.563,-0.91 -1.129,-1.82 -1.676,-2.74" /><path
         id="path152"
         style="fill:#293d63;fill-opacity:1;fill-rule:nonzero;stroke:none"
         d="m 607.5,1144.86 c 1.871,1.13 3.766,2.23 5.668,3.3 -1.902,-1.07 -3.793,-2.17 -5.668,-3.3" /><path
         id="path154"
         style="fill:#293d63;fill-opacity:1;fill-rule:nonzero;stroke:none"
         d="m 534.781,1075.14 c 0.559,0.84 1.106,1.7 1.68,2.54 -0.574,-0.84 -1.121,-1.7 -1.68,-2.54" /><path
         id="path156"
         style="fill:#293d63;fill-opacity:1;fill-rule:nonzero;stroke:none"
         d="m 645.168,1163.23 c 3.348,1.3 6.723,2.5 10.129,3.63 -3.406,-1.13 -6.781,-2.33 -10.129,-3.63" /><path
         id="path158"
         style="fill:#293d63;fill-opacity:1;fill-rule:nonzero;stroke:none"
         d="m 825.754,1157.16 c 1.133,-0.53 2.262,-1.07 3.387,-1.6 -1.125,0.53 -2.254,1.07 -3.387,1.6" /><path
         id="path160"
         style="fill:#293d63;fill-opacity:1;fill-rule:nonzero;stroke:none"
         d="m 542.145,1085.61 c 0.757,1.03 1.543,2.03 2.32,3.04 -0.777,-1.01 -1.563,-2.01 -2.32,-3.04" /><path
         id="path162"
         style="fill:#293d63;fill-opacity:1;fill-rule:nonzero;stroke:none"
         d="m 548.387,1093.58 c 0.961,1.17 1.922,2.33 2.902,3.47 -0.98,-1.14 -1.945,-2.3 -2.902,-3.47" /><path
         id="path164"
         style="fill:#293d63;fill-opacity:1;fill-rule:nonzero;stroke:none"
         d="m 838.281,1150.93 -0.035,0.03 v 0 l 0.035,-0.03" /><path
         id="path166"
         style="fill:#293d63;fill-opacity:1;fill-rule:nonzero;stroke:none"
         d="m 635.527,1159.33 c 1.914,0.8 3.821,1.67 5.754,2.43 -1.933,-0.76 -3.84,-1.63 -5.754,-2.43" /><path
         id="path168"
         style="fill:#293d63;fill-opacity:1;fill-rule:nonzero;stroke:none"
         d="m 555.359,1101.68 c 1.555,1.73 3.133,3.44 4.731,5.1 -1.598,-1.66 -3.176,-3.37 -4.731,-5.1" /><path
         id="path170"
         style="fill:#293d63;fill-opacity:1;fill-rule:nonzero;stroke:none"
         d="M 4.89063,894.359 V 727.582 L 20.4766,724.859 C 34.9063,624.594 49.7461,528.18 64.6484,437.926 l 6.0664,-36.715 35.5902,10.879 c 11.402,3.484 23.008,6.93 34.508,10.242 l 19.902,5.734 142.566,34.887 38.602,7.27 c 39.101,7.367 78.797,13.695 117.988,18.804 l 3.27,0.422 3.945,0.496 c 39.125,4.965 78.859,8.848 118.086,11.555 l 2.621,0.176 3.699,0.246 c 27.113,1.785 54.633,3.039 81.797,3.738 10.895,0.278 21.949,0.477 32.848,0.578 l 21.758,0.211 21.589,-0.25 c 22.282,-0.261 44.871,-0.894 67.145,-1.879 l 20.973,-0.929 21.472,-1.399 c 5.223,-0.34 10.449,-0.699 15.656,-1.082 17.071,-1.246 34.387,-2.722 51.465,-4.398 10.883,-1.067 21.95,-2.242 32.899,-3.492 2.023,-0.247 4.074,-0.375 6.101,-0.375 1.582,0 3.133,0.097 4.672,0.238 v -0.926 l 28.266,-3.773 c 22.247,-2.961 44.807,-6.348 67.077,-10.055 l 14.18,-2.359 13.72,-2.477 c 22.27,-4.012 44.82,-8.449 67.02,-13.184 l 2.1,-0.449 2.74,-0.59 c 39.11,-8.433 78.7,-18.132 117.66,-28.808 l 3.62,-1 c 39.08,-10.778 78.65,-22.856 117.59,-35.899 l 42.92,-14.367 v 245.91 l -30.22,2.18 c -11.09,0.797 -22.17,1.582 -33.25,2.344 l -5.84,0.394 v 86.125 l 17.86,2.895 v 158.879 l -44.16,-11.532 C 917.176,748.035 524.625,738.695 74.9844,875.012 L 4.89063,894.359" /><path
         id="path172"
         style="fill:#ffffff;fill-opacity:1;fill-rule:nonzero;stroke:none"
         d="m 124.461,740.707 c 4.262,-0.652 8.523,-1.297 12.789,-1.934 -7.484,-52.453 -14.965,-106.726 -22.445,-162.933 -8.098,54.633 -16.1956,111.324 -24.2933,170.191 4.8985,-0.789 9.8013,-1.57 14.7033,-2.343 0,28.445 0,56.894 0,85.339 -22.5978,6.532 -45.1877,13.422 -67.7541,20.664 0,-31.574 0,-63.156 0,-94.734 3.9961,-0.703 7.9883,-1.398 11.9883,-2.082 v -0.582 C 65.2188,641.574 81,538.832 96.7852,443.234 c 11.6638,3.563 23.3358,7.028 35.0078,10.391 15.832,99.891 31.672,192.641 47.52,279.102 4.339,-0.606 8.675,-1.196 13.019,-1.782 0,24.899 0,49.801 0,74.703 -22.641,5.614 -45.266,11.582 -67.871,17.907 0,-27.614 0,-55.231 0,-82.848" /><path
         id="path174"
         style="fill:#ffffff;fill-opacity:1;fill-rule:nonzero;stroke:none"
         d="m 589.359,746.535 c 0,-17.492 0,-34.98 0,-52.476 5.082,-0.161 10.164,-0.317 15.246,-0.465 0,-35.406 0,-70.813 0,-106.215 -5.082,-0.149 -10.164,-0.313 -15.246,-0.484 0,-17.489 0,-34.981 0,-52.477 27.692,1.82 55.391,3.09 83.094,3.797 11.121,0.285 22.246,0.484 33.367,0.594 0,16.773 0,33.55 0,50.324 0,5.512 0,11.027 0,16.543 -11.121,-0.035 -22.246,-0.106 -33.367,-0.207 0,-5.543 0,-11.094 0,-16.637 -11.496,-0.152 -22.992,-0.352 -34.48,-0.598 0,10.149 0,20.293 0,30.438 11.675,0.105 23.351,0.191 35.035,0.262 0,15.004 0,30.007 0,45.011 -11.684,0.063 -23.36,0.153 -35.035,0.262 0,9.52 0,19.039 0,28.563 11.488,-0.239 22.984,-0.43 34.48,-0.579 0,-5.546 0,-11.089 0,-16.64 11.121,-0.094 22.246,-0.156 33.367,-0.192 0,5.516 0,11.028 0,16.539 0,16.778 0,33.551 0,50.329 -11.121,0.101 -22.246,0.296 -33.367,0.578 -27.703,0.699 -55.402,1.941 -83.094,3.73" /><path
         id="path176"
         style="fill:#ffffff;fill-opacity:1;fill-rule:nonzero;stroke:none"
         d="m 422.336,571.113 c -12.117,-1.004 -24.238,-2.062 -36.352,-3.183 0,47.273 0,94.543 0,141.812 5.981,-0.512 11.965,-1.012 17.946,-1.5 0,18.539 0,37.074 0,55.617 -22.7,3.383 -45.399,7.133 -68.082,11.235 0,-20.242 0,-40.477 0,-60.719 5.609,-0.555 11.222,-1.098 16.832,-1.629 0,-49.348 0,-98.695 0,-148.047 -5.61,-0.574 -11.223,-1.152 -16.832,-1.75 0,-20.238 0,-40.48 0,-60.722 39.914,7.523 79.851,13.882 119.816,19.089 0,4.125 0,8.247 0,12.372 0,13.339 0,26.679 0,40.023 0,13.941 0,27.883 0,41.816 -11.113,-0.308 -22.223,-0.644 -33.328,-0.992 0,-14.476 0,-28.949 0,-43.422" /><path
         id="path178"
         style="fill:#ffffff;fill-opacity:1;fill-rule:nonzero;stroke:none"
         d="m 549.578,579.406 c -12.129,-0.582 -24.258,-1.218 -36.387,-1.918 0,41.121 0,82.25 0,123.375 5.981,-0.324 11.969,-0.633 17.961,-0.925 0,16.23 0,32.468 0,48.703 -22.726,2.047 -45.449,4.457 -68.16,7.214 0,-17.324 0,-34.648 0,-51.98 5.613,-0.375 11.235,-0.734 16.852,-1.082 0.004,-42.461 0.004,-84.926 0,-127.383 -5.614,-0.379 -11.231,-0.769 -16.852,-1.168 0,-17.328 0,-34.656 0,-51.984 39.965,5.066 79.949,8.972 119.946,11.726 0,3.692 0,7.379 0,11.063 0,11.937 0,23.875 0,35.808 0,12.469 0,24.938 0,37.403 -11.122,-0.16 -22.243,-0.348 -33.36,-0.551 0,-12.766 0,-25.535 0,-38.301" /><path
         id="path180"
         style="fill:#ffffff;fill-opacity:1;fill-rule:nonzero;stroke:none"
         d="m 788.117,699.742 c 3.832,0.067 7.66,0.133 11.492,0.211 -4.836,-10.93 -9.671,-21.793 -14.504,-32.609 -0.804,-0.004 -1.605,-0.012 -2.402,-0.016 -4.84,10.742 -9.672,21.445 -14.508,32.129 3.969,0.043 7.938,0.102 11.903,0.156 0,15.012 0,30.024 0,45.032 -22.739,-0.594 -45.477,-0.813 -68.215,-0.665 0,-14.91 0,-29.828 0,-44.738 4.558,-0.019 9.121,-0.027 13.68,-0.027 13.628,-30.152 27.261,-60.227 40.89,-90.574 0,-8.411 0,-16.825 0,-25.243 -5.531,0.063 -11.058,0.114 -16.594,0.149 0,-14.926 0,-29.856 0,-44.785 22.739,-0.262 45.481,-0.899 68.215,-1.91 0,15.207 0,30.414 0,45.617 -5.222,0.133 -10.445,0.25 -15.672,0.359 0,9.285 0,18.567 0,27.852 13.282,29.633 26.555,59.648 39.836,90.375 4.696,0.148 9.391,0.304 14.086,0.472 0,15.508 0,31.008 0,46.508 -22.734,-1.426 -45.469,-2.484 -68.207,-3.164 0,-15.043 0,-30.086 0,-45.129" /><path
         id="path182"
         style="fill:#ffffff;fill-opacity:1;fill-rule:nonzero;stroke:none"
         d="m 1258.16,545.043 c -12.08,1.758 -24.17,3.457 -36.26,5.094 0,58.715 0,117.433 0,176.152 5.97,0.75 11.94,1.516 17.9,2.293 0,24.184 0,48.363 0,72.547 -22.64,-5.41 -45.3,-10.465 -67.96,-15.16 0,-21.891 0,-43.774 0,-65.66 5.6,0.632 11.21,1.281 16.82,1.937 0,-55.922 0,-111.844 0,-167.762 -5.61,0.711 -11.22,1.399 -16.82,2.082 0,-21.882 0,-43.773 0,-65.66 39.88,-8.601 79.73,-18.359 119.54,-29.273 0,6.172 0,12.344 0,18.515 0,19.973 0,39.946 0,59.915 0,20.871 0,41.734 0,62.597 -11.08,0.656 -22.14,1.293 -33.22,1.906 0,-19.839 0,-39.679 0,-59.523" /><path
         id="path184"
         style="fill:#ffffff;fill-opacity:1;fill-rule:nonzero;stroke:none"
         d="m 1381.05,596.934 c 0,-23.95 0,-47.899 0,-71.848 -12.05,2.164 -24.11,4.269 -36.17,6.312 0,70.766 0,141.54 0,212.309 5.95,0.938 11.91,1.891 17.86,2.859 0,29.168 0,58.336 0,87.508 -22.59,-6.711 -45.2,-13.062 -67.83,-19.058 0,-26.282 0,-52.571 0,-78.852 5.6,0.805 11.2,1.629 16.79,2.465 0,-67.258 0,-134.512 0,-201.762 -5.59,0.891 -11.19,1.778 -16.79,2.649 0,-26.286 0,-52.571 0,-78.852 39.81,-10.988 79.57,-23.125 119.28,-36.422 0,7.457 0,14.91 0,22.367 0,24.125 0,48.25 0,72.375 0,25.207 0,50.414 0,75.618 -11.05,0.8 -22.09,1.578 -33.14,2.332" /><path
         id="path186"
         style="fill:#ffffff;fill-opacity:1;fill-rule:nonzero;stroke:none"
         d="m 1092.23,643.402 c -2.63,-0.004 -5.25,-0.007 -7.87,-0.019 -2.63,0 -5.25,-0.012 -7.88,-0.02 -3.23,0.008 -5.41,6.446 -4.09,12.188 1.53,6.648 3.06,13.336 4.58,20.066 1.1,4.848 2.19,9.711 3.29,14.598 1.58,7.015 6.6,7.414 8.18,0.523 1.1,-4.8 2.2,-9.621 3.29,-14.461 1.53,-6.718 3.06,-13.48 4.58,-20.281 1.32,-5.902 -0.85,-12.594 -4.08,-12.594 z m 13.09,132.797 v 0 c -22.68,-4.086 -45.38,-7.801 -68.08,-11.148 0,-18.309 0,-36.613 0,-54.918 4.3,0.351 8.6,0.711 12.9,1.078 -11.19,-48.25 -22.38,-94.5 -33.57,-139.07 -4.71,0.371 -9.42,0.734 -14.13,1.089 0,-17.585 0,-35.175 0,-52.765 22.71,-3.027 45.42,-6.434 68.11,-10.207 0,19.07 0,38.144 0,57.219 -3.56,0.328 -7.13,0.66 -10.7,0.984 1.17,7.082 2.35,14.195 3.53,21.344 14.47,-0.942 28.95,-1.942 43.42,-2.996 1.61,-7.754 3.22,-15.563 4.84,-23.418 -4.25,0.445 -8.5,0.882 -12.75,1.316 0,-19.789 0,-39.574 0,-59.363 22.68,-4.09 45.36,-8.551 68.04,-13.383 0,21.73 0,43.469 0,65.203 -4.02,0.477 -8.04,0.953 -12.06,1.426 -16.51,77.637 -33.03,149.863 -49.55,217.609" /><path
         id="path188"
         style="fill:#ffffff;fill-opacity:1;fill-rule:nonzero;stroke:none"
         d="m 959.402,596.617 c -0.004,-11.769 -5.797,-20.988 -12.886,-20.535 -9.789,0.598 -19.582,1.152 -29.379,1.672 -1.942,0.101 -3.504,3.016 -3.508,6.496 0,10.227 0,20.453 0,30.68 0,3.488 1.566,6.285 3.508,6.258 9.797,-0.161 19.59,-0.344 29.379,-0.528 7.093,-0.109 12.886,-9.84 12.886,-21.597 0,-0.817 0,-1.629 0,-2.446 z m -45.773,98.625 c 0,2.91 1.445,5.34 3.226,5.418 9.008,0.445 18.012,0.918 27.02,1.418 6.516,0.375 11.848,-7.269 11.848,-17.035 0,-0.68 0,-1.355 0,-2.035 0,-9.758 -5.332,-17.867 -11.848,-17.985 -9.008,-0.191 -18.016,-0.378 -27.02,-0.55 -1.773,-0.032 -3.226,2.289 -3.226,5.203 0,8.523 0,17.039 0,25.566 z m 66.715,-49.722 c 8.476,10.406 14.054,27.98 14.054,47.601 0,2.227 0,4.457 0,6.68 -0.003,32.246 -14.851,56.531 -33.011,54.324 -10.668,-1.184 -21.34,-2.277 -32.016,-3.301 -22.723,-2.164 -45.453,-3.972 -68.18,-5.414 0,-15.543 0,-31.094 0,-46.644 5.301,0.187 10.606,0.382 15.907,0.589 0,-15.277 0,-30.554 0,-45.832 0,-5.988 0,-11.984 0,-17.976 0,-18.34 0,-36.688 0,-55.027 -5.301,0.218 -10.606,0.421 -15.907,0.617 0,-15.551 0,-31.098 0,-46.645 5.301,-0.351 10.606,-0.715 15.907,-1.101 17.425,-1.27 34.851,-2.758 52.273,-4.469 11.188,-1.094 22.375,-2.285 33.563,-3.563 18.484,-2.332 33.605,24.079 33.609,59.082 0,2.414 0,4.832 0,7.247 0,22.832 -6.512,42.988 -16.199,53.832" /><path
         id="path190"
         style="fill:#ffffff;fill-opacity:1;fill-rule:nonzero;stroke:none"
         d="m 259.453,558.723 c -20.293,-2.91 -36.73,33.433 -36.734,81.429 0,48.004 16.437,84.403 36.734,81.559 20.301,-2.801 36.758,-39.148 36.758,-81.43 0.004,-42.293 -16.461,-78.683 -36.758,-81.558 z m 0.735,231.187 c -40.793,10.649 -73.817,-56.566 -73.817,-152.031 0.004,-95.473 33.024,-162.32 73.817,-151.297 40.796,10.734 73.898,77.887 73.902,151.977 0.008,74.093 -33.102,141.004 -73.902,151.351" /><path
         id="path192"
         style="fill:#e2e2e2;fill-opacity:1;fill-rule:nonzero;stroke:none"
         d="m 131.793,453.625 c 8.602,54.27 17.207,106.41 25.812,156.602 -13.05,-1.477 -25.988,-3 -38.804,-4.582 -1.332,-9.879 -2.664,-19.805 -3.996,-29.805 -1.41,9.519 -2.825,19.133 -4.235,28.777 -12.9919,-1.633 -25.8591,-3.316 -38.5973,-5.051 8.2695,-54.148 16.539,-106.23 24.8125,-156.332 11.6638,3.563 23.3358,7.028 35.0078,10.391" /><path
         id="path194"
         style="fill:#e2e2e2;fill-opacity:1;fill-rule:nonzero;stroke:none"
         d="m 589.359,586.895 c 0,-17.489 0,-34.981 0,-52.477 27.692,1.82 55.391,3.09 83.094,3.797 11.121,0.285 22.246,0.484 33.367,0.594 0,16.773 0,33.55 0,50.324 0,5.512 0,11.027 0,16.543 -11.121,-0.035 -22.246,-0.106 -33.367,-0.207 0,-5.543 0,-11.094 0,-16.637 -11.496,-0.152 -22.992,-0.352 -34.48,-0.598 0,10.149 0,20.293 0,30.438 11.675,0.105 23.351,0.199 35.027,0.262 0,6.418 0,12.843 0,19.261 -22.941,-0.019 -45.746,-0.195 -68.395,-0.523 0,-16.762 0,-33.527 0,-50.293 -5.082,-0.149 -10.164,-0.313 -15.246,-0.484" /><path
         id="path196"
         style="fill:#e2e2e2;fill-opacity:1;fill-rule:nonzero;stroke:none"
         d="m 335.848,562.949 c 0,-20.238 0,-40.48 0,-60.719 39.914,7.52 79.851,13.879 119.816,19.086 0,4.125 0,8.247 0,12.372 0,13.339 0,26.679 0,40.023 0,13.941 0,27.883 0,41.816 -11.113,-0.316 -22.223,-0.644 -33.328,-0.992 0,-14.476 0,-28.949 0,-43.422 -12.117,-1.004 -24.238,-2.062 -36.352,-3.183 0,20.593 0,41.183 0,61.773 -11.16,-0.656 -22.257,-1.359 -33.304,-2.094 0,-20.972 0,-41.941 0,-62.91 -5.61,-0.574 -11.223,-1.152 -16.832,-1.75" /><path
         id="path198"
         style="fill:#e2e2e2;fill-opacity:1;fill-rule:nonzero;stroke:none"
         d="m 462.992,574.242 c 0,-17.328 0,-34.656 0,-51.984 39.965,5.066 79.949,8.972 119.946,11.726 0,3.692 0,7.379 0,11.063 0,11.937 0,23.875 0,35.808 0,12.469 0,24.938 0,37.403 -11.122,-0.16 -22.243,-0.348 -33.36,-0.551 0,-12.766 0,-25.535 0,-38.301 -12.129,-0.582 -24.258,-1.218 -36.387,-1.918 0,19.344 0,38.696 0,58.047 -11.16,-0.367 -22.277,-0.769 -33.347,-1.207 0,-19.64 0,-39.281 0,-58.918 -5.614,-0.379 -11.231,-0.769 -16.852,-1.168" /><path
         id="path200"
         style="fill:#e2e2e2;fill-opacity:1;fill-rule:nonzero;stroke:none"
         d="m 766.453,583.398 c -5.531,0.063 -11.058,0.114 -16.594,0.149 0,-14.93 0,-29.856 0,-44.785 22.739,-0.262 45.481,-0.899 68.215,-1.903 0,15.2 0,30.411 0,45.61 -5.222,0.133 -10.445,0.25 -15.672,0.359 0,9.285 0,18.567 0,27.852 3.825,8.531 7.649,17.109 11.473,25.715 -20.031,0.535 -40.203,0.953 -60.496,1.25 4.363,-9.657 8.719,-19.301 13.074,-29.004 0,-8.411 0,-16.825 0,-25.243" /><path
         id="path202"
         style="fill:#e2e2e2;fill-opacity:1;fill-rule:nonzero;stroke:none"
         d="m 1171.84,556.566 c 0,-21.882 0,-43.773 0,-65.66 39.88,-8.601 79.73,-18.359 119.54,-29.273 0,6.172 0,12.344 0,18.515 0,19.973 0,39.946 0,59.915 0,19.507 0,43.097 0,62.597 -10.98,1.524 -22.06,0.465 -33.22,1.906 0,-19.324 0,-40.195 0,-59.523 -12.08,1.758 -24.16,3.457 -36.26,5.094 0,19.125 0,38.254 0,57.383 -11,1.308 -22.08,2.578 -33.24,3.808 0,-18.945 0,-37.898 0,-56.844 -5.61,0.711 -11.22,1.399 -16.82,2.082" /><path
         id="path204"
         style="fill:#e2e2e2;fill-opacity:1;fill-rule:nonzero;stroke:none"
         d="m 1294.91,539.516 c 0,-26.286 0,-52.571 0,-78.852 39.81,-10.988 79.57,-23.125 119.28,-36.422 0,7.457 0,14.91 0,22.367 0,24.125 0,48.25 0,72.375 0,20.082 0,55.539 0,75.618 -10.92,1.945 -21.98,0.472 -33.14,2.332 0,-19.946 0,-51.903 0,-71.852 -12.05,2.168 -24.11,4.27 -36.17,6.313 0,19.781 0,45.761 0,65.539 -10.96,1.695 -22.02,2.699 -33.18,4.312 0,-19.613 0,-44.769 0,-64.379 -5.59,0.891 -11.19,1.778 -16.79,2.649" /><path
         id="path206"
         style="fill:#e2e2e2;fill-opacity:1;fill-rule:nonzero;stroke:none"
         d="m 1002.44,573.23 c 0,-17.585 0,-35.175 0,-52.765 22.71,-3.027 45.42,-6.434 68.11,-10.207 0,19.07 0,38.144 0,57.219 -3.56,0.328 -7.13,0.66 -10.7,0.984 1.17,7.082 2.35,14.195 3.53,21.344 14.47,-0.942 28.95,-1.942 43.42,-2.996 1.61,-7.754 3.22,-15.563 4.84,-23.418 -4.25,0.441 -8.5,0.882 -12.75,1.316 0,-19.789 0,-39.574 0,-59.363 22.68,-4.09 45.36,-8.551 68.04,-13.383 0,21.73 0,43.469 0,65.203 -4.02,0.477 -8.04,0.957 -12.06,1.426 -4.15,19.527 -8.31,38.715 -12.46,57.574 -36.75,3.633 -74.3,6.844 -112.58,9.617 -4.42,-18.152 -8.84,-36.035 -13.26,-53.64 -4.71,0.371 -9.42,0.734 -14.13,1.089" /><path
         id="path208"
         style="fill:#e2e2e2;fill-opacity:1;fill-rule:nonzero;stroke:none"
         d="m 913.629,614.93 c 0,3.488 1.566,6.285 3.508,6.258 9.797,-0.161 19.59,-0.344 29.379,-0.528 7.093,-0.109 12.886,-9.84 12.886,-21.597 0,-0.817 0,-1.629 0,-2.446 -0.004,-11.769 -5.797,-20.988 -12.886,-20.535 -9.789,0.598 -19.582,1.152 -29.379,1.672 -1.942,0.101 -3.504,3.016 -3.508,6.496 0,10.227 0,20.453 0,30.68 z m -52.438,-33.793 c 0,-15.551 0,-31.098 0,-46.645 5.301,-0.351 10.606,-0.715 15.907,-1.101 17.425,-1.27 34.851,-2.758 52.273,-4.469 11.188,-1.094 22.375,-2.285 33.555,-3.563 18.492,-2.332 33.613,24.079 33.617,59.082 0,2.414 0,4.832 0,7.247 0,13.71 -2.363,26.437 -6.336,36.785 -37.098,2.355 -74.824,4.304 -113.109,5.824 0,-17.926 0,-35.856 0,-53.777 -5.301,0.218 -10.606,0.421 -15.907,0.617" /><path
         id="path210"
         style="fill:#e2e2e2;fill-opacity:1;fill-rule:nonzero;stroke:none"
         d="m 260.188,486.582 c 38.531,10.137 70.187,70.609 73.585,139.727 -12.898,-0.914 -25.718,-1.871 -38.453,-2.883 -3.664,-34.711 -18.328,-62.223 -35.867,-64.703 -16.894,-2.422 -31.109,22.379 -35.402,58.445 -12.395,-1.191 -24.703,-2.43 -36.918,-3.719 5.113,-82.16 35.844,-136.926 73.055,-126.867" /></g></g></svg>