<?xml version="1.0" encoding="UTF-8" standalone="no"?>
<svg
   xmlns:dc="http://purl.org/dc/elements/1.1/"
   xmlns:cc="http://creativecommons.org/ns#"
   xmlns:rdf="http://www.w3.org/1999/02/22-rdf-syntax-ns#"
   xmlns:svg="http://www.w3.org/2000/svg"
   xmlns="http://www.w3.org/2000/svg"
   xmlns:sodipodi="http://sodipodi.sourceforge.net/DTD/sodipodi-0.dtd"
   xmlns:inkscape="http://www.inkscape.org/namespaces/inkscape"
   viewBox="0 0 256.75998 106.71653"
   height="106.71653"
   width="256.75998"
   xml:space="preserve"
   id="svg2"
   version="1.1"
   sodipodi:docname="amazing.svg"
   inkscape:version="0.92.3 (2405546, 2018-03-11)"><sodipodi:namedview
     pagecolor="#ffffff"
     bordercolor="#666666"
     borderopacity="1"
     objecttolerance="10"
     gridtolerance="10"
     guidetolerance="10"
     inkscape:pageopacity="0"
     inkscape:pageshadow="2"
     inkscape:window-width="1920"
     inkscape:window-height="996"
     id="namedview853"
     showgrid="false"
     inkscape:zoom="2.38396"
     inkscape:cx="167.22232"
     inkscape:cy="62.694496"
     inkscape:window-x="-8"
     inkscape:window-y="-8"
     inkscape:window-maximized="1"
     inkscape:current-layer="g10"
     fit-margin-top="0"
     fit-margin-left="0"
     fit-margin-right="0"
     fit-margin-bottom="0" /><metadata
     id="metadata8"><rdf:RDF><cc:Work
         rdf:about=""><dc:format>image/svg+xml</dc:format><dc:type
           rdf:resource="http://purl.org/dc/dcmitype/StillImage" /><dc:title></dc:title></cc:Work></rdf:RDF></metadata><defs
     id="defs6" /><g
     transform="matrix(1.3333333,0,0,-1.3333333,-58.999999,160.17066)"
     id="g10"><g
       transform="scale(0.1)"
       id="g12"><path
         id="path14"
         style="fill:#333333;fill-opacity:1;fill-rule:nonzero;stroke:none"
         d="m 1503.79,400.906 v 49.676 h -86.52 v -49.676 z m 0,68.965 v 312.5 h -86.52 v -312.5 h 86.52"
         inkscape:connector-curvature="0" /><path
         id="path16"
         style="fill:#b0002c;fill-opacity:1;fill-rule:nonzero;stroke:none"
         d="m 957.773,973.93 h -67.289 v 17.902 c 0,20.648 2.125,36.558 6.305,47.808 4.18,11.18 12.664,21.06 25.336,29.63 12.672,8.57 29.109,12.89 49.406,12.89 24.25,0 42.549,-4.86 54.869,-14.61 12.3,-9.66 19.69,-21.6 22.18,-35.73 2.48,-14.13 3.76,-43.281 3.76,-87.382 V 810.547 H 982.5 v 23.797 c -4.367,-9.598 -10.062,-16.735 -16.969,-21.535 -6.906,-4.797 -15.156,-7.2 -24.797,-7.2 -12.539,0 -24.062,3.977 -34.554,11.934 -10.485,8.023 -15.696,25.445 -15.696,52.402 v 21.95 c 0,19.957 2.789,33.543 8.36,40.808 5.578,7.274 19.406,15.711 41.469,25.313 23.585,10.496 36.187,17.492 37.89,21.129 1.633,3.632 2.485,10.972 2.485,22.155 0,13.92 -0.915,22.97 -2.79,27.23 -1.82,4.18 -4.914,6.31 -9.218,6.31 -4.914,0 -7.938,-1.79 -9.086,-5.35 -1.219,-3.5 -1.821,-12.76 -1.821,-27.65 z m 22.915,-36.559 c -11.579,-9.535 -18.305,-17.492 -20.133,-23.937 -1.875,-6.45 -2.782,-15.641 -2.782,-27.715 0,-13.852 0.782,-22.703 2.422,-26.75 1.586,-4.043 4.789,-6.035 9.578,-6.035 4.555,0 7.454,1.578 8.852,4.734 1.391,3.156 2.063,11.387 2.063,24.828 v 54.875"
         inkscape:connector-curvature="0" /><path
         id="path18"
         style="fill:#b0002c;fill-opacity:1;fill-rule:nonzero;stroke:none"
         d="M 1351.61,1082.5 V 473.371 h -76.72 l -0.21,411.223 -30.48,-411.223 h -53.7 l -32.18,401.981 -0.21,-401.981 h -76.72 V 1082.5 h 113.3 c 3.19,-36.83 6.68,-80.21 10.44,-129.758 l 12.44,-154.656 19.96,284.414 h 114.08"
         inkscape:connector-curvature="0" /><path
         id="path20"
         style="fill:#333333;fill-opacity:1;fill-rule:nonzero;stroke:none"
         d="m 558.477,651.441 h -49.164 v 53.332 c 0,15.536 -0.516,25.18 -1.547,29.063 -1.032,3.82 -3.328,5.762 -6.875,5.762 -3.977,0 -6.524,-2.328 -7.602,-6.989 -1.07,-4.726 -1.633,-14.824 -1.633,-30.359 V 559.723 c 0,-14.953 0.563,-24.66 1.633,-29.258 1.078,-4.527 3.508,-6.797 7.242,-6.797 3.617,0 6,2.27 7.117,6.863 1.11,4.532 1.665,15.278 1.665,32.168 v 38.641 h 49.164 v -11.973 c 0,-31.844 -1.399,-54.433 -4.141,-67.703 -2.742,-13.336 -8.867,-24.984 -18.289,-35.019 -9.469,-10.032 -21.078,-15.012 -34.922,-15.012 -14.359,0 -26.203,4.203 -35.547,12.683 -9.312,8.481 -15.515,20.196 -18.539,35.211 -3.023,15.02 -4.539,37.543 -4.539,67.641 v 89.711 c 0,22.137 0.477,38.703 1.398,49.773 0.954,11.071 3.696,21.746 8.352,31.977 4.617,10.226 11.016,18.316 19.203,24.207 8.195,5.891 17.617,8.801 28.281,8.801 14.438,0 26.368,-4.532 35.797,-13.66 9.383,-9.063 15.547,-20.383 18.532,-33.981 2.937,-13.59 4.414,-34.691 4.414,-63.363 z M 687.492,785.422 V 580.047 c 0,-23.301 -0.476,-39.676 -1.39,-49.063 -0.954,-9.453 -3.696,-19.156 -8.282,-29.062 -4.57,-9.965 -10.617,-17.477 -18.086,-22.59 -7.515,-5.113 -16.343,-7.699 -26.531,-7.699 -11.25,0 -21.203,3.039 -29.781,9.125 -8.641,6.082 -15.07,13.98 -19.328,23.687 -4.297,9.778 -6.813,20.067 -7.602,30.875 -0.758,10.809 -1.148,33.594 -1.148,68.223 v 181.879 h 49.148 V 554.996 c 0,-13.398 0.438,-22.004 1.321,-25.695 0.867,-3.754 2.664,-5.633 5.32,-5.633 3.023,0 5.023,2.07 5.89,6.152 0.875,4.141 1.305,13.848 1.305,29.125 v 226.477 z m 122.852,-93.203 h -45.578 v 22.719 c 0,10.613 -0.594,17.41 -1.75,20.324 -1.149,2.91 -3.063,4.336 -5.758,4.336 -2.953,0 -5.18,-1.942 -6.695,-5.891 -1.5,-3.883 -2.266,-9.773 -2.266,-17.734 0,-10.227 0.883,-17.93 2.594,-23.106 1.672,-5.117 6.281,-11.39 13.875,-18.773 21.757,-21.164 35.476,-38.578 41.125,-52.106 5.679,-13.527 8.515,-35.34 8.515,-65.371 0,-21.879 -1.593,-37.996 -4.734,-48.418 -3.149,-10.355 -9.195,-19.027 -18.219,-26.019 -8.992,-7.055 -19.453,-10.547 -31.414,-10.547 -13.125,0 -24.305,4.074 -33.617,12.164 -9.266,8.094 -15.313,18.387 -18.211,30.879 -2.859,12.554 -4.297,30.355 -4.297,53.332 v 20.129 h 45.578 v -37.348 c 0,-11.523 0.633,-18.898 1.914,-22.199 1.266,-3.301 3.532,-4.922 6.797,-4.922 3.266,0 5.695,2.07 7.274,6.277 1.593,4.149 2.398,10.36 2.398,18.516 0,18.059 -1.516,29.902 -4.547,35.402 -3.133,5.571 -10.765,14.891 -22.937,27.965 -12.172,13.141 -20.203,22.719 -24.188,28.672 -3.937,5.957 -7.234,14.176 -9.812,24.664 -2.594,10.484 -3.899,23.883 -3.899,40.195 0,23.493 1.821,40.711 5.524,51.586 3.695,10.871 9.625,19.352 17.851,25.5 8.235,6.149 18.133,9.192 29.789,9.192 12.735,0 23.547,-3.364 32.539,-10.032 8.946,-6.73 14.868,-15.144 17.774,-25.375 2.906,-10.16 4.375,-27.445 4.375,-51.847 z m 118.398,93.203 V 724.066 H 899.859 V 478.234 h -49.148 v 245.832 h -29.109 v 61.356 z M 1051.88,605.355 c 0,-30.875 -0.44,-52.691 -1.36,-65.503 -0.87,-12.883 -3.65,-24.594 -8.35,-35.211 -4.69,-10.618 -11.06,-18.774 -19.05,-24.469 -8,-5.692 -17.31,-8.539 -27.925,-8.539 -10.101,0 -19.132,2.715 -27.156,8.086 -8.039,5.375 -14.523,13.402 -19.375,24.144 -4.898,10.746 -7.797,22.461 -8.75,35.082 -0.914,12.688 -1.391,34.821 -1.391,66.41 v 52.559 c 0,30.871 0.446,52.688 1.352,65.5 0.875,12.883 3.656,24.598 8.359,35.215 4.688,10.613 11.055,18.769 19.039,24.465 8,5.695 17.305,8.543 27.922,8.543 10.105,0 19.135,-2.719 27.165,-8.09 8.03,-5.375 14.52,-13.399 19.37,-24.141 4.9,-10.75 7.79,-22.465 8.75,-35.086 0.92,-12.687 1.4,-34.82 1.4,-66.406 z m -49.16,100.907 c 0,14.242 -0.49,23.367 -1.44,27.379 -0.95,3.949 -2.905,5.957 -5.842,5.957 -2.508,0 -4.415,-1.621 -5.766,-4.856 -1.313,-3.172 -1.984,-12.683 -1.984,-28.48 V 562.895 c 0,-17.801 0.429,-28.801 1.304,-32.95 0.883,-4.207 2.899,-6.277 6.086,-6.277 3.266,0 5.372,2.395 6.282,7.187 0.91,4.79 1.36,16.247 1.36,34.305 v 141.102"
         inkscape:connector-curvature="0" /><path
         id="path22"
         style="fill:#333333;fill-opacity:1;fill-rule:nonzero;stroke:none"
         d="M 1733.42,1081.37 V 960.789 l -71.51,-362.512 h 71.51 V 477.691 H 1555.7 v 87.512 l 74.32,395.586 h -65.42 v 120.581 z m 121.46,0 V 477.691 h -96.61 v 603.679 z m 253.76,0 V 477.691 h -84.41 l -50.18,274.493 V 477.691 h -80.65 v 603.679 h 80.65 l 53.93,-271.819 V 1081.37 Z M 2368.2,858.523 h -96.61 v 54.821 c 0,34.597 -0.86,56.219 -2.65,64.871 -1.8,8.777 -6.1,13.098 -12.83,13.098 -5.78,0 -9.77,-3.688 -11.88,-11.192 -2.1,-7.379 -3.12,-26.582 -3.12,-57.363 v -289.5 c 0,-26.969 1.02,-44.903 3.12,-53.426 2.11,-8.519 6.25,-12.848 12.52,-12.848 6.88,0 11.48,4.836 13.98,14.504 2.43,9.664 3.68,28.617 3.68,56.731 v 71.48 h -18.75 v 91.582 h 112.54 v -323.59 h -60.73 l -8.92,43.25 c -6.56,-18.699 -14.84,-32.691 -24.77,-42.105 -10,-9.414 -21.81,-14.117 -35.33,-14.117 -16.18,0 -31.25,6.359 -45.4,19.207 -14.07,12.847 -24.78,28.621 -32.04,47.574 -7.35,18.82 -11.88,38.664 -13.76,59.398 -1.8,20.735 -2.73,51.899 -2.73,93.364 v 179.347 c 0,57.621 1.87,99.469 5.7,125.547 3.83,26.204 14.77,50.114 32.83,71.864 18.04,21.75 41.41,32.56 70.11,32.56 28.21,0 51.57,-9.41 70.17,-28.36 18.61,-18.95 30.8,-41.34 36.43,-67.29 5.62,-26.075 8.44,-63.727 8.44,-113.328 v -26.079"
         inkscape:connector-curvature="0" /><path
         id="path24"
         style="fill:#333333;fill-opacity:1;fill-rule:nonzero;stroke:none"
         d="m 1446.81,977.418 h -67.28 v 17.902 c 0,20.64 2.12,36.56 6.3,47.81 4.19,11.17 12.68,21.05 25.34,29.63 12.67,8.57 29.1,12.89 49.41,12.89 24.25,0 42.55,-4.87 54.86,-14.61 12.3,-9.67 19.7,-21.6 22.19,-35.73 2.48,-14.13 3.76,-43.283 3.76,-87.388 V 814.031 h -69.84 v 23.801 c -4.36,-9.598 -10.07,-16.734 -16.98,-21.535 -6.91,-4.801 -15.15,-7.203 -24.79,-7.203 -12.55,0 -24.07,3.976 -34.55,11.933 -10.48,8.028 -15.7,25.45 -15.7,52.407 v 21.949 c 0,19.957 2.78,33.539 8.36,40.808 5.58,7.27 19.41,15.711 41.47,25.309 23.58,10.496 36.19,17.492 37.89,21.129 1.64,3.637 2.48,10.973 2.48,22.161 0,13.92 -0.91,22.97 -2.78,27.23 -1.83,4.18 -4.92,6.3 -9.22,6.3 -4.92,0 -7.95,-1.78 -9.1,-5.34 -1.21,-3.5 -1.82,-12.76 -1.82,-27.65 z m 22.92,-36.563 c -11.57,-9.535 -18.31,-17.488 -20.12,-23.937 -1.88,-6.445 -2.8,-15.637 -2.8,-27.711 0,-13.855 0.8,-22.703 2.42,-26.75 1.59,-4.043 4.8,-6.035 9.59,-6.035 4.55,0 7.46,1.578 8.84,4.734 1.4,3.157 2.07,11.383 2.07,24.828 v 54.871"
         inkscape:connector-curvature="0" /><path
         id="path26"
         style="fill:#b0002c;fill-opacity:1;fill-rule:nonzero;stroke:none"
         d="m 677.719,1201.28 v -49.67 h -86.531 v 49.67 z m 0,-68.96 v -312.5 h -86.531 v 312.5 h 86.531"
         inkscape:connector-curvature="0" /></g></g></svg>