<?xml version="1.0" encoding="UTF-8"?>
<!DOCTYPE svg PUBLIC "-//W3C//DTD SVG 1.1//EN" "http://www.w3.org/Graphics/SVG/1.1/DTD/svg11.dtd">
<!-- Creator: CorelDRAW X8 -->
<svg xmlns="http://www.w3.org/2000/svg" xml:space="preserve" width="440.972mm" height="41.8519mm" version="1.1" style="shape-rendering:geometricPrecision; text-rendering:geometricPrecision; image-rendering:optimizeQuality; fill-rule:evenodd; clip-rule:evenodd"
viewBox="0 0 8463 803"
 xmlns:xlink="http://www.w3.org/1999/xlink">
 <defs>
  <style type="text/css">
   <![CDATA[
    .fil1 {fill:white;fill-rule:nonzero}
    .fil2 {fill:url(#id0)}
    .fil0 {fill:url(#id1)}
    .fil3 {fill:url(#id2);fill-rule:nonzero}
    .fil4 {fill:url(#id3);fill-rule:nonzero}
   ]]>
  </style>
  <linearGradient id="id0" gradientUnits="userSpaceOnUse" x1="6847.83" y1="42.3953" x2="7890.69" y2="760.787">
   <stop offset="0" style="stop-opacity:1; stop-color:#69C7B4"/>
   <stop offset="1" style="stop-opacity:1; stop-color:#2AA88F"/>
  </linearGradient>
  <linearGradient id="id1" gradientUnits="userSpaceOnUse" x1="4205.32" y1="-63.4116" x2="4257.47" y2="866.6">
   <stop offset="0" style="stop-opacity:1; stop-color:#D4B475"/>
   <stop offset="1" style="stop-opacity:1; stop-color:#9E844C"/>
  </linearGradient>
  <linearGradient id="id2" gradientUnits="userSpaceOnUse" x1="4231.34" y1="-0.178217" x2="4231.43" y2="94.9714">
   <stop offset="0" style="stop-opacity:0.717647; stop-color:#7B663C"/>
   <stop offset="0.196078" style="stop-opacity:0; stop-color:#A88D59"/>
   <stop offset="0.65098" style="stop-opacity:0; stop-color:#A78A50"/>
   <stop offset="1" style="stop-opacity:0; stop-color:#D5B576"/>
  </linearGradient>
  <linearGradient id="id3" gradientUnits="userSpaceOnUse" xlink:href="#id2" x1="4231.34" y1="803.368" x2="4231.43" y2="708.219">
  </linearGradient>
 </defs>
 <g id="Layer_x0020_1">
  <metadata id="CorelCorpID_0Corel-Layer"/>
  <polygon class="fil0" points="0,0 8463,0 8463,803 0,803 "/>
  <path class="fil1" d="M1077 274l0 93 -17 0 0 -109 54 0 0 109 -17 0 0 -93 -20 0zm70 9l0 59c0,7 3,11 9,11 6,0 9,-4 9,-11l0 -59c0,-7 -3,-11 -9,-11 -6,0 -9,4 -9,11zm-17 58l0 -57c0,-8 2,-15 6,-20 5,-5 11,-7 20,-7 8,0 15,2 19,7 5,5 7,12 7,20l0 57c0,9 -2,16 -7,20 -4,5 -11,8 -19,8 -9,0 -15,-3 -20,-8 -4,-4 -6,-11 -6,-20zm134 41l-17 0 0 -15 -37 0 0 15 -17 0 0 -30 7 0c2,-3 4,-8 4,-14l4 -80 48 0 0 94 8 0 0 30zm-40 -108l-3 64c0,7 -2,11 -5,14l23 0 0 -78 -15 0zm81 93l-28 0 0 -109 49 0 0 16 -31 0 0 28 10 0c8,0 15,2 19,7 4,4 7,11 7,20l0 11c0,9 -3,16 -7,20 -4,5 -11,7 -19,7zm-10 -15l10 0c5,0 8,-4 8,-11l0 -13c0,-7 -3,-11 -8,-11l-10 0 0 35zm68 -78l0 30 24 0 0 16 -24 0 0 32 30 0 0 15 -47 0 0 -109 47 0 0 16 -30 0zm70 -16c17,0 26,9 26,27l0 14c0,18 -9,27 -26,27l-8 0 0 41 -17 0 0 -109 25 0zm0 16l-8 0 0 37 8 0c3,0 5,-1 6,-3 2,-1 3,-4 3,-8l0 -16c0,-4 -1,-6 -3,-8 -1,-1 -3,-2 -6,-2zm70 43l-15 50 -17 0 0 -109 15 0 0 69 6 -24 14 -45 19 0 0 109 -15 0 0 -77 -7 27zm34 -43l0 -16 53 0 0 16 -18 0 0 93 -17 0 0 -93 -18 0zm81 0l0 30 24 0 0 16 -24 0 0 32 30 0 0 15 -47 0 0 -109 47 0 0 16 -30 0zm81 9l0 59c0,7 3,11 9,11 6,0 9,-4 9,-11l0 -59c0,-7 -3,-11 -9,-11 -6,0 -9,4 -9,11zm-17 58l0 -57c0,-8 2,-15 6,-20 5,-5 11,-7 20,-7 8,0 15,2 19,7 5,5 7,12 7,20l0 57c0,9 -2,16 -7,20 -4,5 -11,8 -19,8 -9,0 -15,-3 -20,-8 -4,-4 -6,-11 -6,-20zm134 41l-17 0 0 -15 -37 0 0 15 -17 0 0 -30 7 0c2,-3 4,-8 4,-14l4 -80 48 0 0 94 8 0 0 30zm-40 -108l-3 64c0,7 -2,11 -5,14l23 0 0 -78 -15 0zm70 47l0 46 -17 0 0 -109 17 0 0 47 20 0 0 -47 17 0 0 109 -17 0 0 -46 -20 0zm70 -38l0 59c0,7 3,11 9,11 6,0 9,-4 9,-11l0 -59c0,-7 -3,-11 -9,-11 -6,0 -9,4 -9,11zm-17 58l0 -57c0,-8 2,-15 6,-20 5,-5 11,-7 20,-7 8,0 15,2 19,7 5,5 7,12 7,20l0 57c0,9 -2,16 -7,20 -4,5 -11,8 -19,8 -9,0 -15,-3 -20,-8 -4,-4 -6,-11 -6,-20zm119 -24l-14 50 -18 0 0 -109 15 0 0 69 7 -24 14 -45 19 0 0 109 -16 0 0 -77 -7 27zm34 51l0 -16c4,0 7,-1 8,-2 2,-1 3,-4 3,-9l2 -83 49 0 0 109 -17 0 0 -93 -15 0 -2 66c-1,10 -3,17 -7,21 -3,4 -10,7 -18,7l-3 0zm111 -51l-14 50 -18 0 0 -109 16 0 0 69 6 -24 14 -45 19 0 0 109 -16 0 0 -77 -7 27zm76 4l0 46 -17 0 0 -109 17 0 0 47 20 0 0 -47 17 0 0 109 -17 0 0 -46 -20 0zm71 -47l0 30 24 0 0 16 -24 0 0 32 30 0 0 15 -47 0 0 -109 47 0 0 16 -30 0zm78 53l16 0 0 14c0,9 -2,16 -6,21 -5,4 -11,7 -19,7 -9,0 -15,-3 -19,-7 -5,-5 -7,-12 -7,-21l0 -57c0,-9 2,-15 7,-20 4,-5 10,-7 19,-7 8,0 14,2 19,7 4,5 6,11 6,20l0 11 -16 0 0 -12c0,-7 -3,-11 -9,-11 -6,0 -9,4 -9,11l0 59c0,7 3,11 9,11 6,0 9,-4 9,-11l0 -15zm70 40l-17 -43 -5 10 0 33 -17 0 0 -109 17 0 0 48 23 -48 17 0 -24 49 24 60 -18 0zm45 -84l0 59c0,7 3,11 9,11 6,0 9,-4 9,-11l0 -59c0,-7 -3,-11 -9,-11 -6,0 -9,4 -9,11zm-17 58l0 -57c0,-8 3,-15 7,-20 4,-5 11,-7 19,-7 9,0 15,2 20,7 4,5 6,12 6,20l0 57c0,9 -2,16 -6,20 -5,5 -11,8 -20,8 -8,0 -15,-3 -19,-8 -4,-4 -7,-11 -7,-20zm63 27l0 -16c4,0 7,-1 8,-2 2,-1 2,-4 2,-9l3 -83 49 0 0 109 -18 0 0 -93 -15 0 -2 66c0,10 -2,17 -6,21 -4,4 -10,7 -19,7l-2 0zm104 -1l-25 0 0 -109 17 0 0 41 8 0c17,0 26,9 26,27l0 14c0,18 -9,27 -26,27zm-8 -15l8 0c3,0 5,-1 7,-3 1,-1 2,-4 2,-8l0 -16c0,-4 -1,-6 -2,-8 -2,-1 -4,-2 -7,-2l-8 0 0 37zm88 15l-17 -43 -5 10 0 33 -18 0 0 -109 18 0 0 48 22 -48 17 0 -24 49 24 60 -17 0zm45 -84l0 59c0,7 3,11 9,11 6,0 9,-4 9,-11l0 -59c0,-7 -3,-11 -9,-11 -6,0 -9,4 -9,11zm-17 58l0 -57c0,-8 2,-15 6,-20 5,-5 11,-7 20,-7 8,0 15,2 19,7 5,5 7,12 7,20l0 57c0,9 -2,16 -7,20 -4,5 -11,8 -19,8 -9,0 -15,-3 -20,-8 -4,-4 -6,-11 -6,-20zm113 -83c9,0 15,2 19,6 5,4 7,11 7,19l0 4c0,11 -4,19 -12,22 9,3 13,11 13,24l0 8c0,9 -2,15 -6,20 -5,4 -11,6 -20,6l-27 0 0 -109 26 0zm-1 60l-8 0 0 34 10 0c3,0 5,-1 7,-3 1,-1 2,-4 2,-8l0 -10c0,-5 -1,-8 -2,-10 -2,-2 -5,-3 -9,-3zm1 -44l-9 0 0 29 7 0c4,0 6,-1 8,-3 2,-2 2,-5 2,-9l0 -6c0,-8 -3,-11 -8,-11zm74 43l-15 50 -17 0 0 -109 15 0 0 69 6 -24 14 -45 19 0 0 109 -15 0 0 -77 -7 27zm105 65l-17 0 0 -15 -37 0 0 15 -16 0 0 -30 6 0c3,-3 4,-8 5,-14l4 -80 48 0 0 94 7 0 0 30zm-39 -108l-3 64c-1,7 -2,11 -5,14l22 0 0 -78 -14 0zm69 9l0 59c0,7 3,11 9,11 5,0 8,-4 8,-11l0 -59c0,-7 -3,-11 -8,-11 -6,0 -9,4 -9,11zm-18 58l0 -57c0,-8 3,-15 7,-20 5,-5 11,-7 20,-7 8,0 14,2 19,7 4,5 7,12 7,20l0 57c0,9 -3,16 -7,20 -5,5 -11,8 -19,8 -9,0 -15,-3 -20,-8 -4,-4 -7,-11 -7,-20zm94 -83c9,0 15,2 19,6 4,4 6,11 6,19l0 4c0,11 -4,19 -11,22 9,3 13,11 13,24l0 8c0,9 -2,15 -7,20 -4,4 -11,6 -19,6l-27 0 0 -109 26 0zm-1 60l-8 0 0 34 10 0c3,0 5,-1 7,-3 1,-1 2,-4 2,-8l0 -10c0,-5 -1,-8 -3,-10 -2,-2 -4,-3 -8,-3zm0 -44l-8 0 0 29 7 0c3,0 6,-1 7,-3 2,-2 3,-5 3,-9l0 -6c0,-8 -3,-11 -9,-11zm80 47l0 46 -18 0 0 -109 18 0 0 47 19 0 0 -47 18 0 0 109 -18 0 0 -46 -19 0zm91 -63l18 109 -18 0 -3 -19 -21 0 -3 19 -15 0 17 -109 25 0zm-13 19l-8 56 16 0 -8 -56zm60 44l0 46 -17 0 0 -109 17 0 0 47 20 0 0 -47 17 0 0 109 -17 0 0 -46 -20 0zm71 -47l0 30 23 0 0 16 -23 0 0 32 29 0 0 15 -46 0 0 -109 46 0 0 16 -29 0zm78 53l16 0 0 14c0,9 -2,16 -7,21 -4,4 -10,7 -19,7 -8,0 -14,-3 -19,-7 -4,-5 -6,-12 -6,-21l0 -57c0,-9 2,-15 6,-20 5,-5 11,-7 19,-7 9,0 15,2 19,7 5,5 7,11 7,20l0 11 -16 0 0 -12c0,-7 -3,-11 -9,-11 -6,0 -9,4 -9,11l0 59c0,7 3,11 9,11 6,0 9,-4 9,-11l0 -15zm48 -53l0 30 23 0 0 16 -23 0 0 32 29 0 0 15 -46 0 0 -109 46 0 0 16 -29 0zm61 47l0 46 -17 0 0 -109 17 0 0 47 20 0 0 -47 17 0 0 109 -17 0 0 -46 -20 0zm86 -4l-14 50 -18 0 0 -109 15 0 0 69 7 -24 14 -45 19 0 0 109 -16 0 0 -77 -7 27zm56 50l15 -50 7 -27 0 77 15 0 0 -109 -19 0 -14 45 -6 24 0 -69 -15 0 0 109 17 0zm18 -133l11 0c0,5 -2,9 -5,12 -3,4 -8,5 -14,5 -6,0 -10,-1 -13,-4 -3,-3 -4,-8 -5,-13l11 0c0,3 1,4 2,5 1,1 3,2 5,2 3,0 5,-1 6,-2 1,-1 2,-3 2,-5zm73 87l0 46 -17 0 0 -109 17 0 0 47 20 0 0 -47 17 0 0 109 -17 0 0 -46 -20 0zm92 -63l17 109 -17 0 -3 -19 -21 0 -3 19 -16 0 18 -109 25 0zm-14 19l-8 56 17 0 -9 -56zm120 -19l-18 82c-3,10 -6,18 -11,22 -5,4 -13,6 -24,6l0 -16c5,1 8,0 11,-1 2,-1 4,-4 4,-8l0 -1 -23 -84 17 0 9 37 5 26 4 -25 8 -38 18 0zm61 0l0 44 20 -44 17 0 -21 44 21 65 -17 0 -16 -48 -4 8 0 40 -17 0 0 -40 -4 -8 -16 48 -18 0 22 -64 -22 -45 18 0 20 44 0 -44 17 0zm66 16l0 30 24 0 0 16 -24 0 0 32 30 0 0 15 -47 0 0 -109 47 0 0 16 -30 0zm82 93l-17 0 0 -109 45 0 0 16 -28 0 0 93zm59 -84l0 59c0,7 3,11 9,11 6,0 9,-4 9,-11l0 -59c0,-7 -3,-11 -9,-11 -6,0 -9,4 -9,11zm-17 58l0 -57c0,-8 2,-15 7,-20 4,-5 11,-7 19,-7 9,0 15,2 20,7 4,5 6,12 6,20l0 57c0,9 -2,16 -6,20 -5,5 -11,8 -20,8 -8,0 -15,-3 -19,-8 -5,-4 -7,-11 -7,-20zm63 -67l0 -16 53 0 0 16 -18 0 0 93 -17 0 0 -93 -18 0zm80 9l0 59c0,7 3,11 9,11 6,0 9,-4 9,-11l0 -59c0,-7 -3,-11 -9,-11 -6,0 -9,4 -9,11zm-17 58l0 -57c0,-8 2,-15 7,-20 4,-5 11,-7 19,-7 8,0 15,2 19,7 5,5 7,12 7,20l0 57c0,9 -2,16 -7,20 -4,5 -11,8 -19,8 -8,0 -15,-3 -19,-8 -5,-4 -7,-11 -7,-20zm93 -83c9,0 15,2 20,6 4,4 6,11 6,19l0 4c0,11 -4,19 -11,22 8,3 12,11 12,24l0 8c0,9 -2,15 -6,20 -5,4 -11,6 -20,6l-27 0 0 -109 26 0zm-1 60l-8 0 0 34 10 0c3,0 5,-1 7,-3 1,-1 2,-4 2,-8l0 -10c0,-5 -1,-8 -2,-10 -2,-2 -5,-3 -9,-3zm1 -44l-9 0 0 29 7 0c4,0 6,-1 8,-3 2,-2 2,-5 2,-9l0 -6c0,-8 -2,-11 -8,-11zm67 93l-25 0 0 -109 17 0 0 41 8 0c17,0 26,9 26,27l0 14c0,18 -9,27 -26,27zm-8 -15l8 0c3,0 5,-1 6,-3 2,-1 2,-4 2,-8l0 -16c0,-4 0,-6 -2,-8 -1,-1 -3,-2 -6,-2l-8 0 0 37zm61 15l-18 0 0 -109 18 0 0 109zm33 -93l0 30 24 0 0 16 -24 0 0 32 30 0 0 15 -47 0 0 -109 47 0 0 16 -30 0zm60 0l0 -16 53 0 0 16 -18 0 0 93 -17 0 0 -93 -18 0zm80 9l0 59c0,7 3,11 9,11 6,0 9,-4 9,-11l0 -59c0,-7 -3,-11 -9,-11 -6,0 -9,4 -9,11zm-17 58l0 -57c0,-8 2,-15 7,-20 4,-5 11,-7 19,-7 9,0 15,2 20,7 4,5 6,12 6,20l0 57c0,9 -2,16 -6,20 -5,5 -11,8 -20,8 -8,0 -15,-3 -19,-8 -5,-4 -7,-11 -7,-20zm94 -83c8,0 15,2 19,6 4,4 6,11 6,19l0 4c0,11 -4,19 -11,22 8,3 13,11 13,24l0 8c0,9 -3,15 -7,20 -4,4 -11,6 -19,6l-27 0 0 -109 26 0zm-2 60l-7 0 0 34 10 0c3,0 5,-1 6,-3 2,-1 3,-4 3,-8l0 -10c0,-5 -1,-8 -3,-10 -2,-2 -5,-3 -9,-3zm1 -44l-8 0 0 29 6 0c4,0 7,-1 8,-3 2,-2 3,-5 3,-9l0 -6c0,-8 -3,-11 -9,-11zm80 -16l18 109 -18 0 -3 -19 -21 0 -3 19 -15 0 17 -109 25 0zm-13 19l-8 56 16 0 -8 -56zm68 -19c17,0 26,9 26,27l0 14c0,18 -9,27 -26,27l-8 0 0 41 -17 0 0 -109 25 0zm0 16l-8 0 0 37 8 0c3,0 5,-1 6,-3 2,-1 3,-4 3,-8l0 -16c0,-4 -1,-6 -3,-8 -1,-1 -3,-2 -6,-2zm63 93l-25 0 0 -109 17 0 0 41 8 0c17,0 26,9 26,27l0 14c0,18 -9,27 -26,27zm-8 -15l8 0c3,0 5,-1 6,-3 2,-1 3,-4 3,-8l0 -16c0,-4 -1,-6 -3,-8 -1,-1 -3,-2 -6,-2l-8 0 0 37zm61 15l-17 0 0 -109 17 0 0 109zm-3333 94l0 94 -17 0 0 -110 54 0 0 110 -17 0 0 -94 -20 0zm70 10l0 59c0,7 2,10 8,10 6,0 9,-3 9,-10l0 -59c0,-8 -3,-11 -9,-11 -6,0 -8,3 -8,11zm-18 58l0 -57c0,-9 3,-16 7,-21 5,-4 11,-7 19,-7 9,0 15,3 20,7 4,5 6,12 6,21l0 57c0,8 -2,15 -6,20 -5,5 -11,7 -20,7 -8,0 -14,-2 -19,-7 -4,-5 -7,-12 -7,-20zm91 -84l13 78 12 -78 24 0 0 110 -17 0 0 -79 -11 79 -17 0 -12 -78 0 78 -15 0 0 -110 23 0zm82 16l0 31 24 0 0 15 -24 0 0 32 30 0 0 16 -47 0 0 -110 47 0 0 16 -30 0zm80 -16l17 0 0 110 -17 0 0 -44c-4,4 -9,6 -15,6 -7,0 -12,-2 -16,-7 -3,-4 -5,-11 -5,-18l0 -47 17 0 0 45c0,4 1,6 3,8 2,2 4,3 7,3 3,0 5,-1 7,-3 1,-2 2,-5 2,-8l0 -45zm51 16l0 31 24 0 0 15 -24 0 0 32 30 0 0 16 -47 0 0 -110 47 0 0 16 -30 0zm62 47l0 47 -18 0 0 -110 18 0 0 47 19 0 0 -47 18 0 0 110 -18 0 0 -47 -19 0zm70 0l0 47 -17 0 0 -110 17 0 0 47 20 0 0 -47 17 0 0 110 -17 0 0 -47 -20 0zm79 47l-25 0 0 -110 17 0 0 42 8 0c17,0 26,9 26,27l0 14c0,18 -9,27 -26,27zm-8 -16l8 0c3,0 5,-1 7,-2 1,-2 2,-4 2,-8l0 -17c0,-3 -1,-6 -2,-8 -2,-1 -4,-2 -7,-2l-8 0 0 37zm61 16l-17 0 0 -110 17 0 0 110zm34 -94l0 31 23 0 0 15 -23 0 0 32 29 0 0 16 -46 0 0 -110 46 0 0 16 -29 0zm98 53l16 0 0 15c0,8 -2,15 -7,20 -4,5 -10,7 -19,7 -8,0 -14,-2 -19,-7 -4,-5 -6,-12 -6,-20l0 -57c0,-9 2,-16 6,-21 5,-4 11,-7 19,-7 9,0 15,3 19,7 5,5 7,12 7,21l0 10 -16 0 0 -11c0,-8 -3,-11 -9,-11 -6,0 -9,3 -9,11l0 59c0,7 3,10 9,10 6,0 9,-3 9,-10l0 -16zm48 -53l0 94 -17 0 0 -110 54 0 0 110 -18 0 0 -94 -19 0zm71 0l0 31 23 0 0 15 -23 0 0 32 29 0 0 16 -47 0 0 -110 47 0 0 16 -29 0zm44 94l0 -110 17 0 0 94 20 0 0 -94 17 0 0 94 8 0 0 30 -17 0 0 -14 -45 0zm107 -50l-14 50 -18 0 0 -110 15 0 0 70 7 -24 14 -46 19 0 0 110 -16 0 0 -77 -7 27zm77 -60l18 110 -18 0 -3 -20 -21 0 -3 20 -16 0 18 -110 25 0zm-13 20l-9 55 17 0 -8 -55zm38 90l0 -16c4,0 7,0 8,-2 2,-1 2,-4 2,-9l3 -83 49 0 0 110 -18 0 0 -94 -15 0 -2 66c0,10 -2,17 -6,22 -4,4 -10,6 -19,6l-2 0zm104 0l-25 0 0 -110 17 0 0 42 8 0c17,0 26,9 26,27l0 14c0,18 -9,27 -26,27zm-8 -16l8 0c3,0 5,-1 7,-2 1,-2 2,-4 2,-8l0 -17c0,-3 -1,-6 -2,-8 -2,-1 -4,-2 -7,-2l-8 0 0 37zm65 -31l0 47 -17 0 0 -110 17 0 0 47 20 0 0 -47 17 0 0 110 -17 0 0 -47 -20 0zm79 47l-25 0 0 -110 17 0 0 42 8 0c17,0 26,9 26,27l0 14c0,18 -9,27 -26,27zm-8 -16l8 0c3,0 5,-1 7,-2 1,-2 2,-4 2,-8l0 -17c0,-3 -1,-6 -2,-8 -2,-1 -4,-2 -7,-2l-8 0 0 37zm61 16l-17 0 0 -110 17 0 0 110zm40 -110l13 78 12 -78 24 0 0 110 -17 0 0 -79 -11 79 -17 0 -13 -78 0 78 -15 0 0 -110 24 0zm118 33l0 -6c0,-4 0,-8 -2,-9 -1,-2 -4,-3 -6,-3 -7,0 -10,3 -10,11l0 9 -15 0 0 -9c0,-8 2,-15 6,-20 4,-4 11,-7 19,-7 8,0 15,3 19,7 4,5 7,12 7,21l0 3c0,11 -4,19 -12,22 8,4 12,11 12,23l0 9c0,8 -3,15 -7,20 -4,5 -11,7 -19,7 -8,0 -15,-2 -19,-7 -4,-5 -7,-12 -7,-20l0 -12 17 0 0 13c0,7 3,10 9,10 2,0 5,-1 6,-2 2,-2 2,-5 2,-10l0 -9c0,-5 0,-8 -2,-10 -2,-2 -5,-3 -9,-3l-4 0 0 -16 5 0c4,0 6,-1 8,-3 2,-1 2,-4 2,-9zm50 30l0 47 -17 0 0 -110 17 0 0 47 20 0 0 -47 17 0 0 110 -17 0 0 -47 -20 0zm92 -63l18 110 -18 0 -3 -20 -21 0 -3 20 -15 0 17 -110 25 0zm-13 20l-9 55 17 0 -8 -55zm82 90l-17 -44 -5 10 0 34 -17 0 0 -110 17 0 0 48 22 -48 18 0 -24 49 24 61 -18 0zm45 -84l0 59c0,7 3,10 9,10 6,0 9,-3 9,-10l0 -59c0,-8 -3,-11 -9,-11 -6,0 -9,3 -9,11zm-17 58l0 -57c0,-9 2,-16 7,-21 4,-4 11,-7 19,-7 9,0 15,3 20,7 4,5 6,12 6,21l0 57c0,8 -2,15 -6,20 -5,5 -11,7 -20,7 -8,0 -15,-2 -19,-7 -5,-5 -7,-12 -7,-20zm91 -84l13 78 12 -78 23 0 0 110 -16 0 0 -79 -12 79 -16 0 -13 -78 0 78 -15 0 0 -110 24 0zm111 0c9,0 15,3 19,7 4,4 7,10 7,19l0 4c0,11 -4,18 -12,22 9,3 13,11 13,23l0 9c0,8 -2,15 -6,19 -5,5 -11,7 -20,7l-27 0 0 -110 26 0zm-1 61l-8 0 0 33 10 0c3,0 5,-1 7,-2 1,-2 2,-5 2,-9l0 -9c0,-5 -1,-9 -3,-11 -1,-1 -4,-2 -8,-2zm1 -45l-9 0 0 29 7 0c3,0 6,-1 8,-3 1,-1 2,-4 2,-9l0 -6c0,-7 -3,-11 -8,-11zm101 94l-17 -44 -5 10 0 34 -17 0 0 -110 17 0 0 48 22 -48 18 0 -24 49 24 61 -18 0zm68 -110l17 110 -17 0 -3 -20 -21 0 -3 20 -16 0 17 -110 26 0zm-14 20l-8 55 16 0 -8 -55zm38 -4l0 -16 53 0 0 16 -18 0 0 94 -17 0 0 -94 -18 0zm103 -16l17 110 -17 0 -3 -20 -21 0 -3 20 -16 0 18 -110 25 0zm-13 20l-9 55 17 0 -8 -55zm38 90l0 -16c4,0 7,0 8,-2 1,-1 2,-4 2,-9l3 -83 49 0 0 110 -18 0 0 -94 -15 0 -2 66c0,10 -2,17 -6,22 -4,4 -10,6 -19,6l-2 0zm95 -84l0 59c0,7 3,10 9,10 6,0 9,-3 9,-10l0 -59c0,-8 -3,-11 -9,-11 -6,0 -9,3 -9,11zm-17 58l0 -57c0,-9 2,-16 6,-21 5,-4 11,-7 20,-7 8,0 15,3 19,7 4,5 7,12 7,21l0 57c0,8 -3,15 -7,20 -4,5 -11,7 -19,7 -9,0 -15,-2 -20,-7 -4,-5 -6,-12 -6,-20zm84 26l-17 0 0 -110 45 0 0 16 -28 0 0 94zm61 -94l0 31 24 0 0 15 -24 0 0 32 30 0 0 16 -47 0 0 -110 47 0 0 16 -30 0z"/>
  <polygon class="fil2" points="6276,145 8463,144 8463,659 6434,659 "/>
  <path class="fil1" d="M6753 443l0 114 -43 0 0 -265 43 0 0 113 49 0 0 -113 44 0 0 265 -44 0 0 -114 -49 0zm220 -151l44 265 -43 0 -8 -48 -53 0 -7 48 -40 0 44 -265 63 0zm-33 47l-21 134 42 0 -21 -134zm141 104l0 114 -44 0 0 -265 44 0 0 113 49 0 0 -113 43 0 0 265 -43 0 0 -114 -49 0zm167 -113l0 73 59 0 0 38 -59 0 0 78 75 0 0 38 -118 0 0 -265 118 0 0 38 -75 0zm185 128l41 0 0 35c0,22 -5,38 -16,50 -11,11 -27,17 -48,17 -21,0 -37,-6 -48,-17 -11,-12 -16,-28 -16,-50l0 -138c0,-21 5,-38 16,-49 11,-12 27,-17 48,-17 21,0 37,5 48,17 11,11 16,28 16,49l0 26 -41 0 0 -28c0,-18 -7,-26 -22,-26 -15,0 -22,8 -22,26l0 143c0,17 7,26 22,26 15,0 22,-9 22,-26l0 -38zm111 -128l0 73 59 0 0 38 -59 0 0 78 74 0 0 38 -117 0 0 -265 117 0 0 38 -74 0zm144 113l0 114 -43 0 0 -265 43 0 0 113 49 0 0 -113 44 0 0 265 -44 0 0 -114 -49 0zm205 -8l-36 122 -45 0 0 -265 39 0 0 168 15 -59 36 -109 47 0 0 265 -39 0 0 -187 -17 65zm123 122l-44 0c3,-7 5,-18 5,-32l0 -41c0,-30 9,-49 28,-57 -19,-8 -28,-26 -28,-54l0 -20c0,-21 5,-36 15,-46 11,-10 27,-15 49,-15l65 0 0 265 -43 0 0 -108 -15 0c-10,0 -17,2 -22,8 -4,5 -6,13 -6,26l0 41c0,14 -1,25 -4,33zm47 -227l-21 0c-14,0 -22,9 -22,27l0 26c0,10 2,17 7,22 4,4 10,6 19,6l17 0 0 -81z"/>
  <polygon class="fil3" points="0,0 8463,0 8463,95 0,95 "/>
  <polygon class="fil4" points="0,803 8463,803 8463,708 0,708 "/>
 </g>
</svg>
