<?xml version="1.0" encoding="UTF-8"?>
<!DOCTYPE svg PUBLIC "-//W3C//DTD SVG 1.1//EN" "http://www.w3.org/Graphics/SVG/1.1/DTD/svg11.dtd">
<!-- Creator: CorelDRAW X8 -->
<svg xmlns="http://www.w3.org/2000/svg" xml:space="preserve" width="100.841mm" height="161.173mm" version="1.1" style="shape-rendering:geometricPrecision; text-rendering:geometricPrecision; image-rendering:optimizeQuality; fill-rule:evenodd; clip-rule:evenodd"
viewBox="0 0 491 785"
 xmlns:xlink="http://www.w3.org/1999/xlink">
 <defs>
  <style type="text/css">
   <![CDATA[
    .str0 {stroke:#E0E0E0;stroke-width:0.371027;stroke-opacity:0.741176}
    .fil2 {fill:none}
    .fil5 {fill:#F2F3F5}
    .fil16 {fill:#474747;fill-rule:nonzero}
    .fil11 {fill:#4F0417;fill-rule:nonzero}
    .fil13 {fill:#730621;fill-rule:nonzero}
    .fil12 {fill:#B0002C;fill-rule:nonzero}
    .fil15 {fill:#B59452;fill-rule:nonzero}
    .fil14 {fill:#D4B476;fill-rule:nonzero}
    .fil10 {fill:#F71B3F;fill-rule:nonzero}
    .fil1 {fill:white;fill-rule:nonzero}
    .fil0 {fill:url(#id0)}
    .fil4 {fill:url(#id1);fill-rule:nonzero}
    .fil7 {fill:url(#id2);fill-rule:nonzero}
    .fil9 {fill:url(#id3);fill-rule:nonzero}
    .fil8 {fill:url(#id4);fill-rule:nonzero}
    .fil6 {fill:url(#id5);fill-rule:nonzero}
    .fil3 {fill:url(#id6);fill-rule:nonzero}
   ]]>
  </style>
  <linearGradient id="id0" gradientUnits="userSpaceOnUse" x1="17.9885" y1="151.49" x2="473.017" y2="633.283">
   <stop offset="0" style="stop-opacity:1; stop-color:#F71B3F"/>
   <stop offset="0.690196" style="stop-opacity:1; stop-color:#D40E36"/>
   <stop offset="1" style="stop-opacity:1; stop-color:#B0002C"/>
  </linearGradient>
  <linearGradient id="id1" gradientUnits="userSpaceOnUse" x1="491.067" y1="392.446" x2="458.362" y2="392.327">
   <stop offset="0" style="stop-opacity:0.717647; stop-color:#5C0017"/>
   <stop offset="0.196078" style="stop-opacity:0; stop-color:#5C0017"/>
   <stop offset="0.65098" style="stop-opacity:0; stop-color:#5C0017"/>
   <stop offset="1" style="stop-opacity:0; stop-color:#5C0017"/>
  </linearGradient>
  <linearGradient id="id2" gradientUnits="userSpaceOnUse" x1="245.503" y1="641.895" x2="245.502" y2="525.719">
   <stop offset="0" style="stop-opacity:1; stop-color:#CED2DB"/>
   <stop offset="0.619608" style="stop-opacity:0; stop-color:#E0E2E8"/>
   <stop offset="1" style="stop-opacity:0; stop-color:#F2F3F5"/>
  </linearGradient>
  <linearGradient id="id3" gradientUnits="userSpaceOnUse" x1="491.071" y1="407.865" x2="455.813" y2="407.628">
   <stop offset="0" style="stop-opacity:0.717647; stop-color:#939AAB"/>
   <stop offset="0.196078" style="stop-opacity:0; stop-color:#AAAFBB"/>
   <stop offset="0.65098" style="stop-opacity:0; stop-color:#C2C5CC"/>
   <stop offset="1" style="stop-opacity:0; stop-color:#C2C5CC"/>
  </linearGradient>
  <linearGradient id="id4" gradientUnits="userSpaceOnUse" xlink:href="#id3" x1="-0.0663445" y1="407.865" x2="35.1922" y2="407.628">
  </linearGradient>
  <linearGradient id="id5" gradientUnits="userSpaceOnUse" xlink:href="#id2" x1="245.502" y1="173.598" x2="245.502" y2="289.774">
  </linearGradient>
  <linearGradient id="id6" gradientUnits="userSpaceOnUse" x1="-0.0608516" y1="392.446" x2="32.6442" y2="392.327">
   <stop offset="0" style="stop-opacity:0.717647; stop-color:#99062B"/>
   <stop offset="0.196078" style="stop-opacity:0; stop-color:#99062B"/>
   <stop offset="0.65098" style="stop-opacity:0; stop-color:#99062B"/>
   <stop offset="1" style="stop-opacity:0; stop-color:#99062B"/>
  </linearGradient>
 </defs>
 <g id="Layer_x0020_1">
  <metadata id="CorelCorpID_0Corel-Layer"/>
  <polygon class="fil0" points="0,0 491,0 491,785 0,785 "/>
  <path class="fil1" d="M55 77l0 -4c0,-3 0,-5 -1,-6 -1,-1 -3,-2 -5,-2 -3,0 -5,3 -5,7l0 6 -11 0 0 -5c0,-6 2,-10 4,-13 3,-3 7,-5 13,-5 5,0 9,2 12,5 3,3 5,7 5,13l0 2c0,7 -3,12 -8,14 5,3 8,8 8,15l0 6c0,6 -2,10 -5,13 -3,3 -7,5 -12,5 -6,0 -10,-2 -13,-5 -2,-3 -4,-7 -4,-13l0 -8 11 0 0 9c0,4 2,7 5,7 2,0 4,-1 5,-2 1,-1 1,-3 1,-6l0 -6c0,-3 0,-5 -1,-7 -2,-1 -3,-2 -6,-2l-3 0 0 -10 4 0c2,0 3,-1 5,-2 1,-1 1,-3 1,-6zm47 -21l11 71 -11 0 -2 -13 -14 0 -2 13 -10 0 11 -71 17 0zm-9 13l-6 36 11 0 -5 -36zm52 -3l0 61 -11 0 0 -71 35 0 0 71 -11 0 0 -61 -13 0zm45 6l0 39c0,4 2,7 6,7 4,0 6,-3 6,-7l0 -39c0,-4 -2,-7 -6,-7 -4,0 -6,3 -6,7zm-11 38l0 -37c0,-6 2,-10 5,-13 3,-3 7,-5 12,-5 6,0 10,2 13,5 3,3 4,7 4,13l0 37c0,6 -1,10 -4,13 -3,3 -7,5 -13,5 -5,0 -9,-2 -12,-5 -3,-3 -5,-7 -5,-13zm41 17l0 -10c3,0 5,0 5,-1 1,-1 2,-3 2,-6l2 -54 31 0 0 71 -11 0 0 -61 -10 0 -1 43c0,7 -2,11 -4,14 -3,3 -7,4 -12,4l-2 0zm52 0l0 -71 11 0 0 61 13 0 0 -61 11 0 0 61 5 0 0 20 -11 0 0 -10 -29 0zm60 -61l0 20 15 0 0 10 -15 0 0 21 19 0 0 10 -30 0 0 -71 30 0 0 10 -19 0zm40 31l0 30 -11 0 0 -71 11 0 0 30 13 0 0 -30 11 0 0 71 -11 0 0 -30 -13 0zm52 30l-17 0 0 -71 11 0 0 27 6 0c11,0 16,6 16,17l0 10c0,11 -5,17 -16,17zm-6 -10l6 0c1,0 3,-1 4,-2 1,-1 1,-2 1,-5l0 -10c0,-3 0,-5 -1,-6 -1,-1 -3,-1 -4,-1l-6 0 0 24zm40 10l-11 0 0 -71 11 0 0 71z"/>
  <polygon class="fil2 str0" points="108,666 388,666 388,738 108,738 "/>
  <path class="fil1" d="M154 691l-6 20c0,2 -1,4 -2,5 -1,1 -3,1 -5,1l0 -3c1,0 2,0 3,0 0,0 1,-1 1,-2l1 -2 -6 -19 2 0 3 9 2 7 1 -7 3 -9 3 0zm8 0c2,0 4,0 5,1 1,2 1,3 1,5l0 3 -2 0 0 -3c0,-2 -1,-4 -3,-4 -2,0 -4,2 -4,4l0 14c0,2 2,4 4,4 2,0 3,-2 3,-4l0 -4 2 0 0 4c0,2 0,3 -1,5 -1,1 -3,1 -5,1 -1,0 -3,0 -4,-1 -1,-2 -1,-3 -1,-5l0 -14c0,-2 0,-3 1,-5 1,-1 3,-1 4,-1zm21 3l-5 0 -1 17c0,2 -1,3 -1,4 -1,1 -2,2 -4,2l-1 0 0 -3c1,0 2,0 2,0 1,-1 1,-2 1,-3l1 -20 10 0 0 26 -2 0 0 -23zm6 17l0 -14c0,-2 1,-3 2,-5 1,-1 2,-1 4,-1 2,0 4,0 5,1 1,2 1,3 1,5l0 14c0,2 0,3 -1,5 -1,1 -3,1 -5,1 -2,0 -3,0 -4,-1 -1,-2 -2,-3 -2,-5zm3 -14l0 14c0,2 1,4 3,4 2,0 3,-2 3,-4l0 -14c0,-2 -1,-4 -3,-4 -2,0 -3,2 -3,4zm13 -6l6 0c2,0 3,0 4,1 1,1 1,3 1,5l0 1c0,1 0,3 0,3 -1,1 -2,2 -3,2 3,1 4,3 4,6l0 2c0,4 -2,6 -6,6l-6 0 0 -26zm3 11l2 0c1,0 2,0 3,-1 0,0 1,-1 1,-2l0 -2c0,-1 -1,-2 -1,-3 -1,0 -1,0 -2,0l-3 0 0 8zm0 12l3 0c2,0 3,-1 3,-3l0 -2c0,-2 0,-3 -1,-3 0,-1 -1,-1 -3,-1l-2 0 0 9zm22 -18l-3 9 -3 12 -3 0 0 -26 2 0 0 19 3 -8 4 -11 3 0 0 26 -3 0 0 -21zm16 10l-3 0c-1,0 -2,0 -2,1 -1,0 -1,1 -1,3l0 4c0,1 -1,2 -1,3l-3 0c1,-1 1,-2 1,-3l0 -4c0,-3 1,-5 3,-6 -2,0 -3,-2 -3,-5l0 -2c0,-2 0,-4 1,-5 1,-1 3,-1 5,-1l5 0 0 26 -2 0 0 -11zm0 -12l-3 0c-2,0 -3,1 -3,3l0 3c0,1 0,2 1,2 0,1 1,1 2,1l3 0 0 -9zm17 -3l6 0c2,0 3,0 4,1 1,1 1,3 1,5l0 1c0,1 0,3 0,3 -1,1 -2,2 -3,2 3,1 4,3 4,6l0 2c0,4 -2,6 -6,6l-6 0 0 -26zm3 11l2 0c1,0 2,0 3,-1 0,0 1,-1 1,-2l0 -2c0,-1 -1,-2 -1,-3 -1,0 -1,0 -2,0l-3 0 0 8zm0 12l3 0c2,0 3,-1 3,-3l0 -2c0,-2 0,-3 -1,-3 0,-1 -1,-1 -3,-1l-2 0 0 9zm22 -9l-7 0 0 12 -3 0 0 -26 3 0 0 12 7 0 0 -12 3 0 0 26 -3 0 0 -12zm20 -14l-6 20c0,2 -1,4 -2,5 -1,1 -2,1 -4,1l0 -3c1,0 1,0 2,0 1,0 1,-1 1,-2l1 -2 -6 -19 3 0 2 9 2 7 2 -7 2 -9 3 0zm10 26l-3 0 0 -23 -5 0 0 -3 13 0 0 3 -5 0 0 23zm8 -26l6 0c4,0 6,2 6,6l0 3c0,5 -2,7 -7,7l-2 0 0 10 -3 0 0 -26zm3 13l2 0c2,0 2,0 3,-1 0,0 1,-1 1,-2l0 -4c0,-1 -1,-2 -1,-3 -1,0 -1,0 -2,0l-3 0 0 10zm21 -8l-2 9 -4 12 -3 0 0 -26 2 0 0 19 3 -8 4 -11 3 0 0 26 -3 0 0 -21z"/>
  <polygon class="fil3" points="0,785 0,0 33,0 33,785 "/>
  <polygon class="fil4" points="491,785 491,0 458,0 458,785 "/>
  <g id="_822372272">
   <polygon class="fil5" points="0,179 491,179 491,636 0,636 "/>
   <polygon class="fil6" points="0,179 491,179 491,284 0,284 "/>
   <polygon class="fil7" points="491,636 0,636 0,532 491,532 "/>
   <polygon class="fil8" points="0,636 0,179 35,179 35,636 "/>
   <polygon class="fil9" points="491,636 491,179 456,179 456,636 "/>
  </g>
  <polygon class="fil10" points="378,460 281,543 309,538 "/>
  <polygon class="fil11" points="118,490 109,304 220,227 391,308 397,432 265,540 "/>
  <polygon class="fil12" points="384,293 252,219 117,314 121,389 388,358 "/>
  <polygon class="fil13" points="388,358 384,293 362,280 363,346 121,387 121,393 384,361 384,358 "/>
  <polygon class="fil14" points="228,543 384,458 378,359 113,388 115,473 "/>
  <polygon class="fil15" points="379,374 379,374 379,372 378,359 363,361 363,367 114,399 363,375 363,443 222,526 115,473 228,543 384,458 "/>
  <path class="fil1" d="M221 520c0,-1 1,-1 2,-2 1,0 2,0 3,-1 1,0 2,0 3,0 5,1 9,0 12,0 3,-1 5,-2 5,-4 1,0 1,-1 0,-1 0,-1 -1,-1 -2,-1 -2,0 -3,-1 -5,-1 -1,0 -3,0 -5,0 -1,0 -3,0 -5,-1 -2,0 -3,0 -5,0 -2,-1 -3,-1 -5,-2 -1,-1 -3,-2 -4,-3 -1,-1 -2,-3 -3,-4 -1,-2 -2,-4 -2,-6 -1,-1 -1,-3 -1,-6 1,-2 1,-4 1,-6 1,-3 1,-5 2,-7 1,-2 2,-4 3,-6 0,-1 1,-1 2,-2 0,-1 1,-2 2,-2 1,-1 2,-2 3,-2 1,-1 3,-1 4,-2 3,0 5,0 8,0 2,0 4,0 6,1 2,0 3,1 4,1 1,1 1,2 2,2 0,1 1,2 1,2 1,1 1,2 1,2 1,2 1,3 2,5 0,1 1,3 1,4 0,2 0,4 1,5 0,2 0,3 0,4 0,2 0,2 -1,3 0,0 -1,1 -2,1 -7,1 -12,-1 -13,-5 0,0 -1,-1 -1,-2 0,-2 0,-3 -1,-4 0,-1 0,-2 -1,-3 0,-1 0,-2 -1,-2 0,-1 0,-1 -1,-1 0,0 -1,1 -1,2 -1,1 -1,2 -2,3 0,1 0,2 -1,4 0,1 0,3 0,4 0,2 0,3 0,4 1,2 1,3 2,4 1,1 2,2 4,2 1,1 4,1 6,1 2,0 4,1 6,1 2,0 4,0 6,1 2,0 3,0 5,1 1,0 2,1 3,2 1,1 1,3 1,4 0,1 0,3 0,4 0,2 -1,3 -2,5 -1,1 -2,3 -3,4 -2,2 -4,3 -7,5 -3,2 -7,3 -11,3 -4,1 -9,0 -14,-1 -3,-1 -4,-2 -5,-3 0,0 0,-1 0,-2 1,-1 2,-2 3,-2zm62 -28c-4,2 -6,4 -8,6 0,2 0,4 0,6 0,2 0,3 0,5 0,1 0,2 -1,2 0,0 -1,1 -2,1 -1,0 -1,0 -2,0 -1,0 -2,0 -3,0 -1,0 -1,0 -2,0 0,0 -1,0 -1,0 0,-1 -1,-1 -1,-2 0,0 -1,-1 -1,-2 0,-4 -1,-8 -1,-13 -1,-5 -1,-10 -1,-15 0,-6 -1,-11 -1,-16 0,-6 0,-10 0,-15 0,-1 1,-3 1,-4 1,-1 3,-2 5,-3 2,-1 3,-2 5,-2 1,-1 3,-1 4,-1 1,-1 3,-1 4,-1 1,0 2,-1 3,-1 2,0 3,0 4,1 0,0 1,1 2,3 1,3 3,7 4,11 2,4 4,8 7,13 2,4 4,9 6,13 2,4 4,9 6,12 1,1 1,2 1,2 0,1 -1,1 -2,2 -1,0 -2,1 -3,1 -1,1 -3,1 -4,1 -1,0 -2,0 -2,0 -1,0 -2,-1 -3,-2 -1,-1 -1,-2 -2,-4 -1,-1 -2,-3 -3,-5 -3,2 -6,5 -9,7zm-3 -13c2,-2 4,-3 6,-4 -2,-4 -4,-7 -6,-11 -2,-3 -4,-7 -5,-10 0,4 -1,8 -1,13 0,5 0,10 0,15 2,-1 4,-2 6,-3zm54 -1c-2,2 -5,4 -7,6 -1,1 -2,1 -3,2 0,0 -1,0 -1,0 -1,1 -1,1 -2,1 0,0 -1,0 -1,0 -1,-1 -2,-1 -3,-1 -1,0 -2,0 -3,-1 -1,0 -2,0 -3,-1 -1,0 -1,-1 -2,-2 -1,-2 -1,-4 -2,-7 -1,-2 -2,-5 -3,-8 -1,-3 -2,-6 -3,-9 -1,-4 -2,-7 -3,-10 -1,-3 -1,-6 -2,-9 -1,-3 -1,-6 -2,-9 0,-1 0,-2 1,-3 0,-1 1,-1 3,-1 1,-1 3,-1 5,-1 2,0 4,0 5,0 2,0 3,1 4,1 0,0 1,1 1,3 0,3 1,6 2,10 0,4 1,7 2,11 1,4 1,8 2,11 1,4 2,8 3,11 2,-1 3,-2 5,-4 2,-1 4,-2 6,-3 1,-1 2,-1 3,-1 0,0 1,0 2,1 1,0 2,1 3,1 0,1 1,2 2,2 0,1 1,2 1,2 0,0 -1,1 -2,2 -3,2 -5,4 -8,6zm1 -67c2,-2 4,-4 6,-5 2,-2 5,-4 7,-6 3,-1 5,-3 8,-4 3,-2 5,-1 6,0 1,1 2,2 3,3 1,0 1,1 2,2 1,1 1,2 1,2 0,1 -1,2 -2,3 -2,1 -5,3 -8,5 -2,1 -5,3 -8,5 0,3 1,5 1,7 1,3 1,5 2,8 1,-1 2,-1 3,-2 2,-1 3,-2 5,-3 1,0 2,-1 3,-1 1,0 1,0 2,1 1,1 2,1 3,2 1,1 1,2 2,2 1,1 1,2 1,2 0,1 -1,1 -2,2 -2,2 -5,4 -7,6 -3,2 -5,4 -7,5 0,2 0,3 1,5 0,1 0,3 1,4 2,-1 3,-3 5,-4 2,-1 4,-2 6,-3 1,-1 2,-1 3,-2 1,0 2,1 3,1 1,1 1,1 2,2 1,1 1,1 2,2 1,1 1,1 1,2 0,0 0,1 -2,2 -2,2 -5,4 -7,6 -3,2 -5,4 -8,5 -1,2 -3,3 -4,3 -1,0 -2,0 -3,0 -1,0 -2,0 -2,0 -1,-1 -3,-1 -4,-1 -1,0 -2,-1 -3,-1 -1,-1 -1,-2 -2,-3l-16 -47c2,-2 4,-4 6,-5z"/>
  <polygon class="fil1" points="388,358 383,364 105,400 94,390 "/>
  <path class="fil14" d="M331 543c2,0 26,-4 26,-4l36 -74 -62 78z"/>
  <polygon class="fil1" points="109,298 219,210 197,207 "/>
  <path class="fil11" d="M168 460c3,1 6,3 7,5 2,3 3,6 3,9 0,2 -1,5 -2,9 -1,2 -2,5 -4,7 -2,3 -3,5 -6,8 -2,2 -4,5 -6,7 -2,2 -4,4 -6,6 -2,1 -2,2 -3,3 -1,0 -2,1 -3,1 -1,1 -2,1 -3,1 0,0 -2,0 -3,0 -2,0 -5,0 -7,0 -2,0 -4,0 -7,-1 -1,0 -2,-1 -3,-1 -1,0 -2,-1 -2,-1 -1,-1 -2,-1 -2,-2 -1,-1 -1,-2 -2,-3 -2,-4 -4,-9 -6,-15 -2,-5 -4,-11 -7,-17 -2,-6 -4,-12 -7,-18 -2,-6 -5,-11 -7,-16 1,-3 4,-6 6,-9 3,-3 6,-6 9,-9 3,-2 7,-5 10,-7 4,-2 7,-4 11,-6 3,-2 7,-3 10,-3 3,-1 6,-1 9,0 3,1 7,3 10,5 3,2 5,4 8,7 1,2 2,4 3,6 0,2 1,4 1,6 0,2 0,4 -1,6 -1,2 -1,4 -2,6 -1,2 -2,5 -3,7 -1,2 -2,4 -4,6 3,0 6,1 9,3zm-30 -7c2,-4 4,-7 5,-10 1,-3 2,-6 2,-9 0,-2 0,-3 -1,-4 -1,-1 -2,-1 -3,-1 -1,0 -3,1 -5,2 -2,1 -4,2 -6,4 -2,2 -4,5 -6,7 0,4 1,7 2,11 1,3 2,7 3,11 3,-4 6,-7 9,-11zm-2 38c1,3 2,6 3,9 3,-3 5,-5 8,-8 2,-3 4,-5 5,-8 1,-2 2,-4 2,-6 0,-2 0,-3 -1,-4 0,-1 -1,-1 -3,-1 -1,0 -2,0 -4,1 -2,1 -4,2 -6,3 -2,1 -4,3 -6,6 1,3 1,6 2,8zm54 -98c1,1 1,2 2,4 1,4 1,8 2,12 1,5 2,9 3,14 1,5 3,10 4,15 1,5 2,10 4,15 1,5 2,9 3,13 1,5 3,9 4,12 0,1 0,2 -1,3 0,0 -1,1 -3,1 -2,1 -4,1 -6,2 -2,0 -3,0 -5,0 -2,0 -4,0 -5,-1 -1,-1 -2,-2 -2,-4 -1,-2 -3,-5 -4,-9 -2,-4 -3,-8 -5,-13 -1,-5 -3,-10 -5,-15 -2,-5 -3,-11 -5,-16 -2,-5 -3,-10 -4,-14 -2,-5 -3,-9 -4,-13 0,-2 0,-3 1,-4 1,-1 2,-2 5,-3 2,0 5,0 8,-1 3,0 5,0 8,0 2,1 4,1 5,2zm76 0c-1,1 -2,1 -3,2 -5,2 -10,2 -13,1 -3,-1 -6,-3 -8,-6 0,-1 -1,-1 -1,-2 -1,0 -1,-1 -1,-2 -1,0 -1,-1 -1,-2 -1,0 -1,-1 -2,-2 -1,-1 -1,-2 -2,-3 -1,0 -1,-1 -2,0 -2,0 -3,1 -4,4 -1,2 -2,5 -2,9 -1,4 -1,8 -1,13 0,4 1,9 2,14 0,3 1,7 2,11 2,3 3,7 5,9 1,3 3,5 5,7 2,2 3,2 5,2 2,0 3,-1 4,-2 1,-1 1,-3 2,-5 1,-2 1,-4 1,-7 0,-2 0,-5 0,-8 -3,3 -7,3 -10,3 -3,-1 -6,-2 -9,-5 -1,-1 -1,-2 -1,-3 0,0 0,-1 1,-2 0,0 1,-1 2,-2 1,0 2,-1 3,-2 3,-2 5,-4 7,-5 3,-2 5,-4 7,-5 2,-1 4,-2 5,-3 2,0 4,0 6,1 1,0 2,1 3,1 1,1 2,1 3,2 2,1 4,2 4,3 1,1 2,3 2,5 0,7 0,14 -1,19 -1,6 -3,11 -5,15 -2,3 -4,5 -7,7 -2,2 -5,3 -8,4 -5,2 -11,4 -17,4 -2,0 -5,0 -7,-1 -3,-1 -5,-2 -7,-3 -3,-2 -6,-5 -9,-9 -3,-4 -5,-8 -7,-13 -2,-4 -4,-9 -5,-15 -1,-5 -2,-10 -2,-16 0,-6 0,-11 1,-17 1,-5 3,-10 5,-15 1,-1 2,-3 3,-4 1,-1 2,-2 4,-3 1,-1 2,-2 4,-3 1,0 3,-1 4,-1 2,-1 4,-2 6,-2 2,-1 4,-1 6,-1 2,-1 4,-1 6,-1 2,0 4,1 5,1 4,1 6,2 8,3 2,2 4,4 6,7 1,1 1,3 2,4 1,2 2,4 3,6 0,1 1,3 2,5 0,2 1,3 1,4 0,2 0,3 0,4z"/>
  <g id="_822374600">
   <path class="fil1" d="M311 334c-8,0 -8,14 1,14 8,0 8,-14 -1,-14zm0 -4c16,0 16,22 1,22 -15,1 -16,-22 -1,-22z"/>
   <polygon class="fil1" points="331,334 331,339 337,339 337,343 331,343 332,352 327,352 327,330 338,330 338,334 "/>
   <polygon class="fil1" points="346,334 346,338 351,338 352,343 346,343 346,352 342,352 341,330 352,330 352,334 "/>
   <path class="fil1" d="M337 320c6,0 6,-9 0,-9 -5,0 -5,9 0,9zm1 6c-15,0 -15,-21 -1,-21 15,0 15,20 1,21zm-26 -33c6,0 5,-9 0,-9 -6,0 -6,9 0,9zm32 -14l-30 47 -9 0 30 -47 9 0zm-32 20c-14,0 -15,-20 0,-21 14,0 14,21 0,21z"/>
  </g>
  <path class="fil1" d="M134 318l28 0 0 13 -27 1 -1 -14zm59 10c1,0 2,0 3,0 5,-1 9,0 13,1 4,1 7,3 9,5 3,3 5,5 6,8 1,4 2,7 2,11 0,4 -1,8 -2,11 -2,3 -4,6 -6,9 -3,3 -6,5 -10,6 -4,2 -9,2 -14,2 -4,0 -7,0 -10,-1 -3,0 -6,-1 -8,-2l-1 -13c4,1 7,2 9,3 3,0 6,1 8,1 4,0 7,-1 9,-2 2,0 4,-1 6,-3 1,-1 2,-3 3,-4 0,-2 1,-4 1,-6 0,-3 -1,-5 -2,-7 0,-1 -2,-3 -3,-4 -2,-1 -4,-2 -6,-3 -3,0 -6,-1 -10,0 -1,0 -4,0 -6,0 -2,0 -4,0 -7,1l6 -46 42 -1 0 14 -29 0 -3 20zm82 -4c0,-6 -1,-11 -4,-14 -2,-4 -5,-5 -10,-5 -4,0 -7,1 -10,5 -2,3 -3,8 -3,14 0,7 1,12 4,15 2,3 6,5 10,5 4,0 7,-2 10,-5 2,-4 3,-9 3,-15zm15 0c0,4 0,9 -1,12 -2,4 -3,8 -6,11 -2,2 -5,5 -9,6 -3,2 -7,3 -12,3 -5,0 -9,-1 -12,-2 -4,-2 -7,-4 -9,-7 -3,-3 -5,-6 -6,-10 -1,-4 -2,-8 -2,-12 0,-5 0,-9 2,-13 1,-4 3,-7 5,-10 2,-3 5,-5 9,-7 3,-2 8,-3 12,-3 5,0 9,1 13,3 3,1 6,3 9,6 2,3 4,6 5,10 1,4 2,8 2,13z"/>
  <path class="fil16" d="M101 595l0 12 -4 0 0 -28 4 0 0 12 5 0 0 -12 5 0 0 28 -5 0 0 -12 -5 0zm24 -16l4 28 -4 0 -1 -5 -5 0 -1 5 -4 0 4 -28 7 0zm-4 5l-2 14 4 0 -2 -14zm15 -1l0 -4 13 0 0 4 -4 0 0 24 -4 0 0 -24 -5 0zm20 2l0 15c0,2 1,3 3,3 1,0 2,-1 2,-3l0 -15c0,-1 -1,-2 -2,-2 -2,0 -3,1 -3,2zm-4 15l0 -14c0,-3 1,-4 2,-5 1,-2 3,-2 5,-2 2,0 3,0 5,2 1,1 1,2 1,5l0 14c0,2 0,4 -1,5 -2,2 -3,2 -5,2 -2,0 -4,0 -5,-2 -1,-1 -2,-3 -2,-5zm24 -21c2,0 4,1 5,2 1,1 1,2 1,4l0 1c0,3 -1,5 -3,6 3,1 4,3 4,6l0 2c0,2 -1,4 -2,5 -1,1 -3,2 -5,2l-7 0 0 -28 7 0zm-1 15l-2 0 0 9 3 0c1,0 1,0 2,-1 0,0 0,-1 0,-2l0 -2c0,-2 0,-2 0,-3 -1,0 -2,-1 -3,-1zm1 -11l-3 0 0 7 2 0c1,0 2,0 2,0 1,-1 1,-2 1,-3l0 -1c0,-2 -1,-3 -2,-3zm20 -4l4 28 -4 0 -1 -5 -5 0 -1 5 -4 0 5 -28 6 0zm-3 5l-3 14 5 0 -2 -14zm17 -5c4,0 6,2 6,7l0 4c0,4 -2,6 -6,6l-2 0 0 11 -5 0 0 -28 7 0zm0 4l-2 0 0 9 2 0c1,0 1,0 1,0 1,-1 1,-1 1,-2l0 -4c0,-1 0,-2 -1,-2 0,-1 0,-1 -1,-1zm16 24l-7 0 0 -28 5 0 0 10 2 0c4,0 6,3 6,7l0 4c0,5 -2,7 -6,7zm-2 -4l2 0c1,0 1,0 1,-1 1,0 1,-1 1,-2l0 -4c0,-1 0,-2 -1,-2 0,0 0,-1 -1,-1l-2 0 0 10zm15 4l-4 0 0 -28 4 0 0 28zm16 -28c2,0 4,1 5,2 1,1 2,2 2,4l0 1c0,3 -1,5 -3,6 2,1 3,3 3,6l0 2c0,2 -1,4 -2,5 -1,1 -3,2 -5,2l-7 0 0 -28 7 0zm0 15l-2 0 0 9 2 0c1,0 2,0 2,-1 0,0 1,-1 1,-2l0 -2c0,-2 -1,-2 -1,-3 -1,0 -1,-1 -2,-1zm0 -11l-2 0 0 7 2 0c0,0 1,0 1,0 1,-1 1,-2 1,-3l0 -1c0,-2 -1,-3 -2,-3zm26 24l-5 -11 -1 2 0 9 -4 0 0 -28 4 0 0 12 6 -12 4 0 -6 12 6 16 -4 0zm17 -28l4 28 -4 0 -1 -5 -5 0 -1 5 -4 0 4 -28 7 0zm-4 5l-2 14 4 0 -2 -14zm10 -1l0 -4 14 0 0 4 -5 0 0 24 -4 0 0 -24 -5 0zm26 -4l5 28 -5 0 -1 -5 -5 0 -1 5 -4 0 5 -28 6 0zm-3 5l-2 14 4 0 -2 -14zm9 23l0 -4c1,0 2,0 3,-1 0,0 0,-1 0,-2l1 -21 12 0 0 28 -4 0 0 -24 -4 0 -1 17c0,2 0,4 -1,5 -1,1 -3,2 -5,2l-1 0zm24 -22l0 15c0,2 1,3 3,3 1,0 2,-1 2,-3l0 -15c0,-1 -1,-2 -2,-2 -2,0 -3,1 -3,2zm-4 15l0 -14c0,-3 1,-4 2,-5 1,-2 3,-2 5,-2 2,0 4,0 5,2 1,1 1,2 1,5l0 14c0,2 0,4 -1,5 -1,2 -3,2 -5,2 -2,0 -4,0 -5,-2 -1,-1 -2,-3 -2,-5zm22 7l-5 0 0 -28 12 0 0 4 -7 0 0 24zm15 -24l0 8 6 0 0 4 -6 0 0 8 8 0 0 4 -12 0 0 -28 12 0 0 4 -8 0z"/>
 </g>
</svg>
