<?xml version="1.0" encoding="UTF-8"?>
<!DOCTYPE svg PUBLIC "-//W3C//DTD SVG 1.1//EN" "http://www.w3.org/Graphics/SVG/1.1/DTD/svg11.dtd">
<!-- Creator: CorelDRAW X8 -->
<svg xmlns="http://www.w3.org/2000/svg" xml:space="preserve" width="100.841mm" height="161.173mm" version="1.1" style="shape-rendering:geometricPrecision; text-rendering:geometricPrecision; image-rendering:optimizeQuality; fill-rule:evenodd; clip-rule:evenodd"
viewBox="0 0 443 707"
 xmlns:xlink="http://www.w3.org/1999/xlink">
 <defs>
  <style type="text/css">
   <![CDATA[
    .str0 {stroke:#E0E0E0;stroke-width:0.334413;stroke-opacity:0.741176}
    .fil2 {fill:none}
    .fil5 {fill:#F2F3F5}
    .fil16 {fill:#FEFEFE;fill-rule:nonzero}
    .fil17 {fill:#474747;fill-rule:nonzero}
    .fil11 {fill:#4F0417;fill-rule:nonzero}
    .fil13 {fill:#730621;fill-rule:nonzero}
    .fil12 {fill:#B0002C;fill-rule:nonzero}
    .fil15 {fill:#B59452;fill-rule:nonzero}
    .fil14 {fill:#D4B476;fill-rule:nonzero}
    .fil10 {fill:#DBDBDB;fill-rule:nonzero}
    .fil1 {fill:white;fill-rule:nonzero}
    .fil0 {fill:url(#id0)}
    .fil3 {fill:url(#id1);fill-rule:nonzero}
    .fil4 {fill:url(#id2);fill-rule:nonzero}
    .fil7 {fill:url(#id3);fill-rule:nonzero}
    .fil8 {fill:url(#id4);fill-rule:nonzero}
    .fil9 {fill:url(#id5);fill-rule:nonzero}
    .fil6 {fill:url(#id6);fill-rule:nonzero}
   ]]>
  </style>
  <linearGradient id="id0" gradientUnits="userSpaceOnUse" x1="16.2133" y1="136.54" x2="426.338" y2="570.788">
   <stop offset="0" style="stop-opacity:1; stop-color:#F71B3F"/>
   <stop offset="1" style="stop-opacity:1; stop-color:#B0002C"/>
  </linearGradient>
  <linearGradient id="id1" gradientUnits="userSpaceOnUse" x1="-0.0555103" y1="353.718" x2="29.4221" y2="353.611">
   <stop offset="0" style="stop-opacity:0.717647; stop-color:#99062B"/>
   <stop offset="0.196078" style="stop-opacity:0; stop-color:#99062B"/>
   <stop offset="0.65098" style="stop-opacity:0; stop-color:#99062B"/>
   <stop offset="1" style="stop-opacity:0; stop-color:#99062B"/>
  </linearGradient>
  <linearGradient id="id2" gradientUnits="userSpaceOnUse" x1="442.607" y1="353.718" x2="413.129" y2="353.611">
   <stop offset="0" style="stop-opacity:0.717647; stop-color:#5C0017"/>
   <stop offset="0.196078" style="stop-opacity:0; stop-color:#5C0017"/>
   <stop offset="0.65098" style="stop-opacity:0; stop-color:#5C0017"/>
   <stop offset="1" style="stop-opacity:0; stop-color:#5C0017"/>
  </linearGradient>
  <linearGradient id="id3" gradientUnits="userSpaceOnUse" x1="221.277" y1="578.55" x2="221.276" y2="473.839">
   <stop offset="0" style="stop-opacity:1; stop-color:#CED2DB"/>
   <stop offset="0.619608" style="stop-opacity:0; stop-color:#E0E2E8"/>
   <stop offset="1" style="stop-opacity:0; stop-color:#F2F3F5"/>
  </linearGradient>
  <linearGradient id="id4" gradientUnits="userSpaceOnUse" x1="-0.0589024" y1="367.615" x2="31.7202" y2="367.401">
   <stop offset="0" style="stop-opacity:0.717647; stop-color:#939AAB"/>
   <stop offset="0.196078" style="stop-opacity:0; stop-color:#AAAFBB"/>
   <stop offset="0.65098" style="stop-opacity:0; stop-color:#C2C5CC"/>
   <stop offset="1" style="stop-opacity:0; stop-color:#C2C5CC"/>
  </linearGradient>
  <linearGradient id="id5" gradientUnits="userSpaceOnUse" xlink:href="#id4" x1="442.612" y1="367.615" x2="410.832" y2="367.401">
  </linearGradient>
  <linearGradient id="id6" gradientUnits="userSpaceOnUse" xlink:href="#id3" x1="221.277" y1="156.467" x2="221.276" y2="261.178">
  </linearGradient>
 </defs>
 <g id="Layer_x0020_1">
  <metadata id="CorelCorpID_0Corel-Layer"/>
  <polygon class="fil0" points="0,0 443,0 443,707 0,707 "/>
  <path class="fil1" d="M122 91l9 0 0 8c0,5 -1,9 -4,12 -2,3 -6,4 -11,4 -5,0 -9,-1 -11,-4 -3,-3 -4,-7 -4,-12l0 -33c0,-5 1,-9 4,-12 2,-3 6,-4 11,-4 5,0 9,1 11,4 3,3 4,7 4,12l0 6 -9 0 0 -7c0,-4 -2,-6 -6,-6 -3,0 -5,2 -5,6l0 35c0,4 2,6 5,6 4,0 6,-2 6,-6l0 -9zm41 24l-10 -26 -3 6 0 20 -10 0 0 -65 10 0 0 28 13 -28 10 0 -14 29 14 36 -10 0zm36 -30l-8 30 -11 0 0 -65 9 0 0 41 4 -14 8 -27 11 0 0 65 -9 0 0 -46 -4 16zm62 38l-10 0 0 -8 -22 0 0 8 -9 0 0 -17 4 0c1,-2 2,-5 2,-9l2 -47 29 0 0 56 4 0 0 17zm-23 -63l-2 37c0,4 -1,7 -3,9l13 0 0 -46 -8 0zm54 55l-10 -26 -3 6 0 20 -10 0 0 -65 10 0 0 28 13 -28 10 0 -14 29 14 36 -10 0zm36 -30l-8 30 -11 0 0 -65 9 0 0 41 4 -14 8 -27 11 0 0 65 -9 0 0 -46 -4 16z"/>
  <polygon class="fil2 str0" points="95,600 348,600 348,666 95,666 "/>
  <path class="fil1" d="M136 623l-5 18c0,2 -1,3 -2,4 -1,1 -2,1 -4,1l0 -2c1,0 2,0 2,-1 1,0 1,0 1,-1l1 -2 -6 -17 3 0 2 8 2 6 1 -6 3 -8 2 0zm8 0c2,0 3,0 4,1 1,1 1,3 1,4l0 3 -2 0 0 -3c0,-2 -1,-3 -3,-3 -2,0 -3,1 -3,3l0 13c0,2 1,3 3,3 2,0 3,-1 3,-3l0 -3 2 0 0 3c0,1 0,3 -1,4 -1,1 -2,1 -4,1 -2,0 -3,0 -4,-1 -1,-1 -1,-3 -1,-4l0 -13c0,-1 0,-3 1,-4 1,-1 2,-1 4,-1zm18 2l-4 0 -1 15c0,2 0,4 -1,5 -1,1 -2,1 -4,1l0 0 0 -2c1,0 2,0 2,-1 0,0 1,-1 1,-2l0 -18 10 0 0 23 -3 0 0 -21zm6 16l0 -13c0,-1 1,-3 2,-4 1,-1 2,-1 4,-1 1,0 3,0 4,1 1,1 1,3 1,4l0 13c0,1 0,3 -1,4 -1,1 -3,1 -4,1 -2,0 -3,0 -4,-1 -1,-1 -2,-3 -2,-4zm3 -13l0 13c0,2 1,3 3,3 1,0 2,-1 2,-3l0 -13c0,-2 -1,-3 -2,-3 -2,0 -3,1 -3,3zm11 -5l6 0c1,0 3,0 4,1 0,1 1,2 1,4l0 1c0,1 0,2 -1,3 0,1 -1,1 -2,2 2,0 3,2 3,5l0 2c0,3 -2,5 -5,5l-6 0 0 -23zm3 10l2 0c1,0 2,-1 2,-1 1,0 1,-1 1,-2l0 -2c0,-1 0,-2 0,-2 -1,-1 -2,-1 -2,-1l-3 0 0 8zm0 11l3 0c2,0 3,-1 3,-3l0 -2c0,-2 -1,-3 -1,-3 -1,-1 -2,-1 -3,-1l-2 0 0 9zm20 -16l-2 7 -4 11 -3 0 0 -23 3 0 0 17 2 -7 4 -10 2 0 0 23 -2 0 0 -18zm14 8l-2 0c-1,0 -2,0 -2,1 -1,1 -1,1 -1,3l0 3c0,2 0,3 -1,3l-2 0c0,0 0,-1 0,-3l0 -3c0,-3 1,-5 3,-5 -2,-1 -3,-2 -3,-5l0 -2c0,-2 1,-3 1,-4 1,-1 3,-1 4,-1l6 0 0 23 -3 0 0 -10zm0 -11l-3 0c-1,0 -2,1 -2,3l0 3c0,1 0,2 0,2 1,1 2,1 3,1l2 0 0 -9zm16 -2l5 0c2,0 3,0 4,1 1,1 1,2 1,4l0 1c0,1 0,2 -1,3 0,1 -1,1 -2,2 2,0 3,2 3,5l0 2c0,3 -1,5 -5,5l-5 0 0 -23zm2 10l2 0c1,0 2,-1 3,-1 0,0 0,-1 0,-2l0 -2c0,-1 0,-2 0,-2 -1,-1 -1,-1 -2,-1l-3 0 0 8zm0 11l3 0c2,0 3,-1 3,-3l0 -2c0,-2 0,-3 -1,-3 0,-1 -1,-1 -2,-1l-3 0 0 9zm20 -8l-6 0 0 10 -2 0 0 -23 2 0 0 10 6 0 0 -10 3 0 0 23 -3 0 0 -10zm18 -13l-5 18c0,2 -1,3 -2,4 -1,1 -2,1 -4,1l0 -2c1,0 2,0 2,-1 1,0 1,0 1,-1l1 -2 -6 -17 3 0 2 8 2 6 1 -6 3 -8 2 0zm9 23l-2 0 0 -21 -5 0 0 -2 12 0 0 2 -5 0 0 21zm7 -23l6 0c3,0 5,2 5,5l0 3c0,4 -2,6 -6,6l-2 0 0 9 -3 0 0 -23zm3 12l2 0c1,0 2,-1 3,-1 0,-1 0,-1 0,-3l0 -3c0,-1 0,-2 0,-2 -1,-1 -1,-1 -2,-1l-3 0 0 10zm20 -7l-3 7 -3 11 -3 0 0 -23 2 0 0 17 3 -7 3 -10 3 0 0 23 -2 0 0 -18z"/>
  <polygon class="fil3" points="0,707 0,0 29,0 29,707 "/>
  <polygon class="fil4" points="443,707 443,0 413,0 413,707 "/>
  <g id="_778618168">
   <polygon class="fil5" points="0,162 443,162 443,573 0,573 "/>
   <polygon class="fil6" points="0,162 443,162 443,256 0,256 "/>
   <polygon class="fil7" points="443,573 0,573 0,479 443,479 "/>
   <polygon class="fil8" points="0,573 0,162 32,162 32,573 "/>
   <polygon class="fil9" points="443,573 443,162 411,162 411,573 "/>
  </g>
  <path class="fil10" d="M338 409c-39,66 -123,89 -187,50 -64,-39 -85,-124 -46,-190 39,-66 122,-88 186,-50 65,39 85,124 47,190z"/>
  <path class="fil11" d="M343 399c-39,66 -122,88 -186,50 -65,-39 -85,-124 -47,-190 39,-66 123,-89 187,-50 64,38 85,123 46,190z"/>
  <path class="fil12" d="M370 333c-7,-71 -65,-126 -137,-126 -72,1 -133,57 -141,128l278 -2z"/>
  <path class="fil13" d="M370 333c-1,-6 -2,-12 -3,-19l0 0 0 0c-5,-20 -14,-38 -26,-53 5,17 7,36 5,55l-212 19 230 1 1 -3 5 0z"/>
  <path class="fil14" d="M79 335c7,72 65,127 137,126 72,0 132,-56 140,-128l-277 2z"/>
  <path class="fil15" d="M356 333l-13 0c0,3 -1,6 -2,9l-1 -1 -258 4 257 6c-23,65 -84,107 -151,108 9,1 18,2 28,2 72,0 132,-56 140,-128z"/>
  <g id="_778623400">
   <path class="fil11" d="M142 404c0,2 0,4 -1,6 0,1 0,2 0,2 -1,0 -2,0 -3,0 -1,0 -2,-1 -3,-1 -1,0 -2,-1 -2,-1 -1,0 -2,-1 -2,-2 -1,0 -1,-1 -1,-2 1,-1 1,-3 1,-5 1,-3 1,-5 1,-8 0,-3 1,-6 1,-10 0,-3 0,-6 0,-9 1,-2 1,-5 1,-7 0,-1 1,-2 1,-3 2,0 3,-1 5,-2 2,-1 4,-2 6,-3 2,0 4,-1 6,-2 2,0 4,0 6,0 2,-1 4,0 6,0 1,1 3,1 4,3 1,1 3,3 4,4 1,2 2,5 3,7 0,1 0,3 0,4 0,1 -1,2 -1,3 0,1 -1,2 -2,3 0,1 -1,2 -2,2 -1,2 -3,3 -5,5 -2,1 -4,2 -6,3 -3,2 -5,3 -8,4 -2,1 -5,1 -7,2 -1,3 -1,5 -2,7zm12 -22c2,-1 4,-3 5,-4 2,-2 3,-3 3,-4 1,-2 1,-3 1,-4 -1,0 -1,-1 -2,-1 -1,0 -2,0 -3,0 -1,0 -2,0 -4,0 -1,1 -3,1 -4,2 -1,2 -1,4 -2,7 -1,2 -1,5 -2,7 3,-1 6,-2 8,-3z"/>
   <path class="fil11" d="M186 403c0,2 -1,4 -1,7 -1,0 -1,1 -1,1 0,0 -1,0 -2,0 -1,0 -2,-1 -3,-1 -1,0 -2,0 -3,-1 0,0 -1,-1 -1,-1 -1,-1 -1,-2 -1,-3 0,-1 1,-2 1,-4 0,-1 0,-3 0,-5 0,-2 1,-5 1,-7 0,-2 0,-5 1,-7 0,-3 0,-5 1,-7 0,-2 0,-5 1,-6 0,-2 0,-4 1,-5 0,-1 1,-2 1,-2 3,-1 6,-2 8,-4 3,-1 6,-2 9,-2 2,-1 5,-1 7,0 3,0 5,1 7,3 1,1 3,3 4,5 1,2 2,4 3,7 0,2 0,5 -1,6 -1,3 -4,6 -7,8 -3,3 -7,5 -12,7 1,1 2,2 3,4 2,1 3,2 4,3 1,1 2,2 4,4 1,1 2,2 3,2 1,1 1,2 1,2 0,1 0,1 -1,1 -1,1 -1,1 -2,1 0,1 -1,1 -2,1 -1,0 -2,0 -3,0 -1,0 -2,0 -4,-1 -1,-1 -2,-2 -3,-3 -1,-1 -3,-2 -4,-3 -1,-1 -3,-2 -4,-4 -1,-1 -2,-2 -4,-4 0,3 -1,5 -1,8zm6 -26c-1,2 -1,5 -2,8 3,-1 5,-3 8,-4 2,-1 4,-3 5,-4 1,-2 3,-3 3,-4 1,-2 1,-3 1,-3 -1,-2 -2,-2 -5,-2 -1,0 -2,0 -4,0 -1,1 -3,1 -4,2 -1,2 -1,4 -2,7zm47 -15c0,1 0,1 0,3 0,1 -1,4 -2,6 0,2 -1,5 -2,8 0,2 -1,5 -2,8 0,3 -1,5 -1,8 -1,3 -2,5 -2,8 -1,2 -1,4 -1,6 0,1 -1,1 -1,1 0,1 -1,1 -2,0 -1,0 -2,0 -3,0 -1,-1 -2,-1 -3,-2 -1,0 -2,-1 -2,-1 0,-1 0,-2 0,-3 0,-1 0,-3 0,-5 0,-3 1,-5 1,-8 0,-3 1,-5 1,-8 1,-4 1,-6 2,-9 0,-3 1,-6 1,-9 1,-2 1,-4 1,-6 1,-2 1,-2 2,-3 1,0 2,0 3,0 1,1 3,1 4,2 2,1 3,1 4,2 1,1 2,1 2,2zm34 36c0,1 -1,2 -1,3 -1,1 -2,3 -3,4 -1,1 -2,2 -3,3 -1,1 -2,1 -3,1 0,1 -1,1 -2,1 -1,0 -2,1 -3,1 -1,0 -2,0 -3,0 -2,0 -3,-1 -5,-1 -2,-1 -3,-1 -4,-1 -1,-1 -2,-2 -4,-2 -1,-1 -2,-2 -2,-3 -1,-2 -2,-4 -3,-7 0,-2 0,-5 0,-7 0,-3 0,-6 1,-9 1,-3 2,-6 3,-9 1,-2 2,-5 4,-7 2,-3 3,-5 6,-7 1,-2 3,-3 5,-3 2,0 3,-1 5,-1 1,1 2,1 3,1 2,0 3,1 4,1 1,0 2,1 3,1 1,1 2,1 3,2 1,1 2,1 2,2 1,1 1,1 1,2 1,1 1,1 1,2 0,1 0,1 0,2 0,1 0,2 0,3 0,1 0,2 0,3 0,1 0,2 0,3 -1,1 -1,2 -1,3 0,0 0,0 0,1 0,0 -1,0 -1,0 0,1 0,1 -1,1 0,0 -1,0 -2,0 -1,-1 -2,-1 -3,-1 -1,-1 -2,-1 -2,-2 -1,0 -1,-1 -2,-2 0,-1 0,-2 -1,-3 0,0 0,-1 0,-2 0,-1 0,-3 0,-4 0,-1 -1,-1 -2,-2 0,0 -1,1 -3,2 -1,1 -2,2 -3,4 -1,2 -2,5 -3,7 -1,2 -2,4 -2,6 -1,2 -1,4 -1,7 -1,2 -1,3 -1,5 0,2 1,3 1,4 1,2 1,2 2,2 2,1 4,-1 8,-4 2,-3 5,-3 9,-2 2,0 3,1 3,2zm16 -40c2,-1 4,-1 6,-2 3,0 5,-1 8,-1 2,0 5,-1 7,-1 3,0 4,1 5,3 0,1 1,2 1,3 0,0 0,1 1,2 0,1 0,2 -1,2 0,1 -1,1 -2,1 -2,1 -5,1 -8,1 -2,1 -5,1 -8,1 -1,2 -1,4 -2,6 0,2 -1,4 -1,7 1,-1 2,-1 3,-1 2,0 3,0 4,0 2,0 2,0 3,0 1,0 1,1 2,2 0,1 1,1 1,2 0,1 1,2 1,3 0,1 0,1 0,2 0,0 -1,0 -2,0 -3,1 -5,1 -8,2 -2,0 -5,1 -7,1 -1,2 -1,3 -1,4 -1,1 -1,2 -1,4 2,-1 4,-1 5,-1 2,0 4,-1 6,-1 1,0 2,0 3,0 1,1 1,1 2,2 0,1 0,1 1,2 0,1 0,2 1,2 0,1 0,2 0,2 -1,0 -1,1 -2,1 -3,0 -6,1 -8,2 -3,0 -6,1 -8,1 -2,1 -3,1 -4,0 -1,0 -2,0 -2,0 -1,-1 -2,-1 -2,-2 -1,0 -2,-1 -2,-2 -1,0 -2,-1 -2,-2 -1,0 -1,-1 -1,-3l6 -41c1,0 3,-1 6,-1z"/>
  </g>
  <polygon class="fil1" points="62,345 367,341 380,329 79,335 "/>
  <path class="fil15" d="M81 322c0,0 9,-96 89,-134l3 -18c0,0 -100,44 -92,152z"/>
  <path class="fil14" d="M362 382c0,0 -26,83 -109,102l-14 21c0,0 104,-15 123,-123z"/>
  <g id="_778624744">
   <path class="fil16" d="M287 294c-8,1 -8,13 0,13 8,0 8,-13 0,-13zm0 -4c14,0 14,21 0,21 -13,0 -13,-21 0,-21z"/>
   <polygon class="fil16" points="306,295 306,299 311,299 311,303 306,303 306,311 302,311 302,291 312,291 312,295 "/>
   <polygon class="fil16" points="319,295 319,299 324,299 324,303 319,303 319,311 315,311 315,291 325,291 325,295 "/>
   <path class="fil16" d="M311 281c6,0 6,-8 0,-8 -5,0 -5,8 0,8zm0 6c-13,0 -13,-19 0,-19 13,0 14,19 0,19zm-23 -30c5,0 5,-8 0,-8 -5,0 -5,8 0,8zm30 -13l-28 43 -9 0 28 -43 9 0zm-30 18c-13,0 -13,-19 0,-19 13,0 13,19 0,19z"/>
  </g>
  <path class="fil1" d="M123 289l29 0 0 -12 -29 0 0 12zm53 -7l9 -17c2,-4 4,-8 6,-12l1 0c0,5 -1,12 -1,17l0 12 -15 0zm40 0l-9 0 0 -44 -21 0 -27 45 0 12 32 0 0 18 16 0 0 -18 9 0 0 -13zm31 32c15,0 27,-10 27,-26 0,-16 -11,-23 -23,-23 -3,0 -6,0 -9,2l2 -14 27 -1 0 -14 -42 0 -2 38 8 5c4,-3 6,-4 10,-4 7,0 12,4 12,11 0,8 -5,12 -12,12 -7,0 -12,-3 -16,-7l-8 11c6,5 14,10 26,10z"/>
  <path class="fil17" d="M46 297l-3 0 0 -2 -7 0 0 2 -3 0 0 -5 2 0c0,-1 0,-1 0,-3l1 -14 9 0 0 17 1 0 0 5zm-7 -19l-1 11c0,2 0,3 -1,3l4 0 0 -14 -2 0zm12 2l0 10c0,2 1,2 2,2 1,0 1,0 1,-2l0 -10c0,-2 0,-2 -1,-2 -1,0 -2,0 -2,2zm-3 10l0 -10c0,-2 1,-3 1,-4 1,-1 2,-1 4,-1 1,0 3,0 3,1 1,1 2,2 2,4l0 10c0,2 -1,3 -2,4 0,1 -2,1 -3,1 -2,0 -3,0 -4,-1 0,-1 -1,-2 -1,-4z"/>
  <path class="fil17" d="M87 536l0 11 -4 0 0 -25 4 0 0 11 5 0 0 -11 4 0 0 25 -4 0 0 -11 -5 0zm21 -14l4 25 -4 0 0 -5 -5 0 -1 5 -3 0 4 -25 5 0zm-3 4l-2 13 4 0 -2 -13zm14 -1l0 -3 12 0 0 3 -4 0 0 22 -4 0 0 -22 -4 0zm18 3l0 13c0,2 1,3 2,3 1,0 2,-1 2,-3l0 -13c0,-2 -1,-3 -2,-3 -1,0 -2,1 -2,3zm-4 13l0 -13c0,-2 1,-4 2,-5 1,-1 2,-1 4,-1 2,0 3,0 4,1 1,1 2,3 2,5l0 13c0,2 -1,3 -2,5 -1,1 -2,1 -4,1 -2,0 -3,0 -4,-1 -1,-2 -2,-3 -2,-5zm21 -19c2,0 4,0 5,1 1,1 1,3 1,5l0 1c0,2 -1,4 -2,5 2,0 3,2 3,5l0 2c0,2 -1,3 -2,4 -1,1 -2,2 -4,2l-7 0 0 -25 6 0zm0 14l-2 0 0 7 3 0c0,0 1,0 1,0 1,-1 1,-1 1,-2l0 -2c0,-1 -1,-2 -1,-3 0,0 -1,0 -2,0zm0 -11l-2 0 0 7 2 0c1,0 1,0 2,-1 0,0 0,-1 0,-2l0 -1c0,-2 0,-3 -2,-3zm19 -3l4 25 -4 0 -1 -5 -5 0 -1 5 -3 0 4 -25 6 0zm-3 4l-2 13 3 0 -1 -13zm15 -4c4,0 6,2 6,6l0 3c0,4 -2,7 -6,7l-2 0 0 9 -4 0 0 -25 6 0zm0 3l-2 0 0 9 2 0c1,0 1,0 2,-1 0,0 0,-1 0,-1l0 -4c0,-1 0,-2 0,-2 -1,0 -1,-1 -2,-1zm15 22l-6 0 0 -25 4 0 0 9 2 0c3,0 5,2 5,6l0 4c0,4 -2,6 -5,6zm-2 -4l2 0c0,0 1,0 1,0 0,-1 1,-1 1,-2l0 -4c0,-1 -1,-1 -1,-2 0,0 -1,0 -1,0l-2 0 0 8zm14 4l-4 0 0 -25 4 0 0 25zm14 -25c2,0 3,0 4,1 1,1 2,3 2,5l0 1c0,2 -1,4 -3,5 2,0 3,2 3,5l0 2c0,2 0,3 -1,4 -1,1 -3,2 -5,2l-6 0 0 -25 6 0zm0 14l-2 0 0 7 2 0c1,0 1,0 2,0 0,-1 0,-1 0,-2l0 -2c0,-1 0,-2 0,-3 -1,0 -1,0 -2,0zm0 -11l-2 0 0 7 1 0c1,0 2,0 2,-1 1,0 1,-1 1,-2l0 -1c0,-2 -1,-3 -2,-3zm23 22l-4 -10 -1 2 0 8 -4 0 0 -25 4 0 0 11 5 -11 4 0 -5 11 5 14 -4 0zm15 -25l4 25 -4 0 0 -5 -5 0 -1 5 -3 0 4 -25 5 0zm-3 4l-2 13 4 0 -2 -13zm9 -1l0 -3 12 0 0 3 -4 0 0 22 -4 0 0 -22 -4 0zm24 -3l4 25 -4 0 -1 -5 -5 0 -1 5 -3 0 4 -25 6 0zm-3 4l-2 13 3 0 -1 -13zm8 21l0 -4c1,0 2,0 2,0 0,0 1,-1 1,-2l0 -19 11 0 0 25 -4 0 0 -22 -3 0 0 16c-1,2 -1,4 -2,4 -1,1 -2,2 -4,2l-1 0zm22 -19l0 13c0,2 1,3 2,3 1,0 2,-1 2,-3l0 -13c0,-2 -1,-3 -2,-3 -1,0 -2,1 -2,3zm-4 13l0 -13c0,-2 1,-4 2,-5 1,-1 2,-1 4,-1 2,0 3,0 4,1 1,1 2,3 2,5l0 13c0,2 -1,3 -2,5 -1,1 -2,1 -4,1 -2,0 -3,0 -4,-1 -1,-2 -2,-3 -2,-5zm19 6l-4 0 0 -25 11 0 0 3 -7 0 0 22zm14 -22l0 7 6 0 0 4 -6 0 0 7 7 0 0 4 -11 0 0 -25 11 0 0 3 -7 0z"/>
 </g>
</svg>
