<?xml version="1.0" encoding="UTF-8" standalone="no"?>
<svg
   xmlns:dc="http://purl.org/dc/elements/1.1/"
   xmlns:cc="http://creativecommons.org/ns#"
   xmlns:rdf="http://www.w3.org/1999/02/22-rdf-syntax-ns#"
   xmlns:svg="http://www.w3.org/2000/svg"
   xmlns="http://www.w3.org/2000/svg"
   viewBox="0 0 305.33334 57.333332"
   height="57.333332"
   width="305.33334"
   xml:space="preserve"
   id="svg2"
   version="1.1"><metadata
     id="metadata8"><rdf:RDF><cc:Work
         rdf:about=""><dc:format>image/svg+xml</dc:format><dc:type
           rdf:resource="http://purl.org/dc/dcmitype/StillImage" /></cc:Work></rdf:RDF></metadata><defs
     id="defs6" /><g
     transform="matrix(1.3333333,0,0,-1.3333333,0,57.333333)"
     id="g10"><g
       transform="scale(0.1)"
       id="g12"><path
         id="path14"
         style="fill:#474747;fill-opacity:1;fill-rule:nonzero;stroke:none"
         d="M 2.96875,153.152 H 26.6016 c 8.25,0 14.1484,-2.668 17.6953,-8.011 3.5312,-5.344 5.3047,-13.426 5.3047,-24.25 v -8.664 C 49.6016,103.566 48.5,96.8164 46.2969,91.9805 44.1094,87.1484 40.2734,83.9336 34.8047,82.3438 46.0625,79.3164 51.6875,68.4883 51.6875,49.8633 V 36.6563 C 51.6875,13.2695 43.4844,1.57422 27.0938,1.57422 H 2.96875 Z M 10.3594,86.2422 h 12.5469 c 6.8593,0 11.789,1.6992 14.7968,5.0898 3,3.3907 4.4922,9.707 4.4922,18.945 v 9.746 c 0,8.227 -1.1719,14.293 -3.5312,18.188 -2.3516,3.898 -6.4297,5.852 -12.2188,5.852 H 10.3594 Z m 0,-75.5742 h 16.7344 c 11.4609,0 17.2031,8.7343 17.2031,26.207 v 13.6367 c 0,9.6758 -1.6094,16.5313 -4.8281,20.5742 -3.2188,4.043 -8.2579,6.0625 -15.1094,6.0625 h -14 z m 60.7812,80.125 h 13.8282 c 8.8984,0 15.5002,-2.961 19.7892,-8.8789 4.289,-5.918 6.422,-14.9414 6.422,-27.0703 V 38.3867 c 0,-24.539 -8.086,-36.81248 -24.2737,-36.81248 H 63.75 V 153.152 h 7.3906 z m 50.6564,62.359 h 7.391 V 1.57422 h -7.391 z M 71.1406,10.668 h 15.7657 c 11.2578,0 16.8827,9.0234 16.8827,27.0703 v 17.7539 c 0,9.2383 -1.508,15.918 -4.4999,20.0312 -3.0078,4.1172 -7.7735,6.1719 -14.3203,6.1719 H 71.1406 Z M 209.438,144.063 H 174.375 V 1.57422 h -7.391 V 153.152 h 50.008 V 1.57422 h -7.554 z m 70.265,0 h -27.5 l -2.89,-105.4575 c -0.211,-5.7735 -0.594,-10.6485 -1.125,-14.6172 -0.54,-3.9688 -1.477,-7.7969 -2.813,-11.4766 -1.344,-3.68357 -3.328,-6.42576 -5.953,-8.23045 -2.625,-1.80078 -5.922,-2.77734 -9.891,-2.92187 h -1.445 v 9.09372 c 3,0 5.469,0.6875 7.391,2.0586 1.937,1.3672 3.336,3.5352 4.195,6.4961 0.844,2.957 1.414,5.7735 1.672,8.4453 0.281,2.668 0.461,6.3164 0.57,10.9336 l 3.383,114.7653 h 41.961 V 1.57422 h -7.555 z M 346.109,35.1367 H 311.063 L 305.43,1.57422 h -6.75 L 323.281,153.367 h 10.774 L 359.133,1.57422 h -7.399 z M 328.422,141.895 312.18,43.8008 h 32.804 z M 398.859,1.57422 h -7.398 V 144.063 h -23 v 9.089 h 53.391 v -9.089 H 398.859 Z M 476.203,135.613 459.156,71.9531 440.828,1.57422 h -8.047 V 153.152 h 6.758 V 23.4453 l 13.024,50.0195 21.546,79.6872 h 8.844 V 1.57422 h -6.75 z M 524.125,1.57422 h -7.398 V 144.063 h -23 v 9.089 h 53.382 v -9.089 h -22.984 z m 41.32,81.42188 h 30.711 V 73.8984 H 565.445 V 10.668 H 602.43 V 1.57422 H 558.047 V 153.152 h 44.383 v -9.089 H 565.445 Z M 667.875,1.57422 h -7.398 V 144.063 h -22.993 v 9.089 h 53.383 v -9.089 H 667.875 Z M 701.32,38.6055 v 77.5195 c 0,11.547 2.063,20.82 6.188,27.824 4.125,7 10.265,10.504 18.414,10.504 8.359,0 14.609,-3.465 18.734,-10.39 4.125,-6.934 6.188,-16.247 6.188,-27.938 V 38.6055 c 0,-11.6914 -2.063,-21.0039 -6.188,-27.9375 -4.125,-6.92581 -10.375,-10.390656 -18.734,-10.390656 -8.149,0 -14.289,3.499996 -18.414,10.503956 -4.125,7 -6.188,16.2734 -6.188,27.8242 z m 7.399,78.1675 V 37.9531 c 0,-8.8047 1.39,-15.7695 4.179,-20.8945 2.79,-5.125 7.125,-7.68751 13.024,-7.68751 6,0 10.422,2.56251 13.266,7.68751 2.835,5.125 4.265,12.0898 4.265,20.8945 v 78.8199 c 0,8.805 -1.43,15.77 -4.265,20.895 -2.844,5.129 -7.266,7.687 -13.266,7.687 -5.899,0 -10.234,-2.558 -13.024,-7.687 -2.789,-5.125 -4.179,-12.09 -4.179,-20.895 z m 104.195,27.29 H 785.422 L 782.523,38.6055 c -0.21,-5.7735 -0.585,-10.6485 -1.125,-14.6172 -0.531,-3.9688 -1.476,-7.7969 -2.812,-11.4766 -1.336,-3.68357 -3.32,-6.42576 -5.945,-8.23045 -2.633,-1.80078 -5.93,-2.77734 -9.899,-2.92187 h -1.445 v 9.09372 c 3.008,0 5.469,0.6875 7.398,2.0586 1.93,1.3672 3.321,3.5352 4.18,6.4961 0.859,2.957 1.422,5.7735 1.688,8.4453 0.273,2.668 0.453,6.3164 0.562,10.9336 l 3.383,114.7653 h 41.969 V 1.57422 h -7.563 z m 27.984,-53.27 h 13.829 c 8.898,0 15.492,-2.961 19.773,-8.8789 4.289,-5.918 6.438,-14.9414 6.438,-27.0703 V 38.3867 c 0,-24.539 -8.094,-36.81248 -24.282,-36.81248 H 833.5 V 153.152 h 7.398 z m 0,-80.125 h 15.758 c 11.25,0 16.883,9.0234 16.883,27.0703 v 17.7539 c 0,9.2383 -1.5,15.918 -4.5,20.0312 -3.008,4.1172 -7.773,6.1719 -14.312,6.1719 h -13.829 z m 98.25,-9.09378 -31.039,71.24218 -7.711,-16.457 V 1.57422 h -7.406 V 153.152 h 7.406 V 73.0352 l 36.657,80.1168 h 7.718 L 912.609,82.5625 946.859,1.57422 Z m 18.329,37.03128 v 77.5195 c 0,11.547 2.062,20.82 6.187,27.824 4.133,7 10.266,10.504 18.414,10.504 8.36,0 14.61,-3.465 18.732,-10.39 4.13,-6.934 6.2,-16.247 6.2,-27.938 V 38.6055 c 0,-11.6914 -2.07,-21.0039 -6.2,-27.9375 -4.122,-6.92581 -10.372,-10.390656 -18.732,-10.390656 -8.148,0 -14.281,3.499996 -18.414,10.503956 -4.125,7 -6.187,16.2734 -6.187,27.8242 z m 7.398,78.1675 V 37.9531 c 0,-8.8047 1.391,-15.7695 4.18,-20.8945 2.789,-5.125 7.125,-7.68751 13.023,-7.68751 6.008,0 10.43,2.56251 13.266,7.68751 2.844,5.125 4.258,12.0898 4.258,20.8945 v 78.8199 c 0,8.805 -1.414,15.77 -4.258,20.895 -2.836,5.129 -7.258,7.687 -13.266,7.687 -5.898,0 -10.234,-2.558 -13.023,-7.687 -2.789,-5.125 -4.18,-12.09 -4.18,-20.895 z m 84.985,27.395 c 3.91,6.855 9.99,10.285 18.25,10.285 8.25,0 14.37,-3.465 18.33,-10.39 3.97,-6.934 5.95,-16.247 5.95,-27.938 v -3.898 c 0,-7.508 -1.34,-14.0395 -4.02,-19.5981 -2.68,-5.5586 -6.43,-9.418 -11.25,-11.582 5.04,-1.8789 8.83,-5.5586 11.41,-11.0469 2.57,-5.4844 3.86,-12.0508 3.86,-19.7031 V 38.6055 c 0,-11.6914 -1.98,-21.0039 -5.95,-27.9375 -3.96,-6.92581 -10.08,-10.390656 -18.33,-10.390656 -8.26,0 -14.37,3.464846 -18.34,10.390656 -3.96,6.9336 -5.94,16.2461 -5.94,27.9375 v 12.5586 h 7.08 v -13.211 c 0,-8.6601 1.36,-15.5898 4.1,-20.7851 2.72,-5.1953 7.04,-7.79691 12.94,-7.79691 11.36,0 17.04,9.81641 17.04,29.44921 v 11.6914 c 0,7.7969 -1.55,14.0039 -4.66,18.625 -3.11,4.6172 -7.35,6.9297 -12.7,6.9297 h -6.28 v 9.0938 h 6.76 c 4.93,0 8.98,2.4179 12.14,7.2539 3.16,4.8359 4.74,10.7889 4.74,17.8629 v 5.633 c 0,19.633 -5.68,29.445 -17.04,29.445 -5.9,0 -10.24,-2.558 -13.03,-7.687 -2.79,-5.125 -4.18,-12.09 -4.18,-20.895 v -8.226 h -6.75 v 7.797 c 0,11.691 1.96,20.965 5.87,27.824 z m 100.9,-109.0313 h -35.06 l -5.63,-33.56248 h -6.74 l 24.59,151.79278 h 10.78 L 1163.78,1.57422 h -7.39 z m -17.69,106.7583 -16.24,-98.0942 h 32.8 z m 108.7,-6.282 h 9.17 c 17.26,0 25.89,-12.703 25.89,-38.1091 V 56.1445 c 0,-25.4101 -8.63,-38.1132 -25.89,-38.1132 h -9.17 V 1.57422 h -7.24 V 18.0313 h -9.15 c -17.27,0 -25.9,12.7031 -25.9,38.1132 v 41.3594 c 0,25.4061 8.63,38.1091 25.9,38.1091 h 9.15 v 17.539 h 7.24 z m -7.24,-8.879 h -9.15 c -12.44,0 -18.66,-9.527 -18.66,-28.5817 V 55.4922 c 0,-19.0547 6.22,-28.5781 18.66,-28.5781 h 9.15 z m 7.24,-99.8199 h 9.17 c 12.44,0 18.65,9.5234 18.65,28.5781 v 42.6601 c 0,19.0547 -6.21,28.5817 -18.65,28.5817 h -9.17 z m 47.12,11.6914 v 77.5195 c 0,11.547 2.06,20.82 6.18,27.824 4.13,7 10.27,10.504 18.42,10.504 8.36,0 14.6,-3.465 18.73,-10.39 4.12,-6.934 6.19,-16.247 6.19,-27.938 V 38.6055 c 0,-11.6914 -2.07,-21.0039 -6.19,-27.9375 -4.13,-6.92581 -10.37,-10.390656 -18.73,-10.390656 -8.15,0 -14.29,3.499996 -18.42,10.503956 -4.12,7 -6.18,16.2734 -6.18,27.8242 z m 7.39,78.1675 V 37.9531 c 0,-8.8047 1.39,-15.7695 4.18,-20.8945 2.79,-5.125 7.13,-7.68751 13.03,-7.68751 6,0 10.42,2.56251 13.27,7.68751 2.83,5.125 4.26,12.0898 4.26,20.8945 v 78.8199 c 0,8.805 -1.43,15.77 -4.26,20.895 -2.85,5.129 -7.27,7.687 -13.27,7.687 -5.9,0 -10.24,-2.558 -13.03,-7.687 -2.79,-5.125 -4.18,-12.09 -4.18,-20.895 z m 54.35,36.379 h 23.32 c 16.08,0 24.12,-12.269 24.12,-36.808 V 99.8828 c 0,-23.9609 -8.68,-35.9453 -26.05,-35.9453 h -13.99 V 1.57422 h -7.4 z m 7.4,-80.1168 h 13.99 c 6.54,0 11.28,2.0546 14.23,6.1679 2.95,4.1172 4.42,10.7969 4.42,20.0313 v 17.7576 c 0,18.047 -5.57,27.071 -16.72,27.071 h -15.92 z M 1470.44,136.266 1446.95,1.79297 h -7.4 L 1415.77,135.832 V 1.57422 h -6.61 V 153.152 h 10.61 l 23.65,-134.0348 23.47,134.0348 h 10.62 V 1.57422 h -7.07 z m 77.5,16.886 -29.1,-123.4254 c -2.04,-10.1055 -4.78,-17.4336 -8.21,-21.98051 -3.43,-4.54296 -8.95,-6.60156 -16.56,-6.17187 v 8.87888 c 4.93,-0.1406 8.58,1.1914 10.94,4.0039 2.35,2.8164 4.28,7.4024 5.78,13.7539 l 4.66,18.4063 -27,106.5348 h 7.55 l 13.19,-53.484 9.8,-40.4922 9.01,40.707 12.22,53.2692 z m 79.27,-17.539 -17.05,-63.6599 -18.32,-70.37888 h -8.04 V 153.152 h 6.75 V 23.4453 l 13.03,50.0195 21.55,79.6872 h 8.84 V 1.57422 h -6.76 z m 67.86,18.84 c 8.14,0 14.23,-3.504 18.25,-10.504 4.02,-7.004 6.03,-16.277 6.03,-27.824 V 38.6055 c 0,-11.5508 -2.01,-20.8242 -6.03,-27.8242 -4.02,-7.00396 -10.11,-10.503956 -18.25,-10.503956 -8.26,0 -14.37,3.499996 -18.34,10.503956 -3.96,7 -5.94,16.2734 -5.94,27.8242 v 14.7226 h 7.07 v -15.375 c 0,-18.9101 5.63,-28.36716 16.89,-28.36716 11.47,0 17.2,9.45706 17.2,28.36716 v 37.461 h -22.99 v 9.0976 h 22.99 v 32.2613 c 0,19.059 -5.73,28.582 -17.2,28.582 -5.79,0 -10.05,-2.597 -12.79,-7.792 -2.73,-5.196 -4.1,-12.129 -4.1,-20.79 v -10.175 h -6.91 v 9.527 c 0,11.691 1.95,21.004 5.86,27.938 3.92,6.925 10,10.39 18.26,10.39 z m 82.81,-152.87878 -31.04,71.24218 -7.71,-16.457 V 1.57422 h -7.4 V 153.152 h 7.4 V 73.0352 l 36.66,80.1168 h 7.72 L 1751.34,82.5625 1785.59,1.57422 Z M 1840.11,135.613 1823.06,71.9531 1804.73,1.57422 h -8.03 V 153.152 h 6.75 V 23.4453 l 13.03,50.0195 21.54,79.6872 h 8.85 V 1.57422 h -6.76 z m 61.91,8.45 h -35.05 V 1.57422 h -7.41 V 153.152 h 50.02 V 1.57422 h -7.56 z m 63.83,-8.45 -17.04,-63.6599 -18.33,-70.37888 h -8.04 V 153.152 h 6.76 V 23.4453 l 13.02,50.0195 21.55,79.6872 h 8.84 V 1.57422 h -6.76 z m 19.46,17.539 h 23.32 c 16.07,0 24.12,-12.269 24.12,-36.808 V 99.8828 c 0,-23.9609 -8.69,-35.9453 -26.05,-35.9453 h -13.99 V 1.57422 h -7.4 z m 7.4,-80.1168 h 13.99 c 6.53,0 11.28,2.0546 14.23,6.1679 2.95,4.1172 4.42,10.7969 4.42,20.0313 v 17.7576 c 0,18.047 -5.57,27.071 -16.72,27.071 h -15.92 z m 50.65,-34.4297 v 77.5195 c 0,11.547 2.06,20.82 6.19,27.824 4.13,7 10.27,10.504 18.41,10.504 8.36,0 14.61,-3.465 18.74,-10.39 4.13,-6.934 6.19,-16.247 6.19,-27.938 V 38.6055 c 0,-11.6914 -2.06,-21.0039 -6.19,-27.9375 -4.13,-6.92581 -10.38,-10.390656 -18.74,-10.390656 -8.14,0 -14.28,3.499996 -18.41,10.503956 -4.13,7 -6.19,16.2734 -6.19,27.8242 z m 7.4,78.1675 V 37.9531 c 0,-8.8047 1.39,-15.7695 4.18,-20.8945 2.79,-5.125 7.12,-7.68751 13.02,-7.68751 6.01,0 10.43,2.56251 13.27,7.68751 2.84,5.125 4.26,12.0898 4.26,20.8945 v 78.8199 c 0,8.805 -1.42,15.77 -4.26,20.895 -2.84,5.129 -7.26,7.687 -13.27,7.687 -5.9,0 -10.23,-2.558 -13.02,-7.687 -2.79,-5.125 -4.18,-12.09 -4.18,-20.895 z m 54.35,36.379 h 23.64 c 8.25,0 14.15,-2.668 17.69,-8.011 3.53,-5.344 5.3,-13.426 5.3,-24.25 v -8.664 c 0,-8.661 -1.1,-15.4106 -3.29,-20.2465 -2.2,-4.8321 -6.04,-8.0469 -11.5,-9.6367 11.25,-3.0274 16.89,-13.8555 16.89,-32.4805 v -13.207 c 0,-23.3868 -8.21,-35.08208 -24.61,-35.08208 h -24.12 z m 7.4,-66.9098 h 12.54 c 6.86,0 11.79,1.6992 14.79,5.0898 3,3.3907 4.5,9.707 4.5,18.945 v 9.746 c 0,8.227 -1.17,14.293 -3.54,18.188 -2.35,3.898 -6.42,5.852 -12.21,5.852 h -16.08 z m 0,-75.5742 h 16.72 c 11.47,0 17.21,8.7343 17.21,26.207 v 13.6367 c 0,9.6758 -1.61,16.5313 -4.83,20.5742 -3.22,4.043 -8.26,6.0625 -15.12,6.0625 h -13.98 z m 99.53,-9.09378 -31.03,71.24218 -7.72,-16.457 V 1.57422 h -7.4 V 153.152 h 7.4 V 73.0352 l 36.66,80.1168 h 7.71 L 2185.51,82.5625 2219.76,1.57422 Z M 2288.42,153.152 2259.31,29.7266 c -2.03,-10.1055 -4.76,-17.4336 -8.19,-21.98051 -3.43,-4.54296 -8.96,-6.60156 -16.57,-6.17187 v 8.87888 c 4.93,-0.1406 8.58,1.1914 10.93,4.0039 2.36,2.8164 4.29,7.4024 5.8,13.7539 l 4.66,18.4063 -27.02,106.5348 h 7.56 l 13.19,-53.484 9.81,-40.4922 9,40.707 12.22,53.2692 h 7.72" /><path
         id="path16"
         style="fill:#b0002c;fill-opacity:1;fill-rule:nonzero;stroke:none"
         d="M 43.5,220.273 H 1.73438 V 388.27 H 75.6641 v -24 H 28.1406 V 321.309 H 43.5 c 13.125,0 23.0469,-3.555 29.7656,-10.676 6.7188,-7.121 10.0782,-17.403 10.0782,-30.844 v -18 c 0,-13.437 -3.3594,-23.719 -10.0782,-30.836 C 66.5469,223.832 56.625,220.273 43.5,220.273 Z m -15.3594,24 H 43.5 c 8.9609,0 13.4453,5.278 13.4453,15.84 v 21.36 c 0,10.558 -4.4844,15.84 -13.4453,15.84 H 28.1406 Z M 127.5,364.27 v -46.797 h 36.242 V 293.469 H 127.5 v -49.196 h 45.594 v -24 H 101.102 V 388.27 h 71.992 v -24 z m 113.516,-81.36 h 24.961 v -22.32 c 0,-13.598 -3.36,-24.039 -10.079,-31.32 -6.718,-7.278 -16.484,-10.918 -29.273,-10.918 -12.805,0 -22.57,3.64 -29.281,10.918 -6.727,7.281 -10.086,17.722 -10.086,31.32 v 87.359 c 0,13.602 3.359,24.043 10.086,31.321 6.711,7.277 16.476,10.921 29.281,10.921 12.789,0 22.555,-3.644 29.273,-10.921 6.719,-7.278 10.079,-17.719 10.079,-31.321 v -16.316 h -24.961 v 18 c 0,11.039 -4.563,16.558 -13.68,16.558 -9.117,0 -13.672,-5.519 -13.672,-16.558 V 258.91 c 0,-10.879 4.555,-16.32 13.672,-16.32 9.117,0 13.68,5.441 13.68,16.32 z m 67.437,81.36 V 220.273 h -26.39 V 388.27 h 83.273 V 220.273 H 338.453 V 364.27 Z m 68.641,-144.239 v 24 c 6.406,0 10.687,1 12.844,3 2.156,2 3.32,6.762 3.476,14.282 l 4.32,126.957 h 74.641 V 220.273 H 445.492 V 364.27 h -23.039 l -2.875,-101.516 c -0.484,-15.363 -3.68,-26.324 -9.601,-32.879 -5.922,-6.562 -15.524,-9.844 -28.797,-9.844 z m 174,168.239 26.883,-167.997 h -26.641 l -4.563,30.481 h -32.398 l -4.562,-30.481 h -24.235 l 26.875,167.997 z m -20.641,-29.758 -12.719,-84.957 h 25.438 z m 52.078,5.758 v 24 h 81.602 v -24 H 636.531 V 220.273 h -26.39 V 364.27 Z m 119.524,-72 V 220.273 H 675.656 V 388.27 h 26.399 v -72 h 29.992 v 72 h 26.891 V 220.273 H 732.047 V 292.27 Z M 817.016,220.273 H 778.133 V 388.27 h 26.398 v -63.118 h 12.485 c 26.234,0 39.359,-13.839 39.359,-41.519 v -21.844 c 0,-27.68 -13.125,-41.516 -39.359,-41.516 z m -12.485,24 h 12.485 c 4.32,0 7.554,1.2 9.718,3.598 2.157,2.402 3.235,6.484 3.235,12.242 v 25.2 c 0,5.757 -1.078,9.839 -3.235,12.238 -2.164,2.402 -5.398,3.601 -9.718,3.601 h -12.485 z m 93.36,-24 H 871.492 V 388.27 h 26.399 z m 46.32,0 22.078,77.04 10.805,41.277 V 220.273 h 23.756 V 388.27 h -29.037 l -21.594,-69.36 -9.61,-36.957 V 388.27 H 917.094 V 220.273 Z m 27.125,205.438 h 16.078 c 0,-8.32 -2.406,-14.84 -7.203,-19.559 -4.805,-4.722 -11.758,-7.082 -20.883,-7.082 -8.953,0 -15.719,2.321 -20.273,6.957 -4.563,4.641 -7.008,11.203 -7.328,19.684 h 16.328 c 0.312,-4.32 1.351,-7.242 3.117,-8.758 1.758,-1.523 4.484,-2.285 8.156,-2.285 3.844,0 6.727,0.805 8.649,2.402 1.914,1.602 3.031,4.481 3.359,8.641 z m 188.394,-228 h -26.16 v 22.562 h -56.4 v -22.562 h -25.68 v 46.078 h 10.32 c 3.84,4.805 6,12.082 6.48,21.844 l 6,122.637 h 73.92 V 243.789 h 11.52 z m -60.71,166.559 -4.81,-98.157 c -0.64,-10.722 -3.12,-18.16 -7.44,-22.324 h 34.56 V 364.27 Z m 124.55,-66.957 -22.08,-77.04 h -27.12 V 388.27 h 23.52 V 281.953 l 9.6,36.957 21.6,69.36 h 29.04 V 220.273 h -23.76 V 338.59 Z m 104.16,40.32 v 9.359 c 0,7.199 -1.16,12.199 -3.48,15 -2.32,2.797 -5.73,4.199 -10.2,4.199 -9.28,0 -13.92,-5.519 -13.92,-16.558 v -13.684 h -24.24 v 12.481 c 0,13.601 3.28,23.961 9.84,31.082 6.55,7.121 16.24,10.679 29.04,10.679 12.8,0 22.56,-3.644 29.28,-10.921 6.72,-7.278 10.08,-17.719 10.08,-31.321 v -4.316 c 0,-17.922 -6.16,-29.442 -18.48,-34.563 12.32,-5.437 18.48,-17.195 18.48,-35.277 V 260.59 c 0,-13.598 -3.36,-24.039 -10.08,-31.32 -6.72,-7.278 -16.48,-10.918 -29.28,-10.918 -12.8,0 -22.57,3.64 -29.29,10.918 -6.71,7.281 -10.07,17.722 -10.07,31.32 v 18.48 h 24.96 v -20.16 c 0,-11.039 4.56,-16.558 13.68,-16.558 4.47,0 7.88,1.398 10.2,4.199 2.32,2.801 3.48,7.719 3.48,14.762 v 13.199 c 0,7.679 -1.36,13.16 -4.08,16.437 -2.72,3.281 -7.12,4.922 -13.2,4.922 h -6.48 v 23.996 h 7.92 c 5.28,0 9.24,1.363 11.88,4.082 2.64,2.723 3.96,7.281 3.96,13.684 z m 102.72,50.637 26.88,-167.997 h -26.64 l -4.56,30.481 h -32.4 l -4.56,-30.481 h -24.24 l 26.87,167.997 z m -20.64,-29.758 -12.72,-84.957 h 25.44 z m 86.88,-138.239 22.08,77.04 10.79,41.277 V 220.273 h 23.77 V 388.27 h -29.04 l -21.6,-69.36 -9.6,-36.957 V 388.27 h -23.52 V 220.273 Z m 27.11,205.438 h 16.09 c 0,-8.32 -2.41,-14.84 -7.2,-19.559 -4.81,-4.722 -11.76,-7.082 -20.89,-7.082 -8.96,0 -15.71,2.321 -20.27,6.957 -4.56,4.641 -7.01,11.203 -7.33,19.684 h 16.33 c 0.31,-4.32 1.35,-7.242 3.12,-8.758 1.76,-1.523 4.48,-2.285 8.15,-2.285 3.85,0 6.73,0.805 8.65,2.402 1.92,1.602 3.03,4.481 3.35,8.641 z m 75.12,-133.441 v -71.997 h -26.39 V 388.27 h 26.39 v -72 h 30 v 72 h 26.88 V 220.273 h -26.88 v 71.997 z m 160.32,-71.997 v 18.957 h -9.83 c -26.25,0 -39.36,13.84 -39.36,41.524 v 45.836 c 0,27.68 13.11,41.519 39.36,41.519 h 9.83 v 20.161 h 25.92 v -20.161 h 9.84 c 26.24,0 39.37,-13.839 39.37,-41.519 v -45.836 c 0,-27.684 -13.13,-41.524 -39.37,-41.524 h -9.84 V 220.273 Z M 1795,344.832 h -9.84 v -82.559 h 9.84 c 8.8,0 13.2,5.598 13.2,16.797 v 49.203 c 0,11.036 -4.4,16.559 -13.2,16.559 z m -35.76,-82.559 v 82.559 h -9.83 c -8.81,0 -13.21,-5.523 -13.21,-16.559 V 279.07 c 0,-11.199 4.4,-16.797 13.21,-16.797 z m 117.12,87.36 V 258.91 c 0,-11.039 4.56,-16.558 13.69,-16.558 9.11,0 13.67,5.519 13.67,16.558 v 90.723 c 0,11.039 -4.56,16.558 -13.67,16.558 -9.13,0 -13.69,-5.519 -13.69,-16.558 z m -26.4,-89.043 v 87.359 c 0,13.442 3.45,23.84 10.32,31.203 6.88,7.356 16.8,11.039 29.77,11.039 12.95,0 22.87,-3.683 29.75,-11.039 6.89,-7.363 10.33,-17.761 10.33,-31.203 V 260.59 c 0,-13.438 -3.44,-23.836 -10.33,-31.199 -6.88,-7.36 -16.8,-11.039 -29.75,-11.039 -12.97,0 -22.89,3.679 -29.77,11.039 -6.87,7.363 -10.32,17.761 -10.32,31.199 z m 136.09,127.68 c 26.23,0 39.35,-13.836 39.35,-41.52 v -21.84 c 0,-27.68 -13.12,-41.519 -39.35,-41.519 h -12.49 v -63.118 h -26.4 V 388.27 Z m 0,-24 h -12.49 v -56.879 h 12.49 c 4.31,0 7.55,1.203 9.72,3.601 2.15,2.399 3.23,6.481 3.23,12.238 v 25.2 c 0,5.761 -1.08,9.84 -3.23,12.242 -2.17,2.398 -5.41,3.598 -9.72,3.598 z m 88.08,24 19.43,-119.282 18,119.282 h 36.72 V 220.273 h -24.96 V 340.75 l -18.23,-120.477 h -24.96 l -19.69,118.801 V 220.273 h -23.03 V 388.27 Z m 132.23,-167.997 h -38.88 V 388.27 h 26.4 v -63.118 h 12.48 c 26.23,0 39.36,-13.839 39.36,-41.519 v -21.844 c 0,-27.68 -13.13,-41.516 -39.36,-41.516 z m -12.48,24 h 12.48 c 4.32,0 7.56,1.2 9.72,3.598 2.15,2.402 3.23,6.484 3.23,12.242 v 25.2 c 0,5.757 -1.08,9.839 -3.23,12.238 -2.16,2.402 -5.4,3.601 -9.72,3.601 h -12.48 z m 93.35,-24 h -26.39 V 388.27 h 26.39 V 220.273" /></g></g></svg>